M48
; DRILL file {KiCad (7.0.0)} date Fri Aug  4 20:04:33 2023
; FORMAT={-:-/ absolute / inch / decimal}
; #@! TF.CreationDate,2023-08-04T20:04:33+01:00
; #@! TF.GenerationSoftware,Kicad,Pcbnew,(7.0.0)
; #@! TF.FileFunction,Plated,1,2,PTH
FMAT,2
INCH
; #@! TA.AperFunction,Plated,PTH,ViaDrill
T1C0.0157
; #@! TA.AperFunction,Plated,PTH,ComponentDrill
T2C0.0315
%
G90
G05
T1
X5.29Y-4.36
X5.29Y-4.48
X5.3135Y-4.1115
X5.32Y-4.24
X5.38Y-4.14
X5.4295Y-3.5283
X5.44Y-4.11
X5.44Y-4.25
X5.44Y-4.36
X5.44Y-4.48
X5.4785Y-3.3912
X5.5007Y-3.557
X5.5166Y-3.758
X5.5443Y-3.697
X5.5783Y-3.5908
X5.5808Y-3.6302
X5.5859Y-3.7138
X5.632Y-3.6677
T2
X5.73Y-2.86
X5.73Y-2.96
X5.73Y-3.06
X5.73Y-3.16
X5.73Y-3.26
X5.73Y-3.36
X5.73Y-3.46
X5.73Y-3.56
X5.73Y-3.86
X5.73Y-3.96
X5.73Y-4.06
X5.73Y-4.16
X5.73Y-4.26
X5.73Y-4.36
X5.73Y-4.46
X5.73Y-4.56
X6.03Y-2.86
X6.03Y-2.96
X6.03Y-3.06
X6.03Y-3.16
X6.03Y-3.26
X6.03Y-3.36
X6.03Y-3.46
X6.03Y-3.56
X6.03Y-3.86
X6.03Y-3.96
X6.03Y-4.06
X6.03Y-4.16
X6.03Y-4.26
X6.03Y-4.36
X6.03Y-4.46
X6.03Y-4.56
T0
M30
