%TF.GenerationSoftware,KiCad,Pcbnew,(7.0.0)*%
%TF.CreationDate,2023-08-04T20:04:38+01:00*%
%TF.ProjectId,DataIODecode,44617461-494f-4446-9563-6f64652e6b69,rev?*%
%TF.SameCoordinates,Original*%
%TF.FileFunction,Copper,L2,Bot*%
%TF.FilePolarity,Positive*%
%FSLAX46Y46*%
G04 Gerber Fmt 4.6, Leading zero omitted, Abs format (unit mm)*
G04 Created by KiCad (PCBNEW (7.0.0)) date 2023-08-04 20:04:38*
%MOMM*%
%LPD*%
G01*
G04 APERTURE LIST*
%TA.AperFunction,ComponentPad*%
%ADD10R,1.600000X1.600000*%
%TD*%
%TA.AperFunction,ComponentPad*%
%ADD11O,1.600000X1.600000*%
%TD*%
%TA.AperFunction,ViaPad*%
%ADD12C,0.800000*%
%TD*%
%TA.AperFunction,Conductor*%
%ADD13C,0.250000*%
%TD*%
G04 APERTURE END LIST*
D10*
%TO.P,J19,1,Pin_1*%
%TO.N,A14*%
X145541999Y-98043999D03*
D11*
%TO.P,J19,2,Pin_2*%
%TO.N,A13*%
X145541999Y-100583999D03*
%TO.P,J19,3,Pin_3*%
%TO.N,A12*%
X145541999Y-103123999D03*
%TO.P,J19,4,Pin_4*%
%TO.N,A11*%
X145541999Y-105663999D03*
%TO.P,J19,5,Pin_5*%
%TO.N,A8*%
X145541999Y-108203999D03*
%TO.P,J19,6,Pin_6*%
%TO.N,A9*%
X145541999Y-110743999D03*
%TO.P,J19,7,Pin_7*%
%TO.N,A10*%
X145541999Y-113283999D03*
%TO.P,J19,8,Pin_8*%
%TO.N,GND*%
X145541999Y-115823999D03*
%TO.P,J19,9,Pin_9*%
%TO.N,U19_O4*%
X153161999Y-115823999D03*
%TO.P,J19,10,Pin_10*%
%TO.N,U19_O3*%
X153161999Y-113283999D03*
%TO.P,J19,11,Pin_11*%
%TO.N,U19_O2*%
X153161999Y-110743999D03*
%TO.P,J19,12,Pin_12*%
%TO.N,U19_O1*%
X153161999Y-108203999D03*
%TO.P,J19,13,Pin_13*%
%TO.N,GND*%
X153161999Y-105663999D03*
%TO.P,J19,14,Pin_14*%
%TO.N,RnW*%
X153161999Y-103123999D03*
%TO.P,J19,15,Pin_15*%
%TO.N,A15*%
X153161999Y-100583999D03*
%TO.P,J19,16,Pin_16*%
%TO.N,+5V*%
X153161999Y-98043999D03*
%TD*%
D10*
%TO.P,J14,1,Pin_1*%
%TO.N,U19_O3*%
X145541999Y-72643999D03*
D11*
%TO.P,J14,2,Pin_2*%
%TO.N,U19_O2*%
X145541999Y-75183999D03*
%TO.P,J14,3,Pin_3*%
%TO.N,U19_O1*%
X145541999Y-77723999D03*
%TO.P,J14,4,Pin_4*%
%TO.N,A7*%
X145541999Y-80263999D03*
%TO.P,J14,5,Pin_5*%
%TO.N,A4*%
X145541999Y-82803999D03*
%TO.P,J14,6,Pin_6*%
%TO.N,A5*%
X145541999Y-85343999D03*
%TO.P,J14,7,Pin_7*%
%TO.N,A6*%
X145541999Y-87883999D03*
%TO.P,J14,8,Pin_8*%
%TO.N,GND*%
X145541999Y-90423999D03*
%TO.P,J14,9,Pin_9*%
%TO.N,U14_O4*%
X153161999Y-90423999D03*
%TO.P,J14,10,Pin_10*%
%TO.N,U14_O3*%
X153161999Y-87883999D03*
%TO.P,J14,11,Pin_11*%
%TO.N,U14_O2*%
X153161999Y-85343999D03*
%TO.P,J14,12,Pin_12*%
%TO.N,U14_O1*%
X153161999Y-82803999D03*
%TO.P,J14,13,Pin_13*%
%TO.N,GND*%
X153161999Y-80263999D03*
%TO.P,J14,14,Pin_14*%
X153161999Y-77723999D03*
%TO.P,J14,15,Pin_15*%
%TO.N,U19_O4*%
X153161999Y-75183999D03*
%TO.P,J14,16,Pin_16*%
%TO.N,+5V*%
X153161999Y-72643999D03*
%TD*%
D12*
%TO.N,+5V*%
X139154400Y-86136900D03*
X136652000Y-105156000D03*
%TO.N,BANK0*%
X134366000Y-113792000D03*
X138176000Y-113792000D03*
%TO.N,BANK1*%
X138176000Y-110744000D03*
X134366000Y-110744000D03*
%TO.N,BANK2*%
X138176000Y-107950000D03*
X135128000Y-107696000D03*
%TO.N,BANK3*%
X134963500Y-104431500D03*
X138176000Y-104394000D03*
%TO.N,A14*%
X140825900Y-93904600D03*
%TO.N,A13*%
X141881500Y-94329900D03*
%TO.N,A12*%
X140122606Y-95453106D03*
%TO.N,A11*%
X143052651Y-93158751D03*
%TO.N,A8*%
X141688000Y-91205600D03*
%TO.N,A9*%
X141751100Y-92207900D03*
%TO.N,RnW*%
X139718900Y-90348200D03*
%TO.N,A15*%
X137909200Y-89617900D03*
%TD*%
D13*
%TO.N,+5V*%
X139154400Y-87457200D02*
X140672100Y-87457200D01*
X139154400Y-87457200D02*
X139154400Y-86136900D01*
X136652000Y-105156000D02*
X134366000Y-105156000D01*
X150911400Y-71518700D02*
X152036700Y-72644000D01*
X143764000Y-72309600D02*
X144554900Y-71518700D01*
X133604000Y-88138000D02*
X135636000Y-86106000D01*
X135636000Y-86106000D02*
X139123500Y-86106000D01*
X139123500Y-86106000D02*
X139154400Y-86136900D01*
X142463100Y-86136900D02*
X143764000Y-84836000D01*
X151258900Y-98044000D02*
X153162000Y-98044000D01*
X134366000Y-105156000D02*
X133604000Y-104394000D01*
X144554900Y-71518700D02*
X150911400Y-71518700D01*
X152036700Y-72644000D02*
X153162000Y-72644000D01*
X143764000Y-84836000D02*
X143764000Y-72309600D01*
X140672100Y-87457200D02*
X151258900Y-98044000D01*
X139154400Y-86136900D02*
X142463100Y-86136900D01*
X133604000Y-104394000D02*
X133604000Y-88138000D01*
%TO.N,GND*%
X145542000Y-90424000D02*
X147175100Y-90424000D01*
X152036700Y-105664000D02*
X153162000Y-105664000D01*
X154287300Y-105664000D02*
X153162000Y-105664000D01*
X147175100Y-90424000D02*
X154287300Y-97536200D01*
X146558000Y-115824000D02*
X148336000Y-114046000D01*
X148336000Y-114046000D02*
X148336000Y-109364700D01*
X154287300Y-97536200D02*
X154287300Y-105664000D01*
X145542000Y-115824000D02*
X146558000Y-115824000D01*
X148336000Y-109364700D02*
X152036700Y-105664000D01*
%TO.N,BANK0*%
X138176000Y-113792000D02*
X134366000Y-113792000D01*
%TO.N,BANK1*%
X138176000Y-110744000D02*
X134366000Y-110744000D01*
%TO.N,BANK2*%
X135128000Y-107696000D02*
X137922000Y-107696000D01*
X137922000Y-107696000D02*
X138176000Y-107950000D01*
%TO.N,BANK3*%
X135128000Y-104394000D02*
X135090500Y-104431500D01*
X135090500Y-104431500D02*
X134963500Y-104431500D01*
X138176000Y-104394000D02*
X135128000Y-104394000D01*
%TO.N,U19_O3*%
X153162000Y-113284000D02*
X154178000Y-113284000D01*
X155688400Y-111773600D02*
X155688400Y-94551700D01*
X154178000Y-113284000D02*
X155688400Y-111773600D01*
X147066000Y-72644000D02*
X145542000Y-72644000D01*
X155688400Y-94551700D02*
X151997500Y-90860800D01*
X151997500Y-90860800D02*
X151997500Y-77575500D01*
X151997500Y-77575500D02*
X147066000Y-72644000D01*
%TO.N,U19_O2*%
X153162000Y-110744000D02*
X154432000Y-110744000D01*
X154432000Y-110744000D02*
X155203600Y-109972400D01*
X151467600Y-91286000D02*
X151467600Y-79077600D01*
X155203600Y-95022000D02*
X151467600Y-91286000D01*
X151467600Y-79077600D02*
X147574000Y-75184000D01*
X155203600Y-109972400D02*
X155203600Y-95022000D01*
X147574000Y-75184000D02*
X145542000Y-75184000D01*
%TO.N,U19_O1*%
X146050000Y-77724000D02*
X147574000Y-79248000D01*
X145542000Y-77724000D02*
X146050000Y-77724000D01*
X153924000Y-108204000D02*
X153162000Y-108204000D01*
X147574000Y-79248000D02*
X147574000Y-88884400D01*
X147574000Y-88884400D02*
X154753200Y-96063600D01*
X154753200Y-96063600D02*
X154753200Y-107374800D01*
X154753200Y-107374800D02*
X153924000Y-108204000D01*
%TO.N,A14*%
X141380802Y-93806000D02*
X140924500Y-93806000D01*
X141581402Y-93605400D02*
X141380802Y-93806000D01*
X145542000Y-98044000D02*
X145542000Y-96965802D01*
X145542000Y-96965802D02*
X142181598Y-93605400D01*
X142181598Y-93605400D02*
X141581402Y-93605400D01*
X140924500Y-93806000D02*
X140825900Y-93904600D01*
%TO.N,A13*%
X141881500Y-96923500D02*
X141881500Y-94329900D01*
X145542000Y-100584000D02*
X141881500Y-96923500D01*
%TO.N,A12*%
X145542000Y-103124000D02*
X140122606Y-97704606D01*
X140122606Y-97704606D02*
X140122606Y-95453106D01*
%TO.N,A11*%
X146675300Y-104530700D02*
X146675300Y-96781400D01*
X145542000Y-105664000D02*
X146675300Y-104530700D01*
X146675300Y-96781400D02*
X143052651Y-93158751D01*
%TO.N,A8*%
X147125600Y-96205900D02*
X142125300Y-91205600D01*
X142125300Y-91205600D02*
X141688000Y-91205600D01*
X145542000Y-108204000D02*
X145542000Y-107078700D01*
X145823300Y-107078700D02*
X147125600Y-105776400D01*
X147125600Y-105776400D02*
X147125600Y-96205900D01*
X145542000Y-107078700D02*
X145823300Y-107078700D01*
%TO.N,A9*%
X141473500Y-92207900D02*
X139638600Y-94042800D01*
X139398106Y-95153008D02*
X139398106Y-104600106D01*
X141751100Y-92207900D02*
X141473500Y-92207900D01*
X139638600Y-94042800D02*
X139638600Y-94912514D01*
X139398106Y-104600106D02*
X145542000Y-110744000D01*
X139638600Y-94912514D02*
X139398106Y-95153008D01*
%TO.N,RnW*%
X141910700Y-90348200D02*
X139718900Y-90348200D01*
X153162000Y-103124000D02*
X153162000Y-101998700D01*
X147575900Y-96013400D02*
X141910700Y-90348200D01*
X147575900Y-96596100D02*
X147575900Y-96013400D01*
X153162000Y-101998700D02*
X152978500Y-101998700D01*
X152978500Y-101998700D02*
X147575900Y-96596100D01*
%TO.N,A15*%
X142195900Y-89617900D02*
X153162000Y-100584000D01*
X137909200Y-89617900D02*
X142195900Y-89617900D01*
%TD*%
%TA.AperFunction,Conductor*%
%TO.N,GND*%
G36*
X156147500Y-70629113D02*
G01*
X156192887Y-70674500D01*
X156209500Y-70736500D01*
X156209500Y-93888848D01*
X156195985Y-93945143D01*
X156158385Y-93989166D01*
X156104898Y-94011321D01*
X156047182Y-94006779D01*
X155997819Y-93976529D01*
X153777045Y-91755755D01*
X153746461Y-91705349D01*
X153742614Y-91646517D01*
X153766373Y-91592557D01*
X153805889Y-91560864D01*
X153805138Y-91559563D01*
X153809821Y-91556858D01*
X153814734Y-91554568D01*
X154001139Y-91424047D01*
X154162047Y-91263139D01*
X154292568Y-91076734D01*
X154388739Y-90870496D01*
X154447635Y-90650692D01*
X154467468Y-90424000D01*
X154447635Y-90197308D01*
X154388739Y-89977504D01*
X154292568Y-89771266D01*
X154162047Y-89584861D01*
X154001139Y-89423953D01*
X153837932Y-89309675D01*
X153819173Y-89296540D01*
X153819171Y-89296539D01*
X153814734Y-89293432D01*
X153809827Y-89291143D01*
X153809817Y-89291138D01*
X153756724Y-89266380D01*
X153704549Y-89220623D01*
X153685130Y-89153997D01*
X153704550Y-89087372D01*
X153756723Y-89041618D01*
X153814734Y-89014568D01*
X154001139Y-88884047D01*
X154162047Y-88723139D01*
X154292568Y-88536734D01*
X154388739Y-88330496D01*
X154447635Y-88110692D01*
X154467468Y-87884000D01*
X154447635Y-87657308D01*
X154400325Y-87480745D01*
X154390141Y-87442736D01*
X154390140Y-87442734D01*
X154388739Y-87437504D01*
X154292568Y-87231266D01*
X154162047Y-87044861D01*
X154001139Y-86883953D01*
X153864086Y-86787988D01*
X153819173Y-86756540D01*
X153819171Y-86756539D01*
X153814734Y-86753432D01*
X153756724Y-86726381D01*
X153704549Y-86680625D01*
X153685130Y-86614000D01*
X153704549Y-86547375D01*
X153756725Y-86501618D01*
X153814734Y-86474568D01*
X154001139Y-86344047D01*
X154162047Y-86183139D01*
X154292568Y-85996734D01*
X154388739Y-85790496D01*
X154447635Y-85570692D01*
X154467468Y-85344000D01*
X154447635Y-85117308D01*
X154388739Y-84897504D01*
X154292568Y-84691266D01*
X154162047Y-84504861D01*
X154001139Y-84343953D01*
X153814734Y-84213432D01*
X153756724Y-84186381D01*
X153704549Y-84140625D01*
X153685130Y-84074000D01*
X153704549Y-84007375D01*
X153756725Y-83961618D01*
X153814734Y-83934568D01*
X154001139Y-83804047D01*
X154162047Y-83643139D01*
X154292568Y-83456734D01*
X154388739Y-83250496D01*
X154447635Y-83030692D01*
X154467468Y-82804000D01*
X154447635Y-82577308D01*
X154388739Y-82357504D01*
X154292568Y-82151266D01*
X154162047Y-81964861D01*
X154001139Y-81803953D01*
X153814734Y-81673432D01*
X153809831Y-81671145D01*
X153809823Y-81671141D01*
X153756134Y-81646106D01*
X153703958Y-81600349D01*
X153684539Y-81533723D01*
X153703959Y-81467098D01*
X153756135Y-81421341D01*
X153809585Y-81396417D01*
X153818912Y-81391032D01*
X153996381Y-81266767D01*
X154004647Y-81259830D01*
X154157830Y-81106647D01*
X154164767Y-81098381D01*
X154289032Y-80920912D01*
X154294420Y-80911580D01*
X154385977Y-80715234D01*
X154389669Y-80705092D01*
X154437179Y-80527780D01*
X154437547Y-80516551D01*
X154426605Y-80514000D01*
X153036000Y-80514000D01*
X152974000Y-80497387D01*
X152928613Y-80452000D01*
X152912000Y-80390000D01*
X152912000Y-79997674D01*
X153412000Y-79997674D01*
X153415450Y-80010549D01*
X153428326Y-80014000D01*
X154426605Y-80014000D01*
X154437547Y-80011448D01*
X154437179Y-80000219D01*
X154389669Y-79822907D01*
X154385977Y-79812765D01*
X154294420Y-79616419D01*
X154289032Y-79607087D01*
X154164767Y-79429618D01*
X154157830Y-79421352D01*
X154004647Y-79268169D01*
X153996381Y-79261232D01*
X153818912Y-79136967D01*
X153809583Y-79131581D01*
X153755542Y-79106381D01*
X153703367Y-79060623D01*
X153683948Y-78993997D01*
X153703368Y-78927372D01*
X153755545Y-78881616D01*
X153809581Y-78856419D01*
X153818912Y-78851032D01*
X153996381Y-78726767D01*
X154004647Y-78719830D01*
X154157830Y-78566647D01*
X154164767Y-78558381D01*
X154289032Y-78380912D01*
X154294420Y-78371580D01*
X154385977Y-78175234D01*
X154389669Y-78165092D01*
X154437179Y-77987780D01*
X154437547Y-77976551D01*
X154426605Y-77974000D01*
X153428326Y-77974000D01*
X153415450Y-77977450D01*
X153412000Y-77990326D01*
X153412000Y-79997674D01*
X152912000Y-79997674D01*
X152912000Y-77598000D01*
X152928613Y-77536000D01*
X152974000Y-77490613D01*
X153036000Y-77474000D01*
X154426605Y-77474000D01*
X154437547Y-77471448D01*
X154437179Y-77460219D01*
X154389669Y-77282907D01*
X154385977Y-77272765D01*
X154294420Y-77076419D01*
X154289032Y-77067087D01*
X154164767Y-76889618D01*
X154157830Y-76881352D01*
X154004647Y-76728169D01*
X153996381Y-76721232D01*
X153818912Y-76596967D01*
X153809579Y-76591579D01*
X153756134Y-76566657D01*
X153703958Y-76520899D01*
X153684539Y-76454274D01*
X153703959Y-76387649D01*
X153756131Y-76341894D01*
X153814734Y-76314568D01*
X154001139Y-76184047D01*
X154162047Y-76023139D01*
X154292568Y-75836734D01*
X154388739Y-75630496D01*
X154447635Y-75410692D01*
X154467468Y-75184000D01*
X154447635Y-74957308D01*
X154388739Y-74737504D01*
X154292568Y-74531266D01*
X154162047Y-74344861D01*
X154001139Y-74183953D01*
X153814734Y-74053432D01*
X153756724Y-74026381D01*
X153704549Y-73980625D01*
X153685130Y-73914000D01*
X153704549Y-73847375D01*
X153756725Y-73801618D01*
X153814734Y-73774568D01*
X154001139Y-73644047D01*
X154162047Y-73483139D01*
X154292568Y-73296734D01*
X154388739Y-73090496D01*
X154447635Y-72870692D01*
X154467468Y-72644000D01*
X154447635Y-72417308D01*
X154431176Y-72355881D01*
X154390141Y-72202736D01*
X154390140Y-72202734D01*
X154388739Y-72197504D01*
X154292568Y-71991266D01*
X154162047Y-71804861D01*
X154001139Y-71643953D01*
X153814734Y-71513432D01*
X153608496Y-71417261D01*
X153603271Y-71415861D01*
X153603263Y-71415858D01*
X153393916Y-71359764D01*
X153393907Y-71359762D01*
X153388692Y-71358365D01*
X153383304Y-71357893D01*
X153383301Y-71357893D01*
X153167395Y-71339004D01*
X153162000Y-71338532D01*
X153156605Y-71339004D01*
X152940698Y-71357893D01*
X152940693Y-71357893D01*
X152935308Y-71358365D01*
X152930094Y-71359762D01*
X152930083Y-71359764D01*
X152720736Y-71415858D01*
X152720724Y-71415862D01*
X152715504Y-71417261D01*
X152710599Y-71419547D01*
X152710594Y-71419550D01*
X152514176Y-71511142D01*
X152514172Y-71511144D01*
X152509266Y-71513432D01*
X152504833Y-71516535D01*
X152504826Y-71516540D01*
X152327296Y-71640847D01*
X152327291Y-71640850D01*
X152322861Y-71643953D01*
X152319037Y-71647777D01*
X152209733Y-71757081D01*
X152154145Y-71789174D01*
X152089958Y-71789174D01*
X152034371Y-71757080D01*
X151408686Y-71131395D01*
X151401242Y-71123214D01*
X151397186Y-71116823D01*
X151348175Y-71070798D01*
X151345378Y-71068087D01*
X151328627Y-71051336D01*
X151325871Y-71048580D01*
X151322690Y-71046112D01*
X151313814Y-71038530D01*
X151287669Y-71013978D01*
X151287667Y-71013976D01*
X151281982Y-71008638D01*
X151275149Y-71004882D01*
X151275143Y-71004877D01*
X151264425Y-70998985D01*
X151248166Y-70988306D01*
X151238495Y-70980804D01*
X151238492Y-70980802D01*
X151232336Y-70976027D01*
X151225179Y-70972929D01*
X151225176Y-70972928D01*
X151192249Y-70958678D01*
X151181763Y-70953541D01*
X151150332Y-70936262D01*
X151150323Y-70936258D01*
X151143492Y-70932503D01*
X151135935Y-70930562D01*
X151135931Y-70930561D01*
X151124088Y-70927520D01*
X151105684Y-70921219D01*
X151094457Y-70916360D01*
X151094450Y-70916358D01*
X151087296Y-70913262D01*
X151079592Y-70912041D01*
X151079590Y-70912041D01*
X151044159Y-70906429D01*
X151032724Y-70904061D01*
X150997971Y-70895138D01*
X150997963Y-70895137D01*
X150990419Y-70893200D01*
X150982623Y-70893200D01*
X150970383Y-70893200D01*
X150950997Y-70891674D01*
X150931204Y-70888540D01*
X150923438Y-70889274D01*
X150923435Y-70889274D01*
X150887724Y-70892650D01*
X150876055Y-70893200D01*
X144632675Y-70893200D01*
X144621619Y-70892678D01*
X144614233Y-70891027D01*
X144606445Y-70891271D01*
X144606438Y-70891271D01*
X144547013Y-70893139D01*
X144543119Y-70893200D01*
X144515550Y-70893200D01*
X144511694Y-70893686D01*
X144511691Y-70893687D01*
X144511635Y-70893694D01*
X144511562Y-70893703D01*
X144499944Y-70894617D01*
X144464065Y-70895745D01*
X144464064Y-70895745D01*
X144456273Y-70895990D01*
X144448788Y-70898164D01*
X144448784Y-70898165D01*
X144437025Y-70901581D01*
X144417987Y-70905523D01*
X144405849Y-70907057D01*
X144405841Y-70907058D01*
X144398108Y-70908036D01*
X144390860Y-70910905D01*
X144390854Y-70910907D01*
X144357497Y-70924113D01*
X144346454Y-70927894D01*
X144311996Y-70937906D01*
X144311989Y-70937908D01*
X144304510Y-70940082D01*
X144297805Y-70944047D01*
X144297796Y-70944051D01*
X144287256Y-70950284D01*
X144269793Y-70958839D01*
X144258422Y-70963341D01*
X144258416Y-70963343D01*
X144251168Y-70966214D01*
X144244863Y-70970794D01*
X144244853Y-70970800D01*
X144215834Y-70991883D01*
X144206078Y-70998292D01*
X144175193Y-71016558D01*
X144175188Y-71016561D01*
X144168480Y-71020529D01*
X144162967Y-71026040D01*
X144162960Y-71026047D01*
X144154307Y-71034700D01*
X144139524Y-71047326D01*
X144129627Y-71054517D01*
X144129620Y-71054523D01*
X144123313Y-71059106D01*
X144118346Y-71065108D01*
X144118335Y-71065120D01*
X144095470Y-71092759D01*
X144087610Y-71101397D01*
X143376696Y-71812311D01*
X143368511Y-71819759D01*
X143362123Y-71823814D01*
X143356788Y-71829494D01*
X143356783Y-71829499D01*
X143316096Y-71872825D01*
X143313392Y-71875616D01*
X143296628Y-71892380D01*
X143296621Y-71892387D01*
X143293880Y-71895129D01*
X143291500Y-71898196D01*
X143291489Y-71898209D01*
X143291400Y-71898325D01*
X143283842Y-71907170D01*
X143259280Y-71933327D01*
X143259273Y-71933336D01*
X143253938Y-71939018D01*
X143250182Y-71945849D01*
X143250179Y-71945854D01*
X143244285Y-71956575D01*
X143233609Y-71972827D01*
X143226109Y-71982496D01*
X143226101Y-71982507D01*
X143221327Y-71988664D01*
X143218234Y-71995808D01*
X143218229Y-71995819D01*
X143203974Y-72028760D01*
X143198838Y-72039243D01*
X143177803Y-72077508D01*
X143175864Y-72085056D01*
X143175863Y-72085061D01*
X143172822Y-72096907D01*
X143166521Y-72115311D01*
X143161658Y-72126548D01*
X143161656Y-72126552D01*
X143158562Y-72133704D01*
X143157342Y-72141403D01*
X143157342Y-72141405D01*
X143151729Y-72176841D01*
X143149361Y-72188276D01*
X143140438Y-72223028D01*
X143140436Y-72223036D01*
X143138500Y-72230581D01*
X143138500Y-72238377D01*
X143138500Y-72250617D01*
X143136974Y-72270002D01*
X143133840Y-72289796D01*
X143134574Y-72297561D01*
X143134574Y-72297564D01*
X143137950Y-72333276D01*
X143138500Y-72344945D01*
X143138500Y-84525547D01*
X143129061Y-84573000D01*
X143102181Y-84613228D01*
X142240328Y-85475081D01*
X142200100Y-85501961D01*
X142152647Y-85511400D01*
X139858148Y-85511400D01*
X139807715Y-85500681D01*
X139769618Y-85473004D01*
X139769450Y-85473191D01*
X139767671Y-85471589D01*
X139766001Y-85470376D01*
X139760271Y-85464012D01*
X139755013Y-85460192D01*
X139755011Y-85460190D01*
X139612388Y-85356569D01*
X139612387Y-85356568D01*
X139607130Y-85352749D01*
X139587480Y-85344000D01*
X139440145Y-85278401D01*
X139440140Y-85278399D01*
X139434203Y-85275756D01*
X139427844Y-85274404D01*
X139427840Y-85274403D01*
X139255408Y-85237752D01*
X139255405Y-85237751D01*
X139249046Y-85236400D01*
X139059754Y-85236400D01*
X139053395Y-85237751D01*
X139053391Y-85237752D01*
X138880959Y-85274403D01*
X138880952Y-85274405D01*
X138874597Y-85275756D01*
X138868662Y-85278398D01*
X138868654Y-85278401D01*
X138707607Y-85350105D01*
X138707602Y-85350107D01*
X138701670Y-85352749D01*
X138696416Y-85356565D01*
X138696411Y-85356569D01*
X138558431Y-85456818D01*
X138523864Y-85474431D01*
X138485546Y-85480500D01*
X135713775Y-85480500D01*
X135702719Y-85479978D01*
X135695333Y-85478327D01*
X135687545Y-85478571D01*
X135687538Y-85478571D01*
X135628127Y-85480439D01*
X135624232Y-85480500D01*
X135596650Y-85480500D01*
X135592805Y-85480985D01*
X135592780Y-85480987D01*
X135592653Y-85481004D01*
X135581034Y-85481918D01*
X135545172Y-85483045D01*
X135545165Y-85483046D01*
X135537373Y-85483291D01*
X135529888Y-85485465D01*
X135529872Y-85485468D01*
X135518126Y-85488881D01*
X135499083Y-85492825D01*
X135486949Y-85494358D01*
X135486948Y-85494358D01*
X135479208Y-85495336D01*
X135471958Y-85498205D01*
X135471951Y-85498208D01*
X135438598Y-85511413D01*
X135427554Y-85515194D01*
X135393101Y-85525204D01*
X135393090Y-85525208D01*
X135385610Y-85527382D01*
X135378898Y-85531351D01*
X135378896Y-85531352D01*
X135368364Y-85537580D01*
X135350904Y-85546134D01*
X135339519Y-85550642D01*
X135339513Y-85550644D01*
X135332268Y-85553514D01*
X135325963Y-85558094D01*
X135325955Y-85558099D01*
X135296932Y-85579185D01*
X135287174Y-85585595D01*
X135256296Y-85603857D01*
X135256290Y-85603861D01*
X135249580Y-85607830D01*
X135244067Y-85613341D01*
X135244060Y-85613348D01*
X135235410Y-85621998D01*
X135220627Y-85634624D01*
X135210726Y-85641817D01*
X135210716Y-85641826D01*
X135204413Y-85646406D01*
X135199444Y-85652411D01*
X135199441Y-85652415D01*
X135176572Y-85680059D01*
X135168711Y-85688697D01*
X133216696Y-87640711D01*
X133208511Y-87648159D01*
X133202123Y-87652214D01*
X133196788Y-87657894D01*
X133196783Y-87657899D01*
X133156096Y-87701225D01*
X133153392Y-87704016D01*
X133136628Y-87720780D01*
X133136621Y-87720787D01*
X133133880Y-87723529D01*
X133131500Y-87726596D01*
X133131489Y-87726609D01*
X133131400Y-87726725D01*
X133123842Y-87735570D01*
X133099280Y-87761727D01*
X133099273Y-87761736D01*
X133093938Y-87767418D01*
X133090182Y-87774249D01*
X133090179Y-87774254D01*
X133084285Y-87784975D01*
X133073609Y-87801227D01*
X133066109Y-87810896D01*
X133066101Y-87810907D01*
X133061327Y-87817064D01*
X133058234Y-87824208D01*
X133058229Y-87824219D01*
X133043974Y-87857160D01*
X133038838Y-87867643D01*
X133021560Y-87899073D01*
X133017803Y-87905908D01*
X133015864Y-87913456D01*
X133015863Y-87913461D01*
X133012822Y-87925307D01*
X133006521Y-87943711D01*
X133001658Y-87954948D01*
X133001656Y-87954952D01*
X132998562Y-87962104D01*
X132997342Y-87969803D01*
X132997342Y-87969805D01*
X132991729Y-88005241D01*
X132989361Y-88016676D01*
X132980438Y-88051428D01*
X132980436Y-88051436D01*
X132978500Y-88058981D01*
X132978500Y-88066777D01*
X132978500Y-88079017D01*
X132976974Y-88098402D01*
X132973840Y-88118196D01*
X132974574Y-88125961D01*
X132974574Y-88125964D01*
X132977950Y-88161676D01*
X132978500Y-88173345D01*
X132978500Y-104316225D01*
X132977978Y-104327280D01*
X132976327Y-104334667D01*
X132976571Y-104342453D01*
X132976571Y-104342461D01*
X132978439Y-104401873D01*
X132978500Y-104405768D01*
X132978500Y-104433350D01*
X132978988Y-104437219D01*
X132978989Y-104437225D01*
X132979004Y-104437343D01*
X132979918Y-104448966D01*
X132981045Y-104484830D01*
X132981046Y-104484837D01*
X132981291Y-104492627D01*
X132983467Y-104500119D01*
X132983468Y-104500121D01*
X132986879Y-104511862D01*
X132990825Y-104530915D01*
X132991589Y-104536967D01*
X132993336Y-104550792D01*
X132996206Y-104558042D01*
X132996208Y-104558048D01*
X133009414Y-104591404D01*
X133013197Y-104602451D01*
X133025382Y-104644390D01*
X133029353Y-104651105D01*
X133029354Y-104651107D01*
X133035581Y-104661637D01*
X133044136Y-104679099D01*
X133048642Y-104690480D01*
X133048643Y-104690483D01*
X133051514Y-104697732D01*
X133073440Y-104727912D01*
X133077181Y-104733060D01*
X133083593Y-104742822D01*
X133101856Y-104773702D01*
X133101859Y-104773707D01*
X133105830Y-104780420D01*
X133111345Y-104785935D01*
X133119990Y-104794580D01*
X133132626Y-104809374D01*
X133139819Y-104819275D01*
X133139823Y-104819279D01*
X133144406Y-104825587D01*
X133150415Y-104830558D01*
X133150416Y-104830559D01*
X133178058Y-104853426D01*
X133186699Y-104861289D01*
X133868707Y-105543297D01*
X133876156Y-105551483D01*
X133880214Y-105557877D01*
X133885899Y-105563215D01*
X133885901Y-105563218D01*
X133929239Y-105603915D01*
X133932036Y-105606626D01*
X133951530Y-105626120D01*
X133954615Y-105628513D01*
X133954701Y-105628580D01*
X133963573Y-105636158D01*
X133995418Y-105666062D01*
X134002248Y-105669817D01*
X134002251Y-105669819D01*
X134012971Y-105675712D01*
X134029222Y-105686386D01*
X134045064Y-105698674D01*
X134052221Y-105701771D01*
X134052223Y-105701772D01*
X134085155Y-105716022D01*
X134095650Y-105721164D01*
X134133908Y-105742197D01*
X134153312Y-105747179D01*
X134171714Y-105753480D01*
X134182941Y-105758338D01*
X134190105Y-105761438D01*
X134227697Y-105767391D01*
X134233239Y-105768269D01*
X134244682Y-105770639D01*
X134279425Y-105779560D01*
X134279426Y-105779560D01*
X134286981Y-105781500D01*
X134307017Y-105781500D01*
X134326402Y-105783025D01*
X134346196Y-105786160D01*
X134384276Y-105782560D01*
X134389676Y-105782050D01*
X134401345Y-105781500D01*
X135948252Y-105781500D01*
X135998685Y-105792219D01*
X136036781Y-105819895D01*
X136036950Y-105819709D01*
X136038728Y-105821310D01*
X136040398Y-105822523D01*
X136046129Y-105828888D01*
X136051387Y-105832708D01*
X136051388Y-105832709D01*
X136071909Y-105847618D01*
X136199270Y-105940151D01*
X136372197Y-106017144D01*
X136557354Y-106056500D01*
X136740143Y-106056500D01*
X136746646Y-106056500D01*
X136931803Y-106017144D01*
X137104730Y-105940151D01*
X137257871Y-105828888D01*
X137384533Y-105688216D01*
X137479179Y-105524284D01*
X137537674Y-105344256D01*
X137544870Y-105275787D01*
X137566000Y-105218513D01*
X137611899Y-105178263D01*
X137671442Y-105164792D01*
X137722771Y-105179270D01*
X137723270Y-105178151D01*
X137896197Y-105255144D01*
X138081354Y-105294500D01*
X138264143Y-105294500D01*
X138270646Y-105294500D01*
X138455803Y-105255144D01*
X138628730Y-105178151D01*
X138781871Y-105066888D01*
X138787331Y-105060823D01*
X138788301Y-105060183D01*
X138791050Y-105057709D01*
X138791424Y-105058124D01*
X138839518Y-105026409D01*
X138901866Y-105021829D01*
X138958522Y-105048246D01*
X138972175Y-105059541D01*
X138980805Y-105067395D01*
X144242586Y-110329177D01*
X144274680Y-110384763D01*
X144274680Y-110448950D01*
X144257765Y-110512079D01*
X144257762Y-110512090D01*
X144256365Y-110517308D01*
X144236532Y-110744000D01*
X144256365Y-110970692D01*
X144257762Y-110975907D01*
X144257764Y-110975916D01*
X144313858Y-111185263D01*
X144313861Y-111185271D01*
X144315261Y-111190496D01*
X144317549Y-111195403D01*
X144317550Y-111195405D01*
X144336785Y-111236654D01*
X144411432Y-111396734D01*
X144541953Y-111583139D01*
X144702861Y-111744047D01*
X144889266Y-111874568D01*
X144947276Y-111901618D01*
X144999449Y-111947373D01*
X145018869Y-112013997D01*
X144999451Y-112080622D01*
X144947276Y-112126380D01*
X144894178Y-112151141D01*
X144894173Y-112151143D01*
X144889266Y-112153432D01*
X144884833Y-112156535D01*
X144884826Y-112156540D01*
X144707296Y-112280847D01*
X144707291Y-112280850D01*
X144702861Y-112283953D01*
X144699037Y-112287776D01*
X144699031Y-112287782D01*
X144545782Y-112441031D01*
X144545776Y-112441037D01*
X144541953Y-112444861D01*
X144538850Y-112449291D01*
X144538847Y-112449296D01*
X144414540Y-112626826D01*
X144414535Y-112626833D01*
X144411432Y-112631266D01*
X144409144Y-112636172D01*
X144409142Y-112636176D01*
X144317550Y-112832594D01*
X144317547Y-112832599D01*
X144315261Y-112837504D01*
X144313862Y-112842724D01*
X144313858Y-112842736D01*
X144257764Y-113052083D01*
X144257762Y-113052094D01*
X144256365Y-113057308D01*
X144255893Y-113062693D01*
X144255893Y-113062698D01*
X144246812Y-113166500D01*
X144236532Y-113284000D01*
X144237004Y-113289395D01*
X144248755Y-113423716D01*
X144256365Y-113510692D01*
X144257762Y-113515907D01*
X144257764Y-113515916D01*
X144313858Y-113725263D01*
X144313861Y-113725271D01*
X144315261Y-113730496D01*
X144317549Y-113735403D01*
X144317550Y-113735405D01*
X144336785Y-113776654D01*
X144411432Y-113936734D01*
X144541953Y-114123139D01*
X144702861Y-114284047D01*
X144889266Y-114414568D01*
X144894175Y-114416857D01*
X144894180Y-114416860D01*
X144947864Y-114441893D01*
X145000040Y-114487649D01*
X145019460Y-114554274D01*
X145000041Y-114620899D01*
X144947866Y-114666657D01*
X144894416Y-114691581D01*
X144885087Y-114696967D01*
X144707618Y-114821232D01*
X144699352Y-114828169D01*
X144546169Y-114981352D01*
X144539232Y-114989618D01*
X144414967Y-115167087D01*
X144409579Y-115176419D01*
X144318022Y-115372765D01*
X144314330Y-115382907D01*
X144266820Y-115560219D01*
X144266452Y-115571448D01*
X144277395Y-115574000D01*
X146806605Y-115574000D01*
X146817547Y-115571448D01*
X146817179Y-115560219D01*
X146769669Y-115382907D01*
X146765977Y-115372765D01*
X146674420Y-115176419D01*
X146669032Y-115167087D01*
X146544767Y-114989618D01*
X146537830Y-114981352D01*
X146384647Y-114828169D01*
X146376381Y-114821232D01*
X146198912Y-114696967D01*
X146189579Y-114691579D01*
X146136134Y-114666657D01*
X146083958Y-114620899D01*
X146064539Y-114554274D01*
X146083959Y-114487649D01*
X146136131Y-114441894D01*
X146194734Y-114414568D01*
X146381139Y-114284047D01*
X146542047Y-114123139D01*
X146672568Y-113936734D01*
X146768739Y-113730496D01*
X146827635Y-113510692D01*
X146847468Y-113284000D01*
X146827635Y-113057308D01*
X146794461Y-112933501D01*
X146770141Y-112842736D01*
X146770140Y-112842734D01*
X146768739Y-112837504D01*
X146672568Y-112631266D01*
X146542047Y-112444861D01*
X146381139Y-112283953D01*
X146194734Y-112153432D01*
X146136724Y-112126381D01*
X146084549Y-112080625D01*
X146065130Y-112014000D01*
X146084549Y-111947375D01*
X146136725Y-111901618D01*
X146194734Y-111874568D01*
X146381139Y-111744047D01*
X146542047Y-111583139D01*
X146672568Y-111396734D01*
X146768739Y-111190496D01*
X146827635Y-110970692D01*
X146847468Y-110744000D01*
X146827635Y-110517308D01*
X146768739Y-110297504D01*
X146672568Y-110091266D01*
X146542047Y-109904861D01*
X146381139Y-109743953D01*
X146194734Y-109613432D01*
X146136724Y-109586381D01*
X146084549Y-109540625D01*
X146065130Y-109474000D01*
X146084549Y-109407375D01*
X146136725Y-109361618D01*
X146194734Y-109334568D01*
X146381139Y-109204047D01*
X146542047Y-109043139D01*
X146672568Y-108856734D01*
X146768739Y-108650496D01*
X146827635Y-108430692D01*
X146847468Y-108204000D01*
X146827635Y-107977308D01*
X146768739Y-107757504D01*
X146672568Y-107551266D01*
X146552173Y-107379322D01*
X146531058Y-107326173D01*
X146536043Y-107269198D01*
X146566066Y-107220523D01*
X147512911Y-106273678D01*
X147521081Y-106266244D01*
X147527477Y-106262186D01*
X147573518Y-106213156D01*
X147576135Y-106210454D01*
X147595720Y-106190871D01*
X147598185Y-106187692D01*
X147605767Y-106178816D01*
X147635662Y-106146982D01*
X147645313Y-106129423D01*
X147655990Y-106113170D01*
X147668273Y-106097336D01*
X147685618Y-106057252D01*
X147690751Y-106046771D01*
X147711797Y-106008492D01*
X147716779Y-105989084D01*
X147723082Y-105970676D01*
X147731037Y-105952296D01*
X147737871Y-105909144D01*
X147740233Y-105897738D01*
X147751100Y-105855419D01*
X147751100Y-105835383D01*
X147752627Y-105815985D01*
X147754539Y-105803913D01*
X147754538Y-105803913D01*
X147755760Y-105796204D01*
X147751650Y-105752724D01*
X147751100Y-105741055D01*
X147751100Y-97955252D01*
X147764615Y-97898957D01*
X147802215Y-97854934D01*
X147855702Y-97832779D01*
X147913418Y-97837321D01*
X147962781Y-97867571D01*
X152183329Y-102088120D01*
X152215422Y-102143706D01*
X152215424Y-102207891D01*
X152183333Y-102263478D01*
X152165787Y-102281024D01*
X152165771Y-102281042D01*
X152161953Y-102284861D01*
X152158851Y-102289290D01*
X152158846Y-102289297D01*
X152034540Y-102466826D01*
X152034535Y-102466833D01*
X152031432Y-102471266D01*
X152029144Y-102476172D01*
X152029142Y-102476176D01*
X151937550Y-102672594D01*
X151937547Y-102672599D01*
X151935261Y-102677504D01*
X151933862Y-102682724D01*
X151933858Y-102682736D01*
X151877764Y-102892083D01*
X151877762Y-102892094D01*
X151876365Y-102897308D01*
X151856532Y-103124000D01*
X151876365Y-103350692D01*
X151877762Y-103355907D01*
X151877764Y-103355916D01*
X151933858Y-103565263D01*
X151933861Y-103565271D01*
X151935261Y-103570496D01*
X152031432Y-103776734D01*
X152161953Y-103963139D01*
X152322861Y-104124047D01*
X152509266Y-104254568D01*
X152514175Y-104256857D01*
X152514180Y-104256860D01*
X152567864Y-104281893D01*
X152620040Y-104327649D01*
X152639460Y-104394274D01*
X152620041Y-104460899D01*
X152567866Y-104506657D01*
X152514416Y-104531581D01*
X152505087Y-104536967D01*
X152327618Y-104661232D01*
X152319352Y-104668169D01*
X152166169Y-104821352D01*
X152159232Y-104829618D01*
X152034967Y-105007087D01*
X152029579Y-105016419D01*
X151938022Y-105212765D01*
X151934330Y-105222907D01*
X151886820Y-105400219D01*
X151886452Y-105411448D01*
X151897395Y-105414000D01*
X153288000Y-105414000D01*
X153350000Y-105430613D01*
X153395387Y-105476000D01*
X153412000Y-105538000D01*
X153412000Y-105790000D01*
X153395387Y-105852000D01*
X153350000Y-105897387D01*
X153288000Y-105914000D01*
X151897395Y-105914000D01*
X151886452Y-105916551D01*
X151886820Y-105927780D01*
X151934330Y-106105092D01*
X151938022Y-106115234D01*
X152029579Y-106311580D01*
X152034967Y-106320912D01*
X152159232Y-106498381D01*
X152166169Y-106506647D01*
X152319352Y-106659830D01*
X152327618Y-106666767D01*
X152505087Y-106791032D01*
X152514423Y-106796422D01*
X152567864Y-106821342D01*
X152620040Y-106867098D01*
X152639460Y-106933723D01*
X152620041Y-107000348D01*
X152567866Y-107046106D01*
X152553286Y-107052905D01*
X152509266Y-107073432D01*
X152504833Y-107076535D01*
X152504826Y-107076540D01*
X152327296Y-107200847D01*
X152327291Y-107200850D01*
X152322861Y-107203953D01*
X152319037Y-107207776D01*
X152319031Y-107207782D01*
X152165782Y-107361031D01*
X152165776Y-107361037D01*
X152161953Y-107364861D01*
X152158850Y-107369291D01*
X152158847Y-107369296D01*
X152034540Y-107546826D01*
X152034535Y-107546833D01*
X152031432Y-107551266D01*
X152029144Y-107556172D01*
X152029142Y-107556176D01*
X151937550Y-107752594D01*
X151937547Y-107752599D01*
X151935261Y-107757504D01*
X151933862Y-107762724D01*
X151933858Y-107762736D01*
X151877764Y-107972083D01*
X151877762Y-107972094D01*
X151876365Y-107977308D01*
X151875893Y-107982693D01*
X151875893Y-107982698D01*
X151868263Y-108069910D01*
X151856532Y-108204000D01*
X151857004Y-108209395D01*
X151871710Y-108377491D01*
X151876365Y-108430692D01*
X151877762Y-108435907D01*
X151877764Y-108435916D01*
X151933858Y-108645263D01*
X151933861Y-108645271D01*
X151935261Y-108650496D01*
X152031432Y-108856734D01*
X152161953Y-109043139D01*
X152322861Y-109204047D01*
X152509266Y-109334568D01*
X152514172Y-109336855D01*
X152514176Y-109336858D01*
X152567274Y-109361618D01*
X152619450Y-109407375D01*
X152638869Y-109474000D01*
X152619450Y-109540625D01*
X152567274Y-109586382D01*
X152514176Y-109611141D01*
X152514163Y-109611148D01*
X152509266Y-109613432D01*
X152504833Y-109616535D01*
X152504826Y-109616540D01*
X152327296Y-109740847D01*
X152327291Y-109740850D01*
X152322861Y-109743953D01*
X152319037Y-109747776D01*
X152319031Y-109747782D01*
X152165782Y-109901031D01*
X152165776Y-109901037D01*
X152161953Y-109904861D01*
X152158850Y-109909291D01*
X152158847Y-109909296D01*
X152034540Y-110086826D01*
X152034535Y-110086833D01*
X152031432Y-110091266D01*
X152029144Y-110096172D01*
X152029142Y-110096176D01*
X151937550Y-110292594D01*
X151937547Y-110292599D01*
X151935261Y-110297504D01*
X151933862Y-110302724D01*
X151933858Y-110302736D01*
X151877764Y-110512083D01*
X151877762Y-110512094D01*
X151876365Y-110517308D01*
X151856532Y-110744000D01*
X151876365Y-110970692D01*
X151877762Y-110975907D01*
X151877764Y-110975916D01*
X151933858Y-111185263D01*
X151933861Y-111185271D01*
X151935261Y-111190496D01*
X151937549Y-111195403D01*
X151937550Y-111195405D01*
X151956785Y-111236654D01*
X152031432Y-111396734D01*
X152161953Y-111583139D01*
X152322861Y-111744047D01*
X152509266Y-111874568D01*
X152567276Y-111901618D01*
X152619449Y-111947373D01*
X152638869Y-112013997D01*
X152619451Y-112080622D01*
X152567276Y-112126380D01*
X152514178Y-112151141D01*
X152514173Y-112151143D01*
X152509266Y-112153432D01*
X152504833Y-112156535D01*
X152504826Y-112156540D01*
X152327296Y-112280847D01*
X152327291Y-112280850D01*
X152322861Y-112283953D01*
X152319037Y-112287776D01*
X152319031Y-112287782D01*
X152165782Y-112441031D01*
X152165776Y-112441037D01*
X152161953Y-112444861D01*
X152158850Y-112449291D01*
X152158847Y-112449296D01*
X152034540Y-112626826D01*
X152034535Y-112626833D01*
X152031432Y-112631266D01*
X152029144Y-112636172D01*
X152029142Y-112636176D01*
X151937550Y-112832594D01*
X151937547Y-112832599D01*
X151935261Y-112837504D01*
X151933862Y-112842724D01*
X151933858Y-112842736D01*
X151877764Y-113052083D01*
X151877762Y-113052094D01*
X151876365Y-113057308D01*
X151875893Y-113062693D01*
X151875893Y-113062698D01*
X151866812Y-113166500D01*
X151856532Y-113284000D01*
X151857004Y-113289395D01*
X151868755Y-113423716D01*
X151876365Y-113510692D01*
X151877762Y-113515907D01*
X151877764Y-113515916D01*
X151933858Y-113725263D01*
X151933861Y-113725271D01*
X151935261Y-113730496D01*
X151937549Y-113735403D01*
X151937550Y-113735405D01*
X151956785Y-113776654D01*
X152031432Y-113936734D01*
X152161953Y-114123139D01*
X152322861Y-114284047D01*
X152509266Y-114414568D01*
X152514172Y-114416855D01*
X152514176Y-114416858D01*
X152567274Y-114441618D01*
X152619450Y-114487375D01*
X152638869Y-114554000D01*
X152619450Y-114620625D01*
X152567274Y-114666382D01*
X152514176Y-114691141D01*
X152514166Y-114691147D01*
X152509266Y-114693432D01*
X152504833Y-114696535D01*
X152504826Y-114696540D01*
X152327296Y-114820847D01*
X152327291Y-114820850D01*
X152322861Y-114823953D01*
X152319037Y-114827776D01*
X152319031Y-114827782D01*
X152165782Y-114981031D01*
X152165776Y-114981037D01*
X152161953Y-114984861D01*
X152158850Y-114989291D01*
X152158847Y-114989296D01*
X152034540Y-115166826D01*
X152034535Y-115166833D01*
X152031432Y-115171266D01*
X152029144Y-115176172D01*
X152029142Y-115176176D01*
X151937550Y-115372594D01*
X151937547Y-115372599D01*
X151935261Y-115377504D01*
X151933862Y-115382724D01*
X151933858Y-115382736D01*
X151877764Y-115592083D01*
X151877762Y-115592094D01*
X151876365Y-115597308D01*
X151856532Y-115824000D01*
X151876365Y-116050692D01*
X151877762Y-116055907D01*
X151877764Y-116055916D01*
X151933858Y-116265263D01*
X151933861Y-116265271D01*
X151935261Y-116270496D01*
X152031432Y-116476734D01*
X152161953Y-116663139D01*
X152322861Y-116824047D01*
X152509266Y-116954568D01*
X152715504Y-117050739D01*
X152720734Y-117052140D01*
X152720736Y-117052141D01*
X152896285Y-117099179D01*
X152935308Y-117109635D01*
X153162000Y-117129468D01*
X153388692Y-117109635D01*
X153608496Y-117050739D01*
X153814734Y-116954568D01*
X154001139Y-116824047D01*
X154162047Y-116663139D01*
X154292568Y-116476734D01*
X154388739Y-116270496D01*
X154447635Y-116050692D01*
X154467468Y-115824000D01*
X154447635Y-115597308D01*
X154388739Y-115377504D01*
X154292568Y-115171266D01*
X154162047Y-114984861D01*
X154001139Y-114823953D01*
X153814734Y-114693432D01*
X153756724Y-114666381D01*
X153704549Y-114620625D01*
X153685130Y-114554000D01*
X153704549Y-114487375D01*
X153756725Y-114441618D01*
X153814734Y-114414568D01*
X154001139Y-114284047D01*
X154162047Y-114123139D01*
X154292568Y-113936734D01*
X154292985Y-113937026D01*
X154315603Y-113909682D01*
X154350981Y-113888254D01*
X154375407Y-113878582D01*
X154386450Y-113874802D01*
X154428390Y-113862618D01*
X154445629Y-113852422D01*
X154463103Y-113843862D01*
X154474474Y-113839360D01*
X154474476Y-113839358D01*
X154481732Y-113836486D01*
X154517069Y-113810811D01*
X154526824Y-113804403D01*
X154564420Y-113782170D01*
X154578584Y-113768005D01*
X154593379Y-113755368D01*
X154609587Y-113743594D01*
X154637428Y-113709938D01*
X154645279Y-113701309D01*
X155997818Y-112348771D01*
X156047182Y-112318521D01*
X156104898Y-112313979D01*
X156158385Y-112336134D01*
X156195985Y-112380157D01*
X156209500Y-112436452D01*
X156209500Y-117477500D01*
X156192887Y-117539500D01*
X156147500Y-117584887D01*
X156085500Y-117601500D01*
X132204500Y-117601500D01*
X132142500Y-117584887D01*
X132097113Y-117539500D01*
X132080500Y-117477500D01*
X132080500Y-116076551D01*
X144266452Y-116076551D01*
X144266820Y-116087780D01*
X144314330Y-116265092D01*
X144318022Y-116275234D01*
X144409579Y-116471580D01*
X144414967Y-116480912D01*
X144539232Y-116658381D01*
X144546169Y-116666647D01*
X144699352Y-116819830D01*
X144707618Y-116826767D01*
X144885087Y-116951032D01*
X144894419Y-116956420D01*
X145090765Y-117047977D01*
X145100907Y-117051669D01*
X145278219Y-117099179D01*
X145289448Y-117099547D01*
X145292000Y-117088605D01*
X145792000Y-117088605D01*
X145794551Y-117099547D01*
X145805780Y-117099179D01*
X145983092Y-117051669D01*
X145993234Y-117047977D01*
X146189580Y-116956420D01*
X146198912Y-116951032D01*
X146376381Y-116826767D01*
X146384647Y-116819830D01*
X146537830Y-116666647D01*
X146544767Y-116658381D01*
X146669032Y-116480912D01*
X146674420Y-116471580D01*
X146765977Y-116275234D01*
X146769669Y-116265092D01*
X146817179Y-116087780D01*
X146817547Y-116076551D01*
X146806605Y-116074000D01*
X145808326Y-116074000D01*
X145795450Y-116077450D01*
X145792000Y-116090326D01*
X145792000Y-117088605D01*
X145292000Y-117088605D01*
X145292000Y-116090326D01*
X145288549Y-116077450D01*
X145275674Y-116074000D01*
X144277395Y-116074000D01*
X144266452Y-116076551D01*
X132080500Y-116076551D01*
X132080500Y-113792000D01*
X133460540Y-113792000D01*
X133461219Y-113798460D01*
X133479646Y-113973795D01*
X133479647Y-113973803D01*
X133480326Y-113980256D01*
X133482331Y-113986428D01*
X133482333Y-113986435D01*
X133527996Y-114126968D01*
X133538821Y-114160284D01*
X133633467Y-114324216D01*
X133637811Y-114329041D01*
X133637813Y-114329043D01*
X133739423Y-114441892D01*
X133760129Y-114464888D01*
X133913270Y-114576151D01*
X134086197Y-114653144D01*
X134271354Y-114692500D01*
X134454143Y-114692500D01*
X134460646Y-114692500D01*
X134645803Y-114653144D01*
X134818730Y-114576151D01*
X134971871Y-114464888D01*
X134977601Y-114458523D01*
X134979271Y-114457310D01*
X134981050Y-114455709D01*
X134981218Y-114455895D01*
X135019315Y-114428219D01*
X135069748Y-114417500D01*
X137472252Y-114417500D01*
X137522685Y-114428219D01*
X137560781Y-114455895D01*
X137560950Y-114455709D01*
X137562728Y-114457310D01*
X137564398Y-114458523D01*
X137570129Y-114464888D01*
X137723270Y-114576151D01*
X137896197Y-114653144D01*
X138081354Y-114692500D01*
X138264143Y-114692500D01*
X138270646Y-114692500D01*
X138455803Y-114653144D01*
X138628730Y-114576151D01*
X138781871Y-114464888D01*
X138908533Y-114324216D01*
X139003179Y-114160284D01*
X139061674Y-113980256D01*
X139081460Y-113792000D01*
X139061674Y-113603744D01*
X139003179Y-113423716D01*
X138908533Y-113259784D01*
X138824539Y-113166500D01*
X138786220Y-113123942D01*
X138786219Y-113123941D01*
X138781871Y-113119112D01*
X138776613Y-113115292D01*
X138776611Y-113115290D01*
X138633988Y-113011669D01*
X138633987Y-113011668D01*
X138628730Y-113007849D01*
X138622792Y-113005205D01*
X138461745Y-112933501D01*
X138461740Y-112933499D01*
X138455803Y-112930856D01*
X138449444Y-112929504D01*
X138449440Y-112929503D01*
X138277008Y-112892852D01*
X138277005Y-112892851D01*
X138270646Y-112891500D01*
X138081354Y-112891500D01*
X138074995Y-112892851D01*
X138074991Y-112892852D01*
X137902559Y-112929503D01*
X137902552Y-112929505D01*
X137896197Y-112930856D01*
X137890262Y-112933498D01*
X137890254Y-112933501D01*
X137729207Y-113005205D01*
X137729202Y-113005207D01*
X137723270Y-113007849D01*
X137718016Y-113011665D01*
X137718011Y-113011669D01*
X137575388Y-113115290D01*
X137575381Y-113115295D01*
X137570129Y-113119112D01*
X137565780Y-113123941D01*
X137565781Y-113123941D01*
X137564399Y-113125476D01*
X137562728Y-113126689D01*
X137560950Y-113128291D01*
X137560781Y-113128104D01*
X137522685Y-113155781D01*
X137472252Y-113166500D01*
X135069748Y-113166500D01*
X135019315Y-113155781D01*
X134981218Y-113128104D01*
X134981050Y-113128291D01*
X134979271Y-113126689D01*
X134977601Y-113125476D01*
X134971871Y-113119112D01*
X134966613Y-113115292D01*
X134966611Y-113115290D01*
X134823988Y-113011669D01*
X134823987Y-113011668D01*
X134818730Y-113007849D01*
X134812792Y-113005205D01*
X134651745Y-112933501D01*
X134651740Y-112933499D01*
X134645803Y-112930856D01*
X134639444Y-112929504D01*
X134639440Y-112929503D01*
X134467008Y-112892852D01*
X134467005Y-112892851D01*
X134460646Y-112891500D01*
X134271354Y-112891500D01*
X134264995Y-112892851D01*
X134264991Y-112892852D01*
X134092559Y-112929503D01*
X134092552Y-112929505D01*
X134086197Y-112930856D01*
X134080262Y-112933498D01*
X134080254Y-112933501D01*
X133919207Y-113005205D01*
X133919202Y-113005207D01*
X133913270Y-113007849D01*
X133908016Y-113011665D01*
X133908011Y-113011669D01*
X133765388Y-113115290D01*
X133765381Y-113115295D01*
X133760129Y-113119112D01*
X133755784Y-113123937D01*
X133755779Y-113123942D01*
X133637813Y-113254956D01*
X133637808Y-113254962D01*
X133633467Y-113259784D01*
X133630222Y-113265404D01*
X133630218Y-113265410D01*
X133542069Y-113418089D01*
X133542066Y-113418094D01*
X133538821Y-113423716D01*
X133536815Y-113429888D01*
X133536813Y-113429894D01*
X133482333Y-113597564D01*
X133482331Y-113597573D01*
X133480326Y-113603744D01*
X133479648Y-113610194D01*
X133479646Y-113610204D01*
X133464390Y-113755365D01*
X133460540Y-113792000D01*
X132080500Y-113792000D01*
X132080500Y-110744000D01*
X133460540Y-110744000D01*
X133461219Y-110750460D01*
X133479646Y-110925795D01*
X133479647Y-110925803D01*
X133480326Y-110932256D01*
X133482331Y-110938428D01*
X133482333Y-110938435D01*
X133536813Y-111106105D01*
X133538821Y-111112284D01*
X133542068Y-111117908D01*
X133542069Y-111117910D01*
X133613810Y-111242170D01*
X133633467Y-111276216D01*
X133637811Y-111281041D01*
X133637813Y-111281043D01*
X133737560Y-111391823D01*
X133760129Y-111416888D01*
X133913270Y-111528151D01*
X134086197Y-111605144D01*
X134271354Y-111644500D01*
X134454143Y-111644500D01*
X134460646Y-111644500D01*
X134645803Y-111605144D01*
X134818730Y-111528151D01*
X134971871Y-111416888D01*
X134977601Y-111410523D01*
X134979271Y-111409310D01*
X134981050Y-111407709D01*
X134981218Y-111407895D01*
X135019315Y-111380219D01*
X135069748Y-111369500D01*
X137472252Y-111369500D01*
X137522685Y-111380219D01*
X137560781Y-111407895D01*
X137560950Y-111407709D01*
X137562728Y-111409310D01*
X137564398Y-111410523D01*
X137570129Y-111416888D01*
X137723270Y-111528151D01*
X137896197Y-111605144D01*
X138081354Y-111644500D01*
X138264143Y-111644500D01*
X138270646Y-111644500D01*
X138455803Y-111605144D01*
X138628730Y-111528151D01*
X138781871Y-111416888D01*
X138908533Y-111276216D01*
X139003179Y-111112284D01*
X139061674Y-110932256D01*
X139081460Y-110744000D01*
X139061674Y-110555744D01*
X139003179Y-110375716D01*
X138908533Y-110211784D01*
X138824539Y-110118500D01*
X138786220Y-110075942D01*
X138786219Y-110075941D01*
X138781871Y-110071112D01*
X138776613Y-110067292D01*
X138776611Y-110067290D01*
X138633988Y-109963669D01*
X138633987Y-109963668D01*
X138628730Y-109959849D01*
X138622792Y-109957205D01*
X138461745Y-109885501D01*
X138461740Y-109885499D01*
X138455803Y-109882856D01*
X138449444Y-109881504D01*
X138449440Y-109881503D01*
X138277008Y-109844852D01*
X138277005Y-109844851D01*
X138270646Y-109843500D01*
X138081354Y-109843500D01*
X138074995Y-109844851D01*
X138074991Y-109844852D01*
X137902559Y-109881503D01*
X137902552Y-109881505D01*
X137896197Y-109882856D01*
X137890262Y-109885498D01*
X137890254Y-109885501D01*
X137729207Y-109957205D01*
X137729202Y-109957207D01*
X137723270Y-109959849D01*
X137718016Y-109963665D01*
X137718011Y-109963669D01*
X137575388Y-110067290D01*
X137575381Y-110067295D01*
X137570129Y-110071112D01*
X137565780Y-110075941D01*
X137565781Y-110075941D01*
X137564399Y-110077476D01*
X137562728Y-110078689D01*
X137560950Y-110080291D01*
X137560781Y-110080104D01*
X137522685Y-110107781D01*
X137472252Y-110118500D01*
X135069748Y-110118500D01*
X135019315Y-110107781D01*
X134981218Y-110080104D01*
X134981050Y-110080291D01*
X134979271Y-110078689D01*
X134977601Y-110077476D01*
X134971871Y-110071112D01*
X134966613Y-110067292D01*
X134966611Y-110067290D01*
X134823988Y-109963669D01*
X134823987Y-109963668D01*
X134818730Y-109959849D01*
X134812792Y-109957205D01*
X134651745Y-109885501D01*
X134651740Y-109885499D01*
X134645803Y-109882856D01*
X134639444Y-109881504D01*
X134639440Y-109881503D01*
X134467008Y-109844852D01*
X134467005Y-109844851D01*
X134460646Y-109843500D01*
X134271354Y-109843500D01*
X134264995Y-109844851D01*
X134264991Y-109844852D01*
X134092559Y-109881503D01*
X134092552Y-109881505D01*
X134086197Y-109882856D01*
X134080262Y-109885498D01*
X134080254Y-109885501D01*
X133919207Y-109957205D01*
X133919202Y-109957207D01*
X133913270Y-109959849D01*
X133908016Y-109963665D01*
X133908011Y-109963669D01*
X133765388Y-110067290D01*
X133765381Y-110067295D01*
X133760129Y-110071112D01*
X133755784Y-110075937D01*
X133755779Y-110075942D01*
X133637813Y-110206956D01*
X133637808Y-110206962D01*
X133633467Y-110211784D01*
X133630222Y-110217404D01*
X133630218Y-110217410D01*
X133542069Y-110370089D01*
X133542066Y-110370094D01*
X133538821Y-110375716D01*
X133536815Y-110381888D01*
X133536813Y-110381894D01*
X133482333Y-110549564D01*
X133482331Y-110549573D01*
X133480326Y-110555744D01*
X133479648Y-110562194D01*
X133479646Y-110562204D01*
X133461962Y-110730464D01*
X133460540Y-110744000D01*
X132080500Y-110744000D01*
X132080500Y-107696000D01*
X134222540Y-107696000D01*
X134223219Y-107702460D01*
X134241646Y-107877795D01*
X134241647Y-107877803D01*
X134242326Y-107884256D01*
X134244331Y-107890428D01*
X134244333Y-107890435D01*
X134298813Y-108058105D01*
X134300821Y-108064284D01*
X134304068Y-108069908D01*
X134304069Y-108069910D01*
X134384600Y-108209395D01*
X134395467Y-108228216D01*
X134399811Y-108233041D01*
X134399813Y-108233043D01*
X134489112Y-108332219D01*
X134522129Y-108368888D01*
X134675270Y-108480151D01*
X134848197Y-108557144D01*
X135033354Y-108596500D01*
X135216143Y-108596500D01*
X135222646Y-108596500D01*
X135407803Y-108557144D01*
X135580730Y-108480151D01*
X135733871Y-108368888D01*
X135739601Y-108362523D01*
X135741271Y-108361310D01*
X135743050Y-108359709D01*
X135743218Y-108359895D01*
X135781315Y-108332219D01*
X135831748Y-108321500D01*
X137279087Y-108321500D01*
X137341087Y-108338113D01*
X137386474Y-108383501D01*
X137440216Y-108476586D01*
X137440218Y-108476589D01*
X137443467Y-108482216D01*
X137447811Y-108487041D01*
X137447813Y-108487043D01*
X137512150Y-108558496D01*
X137570129Y-108622888D01*
X137723270Y-108734151D01*
X137896197Y-108811144D01*
X138081354Y-108850500D01*
X138264143Y-108850500D01*
X138270646Y-108850500D01*
X138455803Y-108811144D01*
X138628730Y-108734151D01*
X138781871Y-108622888D01*
X138908533Y-108482216D01*
X139003179Y-108318284D01*
X139061674Y-108138256D01*
X139081460Y-107950000D01*
X139061674Y-107761744D01*
X139003179Y-107581716D01*
X138908533Y-107417784D01*
X138781871Y-107277112D01*
X138776613Y-107273292D01*
X138776611Y-107273290D01*
X138633988Y-107169669D01*
X138633987Y-107169668D01*
X138628730Y-107165849D01*
X138622792Y-107163205D01*
X138461745Y-107091501D01*
X138461740Y-107091499D01*
X138455803Y-107088856D01*
X138449444Y-107087504D01*
X138449440Y-107087503D01*
X138277008Y-107050852D01*
X138277005Y-107050851D01*
X138270646Y-107049500D01*
X138081354Y-107049500D01*
X138074998Y-107050850D01*
X138074988Y-107050852D01*
X138000196Y-107066750D01*
X137955019Y-107067933D01*
X137941804Y-107065840D01*
X137934038Y-107066574D01*
X137934035Y-107066574D01*
X137898324Y-107069950D01*
X137886655Y-107070500D01*
X135831748Y-107070500D01*
X135781315Y-107059781D01*
X135743218Y-107032104D01*
X135743050Y-107032291D01*
X135741271Y-107030689D01*
X135739601Y-107029476D01*
X135733871Y-107023112D01*
X135728613Y-107019292D01*
X135728611Y-107019290D01*
X135585988Y-106915669D01*
X135585987Y-106915668D01*
X135580730Y-106911849D01*
X135550820Y-106898532D01*
X135413745Y-106837501D01*
X135413740Y-106837499D01*
X135407803Y-106834856D01*
X135401444Y-106833504D01*
X135401440Y-106833503D01*
X135229008Y-106796852D01*
X135229005Y-106796851D01*
X135222646Y-106795500D01*
X135033354Y-106795500D01*
X135026995Y-106796851D01*
X135026991Y-106796852D01*
X134854559Y-106833503D01*
X134854552Y-106833505D01*
X134848197Y-106834856D01*
X134842262Y-106837498D01*
X134842254Y-106837501D01*
X134681207Y-106909205D01*
X134681202Y-106909207D01*
X134675270Y-106911849D01*
X134670016Y-106915665D01*
X134670011Y-106915669D01*
X134527388Y-107019290D01*
X134527381Y-107019295D01*
X134522129Y-107023112D01*
X134517784Y-107027937D01*
X134517779Y-107027942D01*
X134399813Y-107158956D01*
X134399808Y-107158962D01*
X134395467Y-107163784D01*
X134392222Y-107169404D01*
X134392218Y-107169410D01*
X134304069Y-107322089D01*
X134304066Y-107322094D01*
X134300821Y-107327716D01*
X134298815Y-107333888D01*
X134298813Y-107333894D01*
X134244333Y-107501564D01*
X134244331Y-107501573D01*
X134242326Y-107507744D01*
X134241648Y-107514194D01*
X134241646Y-107514204D01*
X134234551Y-107581716D01*
X134222540Y-107696000D01*
X132080500Y-107696000D01*
X132080500Y-79372500D01*
X132097113Y-79310500D01*
X132142500Y-79265113D01*
X132204500Y-79248500D01*
X142493901Y-79248500D01*
X142494000Y-79248541D01*
X142494383Y-79248383D01*
X142494500Y-79248099D01*
X142494541Y-79248000D01*
X142494500Y-79247901D01*
X142494500Y-70736500D01*
X142511113Y-70674500D01*
X142556500Y-70629113D01*
X142618500Y-70612500D01*
X156085500Y-70612500D01*
X156147500Y-70629113D01*
G37*
%TD.AperFunction*%
%TA.AperFunction,Conductor*%
G36*
X146882715Y-88394839D02*
G01*
X146930789Y-88440459D01*
X146948500Y-88504324D01*
X146948500Y-88806625D01*
X146947978Y-88817680D01*
X146946327Y-88825067D01*
X146946571Y-88832853D01*
X146946571Y-88832861D01*
X146948439Y-88892273D01*
X146948500Y-88896168D01*
X146948500Y-88923750D01*
X146948988Y-88927619D01*
X146948989Y-88927625D01*
X146949004Y-88927743D01*
X146949918Y-88939366D01*
X146951045Y-88975230D01*
X146951046Y-88975237D01*
X146951291Y-88983027D01*
X146953467Y-88990519D01*
X146953468Y-88990521D01*
X146956879Y-89002262D01*
X146960825Y-89021315D01*
X146963336Y-89041192D01*
X146966206Y-89048442D01*
X146966208Y-89048448D01*
X146979414Y-89081804D01*
X146983197Y-89092851D01*
X146995382Y-89134790D01*
X146999353Y-89141505D01*
X146999354Y-89141507D01*
X147005581Y-89152037D01*
X147014136Y-89169499D01*
X147018642Y-89180880D01*
X147018643Y-89180883D01*
X147021514Y-89188132D01*
X147028147Y-89197261D01*
X147047181Y-89223460D01*
X147053593Y-89233222D01*
X147071856Y-89264102D01*
X147071859Y-89264107D01*
X147075830Y-89270820D01*
X147081345Y-89276334D01*
X147081345Y-89276335D01*
X147089990Y-89284980D01*
X147102626Y-89299774D01*
X147109819Y-89309675D01*
X147109823Y-89309679D01*
X147114406Y-89315987D01*
X147120415Y-89320958D01*
X147120416Y-89320959D01*
X147148058Y-89343826D01*
X147156699Y-89351689D01*
X154091381Y-96286372D01*
X154118261Y-96326600D01*
X154127700Y-96374053D01*
X154127700Y-96894371D01*
X154109709Y-96958699D01*
X154060957Y-97004360D01*
X153995590Y-97018106D01*
X153932577Y-96995946D01*
X153891013Y-96966843D01*
X153814734Y-96913432D01*
X153669537Y-96845725D01*
X153613405Y-96819550D01*
X153613403Y-96819549D01*
X153608496Y-96817261D01*
X153603271Y-96815861D01*
X153603263Y-96815858D01*
X153393916Y-96759764D01*
X153393907Y-96759762D01*
X153388692Y-96758365D01*
X153383304Y-96757893D01*
X153383301Y-96757893D01*
X153167395Y-96739004D01*
X153162000Y-96738532D01*
X153156605Y-96739004D01*
X152940698Y-96757893D01*
X152940693Y-96757893D01*
X152935308Y-96758365D01*
X152930094Y-96759762D01*
X152930083Y-96759764D01*
X152720736Y-96815858D01*
X152720724Y-96815862D01*
X152715504Y-96817261D01*
X152710599Y-96819547D01*
X152710594Y-96819550D01*
X152514176Y-96911142D01*
X152514172Y-96911144D01*
X152509266Y-96913432D01*
X152504833Y-96916535D01*
X152504826Y-96916540D01*
X152327296Y-97040847D01*
X152327291Y-97040850D01*
X152322861Y-97043953D01*
X152319037Y-97047776D01*
X152319031Y-97047782D01*
X152165782Y-97201031D01*
X152165776Y-97201037D01*
X152161953Y-97204861D01*
X152158850Y-97209291D01*
X152158847Y-97209296D01*
X152049387Y-97365623D01*
X152005069Y-97404489D01*
X151947812Y-97418500D01*
X151569353Y-97418500D01*
X151521900Y-97409061D01*
X151481672Y-97382181D01*
X145950682Y-91851191D01*
X145919315Y-91798203D01*
X145917305Y-91736660D01*
X145945147Y-91681738D01*
X145989012Y-91651741D01*
X145988325Y-91650267D01*
X146189580Y-91556420D01*
X146198912Y-91551032D01*
X146376381Y-91426767D01*
X146384647Y-91419830D01*
X146537830Y-91266647D01*
X146544767Y-91258381D01*
X146669032Y-91080912D01*
X146674420Y-91071580D01*
X146765977Y-90875234D01*
X146769669Y-90865092D01*
X146817179Y-90687780D01*
X146817547Y-90676551D01*
X146806605Y-90674000D01*
X145416000Y-90674000D01*
X145354000Y-90657387D01*
X145308613Y-90612000D01*
X145292000Y-90550000D01*
X145292000Y-90298000D01*
X145308613Y-90236000D01*
X145354000Y-90190613D01*
X145416000Y-90174000D01*
X146806605Y-90174000D01*
X146817547Y-90171448D01*
X146817179Y-90160219D01*
X146769669Y-89982907D01*
X146765977Y-89972765D01*
X146674420Y-89776419D01*
X146669032Y-89767087D01*
X146544767Y-89589618D01*
X146537830Y-89581352D01*
X146384647Y-89428169D01*
X146376381Y-89421232D01*
X146198912Y-89296967D01*
X146189579Y-89291579D01*
X146136134Y-89266657D01*
X146083958Y-89220899D01*
X146064539Y-89154274D01*
X146083959Y-89087649D01*
X146136131Y-89041894D01*
X146194734Y-89014568D01*
X146381139Y-88884047D01*
X146542047Y-88723139D01*
X146672568Y-88536734D01*
X146712118Y-88451918D01*
X146755160Y-88401523D01*
X146818010Y-88380494D01*
X146882715Y-88394839D01*
G37*
%TD.AperFunction*%
%TD*%
M02*
