%TF.GenerationSoftware,KiCad,Pcbnew,(7.0.0)*%
%TF.CreationDate,2023-08-04T20:04:38+01:00*%
%TF.ProjectId,DataIODecode,44617461-494f-4446-9563-6f64652e6b69,rev?*%
%TF.SameCoordinates,Original*%
%TF.FileFunction,Legend,Top*%
%TF.FilePolarity,Positive*%
%FSLAX46Y46*%
G04 Gerber Fmt 4.6, Leading zero omitted, Abs format (unit mm)*
G04 Created by KiCad (PCBNEW (7.0.0)) date 2023-08-04 20:04:38*
%MOMM*%
%LPD*%
G01*
G04 APERTURE LIST*
%ADD10C,0.400000*%
%ADD11C,0.200000*%
%ADD12C,0.150000*%
%ADD13C,0.120000*%
%ADD14C,0.100000*%
G04 APERTURE END LIST*
D10*
X148086761Y-84010190D02*
X149705809Y-84010190D01*
X149705809Y-84010190D02*
X149896285Y-83914952D01*
X149896285Y-83914952D02*
X149991523Y-83819714D01*
X149991523Y-83819714D02*
X150086761Y-83629238D01*
X150086761Y-83629238D02*
X150086761Y-83248285D01*
X150086761Y-83248285D02*
X149991523Y-83057809D01*
X149991523Y-83057809D02*
X149896285Y-82962571D01*
X149896285Y-82962571D02*
X149705809Y-82867333D01*
X149705809Y-82867333D02*
X148086761Y-82867333D01*
X150086761Y-80867333D02*
X150086761Y-82010190D01*
X150086761Y-81438762D02*
X148086761Y-81438762D01*
X148086761Y-81438762D02*
X148372476Y-81629238D01*
X148372476Y-81629238D02*
X148562952Y-81819714D01*
X148562952Y-81819714D02*
X148658190Y-82010190D01*
X148753428Y-79153047D02*
X150086761Y-79153047D01*
X147991523Y-79629238D02*
X149420095Y-80105428D01*
X149420095Y-80105428D02*
X149420095Y-78867333D01*
D11*
X135511380Y-99361048D02*
X136225666Y-99361048D01*
X136225666Y-99361048D02*
X136368523Y-99408667D01*
X136368523Y-99408667D02*
X136463761Y-99503905D01*
X136463761Y-99503905D02*
X136511380Y-99646762D01*
X136511380Y-99646762D02*
X136511380Y-99742000D01*
X136511380Y-98408667D02*
X136511380Y-98884857D01*
X136511380Y-98884857D02*
X135511380Y-98884857D01*
X136416142Y-97503905D02*
X136463761Y-97551524D01*
X136463761Y-97551524D02*
X136511380Y-97694381D01*
X136511380Y-97694381D02*
X136511380Y-97789619D01*
X136511380Y-97789619D02*
X136463761Y-97932476D01*
X136463761Y-97932476D02*
X136368523Y-98027714D01*
X136368523Y-98027714D02*
X136273285Y-98075333D01*
X136273285Y-98075333D02*
X136082809Y-98122952D01*
X136082809Y-98122952D02*
X135939952Y-98122952D01*
X135939952Y-98122952D02*
X135749476Y-98075333D01*
X135749476Y-98075333D02*
X135654238Y-98027714D01*
X135654238Y-98027714D02*
X135559000Y-97932476D01*
X135559000Y-97932476D02*
X135511380Y-97789619D01*
X135511380Y-97789619D02*
X135511380Y-97694381D01*
X135511380Y-97694381D02*
X135559000Y-97551524D01*
X135559000Y-97551524D02*
X135606619Y-97503905D01*
X135511380Y-96789619D02*
X136225666Y-96789619D01*
X136225666Y-96789619D02*
X136368523Y-96837238D01*
X136368523Y-96837238D02*
X136463761Y-96932476D01*
X136463761Y-96932476D02*
X136511380Y-97075333D01*
X136511380Y-97075333D02*
X136511380Y-97170571D01*
X136511380Y-95837238D02*
X136511380Y-96313428D01*
X136511380Y-96313428D02*
X135511380Y-96313428D01*
X136416142Y-94932476D02*
X136463761Y-94980095D01*
X136463761Y-94980095D02*
X136511380Y-95122952D01*
X136511380Y-95122952D02*
X136511380Y-95218190D01*
X136511380Y-95218190D02*
X136463761Y-95361047D01*
X136463761Y-95361047D02*
X136368523Y-95456285D01*
X136368523Y-95456285D02*
X136273285Y-95503904D01*
X136273285Y-95503904D02*
X136082809Y-95551523D01*
X136082809Y-95551523D02*
X135939952Y-95551523D01*
X135939952Y-95551523D02*
X135749476Y-95503904D01*
X135749476Y-95503904D02*
X135654238Y-95456285D01*
X135654238Y-95456285D02*
X135559000Y-95361047D01*
X135559000Y-95361047D02*
X135511380Y-95218190D01*
X135511380Y-95218190D02*
X135511380Y-95122952D01*
X135511380Y-95122952D02*
X135559000Y-94980095D01*
X135559000Y-94980095D02*
X135606619Y-94932476D01*
X135511380Y-94218190D02*
X136225666Y-94218190D01*
X136225666Y-94218190D02*
X136368523Y-94265809D01*
X136368523Y-94265809D02*
X136463761Y-94361047D01*
X136463761Y-94361047D02*
X136511380Y-94503904D01*
X136511380Y-94503904D02*
X136511380Y-94599142D01*
X136511380Y-93265809D02*
X136511380Y-93741999D01*
X136511380Y-93741999D02*
X135511380Y-93741999D01*
X136416142Y-92361047D02*
X136463761Y-92408666D01*
X136463761Y-92408666D02*
X136511380Y-92551523D01*
X136511380Y-92551523D02*
X136511380Y-92646761D01*
X136511380Y-92646761D02*
X136463761Y-92789618D01*
X136463761Y-92789618D02*
X136368523Y-92884856D01*
X136368523Y-92884856D02*
X136273285Y-92932475D01*
X136273285Y-92932475D02*
X136082809Y-92980094D01*
X136082809Y-92980094D02*
X135939952Y-92980094D01*
X135939952Y-92980094D02*
X135749476Y-92932475D01*
X135749476Y-92932475D02*
X135654238Y-92884856D01*
X135654238Y-92884856D02*
X135559000Y-92789618D01*
X135559000Y-92789618D02*
X135511380Y-92646761D01*
X135511380Y-92646761D02*
X135511380Y-92551523D01*
X135511380Y-92551523D02*
X135559000Y-92408666D01*
X135559000Y-92408666D02*
X135606619Y-92361047D01*
X135511380Y-91646761D02*
X136225666Y-91646761D01*
X136225666Y-91646761D02*
X136368523Y-91694380D01*
X136368523Y-91694380D02*
X136463761Y-91789618D01*
X136463761Y-91789618D02*
X136511380Y-91932475D01*
X136511380Y-91932475D02*
X136511380Y-92027713D01*
X136511380Y-90694380D02*
X136511380Y-91170570D01*
X136511380Y-91170570D02*
X135511380Y-91170570D01*
X136416142Y-89789618D02*
X136463761Y-89837237D01*
X136463761Y-89837237D02*
X136511380Y-89980094D01*
X136511380Y-89980094D02*
X136511380Y-90075332D01*
X136511380Y-90075332D02*
X136463761Y-90218189D01*
X136463761Y-90218189D02*
X136368523Y-90313427D01*
X136368523Y-90313427D02*
X136273285Y-90361046D01*
X136273285Y-90361046D02*
X136082809Y-90408665D01*
X136082809Y-90408665D02*
X135939952Y-90408665D01*
X135939952Y-90408665D02*
X135749476Y-90361046D01*
X135749476Y-90361046D02*
X135654238Y-90313427D01*
X135654238Y-90313427D02*
X135559000Y-90218189D01*
X135559000Y-90218189D02*
X135511380Y-90075332D01*
X135511380Y-90075332D02*
X135511380Y-89980094D01*
X135511380Y-89980094D02*
X135559000Y-89837237D01*
X135559000Y-89837237D02*
X135606619Y-89789618D01*
D12*
X141581238Y-109317571D02*
X141724095Y-109365190D01*
X141724095Y-109365190D02*
X141771714Y-109412809D01*
X141771714Y-109412809D02*
X141819333Y-109508047D01*
X141819333Y-109508047D02*
X141819333Y-109650904D01*
X141819333Y-109650904D02*
X141771714Y-109746142D01*
X141771714Y-109746142D02*
X141724095Y-109793761D01*
X141724095Y-109793761D02*
X141628857Y-109841380D01*
X141628857Y-109841380D02*
X141247905Y-109841380D01*
X141247905Y-109841380D02*
X141247905Y-108841380D01*
X141247905Y-108841380D02*
X141581238Y-108841380D01*
X141581238Y-108841380D02*
X141676476Y-108889000D01*
X141676476Y-108889000D02*
X141724095Y-108936619D01*
X141724095Y-108936619D02*
X141771714Y-109031857D01*
X141771714Y-109031857D02*
X141771714Y-109127095D01*
X141771714Y-109127095D02*
X141724095Y-109222333D01*
X141724095Y-109222333D02*
X141676476Y-109269952D01*
X141676476Y-109269952D02*
X141581238Y-109317571D01*
X141581238Y-109317571D02*
X141247905Y-109317571D01*
X142200286Y-108936619D02*
X142247905Y-108889000D01*
X142247905Y-108889000D02*
X142343143Y-108841380D01*
X142343143Y-108841380D02*
X142581238Y-108841380D01*
X142581238Y-108841380D02*
X142676476Y-108889000D01*
X142676476Y-108889000D02*
X142724095Y-108936619D01*
X142724095Y-108936619D02*
X142771714Y-109031857D01*
X142771714Y-109031857D02*
X142771714Y-109127095D01*
X142771714Y-109127095D02*
X142724095Y-109269952D01*
X142724095Y-109269952D02*
X142152667Y-109841380D01*
X142152667Y-109841380D02*
X142771714Y-109841380D01*
D11*
X135257380Y-83611808D02*
X136257380Y-83278475D01*
X136257380Y-83278475D02*
X135257380Y-82945142D01*
X136257380Y-81487999D02*
X136257380Y-82059427D01*
X136257380Y-81773713D02*
X135257380Y-81773713D01*
X135257380Y-81773713D02*
X135400238Y-81868951D01*
X135400238Y-81868951D02*
X135495476Y-81964189D01*
X135495476Y-81964189D02*
X135543095Y-82059427D01*
X136162142Y-81059427D02*
X136209761Y-81011808D01*
X136209761Y-81011808D02*
X136257380Y-81059427D01*
X136257380Y-81059427D02*
X136209761Y-81107046D01*
X136209761Y-81107046D02*
X136162142Y-81059427D01*
X136162142Y-81059427D02*
X136257380Y-81059427D01*
X136257380Y-80059428D02*
X136257380Y-80630856D01*
X136257380Y-80345142D02*
X135257380Y-80345142D01*
X135257380Y-80345142D02*
X135400238Y-80440380D01*
X135400238Y-80440380D02*
X135495476Y-80535618D01*
X135495476Y-80535618D02*
X135543095Y-80630856D01*
D12*
X141581238Y-106523571D02*
X141724095Y-106571190D01*
X141724095Y-106571190D02*
X141771714Y-106618809D01*
X141771714Y-106618809D02*
X141819333Y-106714047D01*
X141819333Y-106714047D02*
X141819333Y-106856904D01*
X141819333Y-106856904D02*
X141771714Y-106952142D01*
X141771714Y-106952142D02*
X141724095Y-106999761D01*
X141724095Y-106999761D02*
X141628857Y-107047380D01*
X141628857Y-107047380D02*
X141247905Y-107047380D01*
X141247905Y-107047380D02*
X141247905Y-106047380D01*
X141247905Y-106047380D02*
X141581238Y-106047380D01*
X141581238Y-106047380D02*
X141676476Y-106095000D01*
X141676476Y-106095000D02*
X141724095Y-106142619D01*
X141724095Y-106142619D02*
X141771714Y-106237857D01*
X141771714Y-106237857D02*
X141771714Y-106333095D01*
X141771714Y-106333095D02*
X141724095Y-106428333D01*
X141724095Y-106428333D02*
X141676476Y-106475952D01*
X141676476Y-106475952D02*
X141581238Y-106523571D01*
X141581238Y-106523571D02*
X141247905Y-106523571D01*
X142152667Y-106047380D02*
X142771714Y-106047380D01*
X142771714Y-106047380D02*
X142438381Y-106428333D01*
X142438381Y-106428333D02*
X142581238Y-106428333D01*
X142581238Y-106428333D02*
X142676476Y-106475952D01*
X142676476Y-106475952D02*
X142724095Y-106523571D01*
X142724095Y-106523571D02*
X142771714Y-106618809D01*
X142771714Y-106618809D02*
X142771714Y-106856904D01*
X142771714Y-106856904D02*
X142724095Y-106952142D01*
X142724095Y-106952142D02*
X142676476Y-106999761D01*
X142676476Y-106999761D02*
X142581238Y-107047380D01*
X142581238Y-107047380D02*
X142295524Y-107047380D01*
X142295524Y-107047380D02*
X142200286Y-106999761D01*
X142200286Y-106999761D02*
X142152667Y-106952142D01*
D11*
X133717380Y-99228667D02*
X132717380Y-99228667D01*
X132717380Y-99228667D02*
X132717380Y-98990572D01*
X132717380Y-98990572D02*
X132765000Y-98847715D01*
X132765000Y-98847715D02*
X132860238Y-98752477D01*
X132860238Y-98752477D02*
X132955476Y-98704858D01*
X132955476Y-98704858D02*
X133145952Y-98657239D01*
X133145952Y-98657239D02*
X133288809Y-98657239D01*
X133288809Y-98657239D02*
X133479285Y-98704858D01*
X133479285Y-98704858D02*
X133574523Y-98752477D01*
X133574523Y-98752477D02*
X133669761Y-98847715D01*
X133669761Y-98847715D02*
X133717380Y-98990572D01*
X133717380Y-98990572D02*
X133717380Y-99228667D01*
X133717380Y-97800096D02*
X133193571Y-97800096D01*
X133193571Y-97800096D02*
X133098333Y-97847715D01*
X133098333Y-97847715D02*
X133050714Y-97942953D01*
X133050714Y-97942953D02*
X133050714Y-98133429D01*
X133050714Y-98133429D02*
X133098333Y-98228667D01*
X133669761Y-97800096D02*
X133717380Y-97895334D01*
X133717380Y-97895334D02*
X133717380Y-98133429D01*
X133717380Y-98133429D02*
X133669761Y-98228667D01*
X133669761Y-98228667D02*
X133574523Y-98276286D01*
X133574523Y-98276286D02*
X133479285Y-98276286D01*
X133479285Y-98276286D02*
X133384047Y-98228667D01*
X133384047Y-98228667D02*
X133336428Y-98133429D01*
X133336428Y-98133429D02*
X133336428Y-97895334D01*
X133336428Y-97895334D02*
X133288809Y-97800096D01*
X133050714Y-97466762D02*
X133050714Y-97085810D01*
X132717380Y-97323905D02*
X133574523Y-97323905D01*
X133574523Y-97323905D02*
X133669761Y-97276286D01*
X133669761Y-97276286D02*
X133717380Y-97181048D01*
X133717380Y-97181048D02*
X133717380Y-97085810D01*
X133717380Y-96323905D02*
X133193571Y-96323905D01*
X133193571Y-96323905D02*
X133098333Y-96371524D01*
X133098333Y-96371524D02*
X133050714Y-96466762D01*
X133050714Y-96466762D02*
X133050714Y-96657238D01*
X133050714Y-96657238D02*
X133098333Y-96752476D01*
X133669761Y-96323905D02*
X133717380Y-96419143D01*
X133717380Y-96419143D02*
X133717380Y-96657238D01*
X133717380Y-96657238D02*
X133669761Y-96752476D01*
X133669761Y-96752476D02*
X133574523Y-96800095D01*
X133574523Y-96800095D02*
X133479285Y-96800095D01*
X133479285Y-96800095D02*
X133384047Y-96752476D01*
X133384047Y-96752476D02*
X133336428Y-96657238D01*
X133336428Y-96657238D02*
X133336428Y-96419143D01*
X133336428Y-96419143D02*
X133288809Y-96323905D01*
X133717380Y-95247714D02*
X132717380Y-95247714D01*
X132669761Y-94057239D02*
X133955476Y-94914381D01*
X132717380Y-93533429D02*
X132717380Y-93342953D01*
X132717380Y-93342953D02*
X132765000Y-93247715D01*
X132765000Y-93247715D02*
X132860238Y-93152477D01*
X132860238Y-93152477D02*
X133050714Y-93104858D01*
X133050714Y-93104858D02*
X133384047Y-93104858D01*
X133384047Y-93104858D02*
X133574523Y-93152477D01*
X133574523Y-93152477D02*
X133669761Y-93247715D01*
X133669761Y-93247715D02*
X133717380Y-93342953D01*
X133717380Y-93342953D02*
X133717380Y-93533429D01*
X133717380Y-93533429D02*
X133669761Y-93628667D01*
X133669761Y-93628667D02*
X133574523Y-93723905D01*
X133574523Y-93723905D02*
X133384047Y-93771524D01*
X133384047Y-93771524D02*
X133050714Y-93771524D01*
X133050714Y-93771524D02*
X132860238Y-93723905D01*
X132860238Y-93723905D02*
X132765000Y-93628667D01*
X132765000Y-93628667D02*
X132717380Y-93533429D01*
X133717380Y-92076286D02*
X132717380Y-92076286D01*
X132717380Y-92076286D02*
X132717380Y-91838191D01*
X132717380Y-91838191D02*
X132765000Y-91695334D01*
X132765000Y-91695334D02*
X132860238Y-91600096D01*
X132860238Y-91600096D02*
X132955476Y-91552477D01*
X132955476Y-91552477D02*
X133145952Y-91504858D01*
X133145952Y-91504858D02*
X133288809Y-91504858D01*
X133288809Y-91504858D02*
X133479285Y-91552477D01*
X133479285Y-91552477D02*
X133574523Y-91600096D01*
X133574523Y-91600096D02*
X133669761Y-91695334D01*
X133669761Y-91695334D02*
X133717380Y-91838191D01*
X133717380Y-91838191D02*
X133717380Y-92076286D01*
X133669761Y-90695334D02*
X133717380Y-90790572D01*
X133717380Y-90790572D02*
X133717380Y-90981048D01*
X133717380Y-90981048D02*
X133669761Y-91076286D01*
X133669761Y-91076286D02*
X133574523Y-91123905D01*
X133574523Y-91123905D02*
X133193571Y-91123905D01*
X133193571Y-91123905D02*
X133098333Y-91076286D01*
X133098333Y-91076286D02*
X133050714Y-90981048D01*
X133050714Y-90981048D02*
X133050714Y-90790572D01*
X133050714Y-90790572D02*
X133098333Y-90695334D01*
X133098333Y-90695334D02*
X133193571Y-90647715D01*
X133193571Y-90647715D02*
X133288809Y-90647715D01*
X133288809Y-90647715D02*
X133384047Y-91123905D01*
X133669761Y-89790572D02*
X133717380Y-89885810D01*
X133717380Y-89885810D02*
X133717380Y-90076286D01*
X133717380Y-90076286D02*
X133669761Y-90171524D01*
X133669761Y-90171524D02*
X133622142Y-90219143D01*
X133622142Y-90219143D02*
X133526904Y-90266762D01*
X133526904Y-90266762D02*
X133241190Y-90266762D01*
X133241190Y-90266762D02*
X133145952Y-90219143D01*
X133145952Y-90219143D02*
X133098333Y-90171524D01*
X133098333Y-90171524D02*
X133050714Y-90076286D01*
X133050714Y-90076286D02*
X133050714Y-89885810D01*
X133050714Y-89885810D02*
X133098333Y-89790572D01*
X133717380Y-89219143D02*
X133669761Y-89314381D01*
X133669761Y-89314381D02*
X133622142Y-89362000D01*
X133622142Y-89362000D02*
X133526904Y-89409619D01*
X133526904Y-89409619D02*
X133241190Y-89409619D01*
X133241190Y-89409619D02*
X133145952Y-89362000D01*
X133145952Y-89362000D02*
X133098333Y-89314381D01*
X133098333Y-89314381D02*
X133050714Y-89219143D01*
X133050714Y-89219143D02*
X133050714Y-89076286D01*
X133050714Y-89076286D02*
X133098333Y-88981048D01*
X133098333Y-88981048D02*
X133145952Y-88933429D01*
X133145952Y-88933429D02*
X133241190Y-88885810D01*
X133241190Y-88885810D02*
X133526904Y-88885810D01*
X133526904Y-88885810D02*
X133622142Y-88933429D01*
X133622142Y-88933429D02*
X133669761Y-88981048D01*
X133669761Y-88981048D02*
X133717380Y-89076286D01*
X133717380Y-89076286D02*
X133717380Y-89219143D01*
X133717380Y-88028667D02*
X132717380Y-88028667D01*
X133669761Y-88028667D02*
X133717380Y-88123905D01*
X133717380Y-88123905D02*
X133717380Y-88314381D01*
X133717380Y-88314381D02*
X133669761Y-88409619D01*
X133669761Y-88409619D02*
X133622142Y-88457238D01*
X133622142Y-88457238D02*
X133526904Y-88504857D01*
X133526904Y-88504857D02*
X133241190Y-88504857D01*
X133241190Y-88504857D02*
X133145952Y-88457238D01*
X133145952Y-88457238D02*
X133098333Y-88409619D01*
X133098333Y-88409619D02*
X133050714Y-88314381D01*
X133050714Y-88314381D02*
X133050714Y-88123905D01*
X133050714Y-88123905D02*
X133098333Y-88028667D01*
X133669761Y-87171524D02*
X133717380Y-87266762D01*
X133717380Y-87266762D02*
X133717380Y-87457238D01*
X133717380Y-87457238D02*
X133669761Y-87552476D01*
X133669761Y-87552476D02*
X133574523Y-87600095D01*
X133574523Y-87600095D02*
X133193571Y-87600095D01*
X133193571Y-87600095D02*
X133098333Y-87552476D01*
X133098333Y-87552476D02*
X133050714Y-87457238D01*
X133050714Y-87457238D02*
X133050714Y-87266762D01*
X133050714Y-87266762D02*
X133098333Y-87171524D01*
X133098333Y-87171524D02*
X133193571Y-87123905D01*
X133193571Y-87123905D02*
X133288809Y-87123905D01*
X133288809Y-87123905D02*
X133384047Y-87600095D01*
X132717380Y-86190571D02*
X133717380Y-85952476D01*
X133717380Y-85952476D02*
X133003095Y-85762000D01*
X133003095Y-85762000D02*
X133717380Y-85571524D01*
X133717380Y-85571524D02*
X132717380Y-85333429D01*
X133717380Y-84952476D02*
X133050714Y-84952476D01*
X133241190Y-84952476D02*
X133145952Y-84904857D01*
X133145952Y-84904857D02*
X133098333Y-84857238D01*
X133098333Y-84857238D02*
X133050714Y-84762000D01*
X133050714Y-84762000D02*
X133050714Y-84666762D01*
X133717380Y-83904857D02*
X133193571Y-83904857D01*
X133193571Y-83904857D02*
X133098333Y-83952476D01*
X133098333Y-83952476D02*
X133050714Y-84047714D01*
X133050714Y-84047714D02*
X133050714Y-84238190D01*
X133050714Y-84238190D02*
X133098333Y-84333428D01*
X133669761Y-83904857D02*
X133717380Y-84000095D01*
X133717380Y-84000095D02*
X133717380Y-84238190D01*
X133717380Y-84238190D02*
X133669761Y-84333428D01*
X133669761Y-84333428D02*
X133574523Y-84381047D01*
X133574523Y-84381047D02*
X133479285Y-84381047D01*
X133479285Y-84381047D02*
X133384047Y-84333428D01*
X133384047Y-84333428D02*
X133336428Y-84238190D01*
X133336428Y-84238190D02*
X133336428Y-84000095D01*
X133336428Y-84000095D02*
X133288809Y-83904857D01*
X133050714Y-83428666D02*
X133717380Y-83428666D01*
X133145952Y-83428666D02*
X133098333Y-83381047D01*
X133098333Y-83381047D02*
X133050714Y-83285809D01*
X133050714Y-83285809D02*
X133050714Y-83142952D01*
X133050714Y-83142952D02*
X133098333Y-83047714D01*
X133098333Y-83047714D02*
X133193571Y-83000095D01*
X133193571Y-83000095D02*
X133717380Y-83000095D01*
X133050714Y-82095333D02*
X133860238Y-82095333D01*
X133860238Y-82095333D02*
X133955476Y-82142952D01*
X133955476Y-82142952D02*
X134003095Y-82190571D01*
X134003095Y-82190571D02*
X134050714Y-82285809D01*
X134050714Y-82285809D02*
X134050714Y-82428666D01*
X134050714Y-82428666D02*
X134003095Y-82523904D01*
X133669761Y-82095333D02*
X133717380Y-82190571D01*
X133717380Y-82190571D02*
X133717380Y-82381047D01*
X133717380Y-82381047D02*
X133669761Y-82476285D01*
X133669761Y-82476285D02*
X133622142Y-82523904D01*
X133622142Y-82523904D02*
X133526904Y-82571523D01*
X133526904Y-82571523D02*
X133241190Y-82571523D01*
X133241190Y-82571523D02*
X133145952Y-82523904D01*
X133145952Y-82523904D02*
X133098333Y-82476285D01*
X133098333Y-82476285D02*
X133050714Y-82381047D01*
X133050714Y-82381047D02*
X133050714Y-82190571D01*
X133050714Y-82190571D02*
X133098333Y-82095333D01*
X133717380Y-81476285D02*
X133669761Y-81571523D01*
X133669761Y-81571523D02*
X133574523Y-81619142D01*
X133574523Y-81619142D02*
X132717380Y-81619142D01*
X133669761Y-80714380D02*
X133717380Y-80809618D01*
X133717380Y-80809618D02*
X133717380Y-81000094D01*
X133717380Y-81000094D02*
X133669761Y-81095332D01*
X133669761Y-81095332D02*
X133574523Y-81142951D01*
X133574523Y-81142951D02*
X133193571Y-81142951D01*
X133193571Y-81142951D02*
X133098333Y-81095332D01*
X133098333Y-81095332D02*
X133050714Y-81000094D01*
X133050714Y-81000094D02*
X133050714Y-80809618D01*
X133050714Y-80809618D02*
X133098333Y-80714380D01*
X133098333Y-80714380D02*
X133193571Y-80666761D01*
X133193571Y-80666761D02*
X133288809Y-80666761D01*
X133288809Y-80666761D02*
X133384047Y-81142951D01*
X133717380Y-80238189D02*
X133050714Y-80238189D01*
X133241190Y-80238189D02*
X133145952Y-80190570D01*
X133145952Y-80190570D02*
X133098333Y-80142951D01*
X133098333Y-80142951D02*
X133050714Y-80047713D01*
X133050714Y-80047713D02*
X133050714Y-79952475D01*
D10*
X148086761Y-109410190D02*
X149705809Y-109410190D01*
X149705809Y-109410190D02*
X149896285Y-109314952D01*
X149896285Y-109314952D02*
X149991523Y-109219714D01*
X149991523Y-109219714D02*
X150086761Y-109029238D01*
X150086761Y-109029238D02*
X150086761Y-108648285D01*
X150086761Y-108648285D02*
X149991523Y-108457809D01*
X149991523Y-108457809D02*
X149896285Y-108362571D01*
X149896285Y-108362571D02*
X149705809Y-108267333D01*
X149705809Y-108267333D02*
X148086761Y-108267333D01*
X150086761Y-106267333D02*
X150086761Y-107410190D01*
X150086761Y-106838762D02*
X148086761Y-106838762D01*
X148086761Y-106838762D02*
X148372476Y-107029238D01*
X148372476Y-107029238D02*
X148562952Y-107219714D01*
X148562952Y-107219714D02*
X148658190Y-107410190D01*
X150086761Y-105314952D02*
X150086761Y-104934000D01*
X150086761Y-104934000D02*
X149991523Y-104743523D01*
X149991523Y-104743523D02*
X149896285Y-104648285D01*
X149896285Y-104648285D02*
X149610571Y-104457809D01*
X149610571Y-104457809D02*
X149229619Y-104362571D01*
X149229619Y-104362571D02*
X148467714Y-104362571D01*
X148467714Y-104362571D02*
X148277238Y-104457809D01*
X148277238Y-104457809D02*
X148182000Y-104553047D01*
X148182000Y-104553047D02*
X148086761Y-104743523D01*
X148086761Y-104743523D02*
X148086761Y-105124476D01*
X148086761Y-105124476D02*
X148182000Y-105314952D01*
X148182000Y-105314952D02*
X148277238Y-105410190D01*
X148277238Y-105410190D02*
X148467714Y-105505428D01*
X148467714Y-105505428D02*
X148943904Y-105505428D01*
X148943904Y-105505428D02*
X149134380Y-105410190D01*
X149134380Y-105410190D02*
X149229619Y-105314952D01*
X149229619Y-105314952D02*
X149324857Y-105124476D01*
X149324857Y-105124476D02*
X149324857Y-104743523D01*
X149324857Y-104743523D02*
X149229619Y-104553047D01*
X149229619Y-104553047D02*
X149134380Y-104457809D01*
X149134380Y-104457809D02*
X148943904Y-104362571D01*
D12*
X141581238Y-112111571D02*
X141724095Y-112159190D01*
X141724095Y-112159190D02*
X141771714Y-112206809D01*
X141771714Y-112206809D02*
X141819333Y-112302047D01*
X141819333Y-112302047D02*
X141819333Y-112444904D01*
X141819333Y-112444904D02*
X141771714Y-112540142D01*
X141771714Y-112540142D02*
X141724095Y-112587761D01*
X141724095Y-112587761D02*
X141628857Y-112635380D01*
X141628857Y-112635380D02*
X141247905Y-112635380D01*
X141247905Y-112635380D02*
X141247905Y-111635380D01*
X141247905Y-111635380D02*
X141581238Y-111635380D01*
X141581238Y-111635380D02*
X141676476Y-111683000D01*
X141676476Y-111683000D02*
X141724095Y-111730619D01*
X141724095Y-111730619D02*
X141771714Y-111825857D01*
X141771714Y-111825857D02*
X141771714Y-111921095D01*
X141771714Y-111921095D02*
X141724095Y-112016333D01*
X141724095Y-112016333D02*
X141676476Y-112063952D01*
X141676476Y-112063952D02*
X141581238Y-112111571D01*
X141581238Y-112111571D02*
X141247905Y-112111571D01*
X142771714Y-112635380D02*
X142200286Y-112635380D01*
X142486000Y-112635380D02*
X142486000Y-111635380D01*
X142486000Y-111635380D02*
X142390762Y-111778238D01*
X142390762Y-111778238D02*
X142295524Y-111873476D01*
X142295524Y-111873476D02*
X142200286Y-111921095D01*
D11*
X155275666Y-116774762D02*
X155275666Y-116298572D01*
X155561380Y-116870000D02*
X154561380Y-116536667D01*
X154561380Y-116536667D02*
X155561380Y-116203334D01*
X155561380Y-115270000D02*
X154561380Y-115270000D01*
X154561380Y-115270000D02*
X155561380Y-114698572D01*
X155561380Y-114698572D02*
X154561380Y-114698572D01*
X155561380Y-114222381D02*
X154894714Y-114222381D01*
X154561380Y-114222381D02*
X154609000Y-114270000D01*
X154609000Y-114270000D02*
X154656619Y-114222381D01*
X154656619Y-114222381D02*
X154609000Y-114174762D01*
X154609000Y-114174762D02*
X154561380Y-114222381D01*
X154561380Y-114222381D02*
X154656619Y-114222381D01*
X154894714Y-113841429D02*
X155561380Y-113603334D01*
X155561380Y-113603334D02*
X154894714Y-113365239D01*
X155561380Y-112555715D02*
X155037571Y-112555715D01*
X155037571Y-112555715D02*
X154942333Y-112603334D01*
X154942333Y-112603334D02*
X154894714Y-112698572D01*
X154894714Y-112698572D02*
X154894714Y-112889048D01*
X154894714Y-112889048D02*
X154942333Y-112984286D01*
X155513761Y-112555715D02*
X155561380Y-112650953D01*
X155561380Y-112650953D02*
X155561380Y-112889048D01*
X155561380Y-112889048D02*
X155513761Y-112984286D01*
X155513761Y-112984286D02*
X155418523Y-113031905D01*
X155418523Y-113031905D02*
X155323285Y-113031905D01*
X155323285Y-113031905D02*
X155228047Y-112984286D01*
X155228047Y-112984286D02*
X155180428Y-112889048D01*
X155180428Y-112889048D02*
X155180428Y-112650953D01*
X155180428Y-112650953D02*
X155132809Y-112555715D01*
X154894714Y-111650953D02*
X155704238Y-111650953D01*
X155704238Y-111650953D02*
X155799476Y-111698572D01*
X155799476Y-111698572D02*
X155847095Y-111746191D01*
X155847095Y-111746191D02*
X155894714Y-111841429D01*
X155894714Y-111841429D02*
X155894714Y-111984286D01*
X155894714Y-111984286D02*
X155847095Y-112079524D01*
X155513761Y-111650953D02*
X155561380Y-111746191D01*
X155561380Y-111746191D02*
X155561380Y-111936667D01*
X155561380Y-111936667D02*
X155513761Y-112031905D01*
X155513761Y-112031905D02*
X155466142Y-112079524D01*
X155466142Y-112079524D02*
X155370904Y-112127143D01*
X155370904Y-112127143D02*
X155085190Y-112127143D01*
X155085190Y-112127143D02*
X154989952Y-112079524D01*
X154989952Y-112079524D02*
X154942333Y-112031905D01*
X154942333Y-112031905D02*
X154894714Y-111936667D01*
X154894714Y-111936667D02*
X154894714Y-111746191D01*
X154894714Y-111746191D02*
X154942333Y-111650953D01*
X155513761Y-110622381D02*
X155561380Y-110479524D01*
X155561380Y-110479524D02*
X155561380Y-110241429D01*
X155561380Y-110241429D02*
X155513761Y-110146191D01*
X155513761Y-110146191D02*
X155466142Y-110098572D01*
X155466142Y-110098572D02*
X155370904Y-110050953D01*
X155370904Y-110050953D02*
X155275666Y-110050953D01*
X155275666Y-110050953D02*
X155180428Y-110098572D01*
X155180428Y-110098572D02*
X155132809Y-110146191D01*
X155132809Y-110146191D02*
X155085190Y-110241429D01*
X155085190Y-110241429D02*
X155037571Y-110431905D01*
X155037571Y-110431905D02*
X154989952Y-110527143D01*
X154989952Y-110527143D02*
X154942333Y-110574762D01*
X154942333Y-110574762D02*
X154847095Y-110622381D01*
X154847095Y-110622381D02*
X154751857Y-110622381D01*
X154751857Y-110622381D02*
X154656619Y-110574762D01*
X154656619Y-110574762D02*
X154609000Y-110527143D01*
X154609000Y-110527143D02*
X154561380Y-110431905D01*
X154561380Y-110431905D02*
X154561380Y-110193810D01*
X154561380Y-110193810D02*
X154609000Y-110050953D01*
X154894714Y-109717619D02*
X155561380Y-109527143D01*
X155561380Y-109527143D02*
X155085190Y-109336667D01*
X155085190Y-109336667D02*
X155561380Y-109146191D01*
X155561380Y-109146191D02*
X154894714Y-108955715D01*
X155513761Y-108193810D02*
X155561380Y-108289048D01*
X155561380Y-108289048D02*
X155561380Y-108479524D01*
X155561380Y-108479524D02*
X155513761Y-108574762D01*
X155513761Y-108574762D02*
X155418523Y-108622381D01*
X155418523Y-108622381D02*
X155037571Y-108622381D01*
X155037571Y-108622381D02*
X154942333Y-108574762D01*
X154942333Y-108574762D02*
X154894714Y-108479524D01*
X154894714Y-108479524D02*
X154894714Y-108289048D01*
X154894714Y-108289048D02*
X154942333Y-108193810D01*
X154942333Y-108193810D02*
X155037571Y-108146191D01*
X155037571Y-108146191D02*
X155132809Y-108146191D01*
X155132809Y-108146191D02*
X155228047Y-108622381D01*
X155561380Y-107717619D02*
X154894714Y-107717619D01*
X155085190Y-107717619D02*
X154989952Y-107670000D01*
X154989952Y-107670000D02*
X154942333Y-107622381D01*
X154942333Y-107622381D02*
X154894714Y-107527143D01*
X154894714Y-107527143D02*
X154894714Y-107431905D01*
X155561380Y-106670000D02*
X154561380Y-106670000D01*
X155513761Y-106670000D02*
X155561380Y-106765238D01*
X155561380Y-106765238D02*
X155561380Y-106955714D01*
X155561380Y-106955714D02*
X155513761Y-107050952D01*
X155513761Y-107050952D02*
X155466142Y-107098571D01*
X155466142Y-107098571D02*
X155370904Y-107146190D01*
X155370904Y-107146190D02*
X155085190Y-107146190D01*
X155085190Y-107146190D02*
X154989952Y-107098571D01*
X154989952Y-107098571D02*
X154942333Y-107050952D01*
X154942333Y-107050952D02*
X154894714Y-106955714D01*
X154894714Y-106955714D02*
X154894714Y-106765238D01*
X154894714Y-106765238D02*
X154942333Y-106670000D01*
X154894714Y-106193809D02*
X155561380Y-106193809D01*
X154989952Y-106193809D02*
X154942333Y-106146190D01*
X154942333Y-106146190D02*
X154894714Y-106050952D01*
X154894714Y-106050952D02*
X154894714Y-105908095D01*
X154894714Y-105908095D02*
X154942333Y-105812857D01*
X154942333Y-105812857D02*
X155037571Y-105765238D01*
X155037571Y-105765238D02*
X155561380Y-105765238D01*
X155561380Y-104860476D02*
X155037571Y-104860476D01*
X155037571Y-104860476D02*
X154942333Y-104908095D01*
X154942333Y-104908095D02*
X154894714Y-105003333D01*
X154894714Y-105003333D02*
X154894714Y-105193809D01*
X154894714Y-105193809D02*
X154942333Y-105289047D01*
X155513761Y-104860476D02*
X155561380Y-104955714D01*
X155561380Y-104955714D02*
X155561380Y-105193809D01*
X155561380Y-105193809D02*
X155513761Y-105289047D01*
X155513761Y-105289047D02*
X155418523Y-105336666D01*
X155418523Y-105336666D02*
X155323285Y-105336666D01*
X155323285Y-105336666D02*
X155228047Y-105289047D01*
X155228047Y-105289047D02*
X155180428Y-105193809D01*
X155180428Y-105193809D02*
X155180428Y-104955714D01*
X155180428Y-104955714D02*
X155132809Y-104860476D01*
X155561380Y-103784285D02*
X154561380Y-103784285D01*
X154561380Y-103784285D02*
X154561380Y-103403333D01*
X154561380Y-103403333D02*
X154609000Y-103308095D01*
X154609000Y-103308095D02*
X154656619Y-103260476D01*
X154656619Y-103260476D02*
X154751857Y-103212857D01*
X154751857Y-103212857D02*
X154894714Y-103212857D01*
X154894714Y-103212857D02*
X154989952Y-103260476D01*
X154989952Y-103260476D02*
X155037571Y-103308095D01*
X155037571Y-103308095D02*
X155085190Y-103403333D01*
X155085190Y-103403333D02*
X155085190Y-103784285D01*
X155561380Y-102784285D02*
X154894714Y-102784285D01*
X155085190Y-102784285D02*
X154989952Y-102736666D01*
X154989952Y-102736666D02*
X154942333Y-102689047D01*
X154942333Y-102689047D02*
X154894714Y-102593809D01*
X154894714Y-102593809D02*
X154894714Y-102498571D01*
X155561380Y-102022380D02*
X155513761Y-102117618D01*
X155513761Y-102117618D02*
X155466142Y-102165237D01*
X155466142Y-102165237D02*
X155370904Y-102212856D01*
X155370904Y-102212856D02*
X155085190Y-102212856D01*
X155085190Y-102212856D02*
X154989952Y-102165237D01*
X154989952Y-102165237D02*
X154942333Y-102117618D01*
X154942333Y-102117618D02*
X154894714Y-102022380D01*
X154894714Y-102022380D02*
X154894714Y-101879523D01*
X154894714Y-101879523D02*
X154942333Y-101784285D01*
X154942333Y-101784285D02*
X154989952Y-101736666D01*
X154989952Y-101736666D02*
X155085190Y-101689047D01*
X155085190Y-101689047D02*
X155370904Y-101689047D01*
X155370904Y-101689047D02*
X155466142Y-101736666D01*
X155466142Y-101736666D02*
X155513761Y-101784285D01*
X155513761Y-101784285D02*
X155561380Y-101879523D01*
X155561380Y-101879523D02*
X155561380Y-102022380D01*
X155561380Y-100831904D02*
X154561380Y-100831904D01*
X155513761Y-100831904D02*
X155561380Y-100927142D01*
X155561380Y-100927142D02*
X155561380Y-101117618D01*
X155561380Y-101117618D02*
X155513761Y-101212856D01*
X155513761Y-101212856D02*
X155466142Y-101260475D01*
X155466142Y-101260475D02*
X155370904Y-101308094D01*
X155370904Y-101308094D02*
X155085190Y-101308094D01*
X155085190Y-101308094D02*
X154989952Y-101260475D01*
X154989952Y-101260475D02*
X154942333Y-101212856D01*
X154942333Y-101212856D02*
X154894714Y-101117618D01*
X154894714Y-101117618D02*
X154894714Y-100927142D01*
X154894714Y-100927142D02*
X154942333Y-100831904D01*
X154894714Y-99927142D02*
X155561380Y-99927142D01*
X154894714Y-100355713D02*
X155418523Y-100355713D01*
X155418523Y-100355713D02*
X155513761Y-100308094D01*
X155513761Y-100308094D02*
X155561380Y-100212856D01*
X155561380Y-100212856D02*
X155561380Y-100069999D01*
X155561380Y-100069999D02*
X155513761Y-99974761D01*
X155513761Y-99974761D02*
X155466142Y-99927142D01*
X155513761Y-99022380D02*
X155561380Y-99117618D01*
X155561380Y-99117618D02*
X155561380Y-99308094D01*
X155561380Y-99308094D02*
X155513761Y-99403332D01*
X155513761Y-99403332D02*
X155466142Y-99450951D01*
X155466142Y-99450951D02*
X155370904Y-99498570D01*
X155370904Y-99498570D02*
X155085190Y-99498570D01*
X155085190Y-99498570D02*
X154989952Y-99450951D01*
X154989952Y-99450951D02*
X154942333Y-99403332D01*
X154942333Y-99403332D02*
X154894714Y-99308094D01*
X154894714Y-99308094D02*
X154894714Y-99117618D01*
X154894714Y-99117618D02*
X154942333Y-99022380D01*
X154894714Y-98736665D02*
X154894714Y-98355713D01*
X154561380Y-98593808D02*
X155418523Y-98593808D01*
X155418523Y-98593808D02*
X155513761Y-98546189D01*
X155513761Y-98546189D02*
X155561380Y-98450951D01*
X155561380Y-98450951D02*
X155561380Y-98355713D01*
X155561380Y-98022379D02*
X154894714Y-98022379D01*
X154561380Y-98022379D02*
X154609000Y-98069998D01*
X154609000Y-98069998D02*
X154656619Y-98022379D01*
X154656619Y-98022379D02*
X154609000Y-97974760D01*
X154609000Y-97974760D02*
X154561380Y-98022379D01*
X154561380Y-98022379D02*
X154656619Y-98022379D01*
X155561380Y-97403332D02*
X155513761Y-97498570D01*
X155513761Y-97498570D02*
X155466142Y-97546189D01*
X155466142Y-97546189D02*
X155370904Y-97593808D01*
X155370904Y-97593808D02*
X155085190Y-97593808D01*
X155085190Y-97593808D02*
X154989952Y-97546189D01*
X154989952Y-97546189D02*
X154942333Y-97498570D01*
X154942333Y-97498570D02*
X154894714Y-97403332D01*
X154894714Y-97403332D02*
X154894714Y-97260475D01*
X154894714Y-97260475D02*
X154942333Y-97165237D01*
X154942333Y-97165237D02*
X154989952Y-97117618D01*
X154989952Y-97117618D02*
X155085190Y-97069999D01*
X155085190Y-97069999D02*
X155370904Y-97069999D01*
X155370904Y-97069999D02*
X155466142Y-97117618D01*
X155466142Y-97117618D02*
X155513761Y-97165237D01*
X155513761Y-97165237D02*
X155561380Y-97260475D01*
X155561380Y-97260475D02*
X155561380Y-97403332D01*
X154894714Y-96641427D02*
X155561380Y-96641427D01*
X154989952Y-96641427D02*
X154942333Y-96593808D01*
X154942333Y-96593808D02*
X154894714Y-96498570D01*
X154894714Y-96498570D02*
X154894714Y-96355713D01*
X154894714Y-96355713D02*
X154942333Y-96260475D01*
X154942333Y-96260475D02*
X155037571Y-96212856D01*
X155037571Y-96212856D02*
X155561380Y-96212856D01*
X155942333Y-94850951D02*
X155894714Y-94898570D01*
X155894714Y-94898570D02*
X155751857Y-94993808D01*
X155751857Y-94993808D02*
X155656619Y-95041427D01*
X155656619Y-95041427D02*
X155513761Y-95089046D01*
X155513761Y-95089046D02*
X155275666Y-95136665D01*
X155275666Y-95136665D02*
X155085190Y-95136665D01*
X155085190Y-95136665D02*
X154847095Y-95089046D01*
X154847095Y-95089046D02*
X154704238Y-95041427D01*
X154704238Y-95041427D02*
X154609000Y-94993808D01*
X154609000Y-94993808D02*
X154466142Y-94898570D01*
X154466142Y-94898570D02*
X154418523Y-94850951D01*
X155513761Y-94041427D02*
X155561380Y-94136665D01*
X155561380Y-94136665D02*
X155561380Y-94327141D01*
X155561380Y-94327141D02*
X155513761Y-94422379D01*
X155513761Y-94422379D02*
X155466142Y-94469998D01*
X155466142Y-94469998D02*
X155370904Y-94517617D01*
X155370904Y-94517617D02*
X155085190Y-94517617D01*
X155085190Y-94517617D02*
X154989952Y-94469998D01*
X154989952Y-94469998D02*
X154942333Y-94422379D01*
X154942333Y-94422379D02*
X154894714Y-94327141D01*
X154894714Y-94327141D02*
X154894714Y-94136665D01*
X154894714Y-94136665D02*
X154942333Y-94041427D01*
X155942333Y-93708093D02*
X155894714Y-93660474D01*
X155894714Y-93660474D02*
X155751857Y-93565236D01*
X155751857Y-93565236D02*
X155656619Y-93517617D01*
X155656619Y-93517617D02*
X155513761Y-93469998D01*
X155513761Y-93469998D02*
X155275666Y-93422379D01*
X155275666Y-93422379D02*
X155085190Y-93422379D01*
X155085190Y-93422379D02*
X154847095Y-93469998D01*
X154847095Y-93469998D02*
X154704238Y-93517617D01*
X154704238Y-93517617D02*
X154609000Y-93565236D01*
X154609000Y-93565236D02*
X154466142Y-93660474D01*
X154466142Y-93660474D02*
X154418523Y-93708093D01*
X154656619Y-92393807D02*
X154609000Y-92346188D01*
X154609000Y-92346188D02*
X154561380Y-92250950D01*
X154561380Y-92250950D02*
X154561380Y-92012855D01*
X154561380Y-92012855D02*
X154609000Y-91917617D01*
X154609000Y-91917617D02*
X154656619Y-91869998D01*
X154656619Y-91869998D02*
X154751857Y-91822379D01*
X154751857Y-91822379D02*
X154847095Y-91822379D01*
X154847095Y-91822379D02*
X154989952Y-91869998D01*
X154989952Y-91869998D02*
X155561380Y-92441426D01*
X155561380Y-92441426D02*
X155561380Y-91822379D01*
X154561380Y-91203331D02*
X154561380Y-91108093D01*
X154561380Y-91108093D02*
X154609000Y-91012855D01*
X154609000Y-91012855D02*
X154656619Y-90965236D01*
X154656619Y-90965236D02*
X154751857Y-90917617D01*
X154751857Y-90917617D02*
X154942333Y-90869998D01*
X154942333Y-90869998D02*
X155180428Y-90869998D01*
X155180428Y-90869998D02*
X155370904Y-90917617D01*
X155370904Y-90917617D02*
X155466142Y-90965236D01*
X155466142Y-90965236D02*
X155513761Y-91012855D01*
X155513761Y-91012855D02*
X155561380Y-91108093D01*
X155561380Y-91108093D02*
X155561380Y-91203331D01*
X155561380Y-91203331D02*
X155513761Y-91298569D01*
X155513761Y-91298569D02*
X155466142Y-91346188D01*
X155466142Y-91346188D02*
X155370904Y-91393807D01*
X155370904Y-91393807D02*
X155180428Y-91441426D01*
X155180428Y-91441426D02*
X154942333Y-91441426D01*
X154942333Y-91441426D02*
X154751857Y-91393807D01*
X154751857Y-91393807D02*
X154656619Y-91346188D01*
X154656619Y-91346188D02*
X154609000Y-91298569D01*
X154609000Y-91298569D02*
X154561380Y-91203331D01*
X154656619Y-90489045D02*
X154609000Y-90441426D01*
X154609000Y-90441426D02*
X154561380Y-90346188D01*
X154561380Y-90346188D02*
X154561380Y-90108093D01*
X154561380Y-90108093D02*
X154609000Y-90012855D01*
X154609000Y-90012855D02*
X154656619Y-89965236D01*
X154656619Y-89965236D02*
X154751857Y-89917617D01*
X154751857Y-89917617D02*
X154847095Y-89917617D01*
X154847095Y-89917617D02*
X154989952Y-89965236D01*
X154989952Y-89965236D02*
X155561380Y-90536664D01*
X155561380Y-90536664D02*
X155561380Y-89917617D01*
X154561380Y-89584283D02*
X154561380Y-88965236D01*
X154561380Y-88965236D02*
X154942333Y-89298569D01*
X154942333Y-89298569D02*
X154942333Y-89155712D01*
X154942333Y-89155712D02*
X154989952Y-89060474D01*
X154989952Y-89060474D02*
X155037571Y-89012855D01*
X155037571Y-89012855D02*
X155132809Y-88965236D01*
X155132809Y-88965236D02*
X155370904Y-88965236D01*
X155370904Y-88965236D02*
X155466142Y-89012855D01*
X155466142Y-89012855D02*
X155513761Y-89060474D01*
X155513761Y-89060474D02*
X155561380Y-89155712D01*
X155561380Y-89155712D02*
X155561380Y-89441426D01*
X155561380Y-89441426D02*
X155513761Y-89536664D01*
X155513761Y-89536664D02*
X155466142Y-89584283D01*
D12*
X141581238Y-114905571D02*
X141724095Y-114953190D01*
X141724095Y-114953190D02*
X141771714Y-115000809D01*
X141771714Y-115000809D02*
X141819333Y-115096047D01*
X141819333Y-115096047D02*
X141819333Y-115238904D01*
X141819333Y-115238904D02*
X141771714Y-115334142D01*
X141771714Y-115334142D02*
X141724095Y-115381761D01*
X141724095Y-115381761D02*
X141628857Y-115429380D01*
X141628857Y-115429380D02*
X141247905Y-115429380D01*
X141247905Y-115429380D02*
X141247905Y-114429380D01*
X141247905Y-114429380D02*
X141581238Y-114429380D01*
X141581238Y-114429380D02*
X141676476Y-114477000D01*
X141676476Y-114477000D02*
X141724095Y-114524619D01*
X141724095Y-114524619D02*
X141771714Y-114619857D01*
X141771714Y-114619857D02*
X141771714Y-114715095D01*
X141771714Y-114715095D02*
X141724095Y-114810333D01*
X141724095Y-114810333D02*
X141676476Y-114857952D01*
X141676476Y-114857952D02*
X141581238Y-114905571D01*
X141581238Y-114905571D02*
X141247905Y-114905571D01*
X142438381Y-114429380D02*
X142533619Y-114429380D01*
X142533619Y-114429380D02*
X142628857Y-114477000D01*
X142628857Y-114477000D02*
X142676476Y-114524619D01*
X142676476Y-114524619D02*
X142724095Y-114619857D01*
X142724095Y-114619857D02*
X142771714Y-114810333D01*
X142771714Y-114810333D02*
X142771714Y-115048428D01*
X142771714Y-115048428D02*
X142724095Y-115238904D01*
X142724095Y-115238904D02*
X142676476Y-115334142D01*
X142676476Y-115334142D02*
X142628857Y-115381761D01*
X142628857Y-115381761D02*
X142533619Y-115429380D01*
X142533619Y-115429380D02*
X142438381Y-115429380D01*
X142438381Y-115429380D02*
X142343143Y-115381761D01*
X142343143Y-115381761D02*
X142295524Y-115334142D01*
X142295524Y-115334142D02*
X142247905Y-115238904D01*
X142247905Y-115238904D02*
X142200286Y-115048428D01*
X142200286Y-115048428D02*
X142200286Y-114810333D01*
X142200286Y-114810333D02*
X142247905Y-114619857D01*
X142247905Y-114619857D02*
X142295524Y-114524619D01*
X142295524Y-114524619D02*
X142343143Y-114477000D01*
X142343143Y-114477000D02*
X142438381Y-114429380D01*
%TO.C,U1*%
X138432380Y-95757904D02*
X139241904Y-95757904D01*
X139241904Y-95757904D02*
X139337142Y-95710285D01*
X139337142Y-95710285D02*
X139384761Y-95662666D01*
X139384761Y-95662666D02*
X139432380Y-95567428D01*
X139432380Y-95567428D02*
X139432380Y-95376952D01*
X139432380Y-95376952D02*
X139384761Y-95281714D01*
X139384761Y-95281714D02*
X139337142Y-95234095D01*
X139337142Y-95234095D02*
X139241904Y-95186476D01*
X139241904Y-95186476D02*
X138432380Y-95186476D01*
X139432380Y-94186476D02*
X139432380Y-94757904D01*
X139432380Y-94472190D02*
X138432380Y-94472190D01*
X138432380Y-94472190D02*
X138575238Y-94567428D01*
X138575238Y-94567428D02*
X138670476Y-94662666D01*
X138670476Y-94662666D02*
X138718095Y-94757904D01*
%TO.C,D1*%
X144970667Y-93839380D02*
X144970667Y-92839380D01*
X144970667Y-92839380D02*
X145351619Y-92839380D01*
X145351619Y-92839380D02*
X145446857Y-92887000D01*
X145446857Y-92887000D02*
X145494476Y-92934619D01*
X145494476Y-92934619D02*
X145542095Y-93029857D01*
X145542095Y-93029857D02*
X145542095Y-93172714D01*
X145542095Y-93172714D02*
X145494476Y-93267952D01*
X145494476Y-93267952D02*
X145446857Y-93315571D01*
X145446857Y-93315571D02*
X145351619Y-93363190D01*
X145351619Y-93363190D02*
X144970667Y-93363190D01*
X145875429Y-92839380D02*
X146113524Y-93839380D01*
X146113524Y-93839380D02*
X146304000Y-93125095D01*
X146304000Y-93125095D02*
X146494476Y-93839380D01*
X146494476Y-93839380D02*
X146732572Y-92839380D01*
X147684952Y-93839380D02*
X147351619Y-93363190D01*
X147113524Y-93839380D02*
X147113524Y-92839380D01*
X147113524Y-92839380D02*
X147494476Y-92839380D01*
X147494476Y-92839380D02*
X147589714Y-92887000D01*
X147589714Y-92887000D02*
X147637333Y-92934619D01*
X147637333Y-92934619D02*
X147684952Y-93029857D01*
X147684952Y-93029857D02*
X147684952Y-93172714D01*
X147684952Y-93172714D02*
X147637333Y-93267952D01*
X147637333Y-93267952D02*
X147589714Y-93315571D01*
X147589714Y-93315571D02*
X147494476Y-93363190D01*
X147494476Y-93363190D02*
X147113524Y-93363190D01*
D13*
%TO.C,J3*%
X136015600Y-108720466D02*
X140257400Y-108720466D01*
X136015600Y-109888866D02*
X136015600Y-108720466D01*
X140257400Y-108720466D02*
X140257400Y-109888866D01*
X140257400Y-109888866D02*
X136015600Y-109888866D01*
X140435200Y-108720466D02*
X140435200Y-109888866D01*
%TO.C,J2*%
X136015600Y-111599132D02*
X140257400Y-111599132D01*
X136015600Y-112767532D02*
X136015600Y-111599132D01*
X140257400Y-111599132D02*
X140257400Y-112767532D01*
X140257400Y-112767532D02*
X136015600Y-112767532D01*
X140435200Y-111599132D02*
X140435200Y-112767532D01*
%TO.C,U1*%
X134874000Y-88646000D02*
X134874000Y-102489000D01*
D14*
X143002000Y-102616000D02*
X143002000Y-86995000D01*
D13*
X142800605Y-88900000D02*
G75*
G03*
X142800605Y-88900000I-179605J0D01*
G01*
%TO.C,J4*%
X136015600Y-105841800D02*
X140257400Y-105841800D01*
X136015600Y-107010200D02*
X136015600Y-105841800D01*
X140257400Y-105841800D02*
X140257400Y-107010200D01*
X140257400Y-107010200D02*
X136015600Y-107010200D01*
X140435200Y-105841800D02*
X140435200Y-107010200D01*
%TO.C,D1*%
X148273400Y-92483000D02*
X148273400Y-93953000D01*
X148273400Y-93953000D02*
X150558400Y-93953000D01*
X150558400Y-92483000D02*
X148273400Y-92483000D01*
%TO.C,J1*%
X136015600Y-114477800D02*
X140257400Y-114477800D01*
X136015600Y-115646200D02*
X136015600Y-114477800D01*
X140257400Y-114477800D02*
X140257400Y-115646200D01*
X140257400Y-115646200D02*
X136015600Y-115646200D01*
X140435200Y-114477800D02*
X140435200Y-115646200D01*
%TO.C,R1*%
X150046458Y-95772500D02*
X149571942Y-95772500D01*
X150046458Y-94727500D02*
X149571942Y-94727500D01*
%TO.C,J19*%
X146702000Y-96714000D02*
X146702000Y-117154000D01*
X146702000Y-117154000D02*
X152002000Y-117154000D01*
X148352000Y-96714000D02*
X146702000Y-96714000D01*
X152002000Y-96714000D02*
X150352000Y-96714000D01*
X152002000Y-117154000D02*
X152002000Y-96714000D01*
X148352000Y-96714000D02*
G75*
G03*
X150352000Y-96714000I1000000J0D01*
G01*
%TO.C,C1*%
X139305420Y-83310000D02*
X139586580Y-83310000D01*
X139305420Y-84330000D02*
X139586580Y-84330000D01*
%TO.C,J14*%
X146702000Y-71314000D02*
X146702000Y-91754000D01*
X146702000Y-91754000D02*
X152002000Y-91754000D01*
X148352000Y-71314000D02*
X146702000Y-71314000D01*
X152002000Y-71314000D02*
X150352000Y-71314000D01*
X152002000Y-91754000D02*
X152002000Y-71314000D01*
X148352000Y-71314000D02*
G75*
G03*
X150352000Y-71314000I1000000J0D01*
G01*
%TD*%
M02*
