%TF.GenerationSoftware,KiCad,Pcbnew,(7.0.0)*%
%TF.CreationDate,2023-08-04T20:04:34+01:00*%
%TF.ProjectId,DataIODecode,44617461-494f-4446-9563-6f64652e6b69,rev?*%
%TF.SameCoordinates,Original*%
%TF.FileFunction,Drillmap*%
%TF.FilePolarity,Positive*%
%FSLAX45Y45*%
G04 Gerber Fmt 4.5, Leading zero omitted, Abs format (unit mm)*
G04 Created by KiCad (PCBNEW (7.0.0)) date 2023-08-04 20:04:34*
%MOMM*%
%LPD*%
G01*
G04 APERTURE LIST*
%ADD10C,0.100000*%
%ADD11C,0.200000*%
G04 APERTURE END LIST*
D10*
X14249400Y-7924800D02*
X13208000Y-7924800D01*
X13208000Y-7924800D02*
X13208000Y-11760200D01*
X15621000Y-7061200D02*
X15621000Y-11760200D01*
X15621000Y-11760200D02*
X13208000Y-11760200D01*
X14249400Y-7061200D02*
X15621000Y-7061200D01*
X14249400Y-7924800D02*
X14249400Y-7061200D01*
D11*
X13450619Y-12058676D02*
X13450619Y-11858676D01*
X13450619Y-11858676D02*
X13498238Y-11858676D01*
X13498238Y-11858676D02*
X13526809Y-11868200D01*
X13526809Y-11868200D02*
X13545857Y-11887248D01*
X13545857Y-11887248D02*
X13555381Y-11906295D01*
X13555381Y-11906295D02*
X13564905Y-11944390D01*
X13564905Y-11944390D02*
X13564905Y-11972962D01*
X13564905Y-11972962D02*
X13555381Y-12011057D01*
X13555381Y-12011057D02*
X13545857Y-12030105D01*
X13545857Y-12030105D02*
X13526809Y-12049152D01*
X13526809Y-12049152D02*
X13498238Y-12058676D01*
X13498238Y-12058676D02*
X13450619Y-12058676D01*
X13650619Y-12058676D02*
X13650619Y-11925343D01*
X13650619Y-11963438D02*
X13660143Y-11944390D01*
X13660143Y-11944390D02*
X13669667Y-11934867D01*
X13669667Y-11934867D02*
X13688714Y-11925343D01*
X13688714Y-11925343D02*
X13707762Y-11925343D01*
X13774428Y-12058676D02*
X13774428Y-11925343D01*
X13774428Y-11858676D02*
X13764905Y-11868200D01*
X13764905Y-11868200D02*
X13774428Y-11877724D01*
X13774428Y-11877724D02*
X13783952Y-11868200D01*
X13783952Y-11868200D02*
X13774428Y-11858676D01*
X13774428Y-11858676D02*
X13774428Y-11877724D01*
X13898238Y-12058676D02*
X13879190Y-12049152D01*
X13879190Y-12049152D02*
X13869667Y-12030105D01*
X13869667Y-12030105D02*
X13869667Y-11858676D01*
X14003000Y-12058676D02*
X13983952Y-12049152D01*
X13983952Y-12049152D02*
X13974428Y-12030105D01*
X13974428Y-12030105D02*
X13974428Y-11858676D01*
X14199190Y-12058676D02*
X14199190Y-11858676D01*
X14199190Y-11858676D02*
X14265857Y-12001533D01*
X14265857Y-12001533D02*
X14332524Y-11858676D01*
X14332524Y-11858676D02*
X14332524Y-12058676D01*
X14513476Y-12058676D02*
X14513476Y-11953914D01*
X14513476Y-11953914D02*
X14503952Y-11934867D01*
X14503952Y-11934867D02*
X14484905Y-11925343D01*
X14484905Y-11925343D02*
X14446809Y-11925343D01*
X14446809Y-11925343D02*
X14427762Y-11934867D01*
X14513476Y-12049152D02*
X14494428Y-12058676D01*
X14494428Y-12058676D02*
X14446809Y-12058676D01*
X14446809Y-12058676D02*
X14427762Y-12049152D01*
X14427762Y-12049152D02*
X14418238Y-12030105D01*
X14418238Y-12030105D02*
X14418238Y-12011057D01*
X14418238Y-12011057D02*
X14427762Y-11992009D01*
X14427762Y-11992009D02*
X14446809Y-11982486D01*
X14446809Y-11982486D02*
X14494428Y-11982486D01*
X14494428Y-11982486D02*
X14513476Y-11972962D01*
X14608714Y-11925343D02*
X14608714Y-12125343D01*
X14608714Y-11934867D02*
X14627762Y-11925343D01*
X14627762Y-11925343D02*
X14665857Y-11925343D01*
X14665857Y-11925343D02*
X14684905Y-11934867D01*
X14684905Y-11934867D02*
X14694428Y-11944390D01*
X14694428Y-11944390D02*
X14703952Y-11963438D01*
X14703952Y-11963438D02*
X14703952Y-12020581D01*
X14703952Y-12020581D02*
X14694428Y-12039628D01*
X14694428Y-12039628D02*
X14684905Y-12049152D01*
X14684905Y-12049152D02*
X14665857Y-12058676D01*
X14665857Y-12058676D02*
X14627762Y-12058676D01*
X14627762Y-12058676D02*
X14608714Y-12049152D01*
X14789667Y-12039628D02*
X14799190Y-12049152D01*
X14799190Y-12049152D02*
X14789667Y-12058676D01*
X14789667Y-12058676D02*
X14780143Y-12049152D01*
X14780143Y-12049152D02*
X14789667Y-12039628D01*
X14789667Y-12039628D02*
X14789667Y-12058676D01*
X14789667Y-11934867D02*
X14799190Y-11944390D01*
X14799190Y-11944390D02*
X14789667Y-11953914D01*
X14789667Y-11953914D02*
X14780143Y-11944390D01*
X14780143Y-11944390D02*
X14789667Y-11934867D01*
X14789667Y-11934867D02*
X14789667Y-11953914D01*
M02*
