%TF.GenerationSoftware,KiCad,Pcbnew,(7.0.0)*%
%TF.CreationDate,2023-08-04T20:04:38+01:00*%
%TF.ProjectId,DataIODecode,44617461-494f-4446-9563-6f64652e6b69,rev?*%
%TF.SameCoordinates,Original*%
%TF.FileFunction,Legend,Bot*%
%TF.FilePolarity,Positive*%
%FSLAX46Y46*%
G04 Gerber Fmt 4.6, Leading zero omitted, Abs format (unit mm)*
G04 Created by KiCad (PCBNEW (7.0.0)) date 2023-08-04 20:04:38*
%MOMM*%
%LPD*%
G01*
G04 APERTURE LIST*
%ADD10C,0.100000*%
G04 APERTURE END LIST*
D10*
X133225380Y-80722379D02*
X134225380Y-80960474D01*
X134225380Y-80960474D02*
X133511095Y-81150950D01*
X133511095Y-81150950D02*
X134225380Y-81341426D01*
X134225380Y-81341426D02*
X133225380Y-81579522D01*
X134225380Y-81960474D02*
X133225380Y-81960474D01*
X134225380Y-82389045D02*
X133701571Y-82389045D01*
X133701571Y-82389045D02*
X133606333Y-82341426D01*
X133606333Y-82341426D02*
X133558714Y-82246188D01*
X133558714Y-82246188D02*
X133558714Y-82103331D01*
X133558714Y-82103331D02*
X133606333Y-82008093D01*
X133606333Y-82008093D02*
X133653952Y-81960474D01*
X134177761Y-83246188D02*
X134225380Y-83150950D01*
X134225380Y-83150950D02*
X134225380Y-82960474D01*
X134225380Y-82960474D02*
X134177761Y-82865236D01*
X134177761Y-82865236D02*
X134082523Y-82817617D01*
X134082523Y-82817617D02*
X133701571Y-82817617D01*
X133701571Y-82817617D02*
X133606333Y-82865236D01*
X133606333Y-82865236D02*
X133558714Y-82960474D01*
X133558714Y-82960474D02*
X133558714Y-83150950D01*
X133558714Y-83150950D02*
X133606333Y-83246188D01*
X133606333Y-83246188D02*
X133701571Y-83293807D01*
X133701571Y-83293807D02*
X133796809Y-83293807D01*
X133796809Y-83293807D02*
X133892047Y-82817617D01*
X134225380Y-83722379D02*
X133558714Y-83722379D01*
X133749190Y-83722379D02*
X133653952Y-83769998D01*
X133653952Y-83769998D02*
X133606333Y-83817617D01*
X133606333Y-83817617D02*
X133558714Y-83912855D01*
X133558714Y-83912855D02*
X133558714Y-84008093D01*
X134177761Y-84722379D02*
X134225380Y-84627141D01*
X134225380Y-84627141D02*
X134225380Y-84436665D01*
X134225380Y-84436665D02*
X134177761Y-84341427D01*
X134177761Y-84341427D02*
X134082523Y-84293808D01*
X134082523Y-84293808D02*
X133701571Y-84293808D01*
X133701571Y-84293808D02*
X133606333Y-84341427D01*
X133606333Y-84341427D02*
X133558714Y-84436665D01*
X133558714Y-84436665D02*
X133558714Y-84627141D01*
X133558714Y-84627141D02*
X133606333Y-84722379D01*
X133606333Y-84722379D02*
X133701571Y-84769998D01*
X133701571Y-84769998D02*
X133796809Y-84769998D01*
X133796809Y-84769998D02*
X133892047Y-84293808D01*
X133558714Y-85655713D02*
X133558714Y-86036665D01*
X133225380Y-85798570D02*
X134082523Y-85798570D01*
X134082523Y-85798570D02*
X134177761Y-85846189D01*
X134177761Y-85846189D02*
X134225380Y-85941427D01*
X134225380Y-85941427D02*
X134225380Y-86036665D01*
X134225380Y-86369999D02*
X133225380Y-86369999D01*
X134225380Y-86798570D02*
X133701571Y-86798570D01*
X133701571Y-86798570D02*
X133606333Y-86750951D01*
X133606333Y-86750951D02*
X133558714Y-86655713D01*
X133558714Y-86655713D02*
X133558714Y-86512856D01*
X133558714Y-86512856D02*
X133606333Y-86417618D01*
X133606333Y-86417618D02*
X133653952Y-86369999D01*
X134177761Y-87655713D02*
X134225380Y-87560475D01*
X134225380Y-87560475D02*
X134225380Y-87369999D01*
X134225380Y-87369999D02*
X134177761Y-87274761D01*
X134177761Y-87274761D02*
X134082523Y-87227142D01*
X134082523Y-87227142D02*
X133701571Y-87227142D01*
X133701571Y-87227142D02*
X133606333Y-87274761D01*
X133606333Y-87274761D02*
X133558714Y-87369999D01*
X133558714Y-87369999D02*
X133558714Y-87560475D01*
X133558714Y-87560475D02*
X133606333Y-87655713D01*
X133606333Y-87655713D02*
X133701571Y-87703332D01*
X133701571Y-87703332D02*
X133796809Y-87703332D01*
X133796809Y-87703332D02*
X133892047Y-87227142D01*
X134177761Y-89112856D02*
X134225380Y-89017618D01*
X134225380Y-89017618D02*
X134225380Y-88827142D01*
X134225380Y-88827142D02*
X134177761Y-88731904D01*
X134177761Y-88731904D02*
X134082523Y-88684285D01*
X134082523Y-88684285D02*
X133701571Y-88684285D01*
X133701571Y-88684285D02*
X133606333Y-88731904D01*
X133606333Y-88731904D02*
X133558714Y-88827142D01*
X133558714Y-88827142D02*
X133558714Y-89017618D01*
X133558714Y-89017618D02*
X133606333Y-89112856D01*
X133606333Y-89112856D02*
X133701571Y-89160475D01*
X133701571Y-89160475D02*
X133796809Y-89160475D01*
X133796809Y-89160475D02*
X133892047Y-88684285D01*
X134225380Y-89731904D02*
X134177761Y-89636666D01*
X134177761Y-89636666D02*
X134082523Y-89589047D01*
X134082523Y-89589047D02*
X133225380Y-89589047D01*
X134177761Y-90493809D02*
X134225380Y-90398571D01*
X134225380Y-90398571D02*
X134225380Y-90208095D01*
X134225380Y-90208095D02*
X134177761Y-90112857D01*
X134177761Y-90112857D02*
X134082523Y-90065238D01*
X134082523Y-90065238D02*
X133701571Y-90065238D01*
X133701571Y-90065238D02*
X133606333Y-90112857D01*
X133606333Y-90112857D02*
X133558714Y-90208095D01*
X133558714Y-90208095D02*
X133558714Y-90398571D01*
X133558714Y-90398571D02*
X133606333Y-90493809D01*
X133606333Y-90493809D02*
X133701571Y-90541428D01*
X133701571Y-90541428D02*
X133796809Y-90541428D01*
X133796809Y-90541428D02*
X133892047Y-90065238D01*
X134177761Y-91398571D02*
X134225380Y-91303333D01*
X134225380Y-91303333D02*
X134225380Y-91112857D01*
X134225380Y-91112857D02*
X134177761Y-91017619D01*
X134177761Y-91017619D02*
X134130142Y-90970000D01*
X134130142Y-90970000D02*
X134034904Y-90922381D01*
X134034904Y-90922381D02*
X133749190Y-90922381D01*
X133749190Y-90922381D02*
X133653952Y-90970000D01*
X133653952Y-90970000D02*
X133606333Y-91017619D01*
X133606333Y-91017619D02*
X133558714Y-91112857D01*
X133558714Y-91112857D02*
X133558714Y-91303333D01*
X133558714Y-91303333D02*
X133606333Y-91398571D01*
X133558714Y-91684286D02*
X133558714Y-92065238D01*
X133225380Y-91827143D02*
X134082523Y-91827143D01*
X134082523Y-91827143D02*
X134177761Y-91874762D01*
X134177761Y-91874762D02*
X134225380Y-91970000D01*
X134225380Y-91970000D02*
X134225380Y-92065238D01*
X134225380Y-92398572D02*
X133558714Y-92398572D01*
X133749190Y-92398572D02*
X133653952Y-92446191D01*
X133653952Y-92446191D02*
X133606333Y-92493810D01*
X133606333Y-92493810D02*
X133558714Y-92589048D01*
X133558714Y-92589048D02*
X133558714Y-92684286D01*
X134225380Y-93160477D02*
X134177761Y-93065239D01*
X134177761Y-93065239D02*
X134130142Y-93017620D01*
X134130142Y-93017620D02*
X134034904Y-92970001D01*
X134034904Y-92970001D02*
X133749190Y-92970001D01*
X133749190Y-92970001D02*
X133653952Y-93017620D01*
X133653952Y-93017620D02*
X133606333Y-93065239D01*
X133606333Y-93065239D02*
X133558714Y-93160477D01*
X133558714Y-93160477D02*
X133558714Y-93303334D01*
X133558714Y-93303334D02*
X133606333Y-93398572D01*
X133606333Y-93398572D02*
X133653952Y-93446191D01*
X133653952Y-93446191D02*
X133749190Y-93493810D01*
X133749190Y-93493810D02*
X134034904Y-93493810D01*
X134034904Y-93493810D02*
X134130142Y-93446191D01*
X134130142Y-93446191D02*
X134177761Y-93398572D01*
X134177761Y-93398572D02*
X134225380Y-93303334D01*
X134225380Y-93303334D02*
X134225380Y-93160477D01*
X133558714Y-93922382D02*
X134225380Y-93922382D01*
X133653952Y-93922382D02*
X133606333Y-93970001D01*
X133606333Y-93970001D02*
X133558714Y-94065239D01*
X133558714Y-94065239D02*
X133558714Y-94208096D01*
X133558714Y-94208096D02*
X133606333Y-94303334D01*
X133606333Y-94303334D02*
X133701571Y-94350953D01*
X133701571Y-94350953D02*
X134225380Y-94350953D01*
X134177761Y-94779525D02*
X134225380Y-94874763D01*
X134225380Y-94874763D02*
X134225380Y-95065239D01*
X134225380Y-95065239D02*
X134177761Y-95160477D01*
X134177761Y-95160477D02*
X134082523Y-95208096D01*
X134082523Y-95208096D02*
X134034904Y-95208096D01*
X134034904Y-95208096D02*
X133939666Y-95160477D01*
X133939666Y-95160477D02*
X133892047Y-95065239D01*
X133892047Y-95065239D02*
X133892047Y-94922382D01*
X133892047Y-94922382D02*
X133844428Y-94827144D01*
X133844428Y-94827144D02*
X133749190Y-94779525D01*
X133749190Y-94779525D02*
X133701571Y-94779525D01*
X133701571Y-94779525D02*
X133606333Y-94827144D01*
X133606333Y-94827144D02*
X133558714Y-94922382D01*
X133558714Y-94922382D02*
X133558714Y-95065239D01*
X133558714Y-95065239D02*
X133606333Y-95160477D01*
X134225380Y-96236668D02*
X133558714Y-96236668D01*
X133749190Y-96236668D02*
X133653952Y-96284287D01*
X133653952Y-96284287D02*
X133606333Y-96331906D01*
X133606333Y-96331906D02*
X133558714Y-96427144D01*
X133558714Y-96427144D02*
X133558714Y-96522382D01*
X134225380Y-96998573D02*
X134177761Y-96903335D01*
X134177761Y-96903335D02*
X134130142Y-96855716D01*
X134130142Y-96855716D02*
X134034904Y-96808097D01*
X134034904Y-96808097D02*
X133749190Y-96808097D01*
X133749190Y-96808097D02*
X133653952Y-96855716D01*
X133653952Y-96855716D02*
X133606333Y-96903335D01*
X133606333Y-96903335D02*
X133558714Y-96998573D01*
X133558714Y-96998573D02*
X133558714Y-97141430D01*
X133558714Y-97141430D02*
X133606333Y-97236668D01*
X133606333Y-97236668D02*
X133653952Y-97284287D01*
X133653952Y-97284287D02*
X133749190Y-97331906D01*
X133749190Y-97331906D02*
X134034904Y-97331906D01*
X134034904Y-97331906D02*
X134130142Y-97284287D01*
X134130142Y-97284287D02*
X134177761Y-97236668D01*
X134177761Y-97236668D02*
X134225380Y-97141430D01*
X134225380Y-97141430D02*
X134225380Y-96998573D01*
X134225380Y-98189049D02*
X133701571Y-98189049D01*
X133701571Y-98189049D02*
X133606333Y-98141430D01*
X133606333Y-98141430D02*
X133558714Y-98046192D01*
X133558714Y-98046192D02*
X133558714Y-97855716D01*
X133558714Y-97855716D02*
X133606333Y-97760478D01*
X134177761Y-98189049D02*
X134225380Y-98093811D01*
X134225380Y-98093811D02*
X134225380Y-97855716D01*
X134225380Y-97855716D02*
X134177761Y-97760478D01*
X134177761Y-97760478D02*
X134082523Y-97712859D01*
X134082523Y-97712859D02*
X133987285Y-97712859D01*
X133987285Y-97712859D02*
X133892047Y-97760478D01*
X133892047Y-97760478D02*
X133844428Y-97855716D01*
X133844428Y-97855716D02*
X133844428Y-98093811D01*
X133844428Y-98093811D02*
X133796809Y-98189049D01*
X134225380Y-98665240D02*
X133558714Y-98665240D01*
X133653952Y-98665240D02*
X133606333Y-98712859D01*
X133606333Y-98712859D02*
X133558714Y-98808097D01*
X133558714Y-98808097D02*
X133558714Y-98950954D01*
X133558714Y-98950954D02*
X133606333Y-99046192D01*
X133606333Y-99046192D02*
X133701571Y-99093811D01*
X133701571Y-99093811D02*
X134225380Y-99093811D01*
X133701571Y-99093811D02*
X133606333Y-99141430D01*
X133606333Y-99141430D02*
X133558714Y-99236668D01*
X133558714Y-99236668D02*
X133558714Y-99379525D01*
X133558714Y-99379525D02*
X133606333Y-99474764D01*
X133606333Y-99474764D02*
X133701571Y-99522383D01*
X133701571Y-99522383D02*
X134225380Y-99522383D01*
M02*
