%TF.GenerationSoftware,KiCad,Pcbnew,(7.0.0)*%
%TF.CreationDate,2023-08-04T20:04:38+01:00*%
%TF.ProjectId,DataIODecode,44617461-494f-4446-9563-6f64652e6b69,rev?*%
%TF.SameCoordinates,Original*%
%TF.FileFunction,Copper,L1,Top*%
%TF.FilePolarity,Positive*%
%FSLAX46Y46*%
G04 Gerber Fmt 4.6, Leading zero omitted, Abs format (unit mm)*
G04 Created by KiCad (PCBNEW (7.0.0)) date 2023-08-04 20:04:38*
%MOMM*%
%LPD*%
G01*
G04 APERTURE LIST*
G04 Aperture macros list*
%AMRoundRect*
0 Rectangle with rounded corners*
0 $1 Rounding radius*
0 $2 $3 $4 $5 $6 $7 $8 $9 X,Y pos of 4 corners*
0 Add a 4 corners polygon primitive as box body*
4,1,4,$2,$3,$4,$5,$6,$7,$8,$9,$2,$3,0*
0 Add four circle primitives for the rounded corners*
1,1,$1+$1,$2,$3*
1,1,$1+$1,$4,$5*
1,1,$1+$1,$6,$7*
1,1,$1+$1,$8,$9*
0 Add four rect primitives between the rounded corners*
20,1,$1+$1,$2,$3,$4,$5,0*
20,1,$1+$1,$4,$5,$6,$7,0*
20,1,$1+$1,$6,$7,$8,$9,0*
20,1,$1+$1,$8,$9,$2,$3,0*%
%AMFreePoly0*
4,1,28,0.437580,0.475466,0.437668,0.475471,0.437749,0.475396,0.437854,0.475354,0.437887,0.475272,0.437952,0.475214,0.662952,0.000214,0.662953,0.000188,0.662972,0.000168,0.662963,0.000000,0.662972,-0.000168,0.662953,-0.000188,0.662952,-0.000214,0.437952,-0.475214,0.437887,-0.475272,0.437854,-0.475354,0.437749,-0.475396,0.437668,-0.475471,0.437580,-0.475466,0.437500,-0.475500,
-0.462500,-0.475500,-0.462854,-0.475354,-0.463000,-0.475000,-0.463000,0.475000,-0.462854,0.475354,-0.462500,0.475500,0.437500,0.475500,0.437580,0.475466,0.437580,0.475466,$1*%
%AMFreePoly1*
4,1,45,0.592573,0.475469,0.592656,0.475476,0.592745,0.475398,0.592854,0.475354,0.592885,0.475277,0.592946,0.475225,0.832946,0.000225,0.832948,0.000187,0.832976,0.000156,0.832963,0.000000,0.832976,-0.000156,0.832948,-0.000187,0.832946,-0.000225,0.592946,-0.475225,0.592885,-0.475277,0.592854,-0.475354,0.592745,-0.475398,0.592656,-0.475476,0.592573,-0.475469,0.592500,-0.475500,
-0.837500,-0.475500,-0.837602,-0.475457,-0.837714,-0.475452,-0.837772,-0.475387,-0.837854,-0.475354,-0.837896,-0.475249,-0.837971,-0.475168,-0.837966,-0.475080,-0.838000,-0.475000,-0.837957,-0.474897,-0.837952,-0.474786,-0.613053,0.000000,-0.837952,0.474786,-0.837957,0.474897,-0.838000,0.475000,-0.837966,0.475080,-0.837971,0.475168,-0.837896,0.475249,-0.837854,0.475354,-0.837772,0.475387,
-0.837714,0.475452,-0.837602,0.475457,-0.837500,0.475500,0.592500,0.475500,0.592573,0.475469,0.592573,0.475469,$1*%
%AMFreePoly2*
4,1,30,0.437854,0.475354,0.438000,0.475000,0.438000,-0.475000,0.437854,-0.475354,0.437500,-0.475500,-0.682500,-0.475500,-0.682608,-0.475455,-0.682725,-0.475446,-0.682777,-0.475385,-0.682854,-0.475354,-0.682898,-0.475245,-0.682976,-0.475156,-0.682969,-0.475073,-0.683000,-0.475000,-0.682955,-0.474891,-0.682946,-0.474775,-0.443060,0.000000,-0.682946,0.474775,-0.682955,0.474891,-0.683000,0.475000,
-0.682969,0.475073,-0.682976,0.475156,-0.682898,0.475245,-0.682854,0.475354,-0.682777,0.475385,-0.682725,0.475446,-0.682608,0.475455,-0.682500,0.475500,0.437500,0.475500,0.437854,0.475354,0.437854,0.475354,$1*%
G04 Aperture macros list end*
%ADD10C,0.300000*%
%TA.AperFunction,NonConductor*%
%ADD11C,0.300000*%
%TD*%
%TA.AperFunction,NonConductor*%
%ADD12C,0.200000*%
%TD*%
%TA.AperFunction,SMDPad,CuDef*%
%ADD13FreePoly0,0.000000*%
%TD*%
%TA.AperFunction,SMDPad,CuDef*%
%ADD14FreePoly1,0.000000*%
%TD*%
%TA.AperFunction,SMDPad,CuDef*%
%ADD15FreePoly2,0.000000*%
%TD*%
%TA.AperFunction,SMDPad,CuDef*%
%ADD16R,0.300000X1.500000*%
%TD*%
%TA.AperFunction,SMDPad,CuDef*%
%ADD17RoundRect,0.218750X-0.218750X-0.256250X0.218750X-0.256250X0.218750X0.256250X-0.218750X0.256250X0*%
%TD*%
%TA.AperFunction,SMDPad,CuDef*%
%ADD18RoundRect,0.200000X0.200000X0.275000X-0.200000X0.275000X-0.200000X-0.275000X0.200000X-0.275000X0*%
%TD*%
%TA.AperFunction,ComponentPad*%
%ADD19R,1.600000X1.600000*%
%TD*%
%TA.AperFunction,ComponentPad*%
%ADD20O,1.600000X1.600000*%
%TD*%
%TA.AperFunction,SMDPad,CuDef*%
%ADD21RoundRect,0.225000X-0.225000X-0.250000X0.225000X-0.250000X0.225000X0.250000X-0.225000X0.250000X0*%
%TD*%
%TA.AperFunction,ViaPad*%
%ADD22C,0.800000*%
%TD*%
%TA.AperFunction,Conductor*%
%ADD23C,0.250000*%
%TD*%
G04 APERTURE END LIST*
D10*
D11*
X22143071Y-29539998D02*
X22143071Y-28611426D01*
X22143071Y-28611426D02*
X22714500Y-29111426D01*
X22714500Y-29111426D02*
X22714500Y-28897141D01*
X22714500Y-28897141D02*
X22785928Y-28754284D01*
X22785928Y-28754284D02*
X22857357Y-28682855D01*
X22857357Y-28682855D02*
X23000214Y-28611426D01*
X23000214Y-28611426D02*
X23357357Y-28611426D01*
X23357357Y-28611426D02*
X23500214Y-28682855D01*
X23500214Y-28682855D02*
X23571642Y-28754284D01*
X23571642Y-28754284D02*
X23643071Y-28897141D01*
X23643071Y-28897141D02*
X23643071Y-29325712D01*
X23643071Y-29325712D02*
X23571642Y-29468569D01*
X23571642Y-29468569D02*
X23500214Y-29539998D01*
X22143071Y-27682855D02*
X22143071Y-27539998D01*
X22143071Y-27539998D02*
X22214500Y-27397141D01*
X22214500Y-27397141D02*
X22285928Y-27325713D01*
X22285928Y-27325713D02*
X22428785Y-27254284D01*
X22428785Y-27254284D02*
X22714500Y-27182855D01*
X22714500Y-27182855D02*
X23071642Y-27182855D01*
X23071642Y-27182855D02*
X23357357Y-27254284D01*
X23357357Y-27254284D02*
X23500214Y-27325713D01*
X23500214Y-27325713D02*
X23571642Y-27397141D01*
X23571642Y-27397141D02*
X23643071Y-27539998D01*
X23643071Y-27539998D02*
X23643071Y-27682855D01*
X23643071Y-27682855D02*
X23571642Y-27825713D01*
X23571642Y-27825713D02*
X23500214Y-27897141D01*
X23500214Y-27897141D02*
X23357357Y-27968570D01*
X23357357Y-27968570D02*
X23071642Y-28039998D01*
X23071642Y-28039998D02*
X22714500Y-28039998D01*
X22714500Y-28039998D02*
X22428785Y-27968570D01*
X22428785Y-27968570D02*
X22285928Y-27897141D01*
X22285928Y-27897141D02*
X22214500Y-27825713D01*
X22214500Y-27825713D02*
X22143071Y-27682855D01*
X22143071Y-26254284D02*
X22143071Y-26111427D01*
X22143071Y-26111427D02*
X22214500Y-25968570D01*
X22214500Y-25968570D02*
X22285928Y-25897142D01*
X22285928Y-25897142D02*
X22428785Y-25825713D01*
X22428785Y-25825713D02*
X22714500Y-25754284D01*
X22714500Y-25754284D02*
X23071642Y-25754284D01*
X23071642Y-25754284D02*
X23357357Y-25825713D01*
X23357357Y-25825713D02*
X23500214Y-25897142D01*
X23500214Y-25897142D02*
X23571642Y-25968570D01*
X23571642Y-25968570D02*
X23643071Y-26111427D01*
X23643071Y-26111427D02*
X23643071Y-26254284D01*
X23643071Y-26254284D02*
X23571642Y-26397142D01*
X23571642Y-26397142D02*
X23500214Y-26468570D01*
X23500214Y-26468570D02*
X23357357Y-26539999D01*
X23357357Y-26539999D02*
X23071642Y-26611427D01*
X23071642Y-26611427D02*
X22714500Y-26611427D01*
X22714500Y-26611427D02*
X22428785Y-26539999D01*
X22428785Y-26539999D02*
X22285928Y-26468570D01*
X22285928Y-26468570D02*
X22214500Y-26397142D01*
X22214500Y-26397142D02*
X22143071Y-26254284D01*
X23500214Y-25111428D02*
X23571642Y-25039999D01*
X23571642Y-25039999D02*
X23643071Y-25111428D01*
X23643071Y-25111428D02*
X23571642Y-25182856D01*
X23571642Y-25182856D02*
X23500214Y-25111428D01*
X23500214Y-25111428D02*
X23643071Y-25111428D01*
X22143071Y-24111427D02*
X22143071Y-23968570D01*
X22143071Y-23968570D02*
X22214500Y-23825713D01*
X22214500Y-23825713D02*
X22285928Y-23754285D01*
X22285928Y-23754285D02*
X22428785Y-23682856D01*
X22428785Y-23682856D02*
X22714500Y-23611427D01*
X22714500Y-23611427D02*
X23071642Y-23611427D01*
X23071642Y-23611427D02*
X23357357Y-23682856D01*
X23357357Y-23682856D02*
X23500214Y-23754285D01*
X23500214Y-23754285D02*
X23571642Y-23825713D01*
X23571642Y-23825713D02*
X23643071Y-23968570D01*
X23643071Y-23968570D02*
X23643071Y-24111427D01*
X23643071Y-24111427D02*
X23571642Y-24254285D01*
X23571642Y-24254285D02*
X23500214Y-24325713D01*
X23500214Y-24325713D02*
X23357357Y-24397142D01*
X23357357Y-24397142D02*
X23071642Y-24468570D01*
X23071642Y-24468570D02*
X22714500Y-24468570D01*
X22714500Y-24468570D02*
X22428785Y-24397142D01*
X22428785Y-24397142D02*
X22285928Y-24325713D01*
X22285928Y-24325713D02*
X22214500Y-24254285D01*
X22214500Y-24254285D02*
X22143071Y-24111427D01*
X22143071Y-22682856D02*
X22143071Y-22539999D01*
X22143071Y-22539999D02*
X22214500Y-22397142D01*
X22214500Y-22397142D02*
X22285928Y-22325714D01*
X22285928Y-22325714D02*
X22428785Y-22254285D01*
X22428785Y-22254285D02*
X22714500Y-22182856D01*
X22714500Y-22182856D02*
X23071642Y-22182856D01*
X23071642Y-22182856D02*
X23357357Y-22254285D01*
X23357357Y-22254285D02*
X23500214Y-22325714D01*
X23500214Y-22325714D02*
X23571642Y-22397142D01*
X23571642Y-22397142D02*
X23643071Y-22539999D01*
X23643071Y-22539999D02*
X23643071Y-22682856D01*
X23643071Y-22682856D02*
X23571642Y-22825714D01*
X23571642Y-22825714D02*
X23500214Y-22897142D01*
X23500214Y-22897142D02*
X23357357Y-22968571D01*
X23357357Y-22968571D02*
X23071642Y-23039999D01*
X23071642Y-23039999D02*
X22714500Y-23039999D01*
X22714500Y-23039999D02*
X22428785Y-22968571D01*
X22428785Y-22968571D02*
X22285928Y-22897142D01*
X22285928Y-22897142D02*
X22214500Y-22825714D01*
X22214500Y-22825714D02*
X22143071Y-22682856D01*
X22143071Y-21254285D02*
X22143071Y-21111428D01*
X22143071Y-21111428D02*
X22214500Y-20968571D01*
X22214500Y-20968571D02*
X22285928Y-20897143D01*
X22285928Y-20897143D02*
X22428785Y-20825714D01*
X22428785Y-20825714D02*
X22714500Y-20754285D01*
X22714500Y-20754285D02*
X23071642Y-20754285D01*
X23071642Y-20754285D02*
X23357357Y-20825714D01*
X23357357Y-20825714D02*
X23500214Y-20897143D01*
X23500214Y-20897143D02*
X23571642Y-20968571D01*
X23571642Y-20968571D02*
X23643071Y-21111428D01*
X23643071Y-21111428D02*
X23643071Y-21254285D01*
X23643071Y-21254285D02*
X23571642Y-21397143D01*
X23571642Y-21397143D02*
X23500214Y-21468571D01*
X23500214Y-21468571D02*
X23357357Y-21540000D01*
X23357357Y-21540000D02*
X23071642Y-21611428D01*
X23071642Y-21611428D02*
X22714500Y-21611428D01*
X22714500Y-21611428D02*
X22428785Y-21540000D01*
X22428785Y-21540000D02*
X22285928Y-21468571D01*
X22285928Y-21468571D02*
X22214500Y-21397143D01*
X22214500Y-21397143D02*
X22143071Y-21254285D01*
X22143071Y-19825714D02*
X22143071Y-19682857D01*
X22143071Y-19682857D02*
X22214500Y-19540000D01*
X22214500Y-19540000D02*
X22285928Y-19468572D01*
X22285928Y-19468572D02*
X22428785Y-19397143D01*
X22428785Y-19397143D02*
X22714500Y-19325714D01*
X22714500Y-19325714D02*
X23071642Y-19325714D01*
X23071642Y-19325714D02*
X23357357Y-19397143D01*
X23357357Y-19397143D02*
X23500214Y-19468572D01*
X23500214Y-19468572D02*
X23571642Y-19540000D01*
X23571642Y-19540000D02*
X23643071Y-19682857D01*
X23643071Y-19682857D02*
X23643071Y-19825714D01*
X23643071Y-19825714D02*
X23571642Y-19968572D01*
X23571642Y-19968572D02*
X23500214Y-20040000D01*
X23500214Y-20040000D02*
X23357357Y-20111429D01*
X23357357Y-20111429D02*
X23071642Y-20182857D01*
X23071642Y-20182857D02*
X22714500Y-20182857D01*
X22714500Y-20182857D02*
X22428785Y-20111429D01*
X22428785Y-20111429D02*
X22285928Y-20040000D01*
X22285928Y-20040000D02*
X22214500Y-19968572D01*
X22214500Y-19968572D02*
X22143071Y-19825714D01*
X23643071Y-17782858D02*
X22643071Y-17782858D01*
X22785928Y-17782858D02*
X22714500Y-17711429D01*
X22714500Y-17711429D02*
X22643071Y-17568572D01*
X22643071Y-17568572D02*
X22643071Y-17354286D01*
X22643071Y-17354286D02*
X22714500Y-17211429D01*
X22714500Y-17211429D02*
X22857357Y-17140001D01*
X22857357Y-17140001D02*
X23643071Y-17140001D01*
X22857357Y-17140001D02*
X22714500Y-17068572D01*
X22714500Y-17068572D02*
X22643071Y-16925715D01*
X22643071Y-16925715D02*
X22643071Y-16711429D01*
X22643071Y-16711429D02*
X22714500Y-16568572D01*
X22714500Y-16568572D02*
X22857357Y-16497143D01*
X22857357Y-16497143D02*
X23643071Y-16497143D01*
X23643071Y-15782858D02*
X22643071Y-15782858D01*
X22143071Y-15782858D02*
X22214500Y-15854286D01*
X22214500Y-15854286D02*
X22285928Y-15782858D01*
X22285928Y-15782858D02*
X22214500Y-15711429D01*
X22214500Y-15711429D02*
X22143071Y-15782858D01*
X22143071Y-15782858D02*
X22285928Y-15782858D01*
X23643071Y-14854286D02*
X23571642Y-14997143D01*
X23571642Y-14997143D02*
X23428785Y-15068572D01*
X23428785Y-15068572D02*
X22143071Y-15068572D01*
X23571642Y-14354286D02*
X23643071Y-14211429D01*
X23643071Y-14211429D02*
X23643071Y-13925715D01*
X23643071Y-13925715D02*
X23571642Y-13782858D01*
X23571642Y-13782858D02*
X23428785Y-13711429D01*
X23428785Y-13711429D02*
X23357357Y-13711429D01*
X23357357Y-13711429D02*
X23214500Y-13782858D01*
X23214500Y-13782858D02*
X23143071Y-13925715D01*
X23143071Y-13925715D02*
X23143071Y-14140001D01*
X23143071Y-14140001D02*
X23071642Y-14282858D01*
X23071642Y-14282858D02*
X22928785Y-14354286D01*
X22928785Y-14354286D02*
X22857357Y-14354286D01*
X22857357Y-14354286D02*
X22714500Y-14282858D01*
X22714500Y-14282858D02*
X22643071Y-14140001D01*
X22643071Y-14140001D02*
X22643071Y-13925715D01*
X22643071Y-13925715D02*
X22714500Y-13782858D01*
D12*
X8120000Y-17780000D02*
X25478420Y-17780000D01*
X8120000Y-25400000D02*
X25478420Y-25400000D01*
X24892000Y-17780000D02*
X24892000Y-25400000D01*
X24892000Y-17780000D02*
X24892000Y-25400000D01*
X24892000Y-17780000D02*
X25478421Y-18906504D01*
X24892000Y-17780000D02*
X24305579Y-18906504D01*
X24892000Y-25400000D02*
X24305579Y-24273496D01*
X24892000Y-25400000D02*
X25478421Y-24273496D01*
D13*
%TO.P,J3,1,Pin_1*%
%TO.N,+5V*%
X136574300Y-109304666D03*
D14*
%TO.P,J3,2,Pin_2*%
%TO.N,BANK2*%
X138149300Y-109304666D03*
D15*
%TO.P,J3,3,Pin_3*%
%TO.N,GND*%
X139724300Y-109304666D03*
%TD*%
D13*
%TO.P,J2,1,Pin_1*%
%TO.N,+5V*%
X136574300Y-112183332D03*
D14*
%TO.P,J2,2,Pin_2*%
%TO.N,BANK1*%
X138149300Y-112183332D03*
D15*
%TO.P,J2,3,Pin_3*%
%TO.N,GND*%
X139724300Y-112183332D03*
%TD*%
D16*
%TO.P,U1,1,A11*%
%TO.N,A11*%
X142687999Y-87741999D03*
%TO.P,U1,2,A9*%
%TO.N,A9*%
X142187999Y-87741999D03*
%TO.P,U1,3,A8*%
%TO.N,A8*%
X141687999Y-87741999D03*
%TO.P,U1,4,A13*%
%TO.N,A13*%
X141187999Y-87741999D03*
%TO.P,U1,5,A14*%
%TO.N,A14*%
X140687999Y-87741999D03*
%TO.P,U1,6,A17*%
%TO.N,GND*%
X140187999Y-87741999D03*
%TO.P,U1,7,PGM*%
%TO.N,+5V*%
X139687999Y-87741999D03*
%TO.P,U1,8,VCC*%
X139187999Y-87741999D03*
%TO.P,U1,9,A18*%
%TO.N,GND*%
X138687999Y-87741999D03*
%TO.P,U1,10,A16*%
%TO.N,RnW*%
X138187999Y-87741999D03*
%TO.P,U1,11,A15*%
%TO.N,A15*%
X137687999Y-87741999D03*
%TO.P,U1,12,A12*%
%TO.N,A12*%
X137187999Y-87741999D03*
%TO.P,U1,13,A7*%
%TO.N,A7*%
X136687999Y-87741999D03*
%TO.P,U1,14,A6*%
%TO.N,A6*%
X136187999Y-87741999D03*
%TO.P,U1,15,A5*%
%TO.N,A5*%
X135687999Y-87741999D03*
%TO.P,U1,16,A4*%
%TO.N,A4*%
X135187999Y-87741999D03*
%TO.P,U1,17,A3*%
%TO.N,BANK3*%
X135187999Y-101741999D03*
%TO.P,U1,18,A2*%
%TO.N,BANK2*%
X135687999Y-101741999D03*
%TO.P,U1,19,A1*%
%TO.N,BANK1*%
X136187999Y-101741999D03*
%TO.P,U1,20,A0*%
%TO.N,BANK0*%
X136687999Y-101741999D03*
%TO.P,U1,21,D0*%
%TO.N,U14_O1*%
X137187999Y-101741999D03*
%TO.P,U1,22,D1*%
%TO.N,U14_O2*%
X137687999Y-101741999D03*
%TO.P,U1,23,D2*%
%TO.N,U14_O3*%
X138187999Y-101741999D03*
%TO.P,U1,24,GND*%
%TO.N,GND*%
X138687999Y-101741999D03*
%TO.P,U1,25,D3*%
%TO.N,U14_O4*%
X139187999Y-101741999D03*
%TO.P,U1,26,D4*%
%TO.N,U19_O1*%
X139687999Y-101741999D03*
%TO.P,U1,27,D5*%
%TO.N,U19_O2*%
X140187999Y-101741999D03*
%TO.P,U1,28,D6*%
%TO.N,U19_O3*%
X140687999Y-101741999D03*
%TO.P,U1,29,D7*%
%TO.N,U19_O4*%
X141187999Y-101741999D03*
%TO.P,U1,30,CE*%
%TO.N,GND*%
X141687999Y-101741999D03*
%TO.P,U1,31,A10*%
%TO.N,A10*%
X142187999Y-101741999D03*
%TO.P,U1,32,OE*%
%TO.N,GND*%
X142687999Y-101741999D03*
%TD*%
D13*
%TO.P,J4,1,Pin_1*%
%TO.N,+5V*%
X136574300Y-106426000D03*
D14*
%TO.P,J4,2,Pin_2*%
%TO.N,BANK3*%
X138149300Y-106426000D03*
D15*
%TO.P,J4,3,Pin_3*%
%TO.N,GND*%
X139724300Y-106426000D03*
%TD*%
D17*
%TO.P,D1,1,K*%
%TO.N,Net-(D1-K)*%
X148970900Y-93218000D03*
%TO.P,D1,2,A*%
%TO.N,+5V*%
X150545900Y-93218000D03*
%TD*%
D13*
%TO.P,J1,1,Pin_1*%
%TO.N,+5V*%
X136574300Y-115062000D03*
D14*
%TO.P,J1,2,Pin_2*%
%TO.N,BANK0*%
X138149300Y-115062000D03*
D15*
%TO.P,J1,3,Pin_3*%
%TO.N,GND*%
X139724300Y-115062000D03*
%TD*%
D18*
%TO.P,R1,1*%
%TO.N,Net-(D1-K)*%
X150634200Y-95250000D03*
%TO.P,R1,2*%
%TO.N,GND*%
X148984200Y-95250000D03*
%TD*%
D19*
%TO.P,J19,1,Pin_1*%
%TO.N,A14*%
X145541999Y-98043999D03*
D20*
%TO.P,J19,2,Pin_2*%
%TO.N,A13*%
X145541999Y-100583999D03*
%TO.P,J19,3,Pin_3*%
%TO.N,A12*%
X145541999Y-103123999D03*
%TO.P,J19,4,Pin_4*%
%TO.N,A11*%
X145541999Y-105663999D03*
%TO.P,J19,5,Pin_5*%
%TO.N,A8*%
X145541999Y-108203999D03*
%TO.P,J19,6,Pin_6*%
%TO.N,A9*%
X145541999Y-110743999D03*
%TO.P,J19,7,Pin_7*%
%TO.N,A10*%
X145541999Y-113283999D03*
%TO.P,J19,8,Pin_8*%
%TO.N,GND*%
X145541999Y-115823999D03*
%TO.P,J19,9,Pin_9*%
%TO.N,U19_O4*%
X153161999Y-115823999D03*
%TO.P,J19,10,Pin_10*%
%TO.N,U19_O3*%
X153161999Y-113283999D03*
%TO.P,J19,11,Pin_11*%
%TO.N,U19_O2*%
X153161999Y-110743999D03*
%TO.P,J19,12,Pin_12*%
%TO.N,U19_O1*%
X153161999Y-108203999D03*
%TO.P,J19,13,Pin_13*%
%TO.N,GND*%
X153161999Y-105663999D03*
%TO.P,J19,14,Pin_14*%
%TO.N,RnW*%
X153161999Y-103123999D03*
%TO.P,J19,15,Pin_15*%
%TO.N,A15*%
X153161999Y-100583999D03*
%TO.P,J19,16,Pin_16*%
%TO.N,+5V*%
X153161999Y-98043999D03*
%TD*%
D21*
%TO.P,C1,1*%
%TO.N,+5V*%
X138671000Y-83820000D03*
%TO.P,C1,2*%
%TO.N,GND*%
X140221000Y-83820000D03*
%TD*%
D19*
%TO.P,J14,1,Pin_1*%
%TO.N,U19_O3*%
X145541999Y-72643999D03*
D20*
%TO.P,J14,2,Pin_2*%
%TO.N,U19_O2*%
X145541999Y-75183999D03*
%TO.P,J14,3,Pin_3*%
%TO.N,U19_O1*%
X145541999Y-77723999D03*
%TO.P,J14,4,Pin_4*%
%TO.N,A7*%
X145541999Y-80263999D03*
%TO.P,J14,5,Pin_5*%
%TO.N,A4*%
X145541999Y-82803999D03*
%TO.P,J14,6,Pin_6*%
%TO.N,A5*%
X145541999Y-85343999D03*
%TO.P,J14,7,Pin_7*%
%TO.N,A6*%
X145541999Y-87883999D03*
%TO.P,J14,8,Pin_8*%
%TO.N,GND*%
X145541999Y-90423999D03*
%TO.P,J14,9,Pin_9*%
%TO.N,U14_O4*%
X153161999Y-90423999D03*
%TO.P,J14,10,Pin_10*%
%TO.N,U14_O3*%
X153161999Y-87883999D03*
%TO.P,J14,11,Pin_11*%
%TO.N,U14_O2*%
X153161999Y-85343999D03*
%TO.P,J14,12,Pin_12*%
%TO.N,U14_O1*%
X153161999Y-82803999D03*
%TO.P,J14,13,Pin_13*%
%TO.N,GND*%
X153161999Y-80263999D03*
%TO.P,J14,14,Pin_14*%
X153161999Y-77723999D03*
%TO.P,J14,15,Pin_15*%
%TO.N,U19_O4*%
X153161999Y-75183999D03*
%TO.P,J14,16,Pin_16*%
%TO.N,+5V*%
X153161999Y-72643999D03*
%TD*%
D22*
%TO.N,+5V*%
X139154400Y-86136900D03*
X136652000Y-105156000D03*
%TO.N,BANK0*%
X134366000Y-113792000D03*
X138176000Y-113792000D03*
%TO.N,BANK1*%
X138176000Y-110744000D03*
X134366000Y-110744000D03*
%TO.N,BANK2*%
X138176000Y-107950000D03*
X135128000Y-107696000D03*
%TO.N,BANK3*%
X134963500Y-104431500D03*
X138176000Y-104394000D03*
%TO.N,A14*%
X140825900Y-93904600D03*
%TO.N,A13*%
X141881500Y-94329900D03*
%TO.N,A12*%
X140122606Y-95453106D03*
%TO.N,A11*%
X143052651Y-93158751D03*
%TO.N,A8*%
X141688000Y-91205600D03*
%TO.N,A9*%
X141751100Y-92207900D03*
%TO.N,RnW*%
X139718900Y-90348200D03*
%TO.N,A15*%
X137909200Y-89617900D03*
%TD*%
D23*
%TO.N,+5V*%
X136574300Y-105233700D02*
X136652000Y-105156000D01*
X153162000Y-95834100D02*
X150545900Y-93218000D01*
X139188000Y-86170500D02*
X139188000Y-87742000D01*
X138671000Y-83820000D02*
X139154400Y-84303400D01*
X139154400Y-86136900D02*
X139188000Y-86170500D01*
X136574300Y-112183332D02*
X136574300Y-115062000D01*
X136574300Y-106426000D02*
X136574300Y-109304666D01*
X136574300Y-109304666D02*
X136574300Y-112183332D01*
X136574300Y-106426000D02*
X136574300Y-105233700D01*
X139154400Y-84303400D02*
X139154400Y-86136900D01*
X139688000Y-87742000D02*
X139188000Y-87742000D01*
X153162000Y-98044000D02*
X153162000Y-95834100D01*
%TO.N,GND*%
X142976500Y-86659400D02*
X140188000Y-86659400D01*
X141688000Y-101742000D02*
X141688000Y-100666700D01*
X138688000Y-88628900D02*
X138688000Y-87742000D01*
X140221000Y-83820000D02*
X140188000Y-83853000D01*
X138688000Y-101742000D02*
X138688000Y-102817300D01*
X153162000Y-80264000D02*
X150622000Y-80264000D01*
X138876400Y-88817300D02*
X138688000Y-88628900D01*
X143303500Y-88439500D02*
X143303500Y-86986400D01*
X140188000Y-88817300D02*
X138876400Y-88817300D01*
X149098000Y-87630000D02*
X145923000Y-90805000D01*
X139724300Y-106426000D02*
X139724300Y-102841600D01*
X139700000Y-102817300D02*
X141688000Y-102817300D01*
X140462000Y-115824000D02*
X139700000Y-115062000D01*
X145923000Y-90805000D02*
X145542000Y-90424000D01*
X150622000Y-80264000D02*
X149098000Y-81788000D01*
X139724300Y-112183332D02*
X139724300Y-109304666D01*
X138688000Y-102817300D02*
X139700000Y-102817300D01*
X153162000Y-80264000D02*
X153162000Y-77724000D01*
X142688000Y-101742000D02*
X142688000Y-100791700D01*
X153162000Y-105664000D02*
X148984200Y-101486200D01*
X145542000Y-115824000D02*
X140462000Y-115824000D01*
X145288000Y-90424000D02*
X143303500Y-88439500D01*
X142688000Y-100791700D02*
X142563000Y-100666700D01*
X141688000Y-101742000D02*
X141688000Y-102817300D01*
X139724300Y-115062000D02*
X139724300Y-112183332D01*
X140188000Y-83853000D02*
X140188000Y-86659400D01*
X142563000Y-100666700D02*
X141688000Y-100666700D01*
X140188000Y-86659400D02*
X140188000Y-87742000D01*
X139724300Y-102841600D02*
X139700000Y-102817300D01*
X140188000Y-87742000D02*
X140188000Y-88817300D01*
X148984200Y-101486200D02*
X148984200Y-95250000D01*
X143303500Y-86986400D02*
X142976500Y-86659400D01*
X139724300Y-109304666D02*
X139724300Y-106426000D01*
X149098000Y-81788000D02*
X149098000Y-87630000D01*
X145542000Y-90424000D02*
X145288000Y-90424000D01*
%TO.N,Net-(D1-K)*%
X148970900Y-93586700D02*
X150634200Y-95250000D01*
X148970900Y-93218000D02*
X148970900Y-93586700D01*
%TO.N,BANK0*%
X136688000Y-101742000D02*
X136688000Y-100112000D01*
X135382000Y-98806000D02*
X133350000Y-98806000D01*
X138149300Y-115062000D02*
X138149300Y-113818700D01*
X138149300Y-113818700D02*
X138176000Y-113792000D01*
X133350000Y-98806000D02*
X133350000Y-112268000D01*
X133350000Y-112268000D02*
X134366000Y-113284000D01*
X134366000Y-113284000D02*
X134366000Y-113792000D01*
X136688000Y-100112000D02*
X135382000Y-98806000D01*
%TO.N,BANK1*%
X136188000Y-101742000D02*
X136188000Y-100374000D01*
X135382000Y-99568000D02*
X134112000Y-99568000D01*
X138149300Y-112183332D02*
X138149300Y-110770700D01*
X134112000Y-99568000D02*
X134112000Y-110490000D01*
X134112000Y-110490000D02*
X134366000Y-110744000D01*
X136188000Y-100374000D02*
X135382000Y-99568000D01*
X138149300Y-110770700D02*
X138176000Y-110744000D01*
%TO.N,BANK2*%
X134874000Y-107442000D02*
X135128000Y-107696000D01*
X135688000Y-104850000D02*
X134874000Y-105664000D01*
X134874000Y-105664000D02*
X134874000Y-107442000D01*
X138176000Y-109277966D02*
X138149300Y-109304666D01*
X138176000Y-107950000D02*
X138176000Y-109277966D01*
X135688000Y-101742000D02*
X135688000Y-104850000D01*
%TO.N,BANK3*%
X138176000Y-104394000D02*
X138176000Y-106399300D01*
X135188000Y-104207000D02*
X134963500Y-104431500D01*
X138176000Y-106399300D02*
X138149300Y-106426000D01*
X135188000Y-101742000D02*
X135188000Y-104207000D01*
%TO.N,U19_O3*%
X141242600Y-99763600D02*
X140688000Y-100318200D01*
X140688000Y-100318200D02*
X140688000Y-101742000D01*
X144272000Y-104394000D02*
X143818600Y-103940600D01*
X142954900Y-99763600D02*
X141242600Y-99763600D01*
X143818600Y-100627300D02*
X142954900Y-99763600D01*
X148336000Y-108458000D02*
X148336000Y-105410000D01*
X147320000Y-104394000D02*
X144272000Y-104394000D01*
X143818600Y-103940600D02*
X143818600Y-100627300D01*
X153162000Y-113284000D02*
X148336000Y-108458000D01*
X148336000Y-105410000D02*
X147320000Y-104394000D01*
%TO.N,U19_O2*%
X149098000Y-107696000D02*
X149098000Y-103124000D01*
X152146000Y-110744000D02*
X149098000Y-107696000D01*
X153162000Y-110744000D02*
X152146000Y-110744000D01*
X144268900Y-101342900D02*
X144268900Y-100440700D01*
X140188000Y-100178200D02*
X140188000Y-101742000D01*
X144268900Y-100440700D02*
X143141500Y-99313300D01*
X143141500Y-99313300D02*
X141052900Y-99313300D01*
X149098000Y-103124000D02*
X147828000Y-101854000D01*
X147828000Y-101854000D02*
X144780000Y-101854000D01*
X141052900Y-99313300D02*
X140188000Y-100178200D01*
X144780000Y-101854000D02*
X144268900Y-101342900D01*
%TO.N,U19_O1*%
X149547501Y-102937811D02*
X145896990Y-99287300D01*
X145896990Y-99287300D02*
X143752400Y-99287300D01*
X140864500Y-98863000D02*
X139688000Y-100039500D01*
X143328100Y-98863000D02*
X140864500Y-98863000D01*
X143752400Y-99287300D02*
X143328100Y-98863000D01*
X149547501Y-104589501D02*
X149547501Y-102937811D01*
X153162000Y-108204000D02*
X149547501Y-104589501D01*
X139688000Y-100039500D02*
X139688000Y-101742000D01*
%TO.N,A7*%
X134712600Y-88628900D02*
X134901000Y-88817300D01*
X136688000Y-88742000D02*
X136688000Y-87742000D01*
X134901000Y-88817300D02*
X136612700Y-88817300D01*
X134712600Y-83344330D02*
X134712600Y-88628900D01*
X137792930Y-80264000D02*
X134712600Y-83344330D01*
X145542000Y-80264000D02*
X137792930Y-80264000D01*
X136612700Y-88817300D02*
X136688000Y-88742000D01*
%TO.N,A4*%
X135188000Y-87742000D02*
X135188000Y-83504620D01*
X135188000Y-83504620D02*
X137803622Y-80888998D01*
X137803622Y-80888998D02*
X143626998Y-80888998D01*
X143626998Y-80888998D02*
X145542000Y-82804000D01*
%TO.N,A5*%
X141536499Y-81338499D02*
X137989811Y-81338499D01*
X135688000Y-83640310D02*
X135688000Y-87742000D01*
X137989811Y-81338499D02*
X135688000Y-83640310D01*
X145542000Y-85344000D02*
X141536499Y-81338499D01*
%TO.N,A6*%
X145542000Y-87884000D02*
X144562000Y-87884000D01*
X144562000Y-87884000D02*
X144018000Y-87340000D01*
X136188000Y-83776000D02*
X136188000Y-87742000D01*
X140208000Y-81788000D02*
X138176000Y-81788000D01*
X144018000Y-87340000D02*
X144018000Y-85598000D01*
X138176000Y-81788000D02*
X136188000Y-83776000D01*
X144018000Y-85598000D02*
X140208000Y-81788000D01*
%TO.N,U14_O4*%
X149481071Y-90424000D02*
X141680271Y-98224800D01*
X141680271Y-98224800D02*
X140828500Y-98224800D01*
X153162000Y-90424000D02*
X149481071Y-90424000D01*
X139188000Y-99865300D02*
X139188000Y-101742000D01*
X140828500Y-98224800D02*
X139188000Y-99865300D01*
%TO.N,U14_O3*%
X140889700Y-97526600D02*
X141742780Y-97526600D01*
X151385381Y-87884000D02*
X153162000Y-87884000D01*
X138188000Y-100228300D02*
X140889700Y-97526600D01*
X141742780Y-97526600D02*
X151385381Y-87884000D01*
X138188000Y-101742000D02*
X138188000Y-100228300D01*
%TO.N,U14_O2*%
X153162000Y-85344000D02*
X153162000Y-85471690D01*
X153162000Y-85471690D02*
X141666678Y-96967012D01*
X141666678Y-96967012D02*
X140748188Y-96967012D01*
X137688000Y-100027200D02*
X137688000Y-101742000D01*
X140748188Y-96967012D02*
X137688000Y-100027200D01*
%TO.N,U14_O1*%
X149548000Y-84640000D02*
X149548000Y-88450000D01*
X141480489Y-96517511D02*
X140336799Y-96517511D01*
X149548000Y-88450000D02*
X141480489Y-96517511D01*
X137188000Y-99666310D02*
X137188000Y-101742000D01*
X151384000Y-82804000D02*
X149548000Y-84640000D01*
X140336799Y-96517511D02*
X137188000Y-99666310D01*
X153162000Y-82804000D02*
X151384000Y-82804000D01*
%TO.N,U19_O4*%
X153162000Y-76309300D02*
X153162000Y-75184000D01*
X145934100Y-106934000D02*
X145175300Y-106934000D01*
X154786900Y-114961100D02*
X154786900Y-77652900D01*
X143209300Y-104968000D02*
X143209300Y-100654900D01*
X153443300Y-76309300D02*
X153162000Y-76309300D01*
X153162000Y-115824000D02*
X153924000Y-115824000D01*
X150876000Y-115824000D02*
X148336000Y-113284000D01*
X154786900Y-77652900D02*
X153443300Y-76309300D01*
X153924000Y-115824000D02*
X154786900Y-114961100D01*
X148336000Y-109335900D02*
X145934100Y-106934000D01*
X143209300Y-100654900D02*
X142768300Y-100213900D01*
X152599300Y-115824000D02*
X150876000Y-115824000D01*
X153162000Y-115261300D02*
X152599300Y-115824000D01*
X141501200Y-100213900D02*
X141188000Y-100527100D01*
X141188000Y-100527100D02*
X141188000Y-101742000D01*
X148336000Y-113284000D02*
X148336000Y-109335900D01*
X153162000Y-115824000D02*
X153162000Y-115261300D01*
X145175300Y-106934000D02*
X143209300Y-104968000D01*
X142768300Y-100213900D02*
X141501200Y-100213900D01*
%TO.N,A14*%
X140510800Y-90415500D02*
X140510800Y-93589500D01*
X140510800Y-93589500D02*
X140825900Y-93904600D01*
X140688000Y-90238300D02*
X140510800Y-90415500D01*
X140688000Y-87742000D02*
X140688000Y-90238300D01*
%TO.N,A13*%
X141188000Y-90679000D02*
X140961100Y-90905900D01*
X141881500Y-93616100D02*
X141881500Y-94329900D01*
X140961100Y-92695700D02*
X141881500Y-93616100D01*
X141188000Y-87742000D02*
X141188000Y-90679000D01*
X140961100Y-90905900D02*
X140961100Y-92695700D01*
%TO.N,A12*%
X137188000Y-87742000D02*
X137188000Y-88817300D01*
X137188000Y-88817300D02*
X137163400Y-88841900D01*
X137163400Y-92493900D02*
X140122606Y-95453106D01*
X137163400Y-88841900D02*
X137163400Y-92493900D01*
%TO.N,A11*%
X142688000Y-88817300D02*
X143211200Y-89340500D01*
X143211200Y-93000202D02*
X143052651Y-93158751D01*
X143211200Y-89340500D02*
X143211200Y-93000202D01*
X142688000Y-87742000D02*
X142688000Y-88817300D01*
%TO.N,A8*%
X141688000Y-87742000D02*
X141688000Y-91205600D01*
%TO.N,A9*%
X142450100Y-89926600D02*
X142188000Y-89664500D01*
X142450100Y-91508900D02*
X142450100Y-89926600D01*
X142188000Y-89664500D02*
X142188000Y-87742000D01*
X141751100Y-92207900D02*
X142450100Y-91508900D01*
%TO.N,A10*%
X142188000Y-103401810D02*
X142188000Y-101742000D01*
X142435501Y-103649311D02*
X142188000Y-103401810D01*
X145542000Y-113284000D02*
X142435501Y-110177501D01*
X142435501Y-110177501D02*
X142435501Y-103649311D01*
%TO.N,RnW*%
X138188000Y-87742000D02*
X138188000Y-88817300D01*
X138188000Y-88817300D02*
X139718900Y-90348200D01*
%TO.N,A15*%
X137688000Y-87742000D02*
X137688000Y-89396700D01*
X137688000Y-89396700D02*
X137909200Y-89617900D01*
%TD*%
%TA.AperFunction,Conductor*%
%TO.N,GND*%
G36*
X147981785Y-92955805D02*
G01*
X148019385Y-92999828D01*
X148032900Y-93056123D01*
X148032900Y-93522174D01*
X148033218Y-93525288D01*
X148033219Y-93525305D01*
X148042275Y-93613947D01*
X148042276Y-93613952D01*
X148042964Y-93620685D01*
X148045093Y-93627112D01*
X148045094Y-93627113D01*
X148086990Y-93753548D01*
X148095851Y-93780287D01*
X148099642Y-93786434D01*
X148099643Y-93786435D01*
X148172528Y-93904600D01*
X148184119Y-93923391D01*
X148303009Y-94042281D01*
X148446113Y-94130549D01*
X148452173Y-94132557D01*
X148502245Y-94175294D01*
X148523311Y-94238047D01*
X148509092Y-94302696D01*
X148463640Y-94350819D01*
X148355743Y-94416045D01*
X148344022Y-94425228D01*
X148234428Y-94534822D01*
X148225245Y-94546543D01*
X148145064Y-94679179D01*
X148138948Y-94692767D01*
X148092561Y-94841627D01*
X148090015Y-94854431D01*
X148084455Y-94915615D01*
X148084200Y-94921244D01*
X148084200Y-94983674D01*
X148087650Y-94996549D01*
X148100526Y-95000000D01*
X149110200Y-95000000D01*
X149172200Y-95016613D01*
X149217587Y-95062000D01*
X149234200Y-95124000D01*
X149234200Y-96208673D01*
X149237650Y-96221548D01*
X149248056Y-96224337D01*
X149304770Y-96219184D01*
X149317569Y-96216638D01*
X149466432Y-96170251D01*
X149480020Y-96164135D01*
X149612656Y-96083954D01*
X149624377Y-96074771D01*
X149721165Y-95977984D01*
X149776752Y-95945890D01*
X149840940Y-95945890D01*
X149896527Y-95977984D01*
X149999015Y-96080472D01*
X150144594Y-96168478D01*
X150264059Y-96205704D01*
X150300742Y-96217135D01*
X150300744Y-96217135D01*
X150307004Y-96219086D01*
X150377584Y-96225500D01*
X150887997Y-96225500D01*
X150890816Y-96225500D01*
X150961396Y-96219086D01*
X151123806Y-96168478D01*
X151269385Y-96080472D01*
X151389672Y-95960185D01*
X151477678Y-95814606D01*
X151528286Y-95652196D01*
X151534700Y-95581616D01*
X151534700Y-95390753D01*
X151548215Y-95334458D01*
X151585815Y-95290435D01*
X151639302Y-95268280D01*
X151697018Y-95272822D01*
X151746381Y-95303072D01*
X152500181Y-96056872D01*
X152527061Y-96097100D01*
X152536500Y-96144553D01*
X152536500Y-96829812D01*
X152522489Y-96887069D01*
X152483623Y-96931387D01*
X152327296Y-97040847D01*
X152327291Y-97040850D01*
X152322861Y-97043953D01*
X152319037Y-97047776D01*
X152319031Y-97047782D01*
X152165782Y-97201031D01*
X152165776Y-97201037D01*
X152161953Y-97204861D01*
X152158850Y-97209291D01*
X152158847Y-97209296D01*
X152034540Y-97386826D01*
X152034535Y-97386833D01*
X152031432Y-97391266D01*
X152029144Y-97396172D01*
X152029142Y-97396176D01*
X151937550Y-97592594D01*
X151937547Y-97592599D01*
X151935261Y-97597504D01*
X151933862Y-97602724D01*
X151933858Y-97602736D01*
X151877764Y-97812083D01*
X151877762Y-97812094D01*
X151876365Y-97817308D01*
X151856532Y-98044000D01*
X151857004Y-98049395D01*
X151875720Y-98263327D01*
X151876365Y-98270692D01*
X151877762Y-98275907D01*
X151877764Y-98275916D01*
X151933858Y-98485263D01*
X151933861Y-98485271D01*
X151935261Y-98490496D01*
X152031432Y-98696734D01*
X152034539Y-98701171D01*
X152034540Y-98701173D01*
X152066540Y-98746874D01*
X152161953Y-98883139D01*
X152322861Y-99044047D01*
X152509266Y-99174568D01*
X152514172Y-99176855D01*
X152514176Y-99176858D01*
X152567274Y-99201618D01*
X152619450Y-99247375D01*
X152638869Y-99314000D01*
X152619450Y-99380625D01*
X152567274Y-99426382D01*
X152514176Y-99451141D01*
X152514163Y-99451148D01*
X152509266Y-99453432D01*
X152504833Y-99456535D01*
X152504826Y-99456540D01*
X152327296Y-99580847D01*
X152327291Y-99580850D01*
X152322861Y-99583953D01*
X152319037Y-99587776D01*
X152319031Y-99587782D01*
X152165782Y-99741031D01*
X152165776Y-99741037D01*
X152161953Y-99744861D01*
X152158850Y-99749291D01*
X152158847Y-99749296D01*
X152034540Y-99926826D01*
X152034535Y-99926833D01*
X152031432Y-99931266D01*
X152029144Y-99936172D01*
X152029142Y-99936176D01*
X151937550Y-100132594D01*
X151937547Y-100132599D01*
X151935261Y-100137504D01*
X151933862Y-100142724D01*
X151933858Y-100142736D01*
X151877764Y-100352083D01*
X151877762Y-100352094D01*
X151876365Y-100357308D01*
X151875893Y-100362693D01*
X151875893Y-100362698D01*
X151864064Y-100497909D01*
X151856532Y-100584000D01*
X151876365Y-100810692D01*
X151877762Y-100815907D01*
X151877764Y-100815916D01*
X151933858Y-101025263D01*
X151933861Y-101025271D01*
X151935261Y-101030496D01*
X151937549Y-101035403D01*
X151937550Y-101035405D01*
X152001313Y-101172145D01*
X152031432Y-101236734D01*
X152161953Y-101423139D01*
X152322861Y-101584047D01*
X152509266Y-101714568D01*
X152514172Y-101716855D01*
X152514176Y-101716858D01*
X152567274Y-101741618D01*
X152619450Y-101787375D01*
X152638869Y-101854000D01*
X152619450Y-101920625D01*
X152567274Y-101966382D01*
X152514176Y-101991141D01*
X152514163Y-101991148D01*
X152509266Y-101993432D01*
X152504833Y-101996535D01*
X152504826Y-101996540D01*
X152327296Y-102120847D01*
X152327291Y-102120850D01*
X152322861Y-102123953D01*
X152319037Y-102127776D01*
X152319031Y-102127782D01*
X152165782Y-102281031D01*
X152165776Y-102281037D01*
X152161953Y-102284861D01*
X152158850Y-102289291D01*
X152158847Y-102289296D01*
X152034540Y-102466826D01*
X152034535Y-102466833D01*
X152031432Y-102471266D01*
X152029144Y-102476172D01*
X152029142Y-102476176D01*
X151937550Y-102672594D01*
X151937547Y-102672599D01*
X151935261Y-102677504D01*
X151933862Y-102682724D01*
X151933858Y-102682736D01*
X151877764Y-102892083D01*
X151877762Y-102892094D01*
X151876365Y-102897308D01*
X151875893Y-102902693D01*
X151875893Y-102902698D01*
X151868068Y-102992144D01*
X151856532Y-103124000D01*
X151857004Y-103129395D01*
X151874795Y-103332756D01*
X151876365Y-103350692D01*
X151877762Y-103355907D01*
X151877764Y-103355916D01*
X151933858Y-103565263D01*
X151933861Y-103565271D01*
X151935261Y-103570496D01*
X151937548Y-103575400D01*
X151937550Y-103575405D01*
X151951186Y-103604647D01*
X152031432Y-103776734D01*
X152034539Y-103781171D01*
X152034540Y-103781173D01*
X152090600Y-103861235D01*
X152161953Y-103963139D01*
X152322861Y-104124047D01*
X152509266Y-104254568D01*
X152514175Y-104256857D01*
X152514180Y-104256860D01*
X152567864Y-104281893D01*
X152620040Y-104327649D01*
X152639460Y-104394274D01*
X152620041Y-104460899D01*
X152567866Y-104506657D01*
X152514416Y-104531581D01*
X152505087Y-104536967D01*
X152327618Y-104661232D01*
X152319352Y-104668169D01*
X152166169Y-104821352D01*
X152159232Y-104829618D01*
X152034967Y-105007087D01*
X152029579Y-105016419D01*
X151938022Y-105212765D01*
X151934330Y-105222907D01*
X151886820Y-105400219D01*
X151886452Y-105411448D01*
X151897395Y-105414000D01*
X153288000Y-105414000D01*
X153350000Y-105430613D01*
X153395387Y-105476000D01*
X153412000Y-105538000D01*
X153412000Y-105790000D01*
X153395387Y-105852000D01*
X153350000Y-105897387D01*
X153288000Y-105914000D01*
X151897395Y-105914000D01*
X151858177Y-105923144D01*
X151848309Y-105927809D01*
X151788134Y-105924844D01*
X151736459Y-105893868D01*
X150209320Y-104366729D01*
X150182440Y-104326501D01*
X150173001Y-104279048D01*
X150173001Y-103015583D01*
X150173521Y-103004530D01*
X150175173Y-102997144D01*
X150173062Y-102929956D01*
X150173001Y-102926062D01*
X150173001Y-102902356D01*
X150173001Y-102898461D01*
X150172499Y-102894492D01*
X150171581Y-102882835D01*
X150170455Y-102846984D01*
X150170210Y-102839184D01*
X150164621Y-102819951D01*
X150160675Y-102800894D01*
X150159142Y-102788755D01*
X150158165Y-102781019D01*
X150142083Y-102740402D01*
X150138304Y-102729362D01*
X150128296Y-102694913D01*
X150128294Y-102694910D01*
X150126119Y-102687421D01*
X150122148Y-102680707D01*
X150122146Y-102680702D01*
X150115922Y-102670179D01*
X150107359Y-102652701D01*
X150099987Y-102634079D01*
X150095403Y-102627770D01*
X150095400Y-102627764D01*
X150074318Y-102598748D01*
X150067902Y-102588981D01*
X150049644Y-102558107D01*
X150049641Y-102558103D01*
X150045671Y-102551390D01*
X150031507Y-102537225D01*
X150018869Y-102522429D01*
X150011685Y-102512540D01*
X150011679Y-102512534D01*
X150007095Y-102506224D01*
X149973447Y-102478388D01*
X149964806Y-102470525D01*
X146773930Y-99279649D01*
X146743499Y-99229723D01*
X146739328Y-99171402D01*
X146762343Y-99117658D01*
X146785796Y-99086331D01*
X146836091Y-98951483D01*
X146842500Y-98891873D01*
X146842499Y-97196128D01*
X146836091Y-97136517D01*
X146785796Y-97001669D01*
X146699546Y-96886454D01*
X146584331Y-96800204D01*
X146449483Y-96749909D01*
X146441770Y-96749079D01*
X146441767Y-96749079D01*
X146393180Y-96743855D01*
X146393169Y-96743854D01*
X146389873Y-96743500D01*
X146386550Y-96743500D01*
X144697439Y-96743500D01*
X144697420Y-96743500D01*
X144694128Y-96743501D01*
X144690850Y-96743853D01*
X144690838Y-96743854D01*
X144642231Y-96749079D01*
X144642225Y-96749080D01*
X144634517Y-96749909D01*
X144627252Y-96752618D01*
X144627246Y-96752620D01*
X144507980Y-96797104D01*
X144507978Y-96797104D01*
X144499669Y-96800204D01*
X144492572Y-96805516D01*
X144492568Y-96805519D01*
X144391550Y-96881141D01*
X144391546Y-96881144D01*
X144384454Y-96886454D01*
X144379144Y-96893546D01*
X144379141Y-96893550D01*
X144303519Y-96994568D01*
X144303516Y-96994572D01*
X144298204Y-97001669D01*
X144295104Y-97009978D01*
X144295104Y-97009980D01*
X144250620Y-97129247D01*
X144250619Y-97129250D01*
X144247909Y-97136517D01*
X144247079Y-97144227D01*
X144247079Y-97144232D01*
X144241855Y-97192819D01*
X144241854Y-97192831D01*
X144241500Y-97196127D01*
X144241500Y-97199448D01*
X144241500Y-97199449D01*
X144241501Y-98537800D01*
X144224888Y-98599800D01*
X144179501Y-98645187D01*
X144117501Y-98661800D01*
X144062852Y-98661800D01*
X144015399Y-98652361D01*
X143975171Y-98625481D01*
X143825391Y-98475701D01*
X143817941Y-98467514D01*
X143813886Y-98461123D01*
X143764875Y-98415098D01*
X143762078Y-98412387D01*
X143745327Y-98395636D01*
X143745327Y-98395635D01*
X143742571Y-98392880D01*
X143739390Y-98390412D01*
X143730514Y-98382830D01*
X143704369Y-98358278D01*
X143704367Y-98358276D01*
X143698682Y-98352938D01*
X143691849Y-98349182D01*
X143691843Y-98349177D01*
X143681125Y-98343285D01*
X143664866Y-98332606D01*
X143655195Y-98325104D01*
X143655192Y-98325102D01*
X143649036Y-98320327D01*
X143641879Y-98317229D01*
X143641876Y-98317228D01*
X143608949Y-98302978D01*
X143598463Y-98297841D01*
X143567032Y-98280562D01*
X143567023Y-98280558D01*
X143560192Y-98276803D01*
X143552635Y-98274862D01*
X143552631Y-98274861D01*
X143540788Y-98271820D01*
X143522384Y-98265519D01*
X143511157Y-98260660D01*
X143511150Y-98260658D01*
X143503996Y-98257562D01*
X143496292Y-98256341D01*
X143496290Y-98256341D01*
X143460859Y-98250729D01*
X143449424Y-98248361D01*
X143414671Y-98239438D01*
X143414663Y-98239437D01*
X143407119Y-98237500D01*
X143399323Y-98237500D01*
X143387083Y-98237500D01*
X143367697Y-98235974D01*
X143347904Y-98232840D01*
X143340138Y-98233574D01*
X143340135Y-98233574D01*
X143304424Y-98236950D01*
X143292755Y-98237500D01*
X142851523Y-98237500D01*
X142795228Y-98223985D01*
X142751205Y-98186385D01*
X142729050Y-98132898D01*
X142733592Y-98075182D01*
X142763842Y-98025819D01*
X145210908Y-95578753D01*
X148084201Y-95578753D01*
X148084456Y-95584386D01*
X148090015Y-95645570D01*
X148092561Y-95658369D01*
X148138948Y-95807232D01*
X148145064Y-95820820D01*
X148225245Y-95953456D01*
X148234428Y-95965177D01*
X148344022Y-96074771D01*
X148355743Y-96083954D01*
X148488379Y-96164135D01*
X148501967Y-96170251D01*
X148650827Y-96216638D01*
X148663631Y-96219184D01*
X148720343Y-96224338D01*
X148730749Y-96221549D01*
X148734200Y-96208674D01*
X148734200Y-95516326D01*
X148730749Y-95503450D01*
X148717874Y-95500000D01*
X148100527Y-95500000D01*
X148087651Y-95503450D01*
X148084201Y-95516326D01*
X148084201Y-95578753D01*
X145210908Y-95578753D01*
X147821219Y-92968442D01*
X147870582Y-92938192D01*
X147928298Y-92933650D01*
X147981785Y-92955805D01*
G37*
%TD.AperFunction*%
%TA.AperFunction,Conductor*%
G36*
X143503767Y-87732239D02*
G01*
X143552890Y-87764285D01*
X143553820Y-87765276D01*
X143558406Y-87771587D01*
X143592058Y-87799426D01*
X143600699Y-87807289D01*
X144064707Y-88271298D01*
X144072159Y-88279487D01*
X144076214Y-88285877D01*
X144123728Y-88330496D01*
X144125223Y-88331900D01*
X144128019Y-88334610D01*
X144147529Y-88354120D01*
X144150709Y-88356587D01*
X144159571Y-88364155D01*
X144173020Y-88376785D01*
X144185732Y-88388723D01*
X144185734Y-88388724D01*
X144191418Y-88394062D01*
X144198251Y-88397818D01*
X144198252Y-88397819D01*
X144208973Y-88403713D01*
X144225234Y-88414394D01*
X144241064Y-88426673D01*
X144281155Y-88444021D01*
X144291635Y-88449155D01*
X144329908Y-88470197D01*
X144337467Y-88472137D01*
X144344716Y-88475008D01*
X144343994Y-88476831D01*
X144374806Y-88491730D01*
X144407217Y-88528491D01*
X144409145Y-88531831D01*
X144411432Y-88536734D01*
X144541953Y-88723139D01*
X144702861Y-88884047D01*
X144889266Y-89014568D01*
X144894175Y-89016857D01*
X144894180Y-89016860D01*
X144947864Y-89041893D01*
X145000040Y-89087649D01*
X145019460Y-89154274D01*
X145000041Y-89220899D01*
X144947866Y-89266657D01*
X144894416Y-89291581D01*
X144885087Y-89296967D01*
X144707618Y-89421232D01*
X144699352Y-89428169D01*
X144546169Y-89581352D01*
X144539232Y-89589618D01*
X144414967Y-89767087D01*
X144409579Y-89776419D01*
X144318022Y-89972765D01*
X144314330Y-89982907D01*
X144266820Y-90160219D01*
X144266452Y-90171448D01*
X144277395Y-90174000D01*
X145668000Y-90174000D01*
X145730000Y-90190613D01*
X145775387Y-90236000D01*
X145792000Y-90298000D01*
X145792000Y-90550000D01*
X145775387Y-90612000D01*
X145730000Y-90657387D01*
X145668000Y-90674000D01*
X144277395Y-90674000D01*
X144266452Y-90676551D01*
X144266820Y-90687780D01*
X144314330Y-90865092D01*
X144318022Y-90875234D01*
X144409579Y-91071580D01*
X144414967Y-91080912D01*
X144539232Y-91258381D01*
X144546169Y-91266647D01*
X144699352Y-91419830D01*
X144707618Y-91426767D01*
X144885087Y-91551032D01*
X144894419Y-91556420D01*
X145090768Y-91647979D01*
X145100902Y-91651667D01*
X145178030Y-91672334D01*
X145233617Y-91704428D01*
X145265711Y-91760015D01*
X145265711Y-91824203D01*
X145233617Y-91879790D01*
X144131580Y-92981827D01*
X144077558Y-93013490D01*
X144014952Y-93014720D01*
X143959728Y-92985202D01*
X143925968Y-92932464D01*
X143896809Y-92842722D01*
X143879830Y-92790467D01*
X143853313Y-92744538D01*
X143836700Y-92682538D01*
X143836700Y-89418275D01*
X143837221Y-89407219D01*
X143838873Y-89399833D01*
X143836761Y-89332613D01*
X143836700Y-89328719D01*
X143836700Y-89305042D01*
X143836700Y-89301150D01*
X143836198Y-89297183D01*
X143835281Y-89285526D01*
X143835254Y-89284666D01*
X143833910Y-89241873D01*
X143828318Y-89222628D01*
X143824374Y-89203583D01*
X143821864Y-89183708D01*
X143805779Y-89143083D01*
X143802006Y-89132062D01*
X143789818Y-89090110D01*
X143779617Y-89072860D01*
X143771063Y-89055401D01*
X143763686Y-89036768D01*
X143738008Y-89001425D01*
X143731601Y-88991671D01*
X143713342Y-88960796D01*
X143713341Y-88960794D01*
X143709370Y-88954080D01*
X143695205Y-88939915D01*
X143682570Y-88925122D01*
X143670794Y-88908913D01*
X143664783Y-88903940D01*
X143664781Y-88903938D01*
X143637141Y-88881073D01*
X143628500Y-88873210D01*
X143374818Y-88619528D01*
X143347938Y-88579300D01*
X143338499Y-88531852D01*
X143338499Y-87849167D01*
X143352370Y-87792182D01*
X143390879Y-87747944D01*
X143445412Y-87726353D01*
X143503767Y-87732239D01*
G37*
%TD.AperFunction*%
%TA.AperFunction,Conductor*%
G36*
X140409000Y-83586613D02*
G01*
X140454387Y-83632000D01*
X140471000Y-83694000D01*
X140471000Y-84778673D01*
X140474450Y-84791548D01*
X140487326Y-84794999D01*
X140491165Y-84794999D01*
X140497447Y-84794678D01*
X140586867Y-84785544D01*
X140600036Y-84782725D01*
X140747625Y-84733819D01*
X140760633Y-84727753D01*
X140892580Y-84646367D01*
X140903842Y-84637462D01*
X141013462Y-84527842D01*
X141022367Y-84516580D01*
X141103753Y-84384633D01*
X141109819Y-84371625D01*
X141158727Y-84224030D01*
X141161543Y-84210874D01*
X141170680Y-84121444D01*
X141170999Y-84115167D01*
X141170999Y-83934952D01*
X141184514Y-83878657D01*
X141222113Y-83834633D01*
X141275601Y-83812478D01*
X141333317Y-83817020D01*
X141382680Y-83847270D01*
X143356181Y-85820771D01*
X143383061Y-85860999D01*
X143392500Y-85908452D01*
X143392500Y-86534171D01*
X143373995Y-86599338D01*
X143324004Y-86645055D01*
X143257447Y-86657677D01*
X143194189Y-86633438D01*
X143087431Y-86553519D01*
X143087430Y-86553518D01*
X143080331Y-86548204D01*
X142978638Y-86510275D01*
X142952752Y-86500620D01*
X142952750Y-86500619D01*
X142945483Y-86497909D01*
X142937770Y-86497079D01*
X142937767Y-86497079D01*
X142889180Y-86491855D01*
X142889169Y-86491854D01*
X142885873Y-86491500D01*
X142882550Y-86491500D01*
X142493439Y-86491500D01*
X142493420Y-86491500D01*
X142490128Y-86491501D01*
X142486853Y-86491852D01*
X142486834Y-86491854D01*
X142451253Y-86495679D01*
X142424749Y-86495679D01*
X142389163Y-86491853D01*
X142389150Y-86491852D01*
X142385873Y-86491500D01*
X142382562Y-86491500D01*
X141993439Y-86491500D01*
X141993420Y-86491500D01*
X141990128Y-86491501D01*
X141986853Y-86491852D01*
X141986834Y-86491854D01*
X141951253Y-86495679D01*
X141924749Y-86495679D01*
X141889163Y-86491853D01*
X141889150Y-86491852D01*
X141885873Y-86491500D01*
X141882562Y-86491500D01*
X141493439Y-86491500D01*
X141493420Y-86491500D01*
X141490128Y-86491501D01*
X141486853Y-86491852D01*
X141486834Y-86491854D01*
X141451253Y-86495679D01*
X141424749Y-86495679D01*
X141389163Y-86491853D01*
X141389150Y-86491852D01*
X141385873Y-86491500D01*
X141382562Y-86491500D01*
X140993439Y-86491500D01*
X140993420Y-86491500D01*
X140990128Y-86491501D01*
X140986853Y-86491852D01*
X140986834Y-86491854D01*
X140951253Y-86495679D01*
X140924749Y-86495679D01*
X140889163Y-86491853D01*
X140889150Y-86491852D01*
X140885873Y-86491500D01*
X140882562Y-86491500D01*
X140493441Y-86491500D01*
X140493422Y-86491500D01*
X140490128Y-86491501D01*
X140486840Y-86491854D01*
X140486829Y-86491855D01*
X140448903Y-86495931D01*
X140422402Y-86495931D01*
X140389120Y-86492353D01*
X140382517Y-86492000D01*
X140354326Y-86492000D01*
X140340186Y-86495788D01*
X140334416Y-86501558D01*
X140323730Y-86522907D01*
X140294955Y-86547253D01*
X140295668Y-86548205D01*
X140262310Y-86573176D01*
X140214358Y-86595074D01*
X140161642Y-86595074D01*
X140113690Y-86573176D01*
X140080332Y-86548205D01*
X140081044Y-86547252D01*
X140052270Y-86522909D01*
X140029968Y-86478353D01*
X140027468Y-86469023D01*
X140018021Y-86452154D01*
X140020664Y-86384890D01*
X140040074Y-86325156D01*
X140059860Y-86136900D01*
X140040074Y-85948644D01*
X139981579Y-85768616D01*
X139886933Y-85604684D01*
X139856326Y-85570692D01*
X139811750Y-85521185D01*
X139788136Y-85482651D01*
X139779900Y-85438213D01*
X139779900Y-84915172D01*
X139798679Y-84849564D01*
X139849327Y-84803827D01*
X139916504Y-84791814D01*
X139944557Y-84794680D01*
X139950832Y-84795000D01*
X139954674Y-84795000D01*
X139967549Y-84791549D01*
X139971000Y-84778674D01*
X139971000Y-83694000D01*
X139987613Y-83632000D01*
X140033000Y-83586613D01*
X140095000Y-83570000D01*
X140347000Y-83570000D01*
X140409000Y-83586613D01*
G37*
%TD.AperFunction*%
%TA.AperFunction,Conductor*%
G36*
X156147500Y-70629113D02*
G01*
X156192887Y-70674500D01*
X156209500Y-70736500D01*
X156209500Y-117477500D01*
X156192887Y-117539500D01*
X156147500Y-117584887D01*
X156085500Y-117601500D01*
X132204500Y-117601500D01*
X132142500Y-117584887D01*
X132097113Y-117539500D01*
X132080500Y-117477500D01*
X132080500Y-116076551D01*
X144266452Y-116076551D01*
X144266820Y-116087780D01*
X144314330Y-116265092D01*
X144318022Y-116275234D01*
X144409579Y-116471580D01*
X144414967Y-116480912D01*
X144539232Y-116658381D01*
X144546169Y-116666647D01*
X144699352Y-116819830D01*
X144707618Y-116826767D01*
X144885087Y-116951032D01*
X144894419Y-116956420D01*
X145090765Y-117047977D01*
X145100907Y-117051669D01*
X145278219Y-117099179D01*
X145289448Y-117099547D01*
X145292000Y-117088605D01*
X145792000Y-117088605D01*
X145794551Y-117099547D01*
X145805780Y-117099179D01*
X145983092Y-117051669D01*
X145993234Y-117047977D01*
X146189580Y-116956420D01*
X146198912Y-116951032D01*
X146376381Y-116826767D01*
X146384647Y-116819830D01*
X146537830Y-116666647D01*
X146544767Y-116658381D01*
X146669032Y-116480912D01*
X146674420Y-116471580D01*
X146765977Y-116275234D01*
X146769669Y-116265092D01*
X146817179Y-116087780D01*
X146817547Y-116076551D01*
X146806605Y-116074000D01*
X145808326Y-116074000D01*
X145795450Y-116077450D01*
X145792000Y-116090326D01*
X145792000Y-117088605D01*
X145292000Y-117088605D01*
X145292000Y-116090326D01*
X145288549Y-116077450D01*
X145275674Y-116074000D01*
X144277395Y-116074000D01*
X144266452Y-116076551D01*
X132080500Y-116076551D01*
X132080500Y-98766412D01*
X132720773Y-98766412D01*
X132721262Y-98774189D01*
X132721262Y-98774195D01*
X132724255Y-98821759D01*
X132724500Y-98829545D01*
X132724500Y-112190225D01*
X132723978Y-112201280D01*
X132722327Y-112208667D01*
X132722571Y-112216453D01*
X132722571Y-112216461D01*
X132724439Y-112275873D01*
X132724500Y-112279768D01*
X132724500Y-112307350D01*
X132724988Y-112311219D01*
X132724989Y-112311225D01*
X132725004Y-112311343D01*
X132725918Y-112322966D01*
X132727045Y-112358830D01*
X132727046Y-112358837D01*
X132727291Y-112366627D01*
X132729467Y-112374119D01*
X132729468Y-112374121D01*
X132732879Y-112385862D01*
X132736825Y-112404915D01*
X132739336Y-112424792D01*
X132742206Y-112432042D01*
X132742208Y-112432048D01*
X132755414Y-112465404D01*
X132759197Y-112476451D01*
X132771382Y-112518390D01*
X132775353Y-112525105D01*
X132775354Y-112525107D01*
X132781581Y-112535637D01*
X132790136Y-112553099D01*
X132794642Y-112564480D01*
X132794643Y-112564483D01*
X132797514Y-112571732D01*
X132819440Y-112601912D01*
X132823181Y-112607060D01*
X132829593Y-112616822D01*
X132847856Y-112647702D01*
X132847859Y-112647707D01*
X132851830Y-112654420D01*
X132857344Y-112659934D01*
X132857345Y-112659935D01*
X132865990Y-112668580D01*
X132878626Y-112683374D01*
X132885819Y-112693275D01*
X132885823Y-112693279D01*
X132890406Y-112699587D01*
X132896415Y-112704558D01*
X132896416Y-112704559D01*
X132924058Y-112727426D01*
X132932699Y-112735289D01*
X133505273Y-113307864D01*
X133538166Y-113366598D01*
X133535523Y-113433863D01*
X133482333Y-113597564D01*
X133482331Y-113597573D01*
X133480326Y-113603744D01*
X133479648Y-113610194D01*
X133479646Y-113610204D01*
X133464819Y-113751289D01*
X133460540Y-113792000D01*
X133461219Y-113798460D01*
X133479646Y-113973795D01*
X133479647Y-113973803D01*
X133480326Y-113980256D01*
X133482331Y-113986428D01*
X133482333Y-113986435D01*
X133526962Y-114123786D01*
X133538821Y-114160284D01*
X133542068Y-114165908D01*
X133542069Y-114165910D01*
X133624368Y-114308457D01*
X133633467Y-114324216D01*
X133637811Y-114329041D01*
X133637813Y-114329043D01*
X133739423Y-114441892D01*
X133760129Y-114464888D01*
X133913270Y-114576151D01*
X134086197Y-114653144D01*
X134271354Y-114692500D01*
X134454143Y-114692500D01*
X134460646Y-114692500D01*
X134645803Y-114653144D01*
X134818730Y-114576151D01*
X134971871Y-114464888D01*
X135098533Y-114324216D01*
X135193179Y-114160284D01*
X135251674Y-113980256D01*
X135271460Y-113792000D01*
X135251674Y-113603744D01*
X135193179Y-113423716D01*
X135098533Y-113259784D01*
X135002543Y-113153176D01*
X134989632Y-113138837D01*
X134966492Y-113101519D01*
X134960582Y-113086590D01*
X134956804Y-113075555D01*
X134946795Y-113041102D01*
X134946793Y-113041099D01*
X134944618Y-113033610D01*
X134934417Y-113016360D01*
X134925863Y-112998901D01*
X134918486Y-112980268D01*
X134892808Y-112944925D01*
X134886401Y-112935171D01*
X134868142Y-112904296D01*
X134868141Y-112904294D01*
X134864170Y-112897580D01*
X134850004Y-112883414D01*
X134837370Y-112868622D01*
X134825594Y-112852413D01*
X134819583Y-112847440D01*
X134819581Y-112847438D01*
X134791941Y-112824573D01*
X134783300Y-112816710D01*
X134011819Y-112045228D01*
X133984939Y-112005000D01*
X133975500Y-111957547D01*
X133975500Y-111734741D01*
X133987579Y-111681358D01*
X134021464Y-111638375D01*
X134070553Y-111614167D01*
X134125278Y-111613451D01*
X134271354Y-111644500D01*
X134454143Y-111644500D01*
X134460646Y-111644500D01*
X134645803Y-111605144D01*
X134818730Y-111528151D01*
X134971871Y-111416888D01*
X135098533Y-111276216D01*
X135193179Y-111112284D01*
X135251674Y-110932256D01*
X135271460Y-110744000D01*
X135251674Y-110555744D01*
X135193179Y-110375716D01*
X135098533Y-110211784D01*
X135054012Y-110162339D01*
X134976220Y-110075942D01*
X134976219Y-110075941D01*
X134971871Y-110071112D01*
X134966613Y-110067292D01*
X134966611Y-110067290D01*
X134823988Y-109963669D01*
X134823987Y-109963668D01*
X134818730Y-109959849D01*
X134812800Y-109957208D01*
X134812790Y-109957203D01*
X134811061Y-109956434D01*
X134809202Y-109955132D01*
X134807163Y-109953955D01*
X134807266Y-109953776D01*
X134772300Y-109929292D01*
X134746529Y-109889606D01*
X134737500Y-109843156D01*
X134737500Y-108686741D01*
X134749579Y-108633358D01*
X134783464Y-108590375D01*
X134832553Y-108566167D01*
X134887278Y-108565451D01*
X135033354Y-108596500D01*
X135216143Y-108596500D01*
X135222646Y-108596500D01*
X135407803Y-108557144D01*
X135462606Y-108532743D01*
X135530795Y-108523301D01*
X135593515Y-108551684D01*
X135631430Y-108609146D01*
X135632853Y-108677974D01*
X135611965Y-108756299D01*
X135611964Y-108756304D01*
X135609876Y-108764135D01*
X135609881Y-108772238D01*
X135609881Y-108772243D01*
X135609910Y-108813792D01*
X135607813Y-108829765D01*
X135605653Y-108829765D01*
X135605653Y-109779567D01*
X135607832Y-109779567D01*
X135609937Y-109795555D01*
X135609937Y-109845656D01*
X135612038Y-109853501D01*
X135612039Y-109853503D01*
X135643036Y-109969210D01*
X135643040Y-109969222D01*
X135643873Y-109972331D01*
X135643773Y-109972373D01*
X135643890Y-109972657D01*
X135644022Y-109972886D01*
X135644090Y-109973140D01*
X135644131Y-109973239D01*
X135644206Y-109973207D01*
X135660843Y-110002113D01*
X135703335Y-110075942D01*
X135710015Y-110087547D01*
X135803726Y-110181304D01*
X135810802Y-110185381D01*
X135886706Y-110229116D01*
X135932160Y-110274510D01*
X135948800Y-110336557D01*
X135948800Y-111151457D01*
X135932145Y-111213529D01*
X135886656Y-111258927D01*
X135810993Y-111302474D01*
X135810985Y-111302479D01*
X135803919Y-111306547D01*
X135798151Y-111312312D01*
X135798146Y-111312316D01*
X135715935Y-111394487D01*
X135715932Y-111394490D01*
X135710162Y-111400258D01*
X135706088Y-111407327D01*
X135706086Y-111407331D01*
X135646013Y-111511592D01*
X135646007Y-111511604D01*
X135643983Y-111515117D01*
X135643825Y-111515500D01*
X135642783Y-111519406D01*
X135642783Y-111519407D01*
X135611964Y-111634968D01*
X135611963Y-111634974D01*
X135609876Y-111642801D01*
X135609881Y-111650904D01*
X135609881Y-111650909D01*
X135609910Y-111692458D01*
X135607813Y-111708431D01*
X135605653Y-111708431D01*
X135605653Y-112658233D01*
X135607832Y-112658233D01*
X135609937Y-112674221D01*
X135609937Y-112724322D01*
X135612038Y-112732167D01*
X135612039Y-112732169D01*
X135643036Y-112847876D01*
X135643040Y-112847888D01*
X135643873Y-112850997D01*
X135643773Y-112851039D01*
X135643890Y-112851323D01*
X135644022Y-112851552D01*
X135644090Y-112851806D01*
X135644131Y-112851905D01*
X135644206Y-112851873D01*
X135648149Y-112858724D01*
X135692148Y-112935171D01*
X135710015Y-112966213D01*
X135803726Y-113059970D01*
X135810802Y-113064047D01*
X135886706Y-113107782D01*
X135932160Y-113153176D01*
X135948800Y-113215223D01*
X135948800Y-114030125D01*
X135932145Y-114092197D01*
X135886656Y-114137595D01*
X135810993Y-114181142D01*
X135810985Y-114181147D01*
X135803919Y-114185215D01*
X135798151Y-114190980D01*
X135798146Y-114190984D01*
X135715935Y-114273155D01*
X135715932Y-114273158D01*
X135710162Y-114278926D01*
X135706088Y-114285995D01*
X135706086Y-114285999D01*
X135646013Y-114390260D01*
X135646007Y-114390272D01*
X135643983Y-114393785D01*
X135643825Y-114394168D01*
X135642783Y-114398074D01*
X135642783Y-114398075D01*
X135611964Y-114513636D01*
X135611963Y-114513642D01*
X135609876Y-114521469D01*
X135609881Y-114529572D01*
X135609881Y-114529577D01*
X135609910Y-114571126D01*
X135607813Y-114587099D01*
X135605653Y-114587099D01*
X135605653Y-115536901D01*
X135607832Y-115536901D01*
X135609937Y-115552889D01*
X135609937Y-115602990D01*
X135612038Y-115610835D01*
X135612039Y-115610837D01*
X135643036Y-115726544D01*
X135643040Y-115726556D01*
X135643873Y-115729665D01*
X135643773Y-115729707D01*
X135643890Y-115729991D01*
X135644022Y-115730220D01*
X135644090Y-115730474D01*
X135644131Y-115730573D01*
X135644206Y-115730541D01*
X135660843Y-115759447D01*
X135663204Y-115763550D01*
X135710015Y-115844881D01*
X135803726Y-115938638D01*
X135918585Y-116004817D01*
X135918968Y-116004975D01*
X136046269Y-116038924D01*
X136095931Y-116038889D01*
X136111899Y-116040987D01*
X136111899Y-116043147D01*
X136997378Y-116043147D01*
X137011785Y-116043147D01*
X137011785Y-116040654D01*
X137014032Y-116040264D01*
X137118533Y-116031803D01*
X137126223Y-116029049D01*
X137134206Y-116027329D01*
X137134502Y-116028702D01*
X137160138Y-116024078D01*
X137191732Y-116028980D01*
X137191901Y-116028203D01*
X137198376Y-116029605D01*
X137204656Y-116031686D01*
X137255027Y-116037079D01*
X137264048Y-116038384D01*
X137286154Y-116042420D01*
X137286151Y-116042497D01*
X137286348Y-116042507D01*
X137286540Y-116042491D01*
X137286730Y-116042526D01*
X137286852Y-116042532D01*
X137286855Y-116042465D01*
X137290644Y-116042158D01*
X137293302Y-116042116D01*
X137305108Y-116042651D01*
X137305110Y-116042618D01*
X137308402Y-116042793D01*
X137311701Y-116043147D01*
X137311785Y-116043147D01*
X137311785Y-116042974D01*
X137311993Y-116042986D01*
X137311993Y-116043147D01*
X138725447Y-116043147D01*
X138741775Y-116043147D01*
X138741775Y-116040510D01*
X138751058Y-116039028D01*
X138835704Y-116034398D01*
X138850797Y-116029425D01*
X138890340Y-116023197D01*
X138918133Y-116027913D01*
X138918388Y-116026775D01*
X138938290Y-116031224D01*
X138972398Y-116034990D01*
X138983763Y-116036782D01*
X139002068Y-116040545D01*
X139004576Y-116040890D01*
X139007205Y-116040917D01*
X139009378Y-116040795D01*
X139022209Y-116041139D01*
X139025189Y-116040818D01*
X139026811Y-116040997D01*
X139027613Y-116041284D01*
X139029990Y-116041348D01*
X139038310Y-116042267D01*
X139045117Y-116042642D01*
X140145371Y-116042642D01*
X140145472Y-116042615D01*
X140177660Y-116038388D01*
X140219158Y-116038417D01*
X140235098Y-116036334D01*
X140350532Y-116005549D01*
X140354510Y-116004205D01*
X140358348Y-116002318D01*
X140462493Y-115942311D01*
X140475338Y-115932461D01*
X140557411Y-115850348D01*
X140567256Y-115837497D01*
X140627021Y-115733657D01*
X140628870Y-115729910D01*
X140630188Y-115726004D01*
X140661059Y-115610776D01*
X140663163Y-115594794D01*
X140663163Y-115552870D01*
X140667388Y-115520776D01*
X140667442Y-115520574D01*
X140667442Y-114603426D01*
X140667415Y-114603325D01*
X140663188Y-114571139D01*
X140663217Y-114529641D01*
X140661134Y-114513701D01*
X140630349Y-114398267D01*
X140629005Y-114394291D01*
X140627115Y-114390446D01*
X140567155Y-114286361D01*
X140557319Y-114273531D01*
X140475268Y-114191480D01*
X140462438Y-114181644D01*
X140358353Y-114121684D01*
X140354508Y-114119794D01*
X140350532Y-114118450D01*
X140235098Y-114087665D01*
X140219157Y-114085582D01*
X140177658Y-114085611D01*
X140145479Y-114081386D01*
X140145375Y-114081358D01*
X139188764Y-114081358D01*
X139123054Y-114062516D01*
X139077314Y-114011716D01*
X139065443Y-113944397D01*
X139080781Y-113798460D01*
X139081460Y-113792000D01*
X139061674Y-113603744D01*
X139003179Y-113423716D01*
X138960603Y-113349973D01*
X138943991Y-113287974D01*
X138960604Y-113225974D01*
X139005991Y-113180587D01*
X139067991Y-113163974D01*
X140145371Y-113163974D01*
X140145472Y-113163947D01*
X140177660Y-113159720D01*
X140219158Y-113159749D01*
X140235098Y-113157666D01*
X140350532Y-113126881D01*
X140354510Y-113125537D01*
X140358348Y-113123650D01*
X140462493Y-113063643D01*
X140475338Y-113053793D01*
X140557411Y-112971680D01*
X140567256Y-112958829D01*
X140627021Y-112854989D01*
X140628870Y-112851242D01*
X140630188Y-112847336D01*
X140661059Y-112732108D01*
X140663163Y-112716126D01*
X140663163Y-112674202D01*
X140667388Y-112642108D01*
X140667442Y-112641906D01*
X140667442Y-111724758D01*
X140667415Y-111724657D01*
X140663188Y-111692471D01*
X140663217Y-111650973D01*
X140661134Y-111635033D01*
X140630349Y-111519599D01*
X140629005Y-111515623D01*
X140627115Y-111511778D01*
X140567155Y-111407693D01*
X140557319Y-111394863D01*
X140475268Y-111312812D01*
X140462438Y-111302976D01*
X140358353Y-111243016D01*
X140354508Y-111241126D01*
X140350532Y-111239782D01*
X140235098Y-111208997D01*
X140219157Y-111206914D01*
X140177658Y-111206943D01*
X140145479Y-111202718D01*
X140145375Y-111202690D01*
X139144476Y-111202690D01*
X139088181Y-111189175D01*
X139044158Y-111151575D01*
X139022003Y-111098088D01*
X139026545Y-111040372D01*
X139059666Y-110938435D01*
X139061674Y-110932256D01*
X139081460Y-110744000D01*
X139061674Y-110555744D01*
X139026543Y-110447625D01*
X139022002Y-110389910D01*
X139044157Y-110336423D01*
X139088180Y-110298823D01*
X139144475Y-110285308D01*
X140145371Y-110285308D01*
X140145472Y-110285281D01*
X140177660Y-110281054D01*
X140219158Y-110281083D01*
X140235098Y-110279000D01*
X140350532Y-110248215D01*
X140354510Y-110246871D01*
X140358348Y-110244984D01*
X140462493Y-110184977D01*
X140475338Y-110175127D01*
X140557411Y-110093014D01*
X140567256Y-110080163D01*
X140627021Y-109976323D01*
X140628870Y-109972576D01*
X140630188Y-109968670D01*
X140661059Y-109853442D01*
X140663163Y-109837460D01*
X140663163Y-109795536D01*
X140667388Y-109763442D01*
X140667442Y-109763240D01*
X140667442Y-108846092D01*
X140667415Y-108845991D01*
X140663188Y-108813805D01*
X140663217Y-108772307D01*
X140661134Y-108756367D01*
X140630349Y-108640933D01*
X140629005Y-108636957D01*
X140627115Y-108633112D01*
X140567155Y-108529027D01*
X140557319Y-108516197D01*
X140475268Y-108434146D01*
X140462438Y-108424310D01*
X140358353Y-108364350D01*
X140354508Y-108362460D01*
X140350532Y-108361116D01*
X140235098Y-108330331D01*
X140219157Y-108328248D01*
X140177658Y-108328277D01*
X140145479Y-108324052D01*
X140145375Y-108324024D01*
X139171986Y-108324024D01*
X139115692Y-108310509D01*
X139071668Y-108272910D01*
X139049513Y-108219423D01*
X139054054Y-108161708D01*
X139054401Y-108160639D01*
X139061674Y-108138256D01*
X139081460Y-107950000D01*
X139061674Y-107761744D01*
X139003179Y-107581716D01*
X139001870Y-107579450D01*
X138991813Y-107520911D01*
X139011437Y-107463106D01*
X139056264Y-107421668D01*
X139115431Y-107406642D01*
X140145371Y-107406642D01*
X140145472Y-107406615D01*
X140177660Y-107402388D01*
X140219158Y-107402417D01*
X140235098Y-107400334D01*
X140350532Y-107369549D01*
X140354510Y-107368205D01*
X140358348Y-107366318D01*
X140462493Y-107306311D01*
X140475338Y-107296461D01*
X140557411Y-107214348D01*
X140567256Y-107201497D01*
X140627021Y-107097657D01*
X140628870Y-107093910D01*
X140630188Y-107090004D01*
X140661059Y-106974776D01*
X140663163Y-106958794D01*
X140663163Y-106916870D01*
X140667388Y-106884776D01*
X140667442Y-106884574D01*
X140667442Y-105967426D01*
X140667415Y-105967325D01*
X140663188Y-105935139D01*
X140663217Y-105893641D01*
X140661134Y-105877701D01*
X140630349Y-105762267D01*
X140629005Y-105758291D01*
X140627115Y-105754446D01*
X140567155Y-105650361D01*
X140557319Y-105637531D01*
X140475268Y-105555480D01*
X140462438Y-105545644D01*
X140358353Y-105485684D01*
X140354508Y-105483794D01*
X140350532Y-105482450D01*
X140235098Y-105451665D01*
X140219157Y-105449582D01*
X140177658Y-105449611D01*
X140145479Y-105445386D01*
X140145375Y-105445358D01*
X139045108Y-105445358D01*
X139038312Y-105445731D01*
X139029973Y-105446652D01*
X139027576Y-105446716D01*
X139026767Y-105447006D01*
X139025067Y-105447193D01*
X139022036Y-105446865D01*
X139009417Y-105447205D01*
X139007160Y-105447078D01*
X139004584Y-105447105D01*
X139002112Y-105447444D01*
X138983764Y-105451217D01*
X138972405Y-105453008D01*
X138939112Y-105456685D01*
X138871534Y-105445075D01*
X138820458Y-105399329D01*
X138801500Y-105333434D01*
X138801500Y-105092687D01*
X138809736Y-105048249D01*
X138833350Y-105009715D01*
X138837653Y-105004936D01*
X138908533Y-104926216D01*
X139003179Y-104762284D01*
X139061674Y-104582256D01*
X139081460Y-104394000D01*
X139066903Y-104255500D01*
X139062353Y-104212204D01*
X139062352Y-104212203D01*
X139061674Y-104205744D01*
X139003179Y-104025716D01*
X138908533Y-103861784D01*
X138899117Y-103851327D01*
X138786220Y-103725942D01*
X138786219Y-103725941D01*
X138781871Y-103721112D01*
X138776613Y-103717292D01*
X138776611Y-103717290D01*
X138633988Y-103613669D01*
X138633987Y-103613668D01*
X138628730Y-103609849D01*
X138622792Y-103607205D01*
X138461745Y-103535501D01*
X138461740Y-103535499D01*
X138455803Y-103532856D01*
X138449444Y-103531504D01*
X138449440Y-103531503D01*
X138277008Y-103494852D01*
X138277005Y-103494851D01*
X138270646Y-103493500D01*
X138081354Y-103493500D01*
X138074995Y-103494851D01*
X138074991Y-103494852D01*
X137902559Y-103531503D01*
X137902552Y-103531505D01*
X137896197Y-103532856D01*
X137890262Y-103535498D01*
X137890254Y-103535501D01*
X137729207Y-103607205D01*
X137729202Y-103607207D01*
X137723270Y-103609849D01*
X137718016Y-103613665D01*
X137718011Y-103613669D01*
X137575388Y-103717290D01*
X137575381Y-103717295D01*
X137570129Y-103721112D01*
X137565784Y-103725937D01*
X137565779Y-103725942D01*
X137447813Y-103856956D01*
X137447808Y-103856962D01*
X137443467Y-103861784D01*
X137440222Y-103867404D01*
X137440218Y-103867410D01*
X137352069Y-104020089D01*
X137352066Y-104020094D01*
X137348821Y-104025716D01*
X137346815Y-104031888D01*
X137346813Y-104031894D01*
X137292333Y-104199564D01*
X137292331Y-104199573D01*
X137290326Y-104205744D01*
X137289647Y-104212201D01*
X137289647Y-104212203D01*
X137283129Y-104274213D01*
X137261999Y-104331485D01*
X137216103Y-104371735D01*
X137156563Y-104385208D01*
X137105228Y-104370730D01*
X137104730Y-104371849D01*
X136937745Y-104297501D01*
X136937740Y-104297499D01*
X136931803Y-104294856D01*
X136925444Y-104293504D01*
X136925440Y-104293503D01*
X136753008Y-104256852D01*
X136753005Y-104256851D01*
X136746646Y-104255500D01*
X136557354Y-104255500D01*
X136550995Y-104256851D01*
X136550991Y-104256852D01*
X136499196Y-104267861D01*
X136463279Y-104275495D01*
X136408553Y-104274780D01*
X136359464Y-104250572D01*
X136325579Y-104207589D01*
X136313500Y-104154206D01*
X136313500Y-103111664D01*
X136327925Y-103053618D01*
X136367844Y-103009078D01*
X136423969Y-102988405D01*
X136424470Y-102988350D01*
X136451251Y-102988320D01*
X136490127Y-102992500D01*
X136885872Y-102992499D01*
X136924744Y-102988320D01*
X136951252Y-102988320D01*
X136990127Y-102992500D01*
X137385872Y-102992499D01*
X137424744Y-102988320D01*
X137451252Y-102988320D01*
X137490127Y-102992500D01*
X137885872Y-102992499D01*
X137924744Y-102988320D01*
X137951252Y-102988320D01*
X137990127Y-102992500D01*
X138385872Y-102992499D01*
X138389173Y-102992144D01*
X138389175Y-102992144D01*
X138427094Y-102988068D01*
X138453606Y-102988068D01*
X138486867Y-102991644D01*
X138493496Y-102992000D01*
X138521674Y-102992000D01*
X138535813Y-102988211D01*
X138541585Y-102982439D01*
X138552278Y-102961079D01*
X138581043Y-102936752D01*
X138580329Y-102935798D01*
X138593334Y-102926062D01*
X138613688Y-102910824D01*
X138661638Y-102888924D01*
X138714356Y-102888924D01*
X138762310Y-102910824D01*
X138795668Y-102935796D01*
X138794954Y-102936749D01*
X138823722Y-102961080D01*
X138834414Y-102982439D01*
X138840186Y-102988211D01*
X138854326Y-102992000D01*
X138882506Y-102992000D01*
X138889132Y-102991644D01*
X138922395Y-102988068D01*
X138948905Y-102988068D01*
X138990127Y-102992500D01*
X139385872Y-102992499D01*
X139424744Y-102988320D01*
X139451252Y-102988320D01*
X139490127Y-102992500D01*
X139885872Y-102992499D01*
X139924744Y-102988320D01*
X139951252Y-102988320D01*
X139990127Y-102992500D01*
X140385872Y-102992499D01*
X140424744Y-102988320D01*
X140451252Y-102988320D01*
X140490127Y-102992500D01*
X140885872Y-102992499D01*
X140924744Y-102988320D01*
X140951252Y-102988320D01*
X140990127Y-102992500D01*
X141385872Y-102992499D01*
X141425246Y-102988266D01*
X141492681Y-103000020D01*
X141543606Y-103045763D01*
X141562500Y-103111556D01*
X141562500Y-103324035D01*
X141561978Y-103335090D01*
X141560327Y-103342477D01*
X141560571Y-103350263D01*
X141560571Y-103350271D01*
X141562439Y-103409683D01*
X141562500Y-103413578D01*
X141562500Y-103441160D01*
X141562988Y-103445029D01*
X141562989Y-103445035D01*
X141563004Y-103445153D01*
X141563918Y-103456776D01*
X141565045Y-103492640D01*
X141565046Y-103492647D01*
X141565291Y-103500437D01*
X141567467Y-103507929D01*
X141567468Y-103507931D01*
X141570879Y-103519672D01*
X141574825Y-103538725D01*
X141577336Y-103558602D01*
X141580206Y-103565852D01*
X141580208Y-103565858D01*
X141593414Y-103599214D01*
X141597197Y-103610261D01*
X141609382Y-103652200D01*
X141613353Y-103658915D01*
X141613354Y-103658917D01*
X141619581Y-103669447D01*
X141628136Y-103686909D01*
X141632642Y-103698290D01*
X141632643Y-103698293D01*
X141635514Y-103705542D01*
X141657440Y-103735722D01*
X141661181Y-103740870D01*
X141667593Y-103750632D01*
X141685856Y-103781512D01*
X141685859Y-103781517D01*
X141689830Y-103788230D01*
X141695345Y-103793744D01*
X141695345Y-103793745D01*
X141703990Y-103802390D01*
X141716626Y-103817184D01*
X141723819Y-103827085D01*
X141723823Y-103827089D01*
X141728406Y-103833397D01*
X141734415Y-103838368D01*
X141734416Y-103838369D01*
X141762057Y-103861235D01*
X141770698Y-103869098D01*
X141773682Y-103872082D01*
X141800562Y-103912310D01*
X141810001Y-103959763D01*
X141810001Y-110099726D01*
X141809479Y-110110781D01*
X141807828Y-110118168D01*
X141808072Y-110125954D01*
X141808072Y-110125962D01*
X141809940Y-110185374D01*
X141810001Y-110189269D01*
X141810001Y-110216851D01*
X141810489Y-110220720D01*
X141810490Y-110220726D01*
X141810505Y-110220844D01*
X141811419Y-110232467D01*
X141812546Y-110268331D01*
X141812547Y-110268338D01*
X141812792Y-110276128D01*
X141814968Y-110283620D01*
X141814969Y-110283622D01*
X141818380Y-110295363D01*
X141822326Y-110314416D01*
X141824837Y-110334293D01*
X141827707Y-110341543D01*
X141827709Y-110341549D01*
X141840915Y-110374905D01*
X141844698Y-110385952D01*
X141856883Y-110427891D01*
X141860854Y-110434606D01*
X141860855Y-110434608D01*
X141867082Y-110445138D01*
X141875637Y-110462600D01*
X141880143Y-110473981D01*
X141880144Y-110473984D01*
X141883015Y-110481233D01*
X141904941Y-110511413D01*
X141908682Y-110516561D01*
X141915094Y-110526323D01*
X141933357Y-110557203D01*
X141933360Y-110557208D01*
X141937331Y-110563921D01*
X141942846Y-110569436D01*
X141951491Y-110578081D01*
X141964127Y-110592875D01*
X141971320Y-110602776D01*
X141971324Y-110602780D01*
X141975907Y-110609088D01*
X141981916Y-110614059D01*
X141981917Y-110614060D01*
X142009559Y-110636927D01*
X142018200Y-110644790D01*
X144242586Y-112869177D01*
X144274680Y-112924763D01*
X144274680Y-112988950D01*
X144257765Y-113052079D01*
X144257764Y-113052086D01*
X144256365Y-113057308D01*
X144255893Y-113062693D01*
X144255893Y-113062698D01*
X144247035Y-113163947D01*
X144236532Y-113284000D01*
X144237004Y-113289395D01*
X144253802Y-113481404D01*
X144256365Y-113510692D01*
X144257762Y-113515907D01*
X144257764Y-113515916D01*
X144313858Y-113725263D01*
X144313861Y-113725271D01*
X144315261Y-113730496D01*
X144411432Y-113936734D01*
X144414539Y-113941171D01*
X144414540Y-113941173D01*
X144437382Y-113973795D01*
X144541953Y-114123139D01*
X144702861Y-114284047D01*
X144889266Y-114414568D01*
X144894175Y-114416857D01*
X144894180Y-114416860D01*
X144947864Y-114441893D01*
X145000040Y-114487649D01*
X145019460Y-114554274D01*
X145000041Y-114620899D01*
X144947866Y-114666657D01*
X144894416Y-114691581D01*
X144885087Y-114696967D01*
X144707618Y-114821232D01*
X144699352Y-114828169D01*
X144546169Y-114981352D01*
X144539232Y-114989618D01*
X144414967Y-115167087D01*
X144409579Y-115176419D01*
X144318022Y-115372765D01*
X144314330Y-115382907D01*
X144266820Y-115560219D01*
X144266452Y-115571448D01*
X144277395Y-115574000D01*
X146806605Y-115574000D01*
X146817547Y-115571448D01*
X146817179Y-115560219D01*
X146769669Y-115382907D01*
X146765977Y-115372765D01*
X146674420Y-115176419D01*
X146669032Y-115167087D01*
X146544767Y-114989618D01*
X146537830Y-114981352D01*
X146384647Y-114828169D01*
X146376381Y-114821232D01*
X146198912Y-114696967D01*
X146189579Y-114691579D01*
X146136134Y-114666657D01*
X146083958Y-114620899D01*
X146064539Y-114554274D01*
X146083959Y-114487649D01*
X146136131Y-114441894D01*
X146194734Y-114414568D01*
X146381139Y-114284047D01*
X146542047Y-114123139D01*
X146672568Y-113936734D01*
X146768739Y-113730496D01*
X146827635Y-113510692D01*
X146847468Y-113284000D01*
X146827635Y-113057308D01*
X146784836Y-112897580D01*
X146770141Y-112842736D01*
X146770140Y-112842734D01*
X146768739Y-112837504D01*
X146672568Y-112631266D01*
X146542047Y-112444861D01*
X146381139Y-112283953D01*
X146284750Y-112216461D01*
X146199173Y-112156540D01*
X146199171Y-112156539D01*
X146194734Y-112153432D01*
X146136724Y-112126381D01*
X146084549Y-112080625D01*
X146065130Y-112014000D01*
X146084549Y-111947375D01*
X146136725Y-111901618D01*
X146194734Y-111874568D01*
X146381139Y-111744047D01*
X146542047Y-111583139D01*
X146672568Y-111396734D01*
X146768739Y-111190496D01*
X146827635Y-110970692D01*
X146847468Y-110744000D01*
X146827635Y-110517308D01*
X146793499Y-110389910D01*
X146770141Y-110302736D01*
X146770140Y-110302734D01*
X146768739Y-110297504D01*
X146672568Y-110091266D01*
X146542047Y-109904861D01*
X146381139Y-109743953D01*
X146194734Y-109613432D01*
X146136724Y-109586381D01*
X146084549Y-109540625D01*
X146065130Y-109474000D01*
X146084549Y-109407375D01*
X146136725Y-109361618D01*
X146194734Y-109334568D01*
X146381139Y-109204047D01*
X146542047Y-109043139D01*
X146672568Y-108856734D01*
X146693028Y-108812855D01*
X146729921Y-108766886D01*
X146783875Y-108743145D01*
X146842696Y-108747000D01*
X146893090Y-108777580D01*
X147674181Y-109558671D01*
X147701061Y-109598899D01*
X147710500Y-109646352D01*
X147710500Y-113206225D01*
X147709978Y-113217280D01*
X147708327Y-113224667D01*
X147708571Y-113232453D01*
X147708571Y-113232461D01*
X147710439Y-113291873D01*
X147710500Y-113295768D01*
X147710500Y-113323350D01*
X147710988Y-113327219D01*
X147710989Y-113327225D01*
X147711004Y-113327343D01*
X147711918Y-113338966D01*
X147713045Y-113374830D01*
X147713046Y-113374837D01*
X147713291Y-113382627D01*
X147715467Y-113390119D01*
X147715468Y-113390121D01*
X147718879Y-113401862D01*
X147722825Y-113420915D01*
X147725336Y-113440792D01*
X147728206Y-113448042D01*
X147728208Y-113448048D01*
X147741414Y-113481404D01*
X147745197Y-113492451D01*
X147757382Y-113534390D01*
X147761353Y-113541105D01*
X147761354Y-113541107D01*
X147767581Y-113551637D01*
X147776136Y-113569099D01*
X147780642Y-113580480D01*
X147780643Y-113580483D01*
X147783514Y-113587732D01*
X147799841Y-113610204D01*
X147809181Y-113623060D01*
X147815593Y-113632822D01*
X147833856Y-113663702D01*
X147833859Y-113663707D01*
X147837830Y-113670420D01*
X147843345Y-113675935D01*
X147851990Y-113684580D01*
X147864626Y-113699374D01*
X147871819Y-113709275D01*
X147871823Y-113709279D01*
X147876406Y-113715587D01*
X147882415Y-113720558D01*
X147882416Y-113720559D01*
X147910058Y-113743426D01*
X147918699Y-113751289D01*
X150378707Y-116211298D01*
X150386159Y-116219487D01*
X150390214Y-116225877D01*
X150431973Y-116265092D01*
X150439223Y-116271900D01*
X150442019Y-116274610D01*
X150461529Y-116294120D01*
X150464709Y-116296587D01*
X150473571Y-116304155D01*
X150487020Y-116316785D01*
X150499732Y-116328723D01*
X150499734Y-116328724D01*
X150505418Y-116334062D01*
X150512251Y-116337818D01*
X150512252Y-116337819D01*
X150522973Y-116343713D01*
X150539234Y-116354394D01*
X150555064Y-116366673D01*
X150595155Y-116384021D01*
X150605635Y-116389155D01*
X150643908Y-116410197D01*
X150663316Y-116415180D01*
X150681719Y-116421481D01*
X150692944Y-116426339D01*
X150692946Y-116426339D01*
X150700104Y-116429437D01*
X150743258Y-116436271D01*
X150754644Y-116438629D01*
X150796981Y-116449500D01*
X150817017Y-116449500D01*
X150836415Y-116451027D01*
X150848486Y-116452939D01*
X150848487Y-116452939D01*
X150856196Y-116454160D01*
X150894276Y-116450560D01*
X150899676Y-116450050D01*
X150911345Y-116449500D01*
X151947812Y-116449500D01*
X152005069Y-116463511D01*
X152049387Y-116502377D01*
X152161953Y-116663139D01*
X152322861Y-116824047D01*
X152509266Y-116954568D01*
X152715504Y-117050739D01*
X152720734Y-117052140D01*
X152720736Y-117052141D01*
X152896285Y-117099179D01*
X152935308Y-117109635D01*
X153162000Y-117129468D01*
X153388692Y-117109635D01*
X153608496Y-117050739D01*
X153814734Y-116954568D01*
X154001139Y-116824047D01*
X154162047Y-116663139D01*
X154292568Y-116476734D01*
X154388739Y-116270496D01*
X154390141Y-116265260D01*
X154391991Y-116260180D01*
X154393129Y-116260594D01*
X154421983Y-116210605D01*
X155174211Y-115458378D01*
X155182381Y-115450944D01*
X155188777Y-115446886D01*
X155234818Y-115397856D01*
X155237435Y-115395154D01*
X155257020Y-115375571D01*
X155259485Y-115372392D01*
X155267067Y-115363516D01*
X155296962Y-115331682D01*
X155306613Y-115314123D01*
X155317290Y-115297870D01*
X155329573Y-115282036D01*
X155346926Y-115241932D01*
X155352058Y-115231461D01*
X155369335Y-115200035D01*
X155369335Y-115200034D01*
X155373097Y-115193192D01*
X155378077Y-115173791D01*
X155384381Y-115155381D01*
X155388604Y-115145623D01*
X155392338Y-115136996D01*
X155399172Y-115093841D01*
X155401538Y-115082421D01*
X155410460Y-115047674D01*
X155412400Y-115040119D01*
X155412400Y-115020083D01*
X155413925Y-115000697D01*
X155417060Y-114980904D01*
X155412950Y-114937424D01*
X155412400Y-114925755D01*
X155412400Y-77730671D01*
X155412920Y-77719618D01*
X155414572Y-77712232D01*
X155412461Y-77645044D01*
X155412400Y-77641150D01*
X155412400Y-77617445D01*
X155412400Y-77613550D01*
X155411898Y-77609581D01*
X155410980Y-77597924D01*
X155409609Y-77554273D01*
X155404019Y-77535035D01*
X155400075Y-77515991D01*
X155397564Y-77496108D01*
X155381482Y-77455491D01*
X155377698Y-77444439D01*
X155367693Y-77410001D01*
X155365517Y-77402510D01*
X155361545Y-77395794D01*
X155361543Y-77395789D01*
X155355322Y-77385270D01*
X155346760Y-77367792D01*
X155342260Y-77356427D01*
X155342259Y-77356426D01*
X155339386Y-77349168D01*
X155313712Y-77313831D01*
X155307309Y-77304084D01*
X155285070Y-77266479D01*
X155270905Y-77252314D01*
X155258268Y-77237518D01*
X155251084Y-77227629D01*
X155251078Y-77227623D01*
X155246494Y-77221313D01*
X155212846Y-77193477D01*
X155204205Y-77185614D01*
X154186069Y-76167478D01*
X154156044Y-76118801D01*
X154151059Y-76061826D01*
X154172175Y-76008674D01*
X154292568Y-75836734D01*
X154388739Y-75630496D01*
X154447635Y-75410692D01*
X154467468Y-75184000D01*
X154447635Y-74957308D01*
X154388739Y-74737504D01*
X154292568Y-74531266D01*
X154162047Y-74344861D01*
X154001139Y-74183953D01*
X153814734Y-74053432D01*
X153756724Y-74026381D01*
X153704549Y-73980625D01*
X153685130Y-73914000D01*
X153704549Y-73847375D01*
X153756725Y-73801618D01*
X153814734Y-73774568D01*
X154001139Y-73644047D01*
X154162047Y-73483139D01*
X154292568Y-73296734D01*
X154388739Y-73090496D01*
X154447635Y-72870692D01*
X154467468Y-72644000D01*
X154447635Y-72417308D01*
X154388739Y-72197504D01*
X154292568Y-71991266D01*
X154162047Y-71804861D01*
X154001139Y-71643953D01*
X153814734Y-71513432D01*
X153608496Y-71417261D01*
X153603271Y-71415861D01*
X153603263Y-71415858D01*
X153393916Y-71359764D01*
X153393907Y-71359762D01*
X153388692Y-71358365D01*
X153383304Y-71357893D01*
X153383301Y-71357893D01*
X153167395Y-71339004D01*
X153162000Y-71338532D01*
X153156605Y-71339004D01*
X152940698Y-71357893D01*
X152940693Y-71357893D01*
X152935308Y-71358365D01*
X152930094Y-71359762D01*
X152930083Y-71359764D01*
X152720736Y-71415858D01*
X152720724Y-71415862D01*
X152715504Y-71417261D01*
X152710599Y-71419547D01*
X152710594Y-71419550D01*
X152514176Y-71511142D01*
X152514172Y-71511144D01*
X152509266Y-71513432D01*
X152504833Y-71516535D01*
X152504826Y-71516540D01*
X152327296Y-71640847D01*
X152327291Y-71640850D01*
X152322861Y-71643953D01*
X152319037Y-71647776D01*
X152319031Y-71647782D01*
X152165782Y-71801031D01*
X152165776Y-71801037D01*
X152161953Y-71804861D01*
X152158850Y-71809291D01*
X152158847Y-71809296D01*
X152034540Y-71986826D01*
X152034535Y-71986833D01*
X152031432Y-71991266D01*
X152029144Y-71996172D01*
X152029142Y-71996176D01*
X151937550Y-72192594D01*
X151937547Y-72192599D01*
X151935261Y-72197504D01*
X151933862Y-72202724D01*
X151933858Y-72202736D01*
X151877764Y-72412083D01*
X151877762Y-72412094D01*
X151876365Y-72417308D01*
X151856532Y-72644000D01*
X151876365Y-72870692D01*
X151877762Y-72875907D01*
X151877764Y-72875916D01*
X151933858Y-73085263D01*
X151933861Y-73085271D01*
X151935261Y-73090496D01*
X152031432Y-73296734D01*
X152161953Y-73483139D01*
X152322861Y-73644047D01*
X152509266Y-73774568D01*
X152514172Y-73776855D01*
X152514176Y-73776858D01*
X152567274Y-73801618D01*
X152619450Y-73847375D01*
X152638869Y-73914000D01*
X152619450Y-73980625D01*
X152567274Y-74026382D01*
X152514176Y-74051141D01*
X152514163Y-74051148D01*
X152509266Y-74053432D01*
X152504833Y-74056535D01*
X152504826Y-74056540D01*
X152327296Y-74180847D01*
X152327294Y-74180849D01*
X152322861Y-74183953D01*
X152319037Y-74187776D01*
X152319031Y-74187782D01*
X152165782Y-74341031D01*
X152165776Y-74341037D01*
X152161953Y-74344861D01*
X152158850Y-74349291D01*
X152158847Y-74349296D01*
X152034540Y-74526826D01*
X152034535Y-74526833D01*
X152031432Y-74531266D01*
X152029144Y-74536172D01*
X152029142Y-74536176D01*
X151937550Y-74732594D01*
X151937547Y-74732599D01*
X151935261Y-74737504D01*
X151933862Y-74742724D01*
X151933858Y-74742736D01*
X151877764Y-74952083D01*
X151877762Y-74952094D01*
X151876365Y-74957308D01*
X151856532Y-75184000D01*
X151876365Y-75410692D01*
X151877762Y-75415907D01*
X151877764Y-75415916D01*
X151933858Y-75625263D01*
X151933861Y-75625271D01*
X151935261Y-75630496D01*
X152031432Y-75836734D01*
X152161953Y-76023139D01*
X152322861Y-76184047D01*
X152456900Y-76277901D01*
X152487922Y-76299623D01*
X152524934Y-76340512D01*
X152540554Y-76393408D01*
X152541645Y-76410739D01*
X152542696Y-76427438D01*
X152545105Y-76434853D01*
X152545107Y-76434863D01*
X152545223Y-76435219D01*
X152550308Y-76457966D01*
X152550356Y-76458346D01*
X152550358Y-76458355D01*
X152551336Y-76466092D01*
X152552421Y-76468834D01*
X152554732Y-76515474D01*
X152537480Y-76562113D01*
X152503293Y-76598224D01*
X152327618Y-76721232D01*
X152319352Y-76728169D01*
X152166169Y-76881352D01*
X152159232Y-76889618D01*
X152034967Y-77067087D01*
X152029579Y-77076419D01*
X151938022Y-77272765D01*
X151934330Y-77282907D01*
X151886820Y-77460219D01*
X151886452Y-77471448D01*
X151897395Y-77474000D01*
X153288000Y-77474000D01*
X153350000Y-77490613D01*
X153395387Y-77536000D01*
X153412000Y-77598000D01*
X153412000Y-80390000D01*
X153395387Y-80452000D01*
X153350000Y-80497387D01*
X153288000Y-80514000D01*
X151897395Y-80514000D01*
X151886452Y-80516551D01*
X151886820Y-80527780D01*
X151934330Y-80705092D01*
X151938022Y-80715234D01*
X152029579Y-80911580D01*
X152034967Y-80920912D01*
X152159232Y-81098381D01*
X152166169Y-81106647D01*
X152319352Y-81259830D01*
X152327618Y-81266767D01*
X152505087Y-81391032D01*
X152514423Y-81396422D01*
X152567864Y-81421342D01*
X152620040Y-81467098D01*
X152639460Y-81533723D01*
X152620041Y-81600348D01*
X152567866Y-81646106D01*
X152540868Y-81658695D01*
X152509266Y-81673432D01*
X152504833Y-81676535D01*
X152504826Y-81676540D01*
X152327296Y-81800847D01*
X152327291Y-81800850D01*
X152322861Y-81803953D01*
X152319037Y-81807776D01*
X152319031Y-81807782D01*
X152165782Y-81961031D01*
X152165776Y-81961037D01*
X152161953Y-81964861D01*
X152158850Y-81969291D01*
X152158847Y-81969296D01*
X152049387Y-82125623D01*
X152005069Y-82164489D01*
X151947812Y-82178500D01*
X151461772Y-82178500D01*
X151450719Y-82177979D01*
X151443333Y-82176328D01*
X151435535Y-82176573D01*
X151376145Y-82178439D01*
X151372251Y-82178500D01*
X151344650Y-82178500D01*
X151340799Y-82178986D01*
X151340768Y-82178988D01*
X151340640Y-82179005D01*
X151329029Y-82179918D01*
X151293172Y-82181045D01*
X151293165Y-82181046D01*
X151285373Y-82181291D01*
X151277888Y-82183465D01*
X151277872Y-82183468D01*
X151266126Y-82186881D01*
X151247083Y-82190825D01*
X151234949Y-82192358D01*
X151234948Y-82192358D01*
X151227208Y-82193336D01*
X151219958Y-82196205D01*
X151219951Y-82196208D01*
X151186598Y-82209413D01*
X151175554Y-82213194D01*
X151141101Y-82223204D01*
X151141090Y-82223208D01*
X151133610Y-82225382D01*
X151126898Y-82229351D01*
X151126896Y-82229352D01*
X151116364Y-82235580D01*
X151098904Y-82244134D01*
X151087519Y-82248642D01*
X151087513Y-82248644D01*
X151080268Y-82251514D01*
X151073963Y-82256094D01*
X151073955Y-82256099D01*
X151044932Y-82277185D01*
X151035174Y-82283595D01*
X151004296Y-82301857D01*
X151004290Y-82301861D01*
X150997580Y-82305830D01*
X150992067Y-82311341D01*
X150992060Y-82311348D01*
X150983410Y-82319998D01*
X150968627Y-82332624D01*
X150958726Y-82339817D01*
X150958716Y-82339826D01*
X150952413Y-82344406D01*
X150947444Y-82350411D01*
X150947441Y-82350415D01*
X150924572Y-82378059D01*
X150916711Y-82386697D01*
X149160696Y-84142711D01*
X149152511Y-84150159D01*
X149146123Y-84154214D01*
X149140788Y-84159894D01*
X149140783Y-84159899D01*
X149100096Y-84203225D01*
X149097392Y-84206016D01*
X149080628Y-84222780D01*
X149080621Y-84222787D01*
X149077880Y-84225529D01*
X149075500Y-84228596D01*
X149075489Y-84228609D01*
X149075400Y-84228725D01*
X149067842Y-84237570D01*
X149043280Y-84263727D01*
X149043273Y-84263736D01*
X149037938Y-84269418D01*
X149034182Y-84276249D01*
X149034179Y-84276254D01*
X149028285Y-84286975D01*
X149017609Y-84303227D01*
X149010109Y-84312896D01*
X149010101Y-84312907D01*
X149005327Y-84319064D01*
X149002234Y-84326208D01*
X149002229Y-84326219D01*
X148987974Y-84359160D01*
X148982838Y-84369643D01*
X148981630Y-84371841D01*
X148961803Y-84407908D01*
X148959864Y-84415456D01*
X148959863Y-84415461D01*
X148956822Y-84427307D01*
X148950521Y-84445711D01*
X148945658Y-84456948D01*
X148945656Y-84456952D01*
X148942562Y-84464104D01*
X148941342Y-84471803D01*
X148941342Y-84471805D01*
X148935729Y-84507241D01*
X148933361Y-84518676D01*
X148924438Y-84553428D01*
X148924436Y-84553436D01*
X148922500Y-84560981D01*
X148922500Y-84568777D01*
X148922500Y-84581017D01*
X148920974Y-84600402D01*
X148917840Y-84620196D01*
X148918574Y-84627961D01*
X148918574Y-84627964D01*
X148921950Y-84663676D01*
X148922500Y-84675345D01*
X148922500Y-88139547D01*
X148913061Y-88187000D01*
X148886181Y-88227228D01*
X146997790Y-90115617D01*
X146942203Y-90147711D01*
X146878015Y-90147711D01*
X146822428Y-90115617D01*
X146790334Y-90060030D01*
X146769667Y-89982902D01*
X146765979Y-89972768D01*
X146674420Y-89776419D01*
X146669032Y-89767087D01*
X146544767Y-89589618D01*
X146537830Y-89581352D01*
X146384647Y-89428169D01*
X146376381Y-89421232D01*
X146198912Y-89296967D01*
X146189579Y-89291579D01*
X146136134Y-89266657D01*
X146083958Y-89220899D01*
X146064539Y-89154274D01*
X146083959Y-89087649D01*
X146136131Y-89041894D01*
X146194734Y-89014568D01*
X146381139Y-88884047D01*
X146542047Y-88723139D01*
X146672568Y-88536734D01*
X146768739Y-88330496D01*
X146827635Y-88110692D01*
X146847468Y-87884000D01*
X146827635Y-87657308D01*
X146816575Y-87616032D01*
X146770141Y-87442736D01*
X146770140Y-87442734D01*
X146768739Y-87437504D01*
X146672568Y-87231266D01*
X146542047Y-87044861D01*
X146381139Y-86883953D01*
X146194734Y-86753432D01*
X146136724Y-86726381D01*
X146084549Y-86680625D01*
X146065130Y-86614000D01*
X146084549Y-86547375D01*
X146136725Y-86501618D01*
X146136854Y-86501558D01*
X146194734Y-86474568D01*
X146381139Y-86344047D01*
X146542047Y-86183139D01*
X146672568Y-85996734D01*
X146768739Y-85790496D01*
X146827635Y-85570692D01*
X146847468Y-85344000D01*
X146827635Y-85117308D01*
X146768739Y-84897504D01*
X146672568Y-84691266D01*
X146542047Y-84504861D01*
X146381139Y-84343953D01*
X146216409Y-84228609D01*
X146199173Y-84216540D01*
X146199171Y-84216539D01*
X146194734Y-84213432D01*
X146136724Y-84186381D01*
X146084549Y-84140625D01*
X146065130Y-84074000D01*
X146084549Y-84007375D01*
X146136725Y-83961618D01*
X146194734Y-83934568D01*
X146381139Y-83804047D01*
X146542047Y-83643139D01*
X146672568Y-83456734D01*
X146768739Y-83250496D01*
X146827635Y-83030692D01*
X146847468Y-82804000D01*
X146827635Y-82577308D01*
X146783743Y-82413500D01*
X146770141Y-82362736D01*
X146770140Y-82362734D01*
X146768739Y-82357504D01*
X146672568Y-82151266D01*
X146542047Y-81964861D01*
X146381139Y-81803953D01*
X146194734Y-81673432D01*
X146136724Y-81646381D01*
X146084549Y-81600625D01*
X146065130Y-81534000D01*
X146084549Y-81467375D01*
X146136725Y-81421618D01*
X146137319Y-81421341D01*
X146194734Y-81394568D01*
X146381139Y-81264047D01*
X146542047Y-81103139D01*
X146672568Y-80916734D01*
X146768739Y-80710496D01*
X146827635Y-80490692D01*
X146847468Y-80264000D01*
X146827635Y-80037308D01*
X146820706Y-80011448D01*
X151886452Y-80011448D01*
X151897395Y-80014000D01*
X152895674Y-80014000D01*
X152908549Y-80010549D01*
X152912000Y-79997674D01*
X152912000Y-77990326D01*
X152908549Y-77977450D01*
X152895674Y-77974000D01*
X151897395Y-77974000D01*
X151886452Y-77976551D01*
X151886820Y-77987780D01*
X151934330Y-78165092D01*
X151938022Y-78175234D01*
X152029579Y-78371580D01*
X152034967Y-78380912D01*
X152159232Y-78558381D01*
X152166169Y-78566647D01*
X152319352Y-78719830D01*
X152327618Y-78726767D01*
X152505087Y-78851032D01*
X152514419Y-78856420D01*
X152568456Y-78881618D01*
X152620632Y-78927375D01*
X152640051Y-78994000D01*
X152620632Y-79060625D01*
X152568456Y-79106382D01*
X152514419Y-79131579D01*
X152505087Y-79136967D01*
X152327618Y-79261232D01*
X152319352Y-79268169D01*
X152166169Y-79421352D01*
X152159232Y-79429618D01*
X152034967Y-79607087D01*
X152029579Y-79616419D01*
X151938022Y-79812765D01*
X151934330Y-79822907D01*
X151886820Y-80000219D01*
X151886452Y-80011448D01*
X146820706Y-80011448D01*
X146768739Y-79817504D01*
X146672568Y-79611266D01*
X146542047Y-79424861D01*
X146381139Y-79263953D01*
X146293954Y-79202906D01*
X146199173Y-79136540D01*
X146199171Y-79136539D01*
X146194734Y-79133432D01*
X146136724Y-79106381D01*
X146084549Y-79060625D01*
X146065130Y-78994000D01*
X146084549Y-78927375D01*
X146136725Y-78881618D01*
X146194734Y-78854568D01*
X146381139Y-78724047D01*
X146542047Y-78563139D01*
X146672568Y-78376734D01*
X146768739Y-78170496D01*
X146827635Y-77950692D01*
X146847468Y-77724000D01*
X146827635Y-77497308D01*
X146795364Y-77376871D01*
X146770141Y-77282736D01*
X146770140Y-77282734D01*
X146768739Y-77277504D01*
X146672568Y-77071266D01*
X146542047Y-76884861D01*
X146381139Y-76723953D01*
X146194734Y-76593432D01*
X146136724Y-76566381D01*
X146084549Y-76520625D01*
X146065130Y-76454000D01*
X146084549Y-76387375D01*
X146136725Y-76341618D01*
X146139097Y-76340512D01*
X146194734Y-76314568D01*
X146381139Y-76184047D01*
X146542047Y-76023139D01*
X146672568Y-75836734D01*
X146768739Y-75630496D01*
X146827635Y-75410692D01*
X146847468Y-75184000D01*
X146827635Y-74957308D01*
X146768739Y-74737504D01*
X146672568Y-74531266D01*
X146542047Y-74344861D01*
X146381139Y-74183953D01*
X146356535Y-74166725D01*
X146317398Y-74121883D01*
X146303665Y-74063969D01*
X146318499Y-74006328D01*
X146358485Y-73962239D01*
X146414406Y-73941861D01*
X146449483Y-73938091D01*
X146584331Y-73887796D01*
X146699546Y-73801546D01*
X146785796Y-73686331D01*
X146836091Y-73551483D01*
X146842500Y-73491873D01*
X146842499Y-71796128D01*
X146836091Y-71736517D01*
X146785796Y-71601669D01*
X146699546Y-71486454D01*
X146584331Y-71400204D01*
X146472155Y-71358365D01*
X146456752Y-71352620D01*
X146456750Y-71352619D01*
X146449483Y-71349909D01*
X146441770Y-71349079D01*
X146441767Y-71349079D01*
X146393180Y-71343855D01*
X146393169Y-71343854D01*
X146389873Y-71343500D01*
X146386550Y-71343500D01*
X144697439Y-71343500D01*
X144697420Y-71343500D01*
X144694128Y-71343501D01*
X144690850Y-71343853D01*
X144690838Y-71343854D01*
X144642231Y-71349079D01*
X144642225Y-71349080D01*
X144634517Y-71349909D01*
X144627252Y-71352618D01*
X144627246Y-71352620D01*
X144507980Y-71397104D01*
X144507978Y-71397104D01*
X144499669Y-71400204D01*
X144492572Y-71405516D01*
X144492568Y-71405519D01*
X144391550Y-71481141D01*
X144391546Y-71481144D01*
X144384454Y-71486454D01*
X144379144Y-71493546D01*
X144379141Y-71493550D01*
X144303519Y-71594568D01*
X144303516Y-71594572D01*
X144298204Y-71601669D01*
X144295104Y-71609978D01*
X144295104Y-71609980D01*
X144250620Y-71729247D01*
X144250619Y-71729250D01*
X144247909Y-71736517D01*
X144247079Y-71744227D01*
X144247079Y-71744232D01*
X144241855Y-71792819D01*
X144241854Y-71792831D01*
X144241500Y-71796127D01*
X144241500Y-71799448D01*
X144241500Y-71799449D01*
X144241500Y-73488560D01*
X144241500Y-73488578D01*
X144241501Y-73491872D01*
X144241853Y-73495150D01*
X144241854Y-73495161D01*
X144247079Y-73543768D01*
X144247080Y-73543773D01*
X144247909Y-73551483D01*
X144250619Y-73558749D01*
X144250620Y-73558753D01*
X144281005Y-73640217D01*
X144298204Y-73686331D01*
X144303518Y-73693430D01*
X144303519Y-73693431D01*
X144365972Y-73776858D01*
X144384454Y-73801546D01*
X144499669Y-73887796D01*
X144634517Y-73938091D01*
X144669599Y-73941862D01*
X144725516Y-73962240D01*
X144765500Y-74006328D01*
X144780334Y-74063969D01*
X144766601Y-74121882D01*
X144727464Y-74166725D01*
X144702861Y-74183953D01*
X144699037Y-74187776D01*
X144699031Y-74187782D01*
X144545782Y-74341031D01*
X144545776Y-74341037D01*
X144541953Y-74344861D01*
X144538850Y-74349291D01*
X144538847Y-74349296D01*
X144414540Y-74526826D01*
X144414535Y-74526833D01*
X144411432Y-74531266D01*
X144409144Y-74536172D01*
X144409142Y-74536176D01*
X144317550Y-74732594D01*
X144317547Y-74732599D01*
X144315261Y-74737504D01*
X144313862Y-74742724D01*
X144313858Y-74742736D01*
X144257764Y-74952083D01*
X144257762Y-74952094D01*
X144256365Y-74957308D01*
X144236532Y-75184000D01*
X144256365Y-75410692D01*
X144257762Y-75415907D01*
X144257764Y-75415916D01*
X144313858Y-75625263D01*
X144313861Y-75625271D01*
X144315261Y-75630496D01*
X144411432Y-75836734D01*
X144541953Y-76023139D01*
X144702861Y-76184047D01*
X144889266Y-76314568D01*
X144894172Y-76316855D01*
X144894176Y-76316858D01*
X144947274Y-76341618D01*
X144999450Y-76387375D01*
X145018869Y-76454000D01*
X144999450Y-76520625D01*
X144947274Y-76566382D01*
X144894176Y-76591141D01*
X144894163Y-76591148D01*
X144889266Y-76593432D01*
X144884833Y-76596535D01*
X144884826Y-76596540D01*
X144707296Y-76720847D01*
X144707291Y-76720850D01*
X144702861Y-76723953D01*
X144699037Y-76727776D01*
X144699031Y-76727782D01*
X144545782Y-76881031D01*
X144545776Y-76881037D01*
X144541953Y-76884861D01*
X144538850Y-76889291D01*
X144538847Y-76889296D01*
X144414540Y-77066826D01*
X144414535Y-77066833D01*
X144411432Y-77071266D01*
X144409144Y-77076172D01*
X144409142Y-77076176D01*
X144317550Y-77272594D01*
X144317547Y-77272599D01*
X144315261Y-77277504D01*
X144313862Y-77282724D01*
X144313858Y-77282736D01*
X144257764Y-77492083D01*
X144257762Y-77492094D01*
X144256365Y-77497308D01*
X144255893Y-77502693D01*
X144255893Y-77502698D01*
X144243440Y-77645044D01*
X144236532Y-77724000D01*
X144256365Y-77950692D01*
X144257762Y-77955907D01*
X144257764Y-77955916D01*
X144313858Y-78165263D01*
X144313861Y-78165271D01*
X144315261Y-78170496D01*
X144411432Y-78376734D01*
X144541953Y-78563139D01*
X144702861Y-78724047D01*
X144889266Y-78854568D01*
X144947276Y-78881618D01*
X144999449Y-78927373D01*
X145018869Y-78993997D01*
X144999451Y-79060622D01*
X144947276Y-79106380D01*
X144894178Y-79131141D01*
X144894173Y-79131143D01*
X144889266Y-79133432D01*
X144884833Y-79136535D01*
X144884826Y-79136540D01*
X144707296Y-79260847D01*
X144707291Y-79260850D01*
X144702861Y-79263953D01*
X144699037Y-79267776D01*
X144699031Y-79267782D01*
X144545782Y-79421031D01*
X144545776Y-79421037D01*
X144541953Y-79424861D01*
X144538850Y-79429291D01*
X144538847Y-79429296D01*
X144429387Y-79585623D01*
X144385069Y-79624489D01*
X144327812Y-79638500D01*
X137870701Y-79638500D01*
X137859648Y-79637979D01*
X137852262Y-79636328D01*
X137844464Y-79636573D01*
X137785074Y-79638439D01*
X137781180Y-79638500D01*
X137753580Y-79638500D01*
X137749729Y-79638986D01*
X137749698Y-79638988D01*
X137749570Y-79639005D01*
X137737959Y-79639918D01*
X137702101Y-79641045D01*
X137702094Y-79641046D01*
X137694302Y-79641291D01*
X137686818Y-79643465D01*
X137686807Y-79643467D01*
X137675058Y-79646881D01*
X137656013Y-79650825D01*
X137643877Y-79652358D01*
X137643874Y-79652358D01*
X137636138Y-79653336D01*
X137628890Y-79656205D01*
X137628880Y-79656208D01*
X137595522Y-79669415D01*
X137584480Y-79673196D01*
X137550027Y-79683207D01*
X137550022Y-79683208D01*
X137542540Y-79685383D01*
X137535832Y-79689349D01*
X137535827Y-79689352D01*
X137525294Y-79695581D01*
X137507830Y-79704136D01*
X137496454Y-79708640D01*
X137496447Y-79708643D01*
X137489198Y-79711514D01*
X137482892Y-79716094D01*
X137482887Y-79716098D01*
X137453857Y-79737189D01*
X137444099Y-79743598D01*
X137413228Y-79761856D01*
X137406509Y-79765830D01*
X137400993Y-79771344D01*
X137400986Y-79771351D01*
X137392337Y-79780000D01*
X137377554Y-79792626D01*
X137367657Y-79799817D01*
X137367650Y-79799823D01*
X137361343Y-79804406D01*
X137356376Y-79810408D01*
X137356365Y-79810420D01*
X137333500Y-79838059D01*
X137325640Y-79846697D01*
X134325296Y-82847041D01*
X134317111Y-82854489D01*
X134310723Y-82858544D01*
X134305388Y-82864224D01*
X134305383Y-82864229D01*
X134264696Y-82907555D01*
X134261992Y-82910346D01*
X134245228Y-82927110D01*
X134245221Y-82927117D01*
X134242480Y-82929859D01*
X134240100Y-82932926D01*
X134240089Y-82932939D01*
X134240000Y-82933055D01*
X134232442Y-82941900D01*
X134207880Y-82968057D01*
X134207873Y-82968066D01*
X134202538Y-82973748D01*
X134198782Y-82980579D01*
X134198779Y-82980584D01*
X134192885Y-82991305D01*
X134182209Y-83007557D01*
X134174709Y-83017226D01*
X134174701Y-83017237D01*
X134169927Y-83023394D01*
X134166834Y-83030538D01*
X134166829Y-83030549D01*
X134152574Y-83063490D01*
X134147438Y-83073973D01*
X134126403Y-83112238D01*
X134124464Y-83119786D01*
X134124463Y-83119791D01*
X134121422Y-83131637D01*
X134115121Y-83150041D01*
X134110258Y-83161278D01*
X134110256Y-83161282D01*
X134107162Y-83168434D01*
X134105942Y-83176133D01*
X134105942Y-83176135D01*
X134100329Y-83211571D01*
X134097961Y-83223006D01*
X134089038Y-83257758D01*
X134089036Y-83257766D01*
X134087100Y-83265311D01*
X134087100Y-83273107D01*
X134087100Y-83285347D01*
X134085574Y-83304732D01*
X134082440Y-83324526D01*
X134083174Y-83332291D01*
X134083174Y-83332294D01*
X134086550Y-83368006D01*
X134087100Y-83379675D01*
X134087100Y-88551125D01*
X134086578Y-88562180D01*
X134084927Y-88569567D01*
X134085171Y-88577353D01*
X134085171Y-88577361D01*
X134087039Y-88636773D01*
X134087100Y-88640668D01*
X134087100Y-88668250D01*
X134087588Y-88672119D01*
X134087589Y-88672125D01*
X134087604Y-88672243D01*
X134088518Y-88683866D01*
X134089645Y-88719730D01*
X134089646Y-88719737D01*
X134089891Y-88727527D01*
X134092067Y-88735019D01*
X134092068Y-88735021D01*
X134095479Y-88746762D01*
X134099425Y-88765815D01*
X134101936Y-88785692D01*
X134104806Y-88792942D01*
X134104808Y-88792948D01*
X134118014Y-88826304D01*
X134121797Y-88837351D01*
X134133982Y-88879290D01*
X134137953Y-88886005D01*
X134137954Y-88886007D01*
X134144181Y-88896537D01*
X134152736Y-88913999D01*
X134157242Y-88925380D01*
X134157243Y-88925383D01*
X134160114Y-88932632D01*
X134171687Y-88948561D01*
X134185781Y-88967960D01*
X134192193Y-88977722D01*
X134210456Y-89008602D01*
X134210459Y-89008607D01*
X134214430Y-89015320D01*
X134219945Y-89020835D01*
X134228590Y-89029480D01*
X134241226Y-89044274D01*
X134248419Y-89054175D01*
X134248423Y-89054179D01*
X134253006Y-89060487D01*
X134259015Y-89065458D01*
X134259016Y-89065459D01*
X134286651Y-89088320D01*
X134295293Y-89096183D01*
X134403711Y-89204602D01*
X134411157Y-89212785D01*
X134415214Y-89219177D01*
X134447682Y-89249667D01*
X134464224Y-89265201D01*
X134467021Y-89267912D01*
X134486529Y-89287420D01*
X134489709Y-89289887D01*
X134498571Y-89297455D01*
X134512020Y-89310085D01*
X134524732Y-89322023D01*
X134524734Y-89322024D01*
X134530418Y-89327362D01*
X134537251Y-89331118D01*
X134537252Y-89331119D01*
X134547973Y-89337013D01*
X134564234Y-89347694D01*
X134580064Y-89359973D01*
X134620154Y-89377321D01*
X134630631Y-89382454D01*
X134668908Y-89403497D01*
X134685957Y-89407874D01*
X134688305Y-89408477D01*
X134706719Y-89414781D01*
X134725104Y-89422738D01*
X134768265Y-89429573D01*
X134779664Y-89431934D01*
X134821981Y-89442800D01*
X134842017Y-89442800D01*
X134861402Y-89444325D01*
X134881196Y-89447460D01*
X134919322Y-89443856D01*
X134924676Y-89443350D01*
X134936345Y-89442800D01*
X136413900Y-89442800D01*
X136475900Y-89459413D01*
X136521287Y-89504800D01*
X136537900Y-89566800D01*
X136537900Y-92416125D01*
X136537378Y-92427180D01*
X136535727Y-92434567D01*
X136535971Y-92442353D01*
X136535971Y-92442361D01*
X136537839Y-92501773D01*
X136537900Y-92505668D01*
X136537900Y-92533250D01*
X136538388Y-92537119D01*
X136538389Y-92537125D01*
X136538404Y-92537243D01*
X136539318Y-92548866D01*
X136540445Y-92584730D01*
X136540446Y-92584737D01*
X136540691Y-92592527D01*
X136542867Y-92600019D01*
X136542868Y-92600021D01*
X136546279Y-92611762D01*
X136550225Y-92630815D01*
X136552736Y-92650692D01*
X136555606Y-92657942D01*
X136555608Y-92657948D01*
X136568814Y-92691304D01*
X136572597Y-92702351D01*
X136584782Y-92744290D01*
X136588753Y-92751005D01*
X136588754Y-92751007D01*
X136594981Y-92761537D01*
X136603536Y-92778999D01*
X136608042Y-92790380D01*
X136608043Y-92790383D01*
X136610914Y-92797632D01*
X136628656Y-92822052D01*
X136636581Y-92832960D01*
X136642993Y-92842722D01*
X136661256Y-92873602D01*
X136661259Y-92873607D01*
X136665230Y-92880320D01*
X136670744Y-92885834D01*
X136670745Y-92885835D01*
X136679390Y-92894480D01*
X136692026Y-92909274D01*
X136699219Y-92919175D01*
X136699223Y-92919179D01*
X136703806Y-92925487D01*
X136709815Y-92930458D01*
X136709816Y-92930459D01*
X136737458Y-92953326D01*
X136746099Y-92961189D01*
X139183644Y-95398735D01*
X139207884Y-95433033D01*
X139219284Y-95473454D01*
X139230873Y-95583710D01*
X139236932Y-95641362D01*
X139238937Y-95647534D01*
X139238939Y-95647541D01*
X139293419Y-95815211D01*
X139295427Y-95821390D01*
X139298674Y-95827014D01*
X139298675Y-95827016D01*
X139347666Y-95911872D01*
X139390073Y-95985322D01*
X139394417Y-95990147D01*
X139394419Y-95990149D01*
X139512385Y-96121163D01*
X139516735Y-96125994D01*
X139588670Y-96178258D01*
X139623971Y-96217983D01*
X139639400Y-96268844D01*
X139632118Y-96321491D01*
X139603463Y-96366254D01*
X136802835Y-99166882D01*
X136747248Y-99198976D01*
X136683060Y-99198976D01*
X136627473Y-99166882D01*
X135879286Y-98418695D01*
X135871842Y-98410514D01*
X135867786Y-98404123D01*
X135818775Y-98358098D01*
X135815978Y-98355387D01*
X135799227Y-98338636D01*
X135796471Y-98335880D01*
X135793290Y-98333412D01*
X135784414Y-98325830D01*
X135758269Y-98301278D01*
X135758267Y-98301276D01*
X135752582Y-98295938D01*
X135745749Y-98292182D01*
X135745743Y-98292177D01*
X135735025Y-98286285D01*
X135718766Y-98275606D01*
X135709095Y-98268104D01*
X135709092Y-98268102D01*
X135702936Y-98263327D01*
X135695779Y-98260229D01*
X135695776Y-98260228D01*
X135662849Y-98245978D01*
X135652363Y-98240841D01*
X135620932Y-98223562D01*
X135620923Y-98223558D01*
X135614092Y-98219803D01*
X135606535Y-98217862D01*
X135606531Y-98217861D01*
X135594688Y-98214820D01*
X135576284Y-98208519D01*
X135565057Y-98203660D01*
X135565050Y-98203658D01*
X135557896Y-98200562D01*
X135550192Y-98199341D01*
X135550190Y-98199341D01*
X135514759Y-98193729D01*
X135503324Y-98191361D01*
X135468571Y-98182438D01*
X135468563Y-98182437D01*
X135461019Y-98180500D01*
X135453223Y-98180500D01*
X135440983Y-98180500D01*
X135421597Y-98178974D01*
X135401804Y-98175840D01*
X135394038Y-98176574D01*
X135394035Y-98176574D01*
X135358324Y-98179950D01*
X135346655Y-98180500D01*
X133420849Y-98180500D01*
X133397614Y-98178304D01*
X133397246Y-98178233D01*
X133397239Y-98178232D01*
X133389588Y-98176773D01*
X133381809Y-98177262D01*
X133381804Y-98177262D01*
X133334241Y-98180255D01*
X133326455Y-98180500D01*
X133310650Y-98180500D01*
X133306793Y-98180987D01*
X133306778Y-98180988D01*
X133294962Y-98182481D01*
X133287213Y-98183213D01*
X133239644Y-98186206D01*
X133239641Y-98186206D01*
X133231862Y-98186696D01*
X133224453Y-98189102D01*
X133224442Y-98189105D01*
X133224075Y-98189225D01*
X133201333Y-98194308D01*
X133200955Y-98194355D01*
X133200939Y-98194358D01*
X133193208Y-98195336D01*
X133185959Y-98198205D01*
X133185951Y-98198208D01*
X133141619Y-98215760D01*
X133134295Y-98218397D01*
X133088978Y-98233122D01*
X133088975Y-98233122D01*
X133081559Y-98235533D01*
X133074976Y-98239709D01*
X133074970Y-98239713D01*
X133074650Y-98239917D01*
X133053880Y-98250499D01*
X133053523Y-98250640D01*
X133053515Y-98250643D01*
X133046268Y-98253514D01*
X133039962Y-98258095D01*
X133039959Y-98258097D01*
X133001389Y-98286119D01*
X132994951Y-98290494D01*
X132954709Y-98316033D01*
X132954702Y-98316038D01*
X132948123Y-98320214D01*
X132942786Y-98325896D01*
X132942780Y-98325902D01*
X132942526Y-98326173D01*
X132925032Y-98341596D01*
X132924727Y-98341817D01*
X132924719Y-98341823D01*
X132918413Y-98346406D01*
X132913444Y-98352412D01*
X132913439Y-98352417D01*
X132883052Y-98389147D01*
X132877906Y-98394984D01*
X132845277Y-98429731D01*
X132845272Y-98429737D01*
X132839938Y-98435418D01*
X132836183Y-98442247D01*
X132836177Y-98442256D01*
X132835993Y-98442592D01*
X132822891Y-98461872D01*
X132822646Y-98462167D01*
X132822640Y-98462174D01*
X132817676Y-98468177D01*
X132814358Y-98475226D01*
X132814357Y-98475229D01*
X132794061Y-98518360D01*
X132790526Y-98525297D01*
X132767561Y-98567071D01*
X132767559Y-98567074D01*
X132763803Y-98573908D01*
X132761863Y-98581461D01*
X132761862Y-98581465D01*
X132761768Y-98581833D01*
X132753872Y-98603763D01*
X132753708Y-98604109D01*
X132753702Y-98604124D01*
X132750386Y-98611174D01*
X132748925Y-98618828D01*
X132748924Y-98618834D01*
X132739993Y-98665650D01*
X132738295Y-98673247D01*
X132726438Y-98719428D01*
X132726436Y-98719437D01*
X132724500Y-98726981D01*
X132724500Y-98734777D01*
X132724500Y-98735151D01*
X132722304Y-98758386D01*
X132722233Y-98758753D01*
X132722232Y-98758760D01*
X132720773Y-98766412D01*
X132080500Y-98766412D01*
X132080500Y-79372500D01*
X132097113Y-79310500D01*
X132142500Y-79265113D01*
X132204500Y-79248500D01*
X142493901Y-79248500D01*
X142494000Y-79248541D01*
X142494383Y-79248383D01*
X142494500Y-79248099D01*
X142494541Y-79248000D01*
X142494500Y-79247901D01*
X142494500Y-70736500D01*
X142511113Y-70674500D01*
X142556500Y-70629113D01*
X142618500Y-70612500D01*
X156085500Y-70612500D01*
X156147500Y-70629113D01*
G37*
%TD.AperFunction*%
%TD*%
M02*
