%TF.GenerationSoftware,KiCad,Pcbnew,(7.0.0)*%
%TF.CreationDate,2023-08-04T18:21:46+01:00*%
%TF.ProjectId,DataIOROM,44617461-494f-4524-9f4d-2e6b69636164,rev?*%
%TF.SameCoordinates,Original*%
%TF.FileFunction,Legend,Bot*%
%TF.FilePolarity,Positive*%
%FSLAX46Y46*%
G04 Gerber Fmt 4.6, Leading zero omitted, Abs format (unit mm)*
G04 Created by KiCad (PCBNEW (7.0.0)) date 2023-08-04 18:21:46*
%MOMM*%
%LPD*%
G01*
G04 APERTURE LIST*
%ADD10C,0.150000*%
%ADD11C,0.100000*%
%ADD12C,0.120000*%
G04 APERTURE END LIST*
D10*
X188515048Y-90045380D02*
X188515048Y-90759666D01*
X188515048Y-90759666D02*
X188562667Y-90902523D01*
X188562667Y-90902523D02*
X188657905Y-90997761D01*
X188657905Y-90997761D02*
X188800762Y-91045380D01*
X188800762Y-91045380D02*
X188896000Y-91045380D01*
X187562667Y-91045380D02*
X188038857Y-91045380D01*
X188038857Y-91045380D02*
X188038857Y-90045380D01*
X186657905Y-90950142D02*
X186705524Y-90997761D01*
X186705524Y-90997761D02*
X186848381Y-91045380D01*
X186848381Y-91045380D02*
X186943619Y-91045380D01*
X186943619Y-91045380D02*
X187086476Y-90997761D01*
X187086476Y-90997761D02*
X187181714Y-90902523D01*
X187181714Y-90902523D02*
X187229333Y-90807285D01*
X187229333Y-90807285D02*
X187276952Y-90616809D01*
X187276952Y-90616809D02*
X187276952Y-90473952D01*
X187276952Y-90473952D02*
X187229333Y-90283476D01*
X187229333Y-90283476D02*
X187181714Y-90188238D01*
X187181714Y-90188238D02*
X187086476Y-90093000D01*
X187086476Y-90093000D02*
X186943619Y-90045380D01*
X186943619Y-90045380D02*
X186848381Y-90045380D01*
X186848381Y-90045380D02*
X186705524Y-90093000D01*
X186705524Y-90093000D02*
X186657905Y-90140619D01*
X185943619Y-90045380D02*
X185943619Y-90759666D01*
X185943619Y-90759666D02*
X185991238Y-90902523D01*
X185991238Y-90902523D02*
X186086476Y-90997761D01*
X186086476Y-90997761D02*
X186229333Y-91045380D01*
X186229333Y-91045380D02*
X186324571Y-91045380D01*
X184991238Y-91045380D02*
X185467428Y-91045380D01*
X185467428Y-91045380D02*
X185467428Y-90045380D01*
X184086476Y-90950142D02*
X184134095Y-90997761D01*
X184134095Y-90997761D02*
X184276952Y-91045380D01*
X184276952Y-91045380D02*
X184372190Y-91045380D01*
X184372190Y-91045380D02*
X184515047Y-90997761D01*
X184515047Y-90997761D02*
X184610285Y-90902523D01*
X184610285Y-90902523D02*
X184657904Y-90807285D01*
X184657904Y-90807285D02*
X184705523Y-90616809D01*
X184705523Y-90616809D02*
X184705523Y-90473952D01*
X184705523Y-90473952D02*
X184657904Y-90283476D01*
X184657904Y-90283476D02*
X184610285Y-90188238D01*
X184610285Y-90188238D02*
X184515047Y-90093000D01*
X184515047Y-90093000D02*
X184372190Y-90045380D01*
X184372190Y-90045380D02*
X184276952Y-90045380D01*
X184276952Y-90045380D02*
X184134095Y-90093000D01*
X184134095Y-90093000D02*
X184086476Y-90140619D01*
X183372190Y-90045380D02*
X183372190Y-90759666D01*
X183372190Y-90759666D02*
X183419809Y-90902523D01*
X183419809Y-90902523D02*
X183515047Y-90997761D01*
X183515047Y-90997761D02*
X183657904Y-91045380D01*
X183657904Y-91045380D02*
X183753142Y-91045380D01*
X182419809Y-91045380D02*
X182895999Y-91045380D01*
X182895999Y-91045380D02*
X182895999Y-90045380D01*
X181515047Y-90950142D02*
X181562666Y-90997761D01*
X181562666Y-90997761D02*
X181705523Y-91045380D01*
X181705523Y-91045380D02*
X181800761Y-91045380D01*
X181800761Y-91045380D02*
X181943618Y-90997761D01*
X181943618Y-90997761D02*
X182038856Y-90902523D01*
X182038856Y-90902523D02*
X182086475Y-90807285D01*
X182086475Y-90807285D02*
X182134094Y-90616809D01*
X182134094Y-90616809D02*
X182134094Y-90473952D01*
X182134094Y-90473952D02*
X182086475Y-90283476D01*
X182086475Y-90283476D02*
X182038856Y-90188238D01*
X182038856Y-90188238D02*
X181943618Y-90093000D01*
X181943618Y-90093000D02*
X181800761Y-90045380D01*
X181800761Y-90045380D02*
X181705523Y-90045380D01*
X181705523Y-90045380D02*
X181562666Y-90093000D01*
X181562666Y-90093000D02*
X181515047Y-90140619D01*
X180800761Y-90045380D02*
X180800761Y-90759666D01*
X180800761Y-90759666D02*
X180848380Y-90902523D01*
X180848380Y-90902523D02*
X180943618Y-90997761D01*
X180943618Y-90997761D02*
X181086475Y-91045380D01*
X181086475Y-91045380D02*
X181181713Y-91045380D01*
X179848380Y-91045380D02*
X180324570Y-91045380D01*
X180324570Y-91045380D02*
X180324570Y-90045380D01*
X178943618Y-90950142D02*
X178991237Y-90997761D01*
X178991237Y-90997761D02*
X179134094Y-91045380D01*
X179134094Y-91045380D02*
X179229332Y-91045380D01*
X179229332Y-91045380D02*
X179372189Y-90997761D01*
X179372189Y-90997761D02*
X179467427Y-90902523D01*
X179467427Y-90902523D02*
X179515046Y-90807285D01*
X179515046Y-90807285D02*
X179562665Y-90616809D01*
X179562665Y-90616809D02*
X179562665Y-90473952D01*
X179562665Y-90473952D02*
X179515046Y-90283476D01*
X179515046Y-90283476D02*
X179467427Y-90188238D01*
X179467427Y-90188238D02*
X179372189Y-90093000D01*
X179372189Y-90093000D02*
X179229332Y-90045380D01*
X179229332Y-90045380D02*
X179134094Y-90045380D01*
X179134094Y-90045380D02*
X178991237Y-90093000D01*
X178991237Y-90093000D02*
X178943618Y-90140619D01*
D11*
X171774373Y-95926466D02*
X172791319Y-96076500D01*
X172791319Y-96076500D02*
X172096353Y-96328505D01*
X172096353Y-96328505D02*
X172824522Y-96456002D01*
X172824522Y-96456002D02*
X171849078Y-96780347D01*
X172878475Y-97072694D02*
X171882280Y-97159850D01*
X172915828Y-97499635D02*
X172394011Y-97545288D01*
X172394011Y-97545288D02*
X172294985Y-97506150D01*
X172294985Y-97506150D02*
X172239247Y-97415425D01*
X172239247Y-97415425D02*
X172226796Y-97273111D01*
X172226796Y-97273111D02*
X172265933Y-97174086D01*
X172265933Y-97174086D02*
X172309221Y-97122497D01*
X172943095Y-98357666D02*
X172982232Y-98258640D01*
X172982232Y-98258640D02*
X172965631Y-98068889D01*
X172965631Y-98068889D02*
X172909893Y-97978163D01*
X172909893Y-97978163D02*
X172810867Y-97939026D01*
X172810867Y-97939026D02*
X172431364Y-97972228D01*
X172431364Y-97972228D02*
X172340638Y-98027967D01*
X172340638Y-98027967D02*
X172301501Y-98126993D01*
X172301501Y-98126993D02*
X172318102Y-98316744D01*
X172318102Y-98316744D02*
X172373841Y-98407470D01*
X172373841Y-98407470D02*
X172472867Y-98446607D01*
X172472867Y-98446607D02*
X172567742Y-98438306D01*
X172567742Y-98438306D02*
X172621115Y-97955627D01*
X173032035Y-98827895D02*
X172367905Y-98885998D01*
X172557657Y-98869397D02*
X172466931Y-98925136D01*
X172466931Y-98925136D02*
X172423644Y-98976724D01*
X172423644Y-98976724D02*
X172384507Y-99075750D01*
X172384507Y-99075750D02*
X172392807Y-99170625D01*
X173071753Y-99828240D02*
X173110891Y-99729214D01*
X173110891Y-99729214D02*
X173094289Y-99539463D01*
X173094289Y-99539463D02*
X173038551Y-99448737D01*
X173038551Y-99448737D02*
X172939525Y-99409600D01*
X172939525Y-99409600D02*
X172560022Y-99442802D01*
X172560022Y-99442802D02*
X172469297Y-99498540D01*
X172469297Y-99498540D02*
X172430160Y-99597566D01*
X172430160Y-99597566D02*
X172446761Y-99787318D01*
X172446761Y-99787318D02*
X172502499Y-99878043D01*
X172502499Y-99878043D02*
X172601525Y-99917180D01*
X172601525Y-99917180D02*
X172696401Y-99908880D01*
X172696401Y-99908880D02*
X172749774Y-99426201D01*
X172536407Y-100811975D02*
X172569609Y-101191478D01*
X172216793Y-100983341D02*
X173070674Y-100908636D01*
X173070674Y-100908636D02*
X173169700Y-100947773D01*
X173169700Y-100947773D02*
X173225438Y-101038499D01*
X173225438Y-101038499D02*
X173233739Y-101133374D01*
X173262791Y-101465440D02*
X172266596Y-101552595D01*
X173300143Y-101892380D02*
X172778327Y-101938033D01*
X172778327Y-101938033D02*
X172679301Y-101898896D01*
X172679301Y-101898896D02*
X172623562Y-101808170D01*
X172623562Y-101808170D02*
X172611112Y-101665857D01*
X172611112Y-101665857D02*
X172650249Y-101566831D01*
X172650249Y-101566831D02*
X172693536Y-101515243D01*
X173327410Y-102750412D02*
X173366547Y-102651386D01*
X173366547Y-102651386D02*
X173349946Y-102461634D01*
X173349946Y-102461634D02*
X173294208Y-102370909D01*
X173294208Y-102370909D02*
X173195182Y-102331772D01*
X173195182Y-102331772D02*
X172815679Y-102364974D01*
X172815679Y-102364974D02*
X172724954Y-102420712D01*
X172724954Y-102420712D02*
X172685817Y-102519738D01*
X172685817Y-102519738D02*
X172702418Y-102709490D01*
X172702418Y-102709490D02*
X172758156Y-102800215D01*
X172758156Y-102800215D02*
X172857182Y-102839352D01*
X172857182Y-102839352D02*
X172952058Y-102831052D01*
X172952058Y-102831052D02*
X173005431Y-102348373D01*
X173454408Y-104202010D02*
X173493546Y-104102984D01*
X173493546Y-104102984D02*
X173476945Y-103913232D01*
X173476945Y-103913232D02*
X173421206Y-103822507D01*
X173421206Y-103822507D02*
X173322180Y-103783370D01*
X173322180Y-103783370D02*
X172942678Y-103816572D01*
X172942678Y-103816572D02*
X172851952Y-103872310D01*
X172851952Y-103872310D02*
X172812815Y-103971336D01*
X172812815Y-103971336D02*
X172829416Y-104161088D01*
X172829416Y-104161088D02*
X172885154Y-104251813D01*
X172885154Y-104251813D02*
X172984180Y-104290950D01*
X172984180Y-104290950D02*
X173079056Y-104282650D01*
X173079056Y-104282650D02*
X173132429Y-103799971D01*
X173555800Y-104814552D02*
X173500062Y-104723826D01*
X173500062Y-104723826D02*
X173401036Y-104684689D01*
X173401036Y-104684689D02*
X172547154Y-104759394D01*
X173574766Y-105577708D02*
X173613904Y-105478682D01*
X173613904Y-105478682D02*
X173597303Y-105288931D01*
X173597303Y-105288931D02*
X173541564Y-105198205D01*
X173541564Y-105198205D02*
X173442538Y-105159068D01*
X173442538Y-105159068D02*
X173063036Y-105192270D01*
X173063036Y-105192270D02*
X172972310Y-105248008D01*
X172972310Y-105248008D02*
X172933173Y-105347034D01*
X172933173Y-105347034D02*
X172949774Y-105536786D01*
X172949774Y-105536786D02*
X173005512Y-105627511D01*
X173005512Y-105627511D02*
X173104538Y-105666648D01*
X173104538Y-105666648D02*
X173199414Y-105658348D01*
X173199414Y-105658348D02*
X173252787Y-105175669D01*
X173653622Y-106479027D02*
X173692759Y-106380001D01*
X173692759Y-106380001D02*
X173676158Y-106190250D01*
X173676158Y-106190250D02*
X173620420Y-106099524D01*
X173620420Y-106099524D02*
X173568831Y-106056237D01*
X173568831Y-106056237D02*
X173469805Y-106017099D01*
X173469805Y-106017099D02*
X173185178Y-106042001D01*
X173185178Y-106042001D02*
X173094453Y-106097739D01*
X173094453Y-106097739D02*
X173051165Y-106149328D01*
X173051165Y-106149328D02*
X173012028Y-106248353D01*
X173012028Y-106248353D02*
X173028629Y-106438105D01*
X173028629Y-106438105D02*
X173084368Y-106528830D01*
X173061831Y-106817608D02*
X173095034Y-107197110D01*
X172742217Y-106988973D02*
X173596098Y-106914268D01*
X173596098Y-106914268D02*
X173695124Y-106953406D01*
X173695124Y-106953406D02*
X173750863Y-107044131D01*
X173750863Y-107044131D02*
X173759163Y-107139007D01*
X173788215Y-107471072D02*
X173124086Y-107529176D01*
X173313837Y-107512575D02*
X173223111Y-107568313D01*
X173223111Y-107568313D02*
X173179824Y-107619901D01*
X173179824Y-107619901D02*
X173140687Y-107718927D01*
X173140687Y-107718927D02*
X173148987Y-107813803D01*
X173854620Y-108230078D02*
X173798881Y-108139352D01*
X173798881Y-108139352D02*
X173747293Y-108096065D01*
X173747293Y-108096065D02*
X173648267Y-108056928D01*
X173648267Y-108056928D02*
X173363640Y-108081829D01*
X173363640Y-108081829D02*
X173272915Y-108137568D01*
X173272915Y-108137568D02*
X173229627Y-108189156D01*
X173229627Y-108189156D02*
X173190490Y-108288182D01*
X173190490Y-108288182D02*
X173202941Y-108430495D01*
X173202941Y-108430495D02*
X173258679Y-108521221D01*
X173258679Y-108521221D02*
X173310267Y-108564508D01*
X173310267Y-108564508D02*
X173409293Y-108603645D01*
X173409293Y-108603645D02*
X173693920Y-108578744D01*
X173693920Y-108578744D02*
X173784646Y-108523005D01*
X173784646Y-108523005D02*
X173827933Y-108471417D01*
X173827933Y-108471417D02*
X173867071Y-108372391D01*
X173867071Y-108372391D02*
X173854620Y-108230078D01*
X173256894Y-109047187D02*
X173921024Y-108989083D01*
X173351770Y-109038887D02*
X173308482Y-109090475D01*
X173308482Y-109090475D02*
X173269345Y-109189501D01*
X173269345Y-109189501D02*
X173281796Y-109331814D01*
X173281796Y-109331814D02*
X173337534Y-109422540D01*
X173337534Y-109422540D02*
X173436560Y-109461677D01*
X173436560Y-109461677D02*
X173958377Y-109416024D01*
X173948291Y-109847115D02*
X174004030Y-109937840D01*
X174004030Y-109937840D02*
X174020631Y-110127592D01*
X174020631Y-110127592D02*
X173981493Y-110226618D01*
X173981493Y-110226618D02*
X173890768Y-110282356D01*
X173890768Y-110282356D02*
X173843330Y-110286506D01*
X173843330Y-110286506D02*
X173744304Y-110247369D01*
X173744304Y-110247369D02*
X173688566Y-110156644D01*
X173688566Y-110156644D02*
X173676115Y-110014330D01*
X173676115Y-110014330D02*
X173620377Y-109923605D01*
X173620377Y-109923605D02*
X173521351Y-109884467D01*
X173521351Y-109884467D02*
X173473913Y-109888618D01*
X173473913Y-109888618D02*
X173383187Y-109944356D01*
X173383187Y-109944356D02*
X173344050Y-110043382D01*
X173344050Y-110043382D02*
X173356501Y-110185696D01*
X173356501Y-110185696D02*
X173412239Y-110276421D01*
X174122727Y-111294563D02*
X173458598Y-111352667D01*
X173648349Y-111336066D02*
X173557624Y-111391804D01*
X173557624Y-111391804D02*
X173514336Y-111443392D01*
X173514336Y-111443392D02*
X173475199Y-111542418D01*
X173475199Y-111542418D02*
X173483499Y-111637294D01*
X174189132Y-112053569D02*
X174133393Y-111962843D01*
X174133393Y-111962843D02*
X174081805Y-111919556D01*
X174081805Y-111919556D02*
X173982779Y-111880418D01*
X173982779Y-111880418D02*
X173698152Y-111905320D01*
X173698152Y-111905320D02*
X173607427Y-111961058D01*
X173607427Y-111961058D02*
X173564139Y-112012647D01*
X173564139Y-112012647D02*
X173525002Y-112111673D01*
X173525002Y-112111673D02*
X173537453Y-112253986D01*
X173537453Y-112253986D02*
X173593191Y-112344712D01*
X173593191Y-112344712D02*
X173644779Y-112387999D01*
X173644779Y-112387999D02*
X173743805Y-112427136D01*
X173743805Y-112427136D02*
X174028432Y-112402235D01*
X174028432Y-112402235D02*
X174119158Y-112346496D01*
X174119158Y-112346496D02*
X174162445Y-112294908D01*
X174162445Y-112294908D02*
X174201583Y-112195882D01*
X174201583Y-112195882D02*
X174189132Y-112053569D01*
X174292889Y-113239515D02*
X173771072Y-113285168D01*
X173771072Y-113285168D02*
X173672046Y-113246031D01*
X173672046Y-113246031D02*
X173616308Y-113155305D01*
X173616308Y-113155305D02*
X173599707Y-112965554D01*
X173599707Y-112965554D02*
X173638844Y-112866528D01*
X174245451Y-113243665D02*
X174284588Y-113144639D01*
X174284588Y-113144639D02*
X174263837Y-112907450D01*
X174263837Y-112907450D02*
X174208098Y-112816725D01*
X174208098Y-112816725D02*
X174109072Y-112777587D01*
X174109072Y-112777587D02*
X174014197Y-112785888D01*
X174014197Y-112785888D02*
X173923471Y-112841626D01*
X173923471Y-112841626D02*
X173884334Y-112940652D01*
X173884334Y-112940652D02*
X173905085Y-113177841D01*
X173905085Y-113177841D02*
X173865948Y-113276867D01*
X174334391Y-113713893D02*
X173670262Y-113771997D01*
X173765137Y-113763697D02*
X173721850Y-113815285D01*
X173721850Y-113815285D02*
X173682712Y-113914311D01*
X173682712Y-113914311D02*
X173695163Y-114056624D01*
X173695163Y-114056624D02*
X173750902Y-114147350D01*
X173750902Y-114147350D02*
X173849928Y-114186487D01*
X173849928Y-114186487D02*
X174371744Y-114140834D01*
X173849928Y-114186487D02*
X173759202Y-114242225D01*
X173759202Y-114242225D02*
X173720065Y-114341251D01*
X173720065Y-114341251D02*
X173732516Y-114483565D01*
X173732516Y-114483565D02*
X173788254Y-114574290D01*
X173788254Y-114574290D02*
X173887280Y-114613428D01*
X173887280Y-114613428D02*
X174409096Y-114567775D01*
D10*
%TO.C,J3*%
X160276380Y-119427666D02*
X160990666Y-119427666D01*
X160990666Y-119427666D02*
X161133523Y-119380047D01*
X161133523Y-119380047D02*
X161228761Y-119284809D01*
X161228761Y-119284809D02*
X161276380Y-119141952D01*
X161276380Y-119141952D02*
X161276380Y-119046714D01*
X160276380Y-119808619D02*
X160276380Y-120427666D01*
X160276380Y-120427666D02*
X160657333Y-120094333D01*
X160657333Y-120094333D02*
X160657333Y-120237190D01*
X160657333Y-120237190D02*
X160704952Y-120332428D01*
X160704952Y-120332428D02*
X160752571Y-120380047D01*
X160752571Y-120380047D02*
X160847809Y-120427666D01*
X160847809Y-120427666D02*
X161085904Y-120427666D01*
X161085904Y-120427666D02*
X161181142Y-120380047D01*
X161181142Y-120380047D02*
X161228761Y-120332428D01*
X161228761Y-120332428D02*
X161276380Y-120237190D01*
X161276380Y-120237190D02*
X161276380Y-119951476D01*
X161276380Y-119951476D02*
X161228761Y-119856238D01*
X161228761Y-119856238D02*
X161181142Y-119808619D01*
%TO.C,J2*%
X157609380Y-119427666D02*
X158323666Y-119427666D01*
X158323666Y-119427666D02*
X158466523Y-119380047D01*
X158466523Y-119380047D02*
X158561761Y-119284809D01*
X158561761Y-119284809D02*
X158609380Y-119141952D01*
X158609380Y-119141952D02*
X158609380Y-119046714D01*
X157704619Y-119856238D02*
X157657000Y-119903857D01*
X157657000Y-119903857D02*
X157609380Y-119999095D01*
X157609380Y-119999095D02*
X157609380Y-120237190D01*
X157609380Y-120237190D02*
X157657000Y-120332428D01*
X157657000Y-120332428D02*
X157704619Y-120380047D01*
X157704619Y-120380047D02*
X157799857Y-120427666D01*
X157799857Y-120427666D02*
X157895095Y-120427666D01*
X157895095Y-120427666D02*
X158037952Y-120380047D01*
X158037952Y-120380047D02*
X158609380Y-119808619D01*
X158609380Y-119808619D02*
X158609380Y-120427666D01*
%TO.C,J11*%
X129079523Y-95252380D02*
X129079523Y-95966666D01*
X129079523Y-95966666D02*
X129127142Y-96109523D01*
X129127142Y-96109523D02*
X129222380Y-96204761D01*
X129222380Y-96204761D02*
X129365237Y-96252380D01*
X129365237Y-96252380D02*
X129460475Y-96252380D01*
X128079523Y-96252380D02*
X128650951Y-96252380D01*
X128365237Y-96252380D02*
X128365237Y-95252380D01*
X128365237Y-95252380D02*
X128460475Y-95395238D01*
X128460475Y-95395238D02*
X128555713Y-95490476D01*
X128555713Y-95490476D02*
X128650951Y-95538095D01*
X127127142Y-96252380D02*
X127698570Y-96252380D01*
X127412856Y-96252380D02*
X127412856Y-95252380D01*
X127412856Y-95252380D02*
X127508094Y-95395238D01*
X127508094Y-95395238D02*
X127603332Y-95490476D01*
X127603332Y-95490476D02*
X127698570Y-95538095D01*
%TO.C,J1*%
X155069380Y-119554666D02*
X155783666Y-119554666D01*
X155783666Y-119554666D02*
X155926523Y-119507047D01*
X155926523Y-119507047D02*
X156021761Y-119411809D01*
X156021761Y-119411809D02*
X156069380Y-119268952D01*
X156069380Y-119268952D02*
X156069380Y-119173714D01*
X156069380Y-120554666D02*
X156069380Y-119983238D01*
X156069380Y-120268952D02*
X155069380Y-120268952D01*
X155069380Y-120268952D02*
X155212238Y-120173714D01*
X155212238Y-120173714D02*
X155307476Y-120078476D01*
X155307476Y-120078476D02*
X155355095Y-119983238D01*
%TO.C,J7*%
X128095333Y-90426380D02*
X128095333Y-91140666D01*
X128095333Y-91140666D02*
X128142952Y-91283523D01*
X128142952Y-91283523D02*
X128238190Y-91378761D01*
X128238190Y-91378761D02*
X128381047Y-91426380D01*
X128381047Y-91426380D02*
X128476285Y-91426380D01*
X127714380Y-90426380D02*
X127047714Y-90426380D01*
X127047714Y-90426380D02*
X127476285Y-91426380D01*
%TO.C,J8*%
X128222333Y-92966380D02*
X128222333Y-93680666D01*
X128222333Y-93680666D02*
X128269952Y-93823523D01*
X128269952Y-93823523D02*
X128365190Y-93918761D01*
X128365190Y-93918761D02*
X128508047Y-93966380D01*
X128508047Y-93966380D02*
X128603285Y-93966380D01*
X127603285Y-93394952D02*
X127698523Y-93347333D01*
X127698523Y-93347333D02*
X127746142Y-93299714D01*
X127746142Y-93299714D02*
X127793761Y-93204476D01*
X127793761Y-93204476D02*
X127793761Y-93156857D01*
X127793761Y-93156857D02*
X127746142Y-93061619D01*
X127746142Y-93061619D02*
X127698523Y-93014000D01*
X127698523Y-93014000D02*
X127603285Y-92966380D01*
X127603285Y-92966380D02*
X127412809Y-92966380D01*
X127412809Y-92966380D02*
X127317571Y-93014000D01*
X127317571Y-93014000D02*
X127269952Y-93061619D01*
X127269952Y-93061619D02*
X127222333Y-93156857D01*
X127222333Y-93156857D02*
X127222333Y-93204476D01*
X127222333Y-93204476D02*
X127269952Y-93299714D01*
X127269952Y-93299714D02*
X127317571Y-93347333D01*
X127317571Y-93347333D02*
X127412809Y-93394952D01*
X127412809Y-93394952D02*
X127603285Y-93394952D01*
X127603285Y-93394952D02*
X127698523Y-93442571D01*
X127698523Y-93442571D02*
X127746142Y-93490190D01*
X127746142Y-93490190D02*
X127793761Y-93585428D01*
X127793761Y-93585428D02*
X127793761Y-93775904D01*
X127793761Y-93775904D02*
X127746142Y-93871142D01*
X127746142Y-93871142D02*
X127698523Y-93918761D01*
X127698523Y-93918761D02*
X127603285Y-93966380D01*
X127603285Y-93966380D02*
X127412809Y-93966380D01*
X127412809Y-93966380D02*
X127317571Y-93918761D01*
X127317571Y-93918761D02*
X127269952Y-93871142D01*
X127269952Y-93871142D02*
X127222333Y-93775904D01*
X127222333Y-93775904D02*
X127222333Y-93585428D01*
X127222333Y-93585428D02*
X127269952Y-93490190D01*
X127269952Y-93490190D02*
X127317571Y-93442571D01*
X127317571Y-93442571D02*
X127412809Y-93394952D01*
%TO.C,J6*%
X127968333Y-87632380D02*
X127968333Y-88346666D01*
X127968333Y-88346666D02*
X128015952Y-88489523D01*
X128015952Y-88489523D02*
X128111190Y-88584761D01*
X128111190Y-88584761D02*
X128254047Y-88632380D01*
X128254047Y-88632380D02*
X128349285Y-88632380D01*
X127063571Y-87632380D02*
X127254047Y-87632380D01*
X127254047Y-87632380D02*
X127349285Y-87680000D01*
X127349285Y-87680000D02*
X127396904Y-87727619D01*
X127396904Y-87727619D02*
X127492142Y-87870476D01*
X127492142Y-87870476D02*
X127539761Y-88060952D01*
X127539761Y-88060952D02*
X127539761Y-88441904D01*
X127539761Y-88441904D02*
X127492142Y-88537142D01*
X127492142Y-88537142D02*
X127444523Y-88584761D01*
X127444523Y-88584761D02*
X127349285Y-88632380D01*
X127349285Y-88632380D02*
X127158809Y-88632380D01*
X127158809Y-88632380D02*
X127063571Y-88584761D01*
X127063571Y-88584761D02*
X127015952Y-88537142D01*
X127015952Y-88537142D02*
X126968333Y-88441904D01*
X126968333Y-88441904D02*
X126968333Y-88203809D01*
X126968333Y-88203809D02*
X127015952Y-88108571D01*
X127015952Y-88108571D02*
X127063571Y-88060952D01*
X127063571Y-88060952D02*
X127158809Y-88013333D01*
X127158809Y-88013333D02*
X127349285Y-88013333D01*
X127349285Y-88013333D02*
X127444523Y-88060952D01*
X127444523Y-88060952D02*
X127492142Y-88108571D01*
X127492142Y-88108571D02*
X127539761Y-88203809D01*
%TO.C,J5*%
X164467380Y-119427666D02*
X165181666Y-119427666D01*
X165181666Y-119427666D02*
X165324523Y-119380047D01*
X165324523Y-119380047D02*
X165419761Y-119284809D01*
X165419761Y-119284809D02*
X165467380Y-119141952D01*
X165467380Y-119141952D02*
X165467380Y-119046714D01*
X164467380Y-120380047D02*
X164467380Y-119903857D01*
X164467380Y-119903857D02*
X164943571Y-119856238D01*
X164943571Y-119856238D02*
X164895952Y-119903857D01*
X164895952Y-119903857D02*
X164848333Y-119999095D01*
X164848333Y-119999095D02*
X164848333Y-120237190D01*
X164848333Y-120237190D02*
X164895952Y-120332428D01*
X164895952Y-120332428D02*
X164943571Y-120380047D01*
X164943571Y-120380047D02*
X165038809Y-120427666D01*
X165038809Y-120427666D02*
X165276904Y-120427666D01*
X165276904Y-120427666D02*
X165372142Y-120380047D01*
X165372142Y-120380047D02*
X165419761Y-120332428D01*
X165419761Y-120332428D02*
X165467380Y-120237190D01*
X165467380Y-120237190D02*
X165467380Y-119999095D01*
X165467380Y-119999095D02*
X165419761Y-119903857D01*
X165419761Y-119903857D02*
X165372142Y-119856238D01*
%TO.C,J4*%
X162816380Y-119427666D02*
X163530666Y-119427666D01*
X163530666Y-119427666D02*
X163673523Y-119380047D01*
X163673523Y-119380047D02*
X163768761Y-119284809D01*
X163768761Y-119284809D02*
X163816380Y-119141952D01*
X163816380Y-119141952D02*
X163816380Y-119046714D01*
X163149714Y-120332428D02*
X163816380Y-120332428D01*
X162768761Y-120094333D02*
X163483047Y-119856238D01*
X163483047Y-119856238D02*
X163483047Y-120475285D01*
D12*
%TO.C,U18*%
X117345800Y-105788000D02*
X117345800Y-126365000D01*
X117345800Y-126365000D02*
X127545800Y-126365000D01*
X119765800Y-105965000D02*
X119765800Y-126365000D01*
X119765800Y-126238000D02*
X125132800Y-126238000D01*
X125132800Y-105918000D02*
X119799801Y-105918000D01*
X125175800Y-126365000D02*
X125175800Y-105838000D01*
X127545800Y-105788000D02*
X117345800Y-105788000D01*
X127555800Y-126365000D02*
X127555800Y-105798000D01*
X121481798Y-105918000D02*
G75*
G03*
X123481800Y-105918000I1000001J0D01*
G01*
%TO.C,U7*%
X135125800Y-54988000D02*
X135125800Y-75565000D01*
X135125800Y-75565000D02*
X145325800Y-75565000D01*
X137545800Y-55165000D02*
X137545800Y-75565000D01*
X137545800Y-75438000D02*
X142912800Y-75438000D01*
X142912800Y-55118000D02*
X137579801Y-55118000D01*
X142955800Y-75565000D02*
X142955800Y-55038000D01*
X145325800Y-54988000D02*
X135125800Y-54988000D01*
X145335800Y-75565000D02*
X145335800Y-54998000D01*
X139261798Y-55118000D02*
G75*
G03*
X141261800Y-55118000I1000001J0D01*
G01*
%TO.C,J3*%
X160041600Y-120929300D02*
X160041600Y-125171100D01*
X161210000Y-120929300D02*
X160041600Y-120929300D01*
X160041600Y-125171100D02*
X161210000Y-125171100D01*
X161210000Y-125171100D02*
X161210000Y-120929300D01*
X160041600Y-125348900D02*
X161210000Y-125348900D01*
%TO.C,J2*%
X157531600Y-120929300D02*
X157531600Y-125171100D01*
X158700000Y-120929300D02*
X157531600Y-120929300D01*
X157531600Y-125171100D02*
X158700000Y-125171100D01*
X158700000Y-125171100D02*
X158700000Y-120929300D01*
X157531600Y-125348900D02*
X158700000Y-125348900D01*
%TO.C,J11*%
X126199500Y-95173800D02*
X121957700Y-95173800D01*
X126199500Y-96342200D02*
X126199500Y-95173800D01*
X121957700Y-95173800D02*
X121957700Y-96342200D01*
X121957700Y-96342200D02*
X126199500Y-96342200D01*
X121779900Y-95173800D02*
X121779900Y-96342200D01*
%TO.C,J1*%
X155021600Y-120929300D02*
X155021600Y-125171100D01*
X156190000Y-120929300D02*
X155021600Y-120929300D01*
X155021600Y-125171100D02*
X156190000Y-125171100D01*
X156190000Y-125171100D02*
X156190000Y-120929300D01*
X155021600Y-125348900D02*
X156190000Y-125348900D01*
%TO.C,J7*%
X126199500Y-90153800D02*
X121957700Y-90153800D01*
X126199500Y-91322200D02*
X126199500Y-90153800D01*
X121957700Y-90153800D02*
X121957700Y-91322200D01*
X121957700Y-91322200D02*
X126199500Y-91322200D01*
X121779900Y-90153800D02*
X121779900Y-91322200D01*
%TO.C,J8*%
X126199500Y-92663800D02*
X121957700Y-92663800D01*
X126199500Y-93832200D02*
X126199500Y-92663800D01*
X121957700Y-92663800D02*
X121957700Y-93832200D01*
X121957700Y-93832200D02*
X126199500Y-93832200D01*
X121779900Y-92663800D02*
X121779900Y-93832200D01*
%TO.C,J6*%
X126199500Y-87643800D02*
X121957700Y-87643800D01*
X126199500Y-88812200D02*
X126199500Y-87643800D01*
X121957700Y-87643800D02*
X121957700Y-88812200D01*
X121957700Y-88812200D02*
X126199500Y-88812200D01*
X121779900Y-87643800D02*
X121779900Y-88812200D01*
%TO.C,J5*%
X164388800Y-120929300D02*
X164388800Y-125171100D01*
X165557200Y-120929300D02*
X164388800Y-120929300D01*
X164388800Y-125171100D02*
X165557200Y-125171100D01*
X165557200Y-125171100D02*
X165557200Y-120929300D01*
X164388800Y-125348900D02*
X165557200Y-125348900D01*
%TO.C,J4*%
X162551600Y-120929300D02*
X162551600Y-125171100D01*
X163720000Y-120929300D02*
X162551600Y-120929300D01*
X162551600Y-125171100D02*
X163720000Y-125171100D01*
X163720000Y-125171100D02*
X163720000Y-120929300D01*
X162551600Y-125348900D02*
X163720000Y-125348900D01*
%TD*%
M02*
