M48
; DRILL file {KiCad 9.0.5} date 2026-01-02T17:42:38+0000
; FORMAT={-:-/ absolute / metric / decimal}
; #@! TF.CreationDate,2026-01-02T17:42:38+00:00
; #@! TF.GenerationSoftware,Kicad,Pcbnew,9.0.5
; #@! TF.FileFunction,Plated,1,2,PTH
FMAT,2
METRIC
; #@! TA.AperFunction,Plated,PTH,ViaDrill
T1C0.400
; #@! TA.AperFunction,Plated,PTH,ComponentDrill
T2C0.800
%
G90
G05
T1
X122.523Y-89.483
X126.539Y-83.622
X126.708Y-95.398
X127.842Y-86.495
X128.181Y-105.959
X128.617Y-87.27
X129.614Y-85.092
X130.518Y-94.554
X131.696Y-97.696
X132.09Y-99.424
X133.269Y-108.423
X133.762Y-103.788
X133.903Y-78.675
X135.272Y-103.139
X139.265Y-105.997
X140.754Y-122.301
X144.803Y-105.782
X146.301Y-95.903
X147.193Y-123.698
X147.311Y-104.261
X148.191Y-116.504
X151.136Y-103.139
X154.323Y-114.035
X154.436Y-118.473
X155.234Y-112.151
X155.593Y-116.191
X156.09Y-108.539
X156.254Y-112.103
X156.751Y-110.753
X158.652Y-110.622
X158.665Y-112.417
X158.769Y-102.999
X159.04Y-101.655
X159.311Y-109.087
X159.371Y-121.488
X159.423Y-124.714
X159.568Y-104.721
X159.931Y-102.108
X161.184Y-102.832
X162.845Y-120.215
X162.884Y-97.278
X164.046Y-124.638
X165.137Y-120.198
X175.831Y-106.134
T2
X118.656Y-107.188
X118.656Y-109.728
X118.656Y-112.268
X118.656Y-114.808
X118.656Y-117.348
X118.656Y-119.888
X118.656Y-122.428
X118.656Y-124.968
X121.45Y-107.188
X121.45Y-109.728
X121.45Y-112.268
X121.45Y-114.808
X121.45Y-117.348
X121.45Y-119.888
X121.45Y-122.428
X121.45Y-124.968
X126.276Y-107.188
X126.276Y-109.728
X126.276Y-112.268
X126.276Y-114.808
X126.276Y-117.348
X126.276Y-119.888
X126.276Y-122.428
X126.276Y-124.968
X129.07Y-107.188
X129.07Y-109.728
X129.07Y-112.268
X129.07Y-114.808
X129.07Y-117.348
X129.07Y-119.888
X129.07Y-122.428
X129.07Y-124.968
X136.436Y-56.388
X136.436Y-58.928
X136.436Y-61.468
X136.436Y-64.008
X136.436Y-66.548
X136.436Y-69.088
X136.436Y-71.628
X136.436Y-74.168
X136.436Y-81.788
X136.436Y-84.328
X136.436Y-86.868
X136.436Y-89.408
X136.436Y-91.948
X136.436Y-94.488
X136.436Y-97.028
X136.436Y-99.568
X136.436Y-107.188
X136.436Y-109.728
X136.436Y-112.268
X136.436Y-114.808
X136.436Y-117.348
X136.436Y-119.888
X136.436Y-122.428
X136.436Y-124.968
X139.23Y-56.388
X139.23Y-58.928
X139.23Y-61.468
X139.23Y-64.008
X139.23Y-66.548
X139.23Y-69.088
X139.23Y-71.628
X139.23Y-74.168
X144.056Y-56.388
X144.056Y-58.928
X144.056Y-61.468
X144.056Y-64.008
X144.056Y-66.548
X144.056Y-69.088
X144.056Y-71.628
X144.056Y-74.168
X144.056Y-81.788
X144.056Y-84.328
X144.056Y-86.868
X144.056Y-89.408
X144.056Y-91.948
X144.056Y-94.488
X144.056Y-97.028
X144.056Y-99.568
X144.056Y-107.188
X144.056Y-109.728
X144.056Y-112.268
X144.056Y-114.808
X144.056Y-117.348
X144.056Y-119.888
X144.056Y-122.428
X144.056Y-124.968
X146.85Y-56.388
X146.85Y-58.928
X146.85Y-61.468
X146.85Y-64.008
X146.85Y-66.548
X146.85Y-69.088
X146.85Y-71.628
X146.85Y-74.168
X152.946Y-91.948
X152.946Y-94.488
X152.946Y-97.028
X152.946Y-99.568
X152.946Y-102.108
X152.946Y-104.648
X152.946Y-107.188
X152.946Y-109.728
X152.946Y-112.268
X152.946Y-114.808
X152.946Y-117.348
X152.946Y-119.888
X152.946Y-122.428
X152.946Y-124.968
X168.186Y-91.948
X168.186Y-94.488
X168.186Y-97.028
X168.186Y-99.568
X168.186Y-102.108
X168.186Y-104.648
X168.186Y-107.188
X168.186Y-109.728
X168.186Y-112.268
X168.186Y-114.808
X168.186Y-117.348
X168.186Y-119.888
X168.186Y-122.428
X168.186Y-124.968
X180.886Y-96.52
X180.886Y-99.06
X180.886Y-101.6
X180.886Y-104.14
X180.886Y-106.68
X180.886Y-109.22
X180.886Y-111.76
X180.886Y-114.3
X180.886Y-116.84
X180.886Y-119.38
X188.506Y-96.52
X188.506Y-99.06
X188.506Y-101.6
X188.506Y-104.14
X188.506Y-106.68
X188.506Y-109.22
X188.506Y-111.76
X188.506Y-114.3
X188.506Y-116.84
X188.506Y-119.38
M30
