%TF.GenerationSoftware,KiCad,Pcbnew,(7.0.0)*%
%TF.CreationDate,2023-08-04T18:21:39+01:00*%
%TF.ProjectId,DataIOROM,44617461-494f-4524-9f4d-2e6b69636164,rev?*%
%TF.SameCoordinates,Original*%
%TF.FileFunction,Drillmap*%
%TF.FilePolarity,Positive*%
%FSLAX45Y45*%
G04 Gerber Fmt 4.5, Leading zero omitted, Abs format (unit mm)*
G04 Created by KiCad (PCBNEW (7.0.0)) date 2023-08-04 18:21:39*
%MOMM*%
%LPD*%
G01*
G04 APERTURE LIST*
%ADD10C,0.100000*%
%ADD11C,0.200000*%
%ADD12C,0.040000*%
%ADD13C,0.080000*%
G04 APERTURE END LIST*
D10*
X11713166Y-12725400D02*
X11713166Y-8556034D01*
X13385800Y-6883400D02*
X11713166Y-8556034D01*
X17805400Y-12192000D02*
X19037300Y-12192000D01*
X17195599Y-12725601D02*
X17805400Y-12192000D01*
X13385800Y-6883400D02*
X13385800Y-5486400D01*
X14859000Y-8826500D02*
X19037300Y-8826500D01*
X14859000Y-5486400D02*
X14859000Y-8826500D01*
X13385800Y-5486400D02*
X14859000Y-5486400D01*
X19037300Y-12192000D02*
X19037300Y-8826500D01*
X11713166Y-12725400D02*
X17195599Y-12725601D01*
D11*
D12*
X12232320Y-8928300D02*
X12272320Y-8968300D01*
X12272320Y-8928300D02*
X12232320Y-8968300D01*
X12633910Y-8342180D02*
X12673910Y-8382180D01*
X12673910Y-8342180D02*
X12633910Y-8382180D01*
X12650760Y-9519760D02*
X12690760Y-9559760D01*
X12690760Y-9519760D02*
X12650760Y-9559760D01*
X12764186Y-8629514D02*
X12804186Y-8669514D01*
X12804186Y-8629514D02*
X12764186Y-8669514D01*
X12798080Y-10575900D02*
X12838080Y-10615900D01*
X12838080Y-10575900D02*
X12798080Y-10615900D01*
X12841661Y-8706989D02*
X12881661Y-8746989D01*
X12881661Y-8706989D02*
X12841661Y-8746989D01*
X12941389Y-8489239D02*
X12981389Y-8529239D01*
X12981389Y-8489239D02*
X12941389Y-8529239D01*
X13031800Y-9435380D02*
X13071800Y-9475380D01*
X13071800Y-9435380D02*
X13031800Y-9475380D01*
X13149565Y-9749555D02*
X13189565Y-9789555D01*
X13189565Y-9749555D02*
X13149565Y-9789555D01*
X13188980Y-9922410D02*
X13228980Y-9962410D01*
X13228980Y-9922410D02*
X13188980Y-9962410D01*
X13306910Y-10822280D02*
X13346910Y-10862280D01*
X13346910Y-10822280D02*
X13306910Y-10862280D01*
X13356249Y-10358850D02*
X13396249Y-10398850D01*
X13396249Y-10358850D02*
X13356249Y-10398850D01*
X13370270Y-7847540D02*
X13410270Y-7887540D01*
X13410270Y-7847540D02*
X13370270Y-7887540D01*
X13507240Y-10293870D02*
X13547240Y-10333870D01*
X13547240Y-10293870D02*
X13507240Y-10333870D01*
X13906464Y-10579706D02*
X13946464Y-10619706D01*
X13946464Y-10579706D02*
X13906464Y-10619706D01*
X14055380Y-12210100D02*
X14095380Y-12250100D01*
X14095380Y-12210100D02*
X14055380Y-12250100D01*
X14460320Y-10558200D02*
X14500320Y-10598200D01*
X14500320Y-10558200D02*
X14460320Y-10598200D01*
X14610100Y-9570260D02*
X14650100Y-9610260D01*
X14650100Y-9570260D02*
X14610100Y-9610260D01*
X14699300Y-12349800D02*
X14739300Y-12389800D01*
X14739300Y-12349800D02*
X14699300Y-12389800D01*
X14711080Y-10406120D02*
X14751080Y-10446120D01*
X14751080Y-10406120D02*
X14711080Y-10446120D01*
X14799110Y-11630370D02*
X14839110Y-11670370D01*
X14839110Y-11630370D02*
X14799110Y-11670370D01*
X15093590Y-10293870D02*
X15133590Y-10333870D01*
X15133590Y-10293870D02*
X15093590Y-10333870D01*
X15412300Y-11383470D02*
X15452300Y-11423470D01*
X15452300Y-11383470D02*
X15412300Y-11423470D01*
X15423630Y-11827340D02*
X15463630Y-11867340D01*
X15463630Y-11827340D02*
X15423630Y-11867340D01*
X15503450Y-11195070D02*
X15543450Y-11235070D01*
X15543450Y-11195070D02*
X15503450Y-11235070D01*
X15539330Y-11599090D02*
X15579330Y-11639090D01*
X15579330Y-11599090D02*
X15539330Y-11639090D01*
X15589020Y-10833930D02*
X15629020Y-10873930D01*
X15629020Y-10833930D02*
X15589020Y-10873930D01*
X15605360Y-11190300D02*
X15645360Y-11230300D01*
X15645360Y-11190300D02*
X15605360Y-11230300D01*
X15655110Y-11055350D02*
X15695110Y-11095350D01*
X15695110Y-11055350D02*
X15655110Y-11095350D01*
X15845210Y-11042190D02*
X15885210Y-11082190D01*
X15885210Y-11042190D02*
X15845210Y-11082190D01*
X15846490Y-11221710D02*
X15886490Y-11261710D01*
X15886490Y-11221710D02*
X15846490Y-11261710D01*
X15856870Y-10279930D02*
X15896870Y-10319930D01*
X15896870Y-10279930D02*
X15856870Y-10319930D01*
X15883981Y-10145508D02*
X15923981Y-10185508D01*
X15923981Y-10145508D02*
X15883981Y-10185508D01*
X15911150Y-10888700D02*
X15951150Y-10928700D01*
X15951150Y-10888700D02*
X15911150Y-10928700D01*
X15917080Y-12128800D02*
X15957080Y-12168800D01*
X15957080Y-12128800D02*
X15917080Y-12168800D01*
X15922280Y-12451400D02*
X15962280Y-12491400D01*
X15962280Y-12451400D02*
X15922280Y-12491400D01*
X15936820Y-10452090D02*
X15976820Y-10492090D01*
X15976820Y-10452090D02*
X15936820Y-10492090D01*
X15973080Y-10190800D02*
X16013080Y-10230800D01*
X16013080Y-10190800D02*
X15973080Y-10230800D01*
X16098423Y-10263250D02*
X16138423Y-10303250D01*
X16138423Y-10263250D02*
X16098423Y-10303250D01*
X16264500Y-12001510D02*
X16304500Y-12041510D01*
X16304500Y-12001510D02*
X16264500Y-12041510D01*
X16268430Y-9707790D02*
X16308430Y-9747790D01*
X16308430Y-9707790D02*
X16268430Y-9747790D01*
X16384580Y-12443800D02*
X16424580Y-12483800D01*
X16424580Y-12443800D02*
X16384580Y-12483800D01*
X16493750Y-11999780D02*
X16533750Y-12039780D01*
X16533750Y-11999780D02*
X16493750Y-12039780D01*
X17563120Y-10593450D02*
X17603120Y-10633450D01*
X17603120Y-10593450D02*
X17563120Y-10633450D01*
D13*
X11905580Y-10718800D02*
G75*
G03*
X11905580Y-10718800I-40000J0D01*
G01*
X11905580Y-10972800D02*
G75*
G03*
X11905580Y-10972800I-40000J0D01*
G01*
X11905580Y-11226800D02*
G75*
G03*
X11905580Y-11226800I-40000J0D01*
G01*
X11905580Y-11480800D02*
G75*
G03*
X11905580Y-11480800I-40000J0D01*
G01*
X11905580Y-11734800D02*
G75*
G03*
X11905580Y-11734800I-40000J0D01*
G01*
X11905580Y-11988800D02*
G75*
G03*
X11905580Y-11988800I-40000J0D01*
G01*
X11905580Y-12242800D02*
G75*
G03*
X11905580Y-12242800I-40000J0D01*
G01*
X11905580Y-12496800D02*
G75*
G03*
X11905580Y-12496800I-40000J0D01*
G01*
X12184980Y-10718800D02*
G75*
G03*
X12184980Y-10718800I-40000J0D01*
G01*
X12184980Y-10972800D02*
G75*
G03*
X12184980Y-10972800I-40000J0D01*
G01*
X12184980Y-11226800D02*
G75*
G03*
X12184980Y-11226800I-40000J0D01*
G01*
X12184980Y-11480800D02*
G75*
G03*
X12184980Y-11480800I-40000J0D01*
G01*
X12184980Y-11734800D02*
G75*
G03*
X12184980Y-11734800I-40000J0D01*
G01*
X12184980Y-11988800D02*
G75*
G03*
X12184980Y-11988800I-40000J0D01*
G01*
X12184980Y-12242800D02*
G75*
G03*
X12184980Y-12242800I-40000J0D01*
G01*
X12184980Y-12496800D02*
G75*
G03*
X12184980Y-12496800I-40000J0D01*
G01*
X12667580Y-10718800D02*
G75*
G03*
X12667580Y-10718800I-40000J0D01*
G01*
X12667580Y-10972800D02*
G75*
G03*
X12667580Y-10972800I-40000J0D01*
G01*
X12667580Y-11226800D02*
G75*
G03*
X12667580Y-11226800I-40000J0D01*
G01*
X12667580Y-11480800D02*
G75*
G03*
X12667580Y-11480800I-40000J0D01*
G01*
X12667580Y-11734800D02*
G75*
G03*
X12667580Y-11734800I-40000J0D01*
G01*
X12667580Y-11988800D02*
G75*
G03*
X12667580Y-11988800I-40000J0D01*
G01*
X12667580Y-12242800D02*
G75*
G03*
X12667580Y-12242800I-40000J0D01*
G01*
X12667580Y-12496800D02*
G75*
G03*
X12667580Y-12496800I-40000J0D01*
G01*
X12946980Y-10718800D02*
G75*
G03*
X12946980Y-10718800I-40000J0D01*
G01*
X12946980Y-10972800D02*
G75*
G03*
X12946980Y-10972800I-40000J0D01*
G01*
X12946980Y-11226800D02*
G75*
G03*
X12946980Y-11226800I-40000J0D01*
G01*
X12946980Y-11480800D02*
G75*
G03*
X12946980Y-11480800I-40000J0D01*
G01*
X12946980Y-11734800D02*
G75*
G03*
X12946980Y-11734800I-40000J0D01*
G01*
X12946980Y-11988800D02*
G75*
G03*
X12946980Y-11988800I-40000J0D01*
G01*
X12946980Y-12242800D02*
G75*
G03*
X12946980Y-12242800I-40000J0D01*
G01*
X12946980Y-12496800D02*
G75*
G03*
X12946980Y-12496800I-40000J0D01*
G01*
X13683580Y-5638800D02*
G75*
G03*
X13683580Y-5638800I-40000J0D01*
G01*
X13683580Y-5892800D02*
G75*
G03*
X13683580Y-5892800I-40000J0D01*
G01*
X13683580Y-6146800D02*
G75*
G03*
X13683580Y-6146800I-40000J0D01*
G01*
X13683580Y-6400800D02*
G75*
G03*
X13683580Y-6400800I-40000J0D01*
G01*
X13683580Y-6654800D02*
G75*
G03*
X13683580Y-6654800I-40000J0D01*
G01*
X13683580Y-6908800D02*
G75*
G03*
X13683580Y-6908800I-40000J0D01*
G01*
X13683580Y-7162800D02*
G75*
G03*
X13683580Y-7162800I-40000J0D01*
G01*
X13683580Y-7416800D02*
G75*
G03*
X13683580Y-7416800I-40000J0D01*
G01*
X13683580Y-8178800D02*
G75*
G03*
X13683580Y-8178800I-40000J0D01*
G01*
X13683580Y-8432800D02*
G75*
G03*
X13683580Y-8432800I-40000J0D01*
G01*
X13683580Y-8686800D02*
G75*
G03*
X13683580Y-8686800I-40000J0D01*
G01*
X13683580Y-8940800D02*
G75*
G03*
X13683580Y-8940800I-40000J0D01*
G01*
X13683580Y-9194800D02*
G75*
G03*
X13683580Y-9194800I-40000J0D01*
G01*
X13683580Y-9448800D02*
G75*
G03*
X13683580Y-9448800I-40000J0D01*
G01*
X13683580Y-9702800D02*
G75*
G03*
X13683580Y-9702800I-40000J0D01*
G01*
X13683580Y-9956800D02*
G75*
G03*
X13683580Y-9956800I-40000J0D01*
G01*
X13683580Y-10718800D02*
G75*
G03*
X13683580Y-10718800I-40000J0D01*
G01*
X13683580Y-10972800D02*
G75*
G03*
X13683580Y-10972800I-40000J0D01*
G01*
X13683580Y-11226800D02*
G75*
G03*
X13683580Y-11226800I-40000J0D01*
G01*
X13683580Y-11480800D02*
G75*
G03*
X13683580Y-11480800I-40000J0D01*
G01*
X13683580Y-11734800D02*
G75*
G03*
X13683580Y-11734800I-40000J0D01*
G01*
X13683580Y-11988800D02*
G75*
G03*
X13683580Y-11988800I-40000J0D01*
G01*
X13683580Y-12242800D02*
G75*
G03*
X13683580Y-12242800I-40000J0D01*
G01*
X13683580Y-12496800D02*
G75*
G03*
X13683580Y-12496800I-40000J0D01*
G01*
X13962980Y-5638800D02*
G75*
G03*
X13962980Y-5638800I-40000J0D01*
G01*
X13962980Y-5892800D02*
G75*
G03*
X13962980Y-5892800I-40000J0D01*
G01*
X13962980Y-6146800D02*
G75*
G03*
X13962980Y-6146800I-40000J0D01*
G01*
X13962980Y-6400800D02*
G75*
G03*
X13962980Y-6400800I-40000J0D01*
G01*
X13962980Y-6654800D02*
G75*
G03*
X13962980Y-6654800I-40000J0D01*
G01*
X13962980Y-6908800D02*
G75*
G03*
X13962980Y-6908800I-40000J0D01*
G01*
X13962980Y-7162800D02*
G75*
G03*
X13962980Y-7162800I-40000J0D01*
G01*
X13962980Y-7416800D02*
G75*
G03*
X13962980Y-7416800I-40000J0D01*
G01*
X14445580Y-5638800D02*
G75*
G03*
X14445580Y-5638800I-40000J0D01*
G01*
X14445580Y-5892800D02*
G75*
G03*
X14445580Y-5892800I-40000J0D01*
G01*
X14445580Y-6146800D02*
G75*
G03*
X14445580Y-6146800I-40000J0D01*
G01*
X14445580Y-6400800D02*
G75*
G03*
X14445580Y-6400800I-40000J0D01*
G01*
X14445580Y-6654800D02*
G75*
G03*
X14445580Y-6654800I-40000J0D01*
G01*
X14445580Y-6908800D02*
G75*
G03*
X14445580Y-6908800I-40000J0D01*
G01*
X14445580Y-7162800D02*
G75*
G03*
X14445580Y-7162800I-40000J0D01*
G01*
X14445580Y-7416800D02*
G75*
G03*
X14445580Y-7416800I-40000J0D01*
G01*
X14445580Y-8178800D02*
G75*
G03*
X14445580Y-8178800I-40000J0D01*
G01*
X14445580Y-8432800D02*
G75*
G03*
X14445580Y-8432800I-40000J0D01*
G01*
X14445580Y-8686800D02*
G75*
G03*
X14445580Y-8686800I-40000J0D01*
G01*
X14445580Y-8940800D02*
G75*
G03*
X14445580Y-8940800I-40000J0D01*
G01*
X14445580Y-9194800D02*
G75*
G03*
X14445580Y-9194800I-40000J0D01*
G01*
X14445580Y-9448800D02*
G75*
G03*
X14445580Y-9448800I-40000J0D01*
G01*
X14445580Y-9702800D02*
G75*
G03*
X14445580Y-9702800I-40000J0D01*
G01*
X14445580Y-9956800D02*
G75*
G03*
X14445580Y-9956800I-40000J0D01*
G01*
X14445580Y-10718800D02*
G75*
G03*
X14445580Y-10718800I-40000J0D01*
G01*
X14445580Y-10972800D02*
G75*
G03*
X14445580Y-10972800I-40000J0D01*
G01*
X14445580Y-11226800D02*
G75*
G03*
X14445580Y-11226800I-40000J0D01*
G01*
X14445580Y-11480800D02*
G75*
G03*
X14445580Y-11480800I-40000J0D01*
G01*
X14445580Y-11734800D02*
G75*
G03*
X14445580Y-11734800I-40000J0D01*
G01*
X14445580Y-11988800D02*
G75*
G03*
X14445580Y-11988800I-40000J0D01*
G01*
X14445580Y-12242800D02*
G75*
G03*
X14445580Y-12242800I-40000J0D01*
G01*
X14445580Y-12496800D02*
G75*
G03*
X14445580Y-12496800I-40000J0D01*
G01*
X14724980Y-5638800D02*
G75*
G03*
X14724980Y-5638800I-40000J0D01*
G01*
X14724980Y-5892800D02*
G75*
G03*
X14724980Y-5892800I-40000J0D01*
G01*
X14724980Y-6146800D02*
G75*
G03*
X14724980Y-6146800I-40000J0D01*
G01*
X14724980Y-6400800D02*
G75*
G03*
X14724980Y-6400800I-40000J0D01*
G01*
X14724980Y-6654800D02*
G75*
G03*
X14724980Y-6654800I-40000J0D01*
G01*
X14724980Y-6908800D02*
G75*
G03*
X14724980Y-6908800I-40000J0D01*
G01*
X14724980Y-7162800D02*
G75*
G03*
X14724980Y-7162800I-40000J0D01*
G01*
X14724980Y-7416800D02*
G75*
G03*
X14724980Y-7416800I-40000J0D01*
G01*
X15334580Y-9194800D02*
G75*
G03*
X15334580Y-9194800I-40000J0D01*
G01*
X15334580Y-9448800D02*
G75*
G03*
X15334580Y-9448800I-40000J0D01*
G01*
X15334580Y-9702800D02*
G75*
G03*
X15334580Y-9702800I-40000J0D01*
G01*
X15334580Y-9956800D02*
G75*
G03*
X15334580Y-9956800I-40000J0D01*
G01*
X15334580Y-10210800D02*
G75*
G03*
X15334580Y-10210800I-40000J0D01*
G01*
X15334580Y-10464800D02*
G75*
G03*
X15334580Y-10464800I-40000J0D01*
G01*
X15334580Y-10718800D02*
G75*
G03*
X15334580Y-10718800I-40000J0D01*
G01*
X15334580Y-10972800D02*
G75*
G03*
X15334580Y-10972800I-40000J0D01*
G01*
X15334580Y-11226800D02*
G75*
G03*
X15334580Y-11226800I-40000J0D01*
G01*
X15334580Y-11480800D02*
G75*
G03*
X15334580Y-11480800I-40000J0D01*
G01*
X15334580Y-11734800D02*
G75*
G03*
X15334580Y-11734800I-40000J0D01*
G01*
X15334580Y-11988800D02*
G75*
G03*
X15334580Y-11988800I-40000J0D01*
G01*
X15334580Y-12242800D02*
G75*
G03*
X15334580Y-12242800I-40000J0D01*
G01*
X15334580Y-12496800D02*
G75*
G03*
X15334580Y-12496800I-40000J0D01*
G01*
X16858580Y-9194800D02*
G75*
G03*
X16858580Y-9194800I-40000J0D01*
G01*
X16858580Y-9448800D02*
G75*
G03*
X16858580Y-9448800I-40000J0D01*
G01*
X16858580Y-9702800D02*
G75*
G03*
X16858580Y-9702800I-40000J0D01*
G01*
X16858580Y-9956800D02*
G75*
G03*
X16858580Y-9956800I-40000J0D01*
G01*
X16858580Y-10210800D02*
G75*
G03*
X16858580Y-10210800I-40000J0D01*
G01*
X16858580Y-10464800D02*
G75*
G03*
X16858580Y-10464800I-40000J0D01*
G01*
X16858580Y-10718800D02*
G75*
G03*
X16858580Y-10718800I-40000J0D01*
G01*
X16858580Y-10972800D02*
G75*
G03*
X16858580Y-10972800I-40000J0D01*
G01*
X16858580Y-11226800D02*
G75*
G03*
X16858580Y-11226800I-40000J0D01*
G01*
X16858580Y-11480800D02*
G75*
G03*
X16858580Y-11480800I-40000J0D01*
G01*
X16858580Y-11734800D02*
G75*
G03*
X16858580Y-11734800I-40000J0D01*
G01*
X16858580Y-11988800D02*
G75*
G03*
X16858580Y-11988800I-40000J0D01*
G01*
X16858580Y-12242800D02*
G75*
G03*
X16858580Y-12242800I-40000J0D01*
G01*
X16858580Y-12496800D02*
G75*
G03*
X16858580Y-12496800I-40000J0D01*
G01*
X18128580Y-9652000D02*
G75*
G03*
X18128580Y-9652000I-40000J0D01*
G01*
X18128580Y-9906000D02*
G75*
G03*
X18128580Y-9906000I-40000J0D01*
G01*
X18128580Y-10160000D02*
G75*
G03*
X18128580Y-10160000I-40000J0D01*
G01*
X18128580Y-10414000D02*
G75*
G03*
X18128580Y-10414000I-40000J0D01*
G01*
X18128580Y-10668000D02*
G75*
G03*
X18128580Y-10668000I-40000J0D01*
G01*
X18128580Y-10922000D02*
G75*
G03*
X18128580Y-10922000I-40000J0D01*
G01*
X18128580Y-11176000D02*
G75*
G03*
X18128580Y-11176000I-40000J0D01*
G01*
X18128580Y-11430000D02*
G75*
G03*
X18128580Y-11430000I-40000J0D01*
G01*
X18128580Y-11684000D02*
G75*
G03*
X18128580Y-11684000I-40000J0D01*
G01*
X18128580Y-11938000D02*
G75*
G03*
X18128580Y-11938000I-40000J0D01*
G01*
X18890580Y-9652000D02*
G75*
G03*
X18890580Y-9652000I-40000J0D01*
G01*
X18890580Y-9906000D02*
G75*
G03*
X18890580Y-9906000I-40000J0D01*
G01*
X18890580Y-10160000D02*
G75*
G03*
X18890580Y-10160000I-40000J0D01*
G01*
X18890580Y-10414000D02*
G75*
G03*
X18890580Y-10414000I-40000J0D01*
G01*
X18890580Y-10668000D02*
G75*
G03*
X18890580Y-10668000I-40000J0D01*
G01*
X18890580Y-10922000D02*
G75*
G03*
X18890580Y-10922000I-40000J0D01*
G01*
X18890580Y-11176000D02*
G75*
G03*
X18890580Y-11176000I-40000J0D01*
G01*
X18890580Y-11430000D02*
G75*
G03*
X18890580Y-11430000I-40000J0D01*
G01*
X18890580Y-11684000D02*
G75*
G03*
X18890580Y-11684000I-40000J0D01*
G01*
X18890580Y-11938000D02*
G75*
G03*
X18890580Y-11938000I-40000J0D01*
G01*
D11*
X11955785Y-13024077D02*
X11955785Y-12824077D01*
X11955785Y-12824077D02*
X12003404Y-12824077D01*
X12003404Y-12824077D02*
X12031976Y-12833601D01*
X12031976Y-12833601D02*
X12051023Y-12852649D01*
X12051023Y-12852649D02*
X12060547Y-12871696D01*
X12060547Y-12871696D02*
X12070071Y-12909791D01*
X12070071Y-12909791D02*
X12070071Y-12938363D01*
X12070071Y-12938363D02*
X12060547Y-12976458D01*
X12060547Y-12976458D02*
X12051023Y-12995506D01*
X12051023Y-12995506D02*
X12031976Y-13014553D01*
X12031976Y-13014553D02*
X12003404Y-13024077D01*
X12003404Y-13024077D02*
X11955785Y-13024077D01*
X12155785Y-13024077D02*
X12155785Y-12890744D01*
X12155785Y-12928839D02*
X12165309Y-12909791D01*
X12165309Y-12909791D02*
X12174833Y-12900268D01*
X12174833Y-12900268D02*
X12193880Y-12890744D01*
X12193880Y-12890744D02*
X12212928Y-12890744D01*
X12279595Y-13024077D02*
X12279595Y-12890744D01*
X12279595Y-12824077D02*
X12270071Y-12833601D01*
X12270071Y-12833601D02*
X12279595Y-12843125D01*
X12279595Y-12843125D02*
X12289119Y-12833601D01*
X12289119Y-12833601D02*
X12279595Y-12824077D01*
X12279595Y-12824077D02*
X12279595Y-12843125D01*
X12403404Y-13024077D02*
X12384357Y-13014553D01*
X12384357Y-13014553D02*
X12374833Y-12995506D01*
X12374833Y-12995506D02*
X12374833Y-12824077D01*
X12508166Y-13024077D02*
X12489119Y-13014553D01*
X12489119Y-13014553D02*
X12479595Y-12995506D01*
X12479595Y-12995506D02*
X12479595Y-12824077D01*
X12704357Y-13024077D02*
X12704357Y-12824077D01*
X12704357Y-12824077D02*
X12771023Y-12966934D01*
X12771023Y-12966934D02*
X12837690Y-12824077D01*
X12837690Y-12824077D02*
X12837690Y-13024077D01*
X13018642Y-13024077D02*
X13018642Y-12919315D01*
X13018642Y-12919315D02*
X13009119Y-12900268D01*
X13009119Y-12900268D02*
X12990071Y-12890744D01*
X12990071Y-12890744D02*
X12951976Y-12890744D01*
X12951976Y-12890744D02*
X12932928Y-12900268D01*
X13018642Y-13014553D02*
X12999595Y-13024077D01*
X12999595Y-13024077D02*
X12951976Y-13024077D01*
X12951976Y-13024077D02*
X12932928Y-13014553D01*
X12932928Y-13014553D02*
X12923404Y-12995506D01*
X12923404Y-12995506D02*
X12923404Y-12976458D01*
X12923404Y-12976458D02*
X12932928Y-12957411D01*
X12932928Y-12957411D02*
X12951976Y-12947887D01*
X12951976Y-12947887D02*
X12999595Y-12947887D01*
X12999595Y-12947887D02*
X13018642Y-12938363D01*
X13113880Y-12890744D02*
X13113880Y-13090744D01*
X13113880Y-12900268D02*
X13132928Y-12890744D01*
X13132928Y-12890744D02*
X13171023Y-12890744D01*
X13171023Y-12890744D02*
X13190071Y-12900268D01*
X13190071Y-12900268D02*
X13199595Y-12909791D01*
X13199595Y-12909791D02*
X13209119Y-12928839D01*
X13209119Y-12928839D02*
X13209119Y-12985982D01*
X13209119Y-12985982D02*
X13199595Y-13005030D01*
X13199595Y-13005030D02*
X13190071Y-13014553D01*
X13190071Y-13014553D02*
X13171023Y-13024077D01*
X13171023Y-13024077D02*
X13132928Y-13024077D01*
X13132928Y-13024077D02*
X13113880Y-13014553D01*
X13294833Y-13005030D02*
X13304357Y-13014553D01*
X13304357Y-13014553D02*
X13294833Y-13024077D01*
X13294833Y-13024077D02*
X13285309Y-13014553D01*
X13285309Y-13014553D02*
X13294833Y-13005030D01*
X13294833Y-13005030D02*
X13294833Y-13024077D01*
X13294833Y-12900268D02*
X13304357Y-12909791D01*
X13304357Y-12909791D02*
X13294833Y-12919315D01*
X13294833Y-12919315D02*
X13285309Y-12909791D01*
X13285309Y-12909791D02*
X13294833Y-12900268D01*
X13294833Y-12900268D02*
X13294833Y-12919315D01*
D12*
X11668166Y-13350601D02*
X11708166Y-13390601D01*
X11708166Y-13350601D02*
X11668166Y-13390601D01*
D11*
X11993880Y-13244077D02*
X12012928Y-13244077D01*
X12012928Y-13244077D02*
X12031976Y-13253601D01*
X12031976Y-13253601D02*
X12041500Y-13263125D01*
X12041500Y-13263125D02*
X12051023Y-13282172D01*
X12051023Y-13282172D02*
X12060547Y-13320268D01*
X12060547Y-13320268D02*
X12060547Y-13367887D01*
X12060547Y-13367887D02*
X12051023Y-13405982D01*
X12051023Y-13405982D02*
X12041500Y-13425030D01*
X12041500Y-13425030D02*
X12031976Y-13434553D01*
X12031976Y-13434553D02*
X12012928Y-13444077D01*
X12012928Y-13444077D02*
X11993880Y-13444077D01*
X11993880Y-13444077D02*
X11974833Y-13434553D01*
X11974833Y-13434553D02*
X11965309Y-13425030D01*
X11965309Y-13425030D02*
X11955785Y-13405982D01*
X11955785Y-13405982D02*
X11946261Y-13367887D01*
X11946261Y-13367887D02*
X11946261Y-13320268D01*
X11946261Y-13320268D02*
X11955785Y-13282172D01*
X11955785Y-13282172D02*
X11965309Y-13263125D01*
X11965309Y-13263125D02*
X11974833Y-13253601D01*
X11974833Y-13253601D02*
X11993880Y-13244077D01*
X12146261Y-13425030D02*
X12155785Y-13434553D01*
X12155785Y-13434553D02*
X12146261Y-13444077D01*
X12146261Y-13444077D02*
X12136738Y-13434553D01*
X12136738Y-13434553D02*
X12146261Y-13425030D01*
X12146261Y-13425030D02*
X12146261Y-13444077D01*
X12327214Y-13310744D02*
X12327214Y-13444077D01*
X12279595Y-13234553D02*
X12231976Y-13377411D01*
X12231976Y-13377411D02*
X12355785Y-13377411D01*
X12470071Y-13244077D02*
X12489119Y-13244077D01*
X12489119Y-13244077D02*
X12508166Y-13253601D01*
X12508166Y-13253601D02*
X12517690Y-13263125D01*
X12517690Y-13263125D02*
X12527214Y-13282172D01*
X12527214Y-13282172D02*
X12536738Y-13320268D01*
X12536738Y-13320268D02*
X12536738Y-13367887D01*
X12536738Y-13367887D02*
X12527214Y-13405982D01*
X12527214Y-13405982D02*
X12517690Y-13425030D01*
X12517690Y-13425030D02*
X12508166Y-13434553D01*
X12508166Y-13434553D02*
X12489119Y-13444077D01*
X12489119Y-13444077D02*
X12470071Y-13444077D01*
X12470071Y-13444077D02*
X12451023Y-13434553D01*
X12451023Y-13434553D02*
X12441500Y-13425030D01*
X12441500Y-13425030D02*
X12431976Y-13405982D01*
X12431976Y-13405982D02*
X12422452Y-13367887D01*
X12422452Y-13367887D02*
X12422452Y-13320268D01*
X12422452Y-13320268D02*
X12431976Y-13282172D01*
X12431976Y-13282172D02*
X12441500Y-13263125D01*
X12441500Y-13263125D02*
X12451023Y-13253601D01*
X12451023Y-13253601D02*
X12470071Y-13244077D01*
X12660547Y-13244077D02*
X12679595Y-13244077D01*
X12679595Y-13244077D02*
X12698642Y-13253601D01*
X12698642Y-13253601D02*
X12708166Y-13263125D01*
X12708166Y-13263125D02*
X12717690Y-13282172D01*
X12717690Y-13282172D02*
X12727214Y-13320268D01*
X12727214Y-13320268D02*
X12727214Y-13367887D01*
X12727214Y-13367887D02*
X12717690Y-13405982D01*
X12717690Y-13405982D02*
X12708166Y-13425030D01*
X12708166Y-13425030D02*
X12698642Y-13434553D01*
X12698642Y-13434553D02*
X12679595Y-13444077D01*
X12679595Y-13444077D02*
X12660547Y-13444077D01*
X12660547Y-13444077D02*
X12641500Y-13434553D01*
X12641500Y-13434553D02*
X12631976Y-13425030D01*
X12631976Y-13425030D02*
X12622452Y-13405982D01*
X12622452Y-13405982D02*
X12612928Y-13367887D01*
X12612928Y-13367887D02*
X12612928Y-13320268D01*
X12612928Y-13320268D02*
X12622452Y-13282172D01*
X12622452Y-13282172D02*
X12631976Y-13263125D01*
X12631976Y-13263125D02*
X12641500Y-13253601D01*
X12641500Y-13253601D02*
X12660547Y-13244077D01*
X12812928Y-13444077D02*
X12812928Y-13310744D01*
X12812928Y-13329791D02*
X12822452Y-13320268D01*
X12822452Y-13320268D02*
X12841500Y-13310744D01*
X12841500Y-13310744D02*
X12870071Y-13310744D01*
X12870071Y-13310744D02*
X12889119Y-13320268D01*
X12889119Y-13320268D02*
X12898642Y-13339315D01*
X12898642Y-13339315D02*
X12898642Y-13444077D01*
X12898642Y-13339315D02*
X12908166Y-13320268D01*
X12908166Y-13320268D02*
X12927214Y-13310744D01*
X12927214Y-13310744D02*
X12955785Y-13310744D01*
X12955785Y-13310744D02*
X12974833Y-13320268D01*
X12974833Y-13320268D02*
X12984357Y-13339315D01*
X12984357Y-13339315D02*
X12984357Y-13444077D01*
X13079595Y-13444077D02*
X13079595Y-13310744D01*
X13079595Y-13329791D02*
X13089119Y-13320268D01*
X13089119Y-13320268D02*
X13108166Y-13310744D01*
X13108166Y-13310744D02*
X13136738Y-13310744D01*
X13136738Y-13310744D02*
X13155785Y-13320268D01*
X13155785Y-13320268D02*
X13165309Y-13339315D01*
X13165309Y-13339315D02*
X13165309Y-13444077D01*
X13165309Y-13339315D02*
X13174833Y-13320268D01*
X13174833Y-13320268D02*
X13193881Y-13310744D01*
X13193881Y-13310744D02*
X13222452Y-13310744D01*
X13222452Y-13310744D02*
X13241500Y-13320268D01*
X13241500Y-13320268D02*
X13251023Y-13339315D01*
X13251023Y-13339315D02*
X13251023Y-13444077D01*
X13609119Y-13234553D02*
X13437690Y-13491696D01*
X13833881Y-13244077D02*
X13852928Y-13244077D01*
X13852928Y-13244077D02*
X13871976Y-13253601D01*
X13871976Y-13253601D02*
X13881500Y-13263125D01*
X13881500Y-13263125D02*
X13891023Y-13282172D01*
X13891023Y-13282172D02*
X13900547Y-13320268D01*
X13900547Y-13320268D02*
X13900547Y-13367887D01*
X13900547Y-13367887D02*
X13891023Y-13405982D01*
X13891023Y-13405982D02*
X13881500Y-13425030D01*
X13881500Y-13425030D02*
X13871976Y-13434553D01*
X13871976Y-13434553D02*
X13852928Y-13444077D01*
X13852928Y-13444077D02*
X13833881Y-13444077D01*
X13833881Y-13444077D02*
X13814833Y-13434553D01*
X13814833Y-13434553D02*
X13805309Y-13425030D01*
X13805309Y-13425030D02*
X13795785Y-13405982D01*
X13795785Y-13405982D02*
X13786262Y-13367887D01*
X13786262Y-13367887D02*
X13786262Y-13320268D01*
X13786262Y-13320268D02*
X13795785Y-13282172D01*
X13795785Y-13282172D02*
X13805309Y-13263125D01*
X13805309Y-13263125D02*
X13814833Y-13253601D01*
X13814833Y-13253601D02*
X13833881Y-13244077D01*
X13986262Y-13425030D02*
X13995785Y-13434553D01*
X13995785Y-13434553D02*
X13986262Y-13444077D01*
X13986262Y-13444077D02*
X13976738Y-13434553D01*
X13976738Y-13434553D02*
X13986262Y-13425030D01*
X13986262Y-13425030D02*
X13986262Y-13444077D01*
X14119595Y-13244077D02*
X14138643Y-13244077D01*
X14138643Y-13244077D02*
X14157690Y-13253601D01*
X14157690Y-13253601D02*
X14167214Y-13263125D01*
X14167214Y-13263125D02*
X14176738Y-13282172D01*
X14176738Y-13282172D02*
X14186262Y-13320268D01*
X14186262Y-13320268D02*
X14186262Y-13367887D01*
X14186262Y-13367887D02*
X14176738Y-13405982D01*
X14176738Y-13405982D02*
X14167214Y-13425030D01*
X14167214Y-13425030D02*
X14157690Y-13434553D01*
X14157690Y-13434553D02*
X14138643Y-13444077D01*
X14138643Y-13444077D02*
X14119595Y-13444077D01*
X14119595Y-13444077D02*
X14100547Y-13434553D01*
X14100547Y-13434553D02*
X14091023Y-13425030D01*
X14091023Y-13425030D02*
X14081500Y-13405982D01*
X14081500Y-13405982D02*
X14071976Y-13367887D01*
X14071976Y-13367887D02*
X14071976Y-13320268D01*
X14071976Y-13320268D02*
X14081500Y-13282172D01*
X14081500Y-13282172D02*
X14091023Y-13263125D01*
X14091023Y-13263125D02*
X14100547Y-13253601D01*
X14100547Y-13253601D02*
X14119595Y-13244077D01*
X14376738Y-13444077D02*
X14262452Y-13444077D01*
X14319595Y-13444077D02*
X14319595Y-13244077D01*
X14319595Y-13244077D02*
X14300547Y-13272649D01*
X14300547Y-13272649D02*
X14281500Y-13291696D01*
X14281500Y-13291696D02*
X14262452Y-13301220D01*
X14557690Y-13244077D02*
X14462452Y-13244077D01*
X14462452Y-13244077D02*
X14452928Y-13339315D01*
X14452928Y-13339315D02*
X14462452Y-13329791D01*
X14462452Y-13329791D02*
X14481500Y-13320268D01*
X14481500Y-13320268D02*
X14529119Y-13320268D01*
X14529119Y-13320268D02*
X14548166Y-13329791D01*
X14548166Y-13329791D02*
X14557690Y-13339315D01*
X14557690Y-13339315D02*
X14567214Y-13358363D01*
X14567214Y-13358363D02*
X14567214Y-13405982D01*
X14567214Y-13405982D02*
X14557690Y-13425030D01*
X14557690Y-13425030D02*
X14548166Y-13434553D01*
X14548166Y-13434553D02*
X14529119Y-13444077D01*
X14529119Y-13444077D02*
X14481500Y-13444077D01*
X14481500Y-13444077D02*
X14462452Y-13434553D01*
X14462452Y-13434553D02*
X14452928Y-13425030D01*
X14633881Y-13244077D02*
X14767214Y-13244077D01*
X14767214Y-13244077D02*
X14681500Y-13444077D01*
X14833881Y-13244077D02*
X14833881Y-13282172D01*
X14910071Y-13244077D02*
X14910071Y-13282172D01*
X15172928Y-13520268D02*
X15163404Y-13510744D01*
X15163404Y-13510744D02*
X15144357Y-13482172D01*
X15144357Y-13482172D02*
X15134833Y-13463125D01*
X15134833Y-13463125D02*
X15125309Y-13434553D01*
X15125309Y-13434553D02*
X15115785Y-13386934D01*
X15115785Y-13386934D02*
X15115785Y-13348839D01*
X15115785Y-13348839D02*
X15125309Y-13301220D01*
X15125309Y-13301220D02*
X15134833Y-13272649D01*
X15134833Y-13272649D02*
X15144357Y-13253601D01*
X15144357Y-13253601D02*
X15163404Y-13225030D01*
X15163404Y-13225030D02*
X15172928Y-13215506D01*
X15334833Y-13310744D02*
X15334833Y-13444077D01*
X15287214Y-13234553D02*
X15239595Y-13377411D01*
X15239595Y-13377411D02*
X15363404Y-13377411D01*
X15525309Y-13310744D02*
X15525309Y-13444077D01*
X15477690Y-13234553D02*
X15430071Y-13377411D01*
X15430071Y-13377411D02*
X15553881Y-13377411D01*
X15750071Y-13444077D02*
X15750071Y-13244077D01*
X15835785Y-13444077D02*
X15835785Y-13339315D01*
X15835785Y-13339315D02*
X15826262Y-13320268D01*
X15826262Y-13320268D02*
X15807214Y-13310744D01*
X15807214Y-13310744D02*
X15778643Y-13310744D01*
X15778643Y-13310744D02*
X15759595Y-13320268D01*
X15759595Y-13320268D02*
X15750071Y-13329791D01*
X15959595Y-13444077D02*
X15940547Y-13434553D01*
X15940547Y-13434553D02*
X15931024Y-13425030D01*
X15931024Y-13425030D02*
X15921500Y-13405982D01*
X15921500Y-13405982D02*
X15921500Y-13348839D01*
X15921500Y-13348839D02*
X15931024Y-13329791D01*
X15931024Y-13329791D02*
X15940547Y-13320268D01*
X15940547Y-13320268D02*
X15959595Y-13310744D01*
X15959595Y-13310744D02*
X15988166Y-13310744D01*
X15988166Y-13310744D02*
X16007214Y-13320268D01*
X16007214Y-13320268D02*
X16016738Y-13329791D01*
X16016738Y-13329791D02*
X16026262Y-13348839D01*
X16026262Y-13348839D02*
X16026262Y-13405982D01*
X16026262Y-13405982D02*
X16016738Y-13425030D01*
X16016738Y-13425030D02*
X16007214Y-13434553D01*
X16007214Y-13434553D02*
X15988166Y-13444077D01*
X15988166Y-13444077D02*
X15959595Y-13444077D01*
X16140547Y-13444077D02*
X16121500Y-13434553D01*
X16121500Y-13434553D02*
X16111976Y-13415506D01*
X16111976Y-13415506D02*
X16111976Y-13244077D01*
X16292928Y-13434553D02*
X16273881Y-13444077D01*
X16273881Y-13444077D02*
X16235785Y-13444077D01*
X16235785Y-13444077D02*
X16216738Y-13434553D01*
X16216738Y-13434553D02*
X16207214Y-13415506D01*
X16207214Y-13415506D02*
X16207214Y-13339315D01*
X16207214Y-13339315D02*
X16216738Y-13320268D01*
X16216738Y-13320268D02*
X16235785Y-13310744D01*
X16235785Y-13310744D02*
X16273881Y-13310744D01*
X16273881Y-13310744D02*
X16292928Y-13320268D01*
X16292928Y-13320268D02*
X16302452Y-13339315D01*
X16302452Y-13339315D02*
X16302452Y-13358363D01*
X16302452Y-13358363D02*
X16207214Y-13377411D01*
X16378643Y-13434553D02*
X16397690Y-13444077D01*
X16397690Y-13444077D02*
X16435785Y-13444077D01*
X16435785Y-13444077D02*
X16454833Y-13434553D01*
X16454833Y-13434553D02*
X16464357Y-13415506D01*
X16464357Y-13415506D02*
X16464357Y-13405982D01*
X16464357Y-13405982D02*
X16454833Y-13386934D01*
X16454833Y-13386934D02*
X16435785Y-13377411D01*
X16435785Y-13377411D02*
X16407214Y-13377411D01*
X16407214Y-13377411D02*
X16388166Y-13367887D01*
X16388166Y-13367887D02*
X16378643Y-13348839D01*
X16378643Y-13348839D02*
X16378643Y-13339315D01*
X16378643Y-13339315D02*
X16388166Y-13320268D01*
X16388166Y-13320268D02*
X16407214Y-13310744D01*
X16407214Y-13310744D02*
X16435785Y-13310744D01*
X16435785Y-13310744D02*
X16454833Y-13320268D01*
X16531024Y-13520268D02*
X16540547Y-13510744D01*
X16540547Y-13510744D02*
X16559595Y-13482172D01*
X16559595Y-13482172D02*
X16569119Y-13463125D01*
X16569119Y-13463125D02*
X16578643Y-13434553D01*
X16578643Y-13434553D02*
X16588166Y-13386934D01*
X16588166Y-13386934D02*
X16588166Y-13348839D01*
X16588166Y-13348839D02*
X16578643Y-13301220D01*
X16578643Y-13301220D02*
X16569119Y-13272649D01*
X16569119Y-13272649D02*
X16559595Y-13253601D01*
X16559595Y-13253601D02*
X16540547Y-13225030D01*
X16540547Y-13225030D02*
X16531024Y-13215506D01*
D13*
X11708166Y-13634601D02*
G75*
G03*
X11708166Y-13634601I-40000J0D01*
G01*
D11*
X11993880Y-13508077D02*
X12012928Y-13508077D01*
X12012928Y-13508077D02*
X12031976Y-13517601D01*
X12031976Y-13517601D02*
X12041500Y-13527125D01*
X12041500Y-13527125D02*
X12051023Y-13546172D01*
X12051023Y-13546172D02*
X12060547Y-13584268D01*
X12060547Y-13584268D02*
X12060547Y-13631887D01*
X12060547Y-13631887D02*
X12051023Y-13669982D01*
X12051023Y-13669982D02*
X12041500Y-13689030D01*
X12041500Y-13689030D02*
X12031976Y-13698553D01*
X12031976Y-13698553D02*
X12012928Y-13708077D01*
X12012928Y-13708077D02*
X11993880Y-13708077D01*
X11993880Y-13708077D02*
X11974833Y-13698553D01*
X11974833Y-13698553D02*
X11965309Y-13689030D01*
X11965309Y-13689030D02*
X11955785Y-13669982D01*
X11955785Y-13669982D02*
X11946261Y-13631887D01*
X11946261Y-13631887D02*
X11946261Y-13584268D01*
X11946261Y-13584268D02*
X11955785Y-13546172D01*
X11955785Y-13546172D02*
X11965309Y-13527125D01*
X11965309Y-13527125D02*
X11974833Y-13517601D01*
X11974833Y-13517601D02*
X11993880Y-13508077D01*
X12146261Y-13689030D02*
X12155785Y-13698553D01*
X12155785Y-13698553D02*
X12146261Y-13708077D01*
X12146261Y-13708077D02*
X12136738Y-13698553D01*
X12136738Y-13698553D02*
X12146261Y-13689030D01*
X12146261Y-13689030D02*
X12146261Y-13708077D01*
X12270071Y-13593791D02*
X12251023Y-13584268D01*
X12251023Y-13584268D02*
X12241500Y-13574744D01*
X12241500Y-13574744D02*
X12231976Y-13555696D01*
X12231976Y-13555696D02*
X12231976Y-13546172D01*
X12231976Y-13546172D02*
X12241500Y-13527125D01*
X12241500Y-13527125D02*
X12251023Y-13517601D01*
X12251023Y-13517601D02*
X12270071Y-13508077D01*
X12270071Y-13508077D02*
X12308166Y-13508077D01*
X12308166Y-13508077D02*
X12327214Y-13517601D01*
X12327214Y-13517601D02*
X12336738Y-13527125D01*
X12336738Y-13527125D02*
X12346261Y-13546172D01*
X12346261Y-13546172D02*
X12346261Y-13555696D01*
X12346261Y-13555696D02*
X12336738Y-13574744D01*
X12336738Y-13574744D02*
X12327214Y-13584268D01*
X12327214Y-13584268D02*
X12308166Y-13593791D01*
X12308166Y-13593791D02*
X12270071Y-13593791D01*
X12270071Y-13593791D02*
X12251023Y-13603315D01*
X12251023Y-13603315D02*
X12241500Y-13612839D01*
X12241500Y-13612839D02*
X12231976Y-13631887D01*
X12231976Y-13631887D02*
X12231976Y-13669982D01*
X12231976Y-13669982D02*
X12241500Y-13689030D01*
X12241500Y-13689030D02*
X12251023Y-13698553D01*
X12251023Y-13698553D02*
X12270071Y-13708077D01*
X12270071Y-13708077D02*
X12308166Y-13708077D01*
X12308166Y-13708077D02*
X12327214Y-13698553D01*
X12327214Y-13698553D02*
X12336738Y-13689030D01*
X12336738Y-13689030D02*
X12346261Y-13669982D01*
X12346261Y-13669982D02*
X12346261Y-13631887D01*
X12346261Y-13631887D02*
X12336738Y-13612839D01*
X12336738Y-13612839D02*
X12327214Y-13603315D01*
X12327214Y-13603315D02*
X12308166Y-13593791D01*
X12470071Y-13508077D02*
X12489119Y-13508077D01*
X12489119Y-13508077D02*
X12508166Y-13517601D01*
X12508166Y-13517601D02*
X12517690Y-13527125D01*
X12517690Y-13527125D02*
X12527214Y-13546172D01*
X12527214Y-13546172D02*
X12536738Y-13584268D01*
X12536738Y-13584268D02*
X12536738Y-13631887D01*
X12536738Y-13631887D02*
X12527214Y-13669982D01*
X12527214Y-13669982D02*
X12517690Y-13689030D01*
X12517690Y-13689030D02*
X12508166Y-13698553D01*
X12508166Y-13698553D02*
X12489119Y-13708077D01*
X12489119Y-13708077D02*
X12470071Y-13708077D01*
X12470071Y-13708077D02*
X12451023Y-13698553D01*
X12451023Y-13698553D02*
X12441500Y-13689030D01*
X12441500Y-13689030D02*
X12431976Y-13669982D01*
X12431976Y-13669982D02*
X12422452Y-13631887D01*
X12422452Y-13631887D02*
X12422452Y-13584268D01*
X12422452Y-13584268D02*
X12431976Y-13546172D01*
X12431976Y-13546172D02*
X12441500Y-13527125D01*
X12441500Y-13527125D02*
X12451023Y-13517601D01*
X12451023Y-13517601D02*
X12470071Y-13508077D01*
X12660547Y-13508077D02*
X12679595Y-13508077D01*
X12679595Y-13508077D02*
X12698642Y-13517601D01*
X12698642Y-13517601D02*
X12708166Y-13527125D01*
X12708166Y-13527125D02*
X12717690Y-13546172D01*
X12717690Y-13546172D02*
X12727214Y-13584268D01*
X12727214Y-13584268D02*
X12727214Y-13631887D01*
X12727214Y-13631887D02*
X12717690Y-13669982D01*
X12717690Y-13669982D02*
X12708166Y-13689030D01*
X12708166Y-13689030D02*
X12698642Y-13698553D01*
X12698642Y-13698553D02*
X12679595Y-13708077D01*
X12679595Y-13708077D02*
X12660547Y-13708077D01*
X12660547Y-13708077D02*
X12641500Y-13698553D01*
X12641500Y-13698553D02*
X12631976Y-13689030D01*
X12631976Y-13689030D02*
X12622452Y-13669982D01*
X12622452Y-13669982D02*
X12612928Y-13631887D01*
X12612928Y-13631887D02*
X12612928Y-13584268D01*
X12612928Y-13584268D02*
X12622452Y-13546172D01*
X12622452Y-13546172D02*
X12631976Y-13527125D01*
X12631976Y-13527125D02*
X12641500Y-13517601D01*
X12641500Y-13517601D02*
X12660547Y-13508077D01*
X12812928Y-13708077D02*
X12812928Y-13574744D01*
X12812928Y-13593791D02*
X12822452Y-13584268D01*
X12822452Y-13584268D02*
X12841500Y-13574744D01*
X12841500Y-13574744D02*
X12870071Y-13574744D01*
X12870071Y-13574744D02*
X12889119Y-13584268D01*
X12889119Y-13584268D02*
X12898642Y-13603315D01*
X12898642Y-13603315D02*
X12898642Y-13708077D01*
X12898642Y-13603315D02*
X12908166Y-13584268D01*
X12908166Y-13584268D02*
X12927214Y-13574744D01*
X12927214Y-13574744D02*
X12955785Y-13574744D01*
X12955785Y-13574744D02*
X12974833Y-13584268D01*
X12974833Y-13584268D02*
X12984357Y-13603315D01*
X12984357Y-13603315D02*
X12984357Y-13708077D01*
X13079595Y-13708077D02*
X13079595Y-13574744D01*
X13079595Y-13593791D02*
X13089119Y-13584268D01*
X13089119Y-13584268D02*
X13108166Y-13574744D01*
X13108166Y-13574744D02*
X13136738Y-13574744D01*
X13136738Y-13574744D02*
X13155785Y-13584268D01*
X13155785Y-13584268D02*
X13165309Y-13603315D01*
X13165309Y-13603315D02*
X13165309Y-13708077D01*
X13165309Y-13603315D02*
X13174833Y-13584268D01*
X13174833Y-13584268D02*
X13193881Y-13574744D01*
X13193881Y-13574744D02*
X13222452Y-13574744D01*
X13222452Y-13574744D02*
X13241500Y-13584268D01*
X13241500Y-13584268D02*
X13251023Y-13603315D01*
X13251023Y-13603315D02*
X13251023Y-13708077D01*
X13609119Y-13498553D02*
X13437690Y-13755696D01*
X13833881Y-13508077D02*
X13852928Y-13508077D01*
X13852928Y-13508077D02*
X13871976Y-13517601D01*
X13871976Y-13517601D02*
X13881500Y-13527125D01*
X13881500Y-13527125D02*
X13891023Y-13546172D01*
X13891023Y-13546172D02*
X13900547Y-13584268D01*
X13900547Y-13584268D02*
X13900547Y-13631887D01*
X13900547Y-13631887D02*
X13891023Y-13669982D01*
X13891023Y-13669982D02*
X13881500Y-13689030D01*
X13881500Y-13689030D02*
X13871976Y-13698553D01*
X13871976Y-13698553D02*
X13852928Y-13708077D01*
X13852928Y-13708077D02*
X13833881Y-13708077D01*
X13833881Y-13708077D02*
X13814833Y-13698553D01*
X13814833Y-13698553D02*
X13805309Y-13689030D01*
X13805309Y-13689030D02*
X13795785Y-13669982D01*
X13795785Y-13669982D02*
X13786262Y-13631887D01*
X13786262Y-13631887D02*
X13786262Y-13584268D01*
X13786262Y-13584268D02*
X13795785Y-13546172D01*
X13795785Y-13546172D02*
X13805309Y-13527125D01*
X13805309Y-13527125D02*
X13814833Y-13517601D01*
X13814833Y-13517601D02*
X13833881Y-13508077D01*
X13986262Y-13689030D02*
X13995785Y-13698553D01*
X13995785Y-13698553D02*
X13986262Y-13708077D01*
X13986262Y-13708077D02*
X13976738Y-13698553D01*
X13976738Y-13698553D02*
X13986262Y-13689030D01*
X13986262Y-13689030D02*
X13986262Y-13708077D01*
X14119595Y-13508077D02*
X14138643Y-13508077D01*
X14138643Y-13508077D02*
X14157690Y-13517601D01*
X14157690Y-13517601D02*
X14167214Y-13527125D01*
X14167214Y-13527125D02*
X14176738Y-13546172D01*
X14176738Y-13546172D02*
X14186262Y-13584268D01*
X14186262Y-13584268D02*
X14186262Y-13631887D01*
X14186262Y-13631887D02*
X14176738Y-13669982D01*
X14176738Y-13669982D02*
X14167214Y-13689030D01*
X14167214Y-13689030D02*
X14157690Y-13698553D01*
X14157690Y-13698553D02*
X14138643Y-13708077D01*
X14138643Y-13708077D02*
X14119595Y-13708077D01*
X14119595Y-13708077D02*
X14100547Y-13698553D01*
X14100547Y-13698553D02*
X14091023Y-13689030D01*
X14091023Y-13689030D02*
X14081500Y-13669982D01*
X14081500Y-13669982D02*
X14071976Y-13631887D01*
X14071976Y-13631887D02*
X14071976Y-13584268D01*
X14071976Y-13584268D02*
X14081500Y-13546172D01*
X14081500Y-13546172D02*
X14091023Y-13527125D01*
X14091023Y-13527125D02*
X14100547Y-13517601D01*
X14100547Y-13517601D02*
X14119595Y-13508077D01*
X14252928Y-13508077D02*
X14376738Y-13508077D01*
X14376738Y-13508077D02*
X14310071Y-13584268D01*
X14310071Y-13584268D02*
X14338643Y-13584268D01*
X14338643Y-13584268D02*
X14357690Y-13593791D01*
X14357690Y-13593791D02*
X14367214Y-13603315D01*
X14367214Y-13603315D02*
X14376738Y-13622363D01*
X14376738Y-13622363D02*
X14376738Y-13669982D01*
X14376738Y-13669982D02*
X14367214Y-13689030D01*
X14367214Y-13689030D02*
X14357690Y-13698553D01*
X14357690Y-13698553D02*
X14338643Y-13708077D01*
X14338643Y-13708077D02*
X14281500Y-13708077D01*
X14281500Y-13708077D02*
X14262452Y-13698553D01*
X14262452Y-13698553D02*
X14252928Y-13689030D01*
X14567214Y-13708077D02*
X14452928Y-13708077D01*
X14510071Y-13708077D02*
X14510071Y-13508077D01*
X14510071Y-13508077D02*
X14491023Y-13536649D01*
X14491023Y-13536649D02*
X14471976Y-13555696D01*
X14471976Y-13555696D02*
X14452928Y-13565220D01*
X14748166Y-13508077D02*
X14652928Y-13508077D01*
X14652928Y-13508077D02*
X14643404Y-13603315D01*
X14643404Y-13603315D02*
X14652928Y-13593791D01*
X14652928Y-13593791D02*
X14671976Y-13584268D01*
X14671976Y-13584268D02*
X14719595Y-13584268D01*
X14719595Y-13584268D02*
X14738643Y-13593791D01*
X14738643Y-13593791D02*
X14748166Y-13603315D01*
X14748166Y-13603315D02*
X14757690Y-13622363D01*
X14757690Y-13622363D02*
X14757690Y-13669982D01*
X14757690Y-13669982D02*
X14748166Y-13689030D01*
X14748166Y-13689030D02*
X14738643Y-13698553D01*
X14738643Y-13698553D02*
X14719595Y-13708077D01*
X14719595Y-13708077D02*
X14671976Y-13708077D01*
X14671976Y-13708077D02*
X14652928Y-13698553D01*
X14652928Y-13698553D02*
X14643404Y-13689030D01*
X14833881Y-13508077D02*
X14833881Y-13546172D01*
X14910071Y-13508077D02*
X14910071Y-13546172D01*
X15172928Y-13784268D02*
X15163404Y-13774744D01*
X15163404Y-13774744D02*
X15144357Y-13746172D01*
X15144357Y-13746172D02*
X15134833Y-13727125D01*
X15134833Y-13727125D02*
X15125309Y-13698553D01*
X15125309Y-13698553D02*
X15115785Y-13650934D01*
X15115785Y-13650934D02*
X15115785Y-13612839D01*
X15115785Y-13612839D02*
X15125309Y-13565220D01*
X15125309Y-13565220D02*
X15134833Y-13536649D01*
X15134833Y-13536649D02*
X15144357Y-13517601D01*
X15144357Y-13517601D02*
X15163404Y-13489030D01*
X15163404Y-13489030D02*
X15172928Y-13479506D01*
X15353881Y-13708077D02*
X15239595Y-13708077D01*
X15296738Y-13708077D02*
X15296738Y-13508077D01*
X15296738Y-13508077D02*
X15277690Y-13536649D01*
X15277690Y-13536649D02*
X15258643Y-13555696D01*
X15258643Y-13555696D02*
X15239595Y-13565220D01*
X15525309Y-13574744D02*
X15525309Y-13708077D01*
X15477690Y-13498553D02*
X15430071Y-13641411D01*
X15430071Y-13641411D02*
X15553881Y-13641411D01*
X15715785Y-13574744D02*
X15715785Y-13708077D01*
X15668166Y-13498553D02*
X15620547Y-13641411D01*
X15620547Y-13641411D02*
X15744357Y-13641411D01*
X15940547Y-13708077D02*
X15940547Y-13508077D01*
X16026262Y-13708077D02*
X16026262Y-13603315D01*
X16026262Y-13603315D02*
X16016738Y-13584268D01*
X16016738Y-13584268D02*
X15997690Y-13574744D01*
X15997690Y-13574744D02*
X15969119Y-13574744D01*
X15969119Y-13574744D02*
X15950071Y-13584268D01*
X15950071Y-13584268D02*
X15940547Y-13593791D01*
X16150071Y-13708077D02*
X16131024Y-13698553D01*
X16131024Y-13698553D02*
X16121500Y-13689030D01*
X16121500Y-13689030D02*
X16111976Y-13669982D01*
X16111976Y-13669982D02*
X16111976Y-13612839D01*
X16111976Y-13612839D02*
X16121500Y-13593791D01*
X16121500Y-13593791D02*
X16131024Y-13584268D01*
X16131024Y-13584268D02*
X16150071Y-13574744D01*
X16150071Y-13574744D02*
X16178643Y-13574744D01*
X16178643Y-13574744D02*
X16197690Y-13584268D01*
X16197690Y-13584268D02*
X16207214Y-13593791D01*
X16207214Y-13593791D02*
X16216738Y-13612839D01*
X16216738Y-13612839D02*
X16216738Y-13669982D01*
X16216738Y-13669982D02*
X16207214Y-13689030D01*
X16207214Y-13689030D02*
X16197690Y-13698553D01*
X16197690Y-13698553D02*
X16178643Y-13708077D01*
X16178643Y-13708077D02*
X16150071Y-13708077D01*
X16331024Y-13708077D02*
X16311976Y-13698553D01*
X16311976Y-13698553D02*
X16302452Y-13679506D01*
X16302452Y-13679506D02*
X16302452Y-13508077D01*
X16483405Y-13698553D02*
X16464357Y-13708077D01*
X16464357Y-13708077D02*
X16426262Y-13708077D01*
X16426262Y-13708077D02*
X16407214Y-13698553D01*
X16407214Y-13698553D02*
X16397690Y-13679506D01*
X16397690Y-13679506D02*
X16397690Y-13603315D01*
X16397690Y-13603315D02*
X16407214Y-13584268D01*
X16407214Y-13584268D02*
X16426262Y-13574744D01*
X16426262Y-13574744D02*
X16464357Y-13574744D01*
X16464357Y-13574744D02*
X16483405Y-13584268D01*
X16483405Y-13584268D02*
X16492928Y-13603315D01*
X16492928Y-13603315D02*
X16492928Y-13622363D01*
X16492928Y-13622363D02*
X16397690Y-13641411D01*
X16569119Y-13698553D02*
X16588166Y-13708077D01*
X16588166Y-13708077D02*
X16626262Y-13708077D01*
X16626262Y-13708077D02*
X16645309Y-13698553D01*
X16645309Y-13698553D02*
X16654833Y-13679506D01*
X16654833Y-13679506D02*
X16654833Y-13669982D01*
X16654833Y-13669982D02*
X16645309Y-13650934D01*
X16645309Y-13650934D02*
X16626262Y-13641411D01*
X16626262Y-13641411D02*
X16597690Y-13641411D01*
X16597690Y-13641411D02*
X16578643Y-13631887D01*
X16578643Y-13631887D02*
X16569119Y-13612839D01*
X16569119Y-13612839D02*
X16569119Y-13603315D01*
X16569119Y-13603315D02*
X16578643Y-13584268D01*
X16578643Y-13584268D02*
X16597690Y-13574744D01*
X16597690Y-13574744D02*
X16626262Y-13574744D01*
X16626262Y-13574744D02*
X16645309Y-13584268D01*
X16721500Y-13784268D02*
X16731024Y-13774744D01*
X16731024Y-13774744D02*
X16750071Y-13746172D01*
X16750071Y-13746172D02*
X16759595Y-13727125D01*
X16759595Y-13727125D02*
X16769119Y-13698553D01*
X16769119Y-13698553D02*
X16778643Y-13650934D01*
X16778643Y-13650934D02*
X16778643Y-13612839D01*
X16778643Y-13612839D02*
X16769119Y-13565220D01*
X16769119Y-13565220D02*
X16759595Y-13536649D01*
X16759595Y-13536649D02*
X16750071Y-13517601D01*
X16750071Y-13517601D02*
X16731024Y-13489030D01*
X16731024Y-13489030D02*
X16721500Y-13479506D01*
M02*
