%TF.GenerationSoftware,KiCad,Pcbnew,9.0.5*%
%TF.CreationDate,2026-01-02T17:39:59+00:00*%
%TF.ProjectId,DataIOROM,44617461-494f-4524-9f4d-2e6b69636164,rev?*%
%TF.SameCoordinates,Original*%
%TF.FileFunction,Legend,Bot*%
%TF.FilePolarity,Positive*%
%FSLAX46Y46*%
G04 Gerber Fmt 4.6, Leading zero omitted, Abs format (unit mm)*
G04 Created by KiCad (PCBNEW 9.0.5) date 2026-01-02 17:39:59*
%MOMM*%
%LPD*%
G01*
G04 APERTURE LIST*
%ADD10C,0.150000*%
%ADD11C,0.100000*%
%ADD12C,0.120000*%
G04 APERTURE END LIST*
D10*
X188515048Y-90132819D02*
X188515048Y-90847104D01*
X188515048Y-90847104D02*
X188562667Y-90989961D01*
X188562667Y-90989961D02*
X188657905Y-91085200D01*
X188657905Y-91085200D02*
X188800762Y-91132819D01*
X188800762Y-91132819D02*
X188896000Y-91132819D01*
X187562667Y-91132819D02*
X188038857Y-91132819D01*
X188038857Y-91132819D02*
X188038857Y-90132819D01*
X186657905Y-91037580D02*
X186705524Y-91085200D01*
X186705524Y-91085200D02*
X186848381Y-91132819D01*
X186848381Y-91132819D02*
X186943619Y-91132819D01*
X186943619Y-91132819D02*
X187086476Y-91085200D01*
X187086476Y-91085200D02*
X187181714Y-90989961D01*
X187181714Y-90989961D02*
X187229333Y-90894723D01*
X187229333Y-90894723D02*
X187276952Y-90704247D01*
X187276952Y-90704247D02*
X187276952Y-90561390D01*
X187276952Y-90561390D02*
X187229333Y-90370914D01*
X187229333Y-90370914D02*
X187181714Y-90275676D01*
X187181714Y-90275676D02*
X187086476Y-90180438D01*
X187086476Y-90180438D02*
X186943619Y-90132819D01*
X186943619Y-90132819D02*
X186848381Y-90132819D01*
X186848381Y-90132819D02*
X186705524Y-90180438D01*
X186705524Y-90180438D02*
X186657905Y-90228057D01*
X185943619Y-90132819D02*
X185943619Y-90847104D01*
X185943619Y-90847104D02*
X185991238Y-90989961D01*
X185991238Y-90989961D02*
X186086476Y-91085200D01*
X186086476Y-91085200D02*
X186229333Y-91132819D01*
X186229333Y-91132819D02*
X186324571Y-91132819D01*
X184991238Y-91132819D02*
X185467428Y-91132819D01*
X185467428Y-91132819D02*
X185467428Y-90132819D01*
X184086476Y-91037580D02*
X184134095Y-91085200D01*
X184134095Y-91085200D02*
X184276952Y-91132819D01*
X184276952Y-91132819D02*
X184372190Y-91132819D01*
X184372190Y-91132819D02*
X184515047Y-91085200D01*
X184515047Y-91085200D02*
X184610285Y-90989961D01*
X184610285Y-90989961D02*
X184657904Y-90894723D01*
X184657904Y-90894723D02*
X184705523Y-90704247D01*
X184705523Y-90704247D02*
X184705523Y-90561390D01*
X184705523Y-90561390D02*
X184657904Y-90370914D01*
X184657904Y-90370914D02*
X184610285Y-90275676D01*
X184610285Y-90275676D02*
X184515047Y-90180438D01*
X184515047Y-90180438D02*
X184372190Y-90132819D01*
X184372190Y-90132819D02*
X184276952Y-90132819D01*
X184276952Y-90132819D02*
X184134095Y-90180438D01*
X184134095Y-90180438D02*
X184086476Y-90228057D01*
X183372190Y-90132819D02*
X183372190Y-90847104D01*
X183372190Y-90847104D02*
X183419809Y-90989961D01*
X183419809Y-90989961D02*
X183515047Y-91085200D01*
X183515047Y-91085200D02*
X183657904Y-91132819D01*
X183657904Y-91132819D02*
X183753142Y-91132819D01*
X182419809Y-91132819D02*
X182895999Y-91132819D01*
X182895999Y-91132819D02*
X182895999Y-90132819D01*
X181515047Y-91037580D02*
X181562666Y-91085200D01*
X181562666Y-91085200D02*
X181705523Y-91132819D01*
X181705523Y-91132819D02*
X181800761Y-91132819D01*
X181800761Y-91132819D02*
X181943618Y-91085200D01*
X181943618Y-91085200D02*
X182038856Y-90989961D01*
X182038856Y-90989961D02*
X182086475Y-90894723D01*
X182086475Y-90894723D02*
X182134094Y-90704247D01*
X182134094Y-90704247D02*
X182134094Y-90561390D01*
X182134094Y-90561390D02*
X182086475Y-90370914D01*
X182086475Y-90370914D02*
X182038856Y-90275676D01*
X182038856Y-90275676D02*
X181943618Y-90180438D01*
X181943618Y-90180438D02*
X181800761Y-90132819D01*
X181800761Y-90132819D02*
X181705523Y-90132819D01*
X181705523Y-90132819D02*
X181562666Y-90180438D01*
X181562666Y-90180438D02*
X181515047Y-90228057D01*
X180800761Y-90132819D02*
X180800761Y-90847104D01*
X180800761Y-90847104D02*
X180848380Y-90989961D01*
X180848380Y-90989961D02*
X180943618Y-91085200D01*
X180943618Y-91085200D02*
X181086475Y-91132819D01*
X181086475Y-91132819D02*
X181181713Y-91132819D01*
X179848380Y-91132819D02*
X180324570Y-91132819D01*
X180324570Y-91132819D02*
X180324570Y-90132819D01*
X178943618Y-91037580D02*
X178991237Y-91085200D01*
X178991237Y-91085200D02*
X179134094Y-91132819D01*
X179134094Y-91132819D02*
X179229332Y-91132819D01*
X179229332Y-91132819D02*
X179372189Y-91085200D01*
X179372189Y-91085200D02*
X179467427Y-90989961D01*
X179467427Y-90989961D02*
X179515046Y-90894723D01*
X179515046Y-90894723D02*
X179562665Y-90704247D01*
X179562665Y-90704247D02*
X179562665Y-90561390D01*
X179562665Y-90561390D02*
X179515046Y-90370914D01*
X179515046Y-90370914D02*
X179467427Y-90275676D01*
X179467427Y-90275676D02*
X179372189Y-90180438D01*
X179372189Y-90180438D02*
X179229332Y-90132819D01*
X179229332Y-90132819D02*
X179134094Y-90132819D01*
X179134094Y-90132819D02*
X178991237Y-90180438D01*
X178991237Y-90180438D02*
X178943618Y-90228057D01*
D11*
X171842902Y-95676686D02*
X172859849Y-95826719D01*
X172859849Y-95826719D02*
X172164882Y-96078725D01*
X172164882Y-96078725D02*
X172893051Y-96206222D01*
X172893051Y-96206222D02*
X171917607Y-96530567D01*
X172947004Y-96822914D02*
X171950810Y-96910070D01*
X172984357Y-97249854D02*
X172462540Y-97295508D01*
X172462540Y-97295508D02*
X172363514Y-97256370D01*
X172363514Y-97256370D02*
X172307776Y-97165645D01*
X172307776Y-97165645D02*
X172295325Y-97023331D01*
X172295325Y-97023331D02*
X172334463Y-96924305D01*
X172334463Y-96924305D02*
X172377750Y-96872717D01*
X173011624Y-98107886D02*
X173050761Y-98008860D01*
X173050761Y-98008860D02*
X173034160Y-97819109D01*
X173034160Y-97819109D02*
X172978422Y-97728383D01*
X172978422Y-97728383D02*
X172879396Y-97689246D01*
X172879396Y-97689246D02*
X172499893Y-97722448D01*
X172499893Y-97722448D02*
X172409167Y-97778187D01*
X172409167Y-97778187D02*
X172370030Y-97877213D01*
X172370030Y-97877213D02*
X172386631Y-98066964D01*
X172386631Y-98066964D02*
X172442370Y-98157689D01*
X172442370Y-98157689D02*
X172541396Y-98196827D01*
X172541396Y-98196827D02*
X172636271Y-98188526D01*
X172636271Y-98188526D02*
X172689644Y-97705847D01*
X173100564Y-98578114D02*
X172436435Y-98636218D01*
X172626186Y-98619617D02*
X172535461Y-98675355D01*
X172535461Y-98675355D02*
X172492173Y-98726944D01*
X172492173Y-98726944D02*
X172453036Y-98825970D01*
X172453036Y-98825970D02*
X172461336Y-98920845D01*
X173140282Y-99578460D02*
X173179420Y-99479434D01*
X173179420Y-99479434D02*
X173162819Y-99289682D01*
X173162819Y-99289682D02*
X173107080Y-99198957D01*
X173107080Y-99198957D02*
X173008054Y-99159820D01*
X173008054Y-99159820D02*
X172628551Y-99193022D01*
X172628551Y-99193022D02*
X172537826Y-99248760D01*
X172537826Y-99248760D02*
X172498689Y-99347786D01*
X172498689Y-99347786D02*
X172515290Y-99537538D01*
X172515290Y-99537538D02*
X172571028Y-99628263D01*
X172571028Y-99628263D02*
X172670054Y-99667400D01*
X172670054Y-99667400D02*
X172764930Y-99659100D01*
X172764930Y-99659100D02*
X172818303Y-99176421D01*
X172619047Y-100723484D02*
X172652249Y-101102987D01*
X172299433Y-100894849D02*
X173153314Y-100820145D01*
X173153314Y-100820145D02*
X173252340Y-100859282D01*
X173252340Y-100859282D02*
X173308078Y-100950007D01*
X173308078Y-100950007D02*
X173316379Y-101044883D01*
X173345431Y-101376948D02*
X172349236Y-101464104D01*
X173382783Y-101803889D02*
X172860967Y-101849542D01*
X172860967Y-101849542D02*
X172761941Y-101810405D01*
X172761941Y-101810405D02*
X172706202Y-101719679D01*
X172706202Y-101719679D02*
X172693752Y-101577366D01*
X172693752Y-101577366D02*
X172732889Y-101478340D01*
X172732889Y-101478340D02*
X172776176Y-101426752D01*
X173410050Y-102661920D02*
X173449187Y-102562894D01*
X173449187Y-102562894D02*
X173432586Y-102373143D01*
X173432586Y-102373143D02*
X173376848Y-102282418D01*
X173376848Y-102282418D02*
X173277822Y-102243280D01*
X173277822Y-102243280D02*
X172898319Y-102276483D01*
X172898319Y-102276483D02*
X172807594Y-102332221D01*
X172807594Y-102332221D02*
X172768457Y-102431247D01*
X172768457Y-102431247D02*
X172785058Y-102620998D01*
X172785058Y-102620998D02*
X172840796Y-102711724D01*
X172840796Y-102711724D02*
X172939822Y-102750861D01*
X172939822Y-102750861D02*
X173034698Y-102742560D01*
X173034698Y-102742560D02*
X173088071Y-102259881D01*
X173551159Y-104274807D02*
X173590297Y-104175781D01*
X173590297Y-104175781D02*
X173573696Y-103986030D01*
X173573696Y-103986030D02*
X173517957Y-103895305D01*
X173517957Y-103895305D02*
X173418931Y-103856167D01*
X173418931Y-103856167D02*
X173039429Y-103889370D01*
X173039429Y-103889370D02*
X172948703Y-103945108D01*
X172948703Y-103945108D02*
X172909566Y-104044134D01*
X172909566Y-104044134D02*
X172926167Y-104233885D01*
X172926167Y-104233885D02*
X172981905Y-104324611D01*
X172981905Y-104324611D02*
X173080931Y-104363748D01*
X173080931Y-104363748D02*
X173175807Y-104355447D01*
X173175807Y-104355447D02*
X173229180Y-103872768D01*
X173652551Y-104887349D02*
X173596813Y-104796624D01*
X173596813Y-104796624D02*
X173497787Y-104757487D01*
X173497787Y-104757487D02*
X172643905Y-104832191D01*
X173671517Y-105650505D02*
X173710655Y-105551479D01*
X173710655Y-105551479D02*
X173694054Y-105361728D01*
X173694054Y-105361728D02*
X173638315Y-105271003D01*
X173638315Y-105271003D02*
X173539289Y-105231865D01*
X173539289Y-105231865D02*
X173159787Y-105265068D01*
X173159787Y-105265068D02*
X173069061Y-105320806D01*
X173069061Y-105320806D02*
X173029924Y-105419832D01*
X173029924Y-105419832D02*
X173046525Y-105609583D01*
X173046525Y-105609583D02*
X173102263Y-105700309D01*
X173102263Y-105700309D02*
X173201289Y-105739446D01*
X173201289Y-105739446D02*
X173296165Y-105731145D01*
X173296165Y-105731145D02*
X173349538Y-105248467D01*
X173750373Y-106551825D02*
X173789510Y-106452799D01*
X173789510Y-106452799D02*
X173772909Y-106263047D01*
X173772909Y-106263047D02*
X173717170Y-106172322D01*
X173717170Y-106172322D02*
X173665582Y-106129034D01*
X173665582Y-106129034D02*
X173566556Y-106089897D01*
X173566556Y-106089897D02*
X173281929Y-106114799D01*
X173281929Y-106114799D02*
X173191204Y-106170537D01*
X173191204Y-106170537D02*
X173147916Y-106222125D01*
X173147916Y-106222125D02*
X173108779Y-106321151D01*
X173108779Y-106321151D02*
X173125380Y-106510902D01*
X173125380Y-106510902D02*
X173181119Y-106601628D01*
X173158582Y-106890405D02*
X173191785Y-107269908D01*
X172838968Y-107061771D02*
X173692849Y-106987066D01*
X173692849Y-106987066D02*
X173791875Y-107026203D01*
X173791875Y-107026203D02*
X173847614Y-107116929D01*
X173847614Y-107116929D02*
X173855914Y-107211804D01*
X173884966Y-107543870D02*
X173220837Y-107601973D01*
X173410588Y-107585372D02*
X173319862Y-107641111D01*
X173319862Y-107641111D02*
X173276575Y-107692699D01*
X173276575Y-107692699D02*
X173237438Y-107791725D01*
X173237438Y-107791725D02*
X173245738Y-107886600D01*
X173951371Y-108302875D02*
X173895632Y-108212150D01*
X173895632Y-108212150D02*
X173844044Y-108168862D01*
X173844044Y-108168862D02*
X173745018Y-108129725D01*
X173745018Y-108129725D02*
X173460391Y-108154627D01*
X173460391Y-108154627D02*
X173369666Y-108210365D01*
X173369666Y-108210365D02*
X173326378Y-108261953D01*
X173326378Y-108261953D02*
X173287241Y-108360979D01*
X173287241Y-108360979D02*
X173299692Y-108503293D01*
X173299692Y-108503293D02*
X173355430Y-108594018D01*
X173355430Y-108594018D02*
X173407018Y-108637306D01*
X173407018Y-108637306D02*
X173506044Y-108676443D01*
X173506044Y-108676443D02*
X173790671Y-108651541D01*
X173790671Y-108651541D02*
X173881397Y-108595803D01*
X173881397Y-108595803D02*
X173924684Y-108544215D01*
X173924684Y-108544215D02*
X173963822Y-108445189D01*
X173963822Y-108445189D02*
X173951371Y-108302875D01*
X173353645Y-109119985D02*
X174017775Y-109061881D01*
X173448521Y-109111684D02*
X173405233Y-109163272D01*
X173405233Y-109163272D02*
X173366096Y-109262298D01*
X173366096Y-109262298D02*
X173378547Y-109404612D01*
X173378547Y-109404612D02*
X173434285Y-109495337D01*
X173434285Y-109495337D02*
X173533311Y-109534475D01*
X173533311Y-109534475D02*
X174055128Y-109488822D01*
X174045042Y-109919913D02*
X174100781Y-110010638D01*
X174100781Y-110010638D02*
X174117382Y-110200389D01*
X174117382Y-110200389D02*
X174078244Y-110299415D01*
X174078244Y-110299415D02*
X173987519Y-110355154D01*
X173987519Y-110355154D02*
X173940081Y-110359304D01*
X173940081Y-110359304D02*
X173841055Y-110320167D01*
X173841055Y-110320167D02*
X173785317Y-110229441D01*
X173785317Y-110229441D02*
X173772866Y-110087128D01*
X173772866Y-110087128D02*
X173717128Y-109996402D01*
X173717128Y-109996402D02*
X173618102Y-109957265D01*
X173618102Y-109957265D02*
X173570664Y-109961415D01*
X173570664Y-109961415D02*
X173479938Y-110017154D01*
X173479938Y-110017154D02*
X173440801Y-110116180D01*
X173440801Y-110116180D02*
X173453252Y-110258493D01*
X173453252Y-110258493D02*
X173508990Y-110349219D01*
X174233589Y-111528649D02*
X173569460Y-111586753D01*
X173759211Y-111570152D02*
X173668486Y-111625891D01*
X173668486Y-111625891D02*
X173625198Y-111677479D01*
X173625198Y-111677479D02*
X173586061Y-111776505D01*
X173586061Y-111776505D02*
X173594361Y-111871380D01*
X174299994Y-112287655D02*
X174244255Y-112196930D01*
X174244255Y-112196930D02*
X174192667Y-112153642D01*
X174192667Y-112153642D02*
X174093641Y-112114505D01*
X174093641Y-112114505D02*
X173809014Y-112139407D01*
X173809014Y-112139407D02*
X173718289Y-112195145D01*
X173718289Y-112195145D02*
X173675001Y-112246733D01*
X173675001Y-112246733D02*
X173635864Y-112345759D01*
X173635864Y-112345759D02*
X173648315Y-112488073D01*
X173648315Y-112488073D02*
X173704053Y-112578798D01*
X173704053Y-112578798D02*
X173755641Y-112622086D01*
X173755641Y-112622086D02*
X173854667Y-112661223D01*
X173854667Y-112661223D02*
X174139294Y-112636321D01*
X174139294Y-112636321D02*
X174230020Y-112580583D01*
X174230020Y-112580583D02*
X174273307Y-112528995D01*
X174273307Y-112528995D02*
X174312445Y-112429969D01*
X174312445Y-112429969D02*
X174299994Y-112287655D01*
X174403751Y-113473601D02*
X173881934Y-113519254D01*
X173881934Y-113519254D02*
X173782908Y-113480117D01*
X173782908Y-113480117D02*
X173727170Y-113389392D01*
X173727170Y-113389392D02*
X173710569Y-113199640D01*
X173710569Y-113199640D02*
X173749706Y-113100614D01*
X174356313Y-113477752D02*
X174395450Y-113378726D01*
X174395450Y-113378726D02*
X174374699Y-113141537D01*
X174374699Y-113141537D02*
X174318960Y-113050811D01*
X174318960Y-113050811D02*
X174219934Y-113011674D01*
X174219934Y-113011674D02*
X174125059Y-113019974D01*
X174125059Y-113019974D02*
X174034333Y-113075713D01*
X174034333Y-113075713D02*
X173995196Y-113174739D01*
X173995196Y-113174739D02*
X174015947Y-113411928D01*
X174015947Y-113411928D02*
X173976810Y-113510954D01*
X174445253Y-113947980D02*
X173781124Y-114006084D01*
X173875999Y-113997783D02*
X173832712Y-114049371D01*
X173832712Y-114049371D02*
X173793574Y-114148397D01*
X173793574Y-114148397D02*
X173806025Y-114290711D01*
X173806025Y-114290711D02*
X173861764Y-114381436D01*
X173861764Y-114381436D02*
X173960790Y-114420574D01*
X173960790Y-114420574D02*
X174482606Y-114374921D01*
X173960790Y-114420574D02*
X173870064Y-114476312D01*
X173870064Y-114476312D02*
X173830927Y-114575338D01*
X173830927Y-114575338D02*
X173843378Y-114717651D01*
X173843378Y-114717651D02*
X173899116Y-114808377D01*
X173899116Y-114808377D02*
X173998142Y-114847514D01*
X173998142Y-114847514D02*
X174519958Y-114801861D01*
D10*
X160363819Y-119427666D02*
X161078104Y-119427666D01*
X161078104Y-119427666D02*
X161220961Y-119380047D01*
X161220961Y-119380047D02*
X161316200Y-119284809D01*
X161316200Y-119284809D02*
X161363819Y-119141952D01*
X161363819Y-119141952D02*
X161363819Y-119046714D01*
X160363819Y-119808619D02*
X160363819Y-120427666D01*
X160363819Y-120427666D02*
X160744771Y-120094333D01*
X160744771Y-120094333D02*
X160744771Y-120237190D01*
X160744771Y-120237190D02*
X160792390Y-120332428D01*
X160792390Y-120332428D02*
X160840009Y-120380047D01*
X160840009Y-120380047D02*
X160935247Y-120427666D01*
X160935247Y-120427666D02*
X161173342Y-120427666D01*
X161173342Y-120427666D02*
X161268580Y-120380047D01*
X161268580Y-120380047D02*
X161316200Y-120332428D01*
X161316200Y-120332428D02*
X161363819Y-120237190D01*
X161363819Y-120237190D02*
X161363819Y-119951476D01*
X161363819Y-119951476D02*
X161316200Y-119856238D01*
X161316200Y-119856238D02*
X161268580Y-119808619D01*
X157696819Y-119427666D02*
X158411104Y-119427666D01*
X158411104Y-119427666D02*
X158553961Y-119380047D01*
X158553961Y-119380047D02*
X158649200Y-119284809D01*
X158649200Y-119284809D02*
X158696819Y-119141952D01*
X158696819Y-119141952D02*
X158696819Y-119046714D01*
X157792057Y-119856238D02*
X157744438Y-119903857D01*
X157744438Y-119903857D02*
X157696819Y-119999095D01*
X157696819Y-119999095D02*
X157696819Y-120237190D01*
X157696819Y-120237190D02*
X157744438Y-120332428D01*
X157744438Y-120332428D02*
X157792057Y-120380047D01*
X157792057Y-120380047D02*
X157887295Y-120427666D01*
X157887295Y-120427666D02*
X157982533Y-120427666D01*
X157982533Y-120427666D02*
X158125390Y-120380047D01*
X158125390Y-120380047D02*
X158696819Y-119808619D01*
X158696819Y-119808619D02*
X158696819Y-120427666D01*
X129079523Y-95339819D02*
X129079523Y-96054104D01*
X129079523Y-96054104D02*
X129127142Y-96196961D01*
X129127142Y-96196961D02*
X129222380Y-96292200D01*
X129222380Y-96292200D02*
X129365237Y-96339819D01*
X129365237Y-96339819D02*
X129460475Y-96339819D01*
X128079523Y-96339819D02*
X128650951Y-96339819D01*
X128365237Y-96339819D02*
X128365237Y-95339819D01*
X128365237Y-95339819D02*
X128460475Y-95482676D01*
X128460475Y-95482676D02*
X128555713Y-95577914D01*
X128555713Y-95577914D02*
X128650951Y-95625533D01*
X127127142Y-96339819D02*
X127698570Y-96339819D01*
X127412856Y-96339819D02*
X127412856Y-95339819D01*
X127412856Y-95339819D02*
X127508094Y-95482676D01*
X127508094Y-95482676D02*
X127603332Y-95577914D01*
X127603332Y-95577914D02*
X127698570Y-95625533D01*
X155156819Y-119554666D02*
X155871104Y-119554666D01*
X155871104Y-119554666D02*
X156013961Y-119507047D01*
X156013961Y-119507047D02*
X156109200Y-119411809D01*
X156109200Y-119411809D02*
X156156819Y-119268952D01*
X156156819Y-119268952D02*
X156156819Y-119173714D01*
X156156819Y-120554666D02*
X156156819Y-119983238D01*
X156156819Y-120268952D02*
X155156819Y-120268952D01*
X155156819Y-120268952D02*
X155299676Y-120173714D01*
X155299676Y-120173714D02*
X155394914Y-120078476D01*
X155394914Y-120078476D02*
X155442533Y-119983238D01*
X128095333Y-90513819D02*
X128095333Y-91228104D01*
X128095333Y-91228104D02*
X128142952Y-91370961D01*
X128142952Y-91370961D02*
X128238190Y-91466200D01*
X128238190Y-91466200D02*
X128381047Y-91513819D01*
X128381047Y-91513819D02*
X128476285Y-91513819D01*
X127714380Y-90513819D02*
X127047714Y-90513819D01*
X127047714Y-90513819D02*
X127476285Y-91513819D01*
X128222333Y-93053819D02*
X128222333Y-93768104D01*
X128222333Y-93768104D02*
X128269952Y-93910961D01*
X128269952Y-93910961D02*
X128365190Y-94006200D01*
X128365190Y-94006200D02*
X128508047Y-94053819D01*
X128508047Y-94053819D02*
X128603285Y-94053819D01*
X127603285Y-93482390D02*
X127698523Y-93434771D01*
X127698523Y-93434771D02*
X127746142Y-93387152D01*
X127746142Y-93387152D02*
X127793761Y-93291914D01*
X127793761Y-93291914D02*
X127793761Y-93244295D01*
X127793761Y-93244295D02*
X127746142Y-93149057D01*
X127746142Y-93149057D02*
X127698523Y-93101438D01*
X127698523Y-93101438D02*
X127603285Y-93053819D01*
X127603285Y-93053819D02*
X127412809Y-93053819D01*
X127412809Y-93053819D02*
X127317571Y-93101438D01*
X127317571Y-93101438D02*
X127269952Y-93149057D01*
X127269952Y-93149057D02*
X127222333Y-93244295D01*
X127222333Y-93244295D02*
X127222333Y-93291914D01*
X127222333Y-93291914D02*
X127269952Y-93387152D01*
X127269952Y-93387152D02*
X127317571Y-93434771D01*
X127317571Y-93434771D02*
X127412809Y-93482390D01*
X127412809Y-93482390D02*
X127603285Y-93482390D01*
X127603285Y-93482390D02*
X127698523Y-93530009D01*
X127698523Y-93530009D02*
X127746142Y-93577628D01*
X127746142Y-93577628D02*
X127793761Y-93672866D01*
X127793761Y-93672866D02*
X127793761Y-93863342D01*
X127793761Y-93863342D02*
X127746142Y-93958580D01*
X127746142Y-93958580D02*
X127698523Y-94006200D01*
X127698523Y-94006200D02*
X127603285Y-94053819D01*
X127603285Y-94053819D02*
X127412809Y-94053819D01*
X127412809Y-94053819D02*
X127317571Y-94006200D01*
X127317571Y-94006200D02*
X127269952Y-93958580D01*
X127269952Y-93958580D02*
X127222333Y-93863342D01*
X127222333Y-93863342D02*
X127222333Y-93672866D01*
X127222333Y-93672866D02*
X127269952Y-93577628D01*
X127269952Y-93577628D02*
X127317571Y-93530009D01*
X127317571Y-93530009D02*
X127412809Y-93482390D01*
X127968333Y-87719819D02*
X127968333Y-88434104D01*
X127968333Y-88434104D02*
X128015952Y-88576961D01*
X128015952Y-88576961D02*
X128111190Y-88672200D01*
X128111190Y-88672200D02*
X128254047Y-88719819D01*
X128254047Y-88719819D02*
X128349285Y-88719819D01*
X127063571Y-87719819D02*
X127254047Y-87719819D01*
X127254047Y-87719819D02*
X127349285Y-87767438D01*
X127349285Y-87767438D02*
X127396904Y-87815057D01*
X127396904Y-87815057D02*
X127492142Y-87957914D01*
X127492142Y-87957914D02*
X127539761Y-88148390D01*
X127539761Y-88148390D02*
X127539761Y-88529342D01*
X127539761Y-88529342D02*
X127492142Y-88624580D01*
X127492142Y-88624580D02*
X127444523Y-88672200D01*
X127444523Y-88672200D02*
X127349285Y-88719819D01*
X127349285Y-88719819D02*
X127158809Y-88719819D01*
X127158809Y-88719819D02*
X127063571Y-88672200D01*
X127063571Y-88672200D02*
X127015952Y-88624580D01*
X127015952Y-88624580D02*
X126968333Y-88529342D01*
X126968333Y-88529342D02*
X126968333Y-88291247D01*
X126968333Y-88291247D02*
X127015952Y-88196009D01*
X127015952Y-88196009D02*
X127063571Y-88148390D01*
X127063571Y-88148390D02*
X127158809Y-88100771D01*
X127158809Y-88100771D02*
X127349285Y-88100771D01*
X127349285Y-88100771D02*
X127444523Y-88148390D01*
X127444523Y-88148390D02*
X127492142Y-88196009D01*
X127492142Y-88196009D02*
X127539761Y-88291247D01*
X164554819Y-119427666D02*
X165269104Y-119427666D01*
X165269104Y-119427666D02*
X165411961Y-119380047D01*
X165411961Y-119380047D02*
X165507200Y-119284809D01*
X165507200Y-119284809D02*
X165554819Y-119141952D01*
X165554819Y-119141952D02*
X165554819Y-119046714D01*
X164554819Y-120380047D02*
X164554819Y-119903857D01*
X164554819Y-119903857D02*
X165031009Y-119856238D01*
X165031009Y-119856238D02*
X164983390Y-119903857D01*
X164983390Y-119903857D02*
X164935771Y-119999095D01*
X164935771Y-119999095D02*
X164935771Y-120237190D01*
X164935771Y-120237190D02*
X164983390Y-120332428D01*
X164983390Y-120332428D02*
X165031009Y-120380047D01*
X165031009Y-120380047D02*
X165126247Y-120427666D01*
X165126247Y-120427666D02*
X165364342Y-120427666D01*
X165364342Y-120427666D02*
X165459580Y-120380047D01*
X165459580Y-120380047D02*
X165507200Y-120332428D01*
X165507200Y-120332428D02*
X165554819Y-120237190D01*
X165554819Y-120237190D02*
X165554819Y-119999095D01*
X165554819Y-119999095D02*
X165507200Y-119903857D01*
X165507200Y-119903857D02*
X165459580Y-119856238D01*
X162903819Y-119427666D02*
X163618104Y-119427666D01*
X163618104Y-119427666D02*
X163760961Y-119380047D01*
X163760961Y-119380047D02*
X163856200Y-119284809D01*
X163856200Y-119284809D02*
X163903819Y-119141952D01*
X163903819Y-119141952D02*
X163903819Y-119046714D01*
X163237152Y-120332428D02*
X163903819Y-120332428D01*
X162856200Y-120094333D02*
X163570485Y-119856238D01*
X163570485Y-119856238D02*
X163570485Y-120475285D01*
D12*
%TO.C,U18*%
X117345800Y-105788000D02*
X117345800Y-126365000D01*
X117345800Y-126365000D02*
X127545800Y-126365000D01*
X119765800Y-105965000D02*
X119765800Y-126365000D01*
X119765800Y-126238000D02*
X125132800Y-126238000D01*
X125132800Y-105918000D02*
X119799801Y-105918000D01*
X125175800Y-126365000D02*
X125175800Y-105838000D01*
X127545800Y-105788000D02*
X117345800Y-105788000D01*
X127555800Y-126365000D02*
X127555800Y-105798000D01*
X123481800Y-105918000D02*
G75*
G02*
X121481798Y-105918000I-1000001J0D01*
G01*
%TO.C,U7*%
X135125800Y-54988000D02*
X135125800Y-75565000D01*
X135125800Y-75565000D02*
X145325800Y-75565000D01*
X137545800Y-55165000D02*
X137545800Y-75565000D01*
X137545800Y-75438000D02*
X142912800Y-75438000D01*
X142912800Y-55118000D02*
X137579801Y-55118000D01*
X142955800Y-75565000D02*
X142955800Y-55038000D01*
X145325800Y-54988000D02*
X135125800Y-54988000D01*
X145335800Y-75565000D02*
X145335800Y-54998000D01*
X141261800Y-55118000D02*
G75*
G02*
X139261798Y-55118000I-1000001J0D01*
G01*
%TO.C,J3*%
X161210000Y-120929300D02*
X160041600Y-120929300D01*
X160041600Y-120929300D02*
X160041600Y-125171100D01*
X161210000Y-125171100D02*
X161210000Y-120929300D01*
X160041600Y-125171100D02*
X161210000Y-125171100D01*
X160041600Y-125348900D02*
X161210000Y-125348900D01*
%TO.C,J2*%
X158700000Y-120929300D02*
X157531600Y-120929300D01*
X157531600Y-120929300D02*
X157531600Y-125171100D01*
X158700000Y-125171100D02*
X158700000Y-120929300D01*
X157531600Y-125171100D02*
X158700000Y-125171100D01*
X157531600Y-125348900D02*
X158700000Y-125348900D01*
%TO.C,J11*%
X126199500Y-96342200D02*
X126199500Y-95173800D01*
X126199500Y-95173800D02*
X121957700Y-95173800D01*
X121957700Y-96342200D02*
X126199500Y-96342200D01*
X121957700Y-95173800D02*
X121957700Y-96342200D01*
X121779900Y-95173800D02*
X121779900Y-96342200D01*
%TO.C,J1*%
X156190000Y-120929300D02*
X155021600Y-120929300D01*
X155021600Y-120929300D02*
X155021600Y-125171100D01*
X156190000Y-125171100D02*
X156190000Y-120929300D01*
X155021600Y-125171100D02*
X156190000Y-125171100D01*
X155021600Y-125348900D02*
X156190000Y-125348900D01*
%TO.C,J7*%
X126199500Y-91322200D02*
X126199500Y-90153800D01*
X126199500Y-90153800D02*
X121957700Y-90153800D01*
X121957700Y-91322200D02*
X126199500Y-91322200D01*
X121957700Y-90153800D02*
X121957700Y-91322200D01*
X121779900Y-90153800D02*
X121779900Y-91322200D01*
%TO.C,J8*%
X126199500Y-93832200D02*
X126199500Y-92663800D01*
X126199500Y-92663800D02*
X121957700Y-92663800D01*
X121957700Y-93832200D02*
X126199500Y-93832200D01*
X121957700Y-92663800D02*
X121957700Y-93832200D01*
X121779900Y-92663800D02*
X121779900Y-93832200D01*
%TO.C,J6*%
X126199500Y-88812200D02*
X126199500Y-87643800D01*
X126199500Y-87643800D02*
X121957700Y-87643800D01*
X121957700Y-88812200D02*
X126199500Y-88812200D01*
X121957700Y-87643800D02*
X121957700Y-88812200D01*
X121779900Y-87643800D02*
X121779900Y-88812200D01*
%TO.C,J5*%
X165557200Y-120929300D02*
X164388800Y-120929300D01*
X164388800Y-120929300D02*
X164388800Y-125171100D01*
X165557200Y-125171100D02*
X165557200Y-120929300D01*
X164388800Y-125171100D02*
X165557200Y-125171100D01*
X164388800Y-125348900D02*
X165557200Y-125348900D01*
%TO.C,J4*%
X163720000Y-120929300D02*
X162551600Y-120929300D01*
X162551600Y-120929300D02*
X162551600Y-125171100D01*
X163720000Y-125171100D02*
X163720000Y-120929300D01*
X162551600Y-125171100D02*
X163720000Y-125171100D01*
X162551600Y-125348900D02*
X163720000Y-125348900D01*
%TD*%
M02*
