%TF.GenerationSoftware,KiCad,Pcbnew,9.0.5*%
%TF.CreationDate,2026-01-02T17:39:59+00:00*%
%TF.ProjectId,DataIOROM,44617461-494f-4524-9f4d-2e6b69636164,rev?*%
%TF.SameCoordinates,Original*%
%TF.FileFunction,Soldermask,Top*%
%TF.FilePolarity,Negative*%
%FSLAX46Y46*%
G04 Gerber Fmt 4.6, Leading zero omitted, Abs format (unit mm)*
G04 Created by KiCad (PCBNEW 9.0.5) date 2026-01-02 17:39:59*
%MOMM*%
%LPD*%
G01*
G04 APERTURE LIST*
G04 Aperture macros list*
%AMRoundRect*
0 Rectangle with rounded corners*
0 $1 Rounding radius*
0 $2 $3 $4 $5 $6 $7 $8 $9 X,Y pos of 4 corners*
0 Add a 4 corners polygon primitive as box body*
4,1,4,$2,$3,$4,$5,$6,$7,$8,$9,$2,$3,0*
0 Add four circle primitives for the rounded corners*
1,1,$1+$1,$2,$3*
1,1,$1+$1,$4,$5*
1,1,$1+$1,$6,$7*
1,1,$1+$1,$8,$9*
0 Add four rect primitives between the rounded corners*
20,1,$1+$1,$2,$3,$4,$5,0*
20,1,$1+$1,$4,$5,$6,$7,0*
20,1,$1+$1,$6,$7,$8,$9,0*
20,1,$1+$1,$8,$9,$2,$3,0*%
G04 Aperture macros list end*
%ADD10R,1.600000X1.600000*%
%ADD11O,1.600000X1.600000*%
%ADD12RoundRect,0.225000X-0.225000X-0.250000X0.225000X-0.250000X0.225000X0.250000X-0.225000X0.250000X0*%
%ADD13RoundRect,0.200000X0.200000X0.275000X-0.200000X0.275000X-0.200000X-0.275000X0.200000X-0.275000X0*%
%ADD14R,0.300000X1.500000*%
%ADD15RoundRect,0.225000X0.225000X0.250000X-0.225000X0.250000X-0.225000X-0.250000X0.225000X-0.250000X0*%
%ADD16RoundRect,0.218750X-0.218750X-0.256250X0.218750X-0.256250X0.218750X0.256250X-0.218750X0.256250X0*%
G04 APERTURE END LIST*
D10*
%TO.C,U18*%
X118655800Y-107188000D03*
D11*
X118655800Y-109728000D03*
X118655800Y-112268000D03*
X118655800Y-114808000D03*
X118655800Y-117348000D03*
X118655800Y-119888000D03*
X118655800Y-122428000D03*
X118655800Y-124968000D03*
X126275800Y-124968000D03*
X126275800Y-122428000D03*
X126275800Y-119888000D03*
X126275800Y-117348000D03*
X126275800Y-114808000D03*
X126275800Y-112268000D03*
X126275800Y-109728000D03*
X126275800Y-107188000D03*
%TD*%
D10*
%TO.C,U70*%
X139229800Y-56388000D03*
D11*
X139229800Y-58928000D03*
X139229800Y-61468000D03*
X139229800Y-64008000D03*
X139229800Y-66548000D03*
X139229800Y-69088000D03*
X139229800Y-71628000D03*
X139229800Y-74168000D03*
X146849800Y-74168000D03*
X146849800Y-71628000D03*
X146849800Y-69088000D03*
X146849800Y-66548000D03*
X146849800Y-64008000D03*
X146849800Y-61468000D03*
X146849800Y-58928000D03*
X146849800Y-56388000D03*
%TD*%
D10*
%TO.C,U14*%
X136435800Y-81788000D03*
D11*
X136435800Y-84328000D03*
X136435800Y-86868000D03*
X136435800Y-89408000D03*
X136435800Y-91948000D03*
X136435800Y-94488000D03*
X136435800Y-97028000D03*
X136435800Y-99568000D03*
X144055800Y-99568000D03*
X144055800Y-97028000D03*
X144055800Y-94488000D03*
X144055800Y-91948000D03*
X144055800Y-89408000D03*
X144055800Y-86868000D03*
X144055800Y-84328000D03*
X144055800Y-81788000D03*
%TD*%
D12*
%TO.C,C3*%
X124248500Y-102168000D03*
X125798500Y-102168000D03*
%TD*%
D10*
%TO.C,U19*%
X136435800Y-107188000D03*
D11*
X136435800Y-109728000D03*
X136435800Y-112268000D03*
X136435800Y-114808000D03*
X136435800Y-117348000D03*
X136435800Y-119888000D03*
X136435800Y-122428000D03*
X136435800Y-124968000D03*
X144055800Y-124968000D03*
X144055800Y-122428000D03*
X144055800Y-119888000D03*
X144055800Y-117348000D03*
X144055800Y-114808000D03*
X144055800Y-112268000D03*
X144055800Y-109728000D03*
X144055800Y-107188000D03*
%TD*%
D13*
%TO.C,R1*%
X158101800Y-122682000D03*
X156451800Y-122682000D03*
%TD*%
D14*
%TO.C,U1*%
X121273500Y-99008000D03*
X121773500Y-99008000D03*
X122273500Y-99008000D03*
X122773500Y-99008000D03*
X123273500Y-99008000D03*
X123773500Y-99008000D03*
X124273500Y-99008000D03*
X124773500Y-99008000D03*
X125273500Y-99008000D03*
X125773500Y-99008000D03*
X126273500Y-99008000D03*
X126773500Y-99008000D03*
X127273500Y-99008000D03*
X127773500Y-99008000D03*
X128273500Y-99008000D03*
X128773500Y-99008000D03*
X128773500Y-85008000D03*
X128273500Y-85008000D03*
X127773500Y-85008000D03*
X127273500Y-85008000D03*
X126773500Y-85008000D03*
X126273500Y-85008000D03*
X125773500Y-85008000D03*
X125273500Y-85008000D03*
X124773500Y-85008000D03*
X124273500Y-85008000D03*
X123773500Y-85008000D03*
X123273500Y-85008000D03*
X122773500Y-85008000D03*
X122273500Y-85008000D03*
X121773500Y-85008000D03*
X121273500Y-85008000D03*
%TD*%
D10*
%TO.C,U20*%
X152945800Y-91948000D03*
D11*
X152945800Y-94488000D03*
X152945800Y-97028000D03*
X152945800Y-99568000D03*
X152945800Y-102108000D03*
X152945800Y-104648000D03*
X152945800Y-107188000D03*
X152945800Y-109728000D03*
X152945800Y-112268000D03*
X152945800Y-114808000D03*
X152945800Y-117348000D03*
X152945800Y-119888000D03*
X152945800Y-122428000D03*
X152945800Y-124968000D03*
X168185800Y-124968000D03*
X168185800Y-122428000D03*
X168185800Y-119888000D03*
X168185800Y-117348000D03*
X168185800Y-114808000D03*
X168185800Y-112268000D03*
X168185800Y-109728000D03*
X168185800Y-107188000D03*
X168185800Y-104648000D03*
X168185800Y-102108000D03*
X168185800Y-99568000D03*
X168185800Y-97028000D03*
X168185800Y-94488000D03*
X168185800Y-91948000D03*
%TD*%
D10*
%TO.C,U3*%
X180885800Y-96520000D03*
D11*
X180885800Y-99060000D03*
X180885800Y-101600000D03*
X180885800Y-104140000D03*
X180885800Y-106680000D03*
X180885800Y-109220000D03*
X180885800Y-111760000D03*
X180885800Y-114300000D03*
X180885800Y-116840000D03*
X180885800Y-119380000D03*
X188505800Y-119380000D03*
X188505800Y-116840000D03*
X188505800Y-114300000D03*
X188505800Y-111760000D03*
X188505800Y-109220000D03*
X188505800Y-106680000D03*
X188505800Y-104140000D03*
X188505800Y-101600000D03*
X188505800Y-99060000D03*
X188505800Y-96520000D03*
%TD*%
D15*
%TO.C,C2*%
X160845800Y-97028000D03*
X159295800Y-97028000D03*
%TD*%
D14*
%TO.C,U2*%
X163825800Y-99924000D03*
X163325800Y-99924000D03*
X162825800Y-99924000D03*
X162325800Y-99924000D03*
X161825800Y-99924000D03*
X161325800Y-99924000D03*
X160825800Y-99924000D03*
X160325800Y-99924000D03*
X159825800Y-99924000D03*
X159325800Y-99924000D03*
X158825800Y-99924000D03*
X158325800Y-99924000D03*
X157825800Y-99924000D03*
X157325800Y-99924000D03*
X156825800Y-99924000D03*
X156325800Y-99924000D03*
X156325800Y-113924000D03*
X156825800Y-113924000D03*
X157325800Y-113924000D03*
X157825800Y-113924000D03*
X158325800Y-113924000D03*
X158825800Y-113924000D03*
X159325800Y-113924000D03*
X159825800Y-113924000D03*
X160325800Y-113924000D03*
X160825800Y-113924000D03*
X161325800Y-113924000D03*
X161825800Y-113924000D03*
X162325800Y-113924000D03*
X162825800Y-113924000D03*
X163325800Y-113924000D03*
X163825800Y-113924000D03*
%TD*%
D10*
%TO.C,U180*%
X121449800Y-107188000D03*
D11*
X121449800Y-109728000D03*
X121449800Y-112268000D03*
X121449800Y-114808000D03*
X121449800Y-117348000D03*
X121449800Y-119888000D03*
X121449800Y-122428000D03*
X121449800Y-124968000D03*
X129069800Y-124968000D03*
X129069800Y-122428000D03*
X129069800Y-119888000D03*
X129069800Y-117348000D03*
X129069800Y-114808000D03*
X129069800Y-112268000D03*
X129069800Y-109728000D03*
X129069800Y-107188000D03*
%TD*%
D15*
%TO.C,C1*%
X188645800Y-93218000D03*
X187095800Y-93218000D03*
%TD*%
D10*
%TO.C,U7*%
X136435800Y-56388000D03*
D11*
X136435800Y-58928000D03*
X136435800Y-61468000D03*
X136435800Y-64008000D03*
X136435800Y-66548000D03*
X136435800Y-69088000D03*
X136435800Y-71628000D03*
X136435800Y-74168000D03*
X144055800Y-74168000D03*
X144055800Y-71628000D03*
X144055800Y-69088000D03*
X144055800Y-66548000D03*
X144055800Y-64008000D03*
X144055800Y-61468000D03*
X144055800Y-58928000D03*
X144055800Y-56388000D03*
%TD*%
D16*
%TO.C,D1*%
X161569300Y-122682000D03*
X163144300Y-122682000D03*
%TD*%
M02*
