M48
; DRILL file {KiCad (7.0.0)} date Fri Aug  4 18:21:41 2023
; FORMAT={-:-/ absolute / inch / decimal}
; #@! TF.CreationDate,2023-08-04T18:21:41+01:00
; #@! TF.GenerationSoftware,Kicad,Pcbnew,(7.0.0)
; #@! TF.FileFunction,Plated,1,2,PTH
FMAT,2
INCH
; #@! TA.AperFunction,Plated,PTH,ViaDrill
T1C0.0157
; #@! TA.AperFunction,Plated,PTH,ComponentDrill
T2C0.0315
%
G90
G05
T1
X4.8237Y-3.523
X4.9819Y-3.2922
X4.9885Y-3.7558
X5.0331Y-3.4053
X5.0465Y-4.1716
X5.0636Y-3.4358
X5.1029Y-3.3501
X5.1385Y-3.7226
X5.1849Y-3.8463
X5.2004Y-3.9143
X5.2468Y-4.2686
X5.2662Y-4.0862
X5.2718Y-3.0975
X5.3257Y-4.0606
X5.4829Y-4.1731
X5.5415Y-4.815
X5.7009Y-4.1646
X5.7599Y-3.7757
X5.795Y-4.87
X5.7996Y-4.1048
X5.8343Y-4.5868
X5.9502Y-4.0606
X6.0757Y-4.4896
X6.0802Y-4.6643
X6.1116Y-4.4154
X6.1257Y-4.5744
X6.1453Y-4.2732
X6.1517Y-4.4135
X6.1713Y-4.3604
X6.2461Y-4.3552
X6.2466Y-4.4259
X6.2507Y-4.0551
X6.2614Y-4.0022
X6.2721Y-4.2948
X6.2744Y-4.783
X6.2765Y-4.91
X6.2822Y-4.1229
X6.2965Y-4.02
X6.3458Y-4.0485
X6.4112Y-4.7329
X6.4128Y-3.8298
X6.4585Y-4.907
X6.5015Y-4.7322
X6.9225Y-4.1785
T2
X4.6715Y-4.22
X4.6715Y-4.32
X4.6715Y-4.42
X4.6715Y-4.52
X4.6715Y-4.62
X4.6715Y-4.72
X4.6715Y-4.82
X4.6715Y-4.92
X4.7815Y-4.22
X4.7815Y-4.32
X4.7815Y-4.42
X4.7815Y-4.52
X4.7815Y-4.62
X4.7815Y-4.72
X4.7815Y-4.82
X4.7815Y-4.92
X4.9715Y-4.22
X4.9715Y-4.32
X4.9715Y-4.42
X4.9715Y-4.52
X4.9715Y-4.62
X4.9715Y-4.72
X4.9715Y-4.82
X4.9715Y-4.92
X5.0815Y-4.22
X5.0815Y-4.32
X5.0815Y-4.42
X5.0815Y-4.52
X5.0815Y-4.62
X5.0815Y-4.72
X5.0815Y-4.82
X5.0815Y-4.92
X5.3715Y-2.22
X5.3715Y-2.32
X5.3715Y-2.42
X5.3715Y-2.52
X5.3715Y-2.62
X5.3715Y-2.72
X5.3715Y-2.82
X5.3715Y-2.92
X5.3715Y-3.22
X5.3715Y-3.32
X5.3715Y-3.42
X5.3715Y-3.52
X5.3715Y-3.62
X5.3715Y-3.72
X5.3715Y-3.82
X5.3715Y-3.92
X5.3715Y-4.22
X5.3715Y-4.32
X5.3715Y-4.42
X5.3715Y-4.52
X5.3715Y-4.62
X5.3715Y-4.72
X5.3715Y-4.82
X5.3715Y-4.92
X5.4815Y-2.22
X5.4815Y-2.32
X5.4815Y-2.42
X5.4815Y-2.52
X5.4815Y-2.62
X5.4815Y-2.72
X5.4815Y-2.82
X5.4815Y-2.92
X5.6715Y-2.22
X5.6715Y-2.32
X5.6715Y-2.42
X5.6715Y-2.52
X5.6715Y-2.62
X5.6715Y-2.72
X5.6715Y-2.82
X5.6715Y-2.92
X5.6715Y-3.22
X5.6715Y-3.32
X5.6715Y-3.42
X5.6715Y-3.52
X5.6715Y-3.62
X5.6715Y-3.72
X5.6715Y-3.82
X5.6715Y-3.92
X5.6715Y-4.22
X5.6715Y-4.32
X5.6715Y-4.42
X5.6715Y-4.52
X5.6715Y-4.62
X5.6715Y-4.72
X5.6715Y-4.82
X5.6715Y-4.92
X5.7815Y-2.22
X5.7815Y-2.32
X5.7815Y-2.42
X5.7815Y-2.52
X5.7815Y-2.62
X5.7815Y-2.72
X5.7815Y-2.82
X5.7815Y-2.92
X6.0215Y-3.62
X6.0215Y-3.72
X6.0215Y-3.82
X6.0215Y-3.92
X6.0215Y-4.02
X6.0215Y-4.12
X6.0215Y-4.22
X6.0215Y-4.32
X6.0215Y-4.42
X6.0215Y-4.52
X6.0215Y-4.62
X6.0215Y-4.72
X6.0215Y-4.82
X6.0215Y-4.92
X6.6215Y-3.62
X6.6215Y-3.72
X6.6215Y-3.82
X6.6215Y-3.92
X6.6215Y-4.02
X6.6215Y-4.12
X6.6215Y-4.22
X6.6215Y-4.32
X6.6215Y-4.42
X6.6215Y-4.52
X6.6215Y-4.62
X6.6215Y-4.72
X6.6215Y-4.82
X6.6215Y-4.92
X7.1215Y-3.8
X7.1215Y-3.9
X7.1215Y-4.0
X7.1215Y-4.1
X7.1215Y-4.2
X7.1215Y-4.3
X7.1215Y-4.4
X7.1215Y-4.5
X7.1215Y-4.6
X7.1215Y-4.7
X7.4215Y-3.8
X7.4215Y-3.9
X7.4215Y-4.0
X7.4215Y-4.1
X7.4215Y-4.2
X7.4215Y-4.3
X7.4215Y-4.4
X7.4215Y-4.5
X7.4215Y-4.6
X7.4215Y-4.7
T0
M30
