%TF.GenerationSoftware,KiCad,Pcbnew,(7.0.0)*%
%TF.CreationDate,2023-08-04T18:21:46+01:00*%
%TF.ProjectId,DataIOROM,44617461-494f-4524-9f4d-2e6b69636164,rev?*%
%TF.SameCoordinates,Original*%
%TF.FileFunction,Soldermask,Top*%
%TF.FilePolarity,Negative*%
%FSLAX46Y46*%
G04 Gerber Fmt 4.6, Leading zero omitted, Abs format (unit mm)*
G04 Created by KiCad (PCBNEW (7.0.0)) date 2023-08-04 18:21:46*
%MOMM*%
%LPD*%
G01*
G04 APERTURE LIST*
G04 Aperture macros list*
%AMRoundRect*
0 Rectangle with rounded corners*
0 $1 Rounding radius*
0 $2 $3 $4 $5 $6 $7 $8 $9 X,Y pos of 4 corners*
0 Add a 4 corners polygon primitive as box body*
4,1,4,$2,$3,$4,$5,$6,$7,$8,$9,$2,$3,0*
0 Add four circle primitives for the rounded corners*
1,1,$1+$1,$2,$3*
1,1,$1+$1,$4,$5*
1,1,$1+$1,$6,$7*
1,1,$1+$1,$8,$9*
0 Add four rect primitives between the rounded corners*
20,1,$1+$1,$2,$3,$4,$5,0*
20,1,$1+$1,$4,$5,$6,$7,0*
20,1,$1+$1,$6,$7,$8,$9,0*
20,1,$1+$1,$8,$9,$2,$3,0*%
G04 Aperture macros list end*
%ADD10R,1.600000X1.600000*%
%ADD11O,1.600000X1.600000*%
%ADD12RoundRect,0.225000X-0.225000X-0.250000X0.225000X-0.250000X0.225000X0.250000X-0.225000X0.250000X0*%
%ADD13RoundRect,0.200000X0.200000X0.275000X-0.200000X0.275000X-0.200000X-0.275000X0.200000X-0.275000X0*%
%ADD14R,0.300000X1.500000*%
%ADD15RoundRect,0.225000X0.225000X0.250000X-0.225000X0.250000X-0.225000X-0.250000X0.225000X-0.250000X0*%
%ADD16RoundRect,0.218750X-0.218750X-0.256250X0.218750X-0.256250X0.218750X0.256250X-0.218750X0.256250X0*%
G04 APERTURE END LIST*
D10*
%TO.C,U180*%
X121449799Y-107187999D03*
D11*
X121449799Y-109727999D03*
X121449799Y-112267999D03*
X121449799Y-114807999D03*
X121449799Y-117347999D03*
X121449799Y-119887999D03*
X121449799Y-122427999D03*
X121449799Y-124967999D03*
X129069799Y-124967999D03*
X129069799Y-122427999D03*
X129069799Y-119887999D03*
X129069799Y-117347999D03*
X129069799Y-114807999D03*
X129069799Y-112267999D03*
X129069799Y-109727999D03*
X129069799Y-107187999D03*
%TD*%
D10*
%TO.C,U70*%
X139229799Y-56387999D03*
D11*
X139229799Y-58927999D03*
X139229799Y-61467999D03*
X139229799Y-64007999D03*
X139229799Y-66547999D03*
X139229799Y-69087999D03*
X139229799Y-71627999D03*
X139229799Y-74167999D03*
X146849799Y-74167999D03*
X146849799Y-71627999D03*
X146849799Y-69087999D03*
X146849799Y-66547999D03*
X146849799Y-64007999D03*
X146849799Y-61467999D03*
X146849799Y-58927999D03*
X146849799Y-56387999D03*
%TD*%
D10*
%TO.C,U18*%
X118655799Y-107187999D03*
D11*
X118655799Y-109727999D03*
X118655799Y-112267999D03*
X118655799Y-114807999D03*
X118655799Y-117347999D03*
X118655799Y-119887999D03*
X118655799Y-122427999D03*
X118655799Y-124967999D03*
X126275799Y-124967999D03*
X126275799Y-122427999D03*
X126275799Y-119887999D03*
X126275799Y-117347999D03*
X126275799Y-114807999D03*
X126275799Y-112267999D03*
X126275799Y-109727999D03*
X126275799Y-107187999D03*
%TD*%
D10*
%TO.C,U7*%
X136435799Y-56387999D03*
D11*
X136435799Y-58927999D03*
X136435799Y-61467999D03*
X136435799Y-64007999D03*
X136435799Y-66547999D03*
X136435799Y-69087999D03*
X136435799Y-71627999D03*
X136435799Y-74167999D03*
X144055799Y-74167999D03*
X144055799Y-71627999D03*
X144055799Y-69087999D03*
X144055799Y-66547999D03*
X144055799Y-64007999D03*
X144055799Y-61467999D03*
X144055799Y-58927999D03*
X144055799Y-56387999D03*
%TD*%
D10*
%TO.C,U14*%
X136435799Y-81787999D03*
D11*
X136435799Y-84327999D03*
X136435799Y-86867999D03*
X136435799Y-89407999D03*
X136435799Y-91947999D03*
X136435799Y-94487999D03*
X136435799Y-97027999D03*
X136435799Y-99567999D03*
X144055799Y-99567999D03*
X144055799Y-97027999D03*
X144055799Y-94487999D03*
X144055799Y-91947999D03*
X144055799Y-89407999D03*
X144055799Y-86867999D03*
X144055799Y-84327999D03*
X144055799Y-81787999D03*
%TD*%
D12*
%TO.C,C3*%
X124248500Y-102168000D03*
X125798500Y-102168000D03*
%TD*%
D10*
%TO.C,U19*%
X136435799Y-107187999D03*
D11*
X136435799Y-109727999D03*
X136435799Y-112267999D03*
X136435799Y-114807999D03*
X136435799Y-117347999D03*
X136435799Y-119887999D03*
X136435799Y-122427999D03*
X136435799Y-124967999D03*
X144055799Y-124967999D03*
X144055799Y-122427999D03*
X144055799Y-119887999D03*
X144055799Y-117347999D03*
X144055799Y-114807999D03*
X144055799Y-112267999D03*
X144055799Y-109727999D03*
X144055799Y-107187999D03*
%TD*%
D13*
%TO.C,R1*%
X158101800Y-122682000D03*
X156451800Y-122682000D03*
%TD*%
D14*
%TO.C,U1*%
X121273499Y-99007999D03*
X121773499Y-99007999D03*
X122273499Y-99007999D03*
X122773499Y-99007999D03*
X123273499Y-99007999D03*
X123773499Y-99007999D03*
X124273499Y-99007999D03*
X124773499Y-99007999D03*
X125273499Y-99007999D03*
X125773499Y-99007999D03*
X126273499Y-99007999D03*
X126773499Y-99007999D03*
X127273499Y-99007999D03*
X127773499Y-99007999D03*
X128273499Y-99007999D03*
X128773499Y-99007999D03*
X128773499Y-85007999D03*
X128273499Y-85007999D03*
X127773499Y-85007999D03*
X127273499Y-85007999D03*
X126773499Y-85007999D03*
X126273499Y-85007999D03*
X125773499Y-85007999D03*
X125273499Y-85007999D03*
X124773499Y-85007999D03*
X124273499Y-85007999D03*
X123773499Y-85007999D03*
X123273499Y-85007999D03*
X122773499Y-85007999D03*
X122273499Y-85007999D03*
X121773499Y-85007999D03*
X121273499Y-85007999D03*
%TD*%
D10*
%TO.C,U20*%
X152945799Y-91947999D03*
D11*
X152945799Y-94487999D03*
X152945799Y-97027999D03*
X152945799Y-99567999D03*
X152945799Y-102107999D03*
X152945799Y-104647999D03*
X152945799Y-107187999D03*
X152945799Y-109727999D03*
X152945799Y-112267999D03*
X152945799Y-114807999D03*
X152945799Y-117347999D03*
X152945799Y-119887999D03*
X152945799Y-122427999D03*
X152945799Y-124967999D03*
X168185799Y-124967999D03*
X168185799Y-122427999D03*
X168185799Y-119887999D03*
X168185799Y-117347999D03*
X168185799Y-114807999D03*
X168185799Y-112267999D03*
X168185799Y-109727999D03*
X168185799Y-107187999D03*
X168185799Y-104647999D03*
X168185799Y-102107999D03*
X168185799Y-99567999D03*
X168185799Y-97027999D03*
X168185799Y-94487999D03*
X168185799Y-91947999D03*
%TD*%
D10*
%TO.C,U3*%
X180885799Y-96519999D03*
D11*
X180885799Y-99059999D03*
X180885799Y-101599999D03*
X180885799Y-104139999D03*
X180885799Y-106679999D03*
X180885799Y-109219999D03*
X180885799Y-111759999D03*
X180885799Y-114299999D03*
X180885799Y-116839999D03*
X180885799Y-119379999D03*
X188505799Y-119379999D03*
X188505799Y-116839999D03*
X188505799Y-114299999D03*
X188505799Y-111759999D03*
X188505799Y-109219999D03*
X188505799Y-106679999D03*
X188505799Y-104139999D03*
X188505799Y-101599999D03*
X188505799Y-99059999D03*
X188505799Y-96519999D03*
%TD*%
D15*
%TO.C,C2*%
X160845800Y-97028000D03*
X159295800Y-97028000D03*
%TD*%
D14*
%TO.C,U2*%
X163825799Y-99923999D03*
X163325799Y-99923999D03*
X162825799Y-99923999D03*
X162325799Y-99923999D03*
X161825799Y-99923999D03*
X161325799Y-99923999D03*
X160825799Y-99923999D03*
X160325799Y-99923999D03*
X159825799Y-99923999D03*
X159325799Y-99923999D03*
X158825799Y-99923999D03*
X158325799Y-99923999D03*
X157825799Y-99923999D03*
X157325799Y-99923999D03*
X156825799Y-99923999D03*
X156325799Y-99923999D03*
X156325799Y-113923999D03*
X156825799Y-113923999D03*
X157325799Y-113923999D03*
X157825799Y-113923999D03*
X158325799Y-113923999D03*
X158825799Y-113923999D03*
X159325799Y-113923999D03*
X159825799Y-113923999D03*
X160325799Y-113923999D03*
X160825799Y-113923999D03*
X161325799Y-113923999D03*
X161825799Y-113923999D03*
X162325799Y-113923999D03*
X162825799Y-113923999D03*
X163325799Y-113923999D03*
X163825799Y-113923999D03*
%TD*%
D15*
%TO.C,C1*%
X188645800Y-93218000D03*
X187095800Y-93218000D03*
%TD*%
D16*
%TO.C,D1*%
X161569300Y-122682000D03*
X163144300Y-122682000D03*
%TD*%
M02*
