%TF.GenerationSoftware,KiCad,Pcbnew,9.0.5*%
%TF.CreationDate,2026-01-02T17:39:59+00:00*%
%TF.ProjectId,DataIOROM,44617461-494f-4524-9f4d-2e6b69636164,rev?*%
%TF.SameCoordinates,Original*%
%TF.FileFunction,Copper,L2,Bot*%
%TF.FilePolarity,Positive*%
%FSLAX46Y46*%
G04 Gerber Fmt 4.6, Leading zero omitted, Abs format (unit mm)*
G04 Created by KiCad (PCBNEW 9.0.5) date 2026-01-02 17:39:59*
%MOMM*%
%LPD*%
G01*
G04 APERTURE LIST*
G04 Aperture macros list*
%AMFreePoly0*
4,1,16,0.437854,0.475354,0.437952,0.475214,0.662952,0.000214,0.662971,-0.000168,0.662952,-0.000214,0.437952,-0.475214,0.437668,-0.475471,0.437500,-0.475500,-0.462500,-0.475500,-0.462854,-0.475354,-0.463000,-0.475000,-0.463000,0.475000,-0.462854,0.475354,-0.462500,0.475500,0.437500,0.475500,0.437854,0.475354,0.437854,0.475354,$1*%
%AMFreePoly1*
4,1,19,0.592854,0.475354,0.592946,0.475225,0.832946,0.000225,0.832975,-0.000156,0.832946,-0.000225,0.592946,-0.475225,0.592656,-0.475475,0.592500,-0.475500,-0.837500,-0.475500,-0.837854,-0.475354,-0.838000,-0.475000,-0.837952,-0.474786,-0.613053,0.000000,-0.837952,0.474786,-0.837971,0.475168,-0.837714,0.475452,-0.837500,0.475500,0.592500,0.475500,0.592854,0.475354,0.592854,0.475354,
$1*%
%AMFreePoly2*
4,1,16,0.437854,0.475354,0.438000,0.475000,0.438000,-0.475000,0.437854,-0.475354,0.437500,-0.475500,-0.682500,-0.475500,-0.682854,-0.475354,-0.683000,-0.475000,-0.682946,-0.474775,-0.443059,0.000000,-0.682946,0.474775,-0.682975,0.475156,-0.682725,0.475446,-0.682500,0.475500,0.437500,0.475500,0.437854,0.475354,0.437854,0.475354,$1*%
G04 Aperture macros list end*
%TA.AperFunction,ComponentPad*%
%ADD10R,1.600000X1.600000*%
%TD*%
%TA.AperFunction,ComponentPad*%
%ADD11O,1.600000X1.600000*%
%TD*%
%TA.AperFunction,SMDPad,CuDef*%
%ADD12FreePoly0,270.000000*%
%TD*%
%TA.AperFunction,SMDPad,CuDef*%
%ADD13FreePoly1,270.000000*%
%TD*%
%TA.AperFunction,SMDPad,CuDef*%
%ADD14FreePoly2,270.000000*%
%TD*%
%TA.AperFunction,SMDPad,CuDef*%
%ADD15FreePoly0,180.000000*%
%TD*%
%TA.AperFunction,SMDPad,CuDef*%
%ADD16FreePoly1,180.000000*%
%TD*%
%TA.AperFunction,SMDPad,CuDef*%
%ADD17FreePoly2,180.000000*%
%TD*%
%TA.AperFunction,ViaPad*%
%ADD18C,0.800000*%
%TD*%
%TA.AperFunction,Conductor*%
%ADD19C,0.500000*%
%TD*%
%TA.AperFunction,Conductor*%
%ADD20C,0.250000*%
%TD*%
G04 APERTURE END LIST*
D10*
%TO.P,U18,1,Pin_1*%
%TO.N,U18_p1*%
X118655800Y-107188000D03*
D11*
%TO.P,U18,2,Pin_2*%
%TO.N,U18_p2*%
X118655800Y-109728000D03*
%TO.P,U18,3,Pin_3*%
%TO.N,D0*%
X118655800Y-112268000D03*
%TO.P,U18,4,Pin_4*%
%TO.N,U18_p4*%
X118655800Y-114808000D03*
%TO.P,U18,5,Pin_5*%
%TO.N,D1*%
X118655800Y-117348000D03*
%TO.P,U18,6,Pin_6*%
%TO.N,U18_p6*%
X118655800Y-119888000D03*
%TO.P,U18,7,Pin_7*%
%TO.N,D2*%
X118655800Y-122428000D03*
%TO.P,U18,8,Pin_8*%
%TO.N,U18_p8*%
X118655800Y-124968000D03*
%TO.P,U18,9,Pin_9*%
%TO.N,D3*%
X126275800Y-124968000D03*
%TO.P,U18,10,Pin_10*%
%TO.N,U18_p10*%
X126275800Y-122428000D03*
%TO.P,U18,11,Pin_11*%
%TO.N,U18_p11*%
X126275800Y-119888000D03*
%TO.P,U18,12,Pin_12*%
%TO.N,U18_p12*%
X126275800Y-117348000D03*
%TO.P,U18,13,Pin_13*%
%TO.N,U18_p13*%
X126275800Y-114808000D03*
%TO.P,U18,14,Pin_14*%
%TO.N,U18_p14*%
X126275800Y-112268000D03*
%TO.P,U18,15,Pin_15*%
%TO.N,U18_p15*%
X126275800Y-109728000D03*
%TO.P,U18,16,Pin_16*%
%TO.N,U18_p16*%
X126275800Y-107188000D03*
%TD*%
D10*
%TO.P,U70,1,Pin_1*%
%TO.N,U7_p1*%
X139229800Y-56388000D03*
D11*
%TO.P,U70,2,Pin_2*%
%TO.N,U7_p2*%
X139229800Y-58928000D03*
%TO.P,U70,3,Pin_3*%
%TO.N,U7_p3*%
X139229800Y-61468000D03*
%TO.P,U70,4,Pin_4*%
%TO.N,U7_p4*%
X139229800Y-64008000D03*
%TO.P,U70,5,Pin_5*%
%TO.N,nV02*%
X139229800Y-66548000D03*
%TO.P,U70,6,Pin_6*%
%TO.N,U7_p6*%
X139229800Y-69088000D03*
%TO.P,U70,7,Pin_7*%
%TO.N,U7_p7*%
X139229800Y-71628000D03*
%TO.P,U70,8,Pin_8*%
%TO.N,U7_p8*%
X139229800Y-74168000D03*
%TO.P,U70,9,Pin_9*%
%TO.N,U7_p9*%
X146849800Y-74168000D03*
%TO.P,U70,10,Pin_10*%
%TO.N,U7_p10*%
X146849800Y-71628000D03*
%TO.P,U70,11,Pin_11*%
%TO.N,U7_p11*%
X146849800Y-69088000D03*
%TO.P,U70,12,Pin_12*%
%TO.N,nPAGE_REGISTER_WRITE*%
X146849800Y-66548000D03*
%TO.P,U70,13,Pin_13*%
%TO.N,U7_p13*%
X146849800Y-64008000D03*
%TO.P,U70,14,Pin_14*%
%TO.N,U7_p14*%
X146849800Y-61468000D03*
%TO.P,U70,15,Pin_15*%
%TO.N,nROM_OE*%
X146849800Y-58928000D03*
%TO.P,U70,16,Pin_16*%
%TO.N,U7_p16*%
X146849800Y-56388000D03*
%TD*%
D10*
%TO.P,U14,1,Pin_1*%
%TO.N,U19_O3*%
X136435800Y-81788000D03*
D11*
%TO.P,U14,2,Pin_2*%
%TO.N,U19_O2*%
X136435800Y-84328000D03*
%TO.P,U14,3,Pin_3*%
%TO.N,U19_O1*%
X136435800Y-86868000D03*
%TO.P,U14,4,Pin_4*%
%TO.N,A7*%
X136435800Y-89408000D03*
%TO.P,U14,5,Pin_5*%
%TO.N,A4*%
X136435800Y-91948000D03*
%TO.P,U14,6,Pin_6*%
%TO.N,A5*%
X136435800Y-94488000D03*
%TO.P,U14,7,Pin_7*%
%TO.N,A6*%
X136435800Y-97028000D03*
%TO.P,U14,8,Pin_8*%
%TO.N,GND*%
X136435800Y-99568000D03*
%TO.P,U14,9,Pin_9*%
%TO.N,U14_O4*%
X144055800Y-99568000D03*
%TO.P,U14,10,Pin_10*%
%TO.N,U14_O3*%
X144055800Y-97028000D03*
%TO.P,U14,11,Pin_11*%
%TO.N,U14_O2*%
X144055800Y-94488000D03*
%TO.P,U14,12,Pin_12*%
%TO.N,U14_O1*%
X144055800Y-91948000D03*
%TO.P,U14,13,Pin_13*%
%TO.N,GND*%
X144055800Y-89408000D03*
%TO.P,U14,14,Pin_14*%
X144055800Y-86868000D03*
%TO.P,U14,15,Pin_15*%
%TO.N,U19_O4*%
X144055800Y-84328000D03*
%TO.P,U14,16,Pin_16*%
%TO.N,VCC*%
X144055800Y-81788000D03*
%TD*%
D10*
%TO.P,U19,1,Pin_1*%
%TO.N,A14*%
X136435800Y-107188000D03*
D11*
%TO.P,U19,2,Pin_2*%
%TO.N,A13*%
X136435800Y-109728000D03*
%TO.P,U19,3,Pin_3*%
%TO.N,A12*%
X136435800Y-112268000D03*
%TO.P,U19,4,Pin_4*%
%TO.N,A11*%
X136435800Y-114808000D03*
%TO.P,U19,5,Pin_5*%
%TO.N,A8*%
X136435800Y-117348000D03*
%TO.P,U19,6,Pin_6*%
%TO.N,A9*%
X136435800Y-119888000D03*
%TO.P,U19,7,Pin_7*%
%TO.N,A10*%
X136435800Y-122428000D03*
%TO.P,U19,8,Pin_8*%
%TO.N,GND*%
X136435800Y-124968000D03*
%TO.P,U19,9,Pin_9*%
%TO.N,U19_O4*%
X144055800Y-124968000D03*
%TO.P,U19,10,Pin_10*%
%TO.N,U19_O3*%
X144055800Y-122428000D03*
%TO.P,U19,11,Pin_11*%
%TO.N,U19_O2*%
X144055800Y-119888000D03*
%TO.P,U19,12,Pin_12*%
%TO.N,U19_O1*%
X144055800Y-117348000D03*
%TO.P,U19,13,Pin_13*%
%TO.N,GND*%
X144055800Y-114808000D03*
%TO.P,U19,14,Pin_14*%
%TO.N,RnW*%
X144055800Y-112268000D03*
%TO.P,U19,15,Pin_15*%
%TO.N,A15*%
X144055800Y-109728000D03*
%TO.P,U19,16,Pin_16*%
%TO.N,VCC*%
X144055800Y-107188000D03*
%TD*%
D10*
%TO.P,U20,1,Pin_1*%
%TO.N,unconnected-(U20-Pin_1-Pad1)*%
X152945800Y-91948000D03*
D11*
%TO.P,U20,2,Pin_2*%
%TO.N,A12*%
X152945800Y-94488000D03*
%TO.P,U20,3,Pin_3*%
%TO.N,A7*%
X152945800Y-97028000D03*
%TO.P,U20,4,Pin_4*%
%TO.N,A6*%
X152945800Y-99568000D03*
%TO.P,U20,5,Pin_5*%
%TO.N,A5*%
X152945800Y-102108000D03*
%TO.P,U20,6,Pin_6*%
%TO.N,A4*%
X152945800Y-104648000D03*
%TO.P,U20,7,Pin_7*%
%TO.N,A3*%
X152945800Y-107188000D03*
%TO.P,U20,8,Pin_8*%
%TO.N,A2*%
X152945800Y-109728000D03*
%TO.P,U20,9,Pin_9*%
%TO.N,A1*%
X152945800Y-112268000D03*
%TO.P,U20,10,Pin_10*%
%TO.N,A0*%
X152945800Y-114808000D03*
%TO.P,U20,11,Pin_11*%
%TO.N,Q0*%
X152945800Y-117348000D03*
%TO.P,U20,12,Pin_12*%
%TO.N,Q1*%
X152945800Y-119888000D03*
%TO.P,U20,13,Pin_13*%
%TO.N,Q2*%
X152945800Y-122428000D03*
%TO.P,U20,14,Pin_14*%
%TO.N,GND*%
X152945800Y-124968000D03*
%TO.P,U20,15,Pin_15*%
%TO.N,Q3*%
X168185800Y-124968000D03*
%TO.P,U20,16,Pin_16*%
%TO.N,Q4*%
X168185800Y-122428000D03*
%TO.P,U20,17,Pin_17*%
%TO.N,Q5*%
X168185800Y-119888000D03*
%TO.P,U20,18,Pin_18*%
%TO.N,Q6*%
X168185800Y-117348000D03*
%TO.P,U20,19,Pin_19*%
%TO.N,Q7*%
X168185800Y-114808000D03*
%TO.P,U20,20,Pin_20*%
%TO.N,nROM_ACTIVE*%
X168185800Y-112268000D03*
%TO.P,U20,21,Pin_21*%
%TO.N,A10*%
X168185800Y-109728000D03*
%TO.P,U20,22,Pin_22*%
%TO.N,U20_nOE*%
X168185800Y-107188000D03*
%TO.P,U20,23,Pin_23*%
%TO.N,A11*%
X168185800Y-104648000D03*
%TO.P,U20,24,Pin_24*%
%TO.N,A9*%
X168185800Y-102108000D03*
%TO.P,U20,25,Pin_25*%
%TO.N,A8*%
X168185800Y-99568000D03*
%TO.P,U20,26,Pin_26*%
%TO.N,A13*%
X168185800Y-97028000D03*
%TO.P,U20,27,Pin_27*%
%TO.N,unconnected-(U20-Pin_27-Pad27)*%
X168185800Y-94488000D03*
%TO.P,U20,28,Pin_28*%
%TO.N,VCC*%
X168185800Y-91948000D03*
%TD*%
D10*
%TO.P,U3,1,I1/CLK*%
%TO.N,nV02*%
X180885800Y-96520000D03*
D11*
%TO.P,U3,2,I2*%
%TO.N,nROM_ACTIVE*%
X180885800Y-99060000D03*
%TO.P,U3,3,I3*%
%TO.N,D0*%
X180885800Y-101600000D03*
%TO.P,U3,4,I4*%
%TO.N,D1*%
X180885800Y-104140000D03*
%TO.P,U3,5,I5*%
%TO.N,D2*%
X180885800Y-106680000D03*
%TO.P,U3,6,I6*%
%TO.N,D3*%
X180885800Y-109220000D03*
%TO.P,U3,7,I7*%
%TO.N,nPAGE_REGISTER_WRITE*%
X180885800Y-111760000D03*
%TO.P,U3,8,I8*%
%TO.N,GND*%
X180885800Y-114300000D03*
%TO.P,U3,9,I9*%
X180885800Y-116840000D03*
%TO.P,U3,10,GND*%
X180885800Y-119380000D03*
%TO.P,U3,11,I10/~{OE}*%
X188505800Y-119380000D03*
%TO.P,U3,12,IO8*%
%TO.N,unconnected-(U3-IO8-Pad12)*%
X188505800Y-116840000D03*
%TO.P,U3,13,IO7*%
%TO.N,unconnected-(U3-IO7-Pad13)*%
X188505800Y-114300000D03*
%TO.P,U3,14,IO6*%
%TO.N,PA16*%
X188505800Y-111760000D03*
%TO.P,U3,15,IO5*%
%TO.N,PA14*%
X188505800Y-109220000D03*
%TO.P,U3,16,IO4*%
%TO.N,PA15*%
X188505800Y-106680000D03*
%TO.P,U3,17,I03*%
%TO.N,unconnected-(U3-I03-Pad17)*%
X188505800Y-104140000D03*
%TO.P,U3,18,IO2*%
%TO.N,unconnected-(U3-IO2-Pad18)*%
X188505800Y-101600000D03*
%TO.P,U3,19,IO1*%
%TO.N,unconnected-(U3-IO1-Pad19)*%
X188505800Y-99060000D03*
%TO.P,U3,20,VCC*%
%TO.N,VCC*%
X188505800Y-96520000D03*
%TD*%
D10*
%TO.P,U180,1,Pin_1*%
%TO.N,U18_p1*%
X121449800Y-107188000D03*
D11*
%TO.P,U180,2,Pin_2*%
%TO.N,U18_p2*%
X121449800Y-109728000D03*
%TO.P,U180,3,Pin_3*%
%TO.N,D0*%
X121449800Y-112268000D03*
%TO.P,U180,4,Pin_4*%
%TO.N,U18_p4*%
X121449800Y-114808000D03*
%TO.P,U180,5,Pin_5*%
%TO.N,D1*%
X121449800Y-117348000D03*
%TO.P,U180,6,Pin_6*%
%TO.N,U18_p6*%
X121449800Y-119888000D03*
%TO.P,U180,7,Pin_7*%
%TO.N,D2*%
X121449800Y-122428000D03*
%TO.P,U180,8,Pin_8*%
%TO.N,U18_p8*%
X121449800Y-124968000D03*
%TO.P,U180,9,Pin_9*%
%TO.N,D3*%
X129069800Y-124968000D03*
%TO.P,U180,10,Pin_10*%
%TO.N,U18_p10*%
X129069800Y-122428000D03*
%TO.P,U180,11,Pin_11*%
%TO.N,U18_p11*%
X129069800Y-119888000D03*
%TO.P,U180,12,Pin_12*%
%TO.N,U18_p12*%
X129069800Y-117348000D03*
%TO.P,U180,13,Pin_13*%
%TO.N,U18_p13*%
X129069800Y-114808000D03*
%TO.P,U180,14,Pin_14*%
%TO.N,U18_p14*%
X129069800Y-112268000D03*
%TO.P,U180,15,Pin_15*%
%TO.N,U18_p15*%
X129069800Y-109728000D03*
%TO.P,U180,16,Pin_16*%
%TO.N,U18_p16*%
X129069800Y-107188000D03*
%TD*%
D10*
%TO.P,U7,1,Pin_1*%
%TO.N,U7_p1*%
X136435800Y-56388000D03*
D11*
%TO.P,U7,2,Pin_2*%
%TO.N,U7_p2*%
X136435800Y-58928000D03*
%TO.P,U7,3,Pin_3*%
%TO.N,U7_p3*%
X136435800Y-61468000D03*
%TO.P,U7,4,Pin_4*%
%TO.N,U7_p4*%
X136435800Y-64008000D03*
%TO.P,U7,5,Pin_5*%
%TO.N,nV02*%
X136435800Y-66548000D03*
%TO.P,U7,6,Pin_6*%
%TO.N,U7_p6*%
X136435800Y-69088000D03*
%TO.P,U7,7,Pin_7*%
%TO.N,U7_p7*%
X136435800Y-71628000D03*
%TO.P,U7,8,Pin_8*%
%TO.N,U7_p8*%
X136435800Y-74168000D03*
%TO.P,U7,9,Pin_9*%
%TO.N,U7_p9*%
X144055800Y-74168000D03*
%TO.P,U7,10,Pin_10*%
%TO.N,U7_p10*%
X144055800Y-71628000D03*
%TO.P,U7,11,Pin_11*%
%TO.N,U7_p11*%
X144055800Y-69088000D03*
%TO.P,U7,12,Pin_12*%
%TO.N,nPAGE_REGISTER_WRITE*%
X144055800Y-66548000D03*
%TO.P,U7,13,Pin_13*%
%TO.N,U7_p13*%
X144055800Y-64008000D03*
%TO.P,U7,14,Pin_14*%
%TO.N,U7_p14*%
X144055800Y-61468000D03*
%TO.P,U7,15,Pin_15*%
%TO.N,nROM_OE*%
X144055800Y-58928000D03*
%TO.P,U7,16,Pin_16*%
%TO.N,U7_p16*%
X144055800Y-56388000D03*
%TD*%
D12*
%TO.P,J3,1,Pin_1*%
%TO.N,GND*%
X160625800Y-121488000D03*
D13*
%TO.P,J3,2,Pin_2*%
%TO.N,A16*%
X160625800Y-123063000D03*
D14*
%TO.P,J3,3,Pin_3*%
%TO.N,PA16*%
X160625800Y-124638000D03*
%TD*%
D12*
%TO.P,J2,1,Pin_1*%
%TO.N,GND*%
X158115800Y-121488000D03*
D13*
%TO.P,J2,2,Pin_2*%
%TO.N,RA15*%
X158115800Y-123063000D03*
D14*
%TO.P,J2,3,Pin_3*%
%TO.N,PA15*%
X158115800Y-124638000D03*
%TD*%
D15*
%TO.P,J11,1,Pin_1*%
%TO.N,VCC*%
X125640800Y-95758000D03*
D16*
%TO.P,J11,2,Pin_2*%
%TO.N,BANK3*%
X124065800Y-95758000D03*
D17*
%TO.P,J11,3,Pin_3*%
%TO.N,GND*%
X122490800Y-95758000D03*
%TD*%
D12*
%TO.P,J1,1,Pin_1*%
%TO.N,U20_nOE*%
X155605800Y-121488000D03*
D13*
%TO.P,J1,2,Pin_2*%
%TO.N,RA14*%
X155605800Y-123063000D03*
D14*
%TO.P,J1,3,Pin_3*%
%TO.N,PA14*%
X155605800Y-124638000D03*
%TD*%
D15*
%TO.P,J7,1,Pin_1*%
%TO.N,VCC*%
X125640800Y-90738000D03*
D16*
%TO.P,J7,2,Pin_2*%
%TO.N,BANK1*%
X124065800Y-90738000D03*
D17*
%TO.P,J7,3,Pin_3*%
%TO.N,GND*%
X122490800Y-90738000D03*
%TD*%
D15*
%TO.P,J8,1,Pin_1*%
%TO.N,VCC*%
X125640800Y-93248000D03*
D16*
%TO.P,J8,2,Pin_2*%
%TO.N,BANK2*%
X124065800Y-93248000D03*
D17*
%TO.P,J8,3,Pin_3*%
%TO.N,GND*%
X122490800Y-93248000D03*
%TD*%
D15*
%TO.P,J6,1,Pin_1*%
%TO.N,VCC*%
X125640800Y-88228000D03*
D16*
%TO.P,J6,2,Pin_2*%
%TO.N,BANK0*%
X124065800Y-88228000D03*
D17*
%TO.P,J6,3,Pin_3*%
%TO.N,GND*%
X122490800Y-88228000D03*
%TD*%
D12*
%TO.P,J5,1,Pin_1*%
%TO.N,GND*%
X164973000Y-121488000D03*
D13*
%TO.P,J5,2,Pin_2*%
%TO.N,A18*%
X164973000Y-123063000D03*
D14*
%TO.P,J5,3,Pin_3*%
%TO.N,VCC*%
X164973000Y-124638000D03*
%TD*%
D12*
%TO.P,J4,1,Pin_1*%
%TO.N,GND*%
X163135800Y-121488000D03*
D13*
%TO.P,J4,2,Pin_2*%
%TO.N,A17*%
X163135800Y-123063000D03*
D14*
%TO.P,J4,3,Pin_3*%
%TO.N,VCC*%
X163135800Y-124638000D03*
%TD*%
D18*
%TO.N,VCC*%
X162884300Y-97277900D03*
X164045799Y-124637999D03*
X126707600Y-95397600D03*
%TO.N,GND*%
X122523200Y-89483000D03*
X165137500Y-120197800D03*
X162845001Y-120215100D03*
X159370800Y-121488000D03*
%TO.N,BANK0*%
X126539100Y-83621800D03*
%TO.N,BANK1*%
X127841862Y-86495138D03*
%TO.N,BANK2*%
X128616612Y-87269888D03*
%TO.N,A7*%
X130518000Y-94553800D03*
%TO.N,A4*%
X131695651Y-97695551D03*
%TO.N,A5*%
X146301000Y-95902600D03*
X132089800Y-99424100D03*
%TO.N,A12*%
X151135900Y-103138700D03*
X135272400Y-103138700D03*
%TO.N,A8*%
X133269100Y-108422800D03*
X155593300Y-116190900D03*
%TO.N,A9*%
X148191100Y-116503700D03*
X156090200Y-108539300D03*
%TO.N,A10*%
X158664900Y-112417100D03*
X147193000Y-123698000D03*
X140753800Y-122301000D03*
%TO.N,RnW*%
X139264638Y-105997062D03*
%TO.N,A15*%
X144803200Y-105782000D03*
%TO.N,BANK3*%
X129613888Y-85092388D03*
%TO.N,U20_nOE*%
X159311500Y-109087000D03*
%TO.N,A16*%
X159039807Y-101655081D03*
%TO.N,PA16*%
X159422800Y-124714000D03*
%TO.N,A17*%
X161184234Y-102832500D03*
%TO.N,A18*%
X159930800Y-102108000D03*
%TO.N,A3*%
X155234500Y-112150700D03*
%TO.N,A2*%
X154323000Y-114034700D03*
%TO.N,A1*%
X156253600Y-112103000D03*
%TO.N,D0*%
X128180800Y-105959003D03*
%TO.N,D1*%
X133902700Y-78675400D03*
%TO.N,D2*%
X133762493Y-103788498D03*
X147310800Y-104261200D03*
X175831201Y-106134500D03*
%TO.N,D3*%
X158652100Y-110621900D03*
X154436300Y-118473400D03*
%TO.N,nROM_OE*%
X156751100Y-110753500D03*
%TO.N,RA14*%
X159568200Y-104720900D03*
%TO.N,RA15*%
X158768700Y-102999300D03*
%TD*%
D19*
%TO.N,VCC*%
X125640800Y-88228000D02*
X125640800Y-90738000D01*
X132571966Y-82743501D02*
X129854499Y-82743501D01*
X126707600Y-95397600D02*
X126001200Y-95397600D01*
X164047298Y-124636500D02*
X164045799Y-124637999D01*
X129854499Y-82743501D02*
X127762000Y-84836000D01*
X129494000Y-89895458D02*
X129494000Y-86945900D01*
X126001200Y-95397600D02*
X125640800Y-95758000D01*
X167894000Y-91948000D02*
X168185800Y-91948000D01*
X142356299Y-80088499D02*
X134718968Y-80088499D01*
X129494000Y-86945900D02*
X127384100Y-84836000D01*
X165645800Y-124638000D02*
X165645800Y-124636500D01*
X164382800Y-95459200D02*
X167894000Y-91948000D01*
X128865864Y-90523594D02*
X129494000Y-89895458D01*
X164045798Y-124638000D02*
X164045799Y-124637999D01*
X165645800Y-124636500D02*
X164047298Y-124636500D01*
X144055800Y-81788000D02*
X142356299Y-80088499D01*
X164382800Y-97277900D02*
X162884300Y-97277900D01*
X163135800Y-124638000D02*
X164045798Y-124638000D01*
X128865864Y-91276293D02*
X128865864Y-90523594D01*
X126992362Y-84836000D02*
X126992362Y-86876438D01*
X125815600Y-93248000D02*
X126894157Y-93248000D01*
X125640800Y-93248000D02*
X125815600Y-93248000D01*
X134477201Y-80838267D02*
X132571966Y-82743501D01*
X125815600Y-95212000D02*
X126001200Y-95397600D01*
X164382800Y-97277900D02*
X164382800Y-95459200D01*
X125815600Y-93248000D02*
X125815600Y-95212000D01*
X166624000Y-123658300D02*
X166624000Y-99519100D01*
X166624000Y-99519100D02*
X164382800Y-97277900D01*
X127384100Y-84836000D02*
X126992362Y-84836000D01*
X126992362Y-86876438D02*
X125640800Y-88228000D01*
X126894157Y-93248000D02*
X128865864Y-91276293D01*
X134718968Y-80088499D02*
X134477201Y-80330266D01*
X165645800Y-124636500D02*
X166624000Y-123658300D01*
X127762000Y-84836000D02*
X127384100Y-84836000D01*
X134477201Y-80330266D02*
X134477201Y-80838267D01*
D20*
%TO.N,GND*%
X136435800Y-99568000D02*
X136435800Y-100130600D01*
X160625800Y-121488000D02*
X159370800Y-121488000D01*
X129765200Y-98134100D02*
X129765200Y-97024600D01*
X134503900Y-102872700D02*
X129765200Y-98134100D01*
X122490800Y-95758000D02*
X123757400Y-97024600D01*
X122490800Y-89515400D02*
X122490800Y-90738000D01*
X135274300Y-102102300D02*
X137561200Y-104389200D01*
X122490800Y-88228000D02*
X122523200Y-88260400D01*
X134503900Y-102872700D02*
X135274300Y-102102300D01*
X137561200Y-108313400D02*
X144055800Y-114808000D01*
X164973000Y-121488000D02*
X164973000Y-120362300D01*
X164973000Y-120362300D02*
X165137500Y-120197800D01*
X163135800Y-120505899D02*
X162845001Y-120215100D01*
X129286000Y-94760100D02*
X135051702Y-88994398D01*
X129765200Y-97024600D02*
X129286000Y-96545400D01*
X136435800Y-124968000D02*
X132523400Y-121055600D01*
X134318900Y-104503396D02*
X134503900Y-104318396D01*
X123757400Y-97024600D02*
X129765200Y-97024600D01*
X180885800Y-119380000D02*
X180885800Y-116840000D01*
X122490800Y-93248000D02*
X122490800Y-90738000D01*
X134318900Y-105883300D02*
X134318900Y-104503396D01*
X129286000Y-96545400D02*
X129286000Y-94760100D01*
X132523400Y-107678800D02*
X134318900Y-105883300D01*
X135310800Y-80663000D02*
X137850800Y-80663000D01*
X163135800Y-121488000D02*
X163135800Y-120505899D01*
X134503900Y-104318396D02*
X134503900Y-102872700D01*
X135051702Y-88994398D02*
X135051702Y-80922098D01*
X144055800Y-86868000D02*
X144055800Y-89408000D01*
X137850800Y-80663000D02*
X144055800Y-86868000D01*
X136435800Y-100130600D02*
X136435800Y-100940800D01*
X122523200Y-89483000D02*
X122490800Y-89515400D01*
X122523200Y-88260400D02*
X122523200Y-89483000D01*
X122490800Y-95758000D02*
X122490800Y-93248000D01*
X135051702Y-80922098D02*
X135310800Y-80663000D01*
X159370800Y-121488000D02*
X158115800Y-121488000D01*
X137561200Y-104389200D02*
X137561200Y-108313400D01*
X136435800Y-100940800D02*
X135274300Y-102102300D01*
X164973000Y-121488000D02*
X163135800Y-121488000D01*
X132523400Y-121055600D02*
X132523400Y-107678800D01*
%TO.N,BANK0*%
X124065800Y-88228000D02*
X125476000Y-86817800D01*
X125476000Y-84684900D02*
X126539100Y-83621800D01*
X125476000Y-86817800D02*
X125476000Y-84684900D01*
%TO.N,BANK1*%
X124065800Y-90738000D02*
X124065800Y-91821000D01*
X124065800Y-91821000D02*
X126873000Y-91821000D01*
X126873000Y-91821000D02*
X127841862Y-90852138D01*
X127841862Y-90852138D02*
X127841862Y-86495138D01*
%TO.N,BANK2*%
X128291363Y-91038327D02*
X128291363Y-89959769D01*
X124087400Y-92329000D02*
X127000690Y-92329000D01*
X124065800Y-93248000D02*
X124065800Y-92350600D01*
X128291363Y-89959769D02*
X128616612Y-89634520D01*
X127000690Y-92329000D02*
X128291363Y-91038327D01*
X124065800Y-92350600D02*
X124087400Y-92329000D01*
X128616612Y-89634520D02*
X128616612Y-87269888D01*
%TO.N,U19_O3*%
X146107800Y-103499400D02*
X146107800Y-120884000D01*
X142518600Y-99910200D02*
X146107800Y-103499400D01*
X136717100Y-82913300D02*
X142518600Y-88714800D01*
X144563800Y-122428000D02*
X144055800Y-122428000D01*
X142518600Y-88714800D02*
X142518600Y-99910200D01*
X136435800Y-82913300D02*
X136717100Y-82913300D01*
X136435800Y-81788000D02*
X136435800Y-82913300D01*
X146107800Y-120884000D02*
X144563800Y-122428000D01*
%TO.N,U19_O2*%
X145642000Y-105197900D02*
X145642000Y-118174800D01*
X145642000Y-118174800D02*
X144055800Y-119761000D01*
X141920400Y-90193600D02*
X141920400Y-101476300D01*
X136435800Y-84709000D02*
X141920400Y-90193600D01*
X136435800Y-84328000D02*
X136435800Y-84709000D01*
X141920400Y-101476300D02*
X145642000Y-105197900D01*
X144055800Y-119761000D02*
X144055800Y-119888000D01*
%TO.N,U19_O1*%
X145181100Y-116222700D02*
X145181100Y-114309300D01*
X144409800Y-113538000D02*
X143734200Y-113538000D01*
X138451500Y-89010700D02*
X136435800Y-86995000D01*
X144055800Y-117348000D02*
X145181100Y-116222700D01*
X138451500Y-108255300D02*
X138451500Y-89010700D01*
X136435800Y-86995000D02*
X136435800Y-86868000D01*
X145181100Y-114309300D02*
X144409800Y-113538000D01*
X143734200Y-113538000D02*
X138451500Y-108255300D01*
%TO.N,A7*%
X136435800Y-89408000D02*
X135663800Y-89408000D01*
X135663800Y-89408000D02*
X130518000Y-94553800D01*
%TO.N,A4*%
X131695651Y-96688149D02*
X131695651Y-97695551D01*
X136435800Y-91948000D02*
X131695651Y-96688149D01*
%TO.N,A5*%
X151820500Y-102108000D02*
X146301000Y-96588500D01*
X132089800Y-98326000D02*
X132089800Y-99424100D01*
X146301000Y-96588500D02*
X146301000Y-95902600D01*
X135927800Y-94488000D02*
X132089800Y-98326000D01*
X152945800Y-102108000D02*
X151820500Y-102108000D01*
X136435800Y-94488000D02*
X135927800Y-94488000D01*
%TO.N,U19_O4*%
X145559300Y-86770400D02*
X145559300Y-97568300D01*
X144055800Y-85453300D02*
X144242200Y-85453300D01*
X146558200Y-98567200D02*
X146558200Y-123100600D01*
X145559300Y-97568300D02*
X146558200Y-98567200D01*
X144242200Y-85453300D02*
X145559300Y-86770400D01*
X144055800Y-84328000D02*
X144055800Y-85453300D01*
X146558200Y-123100600D02*
X144690800Y-124968000D01*
X144690800Y-124968000D02*
X144055800Y-124968000D01*
%TO.N,A14*%
X136435800Y-107188000D02*
X136562800Y-107315000D01*
%TO.N,A12*%
X152945800Y-94488000D02*
X152945800Y-95613300D01*
X136435800Y-112268000D02*
X135272400Y-111104600D01*
X152945800Y-95613300D02*
X153227100Y-95613300D01*
X153414400Y-103233400D02*
X151230600Y-103233400D01*
X153227100Y-95613300D02*
X154071200Y-96457400D01*
X154071200Y-102576600D02*
X153414400Y-103233400D01*
X135272400Y-111104600D02*
X135272400Y-103138700D01*
X154071200Y-96457400D02*
X154071200Y-102576600D01*
X151230600Y-103233400D02*
X151135900Y-103138700D01*
%TO.N,A8*%
X136435800Y-117348000D02*
X135546800Y-117348000D01*
X157926700Y-111240600D02*
X157926700Y-97089300D01*
X133269100Y-113337300D02*
X133269100Y-108422800D01*
X164454998Y-90561002D02*
X169174002Y-90561002D01*
X155593300Y-116190900D02*
X157437700Y-114346500D01*
X157437700Y-114346500D02*
X157437700Y-111729600D01*
X170942000Y-92329000D02*
X170942000Y-96811800D01*
X170942000Y-96811800D02*
X168185800Y-99568000D01*
X157437700Y-111729600D02*
X157926700Y-111240600D01*
X135546800Y-117348000D02*
X134911800Y-116713000D01*
X157926700Y-97089300D02*
X164454998Y-90561002D01*
X134911800Y-116713000D02*
X134911800Y-114980000D01*
X169174002Y-90561002D02*
X170942000Y-92329000D01*
X134911800Y-114980000D02*
X133269100Y-113337300D01*
%TO.N,A9*%
X152485900Y-106013100D02*
X153564000Y-106013100D01*
X153564000Y-106013100D02*
X156090200Y-108539300D01*
X148191100Y-110307900D02*
X152485900Y-106013100D01*
X148191100Y-116503700D02*
X148191100Y-110307900D01*
%TO.N,A10*%
X158664900Y-112417100D02*
X158664900Y-115526310D01*
X155125499Y-119065711D02*
X155125499Y-119374901D01*
X155125499Y-119374901D02*
X153486800Y-121013600D01*
X149877400Y-121013600D02*
X147193000Y-123698000D01*
X153486800Y-121013600D02*
X149877400Y-121013600D01*
X140626800Y-122428000D02*
X140753800Y-122301000D01*
X136435800Y-122428000D02*
X140626800Y-122428000D01*
X158664900Y-115526310D02*
X155125499Y-119065711D01*
%TO.N,RnW*%
X144055800Y-112268000D02*
X139264638Y-107476838D01*
X139264638Y-107476838D02*
X139264638Y-105997062D01*
%TO.N,A15*%
X145181100Y-107758800D02*
X145181100Y-106159900D01*
X144337200Y-108602700D02*
X145181100Y-107758800D01*
X145181100Y-106159900D02*
X144803200Y-105782000D01*
X144055800Y-108602700D02*
X144337200Y-108602700D01*
X144055800Y-109728000D02*
X144055800Y-108602700D01*
%TO.N,BANK3*%
X124065800Y-95758000D02*
X124866600Y-96558800D01*
X130300300Y-85778800D02*
X129613888Y-85092388D01*
X124866600Y-96558800D02*
X126585300Y-96558800D01*
X130300300Y-92843800D02*
X130300300Y-85778800D01*
X126585300Y-96558800D02*
X130300300Y-92843800D01*
%TO.N,U20_nOE*%
X159411500Y-109187000D02*
X159311500Y-109087000D01*
X155575000Y-121457200D02*
X155575000Y-119251900D01*
X155575000Y-119251900D02*
X159411500Y-115415400D01*
X159411500Y-115415400D02*
X159411500Y-109187000D01*
X155605800Y-121488000D02*
X155575000Y-121457200D01*
%TO.N,PA14*%
X180086000Y-115570000D02*
X169513999Y-126142001D01*
X157109801Y-126142001D02*
X155605800Y-124638000D01*
X188505800Y-109220000D02*
X182155800Y-115570000D01*
X182155800Y-115570000D02*
X180086000Y-115570000D01*
X169513999Y-126142001D02*
X157109801Y-126142001D01*
%TO.N,PA15*%
X166915800Y-124485440D02*
X166915800Y-124549200D01*
X165772500Y-125692500D02*
X159170300Y-125692500D01*
X170725800Y-121158000D02*
X170725800Y-123063000D01*
X170725800Y-123063000D02*
X170090800Y-123698000D01*
X182155800Y-113030000D02*
X178853800Y-113030000D01*
X188505800Y-106680000D02*
X182155800Y-113030000D01*
X170090800Y-123698000D02*
X167703240Y-123698000D01*
X178853800Y-113030000D02*
X170725800Y-121158000D01*
X159170300Y-125692500D02*
X158115800Y-124638000D01*
X166915800Y-124549200D02*
X165772500Y-125692500D01*
X167703240Y-123698000D02*
X166915800Y-124485440D01*
%TO.N,A16*%
X161671000Y-104872798D02*
X159039807Y-102241605D01*
X161163000Y-123063000D02*
X161671000Y-122555000D01*
X159039807Y-102241605D02*
X159039807Y-101655081D01*
X160625800Y-123063000D02*
X161163000Y-123063000D01*
X161671000Y-122555000D02*
X161671000Y-104872798D01*
%TO.N,PA16*%
X160625800Y-124638000D02*
X159498800Y-124638000D01*
X159498800Y-124638000D02*
X159422800Y-124714000D01*
%TO.N,A17*%
X163135800Y-123063000D02*
X162433000Y-123063000D01*
X162120501Y-103768767D02*
X161184234Y-102832500D01*
X162120501Y-122750501D02*
X162120501Y-103768767D01*
X162433000Y-123063000D02*
X162120501Y-122750501D01*
%TO.N,A18*%
X165989000Y-122047000D02*
X164973000Y-123063000D01*
X161642400Y-102108000D02*
X165989000Y-106454600D01*
X159930800Y-102108000D02*
X161642400Y-102108000D01*
X165989000Y-106454600D02*
X165989000Y-122047000D01*
%TO.N,A3*%
X152945800Y-108313300D02*
X153227100Y-108313300D01*
X152945800Y-107188000D02*
X152945800Y-108313300D01*
X155234500Y-110320700D02*
X155234500Y-112150700D01*
X153227100Y-108313300D02*
X155234500Y-110320700D01*
%TO.N,A2*%
X152514300Y-113439800D02*
X153728100Y-113439800D01*
X153728100Y-113439800D02*
X154323000Y-114034700D01*
X152945800Y-110853300D02*
X152664500Y-110853300D01*
X151820400Y-111697400D02*
X151820400Y-112745900D01*
X152664500Y-110853300D02*
X151820400Y-111697400D01*
X151820400Y-112745900D02*
X152514300Y-113439800D01*
X152945800Y-109728000D02*
X152945800Y-110853300D01*
%TO.N,A1*%
X156253600Y-112217900D02*
X156253600Y-112103000D01*
X154071100Y-112268000D02*
X154735500Y-112932400D01*
X152945800Y-112268000D02*
X154071100Y-112268000D01*
X155539100Y-112932400D02*
X156253600Y-112217900D01*
X154735500Y-112932400D02*
X155539100Y-112932400D01*
%TO.N,nROM_ACTIVE*%
X176555701Y-106434598D02*
X170722299Y-112268000D01*
X180885800Y-99060000D02*
X176555701Y-103390099D01*
X170722299Y-112268000D02*
X168185800Y-112268000D01*
X176555701Y-103390099D02*
X176555701Y-106434598D01*
%TO.N,D0*%
X123354800Y-110363000D02*
X123354800Y-106807000D01*
X121449800Y-112268000D02*
X123354800Y-110363000D01*
X123354800Y-106807000D02*
X124202797Y-105959003D01*
X124202797Y-105959003D02*
X128180800Y-105959003D01*
%TO.N,D1*%
X126964700Y-82169000D02*
X132334000Y-82169000D01*
X121449800Y-117348000D02*
X120052800Y-115951000D01*
X132334000Y-82169000D02*
X133902700Y-80600300D01*
X120052800Y-89080900D02*
X126964700Y-82169000D01*
X133902700Y-80600300D02*
X133902700Y-78675400D01*
X120052800Y-115951000D02*
X120052800Y-89080900D01*
%TO.N,D2*%
X127672800Y-113792000D02*
X127926800Y-113538000D01*
X121449800Y-122428000D02*
X124370800Y-119507000D01*
X153306400Y-116078000D02*
X156987400Y-112397000D01*
X147890700Y-117229000D02*
X149922800Y-117229000D01*
X127147200Y-116222600D02*
X127672800Y-115697000D01*
X156987400Y-112397000D02*
X156987400Y-111543000D01*
X149922800Y-117229000D02*
X151073800Y-116078000D01*
X127672800Y-115697000D02*
X127672800Y-113792000D01*
X124370800Y-116713000D02*
X124861200Y-116222600D01*
X164268809Y-90111501D02*
X169360191Y-90111501D01*
X131824100Y-112434700D02*
X131824100Y-105726891D01*
X147310800Y-116649100D02*
X147890700Y-117229000D01*
X130720800Y-113538000D02*
X131824100Y-112434700D01*
X147310800Y-104261200D02*
X147310800Y-116649100D01*
X151073800Y-116078000D02*
X153306400Y-116078000D01*
X156987400Y-111543000D02*
X157477199Y-111053201D01*
X131824100Y-105726891D02*
X133762493Y-103788498D01*
X127926800Y-113538000D02*
X130720800Y-113538000D01*
X157477199Y-96903111D02*
X164268809Y-90111501D01*
X175831201Y-96582511D02*
X175831201Y-106134500D01*
X124370800Y-119507000D02*
X124370800Y-116713000D01*
X157477199Y-111053201D02*
X157477199Y-96903111D01*
X124861200Y-116222600D02*
X127147200Y-116222600D01*
X169360191Y-90111501D02*
X175831201Y-96582511D01*
%TO.N,D3*%
X158652100Y-111301100D02*
X158652100Y-110621900D01*
X157888000Y-115021700D02*
X157888000Y-112065200D01*
X154436300Y-118473400D02*
X157888000Y-115021700D01*
X157888000Y-112065200D02*
X158652100Y-111301100D01*
%TO.N,nPAGE_REGISTER_WRITE*%
X171069000Y-89662000D02*
X148971000Y-89662000D01*
X184060800Y-109728000D02*
X184060800Y-98298000D01*
X147975100Y-67673300D02*
X146849800Y-66548000D01*
X182028800Y-111760000D02*
X184060800Y-109728000D01*
X147975100Y-88666100D02*
X147975100Y-67673300D01*
X184060800Y-98298000D02*
X183679800Y-97917000D01*
X180885800Y-111760000D02*
X182028800Y-111760000D01*
X179324000Y-97917000D02*
X171069000Y-89662000D01*
X183679800Y-97917000D02*
X179324000Y-97917000D01*
X148971000Y-89662000D02*
X147975100Y-88666100D01*
%TO.N,nROM_OE*%
X148784811Y-90111501D02*
X147525599Y-88852289D01*
X156815500Y-92045500D02*
X154881501Y-90111501D01*
X147525599Y-88852289D02*
X147525599Y-88090289D01*
X147525599Y-88090289D02*
X145579800Y-86144490D01*
X156751100Y-110753500D02*
X156815500Y-110689100D01*
X145579800Y-86144490D02*
X145579800Y-59627300D01*
X156815500Y-110689100D02*
X156815500Y-92045500D01*
X146279100Y-58928000D02*
X146849800Y-58928000D01*
X145579800Y-59627300D02*
X146279100Y-58928000D01*
X154881501Y-90111501D02*
X148784811Y-90111501D01*
X144055800Y-58928000D02*
X146279100Y-58928000D01*
%TO.N,U18_p16*%
X126275800Y-107188000D02*
X129069800Y-107188000D01*
%TO.N,RA14*%
X155510300Y-123063000D02*
X155605800Y-123063000D01*
X155605800Y-123063000D02*
X156522499Y-122146301D01*
X156522499Y-122146301D02*
X156522499Y-118944501D01*
X156522499Y-118944501D02*
X160052700Y-115414300D01*
X160052700Y-105205400D02*
X159568200Y-104720900D01*
X160052700Y-115414300D02*
X160052700Y-105205400D01*
%TO.N,RA15*%
X156972000Y-119957300D02*
X156972000Y-122936000D01*
X157099000Y-123063000D02*
X158115800Y-123063000D01*
X160538100Y-104645500D02*
X160538100Y-116391200D01*
X158891900Y-102999300D02*
X160538100Y-104645500D01*
X160538100Y-116391200D02*
X156972000Y-119957300D01*
X156972000Y-122936000D02*
X157099000Y-123063000D01*
X158768700Y-102999300D02*
X158891900Y-102999300D01*
%TD*%
%TA.AperFunction,Conductor*%
%TO.N,GND*%
G36*
X190315539Y-88285185D02*
G01*
X190361294Y-88337989D01*
X190372500Y-88389500D01*
X190372500Y-121795500D01*
X190352815Y-121862539D01*
X190300011Y-121908294D01*
X190248500Y-121919500D01*
X178054019Y-121919500D01*
X178053827Y-121919487D01*
X178053812Y-121919500D01*
X178053621Y-121919500D01*
X178050726Y-121922199D01*
X171990866Y-127224826D01*
X171927452Y-127254159D01*
X171909204Y-127255508D01*
X117256158Y-127253504D01*
X117189120Y-127233817D01*
X117143367Y-127181011D01*
X117132163Y-127129504D01*
X117132163Y-125237085D01*
X117151848Y-125170046D01*
X117204652Y-125124291D01*
X117273810Y-125114347D01*
X117337366Y-125143372D01*
X117375140Y-125202150D01*
X117378636Y-125217687D01*
X117387323Y-125272534D01*
X117450581Y-125467223D01*
X117500923Y-125566023D01*
X117529862Y-125622819D01*
X117543515Y-125649613D01*
X117663828Y-125815213D01*
X117808586Y-125959971D01*
X117963549Y-126072556D01*
X117974190Y-126080287D01*
X118090407Y-126139503D01*
X118156576Y-126173218D01*
X118156578Y-126173218D01*
X118156581Y-126173220D01*
X118260937Y-126207127D01*
X118351265Y-126236477D01*
X118452357Y-126252488D01*
X118553448Y-126268500D01*
X118553449Y-126268500D01*
X118758151Y-126268500D01*
X118758152Y-126268500D01*
X118960334Y-126236477D01*
X119155019Y-126173220D01*
X119337410Y-126080287D01*
X119430390Y-126012732D01*
X119503013Y-125959971D01*
X119503015Y-125959968D01*
X119503019Y-125959966D01*
X119647766Y-125815219D01*
X119647768Y-125815215D01*
X119647771Y-125815213D01*
X119700532Y-125742590D01*
X119768087Y-125649610D01*
X119861020Y-125467219D01*
X119924277Y-125272534D01*
X119930327Y-125234337D01*
X119960256Y-125171202D01*
X120019568Y-125134271D01*
X120089430Y-125135269D01*
X120147663Y-125173879D01*
X120175273Y-125234337D01*
X120181322Y-125272534D01*
X120244581Y-125467223D01*
X120294923Y-125566023D01*
X120323862Y-125622819D01*
X120337515Y-125649613D01*
X120457828Y-125815213D01*
X120602586Y-125959971D01*
X120757549Y-126072556D01*
X120768190Y-126080287D01*
X120884407Y-126139503D01*
X120950576Y-126173218D01*
X120950578Y-126173218D01*
X120950581Y-126173220D01*
X121054937Y-126207127D01*
X121145265Y-126236477D01*
X121246357Y-126252488D01*
X121347448Y-126268500D01*
X121347449Y-126268500D01*
X121552151Y-126268500D01*
X121552152Y-126268500D01*
X121754334Y-126236477D01*
X121949019Y-126173220D01*
X122131410Y-126080287D01*
X122224390Y-126012732D01*
X122297013Y-125959971D01*
X122297015Y-125959968D01*
X122297019Y-125959966D01*
X122441766Y-125815219D01*
X122441768Y-125815215D01*
X122441771Y-125815213D01*
X122494532Y-125742590D01*
X122562087Y-125649610D01*
X122655020Y-125467219D01*
X122718277Y-125272534D01*
X122750300Y-125070352D01*
X122750300Y-124865648D01*
X122730305Y-124739409D01*
X122718277Y-124663465D01*
X122663867Y-124496009D01*
X122655020Y-124468781D01*
X122655018Y-124468778D01*
X122655018Y-124468776D01*
X122597628Y-124356144D01*
X122562087Y-124286390D01*
X122551657Y-124272034D01*
X122441771Y-124120786D01*
X122297013Y-123976028D01*
X122131414Y-123855715D01*
X122097270Y-123838318D01*
X122038717Y-123808483D01*
X121987923Y-123760511D01*
X121971128Y-123692690D01*
X121993665Y-123626555D01*
X122038717Y-123587516D01*
X122131410Y-123540287D01*
X122238498Y-123462484D01*
X122297013Y-123419971D01*
X122297015Y-123419968D01*
X122297019Y-123419966D01*
X122441766Y-123275219D01*
X122441768Y-123275215D01*
X122441771Y-123275213D01*
X122500007Y-123195056D01*
X122562087Y-123109610D01*
X122655020Y-122927219D01*
X122718277Y-122732534D01*
X122750300Y-122530352D01*
X122750300Y-122325648D01*
X122718277Y-122123466D01*
X122718277Y-122123465D01*
X122717515Y-122118654D01*
X122719577Y-122118327D01*
X122722584Y-122057304D01*
X122752015Y-122010373D01*
X124769529Y-119992860D01*
X124769533Y-119992858D01*
X124775433Y-119986957D01*
X124803778Y-119971482D01*
X124836742Y-119953482D01*
X124836749Y-119953482D01*
X124836756Y-119953479D01*
X124871609Y-119955974D01*
X124906434Y-119958464D01*
X124906439Y-119958468D01*
X124906448Y-119958469D01*
X124937903Y-119982020D01*
X124962369Y-120000333D01*
X124962371Y-120000339D01*
X124962378Y-120000344D01*
X124962410Y-120000431D01*
X124985578Y-120055248D01*
X125007323Y-120192535D01*
X125070581Y-120387223D01*
X125108926Y-120462478D01*
X125157399Y-120557611D01*
X125163515Y-120569613D01*
X125283828Y-120735213D01*
X125428586Y-120879971D01*
X125554569Y-120971501D01*
X125594190Y-121000287D01*
X125685640Y-121046883D01*
X125686880Y-121047515D01*
X125737676Y-121095490D01*
X125754471Y-121163311D01*
X125731934Y-121229446D01*
X125686880Y-121268485D01*
X125594186Y-121315715D01*
X125428586Y-121436028D01*
X125283828Y-121580786D01*
X125163515Y-121746386D01*
X125070581Y-121928776D01*
X125007322Y-122123465D01*
X124975300Y-122325648D01*
X124975300Y-122530351D01*
X125007322Y-122732534D01*
X125070581Y-122927223D01*
X125126099Y-123036181D01*
X125144604Y-123072500D01*
X125163515Y-123109613D01*
X125283828Y-123275213D01*
X125428586Y-123419971D01*
X125525995Y-123490741D01*
X125594190Y-123540287D01*
X125678184Y-123583084D01*
X125686880Y-123587515D01*
X125737676Y-123635490D01*
X125754471Y-123703311D01*
X125731934Y-123769446D01*
X125686880Y-123808485D01*
X125594186Y-123855715D01*
X125428586Y-123976028D01*
X125283828Y-124120786D01*
X125163515Y-124286386D01*
X125070581Y-124468776D01*
X125007322Y-124663465D01*
X124982945Y-124817380D01*
X124975300Y-124865648D01*
X124975300Y-125070352D01*
X124976116Y-125075501D01*
X125007322Y-125272534D01*
X125070581Y-125467223D01*
X125120923Y-125566023D01*
X125149862Y-125622819D01*
X125163515Y-125649613D01*
X125283828Y-125815213D01*
X125428586Y-125959971D01*
X125583549Y-126072556D01*
X125594190Y-126080287D01*
X125710407Y-126139503D01*
X125776576Y-126173218D01*
X125776578Y-126173218D01*
X125776581Y-126173220D01*
X125880937Y-126207127D01*
X125971265Y-126236477D01*
X126072357Y-126252488D01*
X126173448Y-126268500D01*
X126173449Y-126268500D01*
X126378151Y-126268500D01*
X126378152Y-126268500D01*
X126580334Y-126236477D01*
X126775019Y-126173220D01*
X126957410Y-126080287D01*
X127050390Y-126012732D01*
X127123013Y-125959971D01*
X127123015Y-125959968D01*
X127123019Y-125959966D01*
X127267766Y-125815219D01*
X127267768Y-125815215D01*
X127267771Y-125815213D01*
X127320532Y-125742590D01*
X127388087Y-125649610D01*
X127481020Y-125467219D01*
X127544277Y-125272534D01*
X127550327Y-125234337D01*
X127580256Y-125171202D01*
X127639568Y-125134271D01*
X127709430Y-125135269D01*
X127767663Y-125173879D01*
X127795273Y-125234337D01*
X127801322Y-125272534D01*
X127864581Y-125467223D01*
X127914923Y-125566023D01*
X127943862Y-125622819D01*
X127957515Y-125649613D01*
X128077828Y-125815213D01*
X128222586Y-125959971D01*
X128377549Y-126072556D01*
X128388190Y-126080287D01*
X128504407Y-126139503D01*
X128570576Y-126173218D01*
X128570578Y-126173218D01*
X128570581Y-126173220D01*
X128674937Y-126207127D01*
X128765265Y-126236477D01*
X128866357Y-126252488D01*
X128967448Y-126268500D01*
X128967449Y-126268500D01*
X129172151Y-126268500D01*
X129172152Y-126268500D01*
X129374334Y-126236477D01*
X129569019Y-126173220D01*
X129751410Y-126080287D01*
X129844390Y-126012732D01*
X129917013Y-125959971D01*
X129917015Y-125959968D01*
X129917019Y-125959966D01*
X130061766Y-125815219D01*
X130061768Y-125815215D01*
X130061771Y-125815213D01*
X130114532Y-125742590D01*
X130182087Y-125649610D01*
X130275020Y-125467219D01*
X130338277Y-125272534D01*
X130370300Y-125070352D01*
X130370300Y-124865648D01*
X130350305Y-124739409D01*
X130338277Y-124663465D01*
X130283867Y-124496009D01*
X130275020Y-124468781D01*
X130275018Y-124468778D01*
X130275018Y-124468776D01*
X130217628Y-124356144D01*
X130182087Y-124286390D01*
X130171657Y-124272034D01*
X130061771Y-124120786D01*
X129917013Y-123976028D01*
X129751414Y-123855715D01*
X129717270Y-123838318D01*
X129658717Y-123808483D01*
X129607923Y-123760511D01*
X129591128Y-123692690D01*
X129613665Y-123626555D01*
X129658717Y-123587516D01*
X129751410Y-123540287D01*
X129858498Y-123462484D01*
X129917013Y-123419971D01*
X129917015Y-123419968D01*
X129917019Y-123419966D01*
X130061766Y-123275219D01*
X130061768Y-123275215D01*
X130061771Y-123275213D01*
X130120007Y-123195056D01*
X130182087Y-123109610D01*
X130275020Y-122927219D01*
X130338277Y-122732534D01*
X130370300Y-122530352D01*
X130370300Y-122325648D01*
X130338277Y-122123466D01*
X130336713Y-122118654D01*
X130302547Y-122013500D01*
X130275020Y-121928781D01*
X130275018Y-121928778D01*
X130275018Y-121928776D01*
X130234833Y-121849909D01*
X130182087Y-121746390D01*
X130169324Y-121728823D01*
X130061771Y-121580786D01*
X129917013Y-121436028D01*
X129751414Y-121315715D01*
X129744806Y-121312348D01*
X129658717Y-121268483D01*
X129607923Y-121220511D01*
X129591128Y-121152690D01*
X129613665Y-121086555D01*
X129658717Y-121047516D01*
X129751410Y-121000287D01*
X129881101Y-120906062D01*
X129917013Y-120879971D01*
X129917015Y-120879968D01*
X129917019Y-120879966D01*
X130061766Y-120735219D01*
X130061768Y-120735215D01*
X130061771Y-120735213D01*
X130118984Y-120656465D01*
X130182087Y-120569610D01*
X130275020Y-120387219D01*
X130338277Y-120192534D01*
X130370300Y-119990352D01*
X130370300Y-119785648D01*
X130346409Y-119634806D01*
X130338277Y-119583465D01*
X130275018Y-119388776D01*
X130237010Y-119314183D01*
X130182087Y-119206390D01*
X130155979Y-119170455D01*
X130061771Y-119040786D01*
X129917013Y-118896028D01*
X129751414Y-118775715D01*
X129699972Y-118749504D01*
X129658717Y-118728483D01*
X129607923Y-118680511D01*
X129591128Y-118612690D01*
X129613665Y-118546555D01*
X129658717Y-118507516D01*
X129751410Y-118460287D01*
X129772570Y-118444913D01*
X129917013Y-118339971D01*
X129917015Y-118339968D01*
X129917019Y-118339966D01*
X130061766Y-118195219D01*
X130061768Y-118195215D01*
X130061771Y-118195213D01*
X130127336Y-118104969D01*
X130182087Y-118029610D01*
X130275020Y-117847219D01*
X130338277Y-117652534D01*
X130370300Y-117450352D01*
X130370300Y-117245648D01*
X130345919Y-117091714D01*
X130338277Y-117043465D01*
X130284208Y-116877060D01*
X130275020Y-116848781D01*
X130275018Y-116848778D01*
X130275018Y-116848776D01*
X130219501Y-116739819D01*
X130182087Y-116666390D01*
X130157325Y-116632308D01*
X130061771Y-116500786D01*
X129917013Y-116356028D01*
X129751414Y-116235715D01*
X129734588Y-116227142D01*
X129658717Y-116188483D01*
X129607923Y-116140511D01*
X129591128Y-116072690D01*
X129613665Y-116006555D01*
X129658717Y-115967516D01*
X129751410Y-115920287D01*
X129850867Y-115848028D01*
X129917013Y-115799971D01*
X129917015Y-115799968D01*
X129917019Y-115799966D01*
X130061766Y-115655219D01*
X130061768Y-115655215D01*
X130061771Y-115655213D01*
X130124787Y-115568477D01*
X130182087Y-115489610D01*
X130275020Y-115307219D01*
X130338277Y-115112534D01*
X130370300Y-114910352D01*
X130370300Y-114705648D01*
X130338277Y-114503466D01*
X130338276Y-114503462D01*
X130338276Y-114503461D01*
X130280556Y-114325818D01*
X130278561Y-114255977D01*
X130314641Y-114196144D01*
X130377342Y-114165316D01*
X130398487Y-114163500D01*
X130782407Y-114163500D01*
X130842829Y-114151481D01*
X130903252Y-114139463D01*
X130942053Y-114123391D01*
X131017086Y-114092312D01*
X131080087Y-114050215D01*
X131119533Y-114023858D01*
X131206658Y-113936733D01*
X131206659Y-113936730D01*
X131213725Y-113929665D01*
X131213728Y-113929661D01*
X132222829Y-112920560D01*
X132222833Y-112920558D01*
X132309958Y-112833433D01*
X132375170Y-112735837D01*
X132378412Y-112730985D01*
X132405039Y-112666699D01*
X132448879Y-112612297D01*
X132515173Y-112590231D01*
X132582872Y-112607510D01*
X132630483Y-112658646D01*
X132643600Y-112714152D01*
X132643600Y-113398910D01*
X132667635Y-113519744D01*
X132667638Y-113519754D01*
X132677395Y-113543311D01*
X132681447Y-113553092D01*
X132714788Y-113633586D01*
X132729431Y-113655500D01*
X132734315Y-113662810D01*
X132734317Y-113662813D01*
X132783240Y-113736031D01*
X132783241Y-113736032D01*
X132783242Y-113736033D01*
X132870367Y-113823158D01*
X132870368Y-113823158D01*
X132877435Y-113830225D01*
X132877434Y-113830225D01*
X132877438Y-113830228D01*
X134249981Y-115202771D01*
X134283466Y-115264094D01*
X134286300Y-115290452D01*
X134286300Y-116774609D01*
X134289831Y-116792360D01*
X134289831Y-116792361D01*
X134300959Y-116848309D01*
X134304176Y-116864480D01*
X134306678Y-116877058D01*
X134310336Y-116895449D01*
X134357488Y-117009286D01*
X134357488Y-117009287D01*
X134371210Y-117029821D01*
X134385839Y-117051715D01*
X134425942Y-117111733D01*
X134513067Y-117198858D01*
X134513069Y-117198859D01*
X134523301Y-117209091D01*
X135148063Y-117833855D01*
X135148066Y-117833858D01*
X135235946Y-117892577D01*
X135277539Y-117939384D01*
X135323511Y-118029608D01*
X135323512Y-118029610D01*
X135443828Y-118195213D01*
X135588586Y-118339971D01*
X135743549Y-118452556D01*
X135754190Y-118460287D01*
X135845640Y-118506883D01*
X135846880Y-118507515D01*
X135897676Y-118555490D01*
X135914471Y-118623311D01*
X135891934Y-118689446D01*
X135846880Y-118728485D01*
X135754186Y-118775715D01*
X135588586Y-118896028D01*
X135443828Y-119040786D01*
X135323515Y-119206386D01*
X135230581Y-119388776D01*
X135167322Y-119583465D01*
X135148636Y-119701447D01*
X135135300Y-119785648D01*
X135135300Y-119990352D01*
X135135697Y-119992858D01*
X135167322Y-120192534D01*
X135230581Y-120387223D01*
X135268926Y-120462478D01*
X135317399Y-120557611D01*
X135323515Y-120569613D01*
X135443828Y-120735213D01*
X135588586Y-120879971D01*
X135714569Y-120971501D01*
X135754190Y-121000287D01*
X135845640Y-121046883D01*
X135846880Y-121047515D01*
X135897676Y-121095490D01*
X135914471Y-121163311D01*
X135891934Y-121229446D01*
X135846880Y-121268485D01*
X135754186Y-121315715D01*
X135588586Y-121436028D01*
X135443828Y-121580786D01*
X135323515Y-121746386D01*
X135230581Y-121928776D01*
X135167322Y-122123465D01*
X135135300Y-122325648D01*
X135135300Y-122530351D01*
X135167322Y-122732534D01*
X135230581Y-122927223D01*
X135286099Y-123036181D01*
X135304604Y-123072500D01*
X135323515Y-123109613D01*
X135443828Y-123275213D01*
X135588586Y-123419971D01*
X135685995Y-123490741D01*
X135754190Y-123540287D01*
X135826224Y-123576990D01*
X135847429Y-123587795D01*
X135898225Y-123635770D01*
X135915020Y-123703591D01*
X135892482Y-123769726D01*
X135847429Y-123808765D01*
X135754450Y-123856140D01*
X135588905Y-123976417D01*
X135588904Y-123976417D01*
X135444217Y-124121104D01*
X135444217Y-124121105D01*
X135323940Y-124286650D01*
X135231044Y-124468970D01*
X135167809Y-124663586D01*
X135159191Y-124718000D01*
X136120114Y-124718000D01*
X136115720Y-124722394D01*
X136063059Y-124813606D01*
X136035800Y-124915339D01*
X136035800Y-125020661D01*
X136063059Y-125122394D01*
X136115720Y-125213606D01*
X136120114Y-125218000D01*
X135159191Y-125218000D01*
X135167809Y-125272413D01*
X135231044Y-125467029D01*
X135323940Y-125649349D01*
X135444217Y-125814894D01*
X135444217Y-125814895D01*
X135588904Y-125959582D01*
X135754450Y-126079859D01*
X135936768Y-126172754D01*
X136131378Y-126235988D01*
X136185800Y-126244607D01*
X136185800Y-125283686D01*
X136190194Y-125288080D01*
X136281406Y-125340741D01*
X136383139Y-125368000D01*
X136488461Y-125368000D01*
X136590194Y-125340741D01*
X136681406Y-125288080D01*
X136685800Y-125283686D01*
X136685800Y-126244606D01*
X136740221Y-126235988D01*
X136934831Y-126172754D01*
X137117149Y-126079859D01*
X137282694Y-125959582D01*
X137282695Y-125959582D01*
X137427382Y-125814895D01*
X137427382Y-125814894D01*
X137547659Y-125649349D01*
X137640555Y-125467029D01*
X137703790Y-125272413D01*
X137712409Y-125218000D01*
X136751486Y-125218000D01*
X136755880Y-125213606D01*
X136808541Y-125122394D01*
X136835800Y-125020661D01*
X136835800Y-124915339D01*
X136808541Y-124813606D01*
X136755880Y-124722394D01*
X136751486Y-124718000D01*
X137712409Y-124718000D01*
X137703790Y-124663586D01*
X137640555Y-124468970D01*
X137547659Y-124286650D01*
X137427382Y-124121105D01*
X137427382Y-124121104D01*
X137282695Y-123976417D01*
X137117149Y-123856140D01*
X137024170Y-123808765D01*
X136973374Y-123760790D01*
X136956579Y-123692969D01*
X136979116Y-123626835D01*
X137024170Y-123587795D01*
X137024720Y-123587515D01*
X137117410Y-123540287D01*
X137224498Y-123462484D01*
X137283013Y-123419971D01*
X137283015Y-123419968D01*
X137283019Y-123419966D01*
X137427766Y-123275219D01*
X137427768Y-123275215D01*
X137427771Y-123275213D01*
X137550951Y-123105669D01*
X137552623Y-123106884D01*
X137598008Y-123065831D01*
X137651915Y-123053500D01*
X140221523Y-123053500D01*
X140288562Y-123073185D01*
X140290368Y-123074367D01*
X140327253Y-123099013D01*
X140491134Y-123166894D01*
X140491136Y-123166894D01*
X140491141Y-123166896D01*
X140665104Y-123201499D01*
X140665107Y-123201500D01*
X140665109Y-123201500D01*
X140842493Y-123201500D01*
X140842494Y-123201499D01*
X140900482Y-123189964D01*
X141016458Y-123166896D01*
X141016461Y-123166894D01*
X141016466Y-123166894D01*
X141180347Y-123099013D01*
X141327835Y-123000464D01*
X141453264Y-122875035D01*
X141551813Y-122727547D01*
X141619694Y-122563666D01*
X141625955Y-122532193D01*
X141654299Y-122389695D01*
X141654300Y-122389693D01*
X141654300Y-122212306D01*
X141654299Y-122212304D01*
X141619696Y-122038341D01*
X141619693Y-122038332D01*
X141615476Y-122028152D01*
X141602723Y-121997363D01*
X141551816Y-121874459D01*
X141551809Y-121874446D01*
X141453264Y-121726965D01*
X141453261Y-121726961D01*
X141327838Y-121601538D01*
X141327834Y-121601535D01*
X141180353Y-121502990D01*
X141180340Y-121502983D01*
X141016467Y-121435106D01*
X141016458Y-121435103D01*
X140842494Y-121400500D01*
X140842491Y-121400500D01*
X140665109Y-121400500D01*
X140665106Y-121400500D01*
X140491141Y-121435103D01*
X140491132Y-121435106D01*
X140327259Y-121502983D01*
X140327246Y-121502990D01*
X140179765Y-121601535D01*
X140179761Y-121601538D01*
X140054338Y-121726961D01*
X140054334Y-121726966D01*
X140040689Y-121747389D01*
X139987078Y-121792195D01*
X139937586Y-121802500D01*
X137651915Y-121802500D01*
X137584876Y-121782815D01*
X137552193Y-121749428D01*
X137550951Y-121750331D01*
X137427771Y-121580786D01*
X137283013Y-121436028D01*
X137117414Y-121315715D01*
X137110806Y-121312348D01*
X137024717Y-121268483D01*
X136973923Y-121220511D01*
X136957128Y-121152690D01*
X136979665Y-121086555D01*
X137024717Y-121047516D01*
X137117410Y-121000287D01*
X137247101Y-120906062D01*
X137283013Y-120879971D01*
X137283015Y-120879968D01*
X137283019Y-120879966D01*
X137427766Y-120735219D01*
X137427768Y-120735215D01*
X137427771Y-120735213D01*
X137484984Y-120656465D01*
X137548087Y-120569610D01*
X137641020Y-120387219D01*
X137704277Y-120192534D01*
X137736300Y-119990352D01*
X137736300Y-119785648D01*
X137712409Y-119634806D01*
X137704277Y-119583465D01*
X137641018Y-119388776D01*
X137603010Y-119314183D01*
X137548087Y-119206390D01*
X137521979Y-119170455D01*
X137427771Y-119040786D01*
X137283013Y-118896028D01*
X137117414Y-118775715D01*
X137065972Y-118749504D01*
X137024717Y-118728483D01*
X136973923Y-118680511D01*
X136957128Y-118612690D01*
X136979665Y-118546555D01*
X137024717Y-118507516D01*
X137117410Y-118460287D01*
X137138570Y-118444913D01*
X137283013Y-118339971D01*
X137283015Y-118339968D01*
X137283019Y-118339966D01*
X137427766Y-118195219D01*
X137427768Y-118195215D01*
X137427771Y-118195213D01*
X137493336Y-118104969D01*
X137548087Y-118029610D01*
X137641020Y-117847219D01*
X137704277Y-117652534D01*
X137736300Y-117450352D01*
X137736300Y-117245648D01*
X137711919Y-117091714D01*
X137704277Y-117043465D01*
X137650208Y-116877060D01*
X137641020Y-116848781D01*
X137641018Y-116848778D01*
X137641018Y-116848776D01*
X137585501Y-116739819D01*
X137548087Y-116666390D01*
X137523325Y-116632308D01*
X137427771Y-116500786D01*
X137283013Y-116356028D01*
X137117414Y-116235715D01*
X137100588Y-116227142D01*
X137024717Y-116188483D01*
X136973923Y-116140511D01*
X136957128Y-116072690D01*
X136979665Y-116006555D01*
X137024717Y-115967516D01*
X137117410Y-115920287D01*
X137216867Y-115848028D01*
X137283013Y-115799971D01*
X137283015Y-115799968D01*
X137283019Y-115799966D01*
X137427766Y-115655219D01*
X137427768Y-115655215D01*
X137427771Y-115655213D01*
X137490787Y-115568477D01*
X137548087Y-115489610D01*
X137641020Y-115307219D01*
X137704277Y-115112534D01*
X137736300Y-114910352D01*
X137736300Y-114705648D01*
X137714560Y-114568390D01*
X137704277Y-114503465D01*
X137655277Y-114352661D01*
X137641020Y-114308781D01*
X137641018Y-114308778D01*
X137641018Y-114308776D01*
X137607303Y-114242607D01*
X137548087Y-114126390D01*
X137519766Y-114087409D01*
X137427771Y-113960786D01*
X137283013Y-113816028D01*
X137117414Y-113695715D01*
X137102555Y-113688144D01*
X137024717Y-113648483D01*
X136973923Y-113600511D01*
X136957128Y-113532690D01*
X136979665Y-113466555D01*
X137024717Y-113427516D01*
X137117410Y-113380287D01*
X137247101Y-113286062D01*
X137283013Y-113259971D01*
X137283015Y-113259968D01*
X137283019Y-113259966D01*
X137427766Y-113115219D01*
X137427768Y-113115215D01*
X137427771Y-113115213D01*
X137491971Y-113026847D01*
X137548087Y-112949610D01*
X137641020Y-112767219D01*
X137704277Y-112572534D01*
X137736300Y-112370352D01*
X137736300Y-112165648D01*
X137720327Y-112064797D01*
X137704277Y-111963465D01*
X137641018Y-111768776D01*
X137593976Y-111676453D01*
X137548087Y-111586390D01*
X137535115Y-111568536D01*
X137427771Y-111420786D01*
X137283013Y-111276028D01*
X137117414Y-111155715D01*
X137106602Y-111150206D01*
X137024717Y-111108483D01*
X136973923Y-111060511D01*
X136957128Y-110992690D01*
X136979665Y-110926555D01*
X137024717Y-110887516D01*
X137117410Y-110840287D01*
X137216867Y-110768028D01*
X137283013Y-110719971D01*
X137283015Y-110719968D01*
X137283019Y-110719966D01*
X137427766Y-110575219D01*
X137427768Y-110575215D01*
X137427771Y-110575213D01*
X137490787Y-110488477D01*
X137548087Y-110409610D01*
X137641020Y-110227219D01*
X137704277Y-110032534D01*
X137736300Y-109830352D01*
X137736300Y-109625648D01*
X137704277Y-109423466D01*
X137697701Y-109403228D01*
X137669212Y-109315547D01*
X137641020Y-109228781D01*
X137641018Y-109228778D01*
X137641018Y-109228776D01*
X137586694Y-109122161D01*
X137548087Y-109046390D01*
X137512086Y-108996838D01*
X137427771Y-108880786D01*
X137283019Y-108736034D01*
X137246730Y-108709669D01*
X137204064Y-108654339D01*
X137198085Y-108584726D01*
X137230690Y-108522931D01*
X137291528Y-108488573D01*
X137306362Y-108486060D01*
X137343283Y-108482091D01*
X137449314Y-108442544D01*
X137478131Y-108431796D01*
X137593346Y-108345546D01*
X137615023Y-108316588D01*
X137670954Y-108274720D01*
X137740645Y-108269735D01*
X137801969Y-108303219D01*
X137835454Y-108364542D01*
X137835905Y-108366709D01*
X137850035Y-108437746D01*
X137850040Y-108437761D01*
X137897185Y-108551581D01*
X137897187Y-108551585D01*
X137903813Y-108561500D01*
X137903816Y-108561505D01*
X137965641Y-108654032D01*
X137965644Y-108654036D01*
X138057086Y-108745478D01*
X138057108Y-108745498D01*
X143080785Y-113769175D01*
X143114270Y-113830498D01*
X143109286Y-113900190D01*
X143080785Y-113944537D01*
X143064217Y-113961104D01*
X143064217Y-113961105D01*
X142943940Y-114126650D01*
X142851044Y-114308970D01*
X142787809Y-114503586D01*
X142779191Y-114558000D01*
X143740114Y-114558000D01*
X143735720Y-114562394D01*
X143683059Y-114653606D01*
X143655800Y-114755339D01*
X143655800Y-114860661D01*
X143683059Y-114962394D01*
X143735720Y-115053606D01*
X143740114Y-115058000D01*
X142779191Y-115058000D01*
X142787809Y-115112413D01*
X142851044Y-115307029D01*
X142943940Y-115489349D01*
X143064217Y-115654894D01*
X143064217Y-115654895D01*
X143208904Y-115799582D01*
X143374452Y-115919861D01*
X143467428Y-115967234D01*
X143518225Y-116015208D01*
X143535020Y-116083029D01*
X143512483Y-116149164D01*
X143467430Y-116188203D01*
X143374188Y-116235713D01*
X143208586Y-116356028D01*
X143063828Y-116500786D01*
X142943515Y-116666386D01*
X142850581Y-116848776D01*
X142787322Y-117043465D01*
X142755300Y-117245648D01*
X142755300Y-117450351D01*
X142787322Y-117652534D01*
X142850581Y-117847223D01*
X142897540Y-117939384D01*
X142928321Y-117999795D01*
X142943515Y-118029613D01*
X143063828Y-118195213D01*
X143208586Y-118339971D01*
X143363549Y-118452556D01*
X143374190Y-118460287D01*
X143465640Y-118506883D01*
X143466880Y-118507515D01*
X143517676Y-118555490D01*
X143534471Y-118623311D01*
X143511934Y-118689446D01*
X143466880Y-118728485D01*
X143374186Y-118775715D01*
X143208586Y-118896028D01*
X143063828Y-119040786D01*
X142943515Y-119206386D01*
X142850581Y-119388776D01*
X142787322Y-119583465D01*
X142768636Y-119701447D01*
X142755300Y-119785648D01*
X142755300Y-119990352D01*
X142755697Y-119992858D01*
X142787322Y-120192534D01*
X142850581Y-120387223D01*
X142888926Y-120462478D01*
X142937399Y-120557611D01*
X142943515Y-120569613D01*
X143063828Y-120735213D01*
X143208586Y-120879971D01*
X143334569Y-120971501D01*
X143374190Y-121000287D01*
X143465640Y-121046883D01*
X143466880Y-121047515D01*
X143517676Y-121095490D01*
X143534471Y-121163311D01*
X143511934Y-121229446D01*
X143466880Y-121268485D01*
X143374186Y-121315715D01*
X143208586Y-121436028D01*
X143063828Y-121580786D01*
X142943515Y-121746386D01*
X142850581Y-121928776D01*
X142787322Y-122123465D01*
X142755300Y-122325648D01*
X142755300Y-122530351D01*
X142787322Y-122732534D01*
X142850581Y-122927223D01*
X142906099Y-123036181D01*
X142924604Y-123072500D01*
X142943515Y-123109613D01*
X143063828Y-123275213D01*
X143208586Y-123419971D01*
X143305995Y-123490741D01*
X143374190Y-123540287D01*
X143458184Y-123583084D01*
X143466880Y-123587515D01*
X143517676Y-123635490D01*
X143534471Y-123703311D01*
X143511934Y-123769446D01*
X143466880Y-123808485D01*
X143374186Y-123855715D01*
X143208586Y-123976028D01*
X143063828Y-124120786D01*
X142943515Y-124286386D01*
X142850581Y-124468776D01*
X142787322Y-124663465D01*
X142762945Y-124817380D01*
X142755300Y-124865648D01*
X142755300Y-125070352D01*
X142756116Y-125075501D01*
X142787322Y-125272534D01*
X142850581Y-125467223D01*
X142900923Y-125566023D01*
X142929862Y-125622819D01*
X142943515Y-125649613D01*
X143063828Y-125815213D01*
X143208586Y-125959971D01*
X143363549Y-126072556D01*
X143374190Y-126080287D01*
X143490407Y-126139503D01*
X143556576Y-126173218D01*
X143556578Y-126173218D01*
X143556581Y-126173220D01*
X143660937Y-126207127D01*
X143751265Y-126236477D01*
X143852357Y-126252488D01*
X143953448Y-126268500D01*
X143953449Y-126268500D01*
X144158151Y-126268500D01*
X144158152Y-126268500D01*
X144360334Y-126236477D01*
X144555019Y-126173220D01*
X144737410Y-126080287D01*
X144830390Y-126012732D01*
X144903013Y-125959971D01*
X144903015Y-125959968D01*
X144903019Y-125959966D01*
X145047766Y-125815219D01*
X145047768Y-125815215D01*
X145047771Y-125815213D01*
X145100532Y-125742590D01*
X145168087Y-125649610D01*
X145261020Y-125467219D01*
X145324277Y-125272534D01*
X145328027Y-125248852D01*
X145337143Y-125229621D01*
X145341668Y-125208823D01*
X145356212Y-125189394D01*
X145357954Y-125185720D01*
X145362801Y-125180587D01*
X146297704Y-124245684D01*
X146359025Y-124212201D01*
X146428717Y-124217185D01*
X146484650Y-124259057D01*
X146488486Y-124264477D01*
X146493537Y-124272037D01*
X146618961Y-124397461D01*
X146618965Y-124397464D01*
X146766446Y-124496009D01*
X146766459Y-124496016D01*
X146845374Y-124528703D01*
X146930334Y-124563894D01*
X146930336Y-124563894D01*
X146930341Y-124563896D01*
X147104304Y-124598499D01*
X147104307Y-124598500D01*
X147104309Y-124598500D01*
X147281693Y-124598500D01*
X147281694Y-124598499D01*
X147339682Y-124586964D01*
X147455658Y-124563896D01*
X147455661Y-124563894D01*
X147455666Y-124563894D01*
X147619547Y-124496013D01*
X147767035Y-124397464D01*
X147892464Y-124272035D01*
X147991013Y-124124547D01*
X148058894Y-123960666D01*
X148072849Y-123890513D01*
X148083724Y-123835838D01*
X148093500Y-123786691D01*
X148093500Y-123733452D01*
X148113185Y-123666413D01*
X148129819Y-123645771D01*
X150100171Y-121675419D01*
X150161494Y-121641934D01*
X150187852Y-121639100D01*
X151685830Y-121639100D01*
X151752869Y-121658785D01*
X151798624Y-121711589D01*
X151808568Y-121780747D01*
X151796315Y-121819395D01*
X151740581Y-121928776D01*
X151677322Y-122123465D01*
X151645300Y-122325648D01*
X151645300Y-122530351D01*
X151677322Y-122732534D01*
X151740581Y-122927223D01*
X151796099Y-123036181D01*
X151814604Y-123072500D01*
X151833515Y-123109613D01*
X151953828Y-123275213D01*
X152098586Y-123419971D01*
X152195995Y-123490741D01*
X152264190Y-123540287D01*
X152336224Y-123576990D01*
X152357429Y-123587795D01*
X152408225Y-123635770D01*
X152425020Y-123703591D01*
X152402482Y-123769726D01*
X152357429Y-123808765D01*
X152264450Y-123856140D01*
X152098905Y-123976417D01*
X152098904Y-123976417D01*
X151954217Y-124121104D01*
X151954217Y-124121105D01*
X151833940Y-124286650D01*
X151741044Y-124468970D01*
X151677809Y-124663586D01*
X151669191Y-124718000D01*
X152630114Y-124718000D01*
X152625720Y-124722394D01*
X152573059Y-124813606D01*
X152545800Y-124915339D01*
X152545800Y-125020661D01*
X152573059Y-125122394D01*
X152625720Y-125213606D01*
X152630114Y-125218000D01*
X151669191Y-125218000D01*
X151677809Y-125272413D01*
X151741044Y-125467029D01*
X151833940Y-125649349D01*
X151954217Y-125814894D01*
X151954217Y-125814895D01*
X152098904Y-125959582D01*
X152264450Y-126079859D01*
X152446768Y-126172754D01*
X152641378Y-126235988D01*
X152695800Y-126244607D01*
X152695800Y-125283686D01*
X152700194Y-125288080D01*
X152791406Y-125340741D01*
X152893139Y-125368000D01*
X152998461Y-125368000D01*
X153100194Y-125340741D01*
X153191406Y-125288080D01*
X153195800Y-125283686D01*
X153195800Y-126244606D01*
X153250221Y-126235988D01*
X153444831Y-126172754D01*
X153627149Y-126079859D01*
X153792694Y-125959582D01*
X153792695Y-125959582D01*
X153937382Y-125814895D01*
X153937382Y-125814894D01*
X154057659Y-125649349D01*
X154150555Y-125467029D01*
X154213790Y-125272413D01*
X154222409Y-125218000D01*
X153261486Y-125218000D01*
X153265880Y-125213606D01*
X153318541Y-125122394D01*
X153345800Y-125020661D01*
X153345800Y-124915339D01*
X153318541Y-124813606D01*
X153265880Y-124722394D01*
X153261486Y-124718000D01*
X154222409Y-124718000D01*
X154213790Y-124663586D01*
X154150555Y-124468970D01*
X154057659Y-124286650D01*
X153937382Y-124121105D01*
X153937382Y-124121104D01*
X153792695Y-123976417D01*
X153627149Y-123856140D01*
X153534170Y-123808765D01*
X153483374Y-123760790D01*
X153466579Y-123692969D01*
X153489116Y-123626835D01*
X153534170Y-123587795D01*
X153534720Y-123587515D01*
X153627410Y-123540287D01*
X153734498Y-123462484D01*
X153793013Y-123419971D01*
X153793015Y-123419968D01*
X153793019Y-123419966D01*
X153937766Y-123275219D01*
X153937768Y-123275215D01*
X153937771Y-123275213D01*
X153996007Y-123195056D01*
X154058087Y-123109610D01*
X154151020Y-122927219D01*
X154214277Y-122732534D01*
X154246300Y-122530352D01*
X154246300Y-122325648D01*
X154214277Y-122123466D01*
X154212713Y-122118654D01*
X154178547Y-122013500D01*
X154151020Y-121928781D01*
X154151018Y-121928778D01*
X154151018Y-121928776D01*
X154110833Y-121849909D01*
X154058087Y-121746390D01*
X153980137Y-121639100D01*
X153943814Y-121589105D01*
X153932360Y-121557005D01*
X153920448Y-121525071D01*
X153920644Y-121524168D01*
X153920334Y-121523299D01*
X153928053Y-121490103D01*
X153935298Y-121456797D01*
X153936024Y-121455825D01*
X153936160Y-121455245D01*
X153956440Y-121428550D01*
X153972658Y-121412333D01*
X153972659Y-121412330D01*
X154408119Y-120976869D01*
X154469442Y-120943385D01*
X154539134Y-120948369D01*
X154595067Y-120990241D01*
X154619484Y-121055705D01*
X154619800Y-121064551D01*
X154619800Y-121925496D01*
X154619801Y-121925520D01*
X154627196Y-122011654D01*
X154627197Y-122011658D01*
X154627517Y-122013508D01*
X154627519Y-122013513D01*
X154634492Y-122035227D01*
X154639168Y-122090786D01*
X154619800Y-122225499D01*
X154619800Y-123655519D01*
X154626159Y-123735432D01*
X154626163Y-123735462D01*
X154626435Y-123737160D01*
X154626435Y-123737162D01*
X154635303Y-123766690D01*
X154639281Y-123820000D01*
X154619800Y-123955499D01*
X154619800Y-125075501D01*
X154622697Y-125129544D01*
X154622699Y-125129553D01*
X154658282Y-125268952D01*
X154658285Y-125268962D01*
X154659892Y-125272841D01*
X154659895Y-125272848D01*
X154711675Y-125367676D01*
X154809715Y-125472984D01*
X154933452Y-125546405D01*
X154937341Y-125548016D01*
X154937346Y-125548017D01*
X154937349Y-125548019D01*
X154937359Y-125548023D01*
X154988381Y-125566023D01*
X154988384Y-125566024D01*
X155130800Y-125586500D01*
X155618348Y-125586500D01*
X155685387Y-125606185D01*
X155706029Y-125622819D01*
X156711064Y-126627856D01*
X156711068Y-126627859D01*
X156813511Y-126696310D01*
X156813512Y-126696310D01*
X156813516Y-126696313D01*
X156880198Y-126723933D01*
X156927349Y-126743464D01*
X156947398Y-126747452D01*
X157012425Y-126760386D01*
X157048193Y-126767502D01*
X157048195Y-126767502D01*
X157177522Y-126767502D01*
X157177542Y-126767501D01*
X169575606Y-126767501D01*
X169636028Y-126755482D01*
X169696451Y-126743464D01*
X169729791Y-126729653D01*
X169810285Y-126696313D01*
X169861508Y-126662085D01*
X169912732Y-126627859D01*
X169999857Y-126540734D01*
X169999858Y-126540732D01*
X170006924Y-126533666D01*
X170006926Y-126533662D01*
X179420377Y-117120212D01*
X179481696Y-117086730D01*
X179551388Y-117091714D01*
X179607321Y-117133586D01*
X179625985Y-117169577D01*
X179681044Y-117339031D01*
X179773940Y-117521349D01*
X179894217Y-117686894D01*
X179894217Y-117686895D01*
X180038904Y-117831582D01*
X180204450Y-117951859D01*
X180297979Y-117999515D01*
X180348775Y-118047490D01*
X180365570Y-118115311D01*
X180343032Y-118181446D01*
X180297979Y-118220485D01*
X180204450Y-118268140D01*
X180038905Y-118388417D01*
X180038904Y-118388417D01*
X179894217Y-118533104D01*
X179894217Y-118533105D01*
X179773940Y-118698650D01*
X179681044Y-118880970D01*
X179617809Y-119075586D01*
X179609191Y-119130000D01*
X180570114Y-119130000D01*
X180565720Y-119134394D01*
X180513059Y-119225606D01*
X180485800Y-119327339D01*
X180485800Y-119432661D01*
X180513059Y-119534394D01*
X180565720Y-119625606D01*
X180570114Y-119630000D01*
X179609191Y-119630000D01*
X179617809Y-119684413D01*
X179681044Y-119879029D01*
X179773940Y-120061349D01*
X179894217Y-120226894D01*
X179894217Y-120226895D01*
X180038904Y-120371582D01*
X180204450Y-120491859D01*
X180386768Y-120584754D01*
X180581378Y-120647988D01*
X180635800Y-120656607D01*
X180635800Y-119695686D01*
X180640194Y-119700080D01*
X180731406Y-119752741D01*
X180833139Y-119780000D01*
X180938461Y-119780000D01*
X181040194Y-119752741D01*
X181131406Y-119700080D01*
X181135800Y-119695686D01*
X181135800Y-120656606D01*
X181190221Y-120647988D01*
X181384831Y-120584754D01*
X181567149Y-120491859D01*
X181732694Y-120371582D01*
X181732695Y-120371582D01*
X181877382Y-120226895D01*
X181877382Y-120226894D01*
X181997659Y-120061349D01*
X182090555Y-119879029D01*
X182153790Y-119684413D01*
X182162409Y-119630000D01*
X181201486Y-119630000D01*
X181205880Y-119625606D01*
X181258541Y-119534394D01*
X181285800Y-119432661D01*
X181285800Y-119327339D01*
X181258541Y-119225606D01*
X181205880Y-119134394D01*
X181201486Y-119130000D01*
X182162409Y-119130000D01*
X182153790Y-119075586D01*
X182090555Y-118880970D01*
X181997659Y-118698650D01*
X181877382Y-118533105D01*
X181877382Y-118533104D01*
X181732695Y-118388417D01*
X181567149Y-118268140D01*
X181473620Y-118220485D01*
X181422824Y-118172511D01*
X181406029Y-118104690D01*
X181428566Y-118038555D01*
X181473620Y-117999515D01*
X181567149Y-117951859D01*
X181732694Y-117831582D01*
X181732695Y-117831582D01*
X181877382Y-117686895D01*
X181877382Y-117686894D01*
X181997659Y-117521349D01*
X182090555Y-117339029D01*
X182153790Y-117144413D01*
X182162409Y-117090000D01*
X181201486Y-117090000D01*
X181205880Y-117085606D01*
X181258541Y-116994394D01*
X181285800Y-116892661D01*
X181285800Y-116787339D01*
X181258541Y-116685606D01*
X181205880Y-116594394D01*
X181201486Y-116590000D01*
X182162409Y-116590000D01*
X182153790Y-116535586D01*
X182096030Y-116357818D01*
X182094035Y-116287977D01*
X182130115Y-116228144D01*
X182192816Y-116197316D01*
X182193803Y-116197150D01*
X182203817Y-116195500D01*
X182217407Y-116195500D01*
X182280964Y-116182858D01*
X182338252Y-116171463D01*
X182371592Y-116157652D01*
X182452086Y-116124312D01*
X182507177Y-116087500D01*
X182554533Y-116055858D01*
X182641658Y-115968733D01*
X182641659Y-115968730D01*
X182648725Y-115961665D01*
X182648728Y-115961661D01*
X186993619Y-111616770D01*
X187054942Y-111583285D01*
X187124634Y-111588269D01*
X187180567Y-111630141D01*
X187204984Y-111695605D01*
X187205300Y-111704451D01*
X187205300Y-111862351D01*
X187237322Y-112064534D01*
X187300581Y-112259223D01*
X187358602Y-112373093D01*
X187390282Y-112435269D01*
X187393515Y-112441613D01*
X187513828Y-112607213D01*
X187658586Y-112751971D01*
X187795500Y-112851443D01*
X187824190Y-112872287D01*
X187915640Y-112918883D01*
X187916880Y-112919515D01*
X187967676Y-112967490D01*
X187984471Y-113035311D01*
X187961934Y-113101446D01*
X187916880Y-113140485D01*
X187824186Y-113187715D01*
X187658586Y-113308028D01*
X187513828Y-113452786D01*
X187393515Y-113618386D01*
X187300581Y-113800776D01*
X187237322Y-113995465D01*
X187205300Y-114197648D01*
X187205300Y-114402351D01*
X187237322Y-114604534D01*
X187300581Y-114799223D01*
X187331886Y-114860661D01*
X187374604Y-114944500D01*
X187393515Y-114981613D01*
X187513828Y-115147213D01*
X187658586Y-115291971D01*
X187797488Y-115392887D01*
X187824190Y-115412287D01*
X187915640Y-115458883D01*
X187916880Y-115459515D01*
X187967676Y-115507490D01*
X187984471Y-115575311D01*
X187961934Y-115641446D01*
X187916880Y-115680485D01*
X187824186Y-115727715D01*
X187658586Y-115848028D01*
X187513828Y-115992786D01*
X187393515Y-116158386D01*
X187300581Y-116340776D01*
X187237322Y-116535465D01*
X187210260Y-116706334D01*
X187205300Y-116737648D01*
X187205300Y-116942352D01*
X187206760Y-116951569D01*
X187237322Y-117144534D01*
X187300581Y-117339223D01*
X187334907Y-117406590D01*
X187390282Y-117515269D01*
X187393515Y-117521613D01*
X187513828Y-117687213D01*
X187658586Y-117831971D01*
X187761283Y-117906583D01*
X187824190Y-117952287D01*
X187896224Y-117988990D01*
X187917429Y-117999795D01*
X187968225Y-118047770D01*
X187985020Y-118115591D01*
X187962482Y-118181726D01*
X187917429Y-118220765D01*
X187824450Y-118268140D01*
X187658905Y-118388417D01*
X187658904Y-118388417D01*
X187514217Y-118533104D01*
X187514217Y-118533105D01*
X187393940Y-118698650D01*
X187301044Y-118880970D01*
X187237809Y-119075586D01*
X187229191Y-119130000D01*
X188190114Y-119130000D01*
X188185720Y-119134394D01*
X188133059Y-119225606D01*
X188105800Y-119327339D01*
X188105800Y-119432661D01*
X188133059Y-119534394D01*
X188185720Y-119625606D01*
X188190114Y-119630000D01*
X187229191Y-119630000D01*
X187237809Y-119684413D01*
X187301044Y-119879029D01*
X187393940Y-120061349D01*
X187514217Y-120226894D01*
X187514217Y-120226895D01*
X187658904Y-120371582D01*
X187824450Y-120491859D01*
X188006768Y-120584754D01*
X188201378Y-120647988D01*
X188255800Y-120656607D01*
X188255800Y-119695686D01*
X188260194Y-119700080D01*
X188351406Y-119752741D01*
X188453139Y-119780000D01*
X188558461Y-119780000D01*
X188660194Y-119752741D01*
X188751406Y-119700080D01*
X188755800Y-119695686D01*
X188755800Y-120656606D01*
X188810221Y-120647988D01*
X189004831Y-120584754D01*
X189187149Y-120491859D01*
X189352694Y-120371582D01*
X189352695Y-120371582D01*
X189497382Y-120226895D01*
X189497382Y-120226894D01*
X189617659Y-120061349D01*
X189710555Y-119879029D01*
X189773790Y-119684413D01*
X189782409Y-119630000D01*
X188821486Y-119630000D01*
X188825880Y-119625606D01*
X188878541Y-119534394D01*
X188905800Y-119432661D01*
X188905800Y-119327339D01*
X188878541Y-119225606D01*
X188825880Y-119134394D01*
X188821486Y-119130000D01*
X189782409Y-119130000D01*
X189773790Y-119075586D01*
X189710555Y-118880970D01*
X189617659Y-118698650D01*
X189497382Y-118533105D01*
X189497382Y-118533104D01*
X189352695Y-118388417D01*
X189187149Y-118268140D01*
X189094170Y-118220765D01*
X189043374Y-118172790D01*
X189026579Y-118104969D01*
X189049116Y-118038835D01*
X189094170Y-117999795D01*
X189094720Y-117999515D01*
X189187410Y-117952287D01*
X189250317Y-117906583D01*
X189353013Y-117831971D01*
X189353015Y-117831968D01*
X189353019Y-117831966D01*
X189497766Y-117687219D01*
X189497768Y-117687215D01*
X189497771Y-117687213D01*
X189594642Y-117553879D01*
X189618087Y-117521610D01*
X189711020Y-117339219D01*
X189774277Y-117144534D01*
X189806300Y-116942352D01*
X189806300Y-116737648D01*
X189795013Y-116666386D01*
X189774277Y-116535465D01*
X189735137Y-116415006D01*
X189711020Y-116340781D01*
X189711018Y-116340778D01*
X189711018Y-116340776D01*
X189673931Y-116267989D01*
X189618087Y-116158390D01*
X189593328Y-116124312D01*
X189497771Y-115992786D01*
X189353013Y-115848028D01*
X189187414Y-115727715D01*
X189150650Y-115708983D01*
X189094717Y-115680483D01*
X189043923Y-115632511D01*
X189027128Y-115564690D01*
X189049665Y-115498555D01*
X189094717Y-115459516D01*
X189187410Y-115412287D01*
X189214112Y-115392887D01*
X189353013Y-115291971D01*
X189353015Y-115291968D01*
X189353019Y-115291966D01*
X189497766Y-115147219D01*
X189497768Y-115147215D01*
X189497771Y-115147213D01*
X189565779Y-115053606D01*
X189618087Y-114981610D01*
X189711020Y-114799219D01*
X189774277Y-114604534D01*
X189806300Y-114402352D01*
X189806300Y-114197648D01*
X189788840Y-114087409D01*
X189774277Y-113995465D01*
X189722461Y-113835994D01*
X189711020Y-113800781D01*
X189711018Y-113800778D01*
X189711018Y-113800776D01*
X189650417Y-113681841D01*
X189618087Y-113618390D01*
X189570646Y-113553092D01*
X189497771Y-113452786D01*
X189353013Y-113308028D01*
X189187414Y-113187715D01*
X189180806Y-113184348D01*
X189094717Y-113140483D01*
X189043923Y-113092511D01*
X189027128Y-113024690D01*
X189049665Y-112958555D01*
X189094717Y-112919516D01*
X189187410Y-112872287D01*
X189231328Y-112840379D01*
X189353013Y-112751971D01*
X189353015Y-112751968D01*
X189353019Y-112751966D01*
X189497766Y-112607219D01*
X189497768Y-112607215D01*
X189497771Y-112607213D01*
X189562814Y-112517687D01*
X189618087Y-112441610D01*
X189711020Y-112259219D01*
X189774277Y-112064534D01*
X189806300Y-111862352D01*
X189806300Y-111657648D01*
X189798148Y-111606181D01*
X189774277Y-111455465D01*
X189711018Y-111260776D01*
X189657486Y-111155715D01*
X189618087Y-111078390D01*
X189605097Y-111060511D01*
X189497771Y-110912786D01*
X189353013Y-110768028D01*
X189187414Y-110647715D01*
X189147341Y-110627297D01*
X189094717Y-110600483D01*
X189043923Y-110552511D01*
X189027128Y-110484690D01*
X189049665Y-110418555D01*
X189094717Y-110379516D01*
X189187410Y-110332287D01*
X189280844Y-110264404D01*
X189353013Y-110211971D01*
X189353015Y-110211968D01*
X189353019Y-110211966D01*
X189497766Y-110067219D01*
X189497768Y-110067215D01*
X189497771Y-110067213D01*
X189597427Y-109930046D01*
X189618087Y-109901610D01*
X189711020Y-109719219D01*
X189774277Y-109524534D01*
X189806300Y-109322352D01*
X189806300Y-109117648D01*
X189774277Y-108915466D01*
X189763007Y-108880782D01*
X189719051Y-108745498D01*
X189711020Y-108720781D01*
X189711018Y-108720778D01*
X189711018Y-108720776D01*
X189677010Y-108654032D01*
X189618087Y-108538390D01*
X189607189Y-108523390D01*
X189497771Y-108372786D01*
X189353013Y-108228028D01*
X189187414Y-108107715D01*
X189147341Y-108087297D01*
X189094717Y-108060483D01*
X189043923Y-108012511D01*
X189027128Y-107944690D01*
X189049665Y-107878555D01*
X189094717Y-107839516D01*
X189187410Y-107792287D01*
X189282314Y-107723336D01*
X189353013Y-107671971D01*
X189353015Y-107671968D01*
X189353019Y-107671966D01*
X189497766Y-107527219D01*
X189497768Y-107527215D01*
X189497771Y-107527213D01*
X189550532Y-107454590D01*
X189618087Y-107361610D01*
X189711020Y-107179219D01*
X189774277Y-106984534D01*
X189806300Y-106782352D01*
X189806300Y-106577648D01*
X189795013Y-106506386D01*
X189774277Y-106375465D01*
X189711018Y-106180776D01*
X189657485Y-106075713D01*
X189618087Y-105998390D01*
X189609071Y-105985981D01*
X189497771Y-105832786D01*
X189353013Y-105688028D01*
X189187414Y-105567715D01*
X189141726Y-105544436D01*
X189094717Y-105520483D01*
X189043923Y-105472511D01*
X189027128Y-105404690D01*
X189049665Y-105338555D01*
X189094717Y-105299516D01*
X189187410Y-105252287D01*
X189228841Y-105222186D01*
X189353013Y-105131971D01*
X189353015Y-105131968D01*
X189353019Y-105131966D01*
X189497766Y-104987219D01*
X189497768Y-104987215D01*
X189497771Y-104987213D01*
X189581737Y-104871642D01*
X189618087Y-104821610D01*
X189711020Y-104639219D01*
X189774277Y-104444534D01*
X189806300Y-104242352D01*
X189806300Y-104037648D01*
X189774277Y-103835466D01*
X189764185Y-103804407D01*
X189715974Y-103656028D01*
X189711020Y-103640781D01*
X189711018Y-103640778D01*
X189711018Y-103640776D01*
X189677303Y-103574607D01*
X189618087Y-103458390D01*
X189576657Y-103401366D01*
X189497771Y-103292786D01*
X189353013Y-103148028D01*
X189187414Y-103027715D01*
X189164516Y-103016048D01*
X189094717Y-102980483D01*
X189043923Y-102932511D01*
X189027128Y-102864690D01*
X189049665Y-102798555D01*
X189094717Y-102759516D01*
X189187410Y-102712287D01*
X189208570Y-102696913D01*
X189353013Y-102591971D01*
X189353015Y-102591968D01*
X189353019Y-102591966D01*
X189497766Y-102447219D01*
X189497768Y-102447215D01*
X189497771Y-102447213D01*
X189600987Y-102305146D01*
X189618087Y-102281610D01*
X189711020Y-102099219D01*
X189774277Y-101904534D01*
X189806300Y-101702352D01*
X189806300Y-101497648D01*
X189777587Y-101316362D01*
X189774277Y-101295465D01*
X189734618Y-101173408D01*
X189711020Y-101100781D01*
X189711018Y-101100778D01*
X189711018Y-101100776D01*
X189653111Y-100987129D01*
X189618087Y-100918390D01*
X189573537Y-100857071D01*
X189497771Y-100752786D01*
X189353013Y-100608028D01*
X189187414Y-100487715D01*
X189180806Y-100484348D01*
X189094717Y-100440483D01*
X189043923Y-100392511D01*
X189027128Y-100324690D01*
X189049665Y-100258555D01*
X189094717Y-100219516D01*
X189187410Y-100172287D01*
X189261822Y-100118224D01*
X189353013Y-100051971D01*
X189353015Y-100051968D01*
X189353019Y-100051966D01*
X189497766Y-99907219D01*
X189497768Y-99907215D01*
X189497771Y-99907213D01*
X189580279Y-99793648D01*
X189618087Y-99741610D01*
X189711020Y-99559219D01*
X189774277Y-99364534D01*
X189806300Y-99162352D01*
X189806300Y-98957648D01*
X189780863Y-98797050D01*
X189774277Y-98755465D01*
X189725556Y-98605518D01*
X189711020Y-98560781D01*
X189711018Y-98560778D01*
X189711018Y-98560776D01*
X189665433Y-98471312D01*
X189618087Y-98378390D01*
X189581840Y-98328500D01*
X189497771Y-98212786D01*
X189353013Y-98068028D01*
X189187414Y-97947715D01*
X189180806Y-97944348D01*
X189094717Y-97900483D01*
X189043923Y-97852511D01*
X189027128Y-97784690D01*
X189049665Y-97718555D01*
X189094717Y-97679516D01*
X189187410Y-97632287D01*
X189222408Y-97606860D01*
X189353013Y-97511971D01*
X189353015Y-97511968D01*
X189353019Y-97511966D01*
X189497766Y-97367219D01*
X189497768Y-97367215D01*
X189497771Y-97367213D01*
X189569128Y-97268997D01*
X189618087Y-97201610D01*
X189711020Y-97019219D01*
X189774277Y-96824534D01*
X189806300Y-96622352D01*
X189806300Y-96417648D01*
X189774277Y-96215466D01*
X189757963Y-96165258D01*
X189734666Y-96093556D01*
X189711020Y-96020781D01*
X189711018Y-96020778D01*
X189711018Y-96020776D01*
X189657485Y-95915713D01*
X189618087Y-95838390D01*
X189600301Y-95813909D01*
X189497771Y-95672786D01*
X189353013Y-95528028D01*
X189187413Y-95407715D01*
X189187412Y-95407714D01*
X189187410Y-95407713D01*
X189130453Y-95378691D01*
X189005023Y-95314781D01*
X188810334Y-95251522D01*
X188635795Y-95223878D01*
X188608152Y-95219500D01*
X188403448Y-95219500D01*
X188379129Y-95223351D01*
X188201265Y-95251522D01*
X188006576Y-95314781D01*
X187824186Y-95407715D01*
X187658586Y-95528028D01*
X187513828Y-95672786D01*
X187393515Y-95838386D01*
X187300581Y-96020776D01*
X187237322Y-96215465D01*
X187216586Y-96346390D01*
X187205300Y-96417648D01*
X187205300Y-96622352D01*
X187205963Y-96626538D01*
X187237322Y-96824534D01*
X187300581Y-97019223D01*
X187348418Y-97113107D01*
X187387194Y-97189209D01*
X187393515Y-97201613D01*
X187513828Y-97367213D01*
X187658586Y-97511971D01*
X187789192Y-97606860D01*
X187824190Y-97632287D01*
X187915640Y-97678883D01*
X187916880Y-97679515D01*
X187967676Y-97727490D01*
X187984471Y-97795311D01*
X187961934Y-97861446D01*
X187916880Y-97900485D01*
X187824186Y-97947715D01*
X187658586Y-98068028D01*
X187513828Y-98212786D01*
X187393515Y-98378386D01*
X187300581Y-98560776D01*
X187237322Y-98755465D01*
X187205300Y-98957648D01*
X187205300Y-99162351D01*
X187237322Y-99364534D01*
X187300581Y-99559223D01*
X187393515Y-99741613D01*
X187513828Y-99907213D01*
X187658586Y-100051971D01*
X187811790Y-100163278D01*
X187824190Y-100172287D01*
X187915640Y-100218883D01*
X187916880Y-100219515D01*
X187967676Y-100267490D01*
X187984471Y-100335311D01*
X187961934Y-100401446D01*
X187916880Y-100440485D01*
X187824186Y-100487715D01*
X187658586Y-100608028D01*
X187513828Y-100752786D01*
X187393515Y-100918386D01*
X187300581Y-101100776D01*
X187237322Y-101295465D01*
X187205300Y-101497648D01*
X187205300Y-101702351D01*
X187237322Y-101904534D01*
X187300581Y-102099223D01*
X187321536Y-102140348D01*
X187389027Y-102272806D01*
X187393515Y-102281613D01*
X187513828Y-102447213D01*
X187658586Y-102591971D01*
X187813549Y-102704556D01*
X187824190Y-102712287D01*
X187915640Y-102758883D01*
X187916880Y-102759515D01*
X187967676Y-102807490D01*
X187984471Y-102875311D01*
X187961934Y-102941446D01*
X187916880Y-102980485D01*
X187824186Y-103027715D01*
X187658586Y-103148028D01*
X187513828Y-103292786D01*
X187393515Y-103458386D01*
X187300581Y-103640776D01*
X187237322Y-103835465D01*
X187205300Y-104037648D01*
X187205300Y-104242351D01*
X187237322Y-104444534D01*
X187300581Y-104639223D01*
X187393515Y-104821613D01*
X187513828Y-104987213D01*
X187658586Y-105131971D01*
X187782759Y-105222186D01*
X187824190Y-105252287D01*
X187907889Y-105294934D01*
X187916880Y-105299515D01*
X187967676Y-105347490D01*
X187984471Y-105415311D01*
X187961934Y-105481446D01*
X187916880Y-105520485D01*
X187824186Y-105567715D01*
X187658586Y-105688028D01*
X187513828Y-105832786D01*
X187393515Y-105998386D01*
X187300581Y-106180776D01*
X187237322Y-106375465D01*
X187216587Y-106506386D01*
X187205300Y-106577648D01*
X187205300Y-106782352D01*
X187221314Y-106883461D01*
X187238085Y-106989346D01*
X187236052Y-106989667D01*
X187232965Y-107050834D01*
X187203581Y-107097627D01*
X184897981Y-109403228D01*
X184836658Y-109436713D01*
X184766966Y-109431729D01*
X184711033Y-109389857D01*
X184686616Y-109324393D01*
X184686300Y-109315547D01*
X184686300Y-98236393D01*
X184686299Y-98236389D01*
X184676578Y-98187515D01*
X184662263Y-98115548D01*
X184615111Y-98001714D01*
X184615110Y-98001713D01*
X184615107Y-98001707D01*
X184546659Y-97899268D01*
X184508837Y-97861446D01*
X184459533Y-97812142D01*
X184459532Y-97812141D01*
X184165659Y-97518269D01*
X184165658Y-97518267D01*
X184078533Y-97431142D01*
X184027309Y-97396915D01*
X183976086Y-97362688D01*
X183976083Y-97362686D01*
X183976080Y-97362685D01*
X183902403Y-97332168D01*
X183902401Y-97332167D01*
X183895592Y-97329347D01*
X183862252Y-97315537D01*
X183801829Y-97303518D01*
X183797106Y-97302578D01*
X183797104Y-97302578D01*
X183741410Y-97291500D01*
X183741407Y-97291500D01*
X183741406Y-97291500D01*
X182310300Y-97291500D01*
X182243261Y-97271815D01*
X182197506Y-97219011D01*
X182186300Y-97167500D01*
X182186299Y-95672129D01*
X182186298Y-95672123D01*
X182186297Y-95672116D01*
X182179891Y-95612517D01*
X182176397Y-95603150D01*
X182129597Y-95477671D01*
X182129593Y-95477664D01*
X182043347Y-95362455D01*
X182043344Y-95362452D01*
X181928135Y-95276206D01*
X181928128Y-95276202D01*
X181793282Y-95225908D01*
X181793283Y-95225908D01*
X181733683Y-95219501D01*
X181733681Y-95219500D01*
X181733673Y-95219500D01*
X181733664Y-95219500D01*
X180037929Y-95219500D01*
X180037923Y-95219501D01*
X179978316Y-95225908D01*
X179843471Y-95276202D01*
X179843464Y-95276206D01*
X179728255Y-95362452D01*
X179728252Y-95362455D01*
X179642006Y-95477664D01*
X179642002Y-95477671D01*
X179591708Y-95612517D01*
X179587605Y-95650684D01*
X179585301Y-95672123D01*
X179585300Y-95672135D01*
X179585300Y-96994348D01*
X179565615Y-97061387D01*
X179512811Y-97107142D01*
X179443653Y-97117086D01*
X179380097Y-97088061D01*
X179373619Y-97082029D01*
X171562281Y-89270691D01*
X171554860Y-89263270D01*
X171554858Y-89263267D01*
X171467733Y-89176142D01*
X171412281Y-89139090D01*
X171405770Y-89134739D01*
X171405765Y-89134735D01*
X171365290Y-89107690D01*
X171365286Y-89107688D01*
X171291825Y-89077260D01*
X171291824Y-89077259D01*
X171284792Y-89074347D01*
X171251452Y-89060537D01*
X171184727Y-89047265D01*
X171180247Y-89046373D01*
X171180233Y-89046370D01*
X171130611Y-89036500D01*
X171130607Y-89036500D01*
X171130606Y-89036500D01*
X149281452Y-89036500D01*
X149214413Y-89016815D01*
X149193771Y-89000181D01*
X148670771Y-88477181D01*
X148637286Y-88415858D01*
X148642270Y-88346166D01*
X148684142Y-88290233D01*
X148749606Y-88265816D01*
X148758452Y-88265500D01*
X190248500Y-88265500D01*
X190315539Y-88285185D01*
G37*
%TD.AperFunction*%
%TA.AperFunction,Conductor*%
G36*
X160964834Y-116951569D02*
G01*
X161020767Y-116993441D01*
X161045184Y-117058905D01*
X161045500Y-117067751D01*
X161045500Y-120391000D01*
X161025815Y-120458039D01*
X160973011Y-120503794D01*
X160921500Y-120515000D01*
X160150798Y-120515000D01*
X160096808Y-120517894D01*
X160096799Y-120517896D01*
X159957538Y-120553444D01*
X159957535Y-120553445D01*
X159953638Y-120555059D01*
X159948963Y-120557610D01*
X159948963Y-120557611D01*
X160714895Y-121323543D01*
X160748380Y-121384866D01*
X160743396Y-121454558D01*
X160714895Y-121498905D01*
X160625800Y-121588000D01*
X160684031Y-121646231D01*
X160690557Y-121658182D01*
X160700829Y-121667127D01*
X160706975Y-121688250D01*
X160717516Y-121707554D01*
X160716544Y-121721136D01*
X160720350Y-121734214D01*
X160714101Y-121755305D01*
X160712532Y-121777246D01*
X160704370Y-121788147D01*
X160700502Y-121801206D01*
X160683841Y-121815571D01*
X160670660Y-121833179D01*
X160657901Y-121837937D01*
X160647586Y-121846832D01*
X160625804Y-121849909D01*
X160605196Y-121857596D01*
X160590410Y-121854909D01*
X160578404Y-121856606D01*
X160546317Y-121846898D01*
X160544564Y-121846580D01*
X160543852Y-121846253D01*
X160369552Y-121763690D01*
X160348295Y-121756368D01*
X160342697Y-121753795D01*
X160320803Y-121734731D01*
X160297125Y-121717922D01*
X160294768Y-121712060D01*
X160290004Y-121707912D01*
X160281890Y-121680029D01*
X160271062Y-121653095D01*
X160272248Y-121646891D01*
X160270483Y-121640825D01*
X160272248Y-121634867D01*
X160272248Y-121588000D01*
X159649029Y-120964781D01*
X159640300Y-121025497D01*
X159640300Y-121925499D01*
X159647691Y-122011585D01*
X159648009Y-122013424D01*
X159648009Y-122013425D01*
X159654651Y-122034105D01*
X159659329Y-122089668D01*
X159639800Y-122225499D01*
X159639800Y-123655521D01*
X159641726Y-123679717D01*
X159627421Y-123748107D01*
X159578412Y-123797906D01*
X159517583Y-123811648D01*
X159517583Y-123813500D01*
X159334104Y-123813500D01*
X159243441Y-123831534D01*
X159173849Y-123825307D01*
X159118672Y-123782443D01*
X159095428Y-123716554D01*
X159096512Y-123692274D01*
X159101800Y-123655500D01*
X159101800Y-122225500D01*
X159089500Y-122114666D01*
X159088971Y-122112312D01*
X159085587Y-122098629D01*
X159083224Y-122051216D01*
X159101299Y-121925498D01*
X159101300Y-121925497D01*
X159101300Y-121025497D01*
X159098405Y-120971501D01*
X159095851Y-120961500D01*
X159095850Y-120961499D01*
X158469352Y-121587999D01*
X158469352Y-121639363D01*
X158466919Y-121639363D01*
X158466462Y-121645733D01*
X158466470Y-121676403D01*
X158463993Y-121680257D01*
X158463667Y-121684830D01*
X158445285Y-121709383D01*
X158428710Y-121735190D01*
X158424015Y-121737797D01*
X158421795Y-121740763D01*
X158399023Y-121754278D01*
X158391730Y-121757610D01*
X158372048Y-121763690D01*
X158197620Y-121846312D01*
X158196787Y-121846694D01*
X158163017Y-121851557D01*
X158129318Y-121856884D01*
X158128508Y-121856527D01*
X158127631Y-121856654D01*
X158096583Y-121842483D01*
X158065363Y-121828750D01*
X158064873Y-121828011D01*
X158064068Y-121827644D01*
X158045614Y-121798944D01*
X158026771Y-121770505D01*
X158026758Y-121769619D01*
X158026280Y-121768875D01*
X158026272Y-121734762D01*
X158025796Y-121700642D01*
X158026264Y-121699840D01*
X158026264Y-121699005D01*
X158031629Y-121690651D01*
X158057568Y-121646230D01*
X158115799Y-121587999D01*
X158026704Y-121498904D01*
X157993219Y-121437581D01*
X157998203Y-121367889D01*
X158026704Y-121323542D01*
X158792496Y-120557749D01*
X158787959Y-120555058D01*
X158787955Y-120555056D01*
X158784068Y-120553446D01*
X158784041Y-120553436D01*
X158733076Y-120535456D01*
X158590798Y-120515000D01*
X157721500Y-120515000D01*
X157712814Y-120512449D01*
X157703853Y-120513738D01*
X157679812Y-120502759D01*
X157654461Y-120495315D01*
X157648533Y-120488474D01*
X157640297Y-120484713D01*
X157626007Y-120462478D01*
X157608706Y-120442511D01*
X157606418Y-120431996D01*
X157602523Y-120425935D01*
X157597500Y-120391000D01*
X157597500Y-120267751D01*
X157617185Y-120200712D01*
X157633814Y-120180075D01*
X160833819Y-116980069D01*
X160895142Y-116946585D01*
X160964834Y-116951569D01*
G37*
%TD.AperFunction*%
%TA.AperFunction,Conductor*%
G36*
X179624678Y-113675185D02*
G01*
X179670433Y-113727989D01*
X179680377Y-113797147D01*
X179675570Y-113817818D01*
X179617809Y-113995586D01*
X179609191Y-114050000D01*
X180570114Y-114050000D01*
X180565720Y-114054394D01*
X180513059Y-114145606D01*
X180485800Y-114247339D01*
X180485800Y-114352661D01*
X180513059Y-114454394D01*
X180565720Y-114545606D01*
X180570114Y-114550000D01*
X179609191Y-114550000D01*
X179617809Y-114604413D01*
X179681045Y-114799032D01*
X179740974Y-114916651D01*
X179753870Y-114985320D01*
X179727593Y-115050060D01*
X179715294Y-115063412D01*
X179707854Y-115070385D01*
X179687267Y-115084142D01*
X179600142Y-115171267D01*
X179600139Y-115171270D01*
X179598719Y-115172689D01*
X179598704Y-115172704D01*
X171562982Y-123208427D01*
X171501659Y-123241912D01*
X171431967Y-123236928D01*
X171376034Y-123195056D01*
X171351617Y-123129592D01*
X171351301Y-123120746D01*
X171351301Y-122996283D01*
X171351300Y-122996257D01*
X171351300Y-121468452D01*
X171370985Y-121401413D01*
X171387619Y-121380771D01*
X179076571Y-113691819D01*
X179137894Y-113658334D01*
X179164252Y-113655500D01*
X179557639Y-113655500D01*
X179624678Y-113675185D01*
G37*
%TD.AperFunction*%
%TA.AperFunction,Conductor*%
G36*
X162951204Y-104301840D02*
G01*
X162957682Y-104307872D01*
X165327181Y-106677371D01*
X165360666Y-106738694D01*
X165363500Y-106765052D01*
X165363500Y-120391000D01*
X165343815Y-120458039D01*
X165291011Y-120503794D01*
X165239500Y-120515000D01*
X164497998Y-120515000D01*
X164444008Y-120517894D01*
X164444005Y-120517895D01*
X164310717Y-120551917D01*
X164371633Y-120612832D01*
X164395989Y-120657437D01*
X165062095Y-121323543D01*
X165095580Y-121384866D01*
X165090596Y-121454558D01*
X165062095Y-121498905D01*
X164883905Y-121677095D01*
X164822582Y-121710580D01*
X164752890Y-121705596D01*
X164708543Y-121677095D01*
X164054400Y-121022952D01*
X163400257Y-121677095D01*
X163338934Y-121710580D01*
X163269242Y-121705596D01*
X163224895Y-121677095D01*
X163046705Y-121498905D01*
X163013220Y-121437582D01*
X163018204Y-121367890D01*
X163046705Y-121323543D01*
X163713782Y-120656465D01*
X163720533Y-120633475D01*
X163737166Y-120612833D01*
X163798512Y-120551485D01*
X163753073Y-120535455D01*
X163610798Y-120515000D01*
X162870001Y-120515000D01*
X162802962Y-120495315D01*
X162757207Y-120442511D01*
X162746001Y-120391000D01*
X162746001Y-104395553D01*
X162765686Y-104328514D01*
X162818490Y-104282759D01*
X162887648Y-104272815D01*
X162951204Y-104301840D01*
G37*
%TD.AperFunction*%
%TA.AperFunction,Conductor*%
G36*
X181135800Y-119064314D02*
G01*
X181131406Y-119059920D01*
X181040194Y-119007259D01*
X180938461Y-118980000D01*
X180833139Y-118980000D01*
X180731406Y-119007259D01*
X180640194Y-119059920D01*
X180635800Y-119064314D01*
X180635800Y-117155686D01*
X180640194Y-117160080D01*
X180731406Y-117212741D01*
X180833139Y-117240000D01*
X180938461Y-117240000D01*
X181040194Y-117212741D01*
X181131406Y-117160080D01*
X181135800Y-117155686D01*
X181135800Y-119064314D01*
G37*
%TD.AperFunction*%
%TA.AperFunction,Conductor*%
G36*
X181078839Y-116215185D02*
G01*
X181124594Y-116267989D01*
X181135800Y-116319500D01*
X181135800Y-116524314D01*
X181131406Y-116519920D01*
X181040194Y-116467259D01*
X180938461Y-116440000D01*
X180833139Y-116440000D01*
X180731406Y-116467259D01*
X180640194Y-116519920D01*
X180635800Y-116524314D01*
X180635800Y-116319500D01*
X180655485Y-116252461D01*
X180708289Y-116206706D01*
X180759800Y-116195500D01*
X181011800Y-116195500D01*
X181078839Y-116215185D01*
G37*
%TD.AperFunction*%
%TA.AperFunction,Conductor*%
G36*
X181135800Y-114820500D02*
G01*
X181116115Y-114887539D01*
X181063311Y-114933294D01*
X181011800Y-114944500D01*
X180759800Y-114944500D01*
X180692761Y-114924815D01*
X180647006Y-114872011D01*
X180635800Y-114820500D01*
X180635800Y-114615686D01*
X180640194Y-114620080D01*
X180731406Y-114672741D01*
X180833139Y-114700000D01*
X180938461Y-114700000D01*
X181040194Y-114672741D01*
X181131406Y-114620080D01*
X181135800Y-114615686D01*
X181135800Y-114820500D01*
G37*
%TD.AperFunction*%
%TA.AperFunction,Conductor*%
G36*
X187124634Y-109048269D02*
G01*
X187180567Y-109090141D01*
X187204984Y-109155605D01*
X187205300Y-109164451D01*
X187205300Y-109322351D01*
X187238085Y-109529346D01*
X187236052Y-109529667D01*
X187232965Y-109590834D01*
X187203581Y-109637627D01*
X182316593Y-114524615D01*
X182255270Y-114558100D01*
X182185578Y-114553116D01*
X182181124Y-114550000D01*
X181201486Y-114550000D01*
X181205880Y-114545606D01*
X181258541Y-114454394D01*
X181285800Y-114352661D01*
X181285800Y-114247339D01*
X181258541Y-114145606D01*
X181205880Y-114054394D01*
X181201486Y-114050000D01*
X182162409Y-114050000D01*
X182153790Y-113995586D01*
X182096030Y-113817818D01*
X182094035Y-113747977D01*
X182130115Y-113688144D01*
X182192685Y-113657339D01*
X182203244Y-113655500D01*
X182217407Y-113655500D01*
X182315608Y-113635967D01*
X182338252Y-113631463D01*
X182391157Y-113609549D01*
X182452086Y-113584312D01*
X182503309Y-113550084D01*
X182503515Y-113549947D01*
X182521394Y-113538000D01*
X182554533Y-113515858D01*
X182641658Y-113428733D01*
X182641659Y-113428731D01*
X182648725Y-113421665D01*
X182648728Y-113421661D01*
X186993619Y-109076770D01*
X187054942Y-109043285D01*
X187124634Y-109048269D01*
G37*
%TD.AperFunction*%
%TA.AperFunction,Conductor*%
G36*
X134566234Y-104360771D02*
G01*
X134622167Y-104402643D01*
X134646584Y-104468107D01*
X134646900Y-104476953D01*
X134646900Y-111166211D01*
X134649159Y-111177569D01*
X134649165Y-111177594D01*
X134649653Y-111180047D01*
X134670937Y-111287052D01*
X134678366Y-111304987D01*
X134682070Y-111313930D01*
X134682072Y-111313937D01*
X134718085Y-111400881D01*
X134718087Y-111400885D01*
X134751040Y-111450200D01*
X134751041Y-111450202D01*
X134786543Y-111503335D01*
X134877986Y-111594778D01*
X134878008Y-111594798D01*
X135133581Y-111850371D01*
X135167066Y-111911694D01*
X135166585Y-111958416D01*
X135168085Y-111958654D01*
X135135300Y-112165648D01*
X135135300Y-112370351D01*
X135167322Y-112572534D01*
X135230581Y-112767223D01*
X135284113Y-112872284D01*
X135312681Y-112928352D01*
X135323515Y-112949613D01*
X135443828Y-113115213D01*
X135588586Y-113259971D01*
X135743549Y-113372556D01*
X135754190Y-113380287D01*
X135835383Y-113421657D01*
X135846880Y-113427515D01*
X135897676Y-113475490D01*
X135914471Y-113543311D01*
X135891934Y-113609446D01*
X135846880Y-113648485D01*
X135754186Y-113695715D01*
X135588586Y-113816028D01*
X135443828Y-113960786D01*
X135323515Y-114126386D01*
X135272483Y-114226541D01*
X135224508Y-114277337D01*
X135156687Y-114294132D01*
X135090552Y-114271594D01*
X135074317Y-114257927D01*
X134546784Y-113730394D01*
X133930919Y-113114528D01*
X133897434Y-113053205D01*
X133894600Y-113026847D01*
X133894600Y-109122161D01*
X133914285Y-109055122D01*
X133930920Y-109034479D01*
X133968561Y-108996838D01*
X133968564Y-108996835D01*
X134067113Y-108849347D01*
X134134994Y-108685466D01*
X134135879Y-108681021D01*
X134159652Y-108561505D01*
X134169600Y-108511491D01*
X134169600Y-108334109D01*
X134169600Y-108334106D01*
X134169599Y-108334104D01*
X134134996Y-108160141D01*
X134134993Y-108160132D01*
X134067116Y-107996259D01*
X134067109Y-107996246D01*
X133968564Y-107848765D01*
X133968561Y-107848761D01*
X133843138Y-107723338D01*
X133843134Y-107723335D01*
X133695653Y-107624790D01*
X133695640Y-107624783D01*
X133531767Y-107556906D01*
X133531758Y-107556903D01*
X133357794Y-107522300D01*
X133357791Y-107522300D01*
X133180409Y-107522300D01*
X133180406Y-107522300D01*
X133006441Y-107556903D01*
X133006432Y-107556906D01*
X132842559Y-107624783D01*
X132842546Y-107624790D01*
X132695065Y-107723335D01*
X132695061Y-107723338D01*
X132661281Y-107757119D01*
X132599958Y-107790604D01*
X132530266Y-107785620D01*
X132474333Y-107743748D01*
X132449916Y-107678284D01*
X132449600Y-107669438D01*
X132449600Y-106037343D01*
X132469285Y-105970304D01*
X132485919Y-105949662D01*
X133710265Y-104725317D01*
X133771588Y-104691832D01*
X133797946Y-104688998D01*
X133851186Y-104688998D01*
X133851187Y-104688997D01*
X133909175Y-104677462D01*
X134025151Y-104654394D01*
X134025154Y-104654392D01*
X134025159Y-104654392D01*
X134189040Y-104586511D01*
X134336528Y-104487962D01*
X134379956Y-104444534D01*
X134435219Y-104389272D01*
X134496542Y-104355787D01*
X134566234Y-104360771D01*
G37*
%TD.AperFunction*%
%TA.AperFunction,Conductor*%
G36*
X121465762Y-88655040D02*
G01*
X121521696Y-88696911D01*
X121545004Y-88752475D01*
X121545696Y-88757002D01*
X121581244Y-88896261D01*
X121581247Y-88896271D01*
X121582854Y-88900150D01*
X121582859Y-88900161D01*
X121634585Y-88994890D01*
X121732529Y-89100094D01*
X121856141Y-89173442D01*
X121856146Y-89173444D01*
X121860021Y-89175049D01*
X121860058Y-89175063D01*
X121911023Y-89193043D01*
X122053301Y-89213499D01*
X122053303Y-89213500D01*
X123173298Y-89213500D01*
X123290372Y-89199742D01*
X123292854Y-89199151D01*
X123295241Y-89198512D01*
X123344975Y-89195550D01*
X123473300Y-89214000D01*
X124766300Y-89214000D01*
X124833339Y-89233685D01*
X124879094Y-89286489D01*
X124890300Y-89338000D01*
X124890300Y-89628000D01*
X124870615Y-89695039D01*
X124817811Y-89740794D01*
X124766300Y-89752000D01*
X123473280Y-89752000D01*
X123393367Y-89758359D01*
X123393346Y-89758362D01*
X123391648Y-89758634D01*
X123391641Y-89758635D01*
X123391639Y-89758636D01*
X123391636Y-89758637D01*
X123360976Y-89767843D01*
X123307671Y-89771819D01*
X123173300Y-89752500D01*
X122053298Y-89752500D01*
X121999308Y-89755394D01*
X121999299Y-89755396D01*
X121860038Y-89790944D01*
X121860028Y-89790947D01*
X121856149Y-89792554D01*
X121856138Y-89792559D01*
X121761409Y-89844285D01*
X121656205Y-89942229D01*
X121582857Y-90065841D01*
X121582855Y-90065846D01*
X121581250Y-90069721D01*
X121581236Y-90069758D01*
X121563256Y-90120723D01*
X121542800Y-90263001D01*
X121542800Y-91213001D01*
X121545694Y-91266991D01*
X121545696Y-91267000D01*
X121581244Y-91406261D01*
X121581247Y-91406271D01*
X121582854Y-91410150D01*
X121582859Y-91410161D01*
X121634585Y-91504890D01*
X121732529Y-91610094D01*
X121856141Y-91683442D01*
X121856146Y-91683444D01*
X121860021Y-91685049D01*
X121860058Y-91685063D01*
X121911023Y-91703043D01*
X122053301Y-91723499D01*
X122053303Y-91723500D01*
X123173298Y-91723500D01*
X123290376Y-91709742D01*
X123293944Y-91709110D01*
X123294238Y-91710773D01*
X123357274Y-91714001D01*
X123414043Y-91754732D01*
X123439780Y-91819689D01*
X123440300Y-91831036D01*
X123440300Y-91882610D01*
X123464335Y-92003443D01*
X123464337Y-92003452D01*
X123478791Y-92038347D01*
X123481676Y-92065196D01*
X123488101Y-92091426D01*
X123485670Y-92102346D01*
X123486258Y-92107817D01*
X123481498Y-92126097D01*
X123480247Y-92129736D01*
X123464337Y-92168149D01*
X123460612Y-92186874D01*
X123457894Y-92194784D01*
X123442331Y-92216741D01*
X123429855Y-92240590D01*
X123422058Y-92245342D01*
X123417491Y-92251787D01*
X123399785Y-92258920D01*
X123376282Y-92273247D01*
X123373107Y-92274201D01*
X123360974Y-92277844D01*
X123307671Y-92281819D01*
X123173300Y-92262500D01*
X122053298Y-92262500D01*
X121999308Y-92265394D01*
X121999299Y-92265396D01*
X121860038Y-92300944D01*
X121860028Y-92300947D01*
X121856149Y-92302554D01*
X121856138Y-92302559D01*
X121761409Y-92354285D01*
X121656205Y-92452229D01*
X121582857Y-92575841D01*
X121582855Y-92575846D01*
X121581250Y-92579721D01*
X121581236Y-92579758D01*
X121563256Y-92630723D01*
X121542800Y-92773001D01*
X121542800Y-93723001D01*
X121545694Y-93776991D01*
X121545696Y-93777000D01*
X121581244Y-93916261D01*
X121581247Y-93916271D01*
X121582854Y-93920150D01*
X121582859Y-93920161D01*
X121634585Y-94014890D01*
X121732529Y-94120094D01*
X121856141Y-94193442D01*
X121856146Y-94193444D01*
X121860021Y-94195049D01*
X121860058Y-94195063D01*
X121911023Y-94213043D01*
X122053301Y-94233499D01*
X122053303Y-94233500D01*
X123173298Y-94233500D01*
X123290372Y-94219742D01*
X123292854Y-94219151D01*
X123295241Y-94218512D01*
X123344975Y-94215550D01*
X123473300Y-94234000D01*
X123473303Y-94234000D01*
X124903295Y-94234000D01*
X124903300Y-94234000D01*
X124927423Y-94231322D01*
X124996221Y-94243490D01*
X125047522Y-94290923D01*
X125065100Y-94354565D01*
X125065100Y-94652159D01*
X125045415Y-94719198D01*
X124992611Y-94764953D01*
X124923457Y-94774897D01*
X124903308Y-94772000D01*
X124903300Y-94772000D01*
X123473300Y-94772000D01*
X123473280Y-94772000D01*
X123393367Y-94778359D01*
X123393346Y-94778362D01*
X123391648Y-94778634D01*
X123391641Y-94778635D01*
X123391639Y-94778636D01*
X123391636Y-94778637D01*
X123360976Y-94787843D01*
X123307671Y-94791819D01*
X123173300Y-94772500D01*
X122053298Y-94772500D01*
X121999308Y-94775394D01*
X121999299Y-94775396D01*
X121860038Y-94810944D01*
X121860028Y-94810947D01*
X121856149Y-94812554D01*
X121856138Y-94812559D01*
X121761409Y-94864285D01*
X121656205Y-94962229D01*
X121582857Y-95085841D01*
X121582855Y-95085846D01*
X121581250Y-95089721D01*
X121581236Y-95089758D01*
X121563256Y-95140723D01*
X121542800Y-95283001D01*
X121542800Y-96233001D01*
X121545694Y-96286991D01*
X121545696Y-96287000D01*
X121581244Y-96426261D01*
X121581247Y-96426271D01*
X121582854Y-96430150D01*
X121582859Y-96430161D01*
X121634585Y-96524890D01*
X121732529Y-96630094D01*
X121856141Y-96703442D01*
X121856146Y-96703444D01*
X121860021Y-96705049D01*
X121860058Y-96705063D01*
X121911023Y-96723043D01*
X122053301Y-96743499D01*
X122053303Y-96743500D01*
X123173298Y-96743500D01*
X123290372Y-96729742D01*
X123292854Y-96729151D01*
X123295241Y-96728512D01*
X123344975Y-96725550D01*
X123473300Y-96744000D01*
X124115848Y-96744000D01*
X124145288Y-96752644D01*
X124175275Y-96759168D01*
X124180290Y-96762922D01*
X124182887Y-96763685D01*
X124203529Y-96780319D01*
X124377616Y-96954406D01*
X124377645Y-96954437D01*
X124467863Y-97044655D01*
X124467867Y-97044658D01*
X124570307Y-97113107D01*
X124570316Y-97113112D01*
X124579910Y-97117086D01*
X124684148Y-97160263D01*
X124730924Y-97169567D01*
X124804991Y-97184299D01*
X124804992Y-97184300D01*
X124804993Y-97184300D01*
X126646908Y-97184300D01*
X126646908Y-97184299D01*
X126720976Y-97169567D01*
X126767752Y-97160263D01*
X126801092Y-97146452D01*
X126881586Y-97113112D01*
X126940760Y-97073572D01*
X126984033Y-97044658D01*
X127071158Y-96957533D01*
X127071158Y-96957531D01*
X127081366Y-96947324D01*
X127081367Y-96947321D01*
X129415086Y-94613603D01*
X129476407Y-94580120D01*
X129546099Y-94585104D01*
X129602032Y-94626976D01*
X129624382Y-94677094D01*
X129652104Y-94816459D01*
X129652106Y-94816467D01*
X129719983Y-94980340D01*
X129719990Y-94980353D01*
X129818535Y-95127834D01*
X129818538Y-95127838D01*
X129943961Y-95253261D01*
X129943965Y-95253264D01*
X130091446Y-95351809D01*
X130091459Y-95351816D01*
X130172248Y-95385279D01*
X130255334Y-95419694D01*
X130255336Y-95419694D01*
X130255341Y-95419696D01*
X130429304Y-95454299D01*
X130429307Y-95454300D01*
X130429309Y-95454300D01*
X130606693Y-95454300D01*
X130606694Y-95454299D01*
X130664682Y-95442764D01*
X130780658Y-95419696D01*
X130780661Y-95419694D01*
X130780666Y-95419694D01*
X130944547Y-95351813D01*
X131092035Y-95253264D01*
X131217464Y-95127835D01*
X131316013Y-94980347D01*
X131383894Y-94816466D01*
X131383894Y-94816461D01*
X131383896Y-94816458D01*
X131418499Y-94642495D01*
X131418500Y-94642493D01*
X131418500Y-94589251D01*
X131438185Y-94522212D01*
X131454814Y-94501575D01*
X135495070Y-90461318D01*
X135521179Y-90447062D01*
X135545949Y-90430588D01*
X135551509Y-90430500D01*
X135556391Y-90427835D01*
X135586069Y-90429957D01*
X135615810Y-90429490D01*
X135622130Y-90432536D01*
X135626083Y-90432819D01*
X135648141Y-90443645D01*
X135651980Y-90446028D01*
X135754190Y-90520287D01*
X135851533Y-90569886D01*
X135855977Y-90572644D01*
X135875922Y-90594944D01*
X135897676Y-90615490D01*
X135898969Y-90620712D01*
X135902556Y-90624723D01*
X135907279Y-90654269D01*
X135914471Y-90683311D01*
X135912735Y-90688403D01*
X135913585Y-90693716D01*
X135901586Y-90721119D01*
X135891934Y-90749446D01*
X135887503Y-90753284D01*
X135885562Y-90757720D01*
X135871894Y-90766810D01*
X135846880Y-90788485D01*
X135754186Y-90835715D01*
X135588586Y-90956028D01*
X135443828Y-91100786D01*
X135323515Y-91266386D01*
X135230581Y-91448776D01*
X135167322Y-91643465D01*
X135138527Y-91825272D01*
X135135300Y-91845648D01*
X135135300Y-92050352D01*
X135145261Y-92113241D01*
X135168085Y-92257346D01*
X135166052Y-92257667D01*
X135162965Y-92318834D01*
X135133581Y-92365627D01*
X133208676Y-94290533D01*
X131296921Y-96202288D01*
X131296918Y-96202291D01*
X131266208Y-96233001D01*
X131209791Y-96289417D01*
X131186810Y-96323812D01*
X131183654Y-96328536D01*
X131141339Y-96391863D01*
X131116533Y-96451752D01*
X131114040Y-96457768D01*
X131114040Y-96457770D01*
X131094190Y-96505692D01*
X131094186Y-96505703D01*
X131088361Y-96534988D01*
X131088362Y-96534989D01*
X131070985Y-96622352D01*
X131070983Y-96622361D01*
X131070151Y-96626538D01*
X131070151Y-96996189D01*
X131050466Y-97063228D01*
X131033832Y-97083870D01*
X130996189Y-97121512D01*
X130996186Y-97121516D01*
X130897641Y-97268997D01*
X130897634Y-97269010D01*
X130829757Y-97432883D01*
X130829754Y-97432892D01*
X130795151Y-97606855D01*
X130795151Y-97784246D01*
X130829754Y-97958209D01*
X130829757Y-97958218D01*
X130897634Y-98122091D01*
X130897641Y-98122104D01*
X130996186Y-98269585D01*
X130996189Y-98269589D01*
X131121612Y-98395012D01*
X131121616Y-98395015D01*
X131269097Y-98493560D01*
X131269109Y-98493567D01*
X131358218Y-98530476D01*
X131386904Y-98542358D01*
X131387752Y-98542709D01*
X131403317Y-98555251D01*
X131421503Y-98563557D01*
X131429966Y-98576726D01*
X131442156Y-98586549D01*
X131448469Y-98605518D01*
X131459277Y-98622335D01*
X131463239Y-98649894D01*
X131464221Y-98652843D01*
X131464300Y-98657270D01*
X131464300Y-98724738D01*
X131444615Y-98791777D01*
X131427981Y-98812419D01*
X131390338Y-98850061D01*
X131390335Y-98850065D01*
X131291790Y-98997546D01*
X131291783Y-98997559D01*
X131223906Y-99161432D01*
X131223903Y-99161441D01*
X131189300Y-99335404D01*
X131189300Y-99512795D01*
X131223903Y-99686758D01*
X131223906Y-99686767D01*
X131291783Y-99850640D01*
X131291790Y-99850653D01*
X131390335Y-99998134D01*
X131390338Y-99998138D01*
X131515761Y-100123561D01*
X131515765Y-100123564D01*
X131663246Y-100222109D01*
X131663259Y-100222116D01*
X131772804Y-100267490D01*
X131827134Y-100289994D01*
X131827136Y-100289994D01*
X131827141Y-100289996D01*
X132001104Y-100324599D01*
X132001107Y-100324600D01*
X132001109Y-100324600D01*
X132178493Y-100324600D01*
X132178494Y-100324599D01*
X132256837Y-100309016D01*
X132352458Y-100289996D01*
X132352461Y-100289994D01*
X132352466Y-100289994D01*
X132516347Y-100222113D01*
X132663835Y-100123564D01*
X132789264Y-99998135D01*
X132887813Y-99850647D01*
X132955694Y-99686766D01*
X132958960Y-99670351D01*
X132990299Y-99512795D01*
X132990300Y-99512793D01*
X132990300Y-99335406D01*
X132990299Y-99335404D01*
X132955696Y-99161441D01*
X132955693Y-99161432D01*
X132951111Y-99150371D01*
X132917395Y-99068970D01*
X132887816Y-98997559D01*
X132887809Y-98997546D01*
X132789264Y-98850065D01*
X132789261Y-98850061D01*
X132751619Y-98812419D01*
X132736915Y-98785491D01*
X132720323Y-98759673D01*
X132719431Y-98753472D01*
X132718134Y-98751096D01*
X132715300Y-98724738D01*
X132715300Y-98636452D01*
X132734985Y-98569413D01*
X132751619Y-98548771D01*
X133971043Y-97329347D01*
X135191167Y-96109222D01*
X135252488Y-96075739D01*
X135322180Y-96080723D01*
X135378113Y-96122595D01*
X135402530Y-96188059D01*
X135387678Y-96256332D01*
X135379165Y-96269789D01*
X135323514Y-96346387D01*
X135230581Y-96528776D01*
X135167322Y-96723465D01*
X135143574Y-96873407D01*
X135135300Y-96925648D01*
X135135300Y-97130352D01*
X135137850Y-97146452D01*
X135167322Y-97332534D01*
X135230581Y-97527223D01*
X135284113Y-97632284D01*
X135320885Y-97704453D01*
X135323515Y-97709613D01*
X135443828Y-97875213D01*
X135588586Y-98019971D01*
X135720135Y-98115545D01*
X135754190Y-98140287D01*
X135826224Y-98176990D01*
X135847429Y-98187795D01*
X135898225Y-98235770D01*
X135915020Y-98303591D01*
X135892482Y-98369726D01*
X135847429Y-98408765D01*
X135754450Y-98456140D01*
X135588905Y-98576417D01*
X135588904Y-98576417D01*
X135444217Y-98721104D01*
X135444217Y-98721105D01*
X135323940Y-98886650D01*
X135231044Y-99068970D01*
X135167809Y-99263586D01*
X135159191Y-99318000D01*
X136120114Y-99318000D01*
X136115720Y-99322394D01*
X136063059Y-99413606D01*
X136035800Y-99515339D01*
X136035800Y-99620661D01*
X136063059Y-99722394D01*
X136115720Y-99813606D01*
X136120114Y-99818000D01*
X135159191Y-99818000D01*
X135167809Y-99872413D01*
X135231044Y-100067029D01*
X135323940Y-100249349D01*
X135444217Y-100414894D01*
X135444217Y-100414895D01*
X135588904Y-100559582D01*
X135754450Y-100679859D01*
X135936768Y-100772754D01*
X136131378Y-100835988D01*
X136185800Y-100844607D01*
X136185800Y-99883686D01*
X136190194Y-99888080D01*
X136281406Y-99940741D01*
X136383139Y-99968000D01*
X136488461Y-99968000D01*
X136590194Y-99940741D01*
X136681406Y-99888080D01*
X136685800Y-99883686D01*
X136685800Y-100844606D01*
X136740221Y-100835988D01*
X136934831Y-100772754D01*
X137117149Y-100679859D01*
X137282694Y-100559582D01*
X137282695Y-100559582D01*
X137427382Y-100414895D01*
X137427382Y-100414894D01*
X137547659Y-100249349D01*
X137591515Y-100163278D01*
X137639489Y-100112482D01*
X137707310Y-100095687D01*
X137773445Y-100118224D01*
X137816897Y-100172939D01*
X137826000Y-100219573D01*
X137826000Y-105968683D01*
X137806315Y-106035722D01*
X137753511Y-106081477D01*
X137684353Y-106091421D01*
X137620797Y-106062396D01*
X137602734Y-106042995D01*
X137598503Y-106037343D01*
X137593346Y-106030454D01*
X137593344Y-106030453D01*
X137593344Y-106030452D01*
X137478135Y-105944206D01*
X137478128Y-105944202D01*
X137343282Y-105893908D01*
X137343283Y-105893908D01*
X137283683Y-105887501D01*
X137283681Y-105887500D01*
X137283673Y-105887500D01*
X137283665Y-105887500D01*
X136021900Y-105887500D01*
X135954861Y-105867815D01*
X135909106Y-105815011D01*
X135897900Y-105763500D01*
X135897900Y-103838061D01*
X135917585Y-103771022D01*
X135934220Y-103750379D01*
X135971861Y-103712738D01*
X135971864Y-103712735D01*
X136070413Y-103565247D01*
X136071867Y-103561738D01*
X136086740Y-103525830D01*
X136138294Y-103401366D01*
X136139500Y-103395306D01*
X136172899Y-103227395D01*
X136172900Y-103227393D01*
X136172900Y-103050006D01*
X136172899Y-103050004D01*
X136138296Y-102876041D01*
X136138293Y-102876032D01*
X136137994Y-102875311D01*
X136121323Y-102835063D01*
X136070416Y-102712159D01*
X136070409Y-102712146D01*
X135971864Y-102564665D01*
X135971861Y-102564661D01*
X135846438Y-102439238D01*
X135846434Y-102439235D01*
X135698953Y-102340690D01*
X135698940Y-102340683D01*
X135535067Y-102272806D01*
X135535058Y-102272803D01*
X135361094Y-102238200D01*
X135361091Y-102238200D01*
X135183709Y-102238200D01*
X135183706Y-102238200D01*
X135009741Y-102272803D01*
X135009732Y-102272806D01*
X134845859Y-102340683D01*
X134845846Y-102340690D01*
X134698365Y-102439235D01*
X134698361Y-102439238D01*
X134572938Y-102564661D01*
X134572935Y-102564665D01*
X134474390Y-102712146D01*
X134474383Y-102712159D01*
X134406506Y-102876032D01*
X134406505Y-102876037D01*
X134397102Y-102923306D01*
X134364716Y-102985216D01*
X134303999Y-103019789D01*
X134234230Y-103016048D01*
X134206593Y-103002213D01*
X134189047Y-102990489D01*
X134189033Y-102990481D01*
X134025160Y-102922604D01*
X134025151Y-102922601D01*
X133851187Y-102887998D01*
X133851184Y-102887998D01*
X133673802Y-102887998D01*
X133673799Y-102887998D01*
X133499834Y-102922601D01*
X133499825Y-102922604D01*
X133335952Y-102990481D01*
X133335939Y-102990488D01*
X133188458Y-103089033D01*
X133188454Y-103089036D01*
X133063031Y-103214459D01*
X133063028Y-103214463D01*
X132964483Y-103361944D01*
X132964476Y-103361957D01*
X132896599Y-103525830D01*
X132896596Y-103525839D01*
X132861993Y-103699802D01*
X132861993Y-103753045D01*
X132842308Y-103820084D01*
X132825674Y-103840726D01*
X131427600Y-105238799D01*
X131427590Y-105238809D01*
X131425369Y-105241031D01*
X131425367Y-105241033D01*
X131338242Y-105328158D01*
X131318610Y-105357540D01*
X131313596Y-105365043D01*
X131313593Y-105365047D01*
X131287104Y-105404690D01*
X131280008Y-105415311D01*
X131269787Y-105430607D01*
X131251492Y-105474778D01*
X131251491Y-105474780D01*
X131222638Y-105544436D01*
X131222635Y-105544446D01*
X131198600Y-105665280D01*
X131198600Y-112124248D01*
X131178915Y-112191287D01*
X131162281Y-112211929D01*
X130498029Y-112876181D01*
X130471101Y-112890884D01*
X130445283Y-112907477D01*
X130439082Y-112908368D01*
X130436706Y-112909666D01*
X130410348Y-112912500D01*
X130398487Y-112912500D01*
X130331448Y-112892815D01*
X130285693Y-112840011D01*
X130275749Y-112770853D01*
X130280556Y-112750182D01*
X130338276Y-112572538D01*
X130338276Y-112572537D01*
X130338277Y-112572534D01*
X130370300Y-112370352D01*
X130370300Y-112165648D01*
X130354327Y-112064797D01*
X130338277Y-111963465D01*
X130275018Y-111768776D01*
X130227976Y-111676453D01*
X130182087Y-111586390D01*
X130169115Y-111568536D01*
X130061771Y-111420786D01*
X129917013Y-111276028D01*
X129751414Y-111155715D01*
X129740602Y-111150206D01*
X129658717Y-111108483D01*
X129607923Y-111060511D01*
X129591128Y-110992690D01*
X129613665Y-110926555D01*
X129658717Y-110887516D01*
X129751410Y-110840287D01*
X129850867Y-110768028D01*
X129917013Y-110719971D01*
X129917015Y-110719968D01*
X129917019Y-110719966D01*
X130061766Y-110575219D01*
X130061768Y-110575215D01*
X130061771Y-110575213D01*
X130124787Y-110488477D01*
X130182087Y-110409610D01*
X130275020Y-110227219D01*
X130338277Y-110032534D01*
X130370300Y-109830352D01*
X130370300Y-109625648D01*
X130338277Y-109423466D01*
X130331701Y-109403228D01*
X130303212Y-109315547D01*
X130275020Y-109228781D01*
X130275018Y-109228778D01*
X130275018Y-109228776D01*
X130220694Y-109122161D01*
X130182087Y-109046390D01*
X130146086Y-108996838D01*
X130061771Y-108880786D01*
X129917013Y-108736028D01*
X129751414Y-108615715D01*
X129740598Y-108610204D01*
X129658717Y-108568483D01*
X129607923Y-108520511D01*
X129591128Y-108452690D01*
X129613665Y-108386555D01*
X129658717Y-108347516D01*
X129751410Y-108300287D01*
X129793462Y-108269735D01*
X129917013Y-108179971D01*
X129917015Y-108179968D01*
X129917019Y-108179966D01*
X130061766Y-108035219D01*
X130061768Y-108035215D01*
X130061771Y-108035213D01*
X130124787Y-107948477D01*
X130182087Y-107869610D01*
X130275020Y-107687219D01*
X130338277Y-107492534D01*
X130370300Y-107290352D01*
X130370300Y-107085648D01*
X130338277Y-106883466D01*
X130338276Y-106883464D01*
X130275018Y-106688776D01*
X130238468Y-106617044D01*
X130182087Y-106506390D01*
X130136471Y-106443604D01*
X130061771Y-106340786D01*
X129917013Y-106196028D01*
X129751413Y-106075715D01*
X129751412Y-106075714D01*
X129751410Y-106075713D01*
X129692710Y-106045804D01*
X129569023Y-105982781D01*
X129374334Y-105919522D01*
X129195618Y-105891216D01*
X129172152Y-105887500D01*
X129172151Y-105887500D01*
X129167340Y-105886738D01*
X129167686Y-105884551D01*
X129110930Y-105862465D01*
X129069852Y-105805947D01*
X129065016Y-105788447D01*
X129046696Y-105696344D01*
X129046693Y-105696335D01*
X128978816Y-105532462D01*
X128978809Y-105532449D01*
X128880264Y-105384968D01*
X128880261Y-105384964D01*
X128754838Y-105259541D01*
X128754834Y-105259538D01*
X128607353Y-105160993D01*
X128607340Y-105160986D01*
X128443467Y-105093109D01*
X128443458Y-105093106D01*
X128269494Y-105058503D01*
X128269491Y-105058503D01*
X128092109Y-105058503D01*
X128092106Y-105058503D01*
X127918141Y-105093106D01*
X127918132Y-105093109D01*
X127754259Y-105160986D01*
X127754246Y-105160993D01*
X127606765Y-105259538D01*
X127606761Y-105259541D01*
X127569121Y-105297183D01*
X127507799Y-105330669D01*
X127481439Y-105333503D01*
X124264404Y-105333503D01*
X124141190Y-105333503D01*
X124120648Y-105337589D01*
X124100105Y-105341675D01*
X124100104Y-105341674D01*
X124020350Y-105357538D01*
X124020338Y-105357542D01*
X123988750Y-105370626D01*
X123988726Y-105370637D01*
X123986493Y-105371562D01*
X123906512Y-105404691D01*
X123896117Y-105411637D01*
X123887997Y-105417062D01*
X123887994Y-105417064D01*
X123804065Y-105473143D01*
X123781997Y-105495212D01*
X123716939Y-105560270D01*
X122956061Y-106321148D01*
X122948995Y-106328213D01*
X122887670Y-106361694D01*
X122817978Y-106356705D01*
X122762048Y-106314829D01*
X122745138Y-106283859D01*
X122693597Y-106145671D01*
X122693593Y-106145664D01*
X122607347Y-106030455D01*
X122607344Y-106030452D01*
X122492135Y-105944206D01*
X122492128Y-105944202D01*
X122357282Y-105893908D01*
X122357283Y-105893908D01*
X122297683Y-105887501D01*
X122297681Y-105887500D01*
X122297673Y-105887500D01*
X122297665Y-105887500D01*
X120802300Y-105887500D01*
X120735261Y-105867815D01*
X120689506Y-105815011D01*
X120678300Y-105763500D01*
X120678300Y-89391352D01*
X120697985Y-89324313D01*
X120714619Y-89303671D01*
X121023400Y-88994890D01*
X121334750Y-88683539D01*
X121396071Y-88650056D01*
X121465762Y-88655040D01*
G37*
%TD.AperFunction*%
%TA.AperFunction,Conductor*%
G36*
X135054634Y-81424715D02*
G01*
X135110567Y-81466587D01*
X135134984Y-81532051D01*
X135135300Y-81540897D01*
X135135300Y-82635870D01*
X135135301Y-82635876D01*
X135141708Y-82695483D01*
X135192002Y-82830328D01*
X135192006Y-82830335D01*
X135278252Y-82945544D01*
X135278255Y-82945547D01*
X135393464Y-83031793D01*
X135393471Y-83031797D01*
X135436273Y-83047761D01*
X135528317Y-83082091D01*
X135565241Y-83086060D01*
X135629789Y-83112796D01*
X135669638Y-83170188D01*
X135672133Y-83240013D01*
X135636481Y-83300102D01*
X135624871Y-83309666D01*
X135588584Y-83336030D01*
X135443828Y-83480786D01*
X135323515Y-83646386D01*
X135230581Y-83828776D01*
X135167322Y-84023465D01*
X135135300Y-84225648D01*
X135135300Y-84430351D01*
X135167322Y-84632534D01*
X135230581Y-84827223D01*
X135283789Y-84931648D01*
X135320500Y-85003697D01*
X135323515Y-85009613D01*
X135443828Y-85175213D01*
X135588586Y-85319971D01*
X135743549Y-85432556D01*
X135754190Y-85440287D01*
X135837051Y-85482507D01*
X135846880Y-85487515D01*
X135897676Y-85535490D01*
X135914471Y-85603311D01*
X135891934Y-85669446D01*
X135846880Y-85708485D01*
X135754186Y-85755715D01*
X135588586Y-85876028D01*
X135443828Y-86020786D01*
X135323515Y-86186386D01*
X135230581Y-86368776D01*
X135167322Y-86563465D01*
X135135300Y-86765648D01*
X135135300Y-86970351D01*
X135167322Y-87172534D01*
X135230581Y-87367223D01*
X135238117Y-87382012D01*
X135309728Y-87522556D01*
X135323515Y-87549613D01*
X135443828Y-87715213D01*
X135588586Y-87859971D01*
X135743549Y-87972556D01*
X135754190Y-87980287D01*
X135818721Y-88013167D01*
X135846880Y-88027515D01*
X135897676Y-88075490D01*
X135914471Y-88143311D01*
X135891934Y-88209446D01*
X135846880Y-88248485D01*
X135754186Y-88295715D01*
X135588586Y-88416028D01*
X135443828Y-88560786D01*
X135323515Y-88726385D01*
X135230578Y-88908784D01*
X135216748Y-88951348D01*
X135209765Y-88962743D01*
X135207657Y-88972441D01*
X135186514Y-89000688D01*
X135186509Y-89000698D01*
X135177949Y-89009260D01*
X135177946Y-89009261D01*
X135177945Y-89009263D01*
X135177944Y-89009262D01*
X135177939Y-89009270D01*
X131126449Y-93060760D01*
X131065126Y-93094245D01*
X130995434Y-93089261D01*
X130939501Y-93047389D01*
X130915084Y-92981925D01*
X130917151Y-92948887D01*
X130925800Y-92905406D01*
X130925800Y-85717194D01*
X130901763Y-85596348D01*
X130854611Y-85482514D01*
X130854610Y-85482513D01*
X130854607Y-85482507D01*
X130786158Y-85380067D01*
X130786155Y-85380063D01*
X130695937Y-85289845D01*
X130695906Y-85289816D01*
X130550707Y-85144617D01*
X130517222Y-85083294D01*
X130514388Y-85056936D01*
X130514388Y-85003694D01*
X130514387Y-85003692D01*
X130479784Y-84829729D01*
X130479781Y-84829720D01*
X130411904Y-84665847D01*
X130411897Y-84665834D01*
X130313352Y-84518353D01*
X130313349Y-84518349D01*
X130187926Y-84392926D01*
X130187922Y-84392923D01*
X130040441Y-84294378D01*
X130040428Y-84294371D01*
X129876555Y-84226494D01*
X129876547Y-84226492D01*
X129734013Y-84198140D01*
X129672102Y-84165755D01*
X129637528Y-84105039D01*
X129641268Y-84035270D01*
X129670524Y-83988842D01*
X129830586Y-83828781D01*
X130129047Y-83530320D01*
X130190370Y-83496835D01*
X130216728Y-83494001D01*
X132645886Y-83494001D01*
X132743428Y-83474597D01*
X132790879Y-83465159D01*
X132927461Y-83408585D01*
X133001470Y-83359134D01*
X133050382Y-83326453D01*
X134923619Y-81453216D01*
X134984942Y-81419731D01*
X135054634Y-81424715D01*
G37*
%TD.AperFunction*%
%TA.AperFunction,Conductor*%
G36*
X144305800Y-89092314D02*
G01*
X144301406Y-89087920D01*
X144210194Y-89035259D01*
X144108461Y-89008000D01*
X144003139Y-89008000D01*
X143901406Y-89035259D01*
X143810194Y-89087920D01*
X143805800Y-89092314D01*
X143805800Y-87183686D01*
X143810194Y-87188080D01*
X143901406Y-87240741D01*
X144003139Y-87268000D01*
X144108461Y-87268000D01*
X144210194Y-87240741D01*
X144301406Y-87188080D01*
X144305800Y-87183686D01*
X144305800Y-89092314D01*
G37*
%TD.AperFunction*%
%TA.AperFunction,Conductor*%
G36*
X142061108Y-80858684D02*
G01*
X142081750Y-80875318D01*
X142729326Y-81522893D01*
X142762811Y-81584216D01*
X142764118Y-81629971D01*
X142755300Y-81685647D01*
X142755300Y-81890351D01*
X142787322Y-82092534D01*
X142850581Y-82287223D01*
X142943515Y-82469613D01*
X143063828Y-82635213D01*
X143208586Y-82779971D01*
X143363549Y-82892556D01*
X143374190Y-82900287D01*
X143446218Y-82936987D01*
X143466880Y-82947515D01*
X143517676Y-82995490D01*
X143534471Y-83063311D01*
X143511934Y-83129446D01*
X143466880Y-83168485D01*
X143374186Y-83215715D01*
X143208586Y-83336028D01*
X143063828Y-83480786D01*
X142943515Y-83646386D01*
X142850581Y-83828776D01*
X142787322Y-84023465D01*
X142755300Y-84225648D01*
X142755300Y-84430351D01*
X142787322Y-84632534D01*
X142850581Y-84827223D01*
X142903789Y-84931648D01*
X142940500Y-85003697D01*
X142943515Y-85009613D01*
X143063828Y-85175213D01*
X143063834Y-85175219D01*
X143208581Y-85319966D01*
X143374190Y-85440287D01*
X143374198Y-85440291D01*
X143374940Y-85440746D01*
X143375164Y-85440993D01*
X143378132Y-85443150D01*
X143377679Y-85443773D01*
X143397107Y-85465248D01*
X143420024Y-85488998D01*
X143420937Y-85491588D01*
X143421815Y-85492558D01*
X143431766Y-85522282D01*
X143450416Y-85616041D01*
X143444189Y-85685632D01*
X143401326Y-85740810D01*
X143385095Y-85750716D01*
X143374453Y-85756138D01*
X143208905Y-85876417D01*
X143208904Y-85876417D01*
X143064217Y-86021104D01*
X143064217Y-86021105D01*
X142943940Y-86186650D01*
X142851044Y-86368970D01*
X142787809Y-86563586D01*
X142779191Y-86618000D01*
X143740114Y-86618000D01*
X143735720Y-86622394D01*
X143683059Y-86713606D01*
X143655800Y-86815339D01*
X143655800Y-86920661D01*
X143683059Y-87022394D01*
X143735720Y-87113606D01*
X143740114Y-87118000D01*
X142779191Y-87118000D01*
X142787809Y-87172413D01*
X142851044Y-87367029D01*
X142943940Y-87549349D01*
X143064217Y-87714894D01*
X143064217Y-87714895D01*
X143208904Y-87859582D01*
X143374450Y-87979859D01*
X143467979Y-88027515D01*
X143518775Y-88075490D01*
X143535570Y-88143311D01*
X143513032Y-88209446D01*
X143467979Y-88248485D01*
X143374447Y-88296142D01*
X143220748Y-88407811D01*
X143209929Y-88411671D01*
X143201384Y-88419348D01*
X143177617Y-88423200D01*
X143154942Y-88431291D01*
X143143753Y-88428689D01*
X143132415Y-88430527D01*
X143110337Y-88420918D01*
X143086888Y-88415465D01*
X143077236Y-88406511D01*
X143068350Y-88402644D01*
X143044764Y-88376388D01*
X143038113Y-88366435D01*
X143038111Y-88366432D01*
X143004458Y-88316067D01*
X143004456Y-88316064D01*
X142914237Y-88225845D01*
X142914206Y-88225816D01*
X137686700Y-82998310D01*
X137653215Y-82936987D01*
X137658199Y-82867295D01*
X137675115Y-82836318D01*
X137679593Y-82830335D01*
X137679592Y-82830335D01*
X137679596Y-82830331D01*
X137729891Y-82695483D01*
X137736300Y-82635873D01*
X137736299Y-80962998D01*
X137755984Y-80895960D01*
X137808787Y-80850205D01*
X137860299Y-80838999D01*
X141994069Y-80838999D01*
X142061108Y-80858684D01*
G37*
%TD.AperFunction*%
%TD*%
M02*
