%TF.GenerationSoftware,KiCad,Pcbnew,9.0.5*%
%TF.CreationDate,2026-01-02T17:39:59+00:00*%
%TF.ProjectId,DataIOROM,44617461-494f-4524-9f4d-2e6b69636164,rev?*%
%TF.SameCoordinates,Original*%
%TF.FileFunction,Soldermask,Bot*%
%TF.FilePolarity,Negative*%
%FSLAX46Y46*%
G04 Gerber Fmt 4.6, Leading zero omitted, Abs format (unit mm)*
G04 Created by KiCad (PCBNEW 9.0.5) date 2026-01-02 17:39:59*
%MOMM*%
%LPD*%
G01*
G04 APERTURE LIST*
G04 Aperture macros list*
%AMFreePoly0*
4,1,16,0.437854,0.475354,0.437952,0.475214,0.662952,0.000214,0.662971,-0.000168,0.662952,-0.000214,0.437952,-0.475214,0.437668,-0.475471,0.437500,-0.475500,-0.462500,-0.475500,-0.462854,-0.475354,-0.463000,-0.475000,-0.463000,0.475000,-0.462854,0.475354,-0.462500,0.475500,0.437500,0.475500,0.437854,0.475354,0.437854,0.475354,$1*%
%AMFreePoly1*
4,1,19,0.592854,0.475354,0.592946,0.475225,0.832946,0.000225,0.832975,-0.000156,0.832946,-0.000225,0.592946,-0.475225,0.592656,-0.475475,0.592500,-0.475500,-0.837500,-0.475500,-0.837854,-0.475354,-0.838000,-0.475000,-0.837952,-0.474786,-0.613053,0.000000,-0.837952,0.474786,-0.837971,0.475168,-0.837714,0.475452,-0.837500,0.475500,0.592500,0.475500,0.592854,0.475354,0.592854,0.475354,
$1*%
%AMFreePoly2*
4,1,16,0.437854,0.475354,0.438000,0.475000,0.438000,-0.475000,0.437854,-0.475354,0.437500,-0.475500,-0.682500,-0.475500,-0.682854,-0.475354,-0.683000,-0.475000,-0.682946,-0.474775,-0.443059,0.000000,-0.682946,0.474775,-0.682975,0.475156,-0.682725,0.475446,-0.682500,0.475500,0.437500,0.475500,0.437854,0.475354,0.437854,0.475354,$1*%
G04 Aperture macros list end*
%ADD10R,1.600000X1.600000*%
%ADD11O,1.600000X1.600000*%
%ADD12FreePoly0,270.000000*%
%ADD13FreePoly1,270.000000*%
%ADD14FreePoly2,270.000000*%
%ADD15FreePoly0,180.000000*%
%ADD16FreePoly1,180.000000*%
%ADD17FreePoly2,180.000000*%
G04 APERTURE END LIST*
D10*
%TO.C,U18*%
X118655800Y-107188000D03*
D11*
X118655800Y-109728000D03*
X118655800Y-112268000D03*
X118655800Y-114808000D03*
X118655800Y-117348000D03*
X118655800Y-119888000D03*
X118655800Y-122428000D03*
X118655800Y-124968000D03*
X126275800Y-124968000D03*
X126275800Y-122428000D03*
X126275800Y-119888000D03*
X126275800Y-117348000D03*
X126275800Y-114808000D03*
X126275800Y-112268000D03*
X126275800Y-109728000D03*
X126275800Y-107188000D03*
%TD*%
D10*
%TO.C,U70*%
X139229800Y-56388000D03*
D11*
X139229800Y-58928000D03*
X139229800Y-61468000D03*
X139229800Y-64008000D03*
X139229800Y-66548000D03*
X139229800Y-69088000D03*
X139229800Y-71628000D03*
X139229800Y-74168000D03*
X146849800Y-74168000D03*
X146849800Y-71628000D03*
X146849800Y-69088000D03*
X146849800Y-66548000D03*
X146849800Y-64008000D03*
X146849800Y-61468000D03*
X146849800Y-58928000D03*
X146849800Y-56388000D03*
%TD*%
D10*
%TO.C,U14*%
X136435800Y-81788000D03*
D11*
X136435800Y-84328000D03*
X136435800Y-86868000D03*
X136435800Y-89408000D03*
X136435800Y-91948000D03*
X136435800Y-94488000D03*
X136435800Y-97028000D03*
X136435800Y-99568000D03*
X144055800Y-99568000D03*
X144055800Y-97028000D03*
X144055800Y-94488000D03*
X144055800Y-91948000D03*
X144055800Y-89408000D03*
X144055800Y-86868000D03*
X144055800Y-84328000D03*
X144055800Y-81788000D03*
%TD*%
D10*
%TO.C,U19*%
X136435800Y-107188000D03*
D11*
X136435800Y-109728000D03*
X136435800Y-112268000D03*
X136435800Y-114808000D03*
X136435800Y-117348000D03*
X136435800Y-119888000D03*
X136435800Y-122428000D03*
X136435800Y-124968000D03*
X144055800Y-124968000D03*
X144055800Y-122428000D03*
X144055800Y-119888000D03*
X144055800Y-117348000D03*
X144055800Y-114808000D03*
X144055800Y-112268000D03*
X144055800Y-109728000D03*
X144055800Y-107188000D03*
%TD*%
D10*
%TO.C,U20*%
X152945800Y-91948000D03*
D11*
X152945800Y-94488000D03*
X152945800Y-97028000D03*
X152945800Y-99568000D03*
X152945800Y-102108000D03*
X152945800Y-104648000D03*
X152945800Y-107188000D03*
X152945800Y-109728000D03*
X152945800Y-112268000D03*
X152945800Y-114808000D03*
X152945800Y-117348000D03*
X152945800Y-119888000D03*
X152945800Y-122428000D03*
X152945800Y-124968000D03*
X168185800Y-124968000D03*
X168185800Y-122428000D03*
X168185800Y-119888000D03*
X168185800Y-117348000D03*
X168185800Y-114808000D03*
X168185800Y-112268000D03*
X168185800Y-109728000D03*
X168185800Y-107188000D03*
X168185800Y-104648000D03*
X168185800Y-102108000D03*
X168185800Y-99568000D03*
X168185800Y-97028000D03*
X168185800Y-94488000D03*
X168185800Y-91948000D03*
%TD*%
D10*
%TO.C,U3*%
X180885800Y-96520000D03*
D11*
X180885800Y-99060000D03*
X180885800Y-101600000D03*
X180885800Y-104140000D03*
X180885800Y-106680000D03*
X180885800Y-109220000D03*
X180885800Y-111760000D03*
X180885800Y-114300000D03*
X180885800Y-116840000D03*
X180885800Y-119380000D03*
X188505800Y-119380000D03*
X188505800Y-116840000D03*
X188505800Y-114300000D03*
X188505800Y-111760000D03*
X188505800Y-109220000D03*
X188505800Y-106680000D03*
X188505800Y-104140000D03*
X188505800Y-101600000D03*
X188505800Y-99060000D03*
X188505800Y-96520000D03*
%TD*%
D10*
%TO.C,U180*%
X121449800Y-107188000D03*
D11*
X121449800Y-109728000D03*
X121449800Y-112268000D03*
X121449800Y-114808000D03*
X121449800Y-117348000D03*
X121449800Y-119888000D03*
X121449800Y-122428000D03*
X121449800Y-124968000D03*
X129069800Y-124968000D03*
X129069800Y-122428000D03*
X129069800Y-119888000D03*
X129069800Y-117348000D03*
X129069800Y-114808000D03*
X129069800Y-112268000D03*
X129069800Y-109728000D03*
X129069800Y-107188000D03*
%TD*%
D10*
%TO.C,U7*%
X136435800Y-56388000D03*
D11*
X136435800Y-58928000D03*
X136435800Y-61468000D03*
X136435800Y-64008000D03*
X136435800Y-66548000D03*
X136435800Y-69088000D03*
X136435800Y-71628000D03*
X136435800Y-74168000D03*
X144055800Y-74168000D03*
X144055800Y-71628000D03*
X144055800Y-69088000D03*
X144055800Y-66548000D03*
X144055800Y-64008000D03*
X144055800Y-61468000D03*
X144055800Y-58928000D03*
X144055800Y-56388000D03*
%TD*%
D12*
%TO.C,J3*%
X160625800Y-121488000D03*
D13*
X160625800Y-123063000D03*
D14*
X160625800Y-124638000D03*
%TD*%
D12*
%TO.C,J2*%
X158115800Y-121488000D03*
D13*
X158115800Y-123063000D03*
D14*
X158115800Y-124638000D03*
%TD*%
D15*
%TO.C,J11*%
X125640800Y-95758000D03*
D16*
X124065800Y-95758000D03*
D17*
X122490800Y-95758000D03*
%TD*%
D12*
%TO.C,J1*%
X155605800Y-121488000D03*
D13*
X155605800Y-123063000D03*
D14*
X155605800Y-124638000D03*
%TD*%
D15*
%TO.C,J7*%
X125640800Y-90738000D03*
D16*
X124065800Y-90738000D03*
D17*
X122490800Y-90738000D03*
%TD*%
D15*
%TO.C,J8*%
X125640800Y-93248000D03*
D16*
X124065800Y-93248000D03*
D17*
X122490800Y-93248000D03*
%TD*%
D15*
%TO.C,J6*%
X125640800Y-88228000D03*
D16*
X124065800Y-88228000D03*
D17*
X122490800Y-88228000D03*
%TD*%
D12*
%TO.C,J5*%
X164973000Y-121488000D03*
D13*
X164973000Y-123063000D03*
D14*
X164973000Y-124638000D03*
%TD*%
D12*
%TO.C,J4*%
X163135800Y-121488000D03*
D13*
X163135800Y-123063000D03*
D14*
X163135800Y-124638000D03*
%TD*%
M02*
