%TF.GenerationSoftware,KiCad,Pcbnew,(7.0.0)*%
%TF.CreationDate,2023-08-04T18:21:39+01:00*%
%TF.ProjectId,DataIOROM,44617461-494f-4524-9f4d-2e6b69636164,rev?*%
%TF.SameCoordinates,Original*%
%TF.FileFunction,Drillmap*%
%TF.FilePolarity,Positive*%
%FSLAX45Y45*%
G04 Gerber Fmt 4.5, Leading zero omitted, Abs format (unit mm)*
G04 Created by KiCad (PCBNEW (7.0.0)) date 2023-08-04 18:21:39*
%MOMM*%
%LPD*%
G01*
G04 APERTURE LIST*
%ADD10C,0.100000*%
%ADD11C,0.200000*%
G04 APERTURE END LIST*
D10*
X11713166Y-12725400D02*
X11713166Y-8556034D01*
X13385800Y-6883400D02*
X11713166Y-8556034D01*
X17805400Y-12192000D02*
X19037300Y-12192000D01*
X17195599Y-12725601D02*
X17805400Y-12192000D01*
X13385800Y-6883400D02*
X13385800Y-5486400D01*
X14859000Y-8826500D02*
X19037300Y-8826500D01*
X14859000Y-5486400D02*
X14859000Y-8826500D01*
X13385800Y-5486400D02*
X14859000Y-5486400D01*
X19037300Y-12192000D02*
X19037300Y-8826500D01*
X11713166Y-12725400D02*
X17195599Y-12725601D01*
D11*
X11955785Y-13024077D02*
X11955785Y-12824077D01*
X11955785Y-12824077D02*
X12003404Y-12824077D01*
X12003404Y-12824077D02*
X12031976Y-12833601D01*
X12031976Y-12833601D02*
X12051023Y-12852649D01*
X12051023Y-12852649D02*
X12060547Y-12871696D01*
X12060547Y-12871696D02*
X12070071Y-12909791D01*
X12070071Y-12909791D02*
X12070071Y-12938363D01*
X12070071Y-12938363D02*
X12060547Y-12976458D01*
X12060547Y-12976458D02*
X12051023Y-12995506D01*
X12051023Y-12995506D02*
X12031976Y-13014553D01*
X12031976Y-13014553D02*
X12003404Y-13024077D01*
X12003404Y-13024077D02*
X11955785Y-13024077D01*
X12155785Y-13024077D02*
X12155785Y-12890744D01*
X12155785Y-12928839D02*
X12165309Y-12909791D01*
X12165309Y-12909791D02*
X12174833Y-12900268D01*
X12174833Y-12900268D02*
X12193880Y-12890744D01*
X12193880Y-12890744D02*
X12212928Y-12890744D01*
X12279595Y-13024077D02*
X12279595Y-12890744D01*
X12279595Y-12824077D02*
X12270071Y-12833601D01*
X12270071Y-12833601D02*
X12279595Y-12843125D01*
X12279595Y-12843125D02*
X12289119Y-12833601D01*
X12289119Y-12833601D02*
X12279595Y-12824077D01*
X12279595Y-12824077D02*
X12279595Y-12843125D01*
X12403404Y-13024077D02*
X12384357Y-13014553D01*
X12384357Y-13014553D02*
X12374833Y-12995506D01*
X12374833Y-12995506D02*
X12374833Y-12824077D01*
X12508166Y-13024077D02*
X12489119Y-13014553D01*
X12489119Y-13014553D02*
X12479595Y-12995506D01*
X12479595Y-12995506D02*
X12479595Y-12824077D01*
X12704357Y-13024077D02*
X12704357Y-12824077D01*
X12704357Y-12824077D02*
X12771023Y-12966934D01*
X12771023Y-12966934D02*
X12837690Y-12824077D01*
X12837690Y-12824077D02*
X12837690Y-13024077D01*
X13018642Y-13024077D02*
X13018642Y-12919315D01*
X13018642Y-12919315D02*
X13009119Y-12900268D01*
X13009119Y-12900268D02*
X12990071Y-12890744D01*
X12990071Y-12890744D02*
X12951976Y-12890744D01*
X12951976Y-12890744D02*
X12932928Y-12900268D01*
X13018642Y-13014553D02*
X12999595Y-13024077D01*
X12999595Y-13024077D02*
X12951976Y-13024077D01*
X12951976Y-13024077D02*
X12932928Y-13014553D01*
X12932928Y-13014553D02*
X12923404Y-12995506D01*
X12923404Y-12995506D02*
X12923404Y-12976458D01*
X12923404Y-12976458D02*
X12932928Y-12957411D01*
X12932928Y-12957411D02*
X12951976Y-12947887D01*
X12951976Y-12947887D02*
X12999595Y-12947887D01*
X12999595Y-12947887D02*
X13018642Y-12938363D01*
X13113880Y-12890744D02*
X13113880Y-13090744D01*
X13113880Y-12900268D02*
X13132928Y-12890744D01*
X13132928Y-12890744D02*
X13171023Y-12890744D01*
X13171023Y-12890744D02*
X13190071Y-12900268D01*
X13190071Y-12900268D02*
X13199595Y-12909791D01*
X13199595Y-12909791D02*
X13209119Y-12928839D01*
X13209119Y-12928839D02*
X13209119Y-12985982D01*
X13209119Y-12985982D02*
X13199595Y-13005030D01*
X13199595Y-13005030D02*
X13190071Y-13014553D01*
X13190071Y-13014553D02*
X13171023Y-13024077D01*
X13171023Y-13024077D02*
X13132928Y-13024077D01*
X13132928Y-13024077D02*
X13113880Y-13014553D01*
X13294833Y-13005030D02*
X13304357Y-13014553D01*
X13304357Y-13014553D02*
X13294833Y-13024077D01*
X13294833Y-13024077D02*
X13285309Y-13014553D01*
X13285309Y-13014553D02*
X13294833Y-13005030D01*
X13294833Y-13005030D02*
X13294833Y-13024077D01*
X13294833Y-12900268D02*
X13304357Y-12909791D01*
X13304357Y-12909791D02*
X13294833Y-12919315D01*
X13294833Y-12919315D02*
X13285309Y-12909791D01*
X13285309Y-12909791D02*
X13294833Y-12900268D01*
X13294833Y-12900268D02*
X13294833Y-12919315D01*
M02*
