%TF.GenerationSoftware,KiCad,Pcbnew,(7.0.0)*%
%TF.CreationDate,2023-08-04T18:21:46+01:00*%
%TF.ProjectId,DataIOROM,44617461-494f-4524-9f4d-2e6b69636164,rev?*%
%TF.SameCoordinates,Original*%
%TF.FileFunction,Paste,Top*%
%TF.FilePolarity,Positive*%
%FSLAX46Y46*%
G04 Gerber Fmt 4.6, Leading zero omitted, Abs format (unit mm)*
G04 Created by KiCad (PCBNEW (7.0.0)) date 2023-08-04 18:21:46*
%MOMM*%
%LPD*%
G01*
G04 APERTURE LIST*
G04 Aperture macros list*
%AMRoundRect*
0 Rectangle with rounded corners*
0 $1 Rounding radius*
0 $2 $3 $4 $5 $6 $7 $8 $9 X,Y pos of 4 corners*
0 Add a 4 corners polygon primitive as box body*
4,1,4,$2,$3,$4,$5,$6,$7,$8,$9,$2,$3,0*
0 Add four circle primitives for the rounded corners*
1,1,$1+$1,$2,$3*
1,1,$1+$1,$4,$5*
1,1,$1+$1,$6,$7*
1,1,$1+$1,$8,$9*
0 Add four rect primitives between the rounded corners*
20,1,$1+$1,$2,$3,$4,$5,0*
20,1,$1+$1,$4,$5,$6,$7,0*
20,1,$1+$1,$6,$7,$8,$9,0*
20,1,$1+$1,$8,$9,$2,$3,0*%
G04 Aperture macros list end*
%ADD10RoundRect,0.225000X-0.225000X-0.250000X0.225000X-0.250000X0.225000X0.250000X-0.225000X0.250000X0*%
%ADD11RoundRect,0.200000X0.200000X0.275000X-0.200000X0.275000X-0.200000X-0.275000X0.200000X-0.275000X0*%
%ADD12R,0.300000X1.500000*%
%ADD13RoundRect,0.225000X0.225000X0.250000X-0.225000X0.250000X-0.225000X-0.250000X0.225000X-0.250000X0*%
%ADD14RoundRect,0.218750X-0.218750X-0.256250X0.218750X-0.256250X0.218750X0.256250X-0.218750X0.256250X0*%
G04 APERTURE END LIST*
D10*
%TO.C,C3*%
X124248500Y-102168000D03*
X125798500Y-102168000D03*
%TD*%
D11*
%TO.C,R1*%
X158101800Y-122682000D03*
X156451800Y-122682000D03*
%TD*%
D12*
%TO.C,U1*%
X121273499Y-99007999D03*
X121773499Y-99007999D03*
X122273499Y-99007999D03*
X122773499Y-99007999D03*
X123273499Y-99007999D03*
X123773499Y-99007999D03*
X124273499Y-99007999D03*
X124773499Y-99007999D03*
X125273499Y-99007999D03*
X125773499Y-99007999D03*
X126273499Y-99007999D03*
X126773499Y-99007999D03*
X127273499Y-99007999D03*
X127773499Y-99007999D03*
X128273499Y-99007999D03*
X128773499Y-99007999D03*
X128773499Y-85007999D03*
X128273499Y-85007999D03*
X127773499Y-85007999D03*
X127273499Y-85007999D03*
X126773499Y-85007999D03*
X126273499Y-85007999D03*
X125773499Y-85007999D03*
X125273499Y-85007999D03*
X124773499Y-85007999D03*
X124273499Y-85007999D03*
X123773499Y-85007999D03*
X123273499Y-85007999D03*
X122773499Y-85007999D03*
X122273499Y-85007999D03*
X121773499Y-85007999D03*
X121273499Y-85007999D03*
%TD*%
D13*
%TO.C,C2*%
X160845800Y-97028000D03*
X159295800Y-97028000D03*
%TD*%
D12*
%TO.C,U2*%
X163825799Y-99923999D03*
X163325799Y-99923999D03*
X162825799Y-99923999D03*
X162325799Y-99923999D03*
X161825799Y-99923999D03*
X161325799Y-99923999D03*
X160825799Y-99923999D03*
X160325799Y-99923999D03*
X159825799Y-99923999D03*
X159325799Y-99923999D03*
X158825799Y-99923999D03*
X158325799Y-99923999D03*
X157825799Y-99923999D03*
X157325799Y-99923999D03*
X156825799Y-99923999D03*
X156325799Y-99923999D03*
X156325799Y-113923999D03*
X156825799Y-113923999D03*
X157325799Y-113923999D03*
X157825799Y-113923999D03*
X158325799Y-113923999D03*
X158825799Y-113923999D03*
X159325799Y-113923999D03*
X159825799Y-113923999D03*
X160325799Y-113923999D03*
X160825799Y-113923999D03*
X161325799Y-113923999D03*
X161825799Y-113923999D03*
X162325799Y-113923999D03*
X162825799Y-113923999D03*
X163325799Y-113923999D03*
X163825799Y-113923999D03*
%TD*%
D13*
%TO.C,C1*%
X188645800Y-93218000D03*
X187095800Y-93218000D03*
%TD*%
D14*
%TO.C,D1*%
X161569300Y-122682000D03*
X163144300Y-122682000D03*
%TD*%
M02*
