%TF.GenerationSoftware,KiCad,Pcbnew,(7.0.0)*%
%TF.CreationDate,2023-08-04T18:21:46+01:00*%
%TF.ProjectId,DataIOROM,44617461-494f-4524-9f4d-2e6b69636164,rev?*%
%TF.SameCoordinates,Original*%
%TF.FileFunction,Legend,Top*%
%TF.FilePolarity,Positive*%
%FSLAX46Y46*%
G04 Gerber Fmt 4.6, Leading zero omitted, Abs format (unit mm)*
G04 Created by KiCad (PCBNEW (7.0.0)) date 2023-08-04 18:21:46*
%MOMM*%
%LPD*%
G01*
G04 APERTURE LIST*
%ADD10C,0.200000*%
%ADD11C,0.300000*%
%ADD12C,0.500000*%
%ADD13C,0.150000*%
%ADD14C,0.120000*%
%ADD15C,0.100000*%
G04 APERTURE END LIST*
D10*
X173863191Y-120906380D02*
X174196524Y-121906380D01*
X174196524Y-121906380D02*
X174529857Y-120906380D01*
X174815572Y-121001619D02*
X174863191Y-120954000D01*
X174863191Y-120954000D02*
X174958429Y-120906380D01*
X174958429Y-120906380D02*
X175196524Y-120906380D01*
X175196524Y-120906380D02*
X175291762Y-120954000D01*
X175291762Y-120954000D02*
X175339381Y-121001619D01*
X175339381Y-121001619D02*
X175387000Y-121096857D01*
X175387000Y-121096857D02*
X175387000Y-121192095D01*
X175387000Y-121192095D02*
X175339381Y-121334952D01*
X175339381Y-121334952D02*
X174767953Y-121906380D01*
X174767953Y-121906380D02*
X175387000Y-121906380D01*
X175815572Y-121811142D02*
X175863191Y-121858761D01*
X175863191Y-121858761D02*
X175815572Y-121906380D01*
X175815572Y-121906380D02*
X175767953Y-121858761D01*
X175767953Y-121858761D02*
X175815572Y-121811142D01*
X175815572Y-121811142D02*
X175815572Y-121906380D01*
X176815571Y-121906380D02*
X176244143Y-121906380D01*
X176529857Y-121906380D02*
X176529857Y-120906380D01*
X176529857Y-120906380D02*
X176434619Y-121049238D01*
X176434619Y-121049238D02*
X176339381Y-121144476D01*
X176339381Y-121144476D02*
X176244143Y-121192095D01*
D11*
X170969238Y-89543380D02*
X172969238Y-89543380D01*
X172969238Y-89543380D02*
X171540666Y-90210047D01*
X171540666Y-90210047D02*
X172969238Y-90876713D01*
X172969238Y-90876713D02*
X170969238Y-90876713D01*
X171064476Y-92590999D02*
X170969238Y-92400523D01*
X170969238Y-92400523D02*
X170969238Y-92019570D01*
X170969238Y-92019570D02*
X171064476Y-91829094D01*
X171064476Y-91829094D02*
X171254952Y-91733856D01*
X171254952Y-91733856D02*
X172016857Y-91733856D01*
X172016857Y-91733856D02*
X172207333Y-91829094D01*
X172207333Y-91829094D02*
X172302571Y-92019570D01*
X172302571Y-92019570D02*
X172302571Y-92400523D01*
X172302571Y-92400523D02*
X172207333Y-92590999D01*
X172207333Y-92590999D02*
X172016857Y-92686237D01*
X172016857Y-92686237D02*
X171826380Y-92686237D01*
X171826380Y-92686237D02*
X171635904Y-91733856D01*
X170969238Y-93543380D02*
X172302571Y-93543380D01*
X172112095Y-93543380D02*
X172207333Y-93638618D01*
X172207333Y-93638618D02*
X172302571Y-93829094D01*
X172302571Y-93829094D02*
X172302571Y-94114809D01*
X172302571Y-94114809D02*
X172207333Y-94305285D01*
X172207333Y-94305285D02*
X172016857Y-94400523D01*
X172016857Y-94400523D02*
X170969238Y-94400523D01*
X172016857Y-94400523D02*
X172207333Y-94495761D01*
X172207333Y-94495761D02*
X172302571Y-94686237D01*
X172302571Y-94686237D02*
X172302571Y-94971951D01*
X172302571Y-94971951D02*
X172207333Y-95162428D01*
X172207333Y-95162428D02*
X172016857Y-95257666D01*
X172016857Y-95257666D02*
X170969238Y-95257666D01*
X170969238Y-96495761D02*
X171064476Y-96305285D01*
X171064476Y-96305285D02*
X171159714Y-96210047D01*
X171159714Y-96210047D02*
X171350190Y-96114809D01*
X171350190Y-96114809D02*
X171921619Y-96114809D01*
X171921619Y-96114809D02*
X172112095Y-96210047D01*
X172112095Y-96210047D02*
X172207333Y-96305285D01*
X172207333Y-96305285D02*
X172302571Y-96495761D01*
X172302571Y-96495761D02*
X172302571Y-96781476D01*
X172302571Y-96781476D02*
X172207333Y-96971952D01*
X172207333Y-96971952D02*
X172112095Y-97067190D01*
X172112095Y-97067190D02*
X171921619Y-97162428D01*
X171921619Y-97162428D02*
X171350190Y-97162428D01*
X171350190Y-97162428D02*
X171159714Y-97067190D01*
X171159714Y-97067190D02*
X171064476Y-96971952D01*
X171064476Y-96971952D02*
X170969238Y-96781476D01*
X170969238Y-96781476D02*
X170969238Y-96495761D01*
X170969238Y-98019571D02*
X172302571Y-98019571D01*
X171921619Y-98019571D02*
X172112095Y-98114809D01*
X172112095Y-98114809D02*
X172207333Y-98210047D01*
X172207333Y-98210047D02*
X172302571Y-98400523D01*
X172302571Y-98400523D02*
X172302571Y-98591000D01*
X172302571Y-99067190D02*
X170969238Y-99543380D01*
X172302571Y-100019571D02*
X170969238Y-99543380D01*
X170969238Y-99543380D02*
X170493047Y-99352904D01*
X170493047Y-99352904D02*
X170397809Y-99257666D01*
X170397809Y-99257666D02*
X170302571Y-99067190D01*
X171159714Y-103124333D02*
X171064476Y-103029095D01*
X171064476Y-103029095D02*
X170969238Y-102743381D01*
X170969238Y-102743381D02*
X170969238Y-102552905D01*
X170969238Y-102552905D02*
X171064476Y-102267190D01*
X171064476Y-102267190D02*
X171254952Y-102076714D01*
X171254952Y-102076714D02*
X171445428Y-101981476D01*
X171445428Y-101981476D02*
X171826380Y-101886238D01*
X171826380Y-101886238D02*
X172112095Y-101886238D01*
X172112095Y-101886238D02*
X172493047Y-101981476D01*
X172493047Y-101981476D02*
X172683523Y-102076714D01*
X172683523Y-102076714D02*
X172874000Y-102267190D01*
X172874000Y-102267190D02*
X172969238Y-102552905D01*
X172969238Y-102552905D02*
X172969238Y-102743381D01*
X172969238Y-102743381D02*
X172874000Y-103029095D01*
X172874000Y-103029095D02*
X172778761Y-103124333D01*
X170969238Y-104838619D02*
X172016857Y-104838619D01*
X172016857Y-104838619D02*
X172207333Y-104743381D01*
X172207333Y-104743381D02*
X172302571Y-104552905D01*
X172302571Y-104552905D02*
X172302571Y-104171952D01*
X172302571Y-104171952D02*
X172207333Y-103981476D01*
X171064476Y-104838619D02*
X170969238Y-104648143D01*
X170969238Y-104648143D02*
X170969238Y-104171952D01*
X170969238Y-104171952D02*
X171064476Y-103981476D01*
X171064476Y-103981476D02*
X171254952Y-103886238D01*
X171254952Y-103886238D02*
X171445428Y-103886238D01*
X171445428Y-103886238D02*
X171635904Y-103981476D01*
X171635904Y-103981476D02*
X171731142Y-104171952D01*
X171731142Y-104171952D02*
X171731142Y-104648143D01*
X171731142Y-104648143D02*
X171826380Y-104838619D01*
X170969238Y-105791000D02*
X172302571Y-105791000D01*
X171921619Y-105791000D02*
X172112095Y-105886238D01*
X172112095Y-105886238D02*
X172207333Y-105981476D01*
X172207333Y-105981476D02*
X172302571Y-106171952D01*
X172302571Y-106171952D02*
X172302571Y-106362429D01*
X170969238Y-107886238D02*
X172969238Y-107886238D01*
X171064476Y-107886238D02*
X170969238Y-107695762D01*
X170969238Y-107695762D02*
X170969238Y-107314809D01*
X170969238Y-107314809D02*
X171064476Y-107124333D01*
X171064476Y-107124333D02*
X171159714Y-107029095D01*
X171159714Y-107029095D02*
X171350190Y-106933857D01*
X171350190Y-106933857D02*
X171921619Y-106933857D01*
X171921619Y-106933857D02*
X172112095Y-107029095D01*
X172112095Y-107029095D02*
X172207333Y-107124333D01*
X172207333Y-107124333D02*
X172302571Y-107314809D01*
X172302571Y-107314809D02*
X172302571Y-107695762D01*
X172302571Y-107695762D02*
X172207333Y-107886238D01*
X172969238Y-109848143D02*
X170969238Y-110324333D01*
X170969238Y-110324333D02*
X172397809Y-110705286D01*
X172397809Y-110705286D02*
X170969238Y-111086238D01*
X170969238Y-111086238D02*
X172969238Y-111562429D01*
X170969238Y-112324333D02*
X172302571Y-112324333D01*
X171921619Y-112324333D02*
X172112095Y-112419571D01*
X172112095Y-112419571D02*
X172207333Y-112514809D01*
X172207333Y-112514809D02*
X172302571Y-112705285D01*
X172302571Y-112705285D02*
X172302571Y-112895762D01*
X170969238Y-114419571D02*
X172016857Y-114419571D01*
X172016857Y-114419571D02*
X172207333Y-114324333D01*
X172207333Y-114324333D02*
X172302571Y-114133857D01*
X172302571Y-114133857D02*
X172302571Y-113752904D01*
X172302571Y-113752904D02*
X172207333Y-113562428D01*
X171064476Y-114419571D02*
X170969238Y-114229095D01*
X170969238Y-114229095D02*
X170969238Y-113752904D01*
X170969238Y-113752904D02*
X171064476Y-113562428D01*
X171064476Y-113562428D02*
X171254952Y-113467190D01*
X171254952Y-113467190D02*
X171445428Y-113467190D01*
X171445428Y-113467190D02*
X171635904Y-113562428D01*
X171635904Y-113562428D02*
X171731142Y-113752904D01*
X171731142Y-113752904D02*
X171731142Y-114229095D01*
X171731142Y-114229095D02*
X171826380Y-114419571D01*
X172302571Y-115371952D02*
X170969238Y-115371952D01*
X172112095Y-115371952D02*
X172207333Y-115467190D01*
X172207333Y-115467190D02*
X172302571Y-115657666D01*
X172302571Y-115657666D02*
X172302571Y-115943381D01*
X172302571Y-115943381D02*
X172207333Y-116133857D01*
X172207333Y-116133857D02*
X172016857Y-116229095D01*
X172016857Y-116229095D02*
X170969238Y-116229095D01*
X172302571Y-118038619D02*
X170683523Y-118038619D01*
X170683523Y-118038619D02*
X170493047Y-117943381D01*
X170493047Y-117943381D02*
X170397809Y-117848143D01*
X170397809Y-117848143D02*
X170302571Y-117657666D01*
X170302571Y-117657666D02*
X170302571Y-117371952D01*
X170302571Y-117371952D02*
X170397809Y-117181476D01*
X171064476Y-118038619D02*
X170969238Y-117848143D01*
X170969238Y-117848143D02*
X170969238Y-117467190D01*
X170969238Y-117467190D02*
X171064476Y-117276714D01*
X171064476Y-117276714D02*
X171159714Y-117181476D01*
X171159714Y-117181476D02*
X171350190Y-117086238D01*
X171350190Y-117086238D02*
X171921619Y-117086238D01*
X171921619Y-117086238D02*
X172112095Y-117181476D01*
X172112095Y-117181476D02*
X172207333Y-117276714D01*
X172207333Y-117276714D02*
X172302571Y-117467190D01*
X172302571Y-117467190D02*
X172302571Y-117848143D01*
X172302571Y-117848143D02*
X172207333Y-118038619D01*
X170969238Y-119276714D02*
X171064476Y-119086238D01*
X171064476Y-119086238D02*
X171254952Y-118991000D01*
X171254952Y-118991000D02*
X172969238Y-118991000D01*
X171064476Y-120800524D02*
X170969238Y-120610048D01*
X170969238Y-120610048D02*
X170969238Y-120229095D01*
X170969238Y-120229095D02*
X171064476Y-120038619D01*
X171064476Y-120038619D02*
X171254952Y-119943381D01*
X171254952Y-119943381D02*
X172016857Y-119943381D01*
X172016857Y-119943381D02*
X172207333Y-120038619D01*
X172207333Y-120038619D02*
X172302571Y-120229095D01*
X172302571Y-120229095D02*
X172302571Y-120610048D01*
X172302571Y-120610048D02*
X172207333Y-120800524D01*
X172207333Y-120800524D02*
X172016857Y-120895762D01*
X172016857Y-120895762D02*
X171826380Y-120895762D01*
X171826380Y-120895762D02*
X171635904Y-119943381D01*
X170969238Y-121752905D02*
X172302571Y-121752905D01*
X171921619Y-121752905D02*
X172112095Y-121848143D01*
X172112095Y-121848143D02*
X172207333Y-121943381D01*
X172207333Y-121943381D02*
X172302571Y-122133857D01*
X172302571Y-122133857D02*
X172302571Y-122324334D01*
D12*
X175046857Y-90276571D02*
X178046857Y-90276571D01*
X178046857Y-90276571D02*
X178046857Y-90990857D01*
X178046857Y-90990857D02*
X177904000Y-91419428D01*
X177904000Y-91419428D02*
X177618285Y-91705143D01*
X177618285Y-91705143D02*
X177332571Y-91848000D01*
X177332571Y-91848000D02*
X176761142Y-91990857D01*
X176761142Y-91990857D02*
X176332571Y-91990857D01*
X176332571Y-91990857D02*
X175761142Y-91848000D01*
X175761142Y-91848000D02*
X175475428Y-91705143D01*
X175475428Y-91705143D02*
X175189714Y-91419428D01*
X175189714Y-91419428D02*
X175046857Y-90990857D01*
X175046857Y-90990857D02*
X175046857Y-90276571D01*
X175046857Y-94562286D02*
X176618285Y-94562286D01*
X176618285Y-94562286D02*
X176904000Y-94419428D01*
X176904000Y-94419428D02*
X177046857Y-94133714D01*
X177046857Y-94133714D02*
X177046857Y-93562286D01*
X177046857Y-93562286D02*
X176904000Y-93276571D01*
X175189714Y-94562286D02*
X175046857Y-94276571D01*
X175046857Y-94276571D02*
X175046857Y-93562286D01*
X175046857Y-93562286D02*
X175189714Y-93276571D01*
X175189714Y-93276571D02*
X175475428Y-93133714D01*
X175475428Y-93133714D02*
X175761142Y-93133714D01*
X175761142Y-93133714D02*
X176046857Y-93276571D01*
X176046857Y-93276571D02*
X176189714Y-93562286D01*
X176189714Y-93562286D02*
X176189714Y-94276571D01*
X176189714Y-94276571D02*
X176332571Y-94562286D01*
X177046857Y-95562286D02*
X177046857Y-96705143D01*
X178046857Y-95990857D02*
X175475428Y-95990857D01*
X175475428Y-95990857D02*
X175189714Y-96133714D01*
X175189714Y-96133714D02*
X175046857Y-96419429D01*
X175046857Y-96419429D02*
X175046857Y-96705143D01*
X175046857Y-98990858D02*
X176618285Y-98990858D01*
X176618285Y-98990858D02*
X176904000Y-98848000D01*
X176904000Y-98848000D02*
X177046857Y-98562286D01*
X177046857Y-98562286D02*
X177046857Y-97990858D01*
X177046857Y-97990858D02*
X176904000Y-97705143D01*
X175189714Y-98990858D02*
X175046857Y-98705143D01*
X175046857Y-98705143D02*
X175046857Y-97990858D01*
X175046857Y-97990858D02*
X175189714Y-97705143D01*
X175189714Y-97705143D02*
X175475428Y-97562286D01*
X175475428Y-97562286D02*
X175761142Y-97562286D01*
X175761142Y-97562286D02*
X176046857Y-97705143D01*
X176046857Y-97705143D02*
X176189714Y-97990858D01*
X176189714Y-97990858D02*
X176189714Y-98705143D01*
X176189714Y-98705143D02*
X176332571Y-98990858D01*
X175046857Y-102219429D02*
X178046857Y-102219429D01*
X178189714Y-105790857D02*
X174332571Y-103219429D01*
X178046857Y-107362286D02*
X178046857Y-107933714D01*
X178046857Y-107933714D02*
X177904000Y-108219429D01*
X177904000Y-108219429D02*
X177618285Y-108505143D01*
X177618285Y-108505143D02*
X177046857Y-108648000D01*
X177046857Y-108648000D02*
X176046857Y-108648000D01*
X176046857Y-108648000D02*
X175475428Y-108505143D01*
X175475428Y-108505143D02*
X175189714Y-108219429D01*
X175189714Y-108219429D02*
X175046857Y-107933714D01*
X175046857Y-107933714D02*
X175046857Y-107362286D01*
X175046857Y-107362286D02*
X175189714Y-107076572D01*
X175189714Y-107076572D02*
X175475428Y-106790857D01*
X175475428Y-106790857D02*
X176046857Y-106648000D01*
X176046857Y-106648000D02*
X177046857Y-106648000D01*
X177046857Y-106648000D02*
X177618285Y-106790857D01*
X177618285Y-106790857D02*
X177904000Y-107076572D01*
X177904000Y-107076572D02*
X178046857Y-107362286D01*
X177761142Y-111590857D02*
X177904000Y-111733714D01*
X177904000Y-111733714D02*
X178046857Y-112019429D01*
X178046857Y-112019429D02*
X178046857Y-112733714D01*
X178046857Y-112733714D02*
X177904000Y-113019429D01*
X177904000Y-113019429D02*
X177761142Y-113162286D01*
X177761142Y-113162286D02*
X177475428Y-113305143D01*
X177475428Y-113305143D02*
X177189714Y-113305143D01*
X177189714Y-113305143D02*
X176761142Y-113162286D01*
X176761142Y-113162286D02*
X175046857Y-111448000D01*
X175046857Y-111448000D02*
X175046857Y-113305143D01*
X175046857Y-114733714D02*
X175046857Y-115305143D01*
X175046857Y-115305143D02*
X175189714Y-115590857D01*
X175189714Y-115590857D02*
X175332571Y-115733714D01*
X175332571Y-115733714D02*
X175761142Y-116019429D01*
X175761142Y-116019429D02*
X176332571Y-116162286D01*
X176332571Y-116162286D02*
X177475428Y-116162286D01*
X177475428Y-116162286D02*
X177761142Y-116019429D01*
X177761142Y-116019429D02*
X177904000Y-115876572D01*
X177904000Y-115876572D02*
X178046857Y-115590857D01*
X178046857Y-115590857D02*
X178046857Y-115019429D01*
X178046857Y-115019429D02*
X177904000Y-114733714D01*
X177904000Y-114733714D02*
X177761142Y-114590857D01*
X177761142Y-114590857D02*
X177475428Y-114448000D01*
X177475428Y-114448000D02*
X176761142Y-114448000D01*
X176761142Y-114448000D02*
X176475428Y-114590857D01*
X176475428Y-114590857D02*
X176332571Y-114733714D01*
X176332571Y-114733714D02*
X176189714Y-115019429D01*
X176189714Y-115019429D02*
X176189714Y-115590857D01*
X176189714Y-115590857D02*
X176332571Y-115876572D01*
X176332571Y-115876572D02*
X176475428Y-116019429D01*
X176475428Y-116019429D02*
X176761142Y-116162286D01*
X176618285Y-118448000D02*
X176475428Y-118876572D01*
X176475428Y-118876572D02*
X176332571Y-119019429D01*
X176332571Y-119019429D02*
X176046857Y-119162286D01*
X176046857Y-119162286D02*
X175618285Y-119162286D01*
X175618285Y-119162286D02*
X175332571Y-119019429D01*
X175332571Y-119019429D02*
X175189714Y-118876572D01*
X175189714Y-118876572D02*
X175046857Y-118590857D01*
X175046857Y-118590857D02*
X175046857Y-117448000D01*
X175046857Y-117448000D02*
X178046857Y-117448000D01*
X178046857Y-117448000D02*
X178046857Y-118448000D01*
X178046857Y-118448000D02*
X177904000Y-118733715D01*
X177904000Y-118733715D02*
X177761142Y-118876572D01*
X177761142Y-118876572D02*
X177475428Y-119019429D01*
X177475428Y-119019429D02*
X177189714Y-119019429D01*
X177189714Y-119019429D02*
X176904000Y-118876572D01*
X176904000Y-118876572D02*
X176761142Y-118733715D01*
X176761142Y-118733715D02*
X176618285Y-118448000D01*
X176618285Y-118448000D02*
X176618285Y-117448000D01*
D10*
X149524333Y-98026237D02*
X149524333Y-98502427D01*
X149238619Y-97930999D02*
X150238619Y-98264332D01*
X150238619Y-98264332D02*
X149238619Y-98597665D01*
X149238619Y-99530999D02*
X150238619Y-99530999D01*
X150238619Y-99530999D02*
X149238619Y-100102427D01*
X149238619Y-100102427D02*
X150238619Y-100102427D01*
X149238619Y-100578618D02*
X149905285Y-100578618D01*
X150238619Y-100578618D02*
X150191000Y-100530999D01*
X150191000Y-100530999D02*
X150143380Y-100578618D01*
X150143380Y-100578618D02*
X150191000Y-100626237D01*
X150191000Y-100626237D02*
X150238619Y-100578618D01*
X150238619Y-100578618D02*
X150143380Y-100578618D01*
X149905285Y-100959570D02*
X149238619Y-101197665D01*
X149238619Y-101197665D02*
X149905285Y-101435760D01*
X149238619Y-102245284D02*
X149762428Y-102245284D01*
X149762428Y-102245284D02*
X149857666Y-102197665D01*
X149857666Y-102197665D02*
X149905285Y-102102427D01*
X149905285Y-102102427D02*
X149905285Y-101911951D01*
X149905285Y-101911951D02*
X149857666Y-101816713D01*
X149286238Y-102245284D02*
X149238619Y-102150046D01*
X149238619Y-102150046D02*
X149238619Y-101911951D01*
X149238619Y-101911951D02*
X149286238Y-101816713D01*
X149286238Y-101816713D02*
X149381476Y-101769094D01*
X149381476Y-101769094D02*
X149476714Y-101769094D01*
X149476714Y-101769094D02*
X149571952Y-101816713D01*
X149571952Y-101816713D02*
X149619571Y-101911951D01*
X149619571Y-101911951D02*
X149619571Y-102150046D01*
X149619571Y-102150046D02*
X149667190Y-102245284D01*
X149905285Y-103150046D02*
X149095761Y-103150046D01*
X149095761Y-103150046D02*
X149000523Y-103102427D01*
X149000523Y-103102427D02*
X148952904Y-103054808D01*
X148952904Y-103054808D02*
X148905285Y-102959570D01*
X148905285Y-102959570D02*
X148905285Y-102816713D01*
X148905285Y-102816713D02*
X148952904Y-102721475D01*
X149286238Y-103150046D02*
X149238619Y-103054808D01*
X149238619Y-103054808D02*
X149238619Y-102864332D01*
X149238619Y-102864332D02*
X149286238Y-102769094D01*
X149286238Y-102769094D02*
X149333857Y-102721475D01*
X149333857Y-102721475D02*
X149429095Y-102673856D01*
X149429095Y-102673856D02*
X149714809Y-102673856D01*
X149714809Y-102673856D02*
X149810047Y-102721475D01*
X149810047Y-102721475D02*
X149857666Y-102769094D01*
X149857666Y-102769094D02*
X149905285Y-102864332D01*
X149905285Y-102864332D02*
X149905285Y-103054808D01*
X149905285Y-103054808D02*
X149857666Y-103150046D01*
X149286238Y-104178618D02*
X149238619Y-104321475D01*
X149238619Y-104321475D02*
X149238619Y-104559570D01*
X149238619Y-104559570D02*
X149286238Y-104654808D01*
X149286238Y-104654808D02*
X149333857Y-104702427D01*
X149333857Y-104702427D02*
X149429095Y-104750046D01*
X149429095Y-104750046D02*
X149524333Y-104750046D01*
X149524333Y-104750046D02*
X149619571Y-104702427D01*
X149619571Y-104702427D02*
X149667190Y-104654808D01*
X149667190Y-104654808D02*
X149714809Y-104559570D01*
X149714809Y-104559570D02*
X149762428Y-104369094D01*
X149762428Y-104369094D02*
X149810047Y-104273856D01*
X149810047Y-104273856D02*
X149857666Y-104226237D01*
X149857666Y-104226237D02*
X149952904Y-104178618D01*
X149952904Y-104178618D02*
X150048142Y-104178618D01*
X150048142Y-104178618D02*
X150143380Y-104226237D01*
X150143380Y-104226237D02*
X150191000Y-104273856D01*
X150191000Y-104273856D02*
X150238619Y-104369094D01*
X150238619Y-104369094D02*
X150238619Y-104607189D01*
X150238619Y-104607189D02*
X150191000Y-104750046D01*
X149905285Y-105083380D02*
X149238619Y-105273856D01*
X149238619Y-105273856D02*
X149714809Y-105464332D01*
X149714809Y-105464332D02*
X149238619Y-105654808D01*
X149238619Y-105654808D02*
X149905285Y-105845284D01*
X149286238Y-106607189D02*
X149238619Y-106511951D01*
X149238619Y-106511951D02*
X149238619Y-106321475D01*
X149238619Y-106321475D02*
X149286238Y-106226237D01*
X149286238Y-106226237D02*
X149381476Y-106178618D01*
X149381476Y-106178618D02*
X149762428Y-106178618D01*
X149762428Y-106178618D02*
X149857666Y-106226237D01*
X149857666Y-106226237D02*
X149905285Y-106321475D01*
X149905285Y-106321475D02*
X149905285Y-106511951D01*
X149905285Y-106511951D02*
X149857666Y-106607189D01*
X149857666Y-106607189D02*
X149762428Y-106654808D01*
X149762428Y-106654808D02*
X149667190Y-106654808D01*
X149667190Y-106654808D02*
X149571952Y-106178618D01*
X149238619Y-107083380D02*
X149905285Y-107083380D01*
X149714809Y-107083380D02*
X149810047Y-107130999D01*
X149810047Y-107130999D02*
X149857666Y-107178618D01*
X149857666Y-107178618D02*
X149905285Y-107273856D01*
X149905285Y-107273856D02*
X149905285Y-107369094D01*
X149238619Y-108130999D02*
X150238619Y-108130999D01*
X149286238Y-108130999D02*
X149238619Y-108035761D01*
X149238619Y-108035761D02*
X149238619Y-107845285D01*
X149238619Y-107845285D02*
X149286238Y-107750047D01*
X149286238Y-107750047D02*
X149333857Y-107702428D01*
X149333857Y-107702428D02*
X149429095Y-107654809D01*
X149429095Y-107654809D02*
X149714809Y-107654809D01*
X149714809Y-107654809D02*
X149810047Y-107702428D01*
X149810047Y-107702428D02*
X149857666Y-107750047D01*
X149857666Y-107750047D02*
X149905285Y-107845285D01*
X149905285Y-107845285D02*
X149905285Y-108035761D01*
X149905285Y-108035761D02*
X149857666Y-108130999D01*
X149905285Y-108607190D02*
X149238619Y-108607190D01*
X149810047Y-108607190D02*
X149857666Y-108654809D01*
X149857666Y-108654809D02*
X149905285Y-108750047D01*
X149905285Y-108750047D02*
X149905285Y-108892904D01*
X149905285Y-108892904D02*
X149857666Y-108988142D01*
X149857666Y-108988142D02*
X149762428Y-109035761D01*
X149762428Y-109035761D02*
X149238619Y-109035761D01*
X149238619Y-109940523D02*
X149762428Y-109940523D01*
X149762428Y-109940523D02*
X149857666Y-109892904D01*
X149857666Y-109892904D02*
X149905285Y-109797666D01*
X149905285Y-109797666D02*
X149905285Y-109607190D01*
X149905285Y-109607190D02*
X149857666Y-109511952D01*
X149286238Y-109940523D02*
X149238619Y-109845285D01*
X149238619Y-109845285D02*
X149238619Y-109607190D01*
X149238619Y-109607190D02*
X149286238Y-109511952D01*
X149286238Y-109511952D02*
X149381476Y-109464333D01*
X149381476Y-109464333D02*
X149476714Y-109464333D01*
X149476714Y-109464333D02*
X149571952Y-109511952D01*
X149571952Y-109511952D02*
X149619571Y-109607190D01*
X149619571Y-109607190D02*
X149619571Y-109845285D01*
X149619571Y-109845285D02*
X149667190Y-109940523D01*
X149238619Y-111016714D02*
X150238619Y-111016714D01*
X150238619Y-111016714D02*
X150238619Y-111397666D01*
X150238619Y-111397666D02*
X150191000Y-111492904D01*
X150191000Y-111492904D02*
X150143380Y-111540523D01*
X150143380Y-111540523D02*
X150048142Y-111588142D01*
X150048142Y-111588142D02*
X149905285Y-111588142D01*
X149905285Y-111588142D02*
X149810047Y-111540523D01*
X149810047Y-111540523D02*
X149762428Y-111492904D01*
X149762428Y-111492904D02*
X149714809Y-111397666D01*
X149714809Y-111397666D02*
X149714809Y-111016714D01*
X149238619Y-112016714D02*
X149905285Y-112016714D01*
X149714809Y-112016714D02*
X149810047Y-112064333D01*
X149810047Y-112064333D02*
X149857666Y-112111952D01*
X149857666Y-112111952D02*
X149905285Y-112207190D01*
X149905285Y-112207190D02*
X149905285Y-112302428D01*
X149238619Y-112778619D02*
X149286238Y-112683381D01*
X149286238Y-112683381D02*
X149333857Y-112635762D01*
X149333857Y-112635762D02*
X149429095Y-112588143D01*
X149429095Y-112588143D02*
X149714809Y-112588143D01*
X149714809Y-112588143D02*
X149810047Y-112635762D01*
X149810047Y-112635762D02*
X149857666Y-112683381D01*
X149857666Y-112683381D02*
X149905285Y-112778619D01*
X149905285Y-112778619D02*
X149905285Y-112921476D01*
X149905285Y-112921476D02*
X149857666Y-113016714D01*
X149857666Y-113016714D02*
X149810047Y-113064333D01*
X149810047Y-113064333D02*
X149714809Y-113111952D01*
X149714809Y-113111952D02*
X149429095Y-113111952D01*
X149429095Y-113111952D02*
X149333857Y-113064333D01*
X149333857Y-113064333D02*
X149286238Y-113016714D01*
X149286238Y-113016714D02*
X149238619Y-112921476D01*
X149238619Y-112921476D02*
X149238619Y-112778619D01*
X149238619Y-113969095D02*
X150238619Y-113969095D01*
X149286238Y-113969095D02*
X149238619Y-113873857D01*
X149238619Y-113873857D02*
X149238619Y-113683381D01*
X149238619Y-113683381D02*
X149286238Y-113588143D01*
X149286238Y-113588143D02*
X149333857Y-113540524D01*
X149333857Y-113540524D02*
X149429095Y-113492905D01*
X149429095Y-113492905D02*
X149714809Y-113492905D01*
X149714809Y-113492905D02*
X149810047Y-113540524D01*
X149810047Y-113540524D02*
X149857666Y-113588143D01*
X149857666Y-113588143D02*
X149905285Y-113683381D01*
X149905285Y-113683381D02*
X149905285Y-113873857D01*
X149905285Y-113873857D02*
X149857666Y-113969095D01*
X149905285Y-114873857D02*
X149238619Y-114873857D01*
X149905285Y-114445286D02*
X149381476Y-114445286D01*
X149381476Y-114445286D02*
X149286238Y-114492905D01*
X149286238Y-114492905D02*
X149238619Y-114588143D01*
X149238619Y-114588143D02*
X149238619Y-114731000D01*
X149238619Y-114731000D02*
X149286238Y-114826238D01*
X149286238Y-114826238D02*
X149333857Y-114873857D01*
X149286238Y-115778619D02*
X149238619Y-115683381D01*
X149238619Y-115683381D02*
X149238619Y-115492905D01*
X149238619Y-115492905D02*
X149286238Y-115397667D01*
X149286238Y-115397667D02*
X149333857Y-115350048D01*
X149333857Y-115350048D02*
X149429095Y-115302429D01*
X149429095Y-115302429D02*
X149714809Y-115302429D01*
X149714809Y-115302429D02*
X149810047Y-115350048D01*
X149810047Y-115350048D02*
X149857666Y-115397667D01*
X149857666Y-115397667D02*
X149905285Y-115492905D01*
X149905285Y-115492905D02*
X149905285Y-115683381D01*
X149905285Y-115683381D02*
X149857666Y-115778619D01*
X149905285Y-116064334D02*
X149905285Y-116445286D01*
X150238619Y-116207191D02*
X149381476Y-116207191D01*
X149381476Y-116207191D02*
X149286238Y-116254810D01*
X149286238Y-116254810D02*
X149238619Y-116350048D01*
X149238619Y-116350048D02*
X149238619Y-116445286D01*
X149238619Y-116778620D02*
X149905285Y-116778620D01*
X150238619Y-116778620D02*
X150191000Y-116731001D01*
X150191000Y-116731001D02*
X150143380Y-116778620D01*
X150143380Y-116778620D02*
X150191000Y-116826239D01*
X150191000Y-116826239D02*
X150238619Y-116778620D01*
X150238619Y-116778620D02*
X150143380Y-116778620D01*
X149238619Y-117397667D02*
X149286238Y-117302429D01*
X149286238Y-117302429D02*
X149333857Y-117254810D01*
X149333857Y-117254810D02*
X149429095Y-117207191D01*
X149429095Y-117207191D02*
X149714809Y-117207191D01*
X149714809Y-117207191D02*
X149810047Y-117254810D01*
X149810047Y-117254810D02*
X149857666Y-117302429D01*
X149857666Y-117302429D02*
X149905285Y-117397667D01*
X149905285Y-117397667D02*
X149905285Y-117540524D01*
X149905285Y-117540524D02*
X149857666Y-117635762D01*
X149857666Y-117635762D02*
X149810047Y-117683381D01*
X149810047Y-117683381D02*
X149714809Y-117731000D01*
X149714809Y-117731000D02*
X149429095Y-117731000D01*
X149429095Y-117731000D02*
X149333857Y-117683381D01*
X149333857Y-117683381D02*
X149286238Y-117635762D01*
X149286238Y-117635762D02*
X149238619Y-117540524D01*
X149238619Y-117540524D02*
X149238619Y-117397667D01*
X149905285Y-118159572D02*
X149238619Y-118159572D01*
X149810047Y-118159572D02*
X149857666Y-118207191D01*
X149857666Y-118207191D02*
X149905285Y-118302429D01*
X149905285Y-118302429D02*
X149905285Y-118445286D01*
X149905285Y-118445286D02*
X149857666Y-118540524D01*
X149857666Y-118540524D02*
X149762428Y-118588143D01*
X149762428Y-118588143D02*
X149238619Y-118588143D01*
X146825666Y-104284809D02*
X146873285Y-104237190D01*
X146873285Y-104237190D02*
X147016142Y-104141952D01*
X147016142Y-104141952D02*
X147111380Y-104094333D01*
X147111380Y-104094333D02*
X147254238Y-104046714D01*
X147254238Y-104046714D02*
X147492333Y-103999095D01*
X147492333Y-103999095D02*
X147682809Y-103999095D01*
X147682809Y-103999095D02*
X147920904Y-104046714D01*
X147920904Y-104046714D02*
X148063761Y-104094333D01*
X148063761Y-104094333D02*
X148159000Y-104141952D01*
X148159000Y-104141952D02*
X148301857Y-104237190D01*
X148301857Y-104237190D02*
X148349476Y-104284809D01*
X147254238Y-105094333D02*
X147206619Y-104999095D01*
X147206619Y-104999095D02*
X147206619Y-104808619D01*
X147206619Y-104808619D02*
X147254238Y-104713381D01*
X147254238Y-104713381D02*
X147301857Y-104665762D01*
X147301857Y-104665762D02*
X147397095Y-104618143D01*
X147397095Y-104618143D02*
X147682809Y-104618143D01*
X147682809Y-104618143D02*
X147778047Y-104665762D01*
X147778047Y-104665762D02*
X147825666Y-104713381D01*
X147825666Y-104713381D02*
X147873285Y-104808619D01*
X147873285Y-104808619D02*
X147873285Y-104999095D01*
X147873285Y-104999095D02*
X147825666Y-105094333D01*
X146825666Y-105427667D02*
X146873285Y-105475286D01*
X146873285Y-105475286D02*
X147016142Y-105570524D01*
X147016142Y-105570524D02*
X147111380Y-105618143D01*
X147111380Y-105618143D02*
X147254238Y-105665762D01*
X147254238Y-105665762D02*
X147492333Y-105713381D01*
X147492333Y-105713381D02*
X147682809Y-105713381D01*
X147682809Y-105713381D02*
X147920904Y-105665762D01*
X147920904Y-105665762D02*
X148063761Y-105618143D01*
X148063761Y-105618143D02*
X148159000Y-105570524D01*
X148159000Y-105570524D02*
X148301857Y-105475286D01*
X148301857Y-105475286D02*
X148349476Y-105427667D01*
X148111380Y-106741953D02*
X148159000Y-106789572D01*
X148159000Y-106789572D02*
X148206619Y-106884810D01*
X148206619Y-106884810D02*
X148206619Y-107122905D01*
X148206619Y-107122905D02*
X148159000Y-107218143D01*
X148159000Y-107218143D02*
X148111380Y-107265762D01*
X148111380Y-107265762D02*
X148016142Y-107313381D01*
X148016142Y-107313381D02*
X147920904Y-107313381D01*
X147920904Y-107313381D02*
X147778047Y-107265762D01*
X147778047Y-107265762D02*
X147206619Y-106694334D01*
X147206619Y-106694334D02*
X147206619Y-107313381D01*
X148206619Y-107932429D02*
X148206619Y-108027667D01*
X148206619Y-108027667D02*
X148159000Y-108122905D01*
X148159000Y-108122905D02*
X148111380Y-108170524D01*
X148111380Y-108170524D02*
X148016142Y-108218143D01*
X148016142Y-108218143D02*
X147825666Y-108265762D01*
X147825666Y-108265762D02*
X147587571Y-108265762D01*
X147587571Y-108265762D02*
X147397095Y-108218143D01*
X147397095Y-108218143D02*
X147301857Y-108170524D01*
X147301857Y-108170524D02*
X147254238Y-108122905D01*
X147254238Y-108122905D02*
X147206619Y-108027667D01*
X147206619Y-108027667D02*
X147206619Y-107932429D01*
X147206619Y-107932429D02*
X147254238Y-107837191D01*
X147254238Y-107837191D02*
X147301857Y-107789572D01*
X147301857Y-107789572D02*
X147397095Y-107741953D01*
X147397095Y-107741953D02*
X147587571Y-107694334D01*
X147587571Y-107694334D02*
X147825666Y-107694334D01*
X147825666Y-107694334D02*
X148016142Y-107741953D01*
X148016142Y-107741953D02*
X148111380Y-107789572D01*
X148111380Y-107789572D02*
X148159000Y-107837191D01*
X148159000Y-107837191D02*
X148206619Y-107932429D01*
X148111380Y-108646715D02*
X148159000Y-108694334D01*
X148159000Y-108694334D02*
X148206619Y-108789572D01*
X148206619Y-108789572D02*
X148206619Y-109027667D01*
X148206619Y-109027667D02*
X148159000Y-109122905D01*
X148159000Y-109122905D02*
X148111380Y-109170524D01*
X148111380Y-109170524D02*
X148016142Y-109218143D01*
X148016142Y-109218143D02*
X147920904Y-109218143D01*
X147920904Y-109218143D02*
X147778047Y-109170524D01*
X147778047Y-109170524D02*
X147206619Y-108599096D01*
X147206619Y-108599096D02*
X147206619Y-109218143D01*
X148206619Y-109551477D02*
X148206619Y-110170524D01*
X148206619Y-110170524D02*
X147825666Y-109837191D01*
X147825666Y-109837191D02*
X147825666Y-109980048D01*
X147825666Y-109980048D02*
X147778047Y-110075286D01*
X147778047Y-110075286D02*
X147730428Y-110122905D01*
X147730428Y-110122905D02*
X147635190Y-110170524D01*
X147635190Y-110170524D02*
X147397095Y-110170524D01*
X147397095Y-110170524D02*
X147301857Y-110122905D01*
X147301857Y-110122905D02*
X147254238Y-110075286D01*
X147254238Y-110075286D02*
X147206619Y-109980048D01*
X147206619Y-109980048D02*
X147206619Y-109694334D01*
X147206619Y-109694334D02*
X147254238Y-109599096D01*
X147254238Y-109599096D02*
X147301857Y-109551477D01*
D13*
%TO.C,U18*%
X119157905Y-103761380D02*
X119157905Y-104570904D01*
X119157905Y-104570904D02*
X119205524Y-104666142D01*
X119205524Y-104666142D02*
X119253143Y-104713761D01*
X119253143Y-104713761D02*
X119348381Y-104761380D01*
X119348381Y-104761380D02*
X119538857Y-104761380D01*
X119538857Y-104761380D02*
X119634095Y-104713761D01*
X119634095Y-104713761D02*
X119681714Y-104666142D01*
X119681714Y-104666142D02*
X119729333Y-104570904D01*
X119729333Y-104570904D02*
X119729333Y-103761380D01*
X120729333Y-104761380D02*
X120157905Y-104761380D01*
X120443619Y-104761380D02*
X120443619Y-103761380D01*
X120443619Y-103761380D02*
X120348381Y-103904238D01*
X120348381Y-103904238D02*
X120253143Y-103999476D01*
X120253143Y-103999476D02*
X120157905Y-104047095D01*
X121300762Y-104189952D02*
X121205524Y-104142333D01*
X121205524Y-104142333D02*
X121157905Y-104094714D01*
X121157905Y-104094714D02*
X121110286Y-103999476D01*
X121110286Y-103999476D02*
X121110286Y-103951857D01*
X121110286Y-103951857D02*
X121157905Y-103856619D01*
X121157905Y-103856619D02*
X121205524Y-103809000D01*
X121205524Y-103809000D02*
X121300762Y-103761380D01*
X121300762Y-103761380D02*
X121491238Y-103761380D01*
X121491238Y-103761380D02*
X121586476Y-103809000D01*
X121586476Y-103809000D02*
X121634095Y-103856619D01*
X121634095Y-103856619D02*
X121681714Y-103951857D01*
X121681714Y-103951857D02*
X121681714Y-103999476D01*
X121681714Y-103999476D02*
X121634095Y-104094714D01*
X121634095Y-104094714D02*
X121586476Y-104142333D01*
X121586476Y-104142333D02*
X121491238Y-104189952D01*
X121491238Y-104189952D02*
X121300762Y-104189952D01*
X121300762Y-104189952D02*
X121205524Y-104237571D01*
X121205524Y-104237571D02*
X121157905Y-104285190D01*
X121157905Y-104285190D02*
X121110286Y-104380428D01*
X121110286Y-104380428D02*
X121110286Y-104570904D01*
X121110286Y-104570904D02*
X121157905Y-104666142D01*
X121157905Y-104666142D02*
X121205524Y-104713761D01*
X121205524Y-104713761D02*
X121300762Y-104761380D01*
X121300762Y-104761380D02*
X121491238Y-104761380D01*
X121491238Y-104761380D02*
X121586476Y-104713761D01*
X121586476Y-104713761D02*
X121634095Y-104666142D01*
X121634095Y-104666142D02*
X121681714Y-104570904D01*
X121681714Y-104570904D02*
X121681714Y-104380428D01*
X121681714Y-104380428D02*
X121634095Y-104285190D01*
X121634095Y-104285190D02*
X121586476Y-104237571D01*
X121586476Y-104237571D02*
X121491238Y-104189952D01*
%TO.C,U7*%
X146050095Y-76329380D02*
X146050095Y-77138904D01*
X146050095Y-77138904D02*
X146097714Y-77234142D01*
X146097714Y-77234142D02*
X146145333Y-77281761D01*
X146145333Y-77281761D02*
X146240571Y-77329380D01*
X146240571Y-77329380D02*
X146431047Y-77329380D01*
X146431047Y-77329380D02*
X146526285Y-77281761D01*
X146526285Y-77281761D02*
X146573904Y-77234142D01*
X146573904Y-77234142D02*
X146621523Y-77138904D01*
X146621523Y-77138904D02*
X146621523Y-76329380D01*
X147002476Y-76329380D02*
X147669142Y-76329380D01*
X147669142Y-76329380D02*
X147240571Y-77329380D01*
%TO.C,U14*%
X139223905Y-88394380D02*
X139223905Y-89203904D01*
X139223905Y-89203904D02*
X139271524Y-89299142D01*
X139271524Y-89299142D02*
X139319143Y-89346761D01*
X139319143Y-89346761D02*
X139414381Y-89394380D01*
X139414381Y-89394380D02*
X139604857Y-89394380D01*
X139604857Y-89394380D02*
X139700095Y-89346761D01*
X139700095Y-89346761D02*
X139747714Y-89299142D01*
X139747714Y-89299142D02*
X139795333Y-89203904D01*
X139795333Y-89203904D02*
X139795333Y-88394380D01*
X140795333Y-89394380D02*
X140223905Y-89394380D01*
X140509619Y-89394380D02*
X140509619Y-88394380D01*
X140509619Y-88394380D02*
X140414381Y-88537238D01*
X140414381Y-88537238D02*
X140319143Y-88632476D01*
X140319143Y-88632476D02*
X140223905Y-88680095D01*
X141652476Y-88727714D02*
X141652476Y-89394380D01*
X141414381Y-88346761D02*
X141176286Y-89061047D01*
X141176286Y-89061047D02*
X141795333Y-89061047D01*
%TO.C,U19*%
X139223905Y-111889380D02*
X139223905Y-112698904D01*
X139223905Y-112698904D02*
X139271524Y-112794142D01*
X139271524Y-112794142D02*
X139319143Y-112841761D01*
X139319143Y-112841761D02*
X139414381Y-112889380D01*
X139414381Y-112889380D02*
X139604857Y-112889380D01*
X139604857Y-112889380D02*
X139700095Y-112841761D01*
X139700095Y-112841761D02*
X139747714Y-112794142D01*
X139747714Y-112794142D02*
X139795333Y-112698904D01*
X139795333Y-112698904D02*
X139795333Y-111889380D01*
X140795333Y-112889380D02*
X140223905Y-112889380D01*
X140509619Y-112889380D02*
X140509619Y-111889380D01*
X140509619Y-111889380D02*
X140414381Y-112032238D01*
X140414381Y-112032238D02*
X140319143Y-112127476D01*
X140319143Y-112127476D02*
X140223905Y-112175095D01*
X141271524Y-112889380D02*
X141462000Y-112889380D01*
X141462000Y-112889380D02*
X141557238Y-112841761D01*
X141557238Y-112841761D02*
X141604857Y-112794142D01*
X141604857Y-112794142D02*
X141700095Y-112651285D01*
X141700095Y-112651285D02*
X141747714Y-112460809D01*
X141747714Y-112460809D02*
X141747714Y-112079857D01*
X141747714Y-112079857D02*
X141700095Y-111984619D01*
X141700095Y-111984619D02*
X141652476Y-111937000D01*
X141652476Y-111937000D02*
X141557238Y-111889380D01*
X141557238Y-111889380D02*
X141366762Y-111889380D01*
X141366762Y-111889380D02*
X141271524Y-111937000D01*
X141271524Y-111937000D02*
X141223905Y-111984619D01*
X141223905Y-111984619D02*
X141176286Y-112079857D01*
X141176286Y-112079857D02*
X141176286Y-112317952D01*
X141176286Y-112317952D02*
X141223905Y-112413190D01*
X141223905Y-112413190D02*
X141271524Y-112460809D01*
X141271524Y-112460809D02*
X141366762Y-112508428D01*
X141366762Y-112508428D02*
X141557238Y-112508428D01*
X141557238Y-112508428D02*
X141652476Y-112460809D01*
X141652476Y-112460809D02*
X141700095Y-112413190D01*
X141700095Y-112413190D02*
X141747714Y-112317952D01*
%TO.C,U1*%
X124263880Y-92515904D02*
X125073404Y-92515904D01*
X125073404Y-92515904D02*
X125168642Y-92468285D01*
X125168642Y-92468285D02*
X125216261Y-92420666D01*
X125216261Y-92420666D02*
X125263880Y-92325428D01*
X125263880Y-92325428D02*
X125263880Y-92134952D01*
X125263880Y-92134952D02*
X125216261Y-92039714D01*
X125216261Y-92039714D02*
X125168642Y-91992095D01*
X125168642Y-91992095D02*
X125073404Y-91944476D01*
X125073404Y-91944476D02*
X124263880Y-91944476D01*
X125263880Y-90944476D02*
X125263880Y-91515904D01*
X125263880Y-91230190D02*
X124263880Y-91230190D01*
X124263880Y-91230190D02*
X124406738Y-91325428D01*
X124406738Y-91325428D02*
X124501976Y-91420666D01*
X124501976Y-91420666D02*
X124549595Y-91515904D01*
%TO.C,U20*%
X159327705Y-88985380D02*
X159327705Y-89794904D01*
X159327705Y-89794904D02*
X159375324Y-89890142D01*
X159375324Y-89890142D02*
X159422943Y-89937761D01*
X159422943Y-89937761D02*
X159518181Y-89985380D01*
X159518181Y-89985380D02*
X159708657Y-89985380D01*
X159708657Y-89985380D02*
X159803895Y-89937761D01*
X159803895Y-89937761D02*
X159851514Y-89890142D01*
X159851514Y-89890142D02*
X159899133Y-89794904D01*
X159899133Y-89794904D02*
X159899133Y-88985380D01*
X160327705Y-89080619D02*
X160375324Y-89033000D01*
X160375324Y-89033000D02*
X160470562Y-88985380D01*
X160470562Y-88985380D02*
X160708657Y-88985380D01*
X160708657Y-88985380D02*
X160803895Y-89033000D01*
X160803895Y-89033000D02*
X160851514Y-89080619D01*
X160851514Y-89080619D02*
X160899133Y-89175857D01*
X160899133Y-89175857D02*
X160899133Y-89271095D01*
X160899133Y-89271095D02*
X160851514Y-89413952D01*
X160851514Y-89413952D02*
X160280086Y-89985380D01*
X160280086Y-89985380D02*
X160899133Y-89985380D01*
X161518181Y-88985380D02*
X161613419Y-88985380D01*
X161613419Y-88985380D02*
X161708657Y-89033000D01*
X161708657Y-89033000D02*
X161756276Y-89080619D01*
X161756276Y-89080619D02*
X161803895Y-89175857D01*
X161803895Y-89175857D02*
X161851514Y-89366333D01*
X161851514Y-89366333D02*
X161851514Y-89604428D01*
X161851514Y-89604428D02*
X161803895Y-89794904D01*
X161803895Y-89794904D02*
X161756276Y-89890142D01*
X161756276Y-89890142D02*
X161708657Y-89937761D01*
X161708657Y-89937761D02*
X161613419Y-89985380D01*
X161613419Y-89985380D02*
X161518181Y-89985380D01*
X161518181Y-89985380D02*
X161422943Y-89937761D01*
X161422943Y-89937761D02*
X161375324Y-89890142D01*
X161375324Y-89890142D02*
X161327705Y-89794904D01*
X161327705Y-89794904D02*
X161280086Y-89604428D01*
X161280086Y-89604428D02*
X161280086Y-89366333D01*
X161280086Y-89366333D02*
X161327705Y-89175857D01*
X161327705Y-89175857D02*
X161375324Y-89080619D01*
X161375324Y-89080619D02*
X161422943Y-89033000D01*
X161422943Y-89033000D02*
X161518181Y-88985380D01*
%TO.C,U3*%
X184150095Y-102618380D02*
X184150095Y-103427904D01*
X184150095Y-103427904D02*
X184197714Y-103523142D01*
X184197714Y-103523142D02*
X184245333Y-103570761D01*
X184245333Y-103570761D02*
X184340571Y-103618380D01*
X184340571Y-103618380D02*
X184531047Y-103618380D01*
X184531047Y-103618380D02*
X184626285Y-103570761D01*
X184626285Y-103570761D02*
X184673904Y-103523142D01*
X184673904Y-103523142D02*
X184721523Y-103427904D01*
X184721523Y-103427904D02*
X184721523Y-102618380D01*
X185102476Y-102618380D02*
X185721523Y-102618380D01*
X185721523Y-102618380D02*
X185388190Y-102999333D01*
X185388190Y-102999333D02*
X185531047Y-102999333D01*
X185531047Y-102999333D02*
X185626285Y-103046952D01*
X185626285Y-103046952D02*
X185673904Y-103094571D01*
X185673904Y-103094571D02*
X185721523Y-103189809D01*
X185721523Y-103189809D02*
X185721523Y-103427904D01*
X185721523Y-103427904D02*
X185673904Y-103523142D01*
X185673904Y-103523142D02*
X185626285Y-103570761D01*
X185626285Y-103570761D02*
X185531047Y-103618380D01*
X185531047Y-103618380D02*
X185245333Y-103618380D01*
X185245333Y-103618380D02*
X185150095Y-103570761D01*
X185150095Y-103570761D02*
X185102476Y-103523142D01*
%TO.C,U2*%
X159570180Y-107939904D02*
X160379704Y-107939904D01*
X160379704Y-107939904D02*
X160474942Y-107892285D01*
X160474942Y-107892285D02*
X160522561Y-107844666D01*
X160522561Y-107844666D02*
X160570180Y-107749428D01*
X160570180Y-107749428D02*
X160570180Y-107558952D01*
X160570180Y-107558952D02*
X160522561Y-107463714D01*
X160522561Y-107463714D02*
X160474942Y-107416095D01*
X160474942Y-107416095D02*
X160379704Y-107368476D01*
X160379704Y-107368476D02*
X159570180Y-107368476D01*
X159665419Y-106939904D02*
X159617800Y-106892285D01*
X159617800Y-106892285D02*
X159570180Y-106797047D01*
X159570180Y-106797047D02*
X159570180Y-106558952D01*
X159570180Y-106558952D02*
X159617800Y-106463714D01*
X159617800Y-106463714D02*
X159665419Y-106416095D01*
X159665419Y-106416095D02*
X159760657Y-106368476D01*
X159760657Y-106368476D02*
X159855895Y-106368476D01*
X159855895Y-106368476D02*
X159998752Y-106416095D01*
X159998752Y-106416095D02*
X160570180Y-106987523D01*
X160570180Y-106987523D02*
X160570180Y-106368476D01*
%TO.C,D1*%
X161023467Y-125081380D02*
X161023467Y-124081380D01*
X161023467Y-124081380D02*
X161404419Y-124081380D01*
X161404419Y-124081380D02*
X161499657Y-124129000D01*
X161499657Y-124129000D02*
X161547276Y-124176619D01*
X161547276Y-124176619D02*
X161594895Y-124271857D01*
X161594895Y-124271857D02*
X161594895Y-124414714D01*
X161594895Y-124414714D02*
X161547276Y-124509952D01*
X161547276Y-124509952D02*
X161499657Y-124557571D01*
X161499657Y-124557571D02*
X161404419Y-124605190D01*
X161404419Y-124605190D02*
X161023467Y-124605190D01*
X161928229Y-124081380D02*
X162166324Y-125081380D01*
X162166324Y-125081380D02*
X162356800Y-124367095D01*
X162356800Y-124367095D02*
X162547276Y-125081380D01*
X162547276Y-125081380D02*
X162785372Y-124081380D01*
X163737752Y-125081380D02*
X163404419Y-124605190D01*
X163166324Y-125081380D02*
X163166324Y-124081380D01*
X163166324Y-124081380D02*
X163547276Y-124081380D01*
X163547276Y-124081380D02*
X163642514Y-124129000D01*
X163642514Y-124129000D02*
X163690133Y-124176619D01*
X163690133Y-124176619D02*
X163737752Y-124271857D01*
X163737752Y-124271857D02*
X163737752Y-124414714D01*
X163737752Y-124414714D02*
X163690133Y-124509952D01*
X163690133Y-124509952D02*
X163642514Y-124557571D01*
X163642514Y-124557571D02*
X163547276Y-124605190D01*
X163547276Y-124605190D02*
X163166324Y-124605190D01*
D14*
%TO.C,U180*%
X120139800Y-105788000D02*
X120139800Y-126288000D01*
X120149800Y-126288000D02*
X130349800Y-126288000D01*
X122549800Y-126188000D02*
X127949800Y-126188000D01*
X122609800Y-105858000D02*
X122609800Y-125974000D01*
X128069800Y-105858000D02*
X122609800Y-105858000D01*
X128069800Y-105858000D02*
X122609800Y-105858000D01*
X128069800Y-126308000D02*
X128069800Y-105858000D01*
X130339800Y-105798000D02*
X120139800Y-105788000D01*
X130339800Y-126288000D02*
X130339800Y-105798000D01*
X124249800Y-105858000D02*
G75*
G03*
X126249800Y-105858000I1000000J0D01*
G01*
%TO.C,U70*%
X137919800Y-54988000D02*
X137919800Y-75488000D01*
X137929800Y-75488000D02*
X148129800Y-75488000D01*
X140329800Y-75388000D02*
X145729800Y-75388000D01*
X140389800Y-55058000D02*
X140389800Y-75174000D01*
X145849800Y-55058000D02*
X140389800Y-55058000D01*
X145849800Y-55058000D02*
X140389800Y-55058000D01*
X145849800Y-75508000D02*
X145849800Y-55058000D01*
X148119800Y-54998000D02*
X137919800Y-54988000D01*
X148119800Y-75488000D02*
X148119800Y-54998000D01*
X142029800Y-55058000D02*
G75*
G03*
X144029800Y-55058000I1000000J0D01*
G01*
%TO.C,U14*%
X137595800Y-80458000D02*
X137595800Y-100898000D01*
X137595800Y-100898000D02*
X142895800Y-100898000D01*
X139245800Y-80458000D02*
X137595800Y-80458000D01*
X142895800Y-80458000D02*
X141245800Y-80458000D01*
X142895800Y-100898000D02*
X142895800Y-80458000D01*
X139245800Y-80458000D02*
G75*
G03*
X141245800Y-80458000I1000000J0D01*
G01*
%TO.C,C3*%
X124882920Y-101658000D02*
X125164080Y-101658000D01*
X124882920Y-102678000D02*
X125164080Y-102678000D01*
%TO.C,U19*%
X137595800Y-105858000D02*
X137595800Y-126298000D01*
X137595800Y-126298000D02*
X142895800Y-126298000D01*
X139245800Y-105858000D02*
X137595800Y-105858000D01*
X142895800Y-105858000D02*
X141245800Y-105858000D01*
X142895800Y-126298000D02*
X142895800Y-105858000D01*
X139245800Y-105858000D02*
G75*
G03*
X141245800Y-105858000I1000000J0D01*
G01*
%TO.C,R1*%
X157514058Y-123204500D02*
X157039542Y-123204500D01*
X157514058Y-122159500D02*
X157039542Y-122159500D01*
%TO.C,U1*%
X129087500Y-98104000D02*
X129087500Y-84261000D01*
D15*
X120959500Y-84134000D02*
X120959500Y-99755000D01*
D14*
X121520105Y-97850000D02*
G75*
G03*
X121520105Y-97850000I-179605J0D01*
G01*
%TO.C,U20*%
X154105800Y-90618000D02*
X154105800Y-126298000D01*
X154105800Y-126298000D02*
X167025800Y-126298000D01*
X159565800Y-90618000D02*
X154105800Y-90618000D01*
X167025800Y-90618000D02*
X161565800Y-90618000D01*
X167025800Y-126298000D02*
X167025800Y-90618000D01*
X159565800Y-90618000D02*
G75*
G03*
X161565800Y-90618000I1000000J0D01*
G01*
%TO.C,U3*%
X179555800Y-95130000D02*
X179555800Y-120770000D01*
X179555800Y-120770000D02*
X189835800Y-120770000D01*
X182045800Y-95190000D02*
X182045800Y-120710000D01*
X182045800Y-120710000D02*
X187345800Y-120710000D01*
X183695800Y-95190000D02*
X182045800Y-95190000D01*
X187345800Y-95190000D02*
X185695800Y-95190000D01*
X187345800Y-120710000D02*
X187345800Y-95190000D01*
X189835800Y-95130000D02*
X179555800Y-95130000D01*
X189835800Y-120770000D02*
X189835800Y-95130000D01*
X183695800Y-95190000D02*
G75*
G03*
X185695800Y-95190000I1000000J0D01*
G01*
%TO.C,C2*%
X160211380Y-97538000D02*
X159930220Y-97538000D01*
X160211380Y-96518000D02*
X159930220Y-96518000D01*
%TO.C,U2*%
X156011800Y-100828000D02*
X156011800Y-114671000D01*
D15*
X164139800Y-114798000D02*
X164139800Y-99177000D01*
D14*
X163938405Y-101082000D02*
G75*
G03*
X163938405Y-101082000I-179605J0D01*
G01*
%TO.C,C1*%
X188011380Y-93728000D02*
X187730220Y-93728000D01*
X188011380Y-92708000D02*
X187730220Y-92708000D01*
%TO.C,D1*%
X160871800Y-121947000D02*
X160871800Y-123417000D01*
X160871800Y-123417000D02*
X163156800Y-123417000D01*
X163156800Y-121947000D02*
X160871800Y-121947000D01*
%TD*%
M02*
