%TF.GenerationSoftware,KiCad,Pcbnew,9.0.5*%
%TF.CreationDate,2026-01-02T17:42:38+00:00*%
%TF.ProjectId,DataIOROM,44617461-494f-4524-9f4d-2e6b69636164,rev?*%
%TF.SameCoordinates,Original*%
%TF.FileFunction,Drillmap*%
%TF.FilePolarity,Positive*%
%FSLAX45Y45*%
G04 Gerber Fmt 4.5, Leading zero omitted, Abs format (unit mm)*
G04 Created by KiCad (PCBNEW 9.0.5) date 2026-01-02 17:42:38*
%MOMM*%
%LPD*%
G01*
G04 APERTURE LIST*
%ADD10C,0.100000*%
%ADD11C,0.200000*%
G04 APERTURE END LIST*
D10*
X11713166Y-12725400D02*
X17195599Y-12725601D01*
X14859000Y-5486400D02*
X14859000Y-8826500D01*
X14859000Y-8826500D02*
X19037300Y-8826500D01*
X11713166Y-12725400D02*
X11713166Y-8556034D01*
X13385800Y-5486400D02*
X14859000Y-5486400D01*
X13385800Y-6883400D02*
X13385800Y-5486400D01*
X19037300Y-12192000D02*
X19037300Y-8826500D01*
X17805400Y-12192000D02*
X19037300Y-12192000D01*
X17195599Y-12725601D02*
X17805400Y-12192000D01*
X13385800Y-6883400D02*
X11713166Y-8556034D01*
D11*
D10*
X12232320Y-8928300D02*
X12272320Y-8968300D01*
X12272320Y-8928300D02*
X12232320Y-8968300D01*
X12633910Y-8342180D02*
X12673910Y-8382180D01*
X12673910Y-8342180D02*
X12633910Y-8382180D01*
X12650760Y-9519760D02*
X12690760Y-9559760D01*
X12690760Y-9519760D02*
X12650760Y-9559760D01*
X12764186Y-8629514D02*
X12804186Y-8669514D01*
X12804186Y-8629514D02*
X12764186Y-8669514D01*
X12798080Y-10575900D02*
X12838080Y-10615900D01*
X12838080Y-10575900D02*
X12798080Y-10615900D01*
X12841661Y-8706989D02*
X12881661Y-8746989D01*
X12881661Y-8706989D02*
X12841661Y-8746989D01*
X12941389Y-8489239D02*
X12981389Y-8529239D01*
X12981389Y-8489239D02*
X12941389Y-8529239D01*
X13031800Y-9435380D02*
X13071800Y-9475380D01*
X13071800Y-9435380D02*
X13031800Y-9475380D01*
X13149565Y-9749555D02*
X13189565Y-9789555D01*
X13189565Y-9749555D02*
X13149565Y-9789555D01*
X13188980Y-9922410D02*
X13228980Y-9962410D01*
X13228980Y-9922410D02*
X13188980Y-9962410D01*
X13306910Y-10822280D02*
X13346910Y-10862280D01*
X13346910Y-10822280D02*
X13306910Y-10862280D01*
X13356249Y-10358850D02*
X13396249Y-10398850D01*
X13396249Y-10358850D02*
X13356249Y-10398850D01*
X13370270Y-7847540D02*
X13410270Y-7887540D01*
X13410270Y-7847540D02*
X13370270Y-7887540D01*
X13507240Y-10293870D02*
X13547240Y-10333870D01*
X13547240Y-10293870D02*
X13507240Y-10333870D01*
X13906464Y-10579706D02*
X13946464Y-10619706D01*
X13946464Y-10579706D02*
X13906464Y-10619706D01*
X14055380Y-12210100D02*
X14095380Y-12250100D01*
X14095380Y-12210100D02*
X14055380Y-12250100D01*
X14460320Y-10558200D02*
X14500320Y-10598200D01*
X14500320Y-10558200D02*
X14460320Y-10598200D01*
X14610100Y-9570260D02*
X14650100Y-9610260D01*
X14650100Y-9570260D02*
X14610100Y-9610260D01*
X14699300Y-12349800D02*
X14739300Y-12389800D01*
X14739300Y-12349800D02*
X14699300Y-12389800D01*
X14711080Y-10406120D02*
X14751080Y-10446120D01*
X14751080Y-10406120D02*
X14711080Y-10446120D01*
X14799110Y-11630370D02*
X14839110Y-11670370D01*
X14839110Y-11630370D02*
X14799110Y-11670370D01*
X15093590Y-10293870D02*
X15133590Y-10333870D01*
X15133590Y-10293870D02*
X15093590Y-10333870D01*
X15412300Y-11383470D02*
X15452300Y-11423470D01*
X15452300Y-11383470D02*
X15412300Y-11423470D01*
X15423630Y-11827340D02*
X15463630Y-11867340D01*
X15463630Y-11827340D02*
X15423630Y-11867340D01*
X15503450Y-11195070D02*
X15543450Y-11235070D01*
X15543450Y-11195070D02*
X15503450Y-11235070D01*
X15539330Y-11599090D02*
X15579330Y-11639090D01*
X15579330Y-11599090D02*
X15539330Y-11639090D01*
X15589020Y-10833930D02*
X15629020Y-10873930D01*
X15629020Y-10833930D02*
X15589020Y-10873930D01*
X15605360Y-11190300D02*
X15645360Y-11230300D01*
X15645360Y-11190300D02*
X15605360Y-11230300D01*
X15655110Y-11055350D02*
X15695110Y-11095350D01*
X15695110Y-11055350D02*
X15655110Y-11095350D01*
X15845210Y-11042190D02*
X15885210Y-11082190D01*
X15885210Y-11042190D02*
X15845210Y-11082190D01*
X15846490Y-11221710D02*
X15886490Y-11261710D01*
X15886490Y-11221710D02*
X15846490Y-11261710D01*
X15856870Y-10279930D02*
X15896870Y-10319930D01*
X15896870Y-10279930D02*
X15856870Y-10319930D01*
X15883981Y-10145508D02*
X15923981Y-10185508D01*
X15923981Y-10145508D02*
X15883981Y-10185508D01*
X15911150Y-10888700D02*
X15951150Y-10928700D01*
X15951150Y-10888700D02*
X15911150Y-10928700D01*
X15917080Y-12128800D02*
X15957080Y-12168800D01*
X15957080Y-12128800D02*
X15917080Y-12168800D01*
X15922280Y-12451400D02*
X15962280Y-12491400D01*
X15962280Y-12451400D02*
X15922280Y-12491400D01*
X15936820Y-10452090D02*
X15976820Y-10492090D01*
X15976820Y-10452090D02*
X15936820Y-10492090D01*
X15973080Y-10190800D02*
X16013080Y-10230800D01*
X16013080Y-10190800D02*
X15973080Y-10230800D01*
X16098423Y-10263250D02*
X16138423Y-10303250D01*
X16138423Y-10263250D02*
X16098423Y-10303250D01*
X16264500Y-12001510D02*
X16304500Y-12041510D01*
X16304500Y-12001510D02*
X16264500Y-12041510D01*
X16268430Y-9707790D02*
X16308430Y-9747790D01*
X16308430Y-9707790D02*
X16268430Y-9747790D01*
X16384580Y-12443800D02*
X16424580Y-12483800D01*
X16424580Y-12443800D02*
X16384580Y-12483800D01*
X16493750Y-11999780D02*
X16533750Y-12039780D01*
X16533750Y-11999780D02*
X16493750Y-12039780D01*
X17563120Y-10593450D02*
X17603120Y-10633450D01*
X17603120Y-10593450D02*
X17563120Y-10633450D01*
X11905580Y-10718800D02*
G75*
G02*
X11825580Y-10718800I-40000J0D01*
G01*
X11825580Y-10718800D02*
G75*
G02*
X11905580Y-10718800I40000J0D01*
G01*
X11905580Y-10972800D02*
G75*
G02*
X11825580Y-10972800I-40000J0D01*
G01*
X11825580Y-10972800D02*
G75*
G02*
X11905580Y-10972800I40000J0D01*
G01*
X11905580Y-11226800D02*
G75*
G02*
X11825580Y-11226800I-40000J0D01*
G01*
X11825580Y-11226800D02*
G75*
G02*
X11905580Y-11226800I40000J0D01*
G01*
X11905580Y-11480800D02*
G75*
G02*
X11825580Y-11480800I-40000J0D01*
G01*
X11825580Y-11480800D02*
G75*
G02*
X11905580Y-11480800I40000J0D01*
G01*
X11905580Y-11734800D02*
G75*
G02*
X11825580Y-11734800I-40000J0D01*
G01*
X11825580Y-11734800D02*
G75*
G02*
X11905580Y-11734800I40000J0D01*
G01*
X11905580Y-11988800D02*
G75*
G02*
X11825580Y-11988800I-40000J0D01*
G01*
X11825580Y-11988800D02*
G75*
G02*
X11905580Y-11988800I40000J0D01*
G01*
X11905580Y-12242800D02*
G75*
G02*
X11825580Y-12242800I-40000J0D01*
G01*
X11825580Y-12242800D02*
G75*
G02*
X11905580Y-12242800I40000J0D01*
G01*
X11905580Y-12496800D02*
G75*
G02*
X11825580Y-12496800I-40000J0D01*
G01*
X11825580Y-12496800D02*
G75*
G02*
X11905580Y-12496800I40000J0D01*
G01*
X12184980Y-10718800D02*
G75*
G02*
X12104980Y-10718800I-40000J0D01*
G01*
X12104980Y-10718800D02*
G75*
G02*
X12184980Y-10718800I40000J0D01*
G01*
X12184980Y-10972800D02*
G75*
G02*
X12104980Y-10972800I-40000J0D01*
G01*
X12104980Y-10972800D02*
G75*
G02*
X12184980Y-10972800I40000J0D01*
G01*
X12184980Y-11226800D02*
G75*
G02*
X12104980Y-11226800I-40000J0D01*
G01*
X12104980Y-11226800D02*
G75*
G02*
X12184980Y-11226800I40000J0D01*
G01*
X12184980Y-11480800D02*
G75*
G02*
X12104980Y-11480800I-40000J0D01*
G01*
X12104980Y-11480800D02*
G75*
G02*
X12184980Y-11480800I40000J0D01*
G01*
X12184980Y-11734800D02*
G75*
G02*
X12104980Y-11734800I-40000J0D01*
G01*
X12104980Y-11734800D02*
G75*
G02*
X12184980Y-11734800I40000J0D01*
G01*
X12184980Y-11988800D02*
G75*
G02*
X12104980Y-11988800I-40000J0D01*
G01*
X12104980Y-11988800D02*
G75*
G02*
X12184980Y-11988800I40000J0D01*
G01*
X12184980Y-12242800D02*
G75*
G02*
X12104980Y-12242800I-40000J0D01*
G01*
X12104980Y-12242800D02*
G75*
G02*
X12184980Y-12242800I40000J0D01*
G01*
X12184980Y-12496800D02*
G75*
G02*
X12104980Y-12496800I-40000J0D01*
G01*
X12104980Y-12496800D02*
G75*
G02*
X12184980Y-12496800I40000J0D01*
G01*
X12667580Y-10718800D02*
G75*
G02*
X12587580Y-10718800I-40000J0D01*
G01*
X12587580Y-10718800D02*
G75*
G02*
X12667580Y-10718800I40000J0D01*
G01*
X12667580Y-10972800D02*
G75*
G02*
X12587580Y-10972800I-40000J0D01*
G01*
X12587580Y-10972800D02*
G75*
G02*
X12667580Y-10972800I40000J0D01*
G01*
X12667580Y-11226800D02*
G75*
G02*
X12587580Y-11226800I-40000J0D01*
G01*
X12587580Y-11226800D02*
G75*
G02*
X12667580Y-11226800I40000J0D01*
G01*
X12667580Y-11480800D02*
G75*
G02*
X12587580Y-11480800I-40000J0D01*
G01*
X12587580Y-11480800D02*
G75*
G02*
X12667580Y-11480800I40000J0D01*
G01*
X12667580Y-11734800D02*
G75*
G02*
X12587580Y-11734800I-40000J0D01*
G01*
X12587580Y-11734800D02*
G75*
G02*
X12667580Y-11734800I40000J0D01*
G01*
X12667580Y-11988800D02*
G75*
G02*
X12587580Y-11988800I-40000J0D01*
G01*
X12587580Y-11988800D02*
G75*
G02*
X12667580Y-11988800I40000J0D01*
G01*
X12667580Y-12242800D02*
G75*
G02*
X12587580Y-12242800I-40000J0D01*
G01*
X12587580Y-12242800D02*
G75*
G02*
X12667580Y-12242800I40000J0D01*
G01*
X12667580Y-12496800D02*
G75*
G02*
X12587580Y-12496800I-40000J0D01*
G01*
X12587580Y-12496800D02*
G75*
G02*
X12667580Y-12496800I40000J0D01*
G01*
X12946980Y-10718800D02*
G75*
G02*
X12866980Y-10718800I-40000J0D01*
G01*
X12866980Y-10718800D02*
G75*
G02*
X12946980Y-10718800I40000J0D01*
G01*
X12946980Y-10972800D02*
G75*
G02*
X12866980Y-10972800I-40000J0D01*
G01*
X12866980Y-10972800D02*
G75*
G02*
X12946980Y-10972800I40000J0D01*
G01*
X12946980Y-11226800D02*
G75*
G02*
X12866980Y-11226800I-40000J0D01*
G01*
X12866980Y-11226800D02*
G75*
G02*
X12946980Y-11226800I40000J0D01*
G01*
X12946980Y-11480800D02*
G75*
G02*
X12866980Y-11480800I-40000J0D01*
G01*
X12866980Y-11480800D02*
G75*
G02*
X12946980Y-11480800I40000J0D01*
G01*
X12946980Y-11734800D02*
G75*
G02*
X12866980Y-11734800I-40000J0D01*
G01*
X12866980Y-11734800D02*
G75*
G02*
X12946980Y-11734800I40000J0D01*
G01*
X12946980Y-11988800D02*
G75*
G02*
X12866980Y-11988800I-40000J0D01*
G01*
X12866980Y-11988800D02*
G75*
G02*
X12946980Y-11988800I40000J0D01*
G01*
X12946980Y-12242800D02*
G75*
G02*
X12866980Y-12242800I-40000J0D01*
G01*
X12866980Y-12242800D02*
G75*
G02*
X12946980Y-12242800I40000J0D01*
G01*
X12946980Y-12496800D02*
G75*
G02*
X12866980Y-12496800I-40000J0D01*
G01*
X12866980Y-12496800D02*
G75*
G02*
X12946980Y-12496800I40000J0D01*
G01*
X13683580Y-5638800D02*
G75*
G02*
X13603580Y-5638800I-40000J0D01*
G01*
X13603580Y-5638800D02*
G75*
G02*
X13683580Y-5638800I40000J0D01*
G01*
X13683580Y-5892800D02*
G75*
G02*
X13603580Y-5892800I-40000J0D01*
G01*
X13603580Y-5892800D02*
G75*
G02*
X13683580Y-5892800I40000J0D01*
G01*
X13683580Y-6146800D02*
G75*
G02*
X13603580Y-6146800I-40000J0D01*
G01*
X13603580Y-6146800D02*
G75*
G02*
X13683580Y-6146800I40000J0D01*
G01*
X13683580Y-6400800D02*
G75*
G02*
X13603580Y-6400800I-40000J0D01*
G01*
X13603580Y-6400800D02*
G75*
G02*
X13683580Y-6400800I40000J0D01*
G01*
X13683580Y-6654800D02*
G75*
G02*
X13603580Y-6654800I-40000J0D01*
G01*
X13603580Y-6654800D02*
G75*
G02*
X13683580Y-6654800I40000J0D01*
G01*
X13683580Y-6908800D02*
G75*
G02*
X13603580Y-6908800I-40000J0D01*
G01*
X13603580Y-6908800D02*
G75*
G02*
X13683580Y-6908800I40000J0D01*
G01*
X13683580Y-7162800D02*
G75*
G02*
X13603580Y-7162800I-40000J0D01*
G01*
X13603580Y-7162800D02*
G75*
G02*
X13683580Y-7162800I40000J0D01*
G01*
X13683580Y-7416800D02*
G75*
G02*
X13603580Y-7416800I-40000J0D01*
G01*
X13603580Y-7416800D02*
G75*
G02*
X13683580Y-7416800I40000J0D01*
G01*
X13683580Y-8178800D02*
G75*
G02*
X13603580Y-8178800I-40000J0D01*
G01*
X13603580Y-8178800D02*
G75*
G02*
X13683580Y-8178800I40000J0D01*
G01*
X13683580Y-8432800D02*
G75*
G02*
X13603580Y-8432800I-40000J0D01*
G01*
X13603580Y-8432800D02*
G75*
G02*
X13683580Y-8432800I40000J0D01*
G01*
X13683580Y-8686800D02*
G75*
G02*
X13603580Y-8686800I-40000J0D01*
G01*
X13603580Y-8686800D02*
G75*
G02*
X13683580Y-8686800I40000J0D01*
G01*
X13683580Y-8940800D02*
G75*
G02*
X13603580Y-8940800I-40000J0D01*
G01*
X13603580Y-8940800D02*
G75*
G02*
X13683580Y-8940800I40000J0D01*
G01*
X13683580Y-9194800D02*
G75*
G02*
X13603580Y-9194800I-40000J0D01*
G01*
X13603580Y-9194800D02*
G75*
G02*
X13683580Y-9194800I40000J0D01*
G01*
X13683580Y-9448800D02*
G75*
G02*
X13603580Y-9448800I-40000J0D01*
G01*
X13603580Y-9448800D02*
G75*
G02*
X13683580Y-9448800I40000J0D01*
G01*
X13683580Y-9702800D02*
G75*
G02*
X13603580Y-9702800I-40000J0D01*
G01*
X13603580Y-9702800D02*
G75*
G02*
X13683580Y-9702800I40000J0D01*
G01*
X13683580Y-9956800D02*
G75*
G02*
X13603580Y-9956800I-40000J0D01*
G01*
X13603580Y-9956800D02*
G75*
G02*
X13683580Y-9956800I40000J0D01*
G01*
X13683580Y-10718800D02*
G75*
G02*
X13603580Y-10718800I-40000J0D01*
G01*
X13603580Y-10718800D02*
G75*
G02*
X13683580Y-10718800I40000J0D01*
G01*
X13683580Y-10972800D02*
G75*
G02*
X13603580Y-10972800I-40000J0D01*
G01*
X13603580Y-10972800D02*
G75*
G02*
X13683580Y-10972800I40000J0D01*
G01*
X13683580Y-11226800D02*
G75*
G02*
X13603580Y-11226800I-40000J0D01*
G01*
X13603580Y-11226800D02*
G75*
G02*
X13683580Y-11226800I40000J0D01*
G01*
X13683580Y-11480800D02*
G75*
G02*
X13603580Y-11480800I-40000J0D01*
G01*
X13603580Y-11480800D02*
G75*
G02*
X13683580Y-11480800I40000J0D01*
G01*
X13683580Y-11734800D02*
G75*
G02*
X13603580Y-11734800I-40000J0D01*
G01*
X13603580Y-11734800D02*
G75*
G02*
X13683580Y-11734800I40000J0D01*
G01*
X13683580Y-11988800D02*
G75*
G02*
X13603580Y-11988800I-40000J0D01*
G01*
X13603580Y-11988800D02*
G75*
G02*
X13683580Y-11988800I40000J0D01*
G01*
X13683580Y-12242800D02*
G75*
G02*
X13603580Y-12242800I-40000J0D01*
G01*
X13603580Y-12242800D02*
G75*
G02*
X13683580Y-12242800I40000J0D01*
G01*
X13683580Y-12496800D02*
G75*
G02*
X13603580Y-12496800I-40000J0D01*
G01*
X13603580Y-12496800D02*
G75*
G02*
X13683580Y-12496800I40000J0D01*
G01*
X13962980Y-5638800D02*
G75*
G02*
X13882980Y-5638800I-40000J0D01*
G01*
X13882980Y-5638800D02*
G75*
G02*
X13962980Y-5638800I40000J0D01*
G01*
X13962980Y-5892800D02*
G75*
G02*
X13882980Y-5892800I-40000J0D01*
G01*
X13882980Y-5892800D02*
G75*
G02*
X13962980Y-5892800I40000J0D01*
G01*
X13962980Y-6146800D02*
G75*
G02*
X13882980Y-6146800I-40000J0D01*
G01*
X13882980Y-6146800D02*
G75*
G02*
X13962980Y-6146800I40000J0D01*
G01*
X13962980Y-6400800D02*
G75*
G02*
X13882980Y-6400800I-40000J0D01*
G01*
X13882980Y-6400800D02*
G75*
G02*
X13962980Y-6400800I40000J0D01*
G01*
X13962980Y-6654800D02*
G75*
G02*
X13882980Y-6654800I-40000J0D01*
G01*
X13882980Y-6654800D02*
G75*
G02*
X13962980Y-6654800I40000J0D01*
G01*
X13962980Y-6908800D02*
G75*
G02*
X13882980Y-6908800I-40000J0D01*
G01*
X13882980Y-6908800D02*
G75*
G02*
X13962980Y-6908800I40000J0D01*
G01*
X13962980Y-7162800D02*
G75*
G02*
X13882980Y-7162800I-40000J0D01*
G01*
X13882980Y-7162800D02*
G75*
G02*
X13962980Y-7162800I40000J0D01*
G01*
X13962980Y-7416800D02*
G75*
G02*
X13882980Y-7416800I-40000J0D01*
G01*
X13882980Y-7416800D02*
G75*
G02*
X13962980Y-7416800I40000J0D01*
G01*
X14445580Y-5638800D02*
G75*
G02*
X14365580Y-5638800I-40000J0D01*
G01*
X14365580Y-5638800D02*
G75*
G02*
X14445580Y-5638800I40000J0D01*
G01*
X14445580Y-5892800D02*
G75*
G02*
X14365580Y-5892800I-40000J0D01*
G01*
X14365580Y-5892800D02*
G75*
G02*
X14445580Y-5892800I40000J0D01*
G01*
X14445580Y-6146800D02*
G75*
G02*
X14365580Y-6146800I-40000J0D01*
G01*
X14365580Y-6146800D02*
G75*
G02*
X14445580Y-6146800I40000J0D01*
G01*
X14445580Y-6400800D02*
G75*
G02*
X14365580Y-6400800I-40000J0D01*
G01*
X14365580Y-6400800D02*
G75*
G02*
X14445580Y-6400800I40000J0D01*
G01*
X14445580Y-6654800D02*
G75*
G02*
X14365580Y-6654800I-40000J0D01*
G01*
X14365580Y-6654800D02*
G75*
G02*
X14445580Y-6654800I40000J0D01*
G01*
X14445580Y-6908800D02*
G75*
G02*
X14365580Y-6908800I-40000J0D01*
G01*
X14365580Y-6908800D02*
G75*
G02*
X14445580Y-6908800I40000J0D01*
G01*
X14445580Y-7162800D02*
G75*
G02*
X14365580Y-7162800I-40000J0D01*
G01*
X14365580Y-7162800D02*
G75*
G02*
X14445580Y-7162800I40000J0D01*
G01*
X14445580Y-7416800D02*
G75*
G02*
X14365580Y-7416800I-40000J0D01*
G01*
X14365580Y-7416800D02*
G75*
G02*
X14445580Y-7416800I40000J0D01*
G01*
X14445580Y-8178800D02*
G75*
G02*
X14365580Y-8178800I-40000J0D01*
G01*
X14365580Y-8178800D02*
G75*
G02*
X14445580Y-8178800I40000J0D01*
G01*
X14445580Y-8432800D02*
G75*
G02*
X14365580Y-8432800I-40000J0D01*
G01*
X14365580Y-8432800D02*
G75*
G02*
X14445580Y-8432800I40000J0D01*
G01*
X14445580Y-8686800D02*
G75*
G02*
X14365580Y-8686800I-40000J0D01*
G01*
X14365580Y-8686800D02*
G75*
G02*
X14445580Y-8686800I40000J0D01*
G01*
X14445580Y-8940800D02*
G75*
G02*
X14365580Y-8940800I-40000J0D01*
G01*
X14365580Y-8940800D02*
G75*
G02*
X14445580Y-8940800I40000J0D01*
G01*
X14445580Y-9194800D02*
G75*
G02*
X14365580Y-9194800I-40000J0D01*
G01*
X14365580Y-9194800D02*
G75*
G02*
X14445580Y-9194800I40000J0D01*
G01*
X14445580Y-9448800D02*
G75*
G02*
X14365580Y-9448800I-40000J0D01*
G01*
X14365580Y-9448800D02*
G75*
G02*
X14445580Y-9448800I40000J0D01*
G01*
X14445580Y-9702800D02*
G75*
G02*
X14365580Y-9702800I-40000J0D01*
G01*
X14365580Y-9702800D02*
G75*
G02*
X14445580Y-9702800I40000J0D01*
G01*
X14445580Y-9956800D02*
G75*
G02*
X14365580Y-9956800I-40000J0D01*
G01*
X14365580Y-9956800D02*
G75*
G02*
X14445580Y-9956800I40000J0D01*
G01*
X14445580Y-10718800D02*
G75*
G02*
X14365580Y-10718800I-40000J0D01*
G01*
X14365580Y-10718800D02*
G75*
G02*
X14445580Y-10718800I40000J0D01*
G01*
X14445580Y-10972800D02*
G75*
G02*
X14365580Y-10972800I-40000J0D01*
G01*
X14365580Y-10972800D02*
G75*
G02*
X14445580Y-10972800I40000J0D01*
G01*
X14445580Y-11226800D02*
G75*
G02*
X14365580Y-11226800I-40000J0D01*
G01*
X14365580Y-11226800D02*
G75*
G02*
X14445580Y-11226800I40000J0D01*
G01*
X14445580Y-11480800D02*
G75*
G02*
X14365580Y-11480800I-40000J0D01*
G01*
X14365580Y-11480800D02*
G75*
G02*
X14445580Y-11480800I40000J0D01*
G01*
X14445580Y-11734800D02*
G75*
G02*
X14365580Y-11734800I-40000J0D01*
G01*
X14365580Y-11734800D02*
G75*
G02*
X14445580Y-11734800I40000J0D01*
G01*
X14445580Y-11988800D02*
G75*
G02*
X14365580Y-11988800I-40000J0D01*
G01*
X14365580Y-11988800D02*
G75*
G02*
X14445580Y-11988800I40000J0D01*
G01*
X14445580Y-12242800D02*
G75*
G02*
X14365580Y-12242800I-40000J0D01*
G01*
X14365580Y-12242800D02*
G75*
G02*
X14445580Y-12242800I40000J0D01*
G01*
X14445580Y-12496800D02*
G75*
G02*
X14365580Y-12496800I-40000J0D01*
G01*
X14365580Y-12496800D02*
G75*
G02*
X14445580Y-12496800I40000J0D01*
G01*
X14724980Y-5638800D02*
G75*
G02*
X14644980Y-5638800I-40000J0D01*
G01*
X14644980Y-5638800D02*
G75*
G02*
X14724980Y-5638800I40000J0D01*
G01*
X14724980Y-5892800D02*
G75*
G02*
X14644980Y-5892800I-40000J0D01*
G01*
X14644980Y-5892800D02*
G75*
G02*
X14724980Y-5892800I40000J0D01*
G01*
X14724980Y-6146800D02*
G75*
G02*
X14644980Y-6146800I-40000J0D01*
G01*
X14644980Y-6146800D02*
G75*
G02*
X14724980Y-6146800I40000J0D01*
G01*
X14724980Y-6400800D02*
G75*
G02*
X14644980Y-6400800I-40000J0D01*
G01*
X14644980Y-6400800D02*
G75*
G02*
X14724980Y-6400800I40000J0D01*
G01*
X14724980Y-6654800D02*
G75*
G02*
X14644980Y-6654800I-40000J0D01*
G01*
X14644980Y-6654800D02*
G75*
G02*
X14724980Y-6654800I40000J0D01*
G01*
X14724980Y-6908800D02*
G75*
G02*
X14644980Y-6908800I-40000J0D01*
G01*
X14644980Y-6908800D02*
G75*
G02*
X14724980Y-6908800I40000J0D01*
G01*
X14724980Y-7162800D02*
G75*
G02*
X14644980Y-7162800I-40000J0D01*
G01*
X14644980Y-7162800D02*
G75*
G02*
X14724980Y-7162800I40000J0D01*
G01*
X14724980Y-7416800D02*
G75*
G02*
X14644980Y-7416800I-40000J0D01*
G01*
X14644980Y-7416800D02*
G75*
G02*
X14724980Y-7416800I40000J0D01*
G01*
X15334580Y-9194800D02*
G75*
G02*
X15254580Y-9194800I-40000J0D01*
G01*
X15254580Y-9194800D02*
G75*
G02*
X15334580Y-9194800I40000J0D01*
G01*
X15334580Y-9448800D02*
G75*
G02*
X15254580Y-9448800I-40000J0D01*
G01*
X15254580Y-9448800D02*
G75*
G02*
X15334580Y-9448800I40000J0D01*
G01*
X15334580Y-9702800D02*
G75*
G02*
X15254580Y-9702800I-40000J0D01*
G01*
X15254580Y-9702800D02*
G75*
G02*
X15334580Y-9702800I40000J0D01*
G01*
X15334580Y-9956800D02*
G75*
G02*
X15254580Y-9956800I-40000J0D01*
G01*
X15254580Y-9956800D02*
G75*
G02*
X15334580Y-9956800I40000J0D01*
G01*
X15334580Y-10210800D02*
G75*
G02*
X15254580Y-10210800I-40000J0D01*
G01*
X15254580Y-10210800D02*
G75*
G02*
X15334580Y-10210800I40000J0D01*
G01*
X15334580Y-10464800D02*
G75*
G02*
X15254580Y-10464800I-40000J0D01*
G01*
X15254580Y-10464800D02*
G75*
G02*
X15334580Y-10464800I40000J0D01*
G01*
X15334580Y-10718800D02*
G75*
G02*
X15254580Y-10718800I-40000J0D01*
G01*
X15254580Y-10718800D02*
G75*
G02*
X15334580Y-10718800I40000J0D01*
G01*
X15334580Y-10972800D02*
G75*
G02*
X15254580Y-10972800I-40000J0D01*
G01*
X15254580Y-10972800D02*
G75*
G02*
X15334580Y-10972800I40000J0D01*
G01*
X15334580Y-11226800D02*
G75*
G02*
X15254580Y-11226800I-40000J0D01*
G01*
X15254580Y-11226800D02*
G75*
G02*
X15334580Y-11226800I40000J0D01*
G01*
X15334580Y-11480800D02*
G75*
G02*
X15254580Y-11480800I-40000J0D01*
G01*
X15254580Y-11480800D02*
G75*
G02*
X15334580Y-11480800I40000J0D01*
G01*
X15334580Y-11734800D02*
G75*
G02*
X15254580Y-11734800I-40000J0D01*
G01*
X15254580Y-11734800D02*
G75*
G02*
X15334580Y-11734800I40000J0D01*
G01*
X15334580Y-11988800D02*
G75*
G02*
X15254580Y-11988800I-40000J0D01*
G01*
X15254580Y-11988800D02*
G75*
G02*
X15334580Y-11988800I40000J0D01*
G01*
X15334580Y-12242800D02*
G75*
G02*
X15254580Y-12242800I-40000J0D01*
G01*
X15254580Y-12242800D02*
G75*
G02*
X15334580Y-12242800I40000J0D01*
G01*
X15334580Y-12496800D02*
G75*
G02*
X15254580Y-12496800I-40000J0D01*
G01*
X15254580Y-12496800D02*
G75*
G02*
X15334580Y-12496800I40000J0D01*
G01*
X16858580Y-9194800D02*
G75*
G02*
X16778580Y-9194800I-40000J0D01*
G01*
X16778580Y-9194800D02*
G75*
G02*
X16858580Y-9194800I40000J0D01*
G01*
X16858580Y-9448800D02*
G75*
G02*
X16778580Y-9448800I-40000J0D01*
G01*
X16778580Y-9448800D02*
G75*
G02*
X16858580Y-9448800I40000J0D01*
G01*
X16858580Y-9702800D02*
G75*
G02*
X16778580Y-9702800I-40000J0D01*
G01*
X16778580Y-9702800D02*
G75*
G02*
X16858580Y-9702800I40000J0D01*
G01*
X16858580Y-9956800D02*
G75*
G02*
X16778580Y-9956800I-40000J0D01*
G01*
X16778580Y-9956800D02*
G75*
G02*
X16858580Y-9956800I40000J0D01*
G01*
X16858580Y-10210800D02*
G75*
G02*
X16778580Y-10210800I-40000J0D01*
G01*
X16778580Y-10210800D02*
G75*
G02*
X16858580Y-10210800I40000J0D01*
G01*
X16858580Y-10464800D02*
G75*
G02*
X16778580Y-10464800I-40000J0D01*
G01*
X16778580Y-10464800D02*
G75*
G02*
X16858580Y-10464800I40000J0D01*
G01*
X16858580Y-10718800D02*
G75*
G02*
X16778580Y-10718800I-40000J0D01*
G01*
X16778580Y-10718800D02*
G75*
G02*
X16858580Y-10718800I40000J0D01*
G01*
X16858580Y-10972800D02*
G75*
G02*
X16778580Y-10972800I-40000J0D01*
G01*
X16778580Y-10972800D02*
G75*
G02*
X16858580Y-10972800I40000J0D01*
G01*
X16858580Y-11226800D02*
G75*
G02*
X16778580Y-11226800I-40000J0D01*
G01*
X16778580Y-11226800D02*
G75*
G02*
X16858580Y-11226800I40000J0D01*
G01*
X16858580Y-11480800D02*
G75*
G02*
X16778580Y-11480800I-40000J0D01*
G01*
X16778580Y-11480800D02*
G75*
G02*
X16858580Y-11480800I40000J0D01*
G01*
X16858580Y-11734800D02*
G75*
G02*
X16778580Y-11734800I-40000J0D01*
G01*
X16778580Y-11734800D02*
G75*
G02*
X16858580Y-11734800I40000J0D01*
G01*
X16858580Y-11988800D02*
G75*
G02*
X16778580Y-11988800I-40000J0D01*
G01*
X16778580Y-11988800D02*
G75*
G02*
X16858580Y-11988800I40000J0D01*
G01*
X16858580Y-12242800D02*
G75*
G02*
X16778580Y-12242800I-40000J0D01*
G01*
X16778580Y-12242800D02*
G75*
G02*
X16858580Y-12242800I40000J0D01*
G01*
X16858580Y-12496800D02*
G75*
G02*
X16778580Y-12496800I-40000J0D01*
G01*
X16778580Y-12496800D02*
G75*
G02*
X16858580Y-12496800I40000J0D01*
G01*
X18128580Y-9652000D02*
G75*
G02*
X18048580Y-9652000I-40000J0D01*
G01*
X18048580Y-9652000D02*
G75*
G02*
X18128580Y-9652000I40000J0D01*
G01*
X18128580Y-9906000D02*
G75*
G02*
X18048580Y-9906000I-40000J0D01*
G01*
X18048580Y-9906000D02*
G75*
G02*
X18128580Y-9906000I40000J0D01*
G01*
X18128580Y-10160000D02*
G75*
G02*
X18048580Y-10160000I-40000J0D01*
G01*
X18048580Y-10160000D02*
G75*
G02*
X18128580Y-10160000I40000J0D01*
G01*
X18128580Y-10414000D02*
G75*
G02*
X18048580Y-10414000I-40000J0D01*
G01*
X18048580Y-10414000D02*
G75*
G02*
X18128580Y-10414000I40000J0D01*
G01*
X18128580Y-10668000D02*
G75*
G02*
X18048580Y-10668000I-40000J0D01*
G01*
X18048580Y-10668000D02*
G75*
G02*
X18128580Y-10668000I40000J0D01*
G01*
X18128580Y-10922000D02*
G75*
G02*
X18048580Y-10922000I-40000J0D01*
G01*
X18048580Y-10922000D02*
G75*
G02*
X18128580Y-10922000I40000J0D01*
G01*
X18128580Y-11176000D02*
G75*
G02*
X18048580Y-11176000I-40000J0D01*
G01*
X18048580Y-11176000D02*
G75*
G02*
X18128580Y-11176000I40000J0D01*
G01*
X18128580Y-11430000D02*
G75*
G02*
X18048580Y-11430000I-40000J0D01*
G01*
X18048580Y-11430000D02*
G75*
G02*
X18128580Y-11430000I40000J0D01*
G01*
X18128580Y-11684000D02*
G75*
G02*
X18048580Y-11684000I-40000J0D01*
G01*
X18048580Y-11684000D02*
G75*
G02*
X18128580Y-11684000I40000J0D01*
G01*
X18128580Y-11938000D02*
G75*
G02*
X18048580Y-11938000I-40000J0D01*
G01*
X18048580Y-11938000D02*
G75*
G02*
X18128580Y-11938000I40000J0D01*
G01*
X18890580Y-9652000D02*
G75*
G02*
X18810580Y-9652000I-40000J0D01*
G01*
X18810580Y-9652000D02*
G75*
G02*
X18890580Y-9652000I40000J0D01*
G01*
X18890580Y-9906000D02*
G75*
G02*
X18810580Y-9906000I-40000J0D01*
G01*
X18810580Y-9906000D02*
G75*
G02*
X18890580Y-9906000I40000J0D01*
G01*
X18890580Y-10160000D02*
G75*
G02*
X18810580Y-10160000I-40000J0D01*
G01*
X18810580Y-10160000D02*
G75*
G02*
X18890580Y-10160000I40000J0D01*
G01*
X18890580Y-10414000D02*
G75*
G02*
X18810580Y-10414000I-40000J0D01*
G01*
X18810580Y-10414000D02*
G75*
G02*
X18890580Y-10414000I40000J0D01*
G01*
X18890580Y-10668000D02*
G75*
G02*
X18810580Y-10668000I-40000J0D01*
G01*
X18810580Y-10668000D02*
G75*
G02*
X18890580Y-10668000I40000J0D01*
G01*
X18890580Y-10922000D02*
G75*
G02*
X18810580Y-10922000I-40000J0D01*
G01*
X18810580Y-10922000D02*
G75*
G02*
X18890580Y-10922000I40000J0D01*
G01*
X18890580Y-11176000D02*
G75*
G02*
X18810580Y-11176000I-40000J0D01*
G01*
X18810580Y-11176000D02*
G75*
G02*
X18890580Y-11176000I40000J0D01*
G01*
X18890580Y-11430000D02*
G75*
G02*
X18810580Y-11430000I-40000J0D01*
G01*
X18810580Y-11430000D02*
G75*
G02*
X18890580Y-11430000I40000J0D01*
G01*
X18890580Y-11684000D02*
G75*
G02*
X18810580Y-11684000I-40000J0D01*
G01*
X18810580Y-11684000D02*
G75*
G02*
X18890580Y-11684000I40000J0D01*
G01*
X18890580Y-11938000D02*
G75*
G02*
X18810580Y-11938000I-40000J0D01*
G01*
X18810580Y-11938000D02*
G75*
G02*
X18890580Y-11938000I40000J0D01*
G01*
D11*
X11968943Y-13042085D02*
X11968943Y-12842085D01*
X11968943Y-12842085D02*
X12016562Y-12842085D01*
X12016562Y-12842085D02*
X12045134Y-12851609D01*
X12045134Y-12851609D02*
X12064181Y-12870656D01*
X12064181Y-12870656D02*
X12073705Y-12889704D01*
X12073705Y-12889704D02*
X12083229Y-12927799D01*
X12083229Y-12927799D02*
X12083229Y-12956371D01*
X12083229Y-12956371D02*
X12073705Y-12994466D01*
X12073705Y-12994466D02*
X12064181Y-13013513D01*
X12064181Y-13013513D02*
X12045134Y-13032561D01*
X12045134Y-13032561D02*
X12016562Y-13042085D01*
X12016562Y-13042085D02*
X11968943Y-13042085D01*
X12168943Y-13042085D02*
X12168943Y-12908751D01*
X12168943Y-12946847D02*
X12178467Y-12927799D01*
X12178467Y-12927799D02*
X12187991Y-12918275D01*
X12187991Y-12918275D02*
X12207038Y-12908751D01*
X12207038Y-12908751D02*
X12226086Y-12908751D01*
X12292753Y-13042085D02*
X12292753Y-12908751D01*
X12292753Y-12842085D02*
X12283229Y-12851609D01*
X12283229Y-12851609D02*
X12292753Y-12861132D01*
X12292753Y-12861132D02*
X12302276Y-12851609D01*
X12302276Y-12851609D02*
X12292753Y-12842085D01*
X12292753Y-12842085D02*
X12292753Y-12861132D01*
X12416562Y-13042085D02*
X12397514Y-13032561D01*
X12397514Y-13032561D02*
X12387991Y-13013513D01*
X12387991Y-13013513D02*
X12387991Y-12842085D01*
X12521324Y-13042085D02*
X12502276Y-13032561D01*
X12502276Y-13032561D02*
X12492753Y-13013513D01*
X12492753Y-13013513D02*
X12492753Y-12842085D01*
X12749895Y-13042085D02*
X12749895Y-12842085D01*
X12749895Y-12842085D02*
X12816562Y-12984942D01*
X12816562Y-12984942D02*
X12883229Y-12842085D01*
X12883229Y-12842085D02*
X12883229Y-13042085D01*
X13064181Y-13042085D02*
X13064181Y-12937323D01*
X13064181Y-12937323D02*
X13054657Y-12918275D01*
X13054657Y-12918275D02*
X13035610Y-12908751D01*
X13035610Y-12908751D02*
X12997514Y-12908751D01*
X12997514Y-12908751D02*
X12978467Y-12918275D01*
X13064181Y-13032561D02*
X13045134Y-13042085D01*
X13045134Y-13042085D02*
X12997514Y-13042085D01*
X12997514Y-13042085D02*
X12978467Y-13032561D01*
X12978467Y-13032561D02*
X12968943Y-13013513D01*
X12968943Y-13013513D02*
X12968943Y-12994466D01*
X12968943Y-12994466D02*
X12978467Y-12975418D01*
X12978467Y-12975418D02*
X12997514Y-12965894D01*
X12997514Y-12965894D02*
X13045134Y-12965894D01*
X13045134Y-12965894D02*
X13064181Y-12956371D01*
X13159419Y-12908751D02*
X13159419Y-13108751D01*
X13159419Y-12918275D02*
X13178467Y-12908751D01*
X13178467Y-12908751D02*
X13216562Y-12908751D01*
X13216562Y-12908751D02*
X13235610Y-12918275D01*
X13235610Y-12918275D02*
X13245134Y-12927799D01*
X13245134Y-12927799D02*
X13254657Y-12946847D01*
X13254657Y-12946847D02*
X13254657Y-13003990D01*
X13254657Y-13003990D02*
X13245134Y-13023037D01*
X13245134Y-13023037D02*
X13235610Y-13032561D01*
X13235610Y-13032561D02*
X13216562Y-13042085D01*
X13216562Y-13042085D02*
X13178467Y-13042085D01*
X13178467Y-13042085D02*
X13159419Y-13032561D01*
X13340372Y-13023037D02*
X13349895Y-13032561D01*
X13349895Y-13032561D02*
X13340372Y-13042085D01*
X13340372Y-13042085D02*
X13330848Y-13032561D01*
X13330848Y-13032561D02*
X13340372Y-13023037D01*
X13340372Y-13023037D02*
X13340372Y-13042085D01*
X13340372Y-12918275D02*
X13349895Y-12927799D01*
X13349895Y-12927799D02*
X13340372Y-12937323D01*
X13340372Y-12937323D02*
X13330848Y-12927799D01*
X13330848Y-12927799D02*
X13340372Y-12918275D01*
X13340372Y-12918275D02*
X13340372Y-12937323D01*
D10*
X11668166Y-13350601D02*
X11708166Y-13390601D01*
X11708166Y-13350601D02*
X11668166Y-13390601D01*
D11*
X12007038Y-13262085D02*
X12026086Y-13262085D01*
X12026086Y-13262085D02*
X12045134Y-13271609D01*
X12045134Y-13271609D02*
X12054657Y-13281132D01*
X12054657Y-13281132D02*
X12064181Y-13300180D01*
X12064181Y-13300180D02*
X12073705Y-13338275D01*
X12073705Y-13338275D02*
X12073705Y-13385894D01*
X12073705Y-13385894D02*
X12064181Y-13423990D01*
X12064181Y-13423990D02*
X12054657Y-13443037D01*
X12054657Y-13443037D02*
X12045134Y-13452561D01*
X12045134Y-13452561D02*
X12026086Y-13462085D01*
X12026086Y-13462085D02*
X12007038Y-13462085D01*
X12007038Y-13462085D02*
X11987991Y-13452561D01*
X11987991Y-13452561D02*
X11978467Y-13443037D01*
X11978467Y-13443037D02*
X11968943Y-13423990D01*
X11968943Y-13423990D02*
X11959419Y-13385894D01*
X11959419Y-13385894D02*
X11959419Y-13338275D01*
X11959419Y-13338275D02*
X11968943Y-13300180D01*
X11968943Y-13300180D02*
X11978467Y-13281132D01*
X11978467Y-13281132D02*
X11987991Y-13271609D01*
X11987991Y-13271609D02*
X12007038Y-13262085D01*
X12159419Y-13443037D02*
X12168943Y-13452561D01*
X12168943Y-13452561D02*
X12159419Y-13462085D01*
X12159419Y-13462085D02*
X12149895Y-13452561D01*
X12149895Y-13452561D02*
X12159419Y-13443037D01*
X12159419Y-13443037D02*
X12159419Y-13462085D01*
X12340372Y-13328751D02*
X12340372Y-13462085D01*
X12292753Y-13252561D02*
X12245134Y-13395418D01*
X12245134Y-13395418D02*
X12368943Y-13395418D01*
X12483229Y-13262085D02*
X12502276Y-13262085D01*
X12502276Y-13262085D02*
X12521324Y-13271609D01*
X12521324Y-13271609D02*
X12530848Y-13281132D01*
X12530848Y-13281132D02*
X12540372Y-13300180D01*
X12540372Y-13300180D02*
X12549895Y-13338275D01*
X12549895Y-13338275D02*
X12549895Y-13385894D01*
X12549895Y-13385894D02*
X12540372Y-13423990D01*
X12540372Y-13423990D02*
X12530848Y-13443037D01*
X12530848Y-13443037D02*
X12521324Y-13452561D01*
X12521324Y-13452561D02*
X12502276Y-13462085D01*
X12502276Y-13462085D02*
X12483229Y-13462085D01*
X12483229Y-13462085D02*
X12464181Y-13452561D01*
X12464181Y-13452561D02*
X12454657Y-13443037D01*
X12454657Y-13443037D02*
X12445134Y-13423990D01*
X12445134Y-13423990D02*
X12435610Y-13385894D01*
X12435610Y-13385894D02*
X12435610Y-13338275D01*
X12435610Y-13338275D02*
X12445134Y-13300180D01*
X12445134Y-13300180D02*
X12454657Y-13281132D01*
X12454657Y-13281132D02*
X12464181Y-13271609D01*
X12464181Y-13271609D02*
X12483229Y-13262085D01*
X12673705Y-13262085D02*
X12692753Y-13262085D01*
X12692753Y-13262085D02*
X12711800Y-13271609D01*
X12711800Y-13271609D02*
X12721324Y-13281132D01*
X12721324Y-13281132D02*
X12730848Y-13300180D01*
X12730848Y-13300180D02*
X12740372Y-13338275D01*
X12740372Y-13338275D02*
X12740372Y-13385894D01*
X12740372Y-13385894D02*
X12730848Y-13423990D01*
X12730848Y-13423990D02*
X12721324Y-13443037D01*
X12721324Y-13443037D02*
X12711800Y-13452561D01*
X12711800Y-13452561D02*
X12692753Y-13462085D01*
X12692753Y-13462085D02*
X12673705Y-13462085D01*
X12673705Y-13462085D02*
X12654657Y-13452561D01*
X12654657Y-13452561D02*
X12645134Y-13443037D01*
X12645134Y-13443037D02*
X12635610Y-13423990D01*
X12635610Y-13423990D02*
X12626086Y-13385894D01*
X12626086Y-13385894D02*
X12626086Y-13338275D01*
X12626086Y-13338275D02*
X12635610Y-13300180D01*
X12635610Y-13300180D02*
X12645134Y-13281132D01*
X12645134Y-13281132D02*
X12654657Y-13271609D01*
X12654657Y-13271609D02*
X12673705Y-13262085D01*
X12826086Y-13462085D02*
X12826086Y-13328751D01*
X12826086Y-13347799D02*
X12835610Y-13338275D01*
X12835610Y-13338275D02*
X12854657Y-13328751D01*
X12854657Y-13328751D02*
X12883229Y-13328751D01*
X12883229Y-13328751D02*
X12902276Y-13338275D01*
X12902276Y-13338275D02*
X12911800Y-13357323D01*
X12911800Y-13357323D02*
X12911800Y-13462085D01*
X12911800Y-13357323D02*
X12921324Y-13338275D01*
X12921324Y-13338275D02*
X12940372Y-13328751D01*
X12940372Y-13328751D02*
X12968943Y-13328751D01*
X12968943Y-13328751D02*
X12987991Y-13338275D01*
X12987991Y-13338275D02*
X12997515Y-13357323D01*
X12997515Y-13357323D02*
X12997515Y-13462085D01*
X13092753Y-13462085D02*
X13092753Y-13328751D01*
X13092753Y-13347799D02*
X13102276Y-13338275D01*
X13102276Y-13338275D02*
X13121324Y-13328751D01*
X13121324Y-13328751D02*
X13149896Y-13328751D01*
X13149896Y-13328751D02*
X13168943Y-13338275D01*
X13168943Y-13338275D02*
X13178467Y-13357323D01*
X13178467Y-13357323D02*
X13178467Y-13462085D01*
X13178467Y-13357323D02*
X13187991Y-13338275D01*
X13187991Y-13338275D02*
X13207038Y-13328751D01*
X13207038Y-13328751D02*
X13235610Y-13328751D01*
X13235610Y-13328751D02*
X13254657Y-13338275D01*
X13254657Y-13338275D02*
X13264181Y-13357323D01*
X13264181Y-13357323D02*
X13264181Y-13462085D01*
X13654657Y-13252561D02*
X13483229Y-13509704D01*
X13911800Y-13262085D02*
X13930848Y-13262085D01*
X13930848Y-13262085D02*
X13949896Y-13271609D01*
X13949896Y-13271609D02*
X13959419Y-13281132D01*
X13959419Y-13281132D02*
X13968943Y-13300180D01*
X13968943Y-13300180D02*
X13978467Y-13338275D01*
X13978467Y-13338275D02*
X13978467Y-13385894D01*
X13978467Y-13385894D02*
X13968943Y-13423990D01*
X13968943Y-13423990D02*
X13959419Y-13443037D01*
X13959419Y-13443037D02*
X13949896Y-13452561D01*
X13949896Y-13452561D02*
X13930848Y-13462085D01*
X13930848Y-13462085D02*
X13911800Y-13462085D01*
X13911800Y-13462085D02*
X13892753Y-13452561D01*
X13892753Y-13452561D02*
X13883229Y-13443037D01*
X13883229Y-13443037D02*
X13873705Y-13423990D01*
X13873705Y-13423990D02*
X13864181Y-13385894D01*
X13864181Y-13385894D02*
X13864181Y-13338275D01*
X13864181Y-13338275D02*
X13873705Y-13300180D01*
X13873705Y-13300180D02*
X13883229Y-13281132D01*
X13883229Y-13281132D02*
X13892753Y-13271609D01*
X13892753Y-13271609D02*
X13911800Y-13262085D01*
X14064181Y-13443037D02*
X14073705Y-13452561D01*
X14073705Y-13452561D02*
X14064181Y-13462085D01*
X14064181Y-13462085D02*
X14054658Y-13452561D01*
X14054658Y-13452561D02*
X14064181Y-13443037D01*
X14064181Y-13443037D02*
X14064181Y-13462085D01*
X14197515Y-13262085D02*
X14216562Y-13262085D01*
X14216562Y-13262085D02*
X14235610Y-13271609D01*
X14235610Y-13271609D02*
X14245134Y-13281132D01*
X14245134Y-13281132D02*
X14254658Y-13300180D01*
X14254658Y-13300180D02*
X14264181Y-13338275D01*
X14264181Y-13338275D02*
X14264181Y-13385894D01*
X14264181Y-13385894D02*
X14254658Y-13423990D01*
X14254658Y-13423990D02*
X14245134Y-13443037D01*
X14245134Y-13443037D02*
X14235610Y-13452561D01*
X14235610Y-13452561D02*
X14216562Y-13462085D01*
X14216562Y-13462085D02*
X14197515Y-13462085D01*
X14197515Y-13462085D02*
X14178467Y-13452561D01*
X14178467Y-13452561D02*
X14168943Y-13443037D01*
X14168943Y-13443037D02*
X14159419Y-13423990D01*
X14159419Y-13423990D02*
X14149896Y-13385894D01*
X14149896Y-13385894D02*
X14149896Y-13338275D01*
X14149896Y-13338275D02*
X14159419Y-13300180D01*
X14159419Y-13300180D02*
X14168943Y-13281132D01*
X14168943Y-13281132D02*
X14178467Y-13271609D01*
X14178467Y-13271609D02*
X14197515Y-13262085D01*
X14454658Y-13462085D02*
X14340372Y-13462085D01*
X14397515Y-13462085D02*
X14397515Y-13262085D01*
X14397515Y-13262085D02*
X14378467Y-13290656D01*
X14378467Y-13290656D02*
X14359419Y-13309704D01*
X14359419Y-13309704D02*
X14340372Y-13319228D01*
X14635610Y-13262085D02*
X14540372Y-13262085D01*
X14540372Y-13262085D02*
X14530848Y-13357323D01*
X14530848Y-13357323D02*
X14540372Y-13347799D01*
X14540372Y-13347799D02*
X14559419Y-13338275D01*
X14559419Y-13338275D02*
X14607039Y-13338275D01*
X14607039Y-13338275D02*
X14626086Y-13347799D01*
X14626086Y-13347799D02*
X14635610Y-13357323D01*
X14635610Y-13357323D02*
X14645134Y-13376371D01*
X14645134Y-13376371D02*
X14645134Y-13423990D01*
X14645134Y-13423990D02*
X14635610Y-13443037D01*
X14635610Y-13443037D02*
X14626086Y-13452561D01*
X14626086Y-13452561D02*
X14607039Y-13462085D01*
X14607039Y-13462085D02*
X14559419Y-13462085D01*
X14559419Y-13462085D02*
X14540372Y-13452561D01*
X14540372Y-13452561D02*
X14530848Y-13443037D01*
X14711800Y-13262085D02*
X14845134Y-13262085D01*
X14845134Y-13262085D02*
X14759419Y-13462085D01*
X14911800Y-13262085D02*
X14911800Y-13300180D01*
X14987991Y-13262085D02*
X14987991Y-13300180D01*
X15283229Y-13538275D02*
X15273705Y-13528751D01*
X15273705Y-13528751D02*
X15254658Y-13500180D01*
X15254658Y-13500180D02*
X15245134Y-13481132D01*
X15245134Y-13481132D02*
X15235610Y-13452561D01*
X15235610Y-13452561D02*
X15226086Y-13404942D01*
X15226086Y-13404942D02*
X15226086Y-13366847D01*
X15226086Y-13366847D02*
X15235610Y-13319228D01*
X15235610Y-13319228D02*
X15245134Y-13290656D01*
X15245134Y-13290656D02*
X15254658Y-13271609D01*
X15254658Y-13271609D02*
X15273705Y-13243037D01*
X15273705Y-13243037D02*
X15283229Y-13233513D01*
X15445134Y-13328751D02*
X15445134Y-13462085D01*
X15397515Y-13252561D02*
X15349896Y-13395418D01*
X15349896Y-13395418D02*
X15473705Y-13395418D01*
X15635610Y-13328751D02*
X15635610Y-13462085D01*
X15587991Y-13252561D02*
X15540372Y-13395418D01*
X15540372Y-13395418D02*
X15664181Y-13395418D01*
X15892753Y-13462085D02*
X15892753Y-13262085D01*
X15978467Y-13462085D02*
X15978467Y-13357323D01*
X15978467Y-13357323D02*
X15968943Y-13338275D01*
X15968943Y-13338275D02*
X15949896Y-13328751D01*
X15949896Y-13328751D02*
X15921324Y-13328751D01*
X15921324Y-13328751D02*
X15902277Y-13338275D01*
X15902277Y-13338275D02*
X15892753Y-13347799D01*
X16102277Y-13462085D02*
X16083229Y-13452561D01*
X16083229Y-13452561D02*
X16073705Y-13443037D01*
X16073705Y-13443037D02*
X16064182Y-13423990D01*
X16064182Y-13423990D02*
X16064182Y-13366847D01*
X16064182Y-13366847D02*
X16073705Y-13347799D01*
X16073705Y-13347799D02*
X16083229Y-13338275D01*
X16083229Y-13338275D02*
X16102277Y-13328751D01*
X16102277Y-13328751D02*
X16130848Y-13328751D01*
X16130848Y-13328751D02*
X16149896Y-13338275D01*
X16149896Y-13338275D02*
X16159420Y-13347799D01*
X16159420Y-13347799D02*
X16168943Y-13366847D01*
X16168943Y-13366847D02*
X16168943Y-13423990D01*
X16168943Y-13423990D02*
X16159420Y-13443037D01*
X16159420Y-13443037D02*
X16149896Y-13452561D01*
X16149896Y-13452561D02*
X16130848Y-13462085D01*
X16130848Y-13462085D02*
X16102277Y-13462085D01*
X16283229Y-13462085D02*
X16264182Y-13452561D01*
X16264182Y-13452561D02*
X16254658Y-13433513D01*
X16254658Y-13433513D02*
X16254658Y-13262085D01*
X16435610Y-13452561D02*
X16416563Y-13462085D01*
X16416563Y-13462085D02*
X16378467Y-13462085D01*
X16378467Y-13462085D02*
X16359420Y-13452561D01*
X16359420Y-13452561D02*
X16349896Y-13433513D01*
X16349896Y-13433513D02*
X16349896Y-13357323D01*
X16349896Y-13357323D02*
X16359420Y-13338275D01*
X16359420Y-13338275D02*
X16378467Y-13328751D01*
X16378467Y-13328751D02*
X16416563Y-13328751D01*
X16416563Y-13328751D02*
X16435610Y-13338275D01*
X16435610Y-13338275D02*
X16445134Y-13357323D01*
X16445134Y-13357323D02*
X16445134Y-13376371D01*
X16445134Y-13376371D02*
X16349896Y-13395418D01*
X16521324Y-13452561D02*
X16540372Y-13462085D01*
X16540372Y-13462085D02*
X16578467Y-13462085D01*
X16578467Y-13462085D02*
X16597515Y-13452561D01*
X16597515Y-13452561D02*
X16607039Y-13433513D01*
X16607039Y-13433513D02*
X16607039Y-13423990D01*
X16607039Y-13423990D02*
X16597515Y-13404942D01*
X16597515Y-13404942D02*
X16578467Y-13395418D01*
X16578467Y-13395418D02*
X16549896Y-13395418D01*
X16549896Y-13395418D02*
X16530848Y-13385894D01*
X16530848Y-13385894D02*
X16521324Y-13366847D01*
X16521324Y-13366847D02*
X16521324Y-13357323D01*
X16521324Y-13357323D02*
X16530848Y-13338275D01*
X16530848Y-13338275D02*
X16549896Y-13328751D01*
X16549896Y-13328751D02*
X16578467Y-13328751D01*
X16578467Y-13328751D02*
X16597515Y-13338275D01*
X16673705Y-13538275D02*
X16683229Y-13528751D01*
X16683229Y-13528751D02*
X16702277Y-13500180D01*
X16702277Y-13500180D02*
X16711801Y-13481132D01*
X16711801Y-13481132D02*
X16721324Y-13452561D01*
X16721324Y-13452561D02*
X16730848Y-13404942D01*
X16730848Y-13404942D02*
X16730848Y-13366847D01*
X16730848Y-13366847D02*
X16721324Y-13319228D01*
X16721324Y-13319228D02*
X16711801Y-13290656D01*
X16711801Y-13290656D02*
X16702277Y-13271609D01*
X16702277Y-13271609D02*
X16683229Y-13243037D01*
X16683229Y-13243037D02*
X16673705Y-13233513D01*
D10*
X11708166Y-13634601D02*
G75*
G02*
X11628166Y-13634601I-40000J0D01*
G01*
X11628166Y-13634601D02*
G75*
G02*
X11708166Y-13634601I40000J0D01*
G01*
D11*
X12007038Y-13526085D02*
X12026086Y-13526085D01*
X12026086Y-13526085D02*
X12045134Y-13535609D01*
X12045134Y-13535609D02*
X12054657Y-13545132D01*
X12054657Y-13545132D02*
X12064181Y-13564180D01*
X12064181Y-13564180D02*
X12073705Y-13602275D01*
X12073705Y-13602275D02*
X12073705Y-13649894D01*
X12073705Y-13649894D02*
X12064181Y-13687990D01*
X12064181Y-13687990D02*
X12054657Y-13707037D01*
X12054657Y-13707037D02*
X12045134Y-13716561D01*
X12045134Y-13716561D02*
X12026086Y-13726085D01*
X12026086Y-13726085D02*
X12007038Y-13726085D01*
X12007038Y-13726085D02*
X11987991Y-13716561D01*
X11987991Y-13716561D02*
X11978467Y-13707037D01*
X11978467Y-13707037D02*
X11968943Y-13687990D01*
X11968943Y-13687990D02*
X11959419Y-13649894D01*
X11959419Y-13649894D02*
X11959419Y-13602275D01*
X11959419Y-13602275D02*
X11968943Y-13564180D01*
X11968943Y-13564180D02*
X11978467Y-13545132D01*
X11978467Y-13545132D02*
X11987991Y-13535609D01*
X11987991Y-13535609D02*
X12007038Y-13526085D01*
X12159419Y-13707037D02*
X12168943Y-13716561D01*
X12168943Y-13716561D02*
X12159419Y-13726085D01*
X12159419Y-13726085D02*
X12149895Y-13716561D01*
X12149895Y-13716561D02*
X12159419Y-13707037D01*
X12159419Y-13707037D02*
X12159419Y-13726085D01*
X12283229Y-13611799D02*
X12264181Y-13602275D01*
X12264181Y-13602275D02*
X12254657Y-13592751D01*
X12254657Y-13592751D02*
X12245134Y-13573704D01*
X12245134Y-13573704D02*
X12245134Y-13564180D01*
X12245134Y-13564180D02*
X12254657Y-13545132D01*
X12254657Y-13545132D02*
X12264181Y-13535609D01*
X12264181Y-13535609D02*
X12283229Y-13526085D01*
X12283229Y-13526085D02*
X12321324Y-13526085D01*
X12321324Y-13526085D02*
X12340372Y-13535609D01*
X12340372Y-13535609D02*
X12349895Y-13545132D01*
X12349895Y-13545132D02*
X12359419Y-13564180D01*
X12359419Y-13564180D02*
X12359419Y-13573704D01*
X12359419Y-13573704D02*
X12349895Y-13592751D01*
X12349895Y-13592751D02*
X12340372Y-13602275D01*
X12340372Y-13602275D02*
X12321324Y-13611799D01*
X12321324Y-13611799D02*
X12283229Y-13611799D01*
X12283229Y-13611799D02*
X12264181Y-13621323D01*
X12264181Y-13621323D02*
X12254657Y-13630847D01*
X12254657Y-13630847D02*
X12245134Y-13649894D01*
X12245134Y-13649894D02*
X12245134Y-13687990D01*
X12245134Y-13687990D02*
X12254657Y-13707037D01*
X12254657Y-13707037D02*
X12264181Y-13716561D01*
X12264181Y-13716561D02*
X12283229Y-13726085D01*
X12283229Y-13726085D02*
X12321324Y-13726085D01*
X12321324Y-13726085D02*
X12340372Y-13716561D01*
X12340372Y-13716561D02*
X12349895Y-13707037D01*
X12349895Y-13707037D02*
X12359419Y-13687990D01*
X12359419Y-13687990D02*
X12359419Y-13649894D01*
X12359419Y-13649894D02*
X12349895Y-13630847D01*
X12349895Y-13630847D02*
X12340372Y-13621323D01*
X12340372Y-13621323D02*
X12321324Y-13611799D01*
X12483229Y-13526085D02*
X12502276Y-13526085D01*
X12502276Y-13526085D02*
X12521324Y-13535609D01*
X12521324Y-13535609D02*
X12530848Y-13545132D01*
X12530848Y-13545132D02*
X12540372Y-13564180D01*
X12540372Y-13564180D02*
X12549895Y-13602275D01*
X12549895Y-13602275D02*
X12549895Y-13649894D01*
X12549895Y-13649894D02*
X12540372Y-13687990D01*
X12540372Y-13687990D02*
X12530848Y-13707037D01*
X12530848Y-13707037D02*
X12521324Y-13716561D01*
X12521324Y-13716561D02*
X12502276Y-13726085D01*
X12502276Y-13726085D02*
X12483229Y-13726085D01*
X12483229Y-13726085D02*
X12464181Y-13716561D01*
X12464181Y-13716561D02*
X12454657Y-13707037D01*
X12454657Y-13707037D02*
X12445134Y-13687990D01*
X12445134Y-13687990D02*
X12435610Y-13649894D01*
X12435610Y-13649894D02*
X12435610Y-13602275D01*
X12435610Y-13602275D02*
X12445134Y-13564180D01*
X12445134Y-13564180D02*
X12454657Y-13545132D01*
X12454657Y-13545132D02*
X12464181Y-13535609D01*
X12464181Y-13535609D02*
X12483229Y-13526085D01*
X12673705Y-13526085D02*
X12692753Y-13526085D01*
X12692753Y-13526085D02*
X12711800Y-13535609D01*
X12711800Y-13535609D02*
X12721324Y-13545132D01*
X12721324Y-13545132D02*
X12730848Y-13564180D01*
X12730848Y-13564180D02*
X12740372Y-13602275D01*
X12740372Y-13602275D02*
X12740372Y-13649894D01*
X12740372Y-13649894D02*
X12730848Y-13687990D01*
X12730848Y-13687990D02*
X12721324Y-13707037D01*
X12721324Y-13707037D02*
X12711800Y-13716561D01*
X12711800Y-13716561D02*
X12692753Y-13726085D01*
X12692753Y-13726085D02*
X12673705Y-13726085D01*
X12673705Y-13726085D02*
X12654657Y-13716561D01*
X12654657Y-13716561D02*
X12645134Y-13707037D01*
X12645134Y-13707037D02*
X12635610Y-13687990D01*
X12635610Y-13687990D02*
X12626086Y-13649894D01*
X12626086Y-13649894D02*
X12626086Y-13602275D01*
X12626086Y-13602275D02*
X12635610Y-13564180D01*
X12635610Y-13564180D02*
X12645134Y-13545132D01*
X12645134Y-13545132D02*
X12654657Y-13535609D01*
X12654657Y-13535609D02*
X12673705Y-13526085D01*
X12826086Y-13726085D02*
X12826086Y-13592751D01*
X12826086Y-13611799D02*
X12835610Y-13602275D01*
X12835610Y-13602275D02*
X12854657Y-13592751D01*
X12854657Y-13592751D02*
X12883229Y-13592751D01*
X12883229Y-13592751D02*
X12902276Y-13602275D01*
X12902276Y-13602275D02*
X12911800Y-13621323D01*
X12911800Y-13621323D02*
X12911800Y-13726085D01*
X12911800Y-13621323D02*
X12921324Y-13602275D01*
X12921324Y-13602275D02*
X12940372Y-13592751D01*
X12940372Y-13592751D02*
X12968943Y-13592751D01*
X12968943Y-13592751D02*
X12987991Y-13602275D01*
X12987991Y-13602275D02*
X12997515Y-13621323D01*
X12997515Y-13621323D02*
X12997515Y-13726085D01*
X13092753Y-13726085D02*
X13092753Y-13592751D01*
X13092753Y-13611799D02*
X13102276Y-13602275D01*
X13102276Y-13602275D02*
X13121324Y-13592751D01*
X13121324Y-13592751D02*
X13149896Y-13592751D01*
X13149896Y-13592751D02*
X13168943Y-13602275D01*
X13168943Y-13602275D02*
X13178467Y-13621323D01*
X13178467Y-13621323D02*
X13178467Y-13726085D01*
X13178467Y-13621323D02*
X13187991Y-13602275D01*
X13187991Y-13602275D02*
X13207038Y-13592751D01*
X13207038Y-13592751D02*
X13235610Y-13592751D01*
X13235610Y-13592751D02*
X13254657Y-13602275D01*
X13254657Y-13602275D02*
X13264181Y-13621323D01*
X13264181Y-13621323D02*
X13264181Y-13726085D01*
X13654657Y-13516561D02*
X13483229Y-13773704D01*
X13911800Y-13526085D02*
X13930848Y-13526085D01*
X13930848Y-13526085D02*
X13949896Y-13535609D01*
X13949896Y-13535609D02*
X13959419Y-13545132D01*
X13959419Y-13545132D02*
X13968943Y-13564180D01*
X13968943Y-13564180D02*
X13978467Y-13602275D01*
X13978467Y-13602275D02*
X13978467Y-13649894D01*
X13978467Y-13649894D02*
X13968943Y-13687990D01*
X13968943Y-13687990D02*
X13959419Y-13707037D01*
X13959419Y-13707037D02*
X13949896Y-13716561D01*
X13949896Y-13716561D02*
X13930848Y-13726085D01*
X13930848Y-13726085D02*
X13911800Y-13726085D01*
X13911800Y-13726085D02*
X13892753Y-13716561D01*
X13892753Y-13716561D02*
X13883229Y-13707037D01*
X13883229Y-13707037D02*
X13873705Y-13687990D01*
X13873705Y-13687990D02*
X13864181Y-13649894D01*
X13864181Y-13649894D02*
X13864181Y-13602275D01*
X13864181Y-13602275D02*
X13873705Y-13564180D01*
X13873705Y-13564180D02*
X13883229Y-13545132D01*
X13883229Y-13545132D02*
X13892753Y-13535609D01*
X13892753Y-13535609D02*
X13911800Y-13526085D01*
X14064181Y-13707037D02*
X14073705Y-13716561D01*
X14073705Y-13716561D02*
X14064181Y-13726085D01*
X14064181Y-13726085D02*
X14054658Y-13716561D01*
X14054658Y-13716561D02*
X14064181Y-13707037D01*
X14064181Y-13707037D02*
X14064181Y-13726085D01*
X14197515Y-13526085D02*
X14216562Y-13526085D01*
X14216562Y-13526085D02*
X14235610Y-13535609D01*
X14235610Y-13535609D02*
X14245134Y-13545132D01*
X14245134Y-13545132D02*
X14254658Y-13564180D01*
X14254658Y-13564180D02*
X14264181Y-13602275D01*
X14264181Y-13602275D02*
X14264181Y-13649894D01*
X14264181Y-13649894D02*
X14254658Y-13687990D01*
X14254658Y-13687990D02*
X14245134Y-13707037D01*
X14245134Y-13707037D02*
X14235610Y-13716561D01*
X14235610Y-13716561D02*
X14216562Y-13726085D01*
X14216562Y-13726085D02*
X14197515Y-13726085D01*
X14197515Y-13726085D02*
X14178467Y-13716561D01*
X14178467Y-13716561D02*
X14168943Y-13707037D01*
X14168943Y-13707037D02*
X14159419Y-13687990D01*
X14159419Y-13687990D02*
X14149896Y-13649894D01*
X14149896Y-13649894D02*
X14149896Y-13602275D01*
X14149896Y-13602275D02*
X14159419Y-13564180D01*
X14159419Y-13564180D02*
X14168943Y-13545132D01*
X14168943Y-13545132D02*
X14178467Y-13535609D01*
X14178467Y-13535609D02*
X14197515Y-13526085D01*
X14330848Y-13526085D02*
X14454658Y-13526085D01*
X14454658Y-13526085D02*
X14387991Y-13602275D01*
X14387991Y-13602275D02*
X14416562Y-13602275D01*
X14416562Y-13602275D02*
X14435610Y-13611799D01*
X14435610Y-13611799D02*
X14445134Y-13621323D01*
X14445134Y-13621323D02*
X14454658Y-13640371D01*
X14454658Y-13640371D02*
X14454658Y-13687990D01*
X14454658Y-13687990D02*
X14445134Y-13707037D01*
X14445134Y-13707037D02*
X14435610Y-13716561D01*
X14435610Y-13716561D02*
X14416562Y-13726085D01*
X14416562Y-13726085D02*
X14359419Y-13726085D01*
X14359419Y-13726085D02*
X14340372Y-13716561D01*
X14340372Y-13716561D02*
X14330848Y-13707037D01*
X14645134Y-13726085D02*
X14530848Y-13726085D01*
X14587991Y-13726085D02*
X14587991Y-13526085D01*
X14587991Y-13526085D02*
X14568943Y-13554656D01*
X14568943Y-13554656D02*
X14549896Y-13573704D01*
X14549896Y-13573704D02*
X14530848Y-13583228D01*
X14826086Y-13526085D02*
X14730848Y-13526085D01*
X14730848Y-13526085D02*
X14721324Y-13621323D01*
X14721324Y-13621323D02*
X14730848Y-13611799D01*
X14730848Y-13611799D02*
X14749896Y-13602275D01*
X14749896Y-13602275D02*
X14797515Y-13602275D01*
X14797515Y-13602275D02*
X14816562Y-13611799D01*
X14816562Y-13611799D02*
X14826086Y-13621323D01*
X14826086Y-13621323D02*
X14835610Y-13640371D01*
X14835610Y-13640371D02*
X14835610Y-13687990D01*
X14835610Y-13687990D02*
X14826086Y-13707037D01*
X14826086Y-13707037D02*
X14816562Y-13716561D01*
X14816562Y-13716561D02*
X14797515Y-13726085D01*
X14797515Y-13726085D02*
X14749896Y-13726085D01*
X14749896Y-13726085D02*
X14730848Y-13716561D01*
X14730848Y-13716561D02*
X14721324Y-13707037D01*
X14911800Y-13526085D02*
X14911800Y-13564180D01*
X14987991Y-13526085D02*
X14987991Y-13564180D01*
X15283229Y-13802275D02*
X15273705Y-13792751D01*
X15273705Y-13792751D02*
X15254658Y-13764180D01*
X15254658Y-13764180D02*
X15245134Y-13745132D01*
X15245134Y-13745132D02*
X15235610Y-13716561D01*
X15235610Y-13716561D02*
X15226086Y-13668942D01*
X15226086Y-13668942D02*
X15226086Y-13630847D01*
X15226086Y-13630847D02*
X15235610Y-13583228D01*
X15235610Y-13583228D02*
X15245134Y-13554656D01*
X15245134Y-13554656D02*
X15254658Y-13535609D01*
X15254658Y-13535609D02*
X15273705Y-13507037D01*
X15273705Y-13507037D02*
X15283229Y-13497513D01*
X15464181Y-13726085D02*
X15349896Y-13726085D01*
X15407039Y-13726085D02*
X15407039Y-13526085D01*
X15407039Y-13526085D02*
X15387991Y-13554656D01*
X15387991Y-13554656D02*
X15368943Y-13573704D01*
X15368943Y-13573704D02*
X15349896Y-13583228D01*
X15635610Y-13592751D02*
X15635610Y-13726085D01*
X15587991Y-13516561D02*
X15540372Y-13659418D01*
X15540372Y-13659418D02*
X15664181Y-13659418D01*
X15826086Y-13592751D02*
X15826086Y-13726085D01*
X15778467Y-13516561D02*
X15730848Y-13659418D01*
X15730848Y-13659418D02*
X15854658Y-13659418D01*
X16083229Y-13726085D02*
X16083229Y-13526085D01*
X16168943Y-13726085D02*
X16168943Y-13621323D01*
X16168943Y-13621323D02*
X16159420Y-13602275D01*
X16159420Y-13602275D02*
X16140372Y-13592751D01*
X16140372Y-13592751D02*
X16111801Y-13592751D01*
X16111801Y-13592751D02*
X16092753Y-13602275D01*
X16092753Y-13602275D02*
X16083229Y-13611799D01*
X16292753Y-13726085D02*
X16273705Y-13716561D01*
X16273705Y-13716561D02*
X16264182Y-13707037D01*
X16264182Y-13707037D02*
X16254658Y-13687990D01*
X16254658Y-13687990D02*
X16254658Y-13630847D01*
X16254658Y-13630847D02*
X16264182Y-13611799D01*
X16264182Y-13611799D02*
X16273705Y-13602275D01*
X16273705Y-13602275D02*
X16292753Y-13592751D01*
X16292753Y-13592751D02*
X16321324Y-13592751D01*
X16321324Y-13592751D02*
X16340372Y-13602275D01*
X16340372Y-13602275D02*
X16349896Y-13611799D01*
X16349896Y-13611799D02*
X16359420Y-13630847D01*
X16359420Y-13630847D02*
X16359420Y-13687990D01*
X16359420Y-13687990D02*
X16349896Y-13707037D01*
X16349896Y-13707037D02*
X16340372Y-13716561D01*
X16340372Y-13716561D02*
X16321324Y-13726085D01*
X16321324Y-13726085D02*
X16292753Y-13726085D01*
X16473705Y-13726085D02*
X16454658Y-13716561D01*
X16454658Y-13716561D02*
X16445134Y-13697513D01*
X16445134Y-13697513D02*
X16445134Y-13526085D01*
X16626086Y-13716561D02*
X16607039Y-13726085D01*
X16607039Y-13726085D02*
X16568943Y-13726085D01*
X16568943Y-13726085D02*
X16549896Y-13716561D01*
X16549896Y-13716561D02*
X16540372Y-13697513D01*
X16540372Y-13697513D02*
X16540372Y-13621323D01*
X16540372Y-13621323D02*
X16549896Y-13602275D01*
X16549896Y-13602275D02*
X16568943Y-13592751D01*
X16568943Y-13592751D02*
X16607039Y-13592751D01*
X16607039Y-13592751D02*
X16626086Y-13602275D01*
X16626086Y-13602275D02*
X16635610Y-13621323D01*
X16635610Y-13621323D02*
X16635610Y-13640371D01*
X16635610Y-13640371D02*
X16540372Y-13659418D01*
X16711801Y-13716561D02*
X16730848Y-13726085D01*
X16730848Y-13726085D02*
X16768943Y-13726085D01*
X16768943Y-13726085D02*
X16787991Y-13716561D01*
X16787991Y-13716561D02*
X16797515Y-13697513D01*
X16797515Y-13697513D02*
X16797515Y-13687990D01*
X16797515Y-13687990D02*
X16787991Y-13668942D01*
X16787991Y-13668942D02*
X16768943Y-13659418D01*
X16768943Y-13659418D02*
X16740372Y-13659418D01*
X16740372Y-13659418D02*
X16721324Y-13649894D01*
X16721324Y-13649894D02*
X16711801Y-13630847D01*
X16711801Y-13630847D02*
X16711801Y-13621323D01*
X16711801Y-13621323D02*
X16721324Y-13602275D01*
X16721324Y-13602275D02*
X16740372Y-13592751D01*
X16740372Y-13592751D02*
X16768943Y-13592751D01*
X16768943Y-13592751D02*
X16787991Y-13602275D01*
X16864182Y-13802275D02*
X16873706Y-13792751D01*
X16873706Y-13792751D02*
X16892753Y-13764180D01*
X16892753Y-13764180D02*
X16902277Y-13745132D01*
X16902277Y-13745132D02*
X16911801Y-13716561D01*
X16911801Y-13716561D02*
X16921325Y-13668942D01*
X16921325Y-13668942D02*
X16921325Y-13630847D01*
X16921325Y-13630847D02*
X16911801Y-13583228D01*
X16911801Y-13583228D02*
X16902277Y-13554656D01*
X16902277Y-13554656D02*
X16892753Y-13535609D01*
X16892753Y-13535609D02*
X16873706Y-13507037D01*
X16873706Y-13507037D02*
X16864182Y-13497513D01*
M02*
