%TF.GenerationSoftware,KiCad,Pcbnew,9.0.5*%
%TF.CreationDate,2026-01-02T17:42:38+00:00*%
%TF.ProjectId,DataIOROM,44617461-494f-4524-9f4d-2e6b69636164,rev?*%
%TF.SameCoordinates,Original*%
%TF.FileFunction,Drillmap*%
%TF.FilePolarity,Positive*%
%FSLAX45Y45*%
G04 Gerber Fmt 4.5, Leading zero omitted, Abs format (unit mm)*
G04 Created by KiCad (PCBNEW 9.0.5) date 2026-01-02 17:42:38*
%MOMM*%
%LPD*%
G01*
G04 APERTURE LIST*
%ADD10C,0.100000*%
%ADD11C,0.200000*%
G04 APERTURE END LIST*
D10*
X11713166Y-12725400D02*
X17195599Y-12725601D01*
X14859000Y-5486400D02*
X14859000Y-8826500D01*
X14859000Y-8826500D02*
X19037300Y-8826500D01*
X11713166Y-12725400D02*
X11713166Y-8556034D01*
X13385800Y-5486400D02*
X14859000Y-5486400D01*
X13385800Y-6883400D02*
X13385800Y-5486400D01*
X19037300Y-12192000D02*
X19037300Y-8826500D01*
X17805400Y-12192000D02*
X19037300Y-12192000D01*
X17195599Y-12725601D02*
X17805400Y-12192000D01*
X13385800Y-6883400D02*
X11713166Y-8556034D01*
D11*
X11968943Y-13042085D02*
X11968943Y-12842085D01*
X11968943Y-12842085D02*
X12016562Y-12842085D01*
X12016562Y-12842085D02*
X12045134Y-12851609D01*
X12045134Y-12851609D02*
X12064181Y-12870656D01*
X12064181Y-12870656D02*
X12073705Y-12889704D01*
X12073705Y-12889704D02*
X12083229Y-12927799D01*
X12083229Y-12927799D02*
X12083229Y-12956371D01*
X12083229Y-12956371D02*
X12073705Y-12994466D01*
X12073705Y-12994466D02*
X12064181Y-13013513D01*
X12064181Y-13013513D02*
X12045134Y-13032561D01*
X12045134Y-13032561D02*
X12016562Y-13042085D01*
X12016562Y-13042085D02*
X11968943Y-13042085D01*
X12168943Y-13042085D02*
X12168943Y-12908751D01*
X12168943Y-12946847D02*
X12178467Y-12927799D01*
X12178467Y-12927799D02*
X12187991Y-12918275D01*
X12187991Y-12918275D02*
X12207038Y-12908751D01*
X12207038Y-12908751D02*
X12226086Y-12908751D01*
X12292753Y-13042085D02*
X12292753Y-12908751D01*
X12292753Y-12842085D02*
X12283229Y-12851609D01*
X12283229Y-12851609D02*
X12292753Y-12861132D01*
X12292753Y-12861132D02*
X12302276Y-12851609D01*
X12302276Y-12851609D02*
X12292753Y-12842085D01*
X12292753Y-12842085D02*
X12292753Y-12861132D01*
X12416562Y-13042085D02*
X12397514Y-13032561D01*
X12397514Y-13032561D02*
X12387991Y-13013513D01*
X12387991Y-13013513D02*
X12387991Y-12842085D01*
X12521324Y-13042085D02*
X12502276Y-13032561D01*
X12502276Y-13032561D02*
X12492753Y-13013513D01*
X12492753Y-13013513D02*
X12492753Y-12842085D01*
X12749895Y-13042085D02*
X12749895Y-12842085D01*
X12749895Y-12842085D02*
X12816562Y-12984942D01*
X12816562Y-12984942D02*
X12883229Y-12842085D01*
X12883229Y-12842085D02*
X12883229Y-13042085D01*
X13064181Y-13042085D02*
X13064181Y-12937323D01*
X13064181Y-12937323D02*
X13054657Y-12918275D01*
X13054657Y-12918275D02*
X13035610Y-12908751D01*
X13035610Y-12908751D02*
X12997514Y-12908751D01*
X12997514Y-12908751D02*
X12978467Y-12918275D01*
X13064181Y-13032561D02*
X13045134Y-13042085D01*
X13045134Y-13042085D02*
X12997514Y-13042085D01*
X12997514Y-13042085D02*
X12978467Y-13032561D01*
X12978467Y-13032561D02*
X12968943Y-13013513D01*
X12968943Y-13013513D02*
X12968943Y-12994466D01*
X12968943Y-12994466D02*
X12978467Y-12975418D01*
X12978467Y-12975418D02*
X12997514Y-12965894D01*
X12997514Y-12965894D02*
X13045134Y-12965894D01*
X13045134Y-12965894D02*
X13064181Y-12956371D01*
X13159419Y-12908751D02*
X13159419Y-13108751D01*
X13159419Y-12918275D02*
X13178467Y-12908751D01*
X13178467Y-12908751D02*
X13216562Y-12908751D01*
X13216562Y-12908751D02*
X13235610Y-12918275D01*
X13235610Y-12918275D02*
X13245134Y-12927799D01*
X13245134Y-12927799D02*
X13254657Y-12946847D01*
X13254657Y-12946847D02*
X13254657Y-13003990D01*
X13254657Y-13003990D02*
X13245134Y-13023037D01*
X13245134Y-13023037D02*
X13235610Y-13032561D01*
X13235610Y-13032561D02*
X13216562Y-13042085D01*
X13216562Y-13042085D02*
X13178467Y-13042085D01*
X13178467Y-13042085D02*
X13159419Y-13032561D01*
X13340372Y-13023037D02*
X13349895Y-13032561D01*
X13349895Y-13032561D02*
X13340372Y-13042085D01*
X13340372Y-13042085D02*
X13330848Y-13032561D01*
X13330848Y-13032561D02*
X13340372Y-13023037D01*
X13340372Y-13023037D02*
X13340372Y-13042085D01*
X13340372Y-12918275D02*
X13349895Y-12927799D01*
X13349895Y-12927799D02*
X13340372Y-12937323D01*
X13340372Y-12937323D02*
X13330848Y-12927799D01*
X13330848Y-12927799D02*
X13340372Y-12918275D01*
X13340372Y-12918275D02*
X13340372Y-12937323D01*
M02*
