%TF.GenerationSoftware,KiCad,Pcbnew,9.0.5*%
%TF.CreationDate,2026-01-02T17:39:59+00:00*%
%TF.ProjectId,DataIOROM,44617461-494f-4524-9f4d-2e6b69636164,rev?*%
%TF.SameCoordinates,Original*%
%TF.FileFunction,Copper,L1,Top*%
%TF.FilePolarity,Positive*%
%FSLAX46Y46*%
G04 Gerber Fmt 4.6, Leading zero omitted, Abs format (unit mm)*
G04 Created by KiCad (PCBNEW 9.0.5) date 2026-01-02 17:39:59*
%MOMM*%
%LPD*%
G01*
G04 APERTURE LIST*
G04 Aperture macros list*
%AMRoundRect*
0 Rectangle with rounded corners*
0 $1 Rounding radius*
0 $2 $3 $4 $5 $6 $7 $8 $9 X,Y pos of 4 corners*
0 Add a 4 corners polygon primitive as box body*
4,1,4,$2,$3,$4,$5,$6,$7,$8,$9,$2,$3,0*
0 Add four circle primitives for the rounded corners*
1,1,$1+$1,$2,$3*
1,1,$1+$1,$4,$5*
1,1,$1+$1,$6,$7*
1,1,$1+$1,$8,$9*
0 Add four rect primitives between the rounded corners*
20,1,$1+$1,$2,$3,$4,$5,0*
20,1,$1+$1,$4,$5,$6,$7,0*
20,1,$1+$1,$6,$7,$8,$9,0*
20,1,$1+$1,$8,$9,$2,$3,0*%
G04 Aperture macros list end*
%TA.AperFunction,ComponentPad*%
%ADD10R,1.600000X1.600000*%
%TD*%
%TA.AperFunction,ComponentPad*%
%ADD11O,1.600000X1.600000*%
%TD*%
%TA.AperFunction,SMDPad,CuDef*%
%ADD12RoundRect,0.225000X-0.225000X-0.250000X0.225000X-0.250000X0.225000X0.250000X-0.225000X0.250000X0*%
%TD*%
%TA.AperFunction,SMDPad,CuDef*%
%ADD13RoundRect,0.200000X0.200000X0.275000X-0.200000X0.275000X-0.200000X-0.275000X0.200000X-0.275000X0*%
%TD*%
%TA.AperFunction,SMDPad,CuDef*%
%ADD14R,0.300000X1.500000*%
%TD*%
%TA.AperFunction,SMDPad,CuDef*%
%ADD15RoundRect,0.225000X0.225000X0.250000X-0.225000X0.250000X-0.225000X-0.250000X0.225000X-0.250000X0*%
%TD*%
%TA.AperFunction,SMDPad,CuDef*%
%ADD16RoundRect,0.218750X-0.218750X-0.256250X0.218750X-0.256250X0.218750X0.256250X-0.218750X0.256250X0*%
%TD*%
%TA.AperFunction,ViaPad*%
%ADD17C,0.800000*%
%TD*%
%TA.AperFunction,Conductor*%
%ADD18C,0.500000*%
%TD*%
%TA.AperFunction,Conductor*%
%ADD19C,0.250000*%
%TD*%
G04 APERTURE END LIST*
D10*
%TO.P,U18,1,Pin_1*%
%TO.N,U18_p1*%
X118655800Y-107188000D03*
D11*
%TO.P,U18,2,Pin_2*%
%TO.N,U18_p2*%
X118655800Y-109728000D03*
%TO.P,U18,3,Pin_3*%
%TO.N,D0*%
X118655800Y-112268000D03*
%TO.P,U18,4,Pin_4*%
%TO.N,U18_p4*%
X118655800Y-114808000D03*
%TO.P,U18,5,Pin_5*%
%TO.N,D1*%
X118655800Y-117348000D03*
%TO.P,U18,6,Pin_6*%
%TO.N,U18_p6*%
X118655800Y-119888000D03*
%TO.P,U18,7,Pin_7*%
%TO.N,D2*%
X118655800Y-122428000D03*
%TO.P,U18,8,Pin_8*%
%TO.N,U18_p8*%
X118655800Y-124968000D03*
%TO.P,U18,9,Pin_9*%
%TO.N,D3*%
X126275800Y-124968000D03*
%TO.P,U18,10,Pin_10*%
%TO.N,U18_p10*%
X126275800Y-122428000D03*
%TO.P,U18,11,Pin_11*%
%TO.N,U18_p11*%
X126275800Y-119888000D03*
%TO.P,U18,12,Pin_12*%
%TO.N,U18_p12*%
X126275800Y-117348000D03*
%TO.P,U18,13,Pin_13*%
%TO.N,U18_p13*%
X126275800Y-114808000D03*
%TO.P,U18,14,Pin_14*%
%TO.N,U18_p14*%
X126275800Y-112268000D03*
%TO.P,U18,15,Pin_15*%
%TO.N,U18_p15*%
X126275800Y-109728000D03*
%TO.P,U18,16,Pin_16*%
%TO.N,U18_p16*%
X126275800Y-107188000D03*
%TD*%
D10*
%TO.P,U70,1,Pin_1*%
%TO.N,U7_p1*%
X139229800Y-56388000D03*
D11*
%TO.P,U70,2,Pin_2*%
%TO.N,U7_p2*%
X139229800Y-58928000D03*
%TO.P,U70,3,Pin_3*%
%TO.N,U7_p3*%
X139229800Y-61468000D03*
%TO.P,U70,4,Pin_4*%
%TO.N,U7_p4*%
X139229800Y-64008000D03*
%TO.P,U70,5,Pin_5*%
%TO.N,nV02*%
X139229800Y-66548000D03*
%TO.P,U70,6,Pin_6*%
%TO.N,U7_p6*%
X139229800Y-69088000D03*
%TO.P,U70,7,Pin_7*%
%TO.N,U7_p7*%
X139229800Y-71628000D03*
%TO.P,U70,8,Pin_8*%
%TO.N,U7_p8*%
X139229800Y-74168000D03*
%TO.P,U70,9,Pin_9*%
%TO.N,U7_p9*%
X146849800Y-74168000D03*
%TO.P,U70,10,Pin_10*%
%TO.N,U7_p10*%
X146849800Y-71628000D03*
%TO.P,U70,11,Pin_11*%
%TO.N,U7_p11*%
X146849800Y-69088000D03*
%TO.P,U70,12,Pin_12*%
%TO.N,nPAGE_REGISTER_WRITE*%
X146849800Y-66548000D03*
%TO.P,U70,13,Pin_13*%
%TO.N,U7_p13*%
X146849800Y-64008000D03*
%TO.P,U70,14,Pin_14*%
%TO.N,U7_p14*%
X146849800Y-61468000D03*
%TO.P,U70,15,Pin_15*%
%TO.N,nROM_OE*%
X146849800Y-58928000D03*
%TO.P,U70,16,Pin_16*%
%TO.N,U7_p16*%
X146849800Y-56388000D03*
%TD*%
D10*
%TO.P,U14,1,Pin_1*%
%TO.N,U19_O3*%
X136435800Y-81788000D03*
D11*
%TO.P,U14,2,Pin_2*%
%TO.N,U19_O2*%
X136435800Y-84328000D03*
%TO.P,U14,3,Pin_3*%
%TO.N,U19_O1*%
X136435800Y-86868000D03*
%TO.P,U14,4,Pin_4*%
%TO.N,A7*%
X136435800Y-89408000D03*
%TO.P,U14,5,Pin_5*%
%TO.N,A4*%
X136435800Y-91948000D03*
%TO.P,U14,6,Pin_6*%
%TO.N,A5*%
X136435800Y-94488000D03*
%TO.P,U14,7,Pin_7*%
%TO.N,A6*%
X136435800Y-97028000D03*
%TO.P,U14,8,Pin_8*%
%TO.N,GND*%
X136435800Y-99568000D03*
%TO.P,U14,9,Pin_9*%
%TO.N,U14_O4*%
X144055800Y-99568000D03*
%TO.P,U14,10,Pin_10*%
%TO.N,U14_O3*%
X144055800Y-97028000D03*
%TO.P,U14,11,Pin_11*%
%TO.N,U14_O2*%
X144055800Y-94488000D03*
%TO.P,U14,12,Pin_12*%
%TO.N,U14_O1*%
X144055800Y-91948000D03*
%TO.P,U14,13,Pin_13*%
%TO.N,GND*%
X144055800Y-89408000D03*
%TO.P,U14,14,Pin_14*%
X144055800Y-86868000D03*
%TO.P,U14,15,Pin_15*%
%TO.N,U19_O4*%
X144055800Y-84328000D03*
%TO.P,U14,16,Pin_16*%
%TO.N,VCC*%
X144055800Y-81788000D03*
%TD*%
D12*
%TO.P,C3,1*%
%TO.N,VCC*%
X124248500Y-102168000D03*
%TO.P,C3,2*%
%TO.N,GND*%
X125798500Y-102168000D03*
%TD*%
D10*
%TO.P,U19,1,Pin_1*%
%TO.N,A14*%
X136435800Y-107188000D03*
D11*
%TO.P,U19,2,Pin_2*%
%TO.N,A13*%
X136435800Y-109728000D03*
%TO.P,U19,3,Pin_3*%
%TO.N,A12*%
X136435800Y-112268000D03*
%TO.P,U19,4,Pin_4*%
%TO.N,A11*%
X136435800Y-114808000D03*
%TO.P,U19,5,Pin_5*%
%TO.N,A8*%
X136435800Y-117348000D03*
%TO.P,U19,6,Pin_6*%
%TO.N,A9*%
X136435800Y-119888000D03*
%TO.P,U19,7,Pin_7*%
%TO.N,A10*%
X136435800Y-122428000D03*
%TO.P,U19,8,Pin_8*%
%TO.N,GND*%
X136435800Y-124968000D03*
%TO.P,U19,9,Pin_9*%
%TO.N,U19_O4*%
X144055800Y-124968000D03*
%TO.P,U19,10,Pin_10*%
%TO.N,U19_O3*%
X144055800Y-122428000D03*
%TO.P,U19,11,Pin_11*%
%TO.N,U19_O2*%
X144055800Y-119888000D03*
%TO.P,U19,12,Pin_12*%
%TO.N,U19_O1*%
X144055800Y-117348000D03*
%TO.P,U19,13,Pin_13*%
%TO.N,GND*%
X144055800Y-114808000D03*
%TO.P,U19,14,Pin_14*%
%TO.N,RnW*%
X144055800Y-112268000D03*
%TO.P,U19,15,Pin_15*%
%TO.N,A15*%
X144055800Y-109728000D03*
%TO.P,U19,16,Pin_16*%
%TO.N,VCC*%
X144055800Y-107188000D03*
%TD*%
D13*
%TO.P,R1,1*%
%TO.N,Net-(D1-K)*%
X158101800Y-122682000D03*
%TO.P,R1,2*%
%TO.N,GND*%
X156451800Y-122682000D03*
%TD*%
D14*
%TO.P,U1,1,A11*%
%TO.N,A11*%
X121273500Y-99008000D03*
%TO.P,U1,2,A9*%
%TO.N,A9*%
X121773500Y-99008000D03*
%TO.P,U1,3,A8*%
%TO.N,A8*%
X122273500Y-99008000D03*
%TO.P,U1,4,A13*%
%TO.N,A13*%
X122773500Y-99008000D03*
%TO.P,U1,5,A14*%
%TO.N,A14*%
X123273500Y-99008000D03*
%TO.P,U1,6,A17*%
%TO.N,GND*%
X123773500Y-99008000D03*
%TO.P,U1,7,PGM*%
%TO.N,VCC*%
X124273500Y-99008000D03*
%TO.P,U1,8,VCC*%
X124773500Y-99008000D03*
%TO.P,U1,9,A18*%
%TO.N,GND*%
X125273500Y-99008000D03*
%TO.P,U1,10,A16*%
%TO.N,RnW*%
X125773500Y-99008000D03*
%TO.P,U1,11,A15*%
%TO.N,A15*%
X126273500Y-99008000D03*
%TO.P,U1,12,A12*%
%TO.N,A12*%
X126773500Y-99008000D03*
%TO.P,U1,13,A7*%
%TO.N,A7*%
X127273500Y-99008000D03*
%TO.P,U1,14,A6*%
%TO.N,A6*%
X127773500Y-99008000D03*
%TO.P,U1,15,A5*%
%TO.N,A5*%
X128273500Y-99008000D03*
%TO.P,U1,16,A4*%
%TO.N,A4*%
X128773500Y-99008000D03*
%TO.P,U1,17,A3*%
%TO.N,BANK3*%
X128773500Y-85008000D03*
%TO.P,U1,18,A2*%
%TO.N,BANK2*%
X128273500Y-85008000D03*
%TO.P,U1,19,A1*%
%TO.N,BANK1*%
X127773500Y-85008000D03*
%TO.P,U1,20,A0*%
%TO.N,BANK0*%
X127273500Y-85008000D03*
%TO.P,U1,21,D0*%
%TO.N,U14_O1*%
X126773500Y-85008000D03*
%TO.P,U1,22,D1*%
%TO.N,U14_O2*%
X126273500Y-85008000D03*
%TO.P,U1,23,D2*%
%TO.N,U14_O3*%
X125773500Y-85008000D03*
%TO.P,U1,24,GND*%
%TO.N,GND*%
X125273500Y-85008000D03*
%TO.P,U1,25,D3*%
%TO.N,U14_O4*%
X124773500Y-85008000D03*
%TO.P,U1,26,D4*%
%TO.N,U19_O1*%
X124273500Y-85008000D03*
%TO.P,U1,27,D5*%
%TO.N,U19_O2*%
X123773500Y-85008000D03*
%TO.P,U1,28,D6*%
%TO.N,U19_O3*%
X123273500Y-85008000D03*
%TO.P,U1,29,D7*%
%TO.N,U19_O4*%
X122773500Y-85008000D03*
%TO.P,U1,30,CE*%
%TO.N,GND*%
X122273500Y-85008000D03*
%TO.P,U1,31,A10*%
%TO.N,A10*%
X121773500Y-85008000D03*
%TO.P,U1,32,OE*%
%TO.N,GND*%
X121273500Y-85008000D03*
%TD*%
D10*
%TO.P,U20,1,Pin_1*%
%TO.N,unconnected-(U20-Pin_1-Pad1)*%
X152945800Y-91948000D03*
D11*
%TO.P,U20,2,Pin_2*%
%TO.N,A12*%
X152945800Y-94488000D03*
%TO.P,U20,3,Pin_3*%
%TO.N,A7*%
X152945800Y-97028000D03*
%TO.P,U20,4,Pin_4*%
%TO.N,A6*%
X152945800Y-99568000D03*
%TO.P,U20,5,Pin_5*%
%TO.N,A5*%
X152945800Y-102108000D03*
%TO.P,U20,6,Pin_6*%
%TO.N,A4*%
X152945800Y-104648000D03*
%TO.P,U20,7,Pin_7*%
%TO.N,A3*%
X152945800Y-107188000D03*
%TO.P,U20,8,Pin_8*%
%TO.N,A2*%
X152945800Y-109728000D03*
%TO.P,U20,9,Pin_9*%
%TO.N,A1*%
X152945800Y-112268000D03*
%TO.P,U20,10,Pin_10*%
%TO.N,A0*%
X152945800Y-114808000D03*
%TO.P,U20,11,Pin_11*%
%TO.N,Q0*%
X152945800Y-117348000D03*
%TO.P,U20,12,Pin_12*%
%TO.N,Q1*%
X152945800Y-119888000D03*
%TO.P,U20,13,Pin_13*%
%TO.N,Q2*%
X152945800Y-122428000D03*
%TO.P,U20,14,Pin_14*%
%TO.N,GND*%
X152945800Y-124968000D03*
%TO.P,U20,15,Pin_15*%
%TO.N,Q3*%
X168185800Y-124968000D03*
%TO.P,U20,16,Pin_16*%
%TO.N,Q4*%
X168185800Y-122428000D03*
%TO.P,U20,17,Pin_17*%
%TO.N,Q5*%
X168185800Y-119888000D03*
%TO.P,U20,18,Pin_18*%
%TO.N,Q6*%
X168185800Y-117348000D03*
%TO.P,U20,19,Pin_19*%
%TO.N,Q7*%
X168185800Y-114808000D03*
%TO.P,U20,20,Pin_20*%
%TO.N,nROM_ACTIVE*%
X168185800Y-112268000D03*
%TO.P,U20,21,Pin_21*%
%TO.N,A10*%
X168185800Y-109728000D03*
%TO.P,U20,22,Pin_22*%
%TO.N,U20_nOE*%
X168185800Y-107188000D03*
%TO.P,U20,23,Pin_23*%
%TO.N,A11*%
X168185800Y-104648000D03*
%TO.P,U20,24,Pin_24*%
%TO.N,A9*%
X168185800Y-102108000D03*
%TO.P,U20,25,Pin_25*%
%TO.N,A8*%
X168185800Y-99568000D03*
%TO.P,U20,26,Pin_26*%
%TO.N,A13*%
X168185800Y-97028000D03*
%TO.P,U20,27,Pin_27*%
%TO.N,unconnected-(U20-Pin_27-Pad27)*%
X168185800Y-94488000D03*
%TO.P,U20,28,Pin_28*%
%TO.N,VCC*%
X168185800Y-91948000D03*
%TD*%
D10*
%TO.P,U3,1,I1/CLK*%
%TO.N,nV02*%
X180885800Y-96520000D03*
D11*
%TO.P,U3,2,I2*%
%TO.N,nROM_ACTIVE*%
X180885800Y-99060000D03*
%TO.P,U3,3,I3*%
%TO.N,D0*%
X180885800Y-101600000D03*
%TO.P,U3,4,I4*%
%TO.N,D1*%
X180885800Y-104140000D03*
%TO.P,U3,5,I5*%
%TO.N,D2*%
X180885800Y-106680000D03*
%TO.P,U3,6,I6*%
%TO.N,D3*%
X180885800Y-109220000D03*
%TO.P,U3,7,I7*%
%TO.N,nPAGE_REGISTER_WRITE*%
X180885800Y-111760000D03*
%TO.P,U3,8,I8*%
%TO.N,GND*%
X180885800Y-114300000D03*
%TO.P,U3,9,I9*%
X180885800Y-116840000D03*
%TO.P,U3,10,GND*%
X180885800Y-119380000D03*
%TO.P,U3,11,I10/~{OE}*%
X188505800Y-119380000D03*
%TO.P,U3,12,IO8*%
%TO.N,unconnected-(U3-IO8-Pad12)*%
X188505800Y-116840000D03*
%TO.P,U3,13,IO7*%
%TO.N,unconnected-(U3-IO7-Pad13)*%
X188505800Y-114300000D03*
%TO.P,U3,14,IO6*%
%TO.N,PA16*%
X188505800Y-111760000D03*
%TO.P,U3,15,IO5*%
%TO.N,PA14*%
X188505800Y-109220000D03*
%TO.P,U3,16,IO4*%
%TO.N,PA15*%
X188505800Y-106680000D03*
%TO.P,U3,17,I03*%
%TO.N,unconnected-(U3-I03-Pad17)*%
X188505800Y-104140000D03*
%TO.P,U3,18,IO2*%
%TO.N,unconnected-(U3-IO2-Pad18)*%
X188505800Y-101600000D03*
%TO.P,U3,19,IO1*%
%TO.N,unconnected-(U3-IO1-Pad19)*%
X188505800Y-99060000D03*
%TO.P,U3,20,VCC*%
%TO.N,VCC*%
X188505800Y-96520000D03*
%TD*%
D15*
%TO.P,C2,1*%
%TO.N,VCC*%
X160845800Y-97028000D03*
%TO.P,C2,2*%
%TO.N,GND*%
X159295800Y-97028000D03*
%TD*%
D14*
%TO.P,U2,1,A11*%
%TO.N,A11*%
X163825800Y-99924000D03*
%TO.P,U2,2,A9*%
%TO.N,A9*%
X163325800Y-99924000D03*
%TO.P,U2,3,A8*%
%TO.N,A8*%
X162825800Y-99924000D03*
%TO.P,U2,4,A13*%
%TO.N,A13*%
X162325800Y-99924000D03*
%TO.P,U2,5,A14*%
%TO.N,RA14*%
X161825800Y-99924000D03*
%TO.P,U2,6,A17*%
%TO.N,A17*%
X161325800Y-99924000D03*
%TO.P,U2,7,PGM*%
%TO.N,VCC*%
X160825800Y-99924000D03*
%TO.P,U2,8,VCC*%
X160325800Y-99924000D03*
%TO.P,U2,9,A18*%
%TO.N,A18*%
X159825800Y-99924000D03*
%TO.P,U2,10,A16*%
%TO.N,A16*%
X159325800Y-99924000D03*
%TO.P,U2,11,A15*%
%TO.N,RA15*%
X158825800Y-99924000D03*
%TO.P,U2,12,A12*%
%TO.N,A12*%
X158325800Y-99924000D03*
%TO.P,U2,13,A7*%
%TO.N,A7*%
X157825800Y-99924000D03*
%TO.P,U2,14,A6*%
%TO.N,A6*%
X157325800Y-99924000D03*
%TO.P,U2,15,A5*%
%TO.N,A5*%
X156825800Y-99924000D03*
%TO.P,U2,16,A4*%
%TO.N,A4*%
X156325800Y-99924000D03*
%TO.P,U2,17,A3*%
%TO.N,A3*%
X156325800Y-113924000D03*
%TO.P,U2,18,A2*%
%TO.N,A2*%
X156825800Y-113924000D03*
%TO.P,U2,19,A1*%
%TO.N,A1*%
X157325800Y-113924000D03*
%TO.P,U2,20,A0*%
%TO.N,A0*%
X157825800Y-113924000D03*
%TO.P,U2,21,D0*%
%TO.N,Q0*%
X158325800Y-113924000D03*
%TO.P,U2,22,D1*%
%TO.N,Q1*%
X158825800Y-113924000D03*
%TO.P,U2,23,D2*%
%TO.N,Q2*%
X159325800Y-113924000D03*
%TO.P,U2,24,GND*%
%TO.N,GND*%
X159825800Y-113924000D03*
%TO.P,U2,25,D3*%
%TO.N,Q3*%
X160325800Y-113924000D03*
%TO.P,U2,26,D4*%
%TO.N,Q4*%
X160825800Y-113924000D03*
%TO.P,U2,27,D5*%
%TO.N,Q5*%
X161325800Y-113924000D03*
%TO.P,U2,28,D6*%
%TO.N,Q6*%
X161825800Y-113924000D03*
%TO.P,U2,29,D7*%
%TO.N,Q7*%
X162325800Y-113924000D03*
%TO.P,U2,30,CE*%
%TO.N,nROM_ACTIVE*%
X162825800Y-113924000D03*
%TO.P,U2,31,A10*%
%TO.N,A10*%
X163325800Y-113924000D03*
%TO.P,U2,32,OE*%
%TO.N,nROM_OE*%
X163825800Y-113924000D03*
%TD*%
D10*
%TO.P,U180,1,Pin_1*%
%TO.N,U18_p1*%
X121449800Y-107188000D03*
D11*
%TO.P,U180,2,Pin_2*%
%TO.N,U18_p2*%
X121449800Y-109728000D03*
%TO.P,U180,3,Pin_3*%
%TO.N,D0*%
X121449800Y-112268000D03*
%TO.P,U180,4,Pin_4*%
%TO.N,U18_p4*%
X121449800Y-114808000D03*
%TO.P,U180,5,Pin_5*%
%TO.N,D1*%
X121449800Y-117348000D03*
%TO.P,U180,6,Pin_6*%
%TO.N,U18_p6*%
X121449800Y-119888000D03*
%TO.P,U180,7,Pin_7*%
%TO.N,D2*%
X121449800Y-122428000D03*
%TO.P,U180,8,Pin_8*%
%TO.N,U18_p8*%
X121449800Y-124968000D03*
%TO.P,U180,9,Pin_9*%
%TO.N,D3*%
X129069800Y-124968000D03*
%TO.P,U180,10,Pin_10*%
%TO.N,U18_p10*%
X129069800Y-122428000D03*
%TO.P,U180,11,Pin_11*%
%TO.N,U18_p11*%
X129069800Y-119888000D03*
%TO.P,U180,12,Pin_12*%
%TO.N,U18_p12*%
X129069800Y-117348000D03*
%TO.P,U180,13,Pin_13*%
%TO.N,U18_p13*%
X129069800Y-114808000D03*
%TO.P,U180,14,Pin_14*%
%TO.N,U18_p14*%
X129069800Y-112268000D03*
%TO.P,U180,15,Pin_15*%
%TO.N,U18_p15*%
X129069800Y-109728000D03*
%TO.P,U180,16,Pin_16*%
%TO.N,U18_p16*%
X129069800Y-107188000D03*
%TD*%
D15*
%TO.P,C1,1*%
%TO.N,VCC*%
X188645800Y-93218000D03*
%TO.P,C1,2*%
%TO.N,GND*%
X187095800Y-93218000D03*
%TD*%
D10*
%TO.P,U7,1,Pin_1*%
%TO.N,U7_p1*%
X136435800Y-56388000D03*
D11*
%TO.P,U7,2,Pin_2*%
%TO.N,U7_p2*%
X136435800Y-58928000D03*
%TO.P,U7,3,Pin_3*%
%TO.N,U7_p3*%
X136435800Y-61468000D03*
%TO.P,U7,4,Pin_4*%
%TO.N,U7_p4*%
X136435800Y-64008000D03*
%TO.P,U7,5,Pin_5*%
%TO.N,nV02*%
X136435800Y-66548000D03*
%TO.P,U7,6,Pin_6*%
%TO.N,U7_p6*%
X136435800Y-69088000D03*
%TO.P,U7,7,Pin_7*%
%TO.N,U7_p7*%
X136435800Y-71628000D03*
%TO.P,U7,8,Pin_8*%
%TO.N,U7_p8*%
X136435800Y-74168000D03*
%TO.P,U7,9,Pin_9*%
%TO.N,U7_p9*%
X144055800Y-74168000D03*
%TO.P,U7,10,Pin_10*%
%TO.N,U7_p10*%
X144055800Y-71628000D03*
%TO.P,U7,11,Pin_11*%
%TO.N,U7_p11*%
X144055800Y-69088000D03*
%TO.P,U7,12,Pin_12*%
%TO.N,nPAGE_REGISTER_WRITE*%
X144055800Y-66548000D03*
%TO.P,U7,13,Pin_13*%
%TO.N,U7_p13*%
X144055800Y-64008000D03*
%TO.P,U7,14,Pin_14*%
%TO.N,U7_p14*%
X144055800Y-61468000D03*
%TO.P,U7,15,Pin_15*%
%TO.N,nROM_OE*%
X144055800Y-58928000D03*
%TO.P,U7,16,Pin_16*%
%TO.N,U7_p16*%
X144055800Y-56388000D03*
%TD*%
D16*
%TO.P,D1,1,K*%
%TO.N,Net-(D1-K)*%
X161569300Y-122682000D03*
%TO.P,D1,2,A*%
%TO.N,VCC*%
X163144300Y-122682000D03*
%TD*%
D17*
%TO.N,VCC*%
X162884300Y-97277900D03*
X164045799Y-124637999D03*
X126707600Y-95397600D03*
%TO.N,GND*%
X122523200Y-89483000D03*
X165137500Y-120197800D03*
X162845001Y-120215100D03*
X159370800Y-121488000D03*
%TO.N,BANK0*%
X126539100Y-83621800D03*
%TO.N,BANK1*%
X127841862Y-86495138D03*
%TO.N,BANK2*%
X128616612Y-87269888D03*
%TO.N,A7*%
X130518000Y-94553800D03*
%TO.N,A4*%
X131695651Y-97695551D03*
%TO.N,A5*%
X146301000Y-95902600D03*
X132089800Y-99424100D03*
%TO.N,A12*%
X151135900Y-103138700D03*
X135272400Y-103138700D03*
%TO.N,A8*%
X133269100Y-108422800D03*
X155593300Y-116190900D03*
%TO.N,A9*%
X148191100Y-116503700D03*
X156090200Y-108539300D03*
%TO.N,A10*%
X158664900Y-112417100D03*
X147193000Y-123698000D03*
X140753800Y-122301000D03*
%TO.N,RnW*%
X139264638Y-105997062D03*
%TO.N,A15*%
X144803200Y-105782000D03*
%TO.N,BANK3*%
X129613888Y-85092388D03*
%TO.N,U20_nOE*%
X159311500Y-109087000D03*
%TO.N,A16*%
X159039807Y-101655081D03*
%TO.N,PA16*%
X159422800Y-124714000D03*
%TO.N,A17*%
X161184234Y-102832500D03*
%TO.N,A18*%
X159930800Y-102108000D03*
%TO.N,A3*%
X155234500Y-112150700D03*
%TO.N,A2*%
X154323000Y-114034700D03*
%TO.N,A1*%
X156253600Y-112103000D03*
%TO.N,D0*%
X128180800Y-105959003D03*
%TO.N,D1*%
X133902700Y-78675400D03*
%TO.N,D2*%
X133762493Y-103788498D03*
X147310800Y-104261200D03*
X175831201Y-106134500D03*
%TO.N,D3*%
X158652100Y-110621900D03*
X154436300Y-118473400D03*
%TO.N,nROM_OE*%
X156751100Y-110753500D03*
%TO.N,RA14*%
X159568200Y-104720900D03*
%TO.N,RA15*%
X158768700Y-102999300D03*
%TD*%
D18*
%TO.N,VCC*%
X145914998Y-83647198D02*
X145914998Y-88435156D01*
X157222024Y-90051002D02*
X160845800Y-93674778D01*
X160825800Y-97547800D02*
X161095700Y-97277900D01*
X163144300Y-123736500D02*
X164045799Y-124637999D01*
X145914998Y-88435156D02*
X147530845Y-90051002D01*
X188505800Y-96520000D02*
X188722000Y-96303800D01*
X137284795Y-105537000D02*
X132567658Y-105537000D01*
D19*
X124773500Y-97331700D02*
X126707600Y-95397600D01*
D18*
X188722000Y-96303800D02*
X188722000Y-93294200D01*
D19*
X124773500Y-97331700D02*
X124773500Y-99008000D01*
D18*
X130175399Y-103311499D02*
X130174900Y-103311000D01*
D19*
X124273500Y-99008000D02*
X124273500Y-102143000D01*
D18*
X130342156Y-103311499D02*
X130175399Y-103311499D01*
X188645800Y-92506800D02*
X188087000Y-91948000D01*
X163144300Y-122682000D02*
X163144300Y-123736500D01*
X132567658Y-105537000D02*
X130342156Y-103311499D01*
X124273500Y-102143000D02*
X124248500Y-102168000D01*
X188722000Y-93294200D02*
X188645800Y-93218000D01*
D19*
X160325800Y-99924000D02*
X160825800Y-99924000D01*
D18*
X188087000Y-91948000D02*
X168185800Y-91948000D01*
X144055800Y-107188000D02*
X138935795Y-107188000D01*
X160845800Y-93674778D02*
X160845800Y-97028000D01*
X162884300Y-97277900D02*
X161095700Y-97277900D01*
X147530845Y-90051002D02*
X157222024Y-90051002D01*
X125391500Y-103311000D02*
X124248500Y-102168000D01*
X161095700Y-97277900D02*
X160845800Y-97028000D01*
X144055800Y-81788000D02*
X145914998Y-83647198D01*
D19*
X160825800Y-99924000D02*
X160825800Y-97547800D01*
D18*
X130174900Y-103311000D02*
X125391500Y-103311000D01*
D19*
X124273500Y-99008000D02*
X124773500Y-99008000D01*
D18*
X188645800Y-93218000D02*
X188645800Y-92506800D01*
X138935795Y-107188000D02*
X137284795Y-105537000D01*
D19*
%TO.N,GND*%
X159370800Y-121488000D02*
X157645800Y-121488000D01*
X125273500Y-101643000D02*
X125798500Y-102168000D01*
X122523200Y-89483000D02*
X122523200Y-86333000D01*
X181991000Y-114300000D02*
X180885800Y-114300000D01*
X123773500Y-94651000D02*
X123773500Y-99008000D01*
X144055800Y-86868000D02*
X142930500Y-86868000D01*
X136435800Y-124968000D02*
X137561100Y-124968000D01*
X121273500Y-83932700D02*
X122273500Y-83932700D01*
X188505800Y-119380000D02*
X180885800Y-119380000D01*
X127434600Y-95884200D02*
X127434600Y-95034800D01*
X165971400Y-121031700D02*
X165137500Y-120197800D01*
X173034000Y-116840000D02*
X168842300Y-121031700D01*
X187095800Y-93218000D02*
X185674000Y-94639800D01*
X152945800Y-124968000D02*
X151820500Y-124968000D01*
X125273500Y-100083300D02*
X125273500Y-101643000D01*
X157645800Y-121488000D02*
X156451800Y-122682000D01*
X133731300Y-88017400D02*
X141781100Y-88017400D01*
X156357100Y-122682000D02*
X156451800Y-122682000D01*
X159825800Y-113924000D02*
X159825800Y-118416400D01*
X122273500Y-85008000D02*
X122273500Y-83932700D01*
X127050800Y-94651000D02*
X123773500Y-94651000D01*
X122523200Y-86333000D02*
X122273500Y-86083300D01*
X161624500Y-120215100D02*
X162845001Y-120215100D01*
X185674000Y-94639800D02*
X185674000Y-110617000D01*
X151820500Y-124968000D02*
X150695200Y-126093300D01*
X128560700Y-82846800D02*
X133731300Y-88017400D01*
X122523200Y-89483000D02*
X123773500Y-90733300D01*
X125273500Y-84470300D02*
X125273500Y-83932700D01*
X126282300Y-82846800D02*
X128560700Y-82846800D01*
X125273500Y-98045300D02*
X127434600Y-95884200D01*
X127434600Y-95034800D02*
X127050800Y-94651000D01*
X125273500Y-83855600D02*
X126282300Y-82846800D01*
X149885375Y-93218000D02*
X157390800Y-93218000D01*
X154071100Y-124968000D02*
X156357100Y-122682000D01*
X125273500Y-99545600D02*
X125273500Y-100083300D01*
X146075375Y-89408000D02*
X149885375Y-93218000D01*
X125273500Y-99008000D02*
X125273500Y-98045300D01*
X180885800Y-116840000D02*
X173034000Y-116840000D01*
X157390800Y-93218000D02*
X159295800Y-95123000D01*
X150695200Y-126093300D02*
X138686400Y-126093300D01*
X125273500Y-84470300D02*
X125273500Y-85008000D01*
X121273500Y-85008000D02*
X121273500Y-83932700D01*
X153508500Y-124968000D02*
X152945800Y-124968000D01*
X185674000Y-110617000D02*
X181991000Y-114300000D01*
X122273500Y-85008000D02*
X122273500Y-86083300D01*
X180885800Y-116840000D02*
X180885800Y-114300000D01*
X144055800Y-89408000D02*
X146075375Y-89408000D01*
X138686400Y-126093300D02*
X137561100Y-124968000D01*
X159295800Y-95123000D02*
X159295800Y-97028000D01*
X125273500Y-99545600D02*
X125273500Y-99008000D01*
X123773500Y-90733300D02*
X123773500Y-94651000D01*
X141781100Y-88017400D02*
X142930500Y-86868000D01*
X168842300Y-121031700D02*
X165971400Y-121031700D01*
X125273500Y-83932700D02*
X125273500Y-83855600D01*
X161134100Y-119724700D02*
X159370800Y-121488000D01*
X159825800Y-118416400D02*
X161134100Y-119724700D01*
X161134100Y-119724700D02*
X161624500Y-120215100D01*
X153508500Y-124968000D02*
X154071100Y-124968000D01*
%TO.N,Net-(D1-K)*%
X161569300Y-122682000D02*
X158101800Y-122682000D01*
%TO.N,BANK0*%
X127273500Y-83932700D02*
X126850000Y-83932700D01*
X126850000Y-83932700D02*
X126539100Y-83621800D01*
X127273500Y-85008000D02*
X127273500Y-83932700D01*
%TO.N,BANK1*%
X127798500Y-86451776D02*
X127841862Y-86495138D01*
X127773500Y-85008000D02*
X127798500Y-85033000D01*
X127798500Y-85033000D02*
X127798500Y-86451776D01*
%TO.N,BANK2*%
X128273500Y-85008000D02*
X128273500Y-85874000D01*
X128616612Y-86217112D02*
X128616612Y-87269888D01*
X128273500Y-85874000D02*
X128616612Y-86217112D01*
%TO.N,U19_O3*%
X125398500Y-81478600D02*
X135001100Y-81478600D01*
X135001100Y-81478600D02*
X135310500Y-81788000D01*
X123273500Y-85008000D02*
X123273500Y-83603600D01*
X136435800Y-81788000D02*
X135310500Y-81788000D01*
X123273500Y-83603600D02*
X125398500Y-81478600D01*
%TO.N,U19_O2*%
X123773500Y-83740500D02*
X125568000Y-81946000D01*
X125568000Y-81946000D02*
X132928500Y-81946000D01*
X136435800Y-84328000D02*
X135310500Y-84328000D01*
X123773500Y-85008000D02*
X123773500Y-83740500D01*
X132928500Y-81946000D02*
X135310500Y-84328000D01*
%TO.N,U19_O1*%
X125809800Y-82396400D02*
X130838900Y-82396400D01*
X136435800Y-86868000D02*
X135310500Y-86868000D01*
X124273500Y-85008000D02*
X124273500Y-83932700D01*
X124273500Y-83932700D02*
X125809800Y-82396400D01*
X130838900Y-82396400D02*
X135310500Y-86868000D01*
%TO.N,A7*%
X138779300Y-90626200D02*
X145418700Y-90626200D01*
X157825800Y-99924000D02*
X157825800Y-98684100D01*
X145418700Y-90626200D02*
X151820500Y-97028000D01*
X156169700Y-97028000D02*
X152945800Y-97028000D01*
X137561100Y-89408000D02*
X138779300Y-90626200D01*
X127273500Y-97798300D02*
X127273500Y-99008000D01*
X130518000Y-94553800D02*
X127273500Y-97798300D01*
X152945800Y-97028000D02*
X151820500Y-97028000D01*
X157825800Y-98684100D02*
X156169700Y-97028000D01*
X136435800Y-89408000D02*
X137561100Y-89408000D01*
%TO.N,A4*%
X135733400Y-101733300D02*
X131695651Y-97695551D01*
X130383202Y-99008000D02*
X131695651Y-97695551D01*
X156325800Y-99924000D02*
X156325800Y-100999300D01*
X152945800Y-104648000D02*
X152945800Y-103839800D01*
X128773500Y-99008000D02*
X130383202Y-99008000D01*
X150840700Y-101733300D02*
X135733400Y-101733300D01*
X152945800Y-103838400D02*
X150840700Y-101733300D01*
X153486700Y-103838400D02*
X152945800Y-103838400D01*
X156325800Y-100999300D02*
X153486700Y-103838400D01*
X152945800Y-103839800D02*
X152945800Y-103838400D01*
%TO.N,A5*%
X156619000Y-98848600D02*
X156825800Y-99055400D01*
X152945800Y-102108000D02*
X152945800Y-100982700D01*
X142293600Y-94488000D02*
X143708200Y-95902600D01*
X152945800Y-100982700D02*
X153889600Y-100982700D01*
X156023700Y-98848600D02*
X156619000Y-98848600D01*
X156825800Y-99055400D02*
X156825800Y-99924000D01*
X136435800Y-94488000D02*
X142293600Y-94488000D01*
X128273500Y-99008000D02*
X128273500Y-100083300D01*
X153889600Y-100982700D02*
X156023700Y-98848600D01*
X128273500Y-100083300D02*
X131430600Y-100083300D01*
X143708200Y-95902600D02*
X146301000Y-95902600D01*
X131430600Y-100083300D02*
X132089800Y-99424100D01*
%TO.N,A6*%
X157325800Y-99924000D02*
X157325800Y-98848700D01*
X135862698Y-100838000D02*
X131995749Y-96971051D01*
X128810449Y-96971051D02*
X127773500Y-98008000D01*
X154071100Y-99568000D02*
X155243500Y-98395600D01*
X144377700Y-100838000D02*
X135862698Y-100838000D01*
X136435800Y-97028000D02*
X137561100Y-97028000D01*
X127773500Y-98008000D02*
X127773500Y-99008000D01*
X153494000Y-99568000D02*
X152945800Y-99568000D01*
X152945800Y-99568000D02*
X151820500Y-99568000D01*
X145221800Y-99125800D02*
X145221800Y-99568000D01*
X151820500Y-99568000D02*
X145221800Y-99568000D01*
X131995749Y-96971051D02*
X128810449Y-96971051D01*
X153494000Y-99568000D02*
X154071100Y-99568000D01*
X138686400Y-98153300D02*
X144249300Y-98153300D01*
X156872700Y-98395600D02*
X157325800Y-98848700D01*
X137561100Y-97028000D02*
X138686400Y-98153300D01*
X145221800Y-99993900D02*
X144377700Y-100838000D01*
X144249300Y-98153300D02*
X145221800Y-99125800D01*
X145221800Y-99568000D02*
X145221800Y-99993900D01*
X155243500Y-98395600D02*
X156872700Y-98395600D01*
%TO.N,U14_O4*%
X136110600Y-98298000D02*
X137255500Y-98298000D01*
X137255500Y-98298000D02*
X138525500Y-99568000D01*
X124773500Y-86960900D02*
X136110600Y-98298000D01*
X124773500Y-85008000D02*
X124773500Y-86960900D01*
X138525500Y-99568000D02*
X144055800Y-99568000D01*
%TO.N,U14_O3*%
X134953446Y-95902700D02*
X142930500Y-95902700D01*
X142930500Y-95902700D02*
X144055800Y-97028000D01*
X125773500Y-86722754D02*
X134953446Y-95902700D01*
X125773500Y-85008000D02*
X125773500Y-86722754D01*
%TO.N,U14_O2*%
X126273500Y-86587064D02*
X133049136Y-93362700D01*
X142930500Y-93362700D02*
X144055800Y-94488000D01*
X133049136Y-93362700D02*
X142930500Y-93362700D01*
X126273500Y-85008000D02*
X126273500Y-86587064D01*
%TO.N,U14_O1*%
X126773500Y-86451374D02*
X131000126Y-90678000D01*
X138342500Y-91948000D02*
X144055800Y-91948000D01*
X137072500Y-90678000D02*
X138342500Y-91948000D01*
X126773500Y-85008000D02*
X126773500Y-86451374D01*
X131000126Y-90678000D02*
X137072500Y-90678000D01*
%TO.N,U19_O4*%
X125120600Y-81026000D02*
X134281000Y-81026000D01*
X122773500Y-85008000D02*
X122773500Y-83373100D01*
X142930500Y-84328000D02*
X144055800Y-84328000D01*
X134281000Y-81026000D02*
X134644400Y-80662600D01*
X122773500Y-83373100D02*
X125120600Y-81026000D01*
X134644400Y-80662600D02*
X139265100Y-80662600D01*
X139265100Y-80662600D02*
X142930500Y-84328000D01*
%TO.N,A14*%
X136435800Y-107188000D02*
X133406190Y-107188000D01*
X123273500Y-102507500D02*
X123273500Y-99008000D01*
X124652000Y-103886000D02*
X123273500Y-102507500D01*
X130104190Y-103886000D02*
X124652000Y-103886000D01*
X133406190Y-107188000D02*
X130104190Y-103886000D01*
%TO.N,A13*%
X124465811Y-104335501D02*
X122773500Y-102643190D01*
X134393200Y-107685400D02*
X133267900Y-107685400D01*
X137758800Y-108405000D02*
X136435800Y-109728000D01*
X160010522Y-105666500D02*
X157937400Y-105666500D01*
X136435800Y-109728000D02*
X134393200Y-107685400D01*
X162325800Y-99386300D02*
X162325800Y-98848700D01*
X162358235Y-102346213D02*
X162358235Y-103318787D01*
X122773500Y-102643190D02*
X122773500Y-99008000D01*
X162325800Y-98848700D02*
X163171300Y-98003200D01*
X162325800Y-102313778D02*
X162358235Y-102346213D01*
X162325800Y-99924000D02*
X162325800Y-102313778D01*
X166085300Y-98003200D02*
X167060500Y-97028000D01*
X155198900Y-108405000D02*
X137758800Y-108405000D01*
X162358235Y-103318787D02*
X160010522Y-105666500D01*
X129918001Y-104335501D02*
X124465811Y-104335501D01*
X133267900Y-107685400D02*
X129918001Y-104335501D01*
X163171300Y-98003200D02*
X166085300Y-98003200D01*
X168185800Y-97028000D02*
X167060500Y-97028000D01*
X162325800Y-99386300D02*
X162325800Y-99924000D01*
X157937400Y-105666500D02*
X155198900Y-108405000D01*
%TO.N,A12*%
X151135900Y-103138700D02*
X135272400Y-103138700D01*
X158325800Y-98509900D02*
X158325800Y-99924000D01*
X126773500Y-99008000D02*
X126773500Y-100083300D01*
X127883600Y-101193400D02*
X126773500Y-100083300D01*
X154303900Y-94488000D02*
X158325800Y-98509900D01*
X135272400Y-103138700D02*
X133327100Y-101193400D01*
X152945800Y-94488000D02*
X154303900Y-94488000D01*
X133327100Y-101193400D02*
X127883600Y-101193400D01*
%TO.N,A11*%
X132239800Y-108104200D02*
X132239800Y-110612000D01*
X169311100Y-101566300D02*
X168727400Y-100982600D01*
X136435800Y-114808000D02*
X137561100Y-114808000D01*
X137561100Y-114808000D02*
X141371100Y-110998000D01*
X160947100Y-107530800D02*
X163829900Y-104648000D01*
X141371100Y-110998000D02*
X154657300Y-110998000D01*
X132239800Y-110612000D02*
X136435800Y-114808000D01*
X129370103Y-105234503D02*
X132239800Y-108104200D01*
X156815500Y-108727200D02*
X158011900Y-107530800D01*
X163829900Y-104648000D02*
X167060500Y-104648000D01*
X169311100Y-103247500D02*
X169311100Y-101566300D01*
X124093433Y-105234503D02*
X129370103Y-105234503D01*
X154657300Y-110998000D02*
X156815500Y-108839800D01*
X167910600Y-104648000D02*
X167060500Y-104648000D01*
X167910600Y-104648000D02*
X169311100Y-103247500D01*
X164284400Y-100999300D02*
X163825800Y-100999300D01*
X121273500Y-102414570D02*
X124093433Y-105234503D01*
X163825800Y-99924000D02*
X163825800Y-100999300D01*
X158011900Y-107530800D02*
X160947100Y-107530800D01*
X121273500Y-99008000D02*
X121273500Y-102414570D01*
X156815500Y-108839800D02*
X156815500Y-108727200D01*
X168727400Y-100982600D02*
X164301100Y-100982600D01*
X164301100Y-100982600D02*
X164284400Y-100999300D01*
X168185800Y-104648000D02*
X167910600Y-104648000D01*
%TO.N,A8*%
X136435800Y-117348000D02*
X137561100Y-117348000D01*
X133269100Y-108422800D02*
X129631302Y-104785002D01*
X147915200Y-115753900D02*
X147700700Y-115968400D01*
X124279622Y-104785002D02*
X122273500Y-102778880D01*
X167060500Y-99568000D02*
X166341100Y-98848600D01*
X162825800Y-98985600D02*
X162825800Y-99924000D01*
X148974000Y-116190900D02*
X148537000Y-115753900D01*
X162962800Y-98848600D02*
X162825800Y-98985600D01*
X148537000Y-115753900D02*
X147915200Y-115753900D01*
X168185800Y-99568000D02*
X167060500Y-99568000D01*
X166341100Y-98848600D02*
X162962800Y-98848600D01*
X129631302Y-104785002D02*
X124279622Y-104785002D01*
X122273500Y-102778880D02*
X122273500Y-99008000D01*
X155593300Y-116190900D02*
X148974000Y-116190900D01*
X147700700Y-115968400D02*
X138940700Y-115968400D01*
X138940700Y-115968400D02*
X137561100Y-117348000D01*
%TO.N,A9*%
X127635000Y-106553000D02*
X127635000Y-107912200D01*
X120798200Y-98123200D02*
X120798200Y-102638500D01*
X128180800Y-108458000D02*
X130085800Y-108458000D01*
X123930600Y-105770900D02*
X126852900Y-105770900D01*
X163934700Y-102079200D02*
X163325800Y-101470300D01*
X158287600Y-106341900D02*
X159970812Y-106341900D01*
X127635000Y-107912200D02*
X128180800Y-108458000D01*
X146722800Y-117972000D02*
X146722800Y-118491000D01*
X168185800Y-102108000D02*
X167060500Y-102108000D01*
X126852900Y-105770900D02*
X127635000Y-106553000D01*
X148191100Y-116503700D02*
X146722800Y-117972000D01*
X120988700Y-97932700D02*
X120798200Y-98123200D01*
X163325800Y-99924000D02*
X163325800Y-100999300D01*
X137832800Y-118491000D02*
X136435800Y-119888000D01*
X163934700Y-102079200D02*
X167031700Y-102079200D01*
X131340798Y-109712998D02*
X131340798Y-114792998D01*
X163325800Y-101470300D02*
X163325800Y-100999300D01*
X131340798Y-114792998D02*
X136435800Y-119888000D01*
X146722800Y-118491000D02*
X137832800Y-118491000D01*
X121698200Y-97932700D02*
X120988700Y-97932700D01*
X163934700Y-102378012D02*
X163934700Y-102079200D01*
X159970812Y-106341900D02*
X163934700Y-102378012D01*
X156090200Y-108539300D02*
X158287600Y-106341900D01*
X120798200Y-102638500D02*
X123930600Y-105770900D01*
X130085800Y-108458000D02*
X131340798Y-109712998D01*
X121773500Y-98008000D02*
X121698200Y-97932700D01*
X121773500Y-99008000D02*
X121773500Y-98008000D01*
X167031700Y-102079200D02*
X167060500Y-102108000D01*
%TO.N,A10*%
X134403800Y-121666000D02*
X135165800Y-122428000D01*
X120347800Y-89720800D02*
X120347800Y-103417300D01*
X125150400Y-108219900D02*
X125150400Y-112742800D01*
X164329200Y-114810900D02*
X164140800Y-114999300D01*
X163541000Y-114999300D02*
X163325800Y-114784100D01*
X134403800Y-118550400D02*
X134403800Y-121666000D01*
X129391400Y-113538000D02*
X134403800Y-118550400D01*
X168185800Y-109728000D02*
X168185800Y-110853300D01*
X121773500Y-85008000D02*
X121773500Y-88295100D01*
X140753800Y-122301000D02*
X142150800Y-123698000D01*
X142150800Y-123698000D02*
X147193000Y-123698000D01*
X125150400Y-112742800D02*
X125945600Y-113538000D01*
X162687100Y-112417100D02*
X158664900Y-112417100D01*
X163325800Y-113055800D02*
X162687100Y-112417100D01*
X163325800Y-113924000D02*
X163325800Y-113055800D01*
X164140800Y-114999300D02*
X163541000Y-114999300D01*
X168185800Y-110853300D02*
X167763800Y-110853300D01*
X163325800Y-114784100D02*
X163325800Y-113924000D01*
X120347800Y-103417300D02*
X125150400Y-108219900D01*
X164329200Y-114287900D02*
X164329200Y-114810900D01*
X135165800Y-122428000D02*
X136435800Y-122428000D01*
X167763800Y-110853300D02*
X164329200Y-114287900D01*
X121773500Y-88295100D02*
X120347800Y-89720800D01*
X125945600Y-113538000D02*
X129391400Y-113538000D01*
%TO.N,RnW*%
X127457300Y-102108000D02*
X129784368Y-102108000D01*
X125773500Y-99008000D02*
X125773500Y-100424200D01*
X129784368Y-102108000D02*
X130413366Y-102736998D01*
X137923762Y-105363499D02*
X137923767Y-105363499D01*
X137923767Y-105363499D02*
X137959566Y-105399299D01*
X130580122Y-102736998D02*
X132805624Y-104962499D01*
X138666875Y-105399299D02*
X139264638Y-105997062D01*
X137959566Y-105399299D02*
X138666875Y-105399299D01*
X130413366Y-102736998D02*
X130580122Y-102736998D01*
X137522762Y-104962499D02*
X137923762Y-105363499D01*
X132805624Y-104962499D02*
X137522762Y-104962499D01*
X125773500Y-100424200D02*
X127457300Y-102108000D01*
%TO.N,A15*%
X144803200Y-105782000D02*
X143935195Y-104913995D01*
X138109948Y-104913995D02*
X137708951Y-104512998D01*
X137708951Y-104512998D02*
X133215688Y-104512998D01*
X126273500Y-100287300D02*
X126273500Y-99008000D01*
X129970557Y-101658499D02*
X127644699Y-101658499D01*
X143935195Y-104913995D02*
X138109948Y-104913995D01*
X133215688Y-104512998D02*
X130989688Y-102286998D01*
X130989688Y-102286998D02*
X130599056Y-102286998D01*
X130599056Y-102286998D02*
X129970557Y-101658499D01*
X127644699Y-101658499D02*
X126273500Y-100287300D01*
%TO.N,BANK3*%
X129529500Y-85008000D02*
X129613888Y-85092388D01*
X128773500Y-85008000D02*
X129529500Y-85008000D01*
%TO.N,U20_nOE*%
X162011200Y-109087000D02*
X163910200Y-107188000D01*
X159311500Y-109087000D02*
X162011200Y-109087000D01*
X163910200Y-107188000D02*
X167060500Y-107188000D01*
X168185800Y-107188000D02*
X167060500Y-107188000D01*
%TO.N,A16*%
X159325800Y-101369088D02*
X159039807Y-101655081D01*
X159325800Y-99924000D02*
X159325800Y-101369088D01*
%TO.N,PA16*%
X178933900Y-118110000D02*
X170950500Y-126093400D01*
X188505800Y-111760000D02*
X182155800Y-118110000D01*
X170950500Y-126093400D02*
X160802200Y-126093400D01*
X160802200Y-126093400D02*
X159422800Y-124714000D01*
X182155800Y-118110000D02*
X178933900Y-118110000D01*
%TO.N,A17*%
X161325800Y-99924000D02*
X161325800Y-102690934D01*
X161325800Y-102690934D02*
X161184234Y-102832500D01*
%TO.N,A18*%
X159825800Y-102003000D02*
X159930800Y-102108000D01*
X159825800Y-99924000D02*
X159825800Y-102003000D01*
%TO.N,A3*%
X155234500Y-112150700D02*
X155932500Y-112848700D01*
X155932500Y-112848700D02*
X156325800Y-112848700D01*
X156325800Y-113924000D02*
X156325800Y-112848700D01*
%TO.N,A2*%
X155287600Y-114999300D02*
X156825800Y-114999300D01*
X156825800Y-113924000D02*
X156825800Y-114999300D01*
X154323000Y-114034700D02*
X155287600Y-114999300D01*
%TO.N,A1*%
X156999300Y-112848700D02*
X156253600Y-112103000D01*
X157325800Y-112848700D02*
X156999300Y-112848700D01*
X157325800Y-113924000D02*
X157325800Y-112848700D01*
%TO.N,A0*%
X157371100Y-115454000D02*
X157825800Y-114999300D01*
X154071100Y-114808000D02*
X154717100Y-115454000D01*
X154717100Y-115454000D02*
X157371100Y-115454000D01*
X157825800Y-113924000D02*
X157825800Y-114999300D01*
X152945800Y-114808000D02*
X154071100Y-114808000D01*
%TO.N,Q0*%
X158325800Y-115177600D02*
X156155400Y-117348000D01*
X152945800Y-117348000D02*
X154071100Y-117348000D01*
X158325800Y-114999300D02*
X158325800Y-115177600D01*
X158325800Y-113924000D02*
X158325800Y-114999300D01*
X156155400Y-117348000D02*
X154071100Y-117348000D01*
%TO.N,Q1*%
X154307200Y-119888000D02*
X158825800Y-115369400D01*
X158825800Y-113924000D02*
X158825800Y-114999300D01*
X158825800Y-115369400D02*
X158825800Y-114999300D01*
X152945800Y-119888000D02*
X154307200Y-119888000D01*
%TO.N,Q2*%
X153561200Y-121302700D02*
X159325800Y-115538100D01*
X152945800Y-121302700D02*
X153561200Y-121302700D01*
X152945800Y-122428000D02*
X152945800Y-121302700D01*
X159325800Y-115538100D02*
X159325800Y-113924000D01*
%TO.N,Q3*%
X160325800Y-116363500D02*
X160325800Y-113924000D01*
X163963499Y-120001199D02*
X160325800Y-116363500D01*
X168185800Y-124968000D02*
X163963499Y-120745699D01*
X163963499Y-120745699D02*
X163963499Y-120001199D01*
%TO.N,Q4*%
X166343102Y-122428000D02*
X168185800Y-122428000D01*
X160825800Y-113924000D02*
X160825800Y-116210700D01*
X164413000Y-119797900D02*
X164413000Y-120497898D01*
X164413000Y-120497898D02*
X166343102Y-122428000D01*
X160825800Y-116210700D02*
X164413000Y-119797900D01*
%TO.N,Q5*%
X166283700Y-119039700D02*
X167132000Y-119888000D01*
X161325800Y-115560400D02*
X164805100Y-119039700D01*
X161325800Y-113924000D02*
X161325800Y-115560400D01*
X167132000Y-119888000D02*
X168185800Y-119888000D01*
X164805100Y-119039700D02*
X166283700Y-119039700D01*
%TO.N,Q6*%
X161825800Y-113924000D02*
X161825800Y-115343900D01*
X161825800Y-115343900D02*
X163829900Y-117348000D01*
X163829900Y-117348000D02*
X168185800Y-117348000D01*
%TO.N,Q7*%
X163018700Y-115899900D02*
X165968600Y-115899900D01*
X162325800Y-115207000D02*
X163018700Y-115899900D01*
X162325800Y-113924000D02*
X162325800Y-115207000D01*
X168185800Y-114808000D02*
X167060500Y-114808000D01*
X165968600Y-115899900D02*
X167060500Y-114808000D01*
%TO.N,nROM_ACTIVE*%
X167060500Y-112810000D02*
X167060500Y-112268000D01*
X164420900Y-115449600D02*
X167060500Y-112810000D01*
X168185800Y-112268000D02*
X167060500Y-112268000D01*
X163276100Y-115449600D02*
X164420900Y-115449600D01*
X162825800Y-113924000D02*
X162825800Y-114999300D01*
X162825800Y-114999300D02*
X163276100Y-115449600D01*
%TO.N,D0*%
X134386200Y-115933400D02*
X131790299Y-113337499D01*
X131790299Y-108291599D02*
X129457703Y-105959003D01*
X140241100Y-113538000D02*
X137845700Y-115933400D01*
X164543300Y-105918000D02*
X162449100Y-108012200D01*
X131790299Y-113337499D02*
X131790299Y-108291599D01*
X180885800Y-101600000D02*
X181864000Y-101600000D01*
X171125100Y-105410000D02*
X170617100Y-105918000D01*
X181864000Y-101600000D02*
X182626000Y-102362000D01*
X129457703Y-105959003D02*
X128180800Y-105959003D01*
X121449800Y-112268000D02*
X118655800Y-112268000D01*
X154444400Y-112400400D02*
X153306800Y-113538000D01*
X158280000Y-108012200D02*
X154444400Y-111847800D01*
X137845700Y-115933400D02*
X134386200Y-115933400D01*
X162449100Y-108012200D02*
X158280000Y-108012200D01*
X182626000Y-104648000D02*
X181864000Y-105410000D01*
X154444400Y-111847800D02*
X154444400Y-112400400D01*
X182626000Y-102362000D02*
X182626000Y-104648000D01*
X170617100Y-105918000D02*
X164543300Y-105918000D01*
X181864000Y-105410000D02*
X171125100Y-105410000D01*
X153306800Y-113538000D02*
X140241100Y-113538000D01*
%TO.N,D1*%
X147768811Y-89476501D02*
X146489499Y-88197189D01*
X180885800Y-104140000D02*
X172503800Y-95758000D01*
X163741490Y-95758000D02*
X157459991Y-89476501D01*
X146489499Y-88197189D02*
X146489499Y-80411699D01*
X146489499Y-80411699D02*
X144753200Y-78675400D01*
X172503800Y-95758000D02*
X163741490Y-95758000D01*
X121449800Y-117348000D02*
X118655800Y-117348000D01*
X157459991Y-89476501D02*
X147768811Y-89476501D01*
X144753200Y-78675400D02*
X133902700Y-78675400D01*
%TO.N,D2*%
X146965098Y-103915498D02*
X133889493Y-103915498D01*
X133889493Y-103915498D02*
X133762493Y-103788498D01*
X118655800Y-122428000D02*
X121449800Y-122428000D01*
X176376701Y-106680000D02*
X175831201Y-106134500D01*
X147310800Y-104261200D02*
X146965098Y-103915498D01*
X180885800Y-106680000D02*
X176376701Y-106680000D01*
%TO.N,D3*%
X146432800Y-121158000D02*
X149117400Y-118473400D01*
X130195100Y-124968000D02*
X131320400Y-123842700D01*
X149117400Y-118473400D02*
X154436300Y-118473400D01*
X140499800Y-121158000D02*
X146432800Y-121158000D01*
X162859100Y-110621900D02*
X158652100Y-110621900D01*
X129069800Y-124968000D02*
X126275800Y-124968000D01*
X179760500Y-109220000D02*
X179137200Y-108596700D01*
X179137200Y-108596700D02*
X164884300Y-108596700D01*
X129069800Y-124968000D02*
X130195100Y-124968000D01*
X131320400Y-123842700D02*
X137815100Y-123842700D01*
X180885800Y-109220000D02*
X179760500Y-109220000D01*
X137815100Y-123842700D02*
X140499800Y-121158000D01*
X164884300Y-108596700D02*
X162859100Y-110621900D01*
%TO.N,nV02*%
X146939000Y-78677700D02*
X140355100Y-72093800D01*
X177491422Y-93125622D02*
X161744802Y-93125622D01*
X180885800Y-96520000D02*
X177491422Y-93125622D01*
X138123700Y-67110600D02*
X137561100Y-66548000D01*
X139229800Y-66548000D02*
X139229800Y-67110600D01*
X161744802Y-93125622D02*
X157646180Y-89027000D01*
X140355100Y-68517200D02*
X139229800Y-67391900D01*
X146939000Y-88011000D02*
X146939000Y-78677700D01*
X140355100Y-72093800D02*
X140355100Y-68517200D01*
X136435800Y-66548000D02*
X137561100Y-66548000D01*
X139229800Y-67391900D02*
X139229800Y-67110600D01*
X139229800Y-67110600D02*
X138123700Y-67110600D01*
X147955000Y-89027000D02*
X146939000Y-88011000D01*
X157646180Y-89027000D02*
X147955000Y-89027000D01*
%TO.N,nPAGE_REGISTER_WRITE*%
X144055800Y-66548000D02*
X146849800Y-66548000D01*
%TO.N,nROM_OE*%
X163825800Y-113924000D02*
X163825800Y-112848700D01*
X162362700Y-111385600D02*
X157383200Y-111385600D01*
X163825800Y-112848700D02*
X162362700Y-111385600D01*
X157383200Y-111385600D02*
X156751100Y-110753500D01*
%TO.N,U7_p1*%
X136435800Y-56388000D02*
X139229800Y-56388000D01*
%TO.N,U7_p2*%
X136435800Y-58928000D02*
X139229800Y-58928000D01*
%TO.N,U7_p3*%
X136435800Y-61468000D02*
X139229800Y-61468000D01*
%TO.N,U7_p4*%
X136435800Y-64008000D02*
X139229800Y-64008000D01*
%TO.N,U7_p6*%
X136435800Y-69088000D02*
X139229800Y-69088000D01*
%TO.N,U7_p7*%
X136435800Y-71628000D02*
X139229800Y-71628000D01*
%TO.N,U7_p8*%
X136435800Y-74168000D02*
X139229800Y-74168000D01*
%TO.N,U7_p9*%
X144055800Y-74168000D02*
X146849800Y-74168000D01*
%TO.N,U7_p10*%
X144055800Y-71628000D02*
X146849800Y-71628000D01*
%TO.N,U7_p11*%
X144055800Y-69088000D02*
X146849800Y-69088000D01*
%TO.N,U7_p13*%
X144055800Y-64008000D02*
X146849800Y-64008000D01*
%TO.N,U7_p14*%
X144055800Y-61468000D02*
X146849800Y-61468000D01*
%TO.N,U7_p16*%
X144055800Y-56388000D02*
X146849800Y-56388000D01*
%TO.N,U18_p1*%
X118655800Y-107188000D02*
X121449800Y-107188000D01*
%TO.N,U18_p2*%
X118655800Y-109728000D02*
X121449800Y-109728000D01*
%TO.N,U18_p4*%
X118655800Y-114808000D02*
X121449800Y-114808000D01*
%TO.N,U18_p6*%
X118655800Y-119888000D02*
X121449800Y-119888000D01*
%TO.N,U18_p8*%
X118655800Y-124968000D02*
X121449800Y-124968000D01*
%TO.N,U18_p10*%
X126275800Y-122428000D02*
X129069800Y-122428000D01*
%TO.N,U18_p11*%
X126275800Y-119888000D02*
X129069800Y-119888000D01*
%TO.N,U18_p12*%
X126275800Y-117348000D02*
X129069800Y-117348000D01*
%TO.N,U18_p13*%
X126275800Y-114808000D02*
X129069800Y-114808000D01*
%TO.N,U18_p14*%
X126275800Y-112268000D02*
X129069800Y-112268000D01*
%TO.N,U18_p15*%
X126275800Y-109728000D02*
X129069800Y-109728000D01*
%TO.N,RA14*%
X161825800Y-102449468D02*
X161908734Y-102532402D01*
X161908734Y-103132598D02*
X160320432Y-104720900D01*
X161908734Y-102532402D02*
X161908734Y-103132598D01*
X160320432Y-104720900D02*
X159568200Y-104720900D01*
X161825800Y-99924000D02*
X161825800Y-102449468D01*
%TO.N,RA15*%
X158315307Y-101354983D02*
X158315307Y-102545907D01*
X158825800Y-99924000D02*
X158825800Y-100844490D01*
X158825800Y-100844490D02*
X158315307Y-101354983D01*
X158315307Y-102545907D02*
X158768700Y-102999300D01*
%TD*%
%TA.AperFunction,Conductor*%
%TO.N,GND*%
G36*
X190315539Y-88285185D02*
G01*
X190361294Y-88337989D01*
X190372500Y-88389500D01*
X190372500Y-121795500D01*
X190352815Y-121862539D01*
X190300011Y-121908294D01*
X190248500Y-121919500D01*
X178054019Y-121919500D01*
X178053827Y-121919487D01*
X178053812Y-121919500D01*
X178053621Y-121919500D01*
X178050726Y-121922199D01*
X171990866Y-127224826D01*
X171927452Y-127254159D01*
X171909204Y-127255508D01*
X117256158Y-127253504D01*
X117189120Y-127233817D01*
X117143367Y-127181011D01*
X117132163Y-127129504D01*
X117132163Y-125237085D01*
X117151848Y-125170046D01*
X117204652Y-125124291D01*
X117273810Y-125114347D01*
X117337366Y-125143372D01*
X117375140Y-125202150D01*
X117378636Y-125217687D01*
X117387323Y-125272534D01*
X117450581Y-125467223D01*
X117478651Y-125522312D01*
X117531843Y-125626707D01*
X117543515Y-125649613D01*
X117663828Y-125815213D01*
X117808586Y-125959971D01*
X117963549Y-126072556D01*
X117974190Y-126080287D01*
X118090407Y-126139503D01*
X118156576Y-126173218D01*
X118156578Y-126173218D01*
X118156581Y-126173220D01*
X118260937Y-126207127D01*
X118351265Y-126236477D01*
X118452357Y-126252488D01*
X118553448Y-126268500D01*
X118553449Y-126268500D01*
X118758151Y-126268500D01*
X118758152Y-126268500D01*
X118960334Y-126236477D01*
X119155019Y-126173220D01*
X119337410Y-126080287D01*
X119430390Y-126012732D01*
X119503013Y-125959971D01*
X119503015Y-125959968D01*
X119503019Y-125959966D01*
X119647766Y-125815219D01*
X119647768Y-125815215D01*
X119647771Y-125815213D01*
X119770951Y-125645669D01*
X119772623Y-125646884D01*
X119818008Y-125605831D01*
X119871915Y-125593500D01*
X120233685Y-125593500D01*
X120300724Y-125613185D01*
X120333406Y-125646571D01*
X120334649Y-125645669D01*
X120457828Y-125815213D01*
X120602586Y-125959971D01*
X120757549Y-126072556D01*
X120768190Y-126080287D01*
X120884407Y-126139503D01*
X120950576Y-126173218D01*
X120950578Y-126173218D01*
X120950581Y-126173220D01*
X121054937Y-126207127D01*
X121145265Y-126236477D01*
X121246357Y-126252488D01*
X121347448Y-126268500D01*
X121347449Y-126268500D01*
X121552151Y-126268500D01*
X121552152Y-126268500D01*
X121754334Y-126236477D01*
X121949019Y-126173220D01*
X122131410Y-126080287D01*
X122224390Y-126012732D01*
X122297013Y-125959971D01*
X122297015Y-125959968D01*
X122297019Y-125959966D01*
X122441766Y-125815219D01*
X122441768Y-125815215D01*
X122441771Y-125815213D01*
X122494532Y-125742590D01*
X122562087Y-125649610D01*
X122655020Y-125467219D01*
X122718277Y-125272534D01*
X122750300Y-125070352D01*
X122750300Y-124865648D01*
X122728801Y-124729910D01*
X122718277Y-124663465D01*
X122661227Y-124487885D01*
X122655020Y-124468781D01*
X122655018Y-124468778D01*
X122655018Y-124468776D01*
X122601012Y-124362785D01*
X122562087Y-124286390D01*
X122537328Y-124252312D01*
X122441771Y-124120786D01*
X122297013Y-123976028D01*
X122131414Y-123855715D01*
X122116480Y-123848106D01*
X122038717Y-123808483D01*
X121987923Y-123760511D01*
X121971128Y-123692690D01*
X121993665Y-123626555D01*
X122038717Y-123587516D01*
X122131410Y-123540287D01*
X122178217Y-123506280D01*
X122297013Y-123419971D01*
X122297015Y-123419968D01*
X122297019Y-123419966D01*
X122441766Y-123275219D01*
X122441768Y-123275215D01*
X122441771Y-123275213D01*
X122495326Y-123201499D01*
X122562087Y-123109610D01*
X122655020Y-122927219D01*
X122718277Y-122732534D01*
X122750300Y-122530352D01*
X122750300Y-122325648D01*
X122718277Y-122123466D01*
X122718276Y-122123464D01*
X122674099Y-121987500D01*
X122655020Y-121928781D01*
X122655018Y-121928778D01*
X122655018Y-121928776D01*
X122618812Y-121857719D01*
X122562087Y-121746390D01*
X122548442Y-121727609D01*
X122441771Y-121580786D01*
X122297013Y-121436028D01*
X122131414Y-121315715D01*
X122091991Y-121295628D01*
X122038717Y-121268483D01*
X121987923Y-121220511D01*
X121971128Y-121152690D01*
X121993665Y-121086555D01*
X122038717Y-121047516D01*
X122131410Y-121000287D01*
X122230699Y-120928150D01*
X122297013Y-120879971D01*
X122297015Y-120879968D01*
X122297019Y-120879966D01*
X122441766Y-120735219D01*
X122441768Y-120735215D01*
X122441771Y-120735213D01*
X122498881Y-120656606D01*
X122562087Y-120569610D01*
X122655020Y-120387219D01*
X122718277Y-120192534D01*
X122750300Y-119990352D01*
X122750300Y-119785648D01*
X122742483Y-119736294D01*
X122718277Y-119583465D01*
X122655018Y-119388776D01*
X122599183Y-119279195D01*
X122562087Y-119206390D01*
X122549445Y-119188989D01*
X122441771Y-119040786D01*
X122297013Y-118896028D01*
X122131414Y-118775715D01*
X122116555Y-118768144D01*
X122038717Y-118728483D01*
X121987923Y-118680511D01*
X121971128Y-118612690D01*
X121993665Y-118546555D01*
X122038717Y-118507516D01*
X122131410Y-118460287D01*
X122152570Y-118444913D01*
X122297013Y-118339971D01*
X122297015Y-118339968D01*
X122297019Y-118339966D01*
X122441766Y-118195219D01*
X122441768Y-118195215D01*
X122441771Y-118195213D01*
X122507336Y-118104969D01*
X122562087Y-118029610D01*
X122655020Y-117847219D01*
X122718277Y-117652534D01*
X122750300Y-117450352D01*
X122750300Y-117245648D01*
X122726141Y-117093116D01*
X122718277Y-117043465D01*
X122668052Y-116888889D01*
X122655020Y-116848781D01*
X122655018Y-116848778D01*
X122655018Y-116848776D01*
X122610923Y-116762236D01*
X122562087Y-116666390D01*
X122538679Y-116634171D01*
X122441771Y-116500786D01*
X122297013Y-116356028D01*
X122131414Y-116235715D01*
X122107929Y-116223749D01*
X122038717Y-116188483D01*
X121987923Y-116140511D01*
X121971128Y-116072690D01*
X121993665Y-116006555D01*
X122038717Y-115967516D01*
X122131410Y-115920287D01*
X122152570Y-115904913D01*
X122297013Y-115799971D01*
X122297015Y-115799968D01*
X122297019Y-115799966D01*
X122441766Y-115655219D01*
X122441768Y-115655215D01*
X122441771Y-115655213D01*
X122507023Y-115565400D01*
X122562087Y-115489610D01*
X122655020Y-115307219D01*
X122718277Y-115112534D01*
X122750300Y-114910352D01*
X122750300Y-114705648D01*
X122734266Y-114604413D01*
X122718277Y-114503465D01*
X122669277Y-114352661D01*
X122655020Y-114308781D01*
X122655018Y-114308778D01*
X122655018Y-114308776D01*
X122602841Y-114206375D01*
X122562087Y-114126390D01*
X122547540Y-114106368D01*
X122441771Y-113960786D01*
X122297013Y-113816028D01*
X122131414Y-113695715D01*
X122096540Y-113677946D01*
X122038717Y-113648483D01*
X121987923Y-113600511D01*
X121971128Y-113532690D01*
X121993665Y-113466555D01*
X122038717Y-113427516D01*
X122131410Y-113380287D01*
X122193418Y-113335236D01*
X122297013Y-113259971D01*
X122297015Y-113259968D01*
X122297019Y-113259966D01*
X122441766Y-113115219D01*
X122441768Y-113115215D01*
X122441771Y-113115213D01*
X122507336Y-113024969D01*
X122562087Y-112949610D01*
X122655020Y-112767219D01*
X122718277Y-112572534D01*
X122750300Y-112370352D01*
X122750300Y-112165648D01*
X122723892Y-111998914D01*
X122718277Y-111963465D01*
X122681154Y-111849213D01*
X122655020Y-111768781D01*
X122655018Y-111768778D01*
X122655018Y-111768776D01*
X122611550Y-111683467D01*
X122562087Y-111586390D01*
X122554356Y-111575749D01*
X122441771Y-111420786D01*
X122297013Y-111276028D01*
X122131414Y-111155715D01*
X122089773Y-111134498D01*
X122038717Y-111108483D01*
X121987923Y-111060511D01*
X121971128Y-110992690D01*
X121993665Y-110926555D01*
X122038717Y-110887516D01*
X122131410Y-110840287D01*
X122241779Y-110760100D01*
X122297013Y-110719971D01*
X122297015Y-110719968D01*
X122297019Y-110719966D01*
X122441766Y-110575219D01*
X122441768Y-110575215D01*
X122441771Y-110575213D01*
X122504787Y-110488477D01*
X122562087Y-110409610D01*
X122655020Y-110227219D01*
X122718277Y-110032534D01*
X122750300Y-109830352D01*
X122750300Y-109625648D01*
X122734285Y-109524534D01*
X122718277Y-109423465D01*
X122674579Y-109288977D01*
X122655020Y-109228781D01*
X122655018Y-109228778D01*
X122655018Y-109228776D01*
X122609835Y-109140100D01*
X122562087Y-109046390D01*
X122537328Y-109012312D01*
X122441771Y-108880786D01*
X122297019Y-108736034D01*
X122260730Y-108709669D01*
X122218064Y-108654339D01*
X122212085Y-108584726D01*
X122244690Y-108522931D01*
X122305528Y-108488573D01*
X122320362Y-108486060D01*
X122357283Y-108482091D01*
X122436111Y-108452690D01*
X122492131Y-108431796D01*
X122607346Y-108345546D01*
X122693596Y-108230331D01*
X122743891Y-108095483D01*
X122750300Y-108035873D01*
X122750299Y-107003750D01*
X122769983Y-106936712D01*
X122822787Y-106890957D01*
X122891946Y-106881013D01*
X122955502Y-106910038D01*
X122961980Y-106916070D01*
X124488581Y-108442671D01*
X124522066Y-108503994D01*
X124524900Y-108530352D01*
X124524900Y-112804410D01*
X124536056Y-112860498D01*
X124536059Y-112860509D01*
X124536682Y-112863642D01*
X124548937Y-112925252D01*
X124554535Y-112938766D01*
X124557975Y-112947072D01*
X124557976Y-112947074D01*
X124596085Y-113039080D01*
X124596087Y-113039083D01*
X124596088Y-113039086D01*
X124617534Y-113071182D01*
X124630314Y-113090307D01*
X124630315Y-113090309D01*
X124664540Y-113141531D01*
X124664541Y-113141532D01*
X124664542Y-113141533D01*
X124751667Y-113228658D01*
X124751668Y-113228658D01*
X124758735Y-113235725D01*
X124758734Y-113235725D01*
X124758738Y-113235728D01*
X125296130Y-113773120D01*
X125329615Y-113834443D01*
X125324631Y-113904135D01*
X125296136Y-113948477D01*
X125283834Y-113960779D01*
X125283833Y-113960781D01*
X125163515Y-114126386D01*
X125070581Y-114308776D01*
X125007322Y-114503465D01*
X124975300Y-114705648D01*
X124975300Y-114910351D01*
X125007322Y-115112534D01*
X125070581Y-115307223D01*
X125131730Y-115427233D01*
X125147723Y-115458621D01*
X125163515Y-115489613D01*
X125283828Y-115655213D01*
X125428586Y-115799971D01*
X125583549Y-115912556D01*
X125594190Y-115920287D01*
X125685640Y-115966883D01*
X125686880Y-115967515D01*
X125737676Y-116015490D01*
X125754471Y-116083311D01*
X125731934Y-116149446D01*
X125686880Y-116188485D01*
X125594186Y-116235715D01*
X125428586Y-116356028D01*
X125283828Y-116500786D01*
X125163515Y-116666386D01*
X125070581Y-116848776D01*
X125007322Y-117043465D01*
X124975300Y-117245648D01*
X124975300Y-117450351D01*
X125007322Y-117652534D01*
X125070581Y-117847223D01*
X125124113Y-117952284D01*
X125148321Y-117999795D01*
X125163515Y-118029613D01*
X125283828Y-118195213D01*
X125428586Y-118339971D01*
X125582849Y-118452047D01*
X125594190Y-118460287D01*
X125675383Y-118501657D01*
X125686880Y-118507515D01*
X125737676Y-118555490D01*
X125754471Y-118623311D01*
X125731934Y-118689446D01*
X125686880Y-118728485D01*
X125594186Y-118775715D01*
X125428586Y-118896028D01*
X125283828Y-119040786D01*
X125163515Y-119206386D01*
X125070581Y-119388776D01*
X125007322Y-119583465D01*
X124975300Y-119785648D01*
X124975300Y-119990351D01*
X125007322Y-120192534D01*
X125070581Y-120387223D01*
X125128799Y-120501481D01*
X125163510Y-120569605D01*
X125163515Y-120569613D01*
X125283828Y-120735213D01*
X125428586Y-120879971D01*
X125583549Y-120992556D01*
X125594190Y-121000287D01*
X125676027Y-121041985D01*
X125686880Y-121047515D01*
X125737676Y-121095490D01*
X125754471Y-121163311D01*
X125731934Y-121229446D01*
X125686880Y-121268485D01*
X125594186Y-121315715D01*
X125428586Y-121436028D01*
X125283828Y-121580786D01*
X125163515Y-121746386D01*
X125070581Y-121928776D01*
X125007322Y-122123465D01*
X124975300Y-122325648D01*
X124975300Y-122530351D01*
X125007322Y-122732534D01*
X125070581Y-122927223D01*
X125134491Y-123052653D01*
X125144604Y-123072500D01*
X125163515Y-123109613D01*
X125283828Y-123275213D01*
X125428586Y-123419971D01*
X125574966Y-123526320D01*
X125594190Y-123540287D01*
X125676926Y-123582443D01*
X125686880Y-123587515D01*
X125737676Y-123635490D01*
X125754471Y-123703311D01*
X125731934Y-123769446D01*
X125686880Y-123808485D01*
X125594186Y-123855715D01*
X125428586Y-123976028D01*
X125283828Y-124120786D01*
X125163515Y-124286386D01*
X125070581Y-124468776D01*
X125007322Y-124663465D01*
X124975300Y-124865648D01*
X124975300Y-125070351D01*
X125007322Y-125272534D01*
X125070581Y-125467223D01*
X125098651Y-125522312D01*
X125151843Y-125626707D01*
X125163515Y-125649613D01*
X125283828Y-125815213D01*
X125428586Y-125959971D01*
X125583549Y-126072556D01*
X125594190Y-126080287D01*
X125710407Y-126139503D01*
X125776576Y-126173218D01*
X125776578Y-126173218D01*
X125776581Y-126173220D01*
X125880937Y-126207127D01*
X125971265Y-126236477D01*
X126072357Y-126252488D01*
X126173448Y-126268500D01*
X126173449Y-126268500D01*
X126378151Y-126268500D01*
X126378152Y-126268500D01*
X126580334Y-126236477D01*
X126775019Y-126173220D01*
X126957410Y-126080287D01*
X127050390Y-126012732D01*
X127123013Y-125959971D01*
X127123015Y-125959968D01*
X127123019Y-125959966D01*
X127267766Y-125815219D01*
X127267768Y-125815215D01*
X127267771Y-125815213D01*
X127390951Y-125645669D01*
X127392623Y-125646884D01*
X127438008Y-125605831D01*
X127491915Y-125593500D01*
X127853685Y-125593500D01*
X127920724Y-125613185D01*
X127953406Y-125646571D01*
X127954649Y-125645669D01*
X128077828Y-125815213D01*
X128222586Y-125959971D01*
X128377549Y-126072556D01*
X128388190Y-126080287D01*
X128504407Y-126139503D01*
X128570576Y-126173218D01*
X128570578Y-126173218D01*
X128570581Y-126173220D01*
X128674937Y-126207127D01*
X128765265Y-126236477D01*
X128866357Y-126252488D01*
X128967448Y-126268500D01*
X128967449Y-126268500D01*
X129172151Y-126268500D01*
X129172152Y-126268500D01*
X129374334Y-126236477D01*
X129569019Y-126173220D01*
X129751410Y-126080287D01*
X129844390Y-126012732D01*
X129917013Y-125959971D01*
X129917015Y-125959968D01*
X129917019Y-125959966D01*
X130061766Y-125815219D01*
X130061768Y-125815215D01*
X130061771Y-125815213D01*
X130182078Y-125649623D01*
X130182080Y-125649619D01*
X130182087Y-125649610D01*
X130182092Y-125649600D01*
X130182534Y-125648879D01*
X130182781Y-125648654D01*
X130184951Y-125645669D01*
X130185577Y-125646124D01*
X130207032Y-125626707D01*
X130230798Y-125603775D01*
X130233374Y-125602866D01*
X130234338Y-125601994D01*
X130264079Y-125592033D01*
X130325110Y-125579894D01*
X130325111Y-125579894D01*
X130342913Y-125576352D01*
X130377552Y-125569463D01*
X130410892Y-125555652D01*
X130491386Y-125522312D01*
X130542609Y-125488084D01*
X130593833Y-125453858D01*
X130680958Y-125366733D01*
X130680958Y-125366731D01*
X130691166Y-125356524D01*
X130691167Y-125356521D01*
X131543172Y-124504519D01*
X131604495Y-124471034D01*
X131630853Y-124468200D01*
X135060623Y-124468200D01*
X135127662Y-124487885D01*
X135173417Y-124540689D01*
X135183361Y-124609847D01*
X135178554Y-124630519D01*
X135167809Y-124663588D01*
X135159191Y-124718000D01*
X136120114Y-124718000D01*
X136115720Y-124722394D01*
X136063059Y-124813606D01*
X136035800Y-124915339D01*
X136035800Y-125020661D01*
X136063059Y-125122394D01*
X136115720Y-125213606D01*
X136120114Y-125218000D01*
X135159191Y-125218000D01*
X135167809Y-125272413D01*
X135231044Y-125467029D01*
X135323940Y-125649349D01*
X135444217Y-125814894D01*
X135444217Y-125814895D01*
X135588904Y-125959582D01*
X135754450Y-126079859D01*
X135936768Y-126172754D01*
X136131378Y-126235988D01*
X136185800Y-126244607D01*
X136185800Y-125283686D01*
X136190194Y-125288080D01*
X136281406Y-125340741D01*
X136383139Y-125368000D01*
X136488461Y-125368000D01*
X136590194Y-125340741D01*
X136681406Y-125288080D01*
X136685800Y-125283686D01*
X136685800Y-126244606D01*
X136740221Y-126235988D01*
X136934831Y-126172754D01*
X137117149Y-126079859D01*
X137282694Y-125959582D01*
X137282695Y-125959582D01*
X137427382Y-125814895D01*
X137427382Y-125814894D01*
X137547659Y-125649349D01*
X137640555Y-125467029D01*
X137703790Y-125272413D01*
X137712409Y-125218000D01*
X136751486Y-125218000D01*
X136755880Y-125213606D01*
X136808541Y-125122394D01*
X136835800Y-125020661D01*
X136835800Y-124915339D01*
X136808541Y-124813606D01*
X136755880Y-124722394D01*
X136751486Y-124718000D01*
X137712409Y-124718000D01*
X137703790Y-124663588D01*
X137693046Y-124630519D01*
X137692406Y-124608114D01*
X137687116Y-124586338D01*
X137691427Y-124573867D01*
X137691051Y-124560677D01*
X137702625Y-124541483D01*
X137709948Y-124520304D01*
X137720316Y-124512144D01*
X137727131Y-124500844D01*
X137747244Y-124490954D01*
X137764856Y-124477096D01*
X137782259Y-124473739D01*
X137789832Y-124470016D01*
X137799152Y-124468765D01*
X137805050Y-124468200D01*
X137876707Y-124468200D01*
X137937129Y-124456181D01*
X137997552Y-124444163D01*
X137997555Y-124444161D01*
X137997558Y-124444161D01*
X138030887Y-124430354D01*
X138030886Y-124430354D01*
X138030892Y-124430352D01*
X138111386Y-124397012D01*
X138162609Y-124362784D01*
X138213833Y-124328558D01*
X138300958Y-124241433D01*
X138300959Y-124241431D01*
X138308025Y-124234365D01*
X138308028Y-124234361D01*
X139792494Y-122749894D01*
X139853815Y-122716411D01*
X139923507Y-122721395D01*
X139979440Y-122763267D01*
X139983275Y-122768686D01*
X140054335Y-122875034D01*
X140054338Y-122875038D01*
X140179761Y-123000461D01*
X140179765Y-123000464D01*
X140327246Y-123099009D01*
X140327259Y-123099016D01*
X140450163Y-123149923D01*
X140491134Y-123166894D01*
X140491136Y-123166894D01*
X140491141Y-123166896D01*
X140665104Y-123201499D01*
X140665107Y-123201500D01*
X140665109Y-123201500D01*
X140718348Y-123201500D01*
X140785387Y-123221185D01*
X140806028Y-123237818D01*
X141664941Y-124096732D01*
X141664942Y-124096733D01*
X141744571Y-124176362D01*
X141752068Y-124183859D01*
X141854507Y-124252307D01*
X141854513Y-124252310D01*
X141854514Y-124252311D01*
X141968348Y-124299463D01*
X142002158Y-124306188D01*
X142089191Y-124323499D01*
X142089192Y-124323500D01*
X142089193Y-124323500D01*
X142089194Y-124323500D01*
X142727113Y-124323500D01*
X142794152Y-124343185D01*
X142839907Y-124395989D01*
X142849851Y-124465147D01*
X142845044Y-124485818D01*
X142787323Y-124663461D01*
X142787323Y-124663464D01*
X142755300Y-124865648D01*
X142755300Y-125070351D01*
X142787322Y-125272534D01*
X142850581Y-125467223D01*
X142878651Y-125522312D01*
X142931843Y-125626707D01*
X142943515Y-125649613D01*
X143063828Y-125815213D01*
X143208586Y-125959971D01*
X143363549Y-126072556D01*
X143374190Y-126080287D01*
X143490407Y-126139503D01*
X143556576Y-126173218D01*
X143556578Y-126173218D01*
X143556581Y-126173220D01*
X143660937Y-126207127D01*
X143751265Y-126236477D01*
X143852357Y-126252488D01*
X143953448Y-126268500D01*
X143953449Y-126268500D01*
X144158151Y-126268500D01*
X144158152Y-126268500D01*
X144360334Y-126236477D01*
X144555019Y-126173220D01*
X144737410Y-126080287D01*
X144830390Y-126012732D01*
X144903013Y-125959971D01*
X144903015Y-125959968D01*
X144903019Y-125959966D01*
X145047766Y-125815219D01*
X145047768Y-125815215D01*
X145047771Y-125815213D01*
X145100532Y-125742590D01*
X145168087Y-125649610D01*
X145261020Y-125467219D01*
X145324277Y-125272534D01*
X145356300Y-125070352D01*
X145356300Y-124865648D01*
X145324277Y-124663466D01*
X145324276Y-124663462D01*
X145324276Y-124663461D01*
X145266556Y-124485818D01*
X145264561Y-124415977D01*
X145300641Y-124356144D01*
X145363342Y-124325316D01*
X145384487Y-124323500D01*
X146493639Y-124323500D01*
X146560678Y-124343185D01*
X146581321Y-124359820D01*
X146618961Y-124397461D01*
X146618965Y-124397464D01*
X146766446Y-124496009D01*
X146766459Y-124496016D01*
X146876228Y-124541483D01*
X146930334Y-124563894D01*
X146930336Y-124563894D01*
X146930341Y-124563896D01*
X147104304Y-124598499D01*
X147104307Y-124598500D01*
X147104309Y-124598500D01*
X147281693Y-124598500D01*
X147281694Y-124598499D01*
X147342833Y-124586338D01*
X147455658Y-124563896D01*
X147455661Y-124563894D01*
X147455666Y-124563894D01*
X147595535Y-124505958D01*
X147619540Y-124496016D01*
X147619540Y-124496015D01*
X147619547Y-124496013D01*
X147767035Y-124397464D01*
X147892464Y-124272035D01*
X147991013Y-124124547D01*
X148058894Y-123960666D01*
X148063297Y-123938534D01*
X148093499Y-123786695D01*
X148093500Y-123786693D01*
X148093500Y-123609306D01*
X148093499Y-123609304D01*
X148058896Y-123435341D01*
X148058893Y-123435332D01*
X148052530Y-123419971D01*
X148026382Y-123356842D01*
X147991016Y-123271459D01*
X147991009Y-123271446D01*
X147892464Y-123123965D01*
X147892461Y-123123961D01*
X147767038Y-122998538D01*
X147767034Y-122998535D01*
X147619553Y-122899990D01*
X147619540Y-122899983D01*
X147455667Y-122832106D01*
X147455658Y-122832103D01*
X147281694Y-122797500D01*
X147281691Y-122797500D01*
X147104309Y-122797500D01*
X147104306Y-122797500D01*
X146930341Y-122832103D01*
X146930332Y-122832106D01*
X146766459Y-122899983D01*
X146766446Y-122899990D01*
X146618965Y-122998535D01*
X146618961Y-122998538D01*
X146581321Y-123036180D01*
X146519999Y-123069666D01*
X146493639Y-123072500D01*
X145384487Y-123072500D01*
X145317448Y-123052815D01*
X145271693Y-123000011D01*
X145261749Y-122930853D01*
X145266556Y-122910182D01*
X145324276Y-122732538D01*
X145324276Y-122732537D01*
X145324277Y-122732534D01*
X145356300Y-122530352D01*
X145356300Y-122325648D01*
X145324277Y-122123466D01*
X145324276Y-122123462D01*
X145324276Y-122123461D01*
X145266556Y-121945818D01*
X145264561Y-121875977D01*
X145300641Y-121816144D01*
X145363342Y-121785316D01*
X145384487Y-121783500D01*
X146494408Y-121783500D01*
X146494408Y-121783499D01*
X146594845Y-121763522D01*
X146615252Y-121759463D01*
X146648592Y-121745652D01*
X146729086Y-121712312D01*
X146784177Y-121675500D01*
X146831533Y-121643858D01*
X146918658Y-121556733D01*
X146918658Y-121556731D01*
X146928866Y-121546524D01*
X146928867Y-121546521D01*
X149340172Y-119135219D01*
X149401495Y-119101734D01*
X149427853Y-119098900D01*
X151685932Y-119098900D01*
X151752971Y-119118585D01*
X151798726Y-119171389D01*
X151808670Y-119240547D01*
X151796417Y-119279195D01*
X151740581Y-119388776D01*
X151677322Y-119583465D01*
X151645300Y-119785648D01*
X151645300Y-119990351D01*
X151677322Y-120192534D01*
X151740581Y-120387223D01*
X151798799Y-120501481D01*
X151833510Y-120569605D01*
X151833515Y-120569613D01*
X151953828Y-120735213D01*
X152098586Y-120879971D01*
X152264188Y-121000286D01*
X152274993Y-121005792D01*
X152294669Y-121024376D01*
X152316621Y-121040205D01*
X152319691Y-121048007D01*
X152325789Y-121053767D01*
X152332295Y-121080042D01*
X152342203Y-121105223D01*
X152341549Y-121117415D01*
X152342583Y-121121588D01*
X152340315Y-121140466D01*
X152321767Y-121233716D01*
X152289382Y-121295628D01*
X152268058Y-121312749D01*
X152268131Y-121312849D01*
X152266071Y-121314345D01*
X152264946Y-121315249D01*
X152264189Y-121315712D01*
X152098586Y-121436028D01*
X151953828Y-121580786D01*
X151833515Y-121746386D01*
X151740581Y-121928776D01*
X151677322Y-122123465D01*
X151645300Y-122325648D01*
X151645300Y-122530351D01*
X151677322Y-122732534D01*
X151740581Y-122927223D01*
X151804491Y-123052653D01*
X151814604Y-123072500D01*
X151833515Y-123109613D01*
X151953828Y-123275213D01*
X152098586Y-123419971D01*
X152244966Y-123526320D01*
X152264190Y-123540287D01*
X152336224Y-123576990D01*
X152357429Y-123587795D01*
X152408225Y-123635770D01*
X152425020Y-123703591D01*
X152402482Y-123769726D01*
X152357429Y-123808765D01*
X152264450Y-123856140D01*
X152098905Y-123976417D01*
X152098904Y-123976417D01*
X151954217Y-124121104D01*
X151954217Y-124121105D01*
X151833940Y-124286650D01*
X151741044Y-124468970D01*
X151677809Y-124663586D01*
X151669191Y-124718000D01*
X152630114Y-124718000D01*
X152625720Y-124722394D01*
X152573059Y-124813606D01*
X152545800Y-124915339D01*
X152545800Y-125020661D01*
X152573059Y-125122394D01*
X152625720Y-125213606D01*
X152630114Y-125218000D01*
X151669191Y-125218000D01*
X151677809Y-125272413D01*
X151741044Y-125467029D01*
X151833940Y-125649349D01*
X151954217Y-125814894D01*
X151954217Y-125814895D01*
X152098904Y-125959582D01*
X152264450Y-126079859D01*
X152446768Y-126172754D01*
X152641378Y-126235988D01*
X152695800Y-126244607D01*
X152695800Y-125283686D01*
X152700194Y-125288080D01*
X152791406Y-125340741D01*
X152893139Y-125368000D01*
X152998461Y-125368000D01*
X153100194Y-125340741D01*
X153191406Y-125288080D01*
X153195800Y-125283686D01*
X153195800Y-126244606D01*
X153250221Y-126235988D01*
X153444831Y-126172754D01*
X153627149Y-126079859D01*
X153792694Y-125959582D01*
X153792695Y-125959582D01*
X153937382Y-125814895D01*
X153937382Y-125814894D01*
X154057659Y-125649349D01*
X154150555Y-125467029D01*
X154213790Y-125272413D01*
X154222409Y-125218000D01*
X153261486Y-125218000D01*
X153265880Y-125213606D01*
X153318541Y-125122394D01*
X153345800Y-125020661D01*
X153345800Y-124915339D01*
X153318541Y-124813606D01*
X153265880Y-124722394D01*
X153261486Y-124718000D01*
X154222409Y-124718000D01*
X154213790Y-124663586D01*
X154150555Y-124468970D01*
X154057659Y-124286650D01*
X153937382Y-124121105D01*
X153937382Y-124121104D01*
X153792695Y-123976417D01*
X153627149Y-123856140D01*
X153534170Y-123808765D01*
X153483374Y-123760790D01*
X153466579Y-123692969D01*
X153489116Y-123626835D01*
X153534170Y-123587795D01*
X153544674Y-123582443D01*
X153627410Y-123540287D01*
X153674217Y-123506280D01*
X153793013Y-123419971D01*
X153793015Y-123419968D01*
X153793019Y-123419966D01*
X153937766Y-123275219D01*
X153937768Y-123275215D01*
X153937771Y-123275213D01*
X153991326Y-123201499D01*
X154058087Y-123109610D01*
X154107016Y-123013581D01*
X155551800Y-123013581D01*
X155558208Y-123084102D01*
X155558209Y-123084107D01*
X155608781Y-123246396D01*
X155696727Y-123391877D01*
X155816922Y-123512072D01*
X155962404Y-123600019D01*
X155962403Y-123600019D01*
X156124694Y-123650590D01*
X156124693Y-123650590D01*
X156195208Y-123656998D01*
X156195226Y-123656999D01*
X156201799Y-123656998D01*
X156201800Y-123656998D01*
X156201800Y-122932000D01*
X155551801Y-122932000D01*
X155551801Y-123013576D01*
X155551800Y-123013581D01*
X154107016Y-123013581D01*
X154151020Y-122927219D01*
X154214277Y-122732534D01*
X154246300Y-122530352D01*
X154246300Y-122350427D01*
X155551800Y-122350427D01*
X155551800Y-122432000D01*
X156201800Y-122432000D01*
X156201800Y-121707000D01*
X156201799Y-121706999D01*
X156195236Y-121707000D01*
X156195217Y-121707001D01*
X156124697Y-121713408D01*
X156124692Y-121713409D01*
X155962403Y-121763981D01*
X155816922Y-121851927D01*
X155696727Y-121972122D01*
X155608780Y-122117604D01*
X155558209Y-122279893D01*
X155551800Y-122350427D01*
X154246300Y-122350427D01*
X154246300Y-122325648D01*
X154214277Y-122123466D01*
X154214276Y-122123464D01*
X154170099Y-121987500D01*
X154151020Y-121928781D01*
X154151018Y-121928778D01*
X154151018Y-121928776D01*
X154080089Y-121789571D01*
X154067193Y-121720902D01*
X154093469Y-121656161D01*
X154102884Y-121645604D01*
X159488621Y-116259868D01*
X159503474Y-116251758D01*
X159515267Y-116239611D01*
X159533507Y-116235359D01*
X159549942Y-116226385D01*
X159566825Y-116227592D01*
X159583313Y-116223749D01*
X159600955Y-116230033D01*
X159619634Y-116231369D01*
X159633185Y-116241513D01*
X159649132Y-116247194D01*
X159660576Y-116262018D01*
X159675567Y-116273241D01*
X159681747Y-116289443D01*
X159691827Y-116302501D01*
X159696786Y-116328872D01*
X159699839Y-116336874D01*
X159700300Y-116342208D01*
X159700300Y-116425107D01*
X159711638Y-116482106D01*
X159712969Y-116488798D01*
X159712970Y-116488809D01*
X159724335Y-116545946D01*
X159724339Y-116545958D01*
X159729681Y-116558855D01*
X159732354Y-116565307D01*
X159771488Y-116659786D01*
X159796057Y-116696555D01*
X159796058Y-116696558D01*
X159796059Y-116696558D01*
X159839941Y-116762232D01*
X159839944Y-116762236D01*
X159931386Y-116853678D01*
X159931408Y-116853698D01*
X163301680Y-120223970D01*
X163335165Y-120285293D01*
X163337999Y-120311651D01*
X163337999Y-120807305D01*
X163355766Y-120896631D01*
X163362036Y-120928150D01*
X163409187Y-121041985D01*
X163409189Y-121041987D01*
X163409189Y-121041988D01*
X163434616Y-121080042D01*
X163443414Y-121093208D01*
X163477641Y-121144432D01*
X163564766Y-121231557D01*
X163564768Y-121231558D01*
X163574731Y-121241521D01*
X166883581Y-124550371D01*
X166917066Y-124611694D01*
X166916585Y-124658416D01*
X166918085Y-124658654D01*
X166885300Y-124865648D01*
X166885300Y-125070351D01*
X166917323Y-125272535D01*
X166917324Y-125272542D01*
X166928060Y-125305583D01*
X166930055Y-125375424D01*
X166893974Y-125435257D01*
X166831273Y-125466084D01*
X166810129Y-125467900D01*
X164788760Y-125467900D01*
X164721721Y-125448215D01*
X164675966Y-125395411D01*
X164666022Y-125326253D01*
X164695047Y-125262697D01*
X164701079Y-125256219D01*
X164745260Y-125212037D01*
X164745263Y-125212034D01*
X164843812Y-125064546D01*
X164911693Y-124900665D01*
X164918659Y-124865648D01*
X164946298Y-124726694D01*
X164946299Y-124726692D01*
X164946299Y-124549305D01*
X164946298Y-124549303D01*
X164911695Y-124375340D01*
X164911692Y-124375331D01*
X164906495Y-124362785D01*
X164883050Y-124306181D01*
X164843815Y-124211458D01*
X164843808Y-124211445D01*
X164745263Y-124063964D01*
X164745260Y-124063960D01*
X164619837Y-123938537D01*
X164619833Y-123938534D01*
X164472352Y-123839989D01*
X164472339Y-123839982D01*
X164308467Y-123772105D01*
X164308459Y-123772103D01*
X164261479Y-123762758D01*
X164199568Y-123730373D01*
X164197990Y-123728822D01*
X163971980Y-123502812D01*
X163938495Y-123441489D01*
X163943479Y-123371797D01*
X163954119Y-123350039D01*
X164019349Y-123244287D01*
X164072236Y-123084685D01*
X164082300Y-122986174D01*
X164082300Y-122377826D01*
X164072236Y-122279315D01*
X164019349Y-122119713D01*
X164019345Y-122119707D01*
X164019344Y-122119704D01*
X163931083Y-121976612D01*
X163931080Y-121976608D01*
X163812191Y-121857719D01*
X163812187Y-121857716D01*
X163669095Y-121769455D01*
X163669089Y-121769452D01*
X163669087Y-121769451D01*
X163509485Y-121716564D01*
X163509483Y-121716563D01*
X163410981Y-121706500D01*
X163410974Y-121706500D01*
X162877626Y-121706500D01*
X162877618Y-121706500D01*
X162779116Y-121716563D01*
X162779115Y-121716564D01*
X162700019Y-121742773D01*
X162619515Y-121769450D01*
X162619504Y-121769455D01*
X162476412Y-121857716D01*
X162476408Y-121857719D01*
X162444481Y-121889647D01*
X162383158Y-121923132D01*
X162313466Y-121918148D01*
X162269119Y-121889647D01*
X162237191Y-121857719D01*
X162237187Y-121857716D01*
X162094095Y-121769455D01*
X162094089Y-121769452D01*
X162094087Y-121769451D01*
X161934485Y-121716564D01*
X161934483Y-121716563D01*
X161835981Y-121706500D01*
X161835974Y-121706500D01*
X161302626Y-121706500D01*
X161302618Y-121706500D01*
X161204116Y-121716563D01*
X161204115Y-121716564D01*
X161125019Y-121742773D01*
X161044515Y-121769450D01*
X161044504Y-121769455D01*
X160901412Y-121857716D01*
X160901408Y-121857719D01*
X160782520Y-121976607D01*
X160782519Y-121976609D01*
X160769572Y-121997598D01*
X160717626Y-122044321D01*
X160664035Y-122056500D01*
X158978402Y-122056500D01*
X158911363Y-122036815D01*
X158872286Y-121996651D01*
X158860169Y-121976607D01*
X158857272Y-121971815D01*
X158857271Y-121971814D01*
X158857268Y-121971810D01*
X158736988Y-121851530D01*
X158731896Y-121848452D01*
X158591406Y-121763522D01*
X158428996Y-121712914D01*
X158428994Y-121712913D01*
X158428992Y-121712913D01*
X158379578Y-121708423D01*
X158358416Y-121706500D01*
X157845184Y-121706500D01*
X157825945Y-121708248D01*
X157774607Y-121712913D01*
X157612193Y-121763522D01*
X157466611Y-121851530D01*
X157466610Y-121851531D01*
X157364127Y-121954015D01*
X157302804Y-121987500D01*
X157233112Y-121982516D01*
X157188765Y-121954015D01*
X157086677Y-121851927D01*
X156941195Y-121763980D01*
X156941196Y-121763980D01*
X156778905Y-121713409D01*
X156778906Y-121713409D01*
X156708372Y-121707000D01*
X156701800Y-121707000D01*
X156701800Y-123656999D01*
X156708381Y-123656999D01*
X156778902Y-123650591D01*
X156778907Y-123650590D01*
X156941196Y-123600018D01*
X157086677Y-123512072D01*
X157086678Y-123512071D01*
X157188763Y-123409985D01*
X157250086Y-123376499D01*
X157319777Y-123381483D01*
X157364126Y-123409984D01*
X157466611Y-123512469D01*
X157466613Y-123512470D01*
X157466615Y-123512472D01*
X157612194Y-123600478D01*
X157774604Y-123651086D01*
X157845184Y-123657500D01*
X157845187Y-123657500D01*
X158358413Y-123657500D01*
X158358416Y-123657500D01*
X158428996Y-123651086D01*
X158591406Y-123600478D01*
X158736985Y-123512472D01*
X158857272Y-123392185D01*
X158872286Y-123367349D01*
X158923814Y-123320162D01*
X158978402Y-123307500D01*
X160664035Y-123307500D01*
X160731074Y-123327185D01*
X160769572Y-123366401D01*
X160775801Y-123376499D01*
X160782520Y-123387392D01*
X160901408Y-123506280D01*
X160901412Y-123506283D01*
X161044504Y-123594544D01*
X161044507Y-123594545D01*
X161044513Y-123594549D01*
X161204115Y-123647436D01*
X161302626Y-123657500D01*
X161302631Y-123657500D01*
X161835969Y-123657500D01*
X161835974Y-123657500D01*
X161934485Y-123647436D01*
X162094087Y-123594549D01*
X162204703Y-123526320D01*
X162272095Y-123507879D01*
X162338759Y-123528801D01*
X162383528Y-123582443D01*
X162393800Y-123631858D01*
X162393800Y-123810418D01*
X162393800Y-123810420D01*
X162393799Y-123810420D01*
X162422640Y-123955407D01*
X162422642Y-123955413D01*
X162467605Y-124063964D01*
X162479216Y-124091994D01*
X162479220Y-124092002D01*
X162480481Y-124093889D01*
X162480482Y-124093891D01*
X162561346Y-124214914D01*
X162561352Y-124214921D01*
X163136622Y-124790190D01*
X163170107Y-124851513D01*
X163170558Y-124853679D01*
X163179903Y-124900659D01*
X163179905Y-124900667D01*
X163247782Y-125064539D01*
X163247789Y-125064552D01*
X163346334Y-125212033D01*
X163346337Y-125212037D01*
X163390519Y-125256219D01*
X163424004Y-125317542D01*
X163419020Y-125387234D01*
X163377148Y-125443167D01*
X163311684Y-125467584D01*
X163302838Y-125467900D01*
X161112652Y-125467900D01*
X161045613Y-125448215D01*
X161024971Y-125431581D01*
X160359619Y-124766229D01*
X160326134Y-124704906D01*
X160323300Y-124678548D01*
X160323300Y-124625306D01*
X160323299Y-124625304D01*
X160288696Y-124451341D01*
X160288693Y-124451332D01*
X160220816Y-124287459D01*
X160220809Y-124287446D01*
X160122264Y-124139965D01*
X160122261Y-124139961D01*
X159996838Y-124014538D01*
X159996834Y-124014535D01*
X159849353Y-123915990D01*
X159849340Y-123915983D01*
X159685467Y-123848106D01*
X159685458Y-123848103D01*
X159511494Y-123813500D01*
X159511491Y-123813500D01*
X159334109Y-123813500D01*
X159334106Y-123813500D01*
X159160141Y-123848103D01*
X159160132Y-123848106D01*
X158996259Y-123915983D01*
X158996246Y-123915990D01*
X158848765Y-124014535D01*
X158848761Y-124014538D01*
X158723338Y-124139961D01*
X158723335Y-124139965D01*
X158624790Y-124287446D01*
X158624783Y-124287459D01*
X158556906Y-124451332D01*
X158556903Y-124451341D01*
X158522300Y-124625304D01*
X158522300Y-124802695D01*
X158556903Y-124976658D01*
X158556906Y-124976667D01*
X158624783Y-125140540D01*
X158624790Y-125140553D01*
X158723335Y-125288034D01*
X158723338Y-125288038D01*
X158848761Y-125413461D01*
X158848765Y-125413464D01*
X158996246Y-125512009D01*
X158996259Y-125512016D01*
X159101608Y-125555652D01*
X159160134Y-125579894D01*
X159160136Y-125579894D01*
X159160141Y-125579896D01*
X159334104Y-125614499D01*
X159334107Y-125614500D01*
X159334109Y-125614500D01*
X159387348Y-125614500D01*
X159454387Y-125634185D01*
X159475029Y-125650819D01*
X160313216Y-126489006D01*
X160313245Y-126489037D01*
X160403463Y-126579255D01*
X160403467Y-126579258D01*
X160505907Y-126647707D01*
X160505911Y-126647709D01*
X160505914Y-126647711D01*
X160619748Y-126694863D01*
X160680171Y-126706881D01*
X160740593Y-126718900D01*
X171012107Y-126718900D01*
X171072529Y-126706881D01*
X171132952Y-126694863D01*
X171166292Y-126681052D01*
X171246786Y-126647712D01*
X171298009Y-126613484D01*
X171349233Y-126579258D01*
X171436358Y-126492133D01*
X171436358Y-126492131D01*
X171446566Y-126481924D01*
X171446567Y-126481921D01*
X179156672Y-118771819D01*
X179217995Y-118738334D01*
X179244353Y-118735500D01*
X179557639Y-118735500D01*
X179624678Y-118755185D01*
X179670433Y-118807989D01*
X179680377Y-118877147D01*
X179675570Y-118897818D01*
X179617809Y-119075586D01*
X179609191Y-119130000D01*
X180570114Y-119130000D01*
X180565720Y-119134394D01*
X180513059Y-119225606D01*
X180485800Y-119327339D01*
X180485800Y-119432661D01*
X180513059Y-119534394D01*
X180565720Y-119625606D01*
X180570114Y-119630000D01*
X179609191Y-119630000D01*
X179617809Y-119684413D01*
X179681044Y-119879029D01*
X179773940Y-120061349D01*
X179894217Y-120226894D01*
X179894217Y-120226895D01*
X180038904Y-120371582D01*
X180204450Y-120491859D01*
X180386768Y-120584754D01*
X180581378Y-120647988D01*
X180635800Y-120656607D01*
X180635800Y-119695686D01*
X180640194Y-119700080D01*
X180731406Y-119752741D01*
X180833139Y-119780000D01*
X180938461Y-119780000D01*
X181040194Y-119752741D01*
X181131406Y-119700080D01*
X181135800Y-119695686D01*
X181135800Y-120656606D01*
X181190221Y-120647988D01*
X181384831Y-120584754D01*
X181567149Y-120491859D01*
X181732694Y-120371582D01*
X181732695Y-120371582D01*
X181877382Y-120226895D01*
X181877382Y-120226894D01*
X181997659Y-120061349D01*
X182090555Y-119879029D01*
X182153790Y-119684413D01*
X182162409Y-119630000D01*
X181201486Y-119630000D01*
X181205880Y-119625606D01*
X181258541Y-119534394D01*
X181285800Y-119432661D01*
X181285800Y-119327339D01*
X181258541Y-119225606D01*
X181205880Y-119134394D01*
X181201486Y-119130000D01*
X182162409Y-119130000D01*
X182153790Y-119075586D01*
X182096030Y-118897818D01*
X182094035Y-118827977D01*
X182130115Y-118768144D01*
X182192816Y-118737316D01*
X182193946Y-118737126D01*
X182203887Y-118735500D01*
X182217407Y-118735500D01*
X182277829Y-118723481D01*
X182338252Y-118711463D01*
X182338255Y-118711461D01*
X182338258Y-118711461D01*
X182371587Y-118697654D01*
X182371586Y-118697654D01*
X182371592Y-118697652D01*
X182452086Y-118664312D01*
X182503309Y-118630084D01*
X182554533Y-118595858D01*
X182641658Y-118508733D01*
X182641659Y-118508731D01*
X182648725Y-118501665D01*
X182648728Y-118501661D01*
X186993619Y-114156770D01*
X187054942Y-114123285D01*
X187124634Y-114128269D01*
X187180567Y-114170141D01*
X187204984Y-114235605D01*
X187205300Y-114244451D01*
X187205300Y-114402351D01*
X187237322Y-114604534D01*
X187300581Y-114799223D01*
X187393515Y-114981613D01*
X187513828Y-115147213D01*
X187658586Y-115291971D01*
X187755304Y-115362239D01*
X187824190Y-115412287D01*
X187890024Y-115445831D01*
X187916880Y-115459515D01*
X187967676Y-115507490D01*
X187984471Y-115575311D01*
X187961934Y-115641446D01*
X187916880Y-115680485D01*
X187824186Y-115727715D01*
X187658586Y-115848028D01*
X187513828Y-115992786D01*
X187393515Y-116158386D01*
X187300581Y-116340776D01*
X187237322Y-116535465D01*
X187205300Y-116737648D01*
X187205300Y-116942351D01*
X187237322Y-117144534D01*
X187300581Y-117339223D01*
X187364491Y-117464653D01*
X187386851Y-117508536D01*
X187393515Y-117521613D01*
X187513828Y-117687213D01*
X187658586Y-117831971D01*
X187778495Y-117919088D01*
X187824190Y-117952287D01*
X187890024Y-117985831D01*
X187917429Y-117999795D01*
X187968225Y-118047770D01*
X187985020Y-118115591D01*
X187962482Y-118181726D01*
X187917429Y-118220765D01*
X187824450Y-118268140D01*
X187658905Y-118388417D01*
X187658904Y-118388417D01*
X187514217Y-118533104D01*
X187514217Y-118533105D01*
X187393940Y-118698650D01*
X187301044Y-118880970D01*
X187237809Y-119075586D01*
X187229191Y-119130000D01*
X188190114Y-119130000D01*
X188185720Y-119134394D01*
X188133059Y-119225606D01*
X188105800Y-119327339D01*
X188105800Y-119432661D01*
X188133059Y-119534394D01*
X188185720Y-119625606D01*
X188190114Y-119630000D01*
X187229191Y-119630000D01*
X187237809Y-119684413D01*
X187301044Y-119879029D01*
X187393940Y-120061349D01*
X187514217Y-120226894D01*
X187514217Y-120226895D01*
X187658904Y-120371582D01*
X187824450Y-120491859D01*
X188006768Y-120584754D01*
X188201378Y-120647988D01*
X188255800Y-120656607D01*
X188255800Y-119695686D01*
X188260194Y-119700080D01*
X188351406Y-119752741D01*
X188453139Y-119780000D01*
X188558461Y-119780000D01*
X188660194Y-119752741D01*
X188751406Y-119700080D01*
X188755800Y-119695686D01*
X188755800Y-120656606D01*
X188810221Y-120647988D01*
X189004831Y-120584754D01*
X189187149Y-120491859D01*
X189352694Y-120371582D01*
X189352695Y-120371582D01*
X189497382Y-120226895D01*
X189497382Y-120226894D01*
X189617659Y-120061349D01*
X189710555Y-119879029D01*
X189773790Y-119684413D01*
X189782409Y-119630000D01*
X188821486Y-119630000D01*
X188825880Y-119625606D01*
X188878541Y-119534394D01*
X188905800Y-119432661D01*
X188905800Y-119327339D01*
X188878541Y-119225606D01*
X188825880Y-119134394D01*
X188821486Y-119130000D01*
X189782409Y-119130000D01*
X189773790Y-119075586D01*
X189710555Y-118880970D01*
X189617659Y-118698650D01*
X189497382Y-118533105D01*
X189497382Y-118533104D01*
X189352695Y-118388417D01*
X189187149Y-118268140D01*
X189094170Y-118220765D01*
X189043374Y-118172790D01*
X189026579Y-118104969D01*
X189049116Y-118038835D01*
X189094170Y-117999795D01*
X189118214Y-117987544D01*
X189187410Y-117952287D01*
X189233105Y-117919088D01*
X189353013Y-117831971D01*
X189353015Y-117831968D01*
X189353019Y-117831966D01*
X189497766Y-117687219D01*
X189497768Y-117687215D01*
X189497771Y-117687213D01*
X189580553Y-117573271D01*
X189618087Y-117521610D01*
X189711020Y-117339219D01*
X189774277Y-117144534D01*
X189806300Y-116942352D01*
X189806300Y-116737648D01*
X189793968Y-116659786D01*
X189774277Y-116535465D01*
X189711018Y-116340776D01*
X189657485Y-116235713D01*
X189618087Y-116158390D01*
X189593835Y-116125010D01*
X189497771Y-115992786D01*
X189353013Y-115848028D01*
X189187414Y-115727715D01*
X189123046Y-115694918D01*
X189094717Y-115680483D01*
X189043923Y-115632511D01*
X189027128Y-115564690D01*
X189049665Y-115498555D01*
X189094717Y-115459516D01*
X189187410Y-115412287D01*
X189256296Y-115362239D01*
X189353013Y-115291971D01*
X189353015Y-115291968D01*
X189353019Y-115291966D01*
X189497766Y-115147219D01*
X189497768Y-115147215D01*
X189497771Y-115147213D01*
X189597427Y-115010046D01*
X189618087Y-114981610D01*
X189711020Y-114799219D01*
X189774277Y-114604534D01*
X189806300Y-114402352D01*
X189806300Y-114197648D01*
X189794522Y-114123285D01*
X189774277Y-113995465D01*
X189711018Y-113800776D01*
X189648432Y-113677946D01*
X189618087Y-113618390D01*
X189574926Y-113558983D01*
X189497771Y-113452786D01*
X189353013Y-113308028D01*
X189187414Y-113187715D01*
X189150303Y-113168806D01*
X189094717Y-113140483D01*
X189043923Y-113092511D01*
X189027128Y-113024690D01*
X189049665Y-112958555D01*
X189094717Y-112919516D01*
X189187410Y-112872287D01*
X189208570Y-112856913D01*
X189353013Y-112751971D01*
X189353015Y-112751968D01*
X189353019Y-112751966D01*
X189497766Y-112607219D01*
X189497768Y-112607215D01*
X189497771Y-112607213D01*
X189574102Y-112502150D01*
X189618087Y-112441610D01*
X189711020Y-112259219D01*
X189774277Y-112064534D01*
X189806300Y-111862352D01*
X189806300Y-111657648D01*
X189774277Y-111455466D01*
X189711020Y-111260781D01*
X189711018Y-111260778D01*
X189711018Y-111260776D01*
X189657486Y-111155715D01*
X189618087Y-111078390D01*
X189605097Y-111060511D01*
X189497771Y-110912786D01*
X189353013Y-110768028D01*
X189187414Y-110647715D01*
X189150564Y-110628939D01*
X189094717Y-110600483D01*
X189043923Y-110552511D01*
X189027128Y-110484690D01*
X189049665Y-110418555D01*
X189094717Y-110379516D01*
X189187410Y-110332287D01*
X189229719Y-110301548D01*
X189353013Y-110211971D01*
X189353015Y-110211968D01*
X189353019Y-110211966D01*
X189497766Y-110067219D01*
X189497768Y-110067215D01*
X189497771Y-110067213D01*
X189574102Y-109962150D01*
X189618087Y-109901610D01*
X189711020Y-109719219D01*
X189774277Y-109524534D01*
X189806300Y-109322352D01*
X189806300Y-109117648D01*
X189792946Y-109033334D01*
X189774277Y-108915465D01*
X189715976Y-108736034D01*
X189711020Y-108720781D01*
X189711018Y-108720778D01*
X189711018Y-108720776D01*
X189676183Y-108652409D01*
X189618087Y-108538390D01*
X189606997Y-108523126D01*
X189497771Y-108372786D01*
X189353013Y-108228028D01*
X189187414Y-108107715D01*
X189163405Y-108095482D01*
X189094717Y-108060483D01*
X189043923Y-108012511D01*
X189027128Y-107944690D01*
X189049665Y-107878555D01*
X189094717Y-107839516D01*
X189187410Y-107792287D01*
X189239052Y-107754767D01*
X189353013Y-107671971D01*
X189353015Y-107671968D01*
X189353019Y-107671966D01*
X189497766Y-107527219D01*
X189497768Y-107527215D01*
X189497771Y-107527213D01*
X189599858Y-107386700D01*
X189618087Y-107361610D01*
X189711020Y-107179219D01*
X189774277Y-106984534D01*
X189806300Y-106782352D01*
X189806300Y-106577648D01*
X189794879Y-106505539D01*
X189774277Y-106375465D01*
X189720080Y-106208666D01*
X189711020Y-106180781D01*
X189711018Y-106180778D01*
X189711018Y-106180776D01*
X189655227Y-106071281D01*
X189618087Y-105998390D01*
X189610356Y-105987749D01*
X189497771Y-105832786D01*
X189353013Y-105688028D01*
X189187414Y-105567715D01*
X189170663Y-105559180D01*
X189094717Y-105520483D01*
X189043923Y-105472511D01*
X189027128Y-105404690D01*
X189049665Y-105338555D01*
X189094717Y-105299516D01*
X189187410Y-105252287D01*
X189208570Y-105236913D01*
X189353013Y-105131971D01*
X189353015Y-105131968D01*
X189353019Y-105131966D01*
X189497766Y-104987219D01*
X189497768Y-104987215D01*
X189497771Y-104987213D01*
X189566359Y-104892808D01*
X189618087Y-104821610D01*
X189711020Y-104639219D01*
X189774277Y-104444534D01*
X189806300Y-104242352D01*
X189806300Y-104037648D01*
X189778986Y-103865194D01*
X189774277Y-103835465D01*
X189715974Y-103656028D01*
X189711020Y-103640781D01*
X189711018Y-103640778D01*
X189711018Y-103640776D01*
X189673594Y-103567328D01*
X189618087Y-103458390D01*
X189594448Y-103425853D01*
X189497771Y-103292786D01*
X189353013Y-103148028D01*
X189187414Y-103027715D01*
X189149702Y-103008500D01*
X189094717Y-102980483D01*
X189043923Y-102932511D01*
X189027128Y-102864690D01*
X189049665Y-102798555D01*
X189094717Y-102759516D01*
X189187410Y-102712287D01*
X189302266Y-102628840D01*
X189353013Y-102591971D01*
X189353015Y-102591968D01*
X189353019Y-102591966D01*
X189497766Y-102447219D01*
X189497768Y-102447215D01*
X189497771Y-102447213D01*
X189604438Y-102300396D01*
X189618087Y-102281610D01*
X189711020Y-102099219D01*
X189774277Y-101904534D01*
X189806300Y-101702352D01*
X189806300Y-101497648D01*
X189795013Y-101426388D01*
X189774277Y-101295465D01*
X189739267Y-101187717D01*
X189711020Y-101100781D01*
X189711018Y-101100778D01*
X189711018Y-101100776D01*
X189658924Y-100998537D01*
X189618087Y-100918390D01*
X189601906Y-100896119D01*
X189497771Y-100752786D01*
X189353013Y-100608028D01*
X189187414Y-100487715D01*
X189176262Y-100482033D01*
X189094717Y-100440483D01*
X189043923Y-100392511D01*
X189027128Y-100324690D01*
X189049665Y-100258555D01*
X189094717Y-100219516D01*
X189187410Y-100172287D01*
X189208570Y-100156913D01*
X189353013Y-100051971D01*
X189353015Y-100051968D01*
X189353019Y-100051966D01*
X189497766Y-99907219D01*
X189497768Y-99907215D01*
X189497771Y-99907213D01*
X189579116Y-99795249D01*
X189618087Y-99741610D01*
X189711020Y-99559219D01*
X189774277Y-99364534D01*
X189806300Y-99162352D01*
X189806300Y-98957648D01*
X189795013Y-98886386D01*
X189774277Y-98755465D01*
X189721647Y-98593487D01*
X189711020Y-98560781D01*
X189711018Y-98560778D01*
X189711018Y-98560776D01*
X189656718Y-98454208D01*
X189618087Y-98378390D01*
X189587108Y-98335751D01*
X189497771Y-98212786D01*
X189353013Y-98068028D01*
X189187414Y-97947715D01*
X189171383Y-97939547D01*
X189094717Y-97900483D01*
X189043923Y-97852511D01*
X189027128Y-97784690D01*
X189049665Y-97718555D01*
X189094717Y-97679516D01*
X189187410Y-97632287D01*
X189250160Y-97586697D01*
X189353013Y-97511971D01*
X189353015Y-97511968D01*
X189353019Y-97511966D01*
X189497766Y-97367219D01*
X189497768Y-97367215D01*
X189497771Y-97367213D01*
X189568331Y-97270094D01*
X189618087Y-97201610D01*
X189711020Y-97019219D01*
X189774277Y-96824534D01*
X189806300Y-96622352D01*
X189806300Y-96417648D01*
X189792283Y-96329147D01*
X189774277Y-96215465D01*
X189726288Y-96067771D01*
X189711020Y-96020781D01*
X189711018Y-96020778D01*
X189711018Y-96020776D01*
X189618087Y-95838390D01*
X189496181Y-95670599D01*
X189472702Y-95604792D01*
X189472500Y-95597714D01*
X189472500Y-93909629D01*
X189490962Y-93844531D01*
X189532801Y-93776700D01*
X189532800Y-93776700D01*
X189532803Y-93776697D01*
X189586149Y-93615708D01*
X189596300Y-93516345D01*
X189596299Y-92919656D01*
X189586149Y-92820292D01*
X189532803Y-92659303D01*
X189532799Y-92659297D01*
X189532798Y-92659294D01*
X189443770Y-92514959D01*
X189443767Y-92514955D01*
X189431454Y-92502642D01*
X189422379Y-92486022D01*
X189409235Y-92472389D01*
X189402389Y-92449413D01*
X189397969Y-92441319D01*
X189397507Y-92439101D01*
X189396300Y-92433019D01*
X189396300Y-92432882D01*
X189384696Y-92374547D01*
X189383818Y-92370135D01*
X189376717Y-92334436D01*
X189367459Y-92287888D01*
X189317349Y-92166913D01*
X189310884Y-92151305D01*
X189228751Y-92028384D01*
X189124216Y-91923849D01*
X189046015Y-91845648D01*
X188565421Y-91365052D01*
X188565420Y-91365051D01*
X188473301Y-91303500D01*
X188442495Y-91282916D01*
X188442488Y-91282912D01*
X188305917Y-91226343D01*
X188305907Y-91226340D01*
X188160920Y-91197500D01*
X188160918Y-91197500D01*
X169311218Y-91197500D01*
X169244179Y-91177815D01*
X169210900Y-91146385D01*
X169177771Y-91100787D01*
X169177767Y-91100782D01*
X169033013Y-90956028D01*
X168867413Y-90835715D01*
X168867412Y-90835714D01*
X168867410Y-90835713D01*
X168800267Y-90801502D01*
X168685023Y-90742781D01*
X168490334Y-90679522D01*
X168315795Y-90651878D01*
X168288152Y-90647500D01*
X168083448Y-90647500D01*
X168059129Y-90651351D01*
X167881265Y-90679522D01*
X167686576Y-90742781D01*
X167504186Y-90835715D01*
X167338586Y-90956028D01*
X167193828Y-91100786D01*
X167073515Y-91266386D01*
X166980581Y-91448776D01*
X166917322Y-91643465D01*
X166885300Y-91845648D01*
X166885300Y-92050351D01*
X166917323Y-92252535D01*
X166917323Y-92252538D01*
X166945028Y-92337804D01*
X166947023Y-92407645D01*
X166910942Y-92467478D01*
X166848241Y-92498306D01*
X166827097Y-92500122D01*
X162055254Y-92500122D01*
X161988215Y-92480437D01*
X161967573Y-92463803D01*
X158139933Y-88636163D01*
X158132040Y-88628270D01*
X158132038Y-88628267D01*
X158044913Y-88541142D01*
X157993689Y-88506915D01*
X157966314Y-88488623D01*
X157960862Y-88483990D01*
X157945463Y-88460528D01*
X157927463Y-88438990D01*
X157926548Y-88431709D01*
X157922524Y-88425578D01*
X157922253Y-88397513D01*
X157918756Y-88369665D01*
X157921921Y-88363048D01*
X157921851Y-88355712D01*
X157936797Y-88331955D01*
X157948910Y-88306638D01*
X157955151Y-88302782D01*
X157959058Y-88296573D01*
X157984473Y-88284669D01*
X158008353Y-88269918D01*
X158019041Y-88268478D01*
X158022331Y-88266938D01*
X158026416Y-88267485D01*
X158041159Y-88265500D01*
X190248500Y-88265500D01*
X190315539Y-88285185D01*
G37*
%TD.AperFunction*%
%TA.AperFunction,Conductor*%
G36*
X178893787Y-109241885D02*
G01*
X178914429Y-109258519D01*
X179271516Y-109615606D01*
X179271545Y-109615637D01*
X179361763Y-109705855D01*
X179361767Y-109705858D01*
X179464207Y-109774307D01*
X179464213Y-109774310D01*
X179464214Y-109774311D01*
X179578048Y-109821463D01*
X179638471Y-109833481D01*
X179691519Y-109844033D01*
X179753430Y-109876419D01*
X179770549Y-109897741D01*
X179770649Y-109897669D01*
X179772156Y-109899743D01*
X179773055Y-109900863D01*
X179773515Y-109901614D01*
X179893828Y-110067213D01*
X180038586Y-110211971D01*
X180161881Y-110301548D01*
X180204190Y-110332287D01*
X180284457Y-110373185D01*
X180296880Y-110379515D01*
X180347676Y-110427490D01*
X180364471Y-110495311D01*
X180341934Y-110561446D01*
X180296880Y-110600485D01*
X180204186Y-110647715D01*
X180038586Y-110768028D01*
X179893828Y-110912786D01*
X179773515Y-111078386D01*
X179680581Y-111260776D01*
X179617322Y-111455465D01*
X179585300Y-111657648D01*
X179585300Y-111862351D01*
X179617322Y-112064534D01*
X179680581Y-112259223D01*
X179773515Y-112441613D01*
X179893828Y-112607213D01*
X180038586Y-112751971D01*
X180187964Y-112860498D01*
X180204190Y-112872287D01*
X180270024Y-112905831D01*
X180297429Y-112919795D01*
X180348225Y-112967770D01*
X180365020Y-113035591D01*
X180342482Y-113101726D01*
X180297429Y-113140765D01*
X180204450Y-113188140D01*
X180038905Y-113308417D01*
X180038904Y-113308417D01*
X179894217Y-113453104D01*
X179894217Y-113453105D01*
X179773940Y-113618650D01*
X179681044Y-113800970D01*
X179617809Y-113995586D01*
X179609191Y-114050000D01*
X180570114Y-114050000D01*
X180565720Y-114054394D01*
X180513059Y-114145606D01*
X180485800Y-114247339D01*
X180485800Y-114352661D01*
X180513059Y-114454394D01*
X180565720Y-114545606D01*
X180570114Y-114550000D01*
X179609191Y-114550000D01*
X179617809Y-114604413D01*
X179681044Y-114799029D01*
X179773940Y-114981349D01*
X179894217Y-115146894D01*
X179894217Y-115146895D01*
X180038904Y-115291582D01*
X180204450Y-115411859D01*
X180297979Y-115459515D01*
X180348775Y-115507490D01*
X180365570Y-115575311D01*
X180343032Y-115641446D01*
X180297979Y-115680485D01*
X180204450Y-115728140D01*
X180038905Y-115848417D01*
X180038904Y-115848417D01*
X179894217Y-115993104D01*
X179894217Y-115993105D01*
X179773940Y-116158650D01*
X179681044Y-116340970D01*
X179617809Y-116535586D01*
X179609191Y-116590000D01*
X180570114Y-116590000D01*
X180565720Y-116594394D01*
X180513059Y-116685606D01*
X180485800Y-116787339D01*
X180485800Y-116892661D01*
X180513059Y-116994394D01*
X180565720Y-117085606D01*
X180570114Y-117090000D01*
X179609191Y-117090000D01*
X179617809Y-117144413D01*
X179675570Y-117322182D01*
X179677565Y-117392023D01*
X179641485Y-117451856D01*
X179578784Y-117482684D01*
X179557639Y-117484500D01*
X179001641Y-117484500D01*
X179001621Y-117484499D01*
X178995507Y-117484499D01*
X178872294Y-117484499D01*
X178771497Y-117504548D01*
X178771492Y-117504548D01*
X178751449Y-117508536D01*
X178751447Y-117508536D01*
X178704297Y-117528067D01*
X178637619Y-117555685D01*
X178637617Y-117555686D01*
X178535166Y-117624141D01*
X178535163Y-117624144D01*
X170727729Y-125431581D01*
X170666406Y-125465066D01*
X170640048Y-125467900D01*
X169561471Y-125467900D01*
X169494432Y-125448215D01*
X169448677Y-125395411D01*
X169438733Y-125326253D01*
X169443540Y-125305583D01*
X169454275Y-125272542D01*
X169454275Y-125272538D01*
X169454277Y-125272534D01*
X169486300Y-125070352D01*
X169486300Y-124865648D01*
X169464801Y-124729910D01*
X169454277Y-124663465D01*
X169397227Y-124487885D01*
X169391020Y-124468781D01*
X169391018Y-124468778D01*
X169391018Y-124468776D01*
X169337012Y-124362785D01*
X169298087Y-124286390D01*
X169273328Y-124252312D01*
X169177771Y-124120786D01*
X169033013Y-123976028D01*
X168867414Y-123855715D01*
X168852480Y-123848106D01*
X168774717Y-123808483D01*
X168723923Y-123760511D01*
X168707128Y-123692690D01*
X168729665Y-123626555D01*
X168774717Y-123587516D01*
X168867410Y-123540287D01*
X168914217Y-123506280D01*
X169033013Y-123419971D01*
X169033015Y-123419968D01*
X169033019Y-123419966D01*
X169177766Y-123275219D01*
X169177768Y-123275215D01*
X169177771Y-123275213D01*
X169231326Y-123201499D01*
X169298087Y-123109610D01*
X169391020Y-122927219D01*
X169454277Y-122732534D01*
X169486300Y-122530352D01*
X169486300Y-122325648D01*
X169454277Y-122123466D01*
X169454276Y-122123464D01*
X169410099Y-121987500D01*
X169391020Y-121928781D01*
X169391018Y-121928778D01*
X169391018Y-121928776D01*
X169354812Y-121857719D01*
X169298087Y-121746390D01*
X169284442Y-121727609D01*
X169177771Y-121580786D01*
X169033013Y-121436028D01*
X168867414Y-121315715D01*
X168827991Y-121295628D01*
X168774717Y-121268483D01*
X168723923Y-121220511D01*
X168707128Y-121152690D01*
X168729665Y-121086555D01*
X168774717Y-121047516D01*
X168867410Y-121000287D01*
X168966699Y-120928150D01*
X169033013Y-120879971D01*
X169033015Y-120879968D01*
X169033019Y-120879966D01*
X169177766Y-120735219D01*
X169177768Y-120735215D01*
X169177771Y-120735213D01*
X169234881Y-120656606D01*
X169298087Y-120569610D01*
X169391020Y-120387219D01*
X169454277Y-120192534D01*
X169486300Y-119990352D01*
X169486300Y-119785648D01*
X169478483Y-119736294D01*
X169454277Y-119583465D01*
X169391018Y-119388776D01*
X169335183Y-119279195D01*
X169298087Y-119206390D01*
X169285445Y-119188989D01*
X169177771Y-119040786D01*
X169033013Y-118896028D01*
X168867414Y-118775715D01*
X168852555Y-118768144D01*
X168774717Y-118728483D01*
X168723923Y-118680511D01*
X168707128Y-118612690D01*
X168729665Y-118546555D01*
X168774717Y-118507516D01*
X168867410Y-118460287D01*
X168888570Y-118444913D01*
X169033013Y-118339971D01*
X169033015Y-118339968D01*
X169033019Y-118339966D01*
X169177766Y-118195219D01*
X169177768Y-118195215D01*
X169177771Y-118195213D01*
X169243336Y-118104969D01*
X169298087Y-118029610D01*
X169391020Y-117847219D01*
X169454277Y-117652534D01*
X169486300Y-117450352D01*
X169486300Y-117245648D01*
X169462141Y-117093116D01*
X169454277Y-117043465D01*
X169404052Y-116888889D01*
X169391020Y-116848781D01*
X169391018Y-116848778D01*
X169391018Y-116848776D01*
X169346923Y-116762236D01*
X169298087Y-116666390D01*
X169274679Y-116634171D01*
X169177771Y-116500786D01*
X169033013Y-116356028D01*
X168867414Y-116235715D01*
X168843929Y-116223749D01*
X168774717Y-116188483D01*
X168723923Y-116140511D01*
X168707128Y-116072690D01*
X168729665Y-116006555D01*
X168774717Y-115967516D01*
X168867410Y-115920287D01*
X168888570Y-115904913D01*
X169033013Y-115799971D01*
X169033015Y-115799968D01*
X169033019Y-115799966D01*
X169177766Y-115655219D01*
X169177768Y-115655215D01*
X169177771Y-115655213D01*
X169243023Y-115565400D01*
X169298087Y-115489610D01*
X169391020Y-115307219D01*
X169454277Y-115112534D01*
X169486300Y-114910352D01*
X169486300Y-114705648D01*
X169470266Y-114604413D01*
X169458850Y-114532335D01*
X169456860Y-114519779D01*
X169454277Y-114503466D01*
X169391020Y-114308781D01*
X169391018Y-114308778D01*
X169391018Y-114308776D01*
X169338841Y-114206375D01*
X169298087Y-114126390D01*
X169283540Y-114106368D01*
X169177771Y-113960786D01*
X169033013Y-113816028D01*
X168867414Y-113695715D01*
X168832540Y-113677946D01*
X168774717Y-113648483D01*
X168723923Y-113600511D01*
X168707128Y-113532690D01*
X168729665Y-113466555D01*
X168774717Y-113427516D01*
X168867410Y-113380287D01*
X168929418Y-113335236D01*
X169033013Y-113259971D01*
X169033015Y-113259968D01*
X169033019Y-113259966D01*
X169177766Y-113115219D01*
X169177768Y-113115215D01*
X169177771Y-113115213D01*
X169243336Y-113024969D01*
X169298087Y-112949610D01*
X169391020Y-112767219D01*
X169454277Y-112572534D01*
X169486300Y-112370352D01*
X169486300Y-112165648D01*
X169459892Y-111998914D01*
X169454277Y-111963465D01*
X169417154Y-111849213D01*
X169391020Y-111768781D01*
X169391018Y-111768778D01*
X169391018Y-111768776D01*
X169347550Y-111683467D01*
X169298087Y-111586390D01*
X169290356Y-111575749D01*
X169177771Y-111420786D01*
X169033013Y-111276028D01*
X168867413Y-111155714D01*
X168856603Y-111150206D01*
X168836927Y-111131621D01*
X168814978Y-111115794D01*
X168811906Y-111107988D01*
X168805809Y-111102229D01*
X168799304Y-111075957D01*
X168789396Y-111050776D01*
X168790049Y-111038581D01*
X168789016Y-111034408D01*
X168791282Y-111015541D01*
X168809833Y-110922280D01*
X168842217Y-110860371D01*
X168863541Y-110843250D01*
X168863468Y-110843150D01*
X168865563Y-110841627D01*
X168866669Y-110840740D01*
X168867390Y-110840296D01*
X168867410Y-110840287D01*
X169033019Y-110719966D01*
X169177766Y-110575219D01*
X169177768Y-110575215D01*
X169177771Y-110575213D01*
X169240787Y-110488477D01*
X169298087Y-110409610D01*
X169391020Y-110227219D01*
X169454277Y-110032534D01*
X169486300Y-109830352D01*
X169486300Y-109625648D01*
X169454277Y-109423466D01*
X169454275Y-109423462D01*
X169454275Y-109423457D01*
X169441623Y-109384517D01*
X169439628Y-109314676D01*
X169475709Y-109254844D01*
X169538410Y-109224016D01*
X169559554Y-109222200D01*
X178826748Y-109222200D01*
X178893787Y-109241885D01*
G37*
%TD.AperFunction*%
%TA.AperFunction,Conductor*%
G36*
X166040287Y-119684885D02*
G01*
X166060928Y-119701518D01*
X166646141Y-120286732D01*
X166646142Y-120286733D01*
X166729591Y-120370182D01*
X166733268Y-120373859D01*
X166835707Y-120442307D01*
X166835713Y-120442310D01*
X166835714Y-120442311D01*
X166949548Y-120489463D01*
X166983061Y-120496128D01*
X167044972Y-120528512D01*
X167069354Y-120561448D01*
X167073510Y-120569605D01*
X167073520Y-120569620D01*
X167193828Y-120735213D01*
X167338586Y-120879971D01*
X167493549Y-120992556D01*
X167504190Y-121000287D01*
X167586027Y-121041985D01*
X167596880Y-121047515D01*
X167647676Y-121095490D01*
X167664471Y-121163311D01*
X167641934Y-121229446D01*
X167596880Y-121268485D01*
X167504186Y-121315715D01*
X167338586Y-121436028D01*
X167193828Y-121580786D01*
X167070649Y-121750331D01*
X167068976Y-121749115D01*
X167023592Y-121790169D01*
X166969685Y-121802500D01*
X166653555Y-121802500D01*
X166586516Y-121782815D01*
X166565874Y-121766181D01*
X165074819Y-120275126D01*
X165041334Y-120213803D01*
X165038500Y-120187445D01*
X165038500Y-119789200D01*
X165058185Y-119722161D01*
X165110989Y-119676406D01*
X165162500Y-119665200D01*
X165973248Y-119665200D01*
X166040287Y-119684885D01*
G37*
%TD.AperFunction*%
%TA.AperFunction,Conductor*%
G36*
X181078839Y-118755185D02*
G01*
X181124594Y-118807989D01*
X181135800Y-118859500D01*
X181135800Y-119064314D01*
X181131406Y-119059920D01*
X181040194Y-119007259D01*
X180938461Y-118980000D01*
X180833139Y-118980000D01*
X180731406Y-119007259D01*
X180640194Y-119059920D01*
X180635800Y-119064314D01*
X180635800Y-118859500D01*
X180655485Y-118792461D01*
X180708289Y-118746706D01*
X180759800Y-118735500D01*
X181011800Y-118735500D01*
X181078839Y-118755185D01*
G37*
%TD.AperFunction*%
%TA.AperFunction,Conductor*%
G36*
X181135800Y-117360500D02*
G01*
X181116115Y-117427539D01*
X181063311Y-117473294D01*
X181011800Y-117484500D01*
X180759800Y-117484500D01*
X180692761Y-117464815D01*
X180647006Y-117412011D01*
X180635800Y-117360500D01*
X180635800Y-117155686D01*
X180640194Y-117160080D01*
X180731406Y-117212741D01*
X180833139Y-117240000D01*
X180938461Y-117240000D01*
X181040194Y-117212741D01*
X181131406Y-117160080D01*
X181135800Y-117155686D01*
X181135800Y-117360500D01*
G37*
%TD.AperFunction*%
%TA.AperFunction,Conductor*%
G36*
X186098122Y-92718185D02*
G01*
X186143877Y-92770989D01*
X186154441Y-92835103D01*
X186145800Y-92919677D01*
X186145800Y-92968000D01*
X186971800Y-92968000D01*
X187038839Y-92987685D01*
X187084594Y-93040489D01*
X187095800Y-93092000D01*
X187095800Y-93218000D01*
X187221800Y-93218000D01*
X187288839Y-93237685D01*
X187334594Y-93290489D01*
X187345800Y-93342000D01*
X187345800Y-94192999D01*
X187369108Y-94192999D01*
X187369122Y-94192998D01*
X187468407Y-94182855D01*
X187629281Y-94129547D01*
X187629292Y-94129542D01*
X187779679Y-94036782D01*
X187780889Y-94038744D01*
X187835383Y-94016759D01*
X187904025Y-94029799D01*
X187954721Y-94077879D01*
X187971500Y-94140166D01*
X187971500Y-95256666D01*
X187951815Y-95323705D01*
X187903796Y-95367150D01*
X187824188Y-95407713D01*
X187658586Y-95528028D01*
X187513828Y-95672786D01*
X187393515Y-95838386D01*
X187300581Y-96020776D01*
X187237322Y-96215465D01*
X187207749Y-96402184D01*
X187205300Y-96417648D01*
X187205300Y-96622352D01*
X187206395Y-96629267D01*
X187237322Y-96824534D01*
X187300581Y-97019223D01*
X187349845Y-97115907D01*
X187387194Y-97189209D01*
X187393515Y-97201613D01*
X187513828Y-97367213D01*
X187658586Y-97511971D01*
X187813549Y-97624556D01*
X187824190Y-97632287D01*
X187890024Y-97665831D01*
X187916880Y-97679515D01*
X187967676Y-97727490D01*
X187984471Y-97795311D01*
X187961934Y-97861446D01*
X187916880Y-97900485D01*
X187824186Y-97947715D01*
X187658586Y-98068028D01*
X187513828Y-98212786D01*
X187393515Y-98378386D01*
X187300581Y-98560776D01*
X187237322Y-98755465D01*
X187205300Y-98957648D01*
X187205300Y-99162351D01*
X187237322Y-99364534D01*
X187300581Y-99559223D01*
X187393515Y-99741613D01*
X187513828Y-99907213D01*
X187658586Y-100051971D01*
X187813549Y-100164556D01*
X187824190Y-100172287D01*
X187904457Y-100213185D01*
X187916880Y-100219515D01*
X187967676Y-100267490D01*
X187984471Y-100335311D01*
X187961934Y-100401446D01*
X187916880Y-100440485D01*
X187824186Y-100487715D01*
X187658586Y-100608028D01*
X187513828Y-100752786D01*
X187393515Y-100918386D01*
X187300581Y-101100776D01*
X187237322Y-101295465D01*
X187205300Y-101497646D01*
X187205300Y-101702351D01*
X187237322Y-101904534D01*
X187300581Y-102099223D01*
X187348980Y-102194209D01*
X187390581Y-102275856D01*
X187393515Y-102281613D01*
X187513828Y-102447213D01*
X187658586Y-102591971D01*
X187769361Y-102672452D01*
X187824190Y-102712287D01*
X187903191Y-102752540D01*
X187916880Y-102759515D01*
X187967676Y-102807490D01*
X187984471Y-102875311D01*
X187961934Y-102941446D01*
X187916880Y-102980485D01*
X187824186Y-103027715D01*
X187658586Y-103148028D01*
X187513828Y-103292786D01*
X187393515Y-103458386D01*
X187300581Y-103640776D01*
X187237322Y-103835465D01*
X187205300Y-104037648D01*
X187205300Y-104242351D01*
X187237322Y-104444534D01*
X187300581Y-104639223D01*
X187358391Y-104752679D01*
X187374604Y-104784500D01*
X187393515Y-104821613D01*
X187513828Y-104987213D01*
X187658586Y-105131971D01*
X187813549Y-105244556D01*
X187824190Y-105252287D01*
X187915640Y-105298883D01*
X187916880Y-105299515D01*
X187967676Y-105347490D01*
X187984471Y-105415311D01*
X187961934Y-105481446D01*
X187916880Y-105520485D01*
X187824186Y-105567715D01*
X187658586Y-105688028D01*
X187513828Y-105832786D01*
X187393515Y-105998386D01*
X187300581Y-106180776D01*
X187237322Y-106375465D01*
X187205300Y-106577648D01*
X187205300Y-106782351D01*
X187237322Y-106984534D01*
X187300581Y-107179223D01*
X187393515Y-107361613D01*
X187513828Y-107527213D01*
X187658586Y-107671971D01*
X187806155Y-107779184D01*
X187824190Y-107792287D01*
X187897329Y-107829553D01*
X187916880Y-107839515D01*
X187967676Y-107887490D01*
X187984471Y-107955311D01*
X187961934Y-108021446D01*
X187916880Y-108060485D01*
X187824186Y-108107715D01*
X187658586Y-108228028D01*
X187513828Y-108372786D01*
X187393515Y-108538386D01*
X187300581Y-108720776D01*
X187237322Y-108915465D01*
X187205300Y-109117648D01*
X187205300Y-109322351D01*
X187237322Y-109524534D01*
X187300581Y-109719223D01*
X187355479Y-109826965D01*
X187393132Y-109900863D01*
X187393515Y-109901613D01*
X187513828Y-110067213D01*
X187658586Y-110211971D01*
X187781881Y-110301548D01*
X187824190Y-110332287D01*
X187904457Y-110373185D01*
X187916880Y-110379515D01*
X187967676Y-110427490D01*
X187984471Y-110495311D01*
X187961934Y-110561446D01*
X187916880Y-110600485D01*
X187824186Y-110647715D01*
X187658586Y-110768028D01*
X187513828Y-110912786D01*
X187393515Y-111078386D01*
X187300581Y-111260776D01*
X187237322Y-111455465D01*
X187205300Y-111657648D01*
X187205300Y-111862351D01*
X187238085Y-112069346D01*
X187236052Y-112069667D01*
X187232965Y-112130834D01*
X187203581Y-112177627D01*
X182316593Y-117064615D01*
X182255270Y-117098100D01*
X182185578Y-117093116D01*
X182181124Y-117090000D01*
X181201486Y-117090000D01*
X181205880Y-117085606D01*
X181258541Y-116994394D01*
X181285800Y-116892661D01*
X181285800Y-116787339D01*
X181258541Y-116685606D01*
X181205880Y-116594394D01*
X181201486Y-116590000D01*
X182162409Y-116590000D01*
X182153790Y-116535586D01*
X182090555Y-116340970D01*
X181997659Y-116158650D01*
X181877382Y-115993105D01*
X181877382Y-115993104D01*
X181732695Y-115848417D01*
X181567149Y-115728140D01*
X181473620Y-115680485D01*
X181422824Y-115632511D01*
X181406029Y-115564690D01*
X181428566Y-115498555D01*
X181473620Y-115459515D01*
X181567149Y-115411859D01*
X181732694Y-115291582D01*
X181732695Y-115291582D01*
X181877382Y-115146895D01*
X181877382Y-115146894D01*
X181997659Y-114981349D01*
X182090555Y-114799029D01*
X182153790Y-114604413D01*
X182162409Y-114550000D01*
X181201486Y-114550000D01*
X181205880Y-114545606D01*
X181258541Y-114454394D01*
X181285800Y-114352661D01*
X181285800Y-114247339D01*
X181258541Y-114145606D01*
X181205880Y-114054394D01*
X181201486Y-114050000D01*
X182162409Y-114050000D01*
X182153790Y-113995586D01*
X182090555Y-113800970D01*
X181997659Y-113618650D01*
X181877382Y-113453105D01*
X181877382Y-113453104D01*
X181732695Y-113308417D01*
X181567149Y-113188140D01*
X181474170Y-113140765D01*
X181423374Y-113092790D01*
X181406579Y-113024969D01*
X181429116Y-112958835D01*
X181474170Y-112919795D01*
X181487143Y-112913185D01*
X181567410Y-112872287D01*
X181588570Y-112856913D01*
X181733013Y-112751971D01*
X181733015Y-112751968D01*
X181733019Y-112751966D01*
X181877766Y-112607219D01*
X181877768Y-112607215D01*
X181877771Y-112607213D01*
X181954102Y-112502150D01*
X181998087Y-112441610D01*
X182091020Y-112259219D01*
X182154277Y-112064534D01*
X182186300Y-111862352D01*
X182186300Y-111657648D01*
X182154277Y-111455466D01*
X182091020Y-111260781D01*
X182091018Y-111260778D01*
X182091018Y-111260776D01*
X182037486Y-111155715D01*
X181998087Y-111078390D01*
X181985097Y-111060511D01*
X181877771Y-110912786D01*
X181733013Y-110768028D01*
X181567414Y-110647715D01*
X181530564Y-110628939D01*
X181474717Y-110600483D01*
X181423923Y-110552511D01*
X181407128Y-110484690D01*
X181429665Y-110418555D01*
X181474717Y-110379516D01*
X181567410Y-110332287D01*
X181609719Y-110301548D01*
X181733013Y-110211971D01*
X181733015Y-110211968D01*
X181733019Y-110211966D01*
X181877766Y-110067219D01*
X181877768Y-110067215D01*
X181877771Y-110067213D01*
X181954102Y-109962150D01*
X181998087Y-109901610D01*
X182091020Y-109719219D01*
X182154277Y-109524534D01*
X182186300Y-109322352D01*
X182186300Y-109117648D01*
X182172946Y-109033334D01*
X182154277Y-108915465D01*
X182095976Y-108736034D01*
X182091020Y-108720781D01*
X182091018Y-108720778D01*
X182091018Y-108720776D01*
X182056183Y-108652409D01*
X181998087Y-108538390D01*
X181986997Y-108523126D01*
X181877771Y-108372786D01*
X181733013Y-108228028D01*
X181567414Y-108107715D01*
X181543405Y-108095482D01*
X181474717Y-108060483D01*
X181423923Y-108012511D01*
X181407128Y-107944690D01*
X181429665Y-107878555D01*
X181474717Y-107839516D01*
X181567410Y-107792287D01*
X181619052Y-107754767D01*
X181733013Y-107671971D01*
X181733015Y-107671968D01*
X181733019Y-107671966D01*
X181877766Y-107527219D01*
X181877768Y-107527215D01*
X181877771Y-107527213D01*
X181979858Y-107386700D01*
X181998087Y-107361610D01*
X182091020Y-107179219D01*
X182154277Y-106984534D01*
X182186300Y-106782352D01*
X182186300Y-106577648D01*
X182174879Y-106505539D01*
X182154277Y-106375465D01*
X182100080Y-106208666D01*
X182091020Y-106180781D01*
X182091018Y-106180778D01*
X182091018Y-106180776D01*
X182072915Y-106145248D01*
X182071859Y-106139628D01*
X182068322Y-106135138D01*
X182065483Y-106105674D01*
X182060019Y-106076579D01*
X182062169Y-106071281D01*
X182061621Y-106065591D01*
X182075161Y-106039269D01*
X182086295Y-106011839D01*
X182091651Y-106007215D01*
X182093583Y-106003461D01*
X182105377Y-105995368D01*
X182121307Y-105981619D01*
X182128380Y-105977527D01*
X182160286Y-105964312D01*
X182215377Y-105927500D01*
X182218734Y-105925256D01*
X182218739Y-105925254D01*
X182244013Y-105908366D01*
X182262733Y-105895858D01*
X182349858Y-105808733D01*
X182349859Y-105808730D01*
X182356925Y-105801665D01*
X182356928Y-105801661D01*
X183024729Y-105133860D01*
X183024733Y-105133858D01*
X183111858Y-105046733D01*
X183180311Y-104944286D01*
X183180312Y-104944285D01*
X183225260Y-104835770D01*
X183227463Y-104830452D01*
X183251500Y-104709606D01*
X183251500Y-102300394D01*
X183227463Y-102179548D01*
X183220312Y-102162285D01*
X183203050Y-102120610D01*
X183180310Y-102065711D01*
X183180309Y-102065709D01*
X183157042Y-102030889D01*
X183157041Y-102030888D01*
X183152847Y-102024611D01*
X183111858Y-101963267D01*
X183024733Y-101876142D01*
X183024729Y-101876139D01*
X182354198Y-101205608D01*
X182354178Y-101205586D01*
X182262735Y-101114143D01*
X182205401Y-101075834D01*
X182199015Y-101071567D01*
X182160286Y-101045688D01*
X182076417Y-101010949D01*
X182075013Y-101010367D01*
X182070987Y-101008346D01*
X182048609Y-100987460D01*
X182024771Y-100968251D01*
X182020655Y-100961370D01*
X182019908Y-100960673D01*
X182019664Y-100959713D01*
X182016142Y-100953825D01*
X181998087Y-100918390D01*
X181981906Y-100896119D01*
X181877771Y-100752786D01*
X181733013Y-100608028D01*
X181567414Y-100487715D01*
X181556262Y-100482033D01*
X181474717Y-100440483D01*
X181423923Y-100392511D01*
X181407128Y-100324690D01*
X181429665Y-100258555D01*
X181474717Y-100219516D01*
X181567410Y-100172287D01*
X181588570Y-100156913D01*
X181733013Y-100051971D01*
X181733015Y-100051968D01*
X181733019Y-100051966D01*
X181877766Y-99907219D01*
X181877768Y-99907215D01*
X181877771Y-99907213D01*
X181959116Y-99795249D01*
X181998087Y-99741610D01*
X182091020Y-99559219D01*
X182154277Y-99364534D01*
X182186300Y-99162352D01*
X182186300Y-98957648D01*
X182175013Y-98886386D01*
X182154277Y-98755465D01*
X182101647Y-98593487D01*
X182091020Y-98560781D01*
X182091018Y-98560778D01*
X182091018Y-98560776D01*
X182036718Y-98454208D01*
X181998087Y-98378390D01*
X181967108Y-98335751D01*
X181877771Y-98212786D01*
X181733019Y-98068034D01*
X181733011Y-98068028D01*
X181696729Y-98041668D01*
X181654064Y-97986339D01*
X181648085Y-97916726D01*
X181680690Y-97854931D01*
X181741528Y-97820573D01*
X181756362Y-97818060D01*
X181793283Y-97814091D01*
X181843635Y-97795311D01*
X181928131Y-97763796D01*
X182043346Y-97677546D01*
X182129596Y-97562331D01*
X182179891Y-97427483D01*
X182186300Y-97367873D01*
X182186299Y-95672128D01*
X182179891Y-95612517D01*
X182175328Y-95600284D01*
X182129597Y-95477671D01*
X182129593Y-95477664D01*
X182043347Y-95362455D01*
X182043344Y-95362452D01*
X181928135Y-95276206D01*
X181928128Y-95276202D01*
X181793282Y-95225908D01*
X181793283Y-95225908D01*
X181733683Y-95219501D01*
X181733681Y-95219500D01*
X181733673Y-95219500D01*
X181733665Y-95219500D01*
X180521253Y-95219500D01*
X180454214Y-95199815D01*
X180433572Y-95183181D01*
X179636039Y-94385648D01*
X178766712Y-93516322D01*
X186145801Y-93516322D01*
X186155944Y-93615607D01*
X186209252Y-93776481D01*
X186209257Y-93776492D01*
X186298224Y-93920728D01*
X186298227Y-93920732D01*
X186418067Y-94040572D01*
X186418071Y-94040575D01*
X186562307Y-94129542D01*
X186562318Y-94129547D01*
X186723193Y-94182855D01*
X186822483Y-94192999D01*
X186845800Y-94192998D01*
X186845800Y-93468000D01*
X186145801Y-93468000D01*
X186145801Y-93516322D01*
X178766712Y-93516322D01*
X178160570Y-92910180D01*
X178127086Y-92848858D01*
X178132070Y-92779166D01*
X178173942Y-92723233D01*
X178239406Y-92698816D01*
X178248252Y-92698500D01*
X186031083Y-92698500D01*
X186098122Y-92718185D01*
G37*
%TD.AperFunction*%
%TA.AperFunction,Conductor*%
G36*
X181135800Y-116524314D02*
G01*
X181131406Y-116519920D01*
X181040194Y-116467259D01*
X180938461Y-116440000D01*
X180833139Y-116440000D01*
X180731406Y-116467259D01*
X180640194Y-116519920D01*
X180635800Y-116524314D01*
X180635800Y-114615686D01*
X180640194Y-114620080D01*
X180731406Y-114672741D01*
X180833139Y-114700000D01*
X180938461Y-114700000D01*
X181040194Y-114672741D01*
X181131406Y-114620080D01*
X181135800Y-114615686D01*
X181135800Y-116524314D01*
G37*
%TD.AperFunction*%
%TA.AperFunction,Conductor*%
G36*
X151684152Y-114183185D02*
G01*
X151729907Y-114235989D01*
X151739851Y-114305147D01*
X151735044Y-114325818D01*
X151677323Y-114503461D01*
X151677323Y-114503464D01*
X151645300Y-114705648D01*
X151645300Y-114910351D01*
X151677322Y-115112534D01*
X151740581Y-115307223D01*
X151780265Y-115385105D01*
X151793161Y-115453774D01*
X151766885Y-115518515D01*
X151709778Y-115558772D01*
X151669780Y-115565400D01*
X149284453Y-115565400D01*
X149255012Y-115556755D01*
X149225026Y-115550232D01*
X149220010Y-115546477D01*
X149217414Y-115545715D01*
X149196776Y-115529085D01*
X149022859Y-115355169D01*
X149022858Y-115355167D01*
X148935733Y-115268042D01*
X148935732Y-115268041D01*
X148935731Y-115268040D01*
X148890605Y-115237888D01*
X148890603Y-115237887D01*
X148884509Y-115233815D01*
X148833286Y-115199588D01*
X148741735Y-115161667D01*
X148737246Y-115159807D01*
X148737243Y-115159806D01*
X148719456Y-115152438D01*
X148719453Y-115152437D01*
X148706382Y-115149837D01*
X148653738Y-115139366D01*
X148626172Y-115133883D01*
X148598608Y-115128400D01*
X148598607Y-115128400D01*
X148598606Y-115128400D01*
X147976807Y-115128400D01*
X147853593Y-115128400D01*
X147853592Y-115128400D01*
X147803252Y-115138413D01*
X147803249Y-115138413D01*
X147798462Y-115139366D01*
X147732748Y-115152437D01*
X147694956Y-115168091D01*
X147688219Y-115170881D01*
X147688210Y-115170884D01*
X147618919Y-115199585D01*
X147608221Y-115206734D01*
X147516467Y-115268041D01*
X147516463Y-115268044D01*
X147477929Y-115306580D01*
X147416607Y-115340066D01*
X147390247Y-115342900D01*
X145419572Y-115342900D01*
X145352533Y-115323215D01*
X145306778Y-115270411D01*
X145296834Y-115201253D01*
X145301641Y-115180581D01*
X145323791Y-115112411D01*
X145332409Y-115058000D01*
X144371486Y-115058000D01*
X144375880Y-115053606D01*
X144428541Y-114962394D01*
X144455800Y-114860661D01*
X144455800Y-114755339D01*
X144428541Y-114653606D01*
X144375880Y-114562394D01*
X144371486Y-114558000D01*
X145332409Y-114558000D01*
X145323790Y-114503586D01*
X145266030Y-114325818D01*
X145264035Y-114255977D01*
X145300115Y-114196144D01*
X145362816Y-114165316D01*
X145383961Y-114163500D01*
X151617113Y-114163500D01*
X151684152Y-114183185D01*
G37*
%TD.AperFunction*%
%TA.AperFunction,Conductor*%
G36*
X142794678Y-114183185D02*
G01*
X142840433Y-114235989D01*
X142850377Y-114305147D01*
X142845570Y-114325818D01*
X142787809Y-114503586D01*
X142779191Y-114558000D01*
X143740114Y-114558000D01*
X143735720Y-114562394D01*
X143683059Y-114653606D01*
X143655800Y-114755339D01*
X143655800Y-114860661D01*
X143683059Y-114962394D01*
X143735720Y-115053606D01*
X143740114Y-115058000D01*
X142779191Y-115058000D01*
X142787808Y-115112411D01*
X142809959Y-115180581D01*
X142811954Y-115250422D01*
X142775874Y-115310255D01*
X142713174Y-115341084D01*
X142692028Y-115342900D01*
X139620152Y-115342900D01*
X139553113Y-115323215D01*
X139507358Y-115270411D01*
X139497414Y-115201253D01*
X139526439Y-115137697D01*
X139532471Y-115131219D01*
X140463871Y-114199819D01*
X140525194Y-114166334D01*
X140551552Y-114163500D01*
X142727639Y-114163500D01*
X142794678Y-114183185D01*
G37*
%TD.AperFunction*%
%TA.AperFunction,Conductor*%
G36*
X135523138Y-54884185D02*
G01*
X135568893Y-54936989D01*
X135578837Y-55006147D01*
X135549812Y-55069703D01*
X135499432Y-55104682D01*
X135393471Y-55144202D01*
X135393464Y-55144206D01*
X135278255Y-55230452D01*
X135278252Y-55230455D01*
X135192006Y-55345664D01*
X135192002Y-55345671D01*
X135141708Y-55480517D01*
X135139521Y-55500863D01*
X135135301Y-55540123D01*
X135135300Y-55540135D01*
X135135300Y-57235870D01*
X135135301Y-57235876D01*
X135141708Y-57295483D01*
X135192002Y-57430328D01*
X135192006Y-57430335D01*
X135278252Y-57545544D01*
X135278255Y-57545547D01*
X135393464Y-57631793D01*
X135393471Y-57631797D01*
X135438418Y-57648561D01*
X135528317Y-57682091D01*
X135565241Y-57686060D01*
X135629789Y-57712796D01*
X135669638Y-57770188D01*
X135672133Y-57840013D01*
X135636481Y-57900102D01*
X135624871Y-57909666D01*
X135588584Y-57936030D01*
X135443828Y-58080786D01*
X135323515Y-58246386D01*
X135230581Y-58428776D01*
X135167322Y-58623465D01*
X135135300Y-58825648D01*
X135135300Y-59030351D01*
X135167322Y-59232534D01*
X135230581Y-59427223D01*
X135294491Y-59552653D01*
X135301206Y-59565831D01*
X135323515Y-59609613D01*
X135443828Y-59775213D01*
X135588586Y-59919971D01*
X135743549Y-60032556D01*
X135754190Y-60040287D01*
X135845640Y-60086883D01*
X135846880Y-60087515D01*
X135897676Y-60135490D01*
X135914471Y-60203311D01*
X135891934Y-60269446D01*
X135846880Y-60308485D01*
X135754186Y-60355715D01*
X135588586Y-60476028D01*
X135443828Y-60620786D01*
X135323515Y-60786386D01*
X135230581Y-60968776D01*
X135167322Y-61163465D01*
X135135300Y-61365648D01*
X135135300Y-61570351D01*
X135167322Y-61772534D01*
X135230581Y-61967223D01*
X135294491Y-62092653D01*
X135301206Y-62105831D01*
X135323515Y-62149613D01*
X135443828Y-62315213D01*
X135588586Y-62459971D01*
X135743549Y-62572556D01*
X135754190Y-62580287D01*
X135845640Y-62626883D01*
X135846880Y-62627515D01*
X135897676Y-62675490D01*
X135914471Y-62743311D01*
X135891934Y-62809446D01*
X135846880Y-62848485D01*
X135754186Y-62895715D01*
X135588586Y-63016028D01*
X135443828Y-63160786D01*
X135323515Y-63326386D01*
X135230581Y-63508776D01*
X135167322Y-63703465D01*
X135135300Y-63905648D01*
X135135300Y-64110351D01*
X135167322Y-64312534D01*
X135230581Y-64507223D01*
X135294491Y-64632653D01*
X135301206Y-64645831D01*
X135323515Y-64689613D01*
X135443828Y-64855213D01*
X135588586Y-64999971D01*
X135743549Y-65112556D01*
X135754190Y-65120287D01*
X135845640Y-65166883D01*
X135846880Y-65167515D01*
X135897676Y-65215490D01*
X135914471Y-65283311D01*
X135891934Y-65349446D01*
X135846880Y-65388485D01*
X135754186Y-65435715D01*
X135588586Y-65556028D01*
X135443828Y-65700786D01*
X135323515Y-65866386D01*
X135230581Y-66048776D01*
X135167322Y-66243465D01*
X135135300Y-66445648D01*
X135135300Y-66650351D01*
X135167322Y-66852534D01*
X135230581Y-67047223D01*
X135294491Y-67172653D01*
X135301206Y-67185831D01*
X135323515Y-67229613D01*
X135443828Y-67395213D01*
X135588586Y-67539971D01*
X135743549Y-67652556D01*
X135754190Y-67660287D01*
X135845640Y-67706883D01*
X135846880Y-67707515D01*
X135897676Y-67755490D01*
X135914471Y-67823311D01*
X135891934Y-67889446D01*
X135846880Y-67928485D01*
X135754186Y-67975715D01*
X135588586Y-68096028D01*
X135443828Y-68240786D01*
X135323515Y-68406386D01*
X135230581Y-68588776D01*
X135167322Y-68783465D01*
X135135300Y-68985648D01*
X135135300Y-69190351D01*
X135167322Y-69392534D01*
X135230581Y-69587223D01*
X135294491Y-69712653D01*
X135301206Y-69725831D01*
X135323515Y-69769613D01*
X135443828Y-69935213D01*
X135588586Y-70079971D01*
X135743549Y-70192556D01*
X135754190Y-70200287D01*
X135845640Y-70246883D01*
X135846880Y-70247515D01*
X135897676Y-70295490D01*
X135914471Y-70363311D01*
X135891934Y-70429446D01*
X135846880Y-70468485D01*
X135754186Y-70515715D01*
X135588586Y-70636028D01*
X135443828Y-70780786D01*
X135323515Y-70946386D01*
X135230581Y-71128776D01*
X135167322Y-71323465D01*
X135135300Y-71525648D01*
X135135300Y-71730351D01*
X135167322Y-71932534D01*
X135230581Y-72127223D01*
X135294491Y-72252653D01*
X135301206Y-72265831D01*
X135323515Y-72309613D01*
X135443828Y-72475213D01*
X135588586Y-72619971D01*
X135738188Y-72728661D01*
X135754190Y-72740287D01*
X135845640Y-72786883D01*
X135846880Y-72787515D01*
X135897676Y-72835490D01*
X135914471Y-72903311D01*
X135891934Y-72969446D01*
X135846880Y-73008485D01*
X135754186Y-73055715D01*
X135588586Y-73176028D01*
X135443828Y-73320786D01*
X135323515Y-73486386D01*
X135230581Y-73668776D01*
X135167322Y-73863465D01*
X135135300Y-74065648D01*
X135135300Y-74270351D01*
X135167322Y-74472534D01*
X135230581Y-74667223D01*
X135294491Y-74792653D01*
X135301206Y-74805831D01*
X135323515Y-74849613D01*
X135443828Y-75015213D01*
X135588586Y-75159971D01*
X135743549Y-75272556D01*
X135754190Y-75280287D01*
X135830316Y-75319075D01*
X135936576Y-75373218D01*
X135936578Y-75373218D01*
X135936581Y-75373220D01*
X136040937Y-75407127D01*
X136131265Y-75436477D01*
X136183183Y-75444700D01*
X136333448Y-75468500D01*
X136333449Y-75468500D01*
X136538151Y-75468500D01*
X136538152Y-75468500D01*
X136740334Y-75436477D01*
X136935019Y-75373220D01*
X137117410Y-75280287D01*
X137210390Y-75212732D01*
X137283013Y-75159971D01*
X137283015Y-75159968D01*
X137283019Y-75159966D01*
X137427766Y-75015219D01*
X137427768Y-75015215D01*
X137427771Y-75015213D01*
X137550951Y-74845669D01*
X137552623Y-74846884D01*
X137598008Y-74805831D01*
X137651915Y-74793500D01*
X138013685Y-74793500D01*
X138080724Y-74813185D01*
X138113406Y-74846571D01*
X138114649Y-74845669D01*
X138237828Y-75015213D01*
X138382586Y-75159971D01*
X138537549Y-75272556D01*
X138548190Y-75280287D01*
X138624316Y-75319075D01*
X138730576Y-75373218D01*
X138730578Y-75373218D01*
X138730581Y-75373220D01*
X138834937Y-75407127D01*
X138925265Y-75436477D01*
X138977183Y-75444700D01*
X139127448Y-75468500D01*
X139127449Y-75468500D01*
X139332151Y-75468500D01*
X139332152Y-75468500D01*
X139534334Y-75436477D01*
X139729019Y-75373220D01*
X139911410Y-75280287D01*
X140004390Y-75212732D01*
X140077013Y-75159971D01*
X140077015Y-75159968D01*
X140077019Y-75159966D01*
X140221766Y-75015219D01*
X140221768Y-75015215D01*
X140221771Y-75015213D01*
X140274532Y-74942590D01*
X140342087Y-74849610D01*
X140435020Y-74667219D01*
X140498277Y-74472534D01*
X140530300Y-74270352D01*
X140530300Y-74065648D01*
X140498277Y-73863466D01*
X140435020Y-73668781D01*
X140435018Y-73668778D01*
X140435018Y-73668776D01*
X140385649Y-73571886D01*
X140342087Y-73486390D01*
X140334356Y-73475749D01*
X140221771Y-73320786D01*
X140077013Y-73176028D01*
X139911414Y-73055715D01*
X139904806Y-73052348D01*
X139818717Y-73008483D01*
X139811750Y-73001903D01*
X139802706Y-72998735D01*
X139786764Y-72978305D01*
X139767923Y-72960511D01*
X139765619Y-72951208D01*
X139759723Y-72943652D01*
X139757356Y-72917842D01*
X139751128Y-72892690D01*
X139754219Y-72883619D01*
X139753344Y-72874074D01*
X139765306Y-72851082D01*
X139773665Y-72826555D01*
X139782028Y-72818944D01*
X139785594Y-72812092D01*
X139807071Y-72796156D01*
X139813420Y-72790380D01*
X139816039Y-72788880D01*
X139911410Y-72740287D01*
X139950250Y-72712067D01*
X139956096Y-72708722D01*
X139983786Y-72702114D01*
X140010609Y-72692544D01*
X140017338Y-72694108D01*
X140024057Y-72692506D01*
X140050927Y-72701919D01*
X140078663Y-72708369D01*
X140086642Y-72714431D01*
X140089998Y-72715607D01*
X140092631Y-72718981D01*
X140105371Y-72728661D01*
X146277181Y-78900471D01*
X146310666Y-78961794D01*
X146313500Y-78988152D01*
X146313500Y-79051747D01*
X146293815Y-79118786D01*
X146241011Y-79164541D01*
X146171853Y-79174485D01*
X146108297Y-79145460D01*
X146101819Y-79139428D01*
X145249022Y-78286632D01*
X145239059Y-78276669D01*
X145239058Y-78276667D01*
X145151933Y-78189542D01*
X145100709Y-78155315D01*
X145049486Y-78121088D01*
X145049483Y-78121086D01*
X145049480Y-78121085D01*
X144975803Y-78090568D01*
X144975801Y-78090567D01*
X144968992Y-78087747D01*
X144935652Y-78073937D01*
X144875229Y-78061918D01*
X144870506Y-78060978D01*
X144870504Y-78060978D01*
X144814810Y-78049900D01*
X144814807Y-78049900D01*
X144814806Y-78049900D01*
X134602061Y-78049900D01*
X134535022Y-78030215D01*
X134514379Y-78013580D01*
X134476738Y-77975938D01*
X134476734Y-77975935D01*
X134329253Y-77877390D01*
X134329240Y-77877383D01*
X134165367Y-77809506D01*
X134165358Y-77809503D01*
X133991394Y-77774900D01*
X133991391Y-77774900D01*
X133814009Y-77774900D01*
X133814006Y-77774900D01*
X133640041Y-77809503D01*
X133640032Y-77809506D01*
X133476159Y-77877383D01*
X133476146Y-77877390D01*
X133328665Y-77975935D01*
X133328661Y-77975938D01*
X133203238Y-78101361D01*
X133203235Y-78101365D01*
X133104690Y-78248846D01*
X133104683Y-78248859D01*
X133036806Y-78412732D01*
X133036803Y-78412741D01*
X133002200Y-78586704D01*
X133002200Y-78764095D01*
X133036803Y-78938058D01*
X133036806Y-78938067D01*
X133104683Y-79101940D01*
X133104690Y-79101953D01*
X133203235Y-79249434D01*
X133203238Y-79249438D01*
X133328661Y-79374861D01*
X133328665Y-79374864D01*
X133476146Y-79473409D01*
X133476159Y-79473416D01*
X133599063Y-79524323D01*
X133640034Y-79541294D01*
X133640036Y-79541294D01*
X133640041Y-79541296D01*
X133814004Y-79575899D01*
X133814007Y-79575900D01*
X133814009Y-79575900D01*
X133991393Y-79575900D01*
X133991394Y-79575899D01*
X134049382Y-79564364D01*
X134165358Y-79541296D01*
X134165361Y-79541294D01*
X134165366Y-79541294D01*
X134329247Y-79473413D01*
X134476735Y-79374864D01*
X134514379Y-79337220D01*
X134575701Y-79303734D01*
X134602061Y-79300900D01*
X144442748Y-79300900D01*
X144509787Y-79320585D01*
X144530429Y-79337219D01*
X145827680Y-80634470D01*
X145861165Y-80695793D01*
X145863999Y-80722151D01*
X145863999Y-82235469D01*
X145844314Y-82302508D01*
X145791510Y-82348263D01*
X145722352Y-82358207D01*
X145658796Y-82329182D01*
X145652318Y-82323150D01*
X145382273Y-82053105D01*
X145348788Y-81991782D01*
X145347481Y-81946027D01*
X145356300Y-81890352D01*
X145356300Y-81685648D01*
X145324277Y-81483466D01*
X145261020Y-81288781D01*
X145261018Y-81288778D01*
X145261018Y-81288776D01*
X145227303Y-81222607D01*
X145168087Y-81106390D01*
X145160356Y-81095749D01*
X145047771Y-80940786D01*
X144903013Y-80796028D01*
X144737413Y-80675715D01*
X144737412Y-80675714D01*
X144737410Y-80675713D01*
X144680453Y-80646691D01*
X144555023Y-80582781D01*
X144360334Y-80519522D01*
X144185795Y-80491878D01*
X144158152Y-80487500D01*
X143953448Y-80487500D01*
X143929129Y-80491351D01*
X143751265Y-80519522D01*
X143556576Y-80582781D01*
X143374186Y-80675715D01*
X143208586Y-80796028D01*
X143063828Y-80940786D01*
X142943515Y-81106386D01*
X142850581Y-81288776D01*
X142787322Y-81483465D01*
X142755300Y-81685648D01*
X142755300Y-81890351D01*
X142787322Y-82092534D01*
X142850581Y-82287223D01*
X142943515Y-82469613D01*
X143063828Y-82635213D01*
X143208586Y-82779971D01*
X143356232Y-82887240D01*
X143374190Y-82900287D01*
X143463012Y-82945544D01*
X143466880Y-82947515D01*
X143517676Y-82995490D01*
X143534471Y-83063311D01*
X143511934Y-83129446D01*
X143466880Y-83168485D01*
X143374186Y-83215715D01*
X143208588Y-83336027D01*
X143103533Y-83441082D01*
X143042210Y-83474566D01*
X142972518Y-83469582D01*
X142928173Y-83441082D01*
X139750959Y-80263869D01*
X139750958Y-80263867D01*
X139663833Y-80176742D01*
X139612609Y-80142515D01*
X139561386Y-80108288D01*
X139561383Y-80108286D01*
X139561380Y-80108285D01*
X139487703Y-80077768D01*
X139487701Y-80077767D01*
X139480892Y-80074947D01*
X139447552Y-80061137D01*
X139387129Y-80049118D01*
X139382406Y-80048178D01*
X139382404Y-80048178D01*
X139326710Y-80037100D01*
X139326707Y-80037100D01*
X139326706Y-80037100D01*
X134706007Y-80037100D01*
X134582793Y-80037100D01*
X134582789Y-80037100D01*
X134527097Y-80048178D01*
X134522371Y-80049118D01*
X134479143Y-80057716D01*
X134461946Y-80061137D01*
X134348116Y-80108287D01*
X134348107Y-80108292D01*
X134245668Y-80176740D01*
X134202105Y-80220303D01*
X134158542Y-80263867D01*
X134058228Y-80364181D01*
X133996905Y-80397666D01*
X133970547Y-80400500D01*
X125188341Y-80400500D01*
X125188321Y-80400499D01*
X125182207Y-80400499D01*
X125058994Y-80400499D01*
X124958197Y-80420548D01*
X124958192Y-80420548D01*
X124938149Y-80424536D01*
X124938147Y-80424536D01*
X124890997Y-80444067D01*
X124824319Y-80471685D01*
X124824317Y-80471686D01*
X124721866Y-80540141D01*
X124721863Y-80540144D01*
X122959501Y-82302508D01*
X122374769Y-82887240D01*
X122374767Y-82887242D01*
X122331205Y-82930803D01*
X122287644Y-82974364D01*
X122287642Y-82974367D01*
X122269830Y-83001025D01*
X122269829Y-83001027D01*
X122269828Y-83001026D01*
X122219189Y-83076812D01*
X122219185Y-83076819D01*
X122193415Y-83139036D01*
X122172039Y-83190641D01*
X122172035Y-83190655D01*
X122165588Y-83223066D01*
X122165589Y-83223067D01*
X122152214Y-83290313D01*
X122151938Y-83291700D01*
X122151937Y-83291705D01*
X122148000Y-83311494D01*
X122148000Y-83638442D01*
X122128315Y-83705481D01*
X122075511Y-83751236D01*
X122010748Y-83761732D01*
X121971375Y-83757500D01*
X121575632Y-83757500D01*
X121575617Y-83757501D01*
X121549677Y-83760289D01*
X121549670Y-83760291D01*
X121516017Y-83763909D01*
X121381169Y-83814204D01*
X121321809Y-83858640D01*
X121256346Y-83883057D01*
X121188074Y-83868205D01*
X121138668Y-83818800D01*
X121123500Y-83759373D01*
X121123500Y-83758000D01*
X121075655Y-83758000D01*
X121016127Y-83764401D01*
X121016120Y-83764403D01*
X120881413Y-83814645D01*
X120881406Y-83814649D01*
X120766312Y-83900809D01*
X120766309Y-83900812D01*
X120680149Y-84015906D01*
X120680145Y-84015913D01*
X120629903Y-84150620D01*
X120629901Y-84150627D01*
X120623500Y-84210155D01*
X120623500Y-84858000D01*
X120999000Y-84858000D01*
X121007685Y-84860550D01*
X121016645Y-84859262D01*
X121040686Y-84870240D01*
X121066039Y-84877685D01*
X121071965Y-84884524D01*
X121080201Y-84888285D01*
X121094491Y-84910520D01*
X121111794Y-84930489D01*
X121114081Y-84941002D01*
X121117976Y-84947063D01*
X121123000Y-84981998D01*
X121123001Y-85033998D01*
X121103318Y-85101037D01*
X121050515Y-85146793D01*
X120999001Y-85158000D01*
X120623500Y-85158000D01*
X120623500Y-85805844D01*
X120629901Y-85865372D01*
X120629903Y-85865379D01*
X120680145Y-86000086D01*
X120680149Y-86000093D01*
X120766309Y-86115187D01*
X120766312Y-86115190D01*
X120881406Y-86201350D01*
X120881413Y-86201354D01*
X121016120Y-86251596D01*
X121016127Y-86251598D01*
X121037255Y-86253870D01*
X121101806Y-86280608D01*
X121141654Y-86338000D01*
X121148000Y-86377159D01*
X121148000Y-87984647D01*
X121128315Y-88051686D01*
X121111681Y-88072328D01*
X119861944Y-89322064D01*
X119861938Y-89322072D01*
X119793491Y-89424506D01*
X119793488Y-89424514D01*
X119763592Y-89496691D01*
X119757934Y-89510352D01*
X119746466Y-89538038D01*
X119746439Y-89538102D01*
X119746338Y-89538343D01*
X119746336Y-89538351D01*
X119728412Y-89628464D01*
X119728412Y-89628465D01*
X119722300Y-89659191D01*
X119722300Y-89659194D01*
X119722300Y-103355693D01*
X119722300Y-103478907D01*
X119722300Y-103478909D01*
X119722299Y-103478909D01*
X119726258Y-103498809D01*
X119726262Y-103498828D01*
X119726742Y-103501238D01*
X119746337Y-103599752D01*
X119752683Y-103615072D01*
X119793488Y-103713586D01*
X119823230Y-103758096D01*
X119823231Y-103758099D01*
X119861938Y-103816028D01*
X119861944Y-103816036D01*
X119953386Y-103907478D01*
X119953408Y-103907498D01*
X121721729Y-105675819D01*
X121755214Y-105737142D01*
X121750230Y-105806834D01*
X121708358Y-105862767D01*
X121642894Y-105887184D01*
X121634048Y-105887500D01*
X120601929Y-105887500D01*
X120601923Y-105887501D01*
X120542316Y-105893908D01*
X120407471Y-105944202D01*
X120407464Y-105944206D01*
X120292255Y-106030452D01*
X120292252Y-106030455D01*
X120206006Y-106145664D01*
X120206002Y-106145671D01*
X120168982Y-106244929D01*
X120127111Y-106300863D01*
X120061647Y-106325280D01*
X119993374Y-106310428D01*
X119943968Y-106261023D01*
X119936618Y-106244929D01*
X119899597Y-106145671D01*
X119899593Y-106145664D01*
X119813347Y-106030455D01*
X119813344Y-106030452D01*
X119698135Y-105944206D01*
X119698128Y-105944202D01*
X119563282Y-105893908D01*
X119563283Y-105893908D01*
X119503683Y-105887501D01*
X119503681Y-105887500D01*
X119503673Y-105887500D01*
X119503664Y-105887500D01*
X117807929Y-105887500D01*
X117807923Y-105887501D01*
X117748316Y-105893908D01*
X117613471Y-105944202D01*
X117613464Y-105944206D01*
X117498255Y-106030452D01*
X117498252Y-106030455D01*
X117412006Y-106145664D01*
X117412002Y-106145671D01*
X117372345Y-106251999D01*
X117330474Y-106307933D01*
X117265010Y-106332350D01*
X117196737Y-106317498D01*
X117147331Y-106268093D01*
X117132163Y-106208666D01*
X117132163Y-85611906D01*
X117151848Y-85544867D01*
X117168482Y-85524225D01*
X124917807Y-77774900D01*
X133858500Y-68834207D01*
X133858500Y-68833793D01*
X133858500Y-54988500D01*
X133878185Y-54921461D01*
X133930989Y-54875706D01*
X133982500Y-54864500D01*
X135456099Y-54864500D01*
X135523138Y-54884185D01*
G37*
%TD.AperFunction*%
%TA.AperFunction,Conductor*%
G36*
X125079561Y-100266700D02*
G01*
X125130674Y-100314336D01*
X125148000Y-100377556D01*
X125148000Y-100485806D01*
X125160414Y-100548215D01*
X125172037Y-100606653D01*
X125182979Y-100633069D01*
X125182982Y-100633075D01*
X125184861Y-100637611D01*
X125219188Y-100720486D01*
X125250686Y-100767625D01*
X125262445Y-100785223D01*
X125287641Y-100822932D01*
X125287644Y-100822936D01*
X125379086Y-100914378D01*
X125379108Y-100914398D01*
X125465479Y-101000769D01*
X125498964Y-101062092D01*
X125493980Y-101131784D01*
X125452108Y-101187717D01*
X125416802Y-101206156D01*
X125265018Y-101256452D01*
X125265007Y-101256457D01*
X125120771Y-101345424D01*
X125120764Y-101345430D01*
X125111528Y-101354665D01*
X125103585Y-101359001D01*
X125098163Y-101366245D01*
X125073400Y-101375480D01*
X125050203Y-101388146D01*
X125041176Y-101387499D01*
X125032699Y-101390662D01*
X125006875Y-101385044D01*
X124980511Y-101383157D01*
X124971461Y-101377340D01*
X124964426Y-101375810D01*
X124936172Y-101354659D01*
X124935319Y-101353806D01*
X124901834Y-101292483D01*
X124899000Y-101266125D01*
X124899000Y-100377663D01*
X124918685Y-100310624D01*
X124971489Y-100264869D01*
X125009804Y-100254367D01*
X125010521Y-100254290D01*
X125010807Y-100254260D01*
X125079561Y-100266700D01*
G37*
%TD.AperFunction*%
%TA.AperFunction,Conductor*%
G36*
X156926833Y-90821187D02*
G01*
X156947475Y-90837821D01*
X160058981Y-93949326D01*
X160092466Y-94010649D01*
X160095300Y-94037007D01*
X160095300Y-96058359D01*
X160075615Y-96125398D01*
X160022811Y-96171153D01*
X159953653Y-96181097D01*
X159906203Y-96163897D01*
X159829292Y-96116457D01*
X159829281Y-96116452D01*
X159668406Y-96063144D01*
X159569122Y-96053000D01*
X159545800Y-96053000D01*
X159545800Y-98002999D01*
X159569108Y-98002999D01*
X159569122Y-98002998D01*
X159668407Y-97992855D01*
X159829281Y-97939547D01*
X159829292Y-97939542D01*
X159979679Y-97846782D01*
X159981122Y-97849121D01*
X160034141Y-97827708D01*
X160102788Y-97840721D01*
X160152087Y-97886409D01*
X160157152Y-97894690D01*
X160160716Y-97903294D01*
X160180792Y-97933341D01*
X160182082Y-97935449D01*
X160190553Y-97966873D01*
X160200280Y-97997936D01*
X160200300Y-98000150D01*
X160200300Y-98554335D01*
X160180615Y-98621374D01*
X160127811Y-98667129D01*
X160089667Y-98677612D01*
X160089169Y-98677666D01*
X160062548Y-98677679D01*
X160023674Y-98673500D01*
X159627930Y-98673500D01*
X159627919Y-98673501D01*
X159589053Y-98677679D01*
X159562548Y-98677679D01*
X159523674Y-98673500D01*
X159127930Y-98673500D01*
X159127919Y-98673501D01*
X159089053Y-98677679D01*
X159062514Y-98677675D01*
X159062013Y-98677621D01*
X158997469Y-98650866D01*
X158957636Y-98593462D01*
X158951301Y-98554335D01*
X158951301Y-98448291D01*
X158928915Y-98335751D01*
X158928915Y-98335750D01*
X158927263Y-98327449D01*
X158927261Y-98327444D01*
X158917265Y-98303311D01*
X158900148Y-98261987D01*
X158880112Y-98213615D01*
X158860779Y-98184681D01*
X158857371Y-98177923D01*
X158852377Y-98150709D01*
X158844109Y-98124304D01*
X158846160Y-98116825D01*
X158844761Y-98109200D01*
X158855272Y-98083608D01*
X158862592Y-98056923D01*
X158868360Y-98051741D01*
X158871306Y-98044570D01*
X158893983Y-98028724D01*
X158914570Y-98010232D01*
X158922398Y-98008870D01*
X158928580Y-98004551D01*
X158952564Y-98003622D01*
X158980692Y-97998730D01*
X159022483Y-98002999D01*
X159045800Y-98002998D01*
X159045800Y-97278000D01*
X158345801Y-97278000D01*
X158345801Y-97326307D01*
X158345802Y-97326327D01*
X158346674Y-97334870D01*
X158333899Y-97403561D01*
X158286015Y-97454442D01*
X158218223Y-97471357D01*
X158152049Y-97448937D01*
X158135634Y-97435143D01*
X157514700Y-96814209D01*
X157430168Y-96729677D01*
X158345800Y-96729677D01*
X158345800Y-96778000D01*
X159045800Y-96778000D01*
X159045800Y-96052999D01*
X159022493Y-96053000D01*
X159022474Y-96053001D01*
X158923192Y-96063144D01*
X158762318Y-96116452D01*
X158762307Y-96116457D01*
X158618071Y-96205424D01*
X158618067Y-96205427D01*
X158498227Y-96325267D01*
X158498224Y-96325271D01*
X158409257Y-96469507D01*
X158409252Y-96469518D01*
X158355944Y-96630393D01*
X158345800Y-96729677D01*
X157430168Y-96729677D01*
X154799722Y-94099232D01*
X154789759Y-94089269D01*
X154789758Y-94089267D01*
X154702633Y-94002142D01*
X154651409Y-93967915D01*
X154600186Y-93933688D01*
X154600183Y-93933686D01*
X154600180Y-93933685D01*
X154526503Y-93903168D01*
X154526501Y-93903167D01*
X154519692Y-93900347D01*
X154486352Y-93886537D01*
X154425929Y-93874518D01*
X154421206Y-93873578D01*
X154421204Y-93873578D01*
X154365510Y-93862500D01*
X154365507Y-93862500D01*
X154365506Y-93862500D01*
X154161915Y-93862500D01*
X154094876Y-93842815D01*
X154062193Y-93809428D01*
X154060951Y-93810331D01*
X153937771Y-93640786D01*
X153793019Y-93496034D01*
X153756730Y-93469669D01*
X153714064Y-93414339D01*
X153708085Y-93344726D01*
X153740690Y-93282931D01*
X153801528Y-93248573D01*
X153816362Y-93246060D01*
X153853283Y-93242091D01*
X153988128Y-93191797D01*
X153988127Y-93191797D01*
X153988131Y-93191796D01*
X154103346Y-93105546D01*
X154189596Y-92990331D01*
X154239891Y-92855483D01*
X154246300Y-92795873D01*
X154246299Y-91100128D01*
X154239891Y-91040517D01*
X154234485Y-91026024D01*
X154213156Y-90968834D01*
X154208172Y-90899143D01*
X154241658Y-90837820D01*
X154302981Y-90804336D01*
X154329338Y-90801502D01*
X156859794Y-90801502D01*
X156926833Y-90821187D01*
G37*
%TD.AperFunction*%
%TA.AperFunction,Conductor*%
G36*
X122575627Y-86258500D02*
G01*
X122971372Y-86258499D01*
X122971373Y-86258498D01*
X122971385Y-86258498D01*
X123010244Y-86254320D01*
X123036752Y-86254320D01*
X123075627Y-86258500D01*
X123471372Y-86258499D01*
X123471373Y-86258498D01*
X123471385Y-86258498D01*
X123510244Y-86254320D01*
X123536752Y-86254320D01*
X123575627Y-86258500D01*
X123971372Y-86258499D01*
X123971373Y-86258498D01*
X123971385Y-86258498D01*
X124010244Y-86254320D01*
X124036835Y-86254328D01*
X124037342Y-86254383D01*
X124101873Y-86281166D01*
X124141682Y-86338586D01*
X124148000Y-86377663D01*
X124148000Y-87022511D01*
X124172035Y-87143344D01*
X124172040Y-87143361D01*
X124219185Y-87257181D01*
X124219190Y-87257190D01*
X124239071Y-87286944D01*
X124239077Y-87286951D01*
X124243220Y-87293151D01*
X124287642Y-87359633D01*
X124374767Y-87446758D01*
X124374769Y-87446759D01*
X124385178Y-87457168D01*
X130392050Y-93464041D01*
X130425535Y-93525364D01*
X130420551Y-93595056D01*
X130378679Y-93650989D01*
X130328562Y-93673339D01*
X130255338Y-93687904D01*
X130255332Y-93687906D01*
X130091459Y-93755783D01*
X130091446Y-93755790D01*
X129943965Y-93854335D01*
X129943961Y-93854338D01*
X129818538Y-93979761D01*
X129818535Y-93979765D01*
X129719990Y-94127246D01*
X129719983Y-94127259D01*
X129652106Y-94291132D01*
X129652103Y-94291141D01*
X129617500Y-94465104D01*
X129617500Y-94518347D01*
X129597815Y-94585386D01*
X129581181Y-94606028D01*
X126877170Y-97310038D01*
X126877161Y-97310047D01*
X126874770Y-97312439D01*
X126874767Y-97312442D01*
X126787642Y-97399567D01*
X126765380Y-97432885D01*
X126760489Y-97440203D01*
X126760483Y-97440211D01*
X126719190Y-97502009D01*
X126719185Y-97502018D01*
X126691488Y-97568887D01*
X126691488Y-97568889D01*
X126672037Y-97615848D01*
X126672036Y-97615852D01*
X126672036Y-97615853D01*
X126672035Y-97615854D01*
X126663126Y-97660645D01*
X126651372Y-97683114D01*
X126643365Y-97707173D01*
X126635452Y-97713549D01*
X126630741Y-97722556D01*
X126608704Y-97735104D01*
X126588962Y-97751014D01*
X126574107Y-97754805D01*
X126570025Y-97757130D01*
X126554764Y-97759742D01*
X126536757Y-97761678D01*
X126510248Y-97761679D01*
X126471374Y-97757500D01*
X126075630Y-97757500D01*
X126075619Y-97757501D01*
X126036753Y-97761679D01*
X126010248Y-97761679D01*
X125971374Y-97757500D01*
X125575632Y-97757500D01*
X125575617Y-97757501D01*
X125540405Y-97761286D01*
X125471646Y-97748878D01*
X125420511Y-97701265D01*
X125403234Y-97633565D01*
X125425302Y-97567272D01*
X125439468Y-97550321D01*
X126655372Y-96334419D01*
X126716695Y-96300934D01*
X126743053Y-96298100D01*
X126796293Y-96298100D01*
X126796294Y-96298099D01*
X126899854Y-96277500D01*
X126970258Y-96263496D01*
X126970261Y-96263494D01*
X126970266Y-96263494D01*
X127134147Y-96195613D01*
X127281635Y-96097064D01*
X127407064Y-95971635D01*
X127505613Y-95824147D01*
X127573494Y-95660266D01*
X127576031Y-95647515D01*
X127608099Y-95486295D01*
X127608100Y-95486293D01*
X127608100Y-95308906D01*
X127608099Y-95308904D01*
X127573496Y-95134941D01*
X127573493Y-95134932D01*
X127571733Y-95130684D01*
X127532806Y-95036703D01*
X127505616Y-94971059D01*
X127505609Y-94971046D01*
X127407064Y-94823565D01*
X127407061Y-94823561D01*
X127281638Y-94698138D01*
X127281634Y-94698135D01*
X127134153Y-94599590D01*
X127134140Y-94599583D01*
X126970267Y-94531706D01*
X126970258Y-94531703D01*
X126796294Y-94497100D01*
X126796291Y-94497100D01*
X126618909Y-94497100D01*
X126618906Y-94497100D01*
X126444941Y-94531703D01*
X126444932Y-94531706D01*
X126281059Y-94599583D01*
X126281046Y-94599590D01*
X126133565Y-94698135D01*
X126133561Y-94698138D01*
X126008138Y-94823561D01*
X126008135Y-94823565D01*
X125909590Y-94971046D01*
X125909583Y-94971059D01*
X125841706Y-95134932D01*
X125841703Y-95134941D01*
X125807100Y-95308904D01*
X125807100Y-95362147D01*
X125787415Y-95429186D01*
X125770781Y-95449828D01*
X124377174Y-96843434D01*
X124377165Y-96843443D01*
X124374769Y-96845840D01*
X124374767Y-96845842D01*
X124287642Y-96932967D01*
X124265307Y-96966394D01*
X124260421Y-96973706D01*
X124260414Y-96973714D01*
X124219190Y-97035409D01*
X124219185Y-97035418D01*
X124185847Y-97115907D01*
X124180323Y-97129243D01*
X124172037Y-97149245D01*
X124172035Y-97149253D01*
X124148000Y-97270089D01*
X124148000Y-97638335D01*
X124147353Y-97640536D01*
X124147921Y-97642760D01*
X124137556Y-97673902D01*
X124128315Y-97705374D01*
X124126581Y-97706875D01*
X124125857Y-97709054D01*
X124100290Y-97729657D01*
X124075511Y-97751129D01*
X124072684Y-97751904D01*
X124071454Y-97752896D01*
X124037256Y-97761624D01*
X124034410Y-97761930D01*
X124007902Y-97761931D01*
X123971334Y-97758000D01*
X123923500Y-97758000D01*
X123907888Y-97773611D01*
X123903815Y-97787485D01*
X123899916Y-97791672D01*
X123898766Y-97794757D01*
X123873814Y-97819709D01*
X123847808Y-97839177D01*
X123782345Y-97863593D01*
X123714072Y-97848741D01*
X123699194Y-97839179D01*
X123673188Y-97819711D01*
X123637387Y-97771887D01*
X123623500Y-97758000D01*
X123575665Y-97758000D01*
X123539098Y-97761931D01*
X123512592Y-97761931D01*
X123471373Y-97757500D01*
X123075630Y-97757500D01*
X123075619Y-97757501D01*
X123036753Y-97761679D01*
X123010248Y-97761679D01*
X122971374Y-97757500D01*
X122575630Y-97757500D01*
X122575619Y-97757501D01*
X122536753Y-97761679D01*
X122517375Y-97762238D01*
X122513799Y-97762061D01*
X122471373Y-97757500D01*
X122421609Y-97757500D01*
X122418557Y-97757349D01*
X122388336Y-97746826D01*
X122357645Y-97737815D01*
X122355005Y-97735222D01*
X122352572Y-97734375D01*
X122347325Y-97727678D01*
X122321582Y-97702391D01*
X122259359Y-97609268D01*
X122218978Y-97568887D01*
X122172233Y-97522142D01*
X122096933Y-97446842D01*
X122045709Y-97412615D01*
X121994486Y-97378388D01*
X121994483Y-97378386D01*
X121994480Y-97378385D01*
X121921019Y-97347957D01*
X121921014Y-97347955D01*
X121913992Y-97345047D01*
X121880652Y-97331237D01*
X121814168Y-97318013D01*
X121809686Y-97317121D01*
X121809670Y-97317117D01*
X121759811Y-97307200D01*
X121759807Y-97307200D01*
X121759806Y-97307200D01*
X121097300Y-97307200D01*
X121030261Y-97287515D01*
X120984506Y-97234711D01*
X120973300Y-97183200D01*
X120973300Y-90031251D01*
X120992985Y-89964212D01*
X121009614Y-89943574D01*
X122172229Y-88780960D01*
X122172233Y-88780958D01*
X122259358Y-88693833D01*
X122327811Y-88591386D01*
X122374963Y-88477552D01*
X122387199Y-88416034D01*
X122394439Y-88379639D01*
X122394439Y-88379634D01*
X122399000Y-88356707D01*
X122399000Y-88233494D01*
X122399000Y-86377555D01*
X122403411Y-86362531D01*
X122402853Y-86346886D01*
X122413053Y-86329695D01*
X122418685Y-86310516D01*
X122430517Y-86300263D01*
X122438507Y-86286798D01*
X122456382Y-86277850D01*
X122471489Y-86264761D01*
X122487822Y-86262114D01*
X122500987Y-86255525D01*
X122536249Y-86254266D01*
X122575627Y-86258500D01*
G37*
%TD.AperFunction*%
%TA.AperFunction,Conductor*%
G36*
X145539690Y-89121216D02*
G01*
X147052429Y-90633954D01*
X147052431Y-90633956D01*
X147077885Y-90650963D01*
X147116071Y-90676477D01*
X147175350Y-90716086D01*
X147175352Y-90716087D01*
X147175356Y-90716089D01*
X147311927Y-90772658D01*
X147311932Y-90772660D01*
X147311936Y-90772660D01*
X147311937Y-90772661D01*
X147456924Y-90801502D01*
X147456927Y-90801502D01*
X147456928Y-90801502D01*
X147604763Y-90801502D01*
X151562262Y-90801502D01*
X151629301Y-90821187D01*
X151675056Y-90873991D01*
X151685000Y-90943149D01*
X151678444Y-90968834D01*
X151651709Y-91040514D01*
X151651708Y-91040516D01*
X151645301Y-91100116D01*
X151645301Y-91100123D01*
X151645300Y-91100135D01*
X151645300Y-92795870D01*
X151645301Y-92795876D01*
X151651708Y-92855483D01*
X151702002Y-92990328D01*
X151702006Y-92990335D01*
X151788252Y-93105544D01*
X151788255Y-93105547D01*
X151903464Y-93191793D01*
X151903471Y-93191797D01*
X151948418Y-93208561D01*
X152038317Y-93242091D01*
X152075241Y-93246060D01*
X152139789Y-93272796D01*
X152179638Y-93330188D01*
X152182133Y-93400013D01*
X152146481Y-93460102D01*
X152134871Y-93469666D01*
X152098584Y-93496030D01*
X151953828Y-93640786D01*
X151833515Y-93806386D01*
X151740581Y-93988776D01*
X151677322Y-94183465D01*
X151645300Y-94385648D01*
X151645300Y-94590351D01*
X151677322Y-94792534D01*
X151740581Y-94987223D01*
X151800380Y-95104583D01*
X151814604Y-95132500D01*
X151833515Y-95169613D01*
X151953828Y-95335213D01*
X152098586Y-95479971D01*
X152253549Y-95592556D01*
X152264190Y-95600287D01*
X152355640Y-95646883D01*
X152356880Y-95647515D01*
X152407676Y-95695490D01*
X152424471Y-95763311D01*
X152401934Y-95829446D01*
X152356880Y-95868485D01*
X152264186Y-95915715D01*
X152098588Y-96036027D01*
X151993533Y-96141082D01*
X151932210Y-96174566D01*
X151862518Y-96169582D01*
X151818173Y-96141082D01*
X145904559Y-90227469D01*
X145904558Y-90227467D01*
X145817433Y-90140342D01*
X145760052Y-90102001D01*
X145714986Y-90071888D01*
X145668178Y-90052500D01*
X145641839Y-90041590D01*
X145641837Y-90041589D01*
X145634492Y-90038547D01*
X145601152Y-90024737D01*
X145524362Y-90009463D01*
X145520209Y-90008637D01*
X145520202Y-90008635D01*
X145480311Y-90000700D01*
X145480307Y-90000700D01*
X145480306Y-90000700D01*
X145400792Y-90000700D01*
X145333753Y-89981015D01*
X145287998Y-89928211D01*
X145278054Y-89859053D01*
X145282861Y-89838382D01*
X145323790Y-89712413D01*
X145332409Y-89658000D01*
X144371486Y-89658000D01*
X144375880Y-89653606D01*
X144428541Y-89562394D01*
X144455800Y-89460661D01*
X144455800Y-89355339D01*
X144428541Y-89253606D01*
X144375880Y-89162394D01*
X144371486Y-89158000D01*
X145332409Y-89158000D01*
X145357718Y-89128366D01*
X145416225Y-89090173D01*
X145486093Y-89089673D01*
X145539690Y-89121216D01*
G37*
%TD.AperFunction*%
%TA.AperFunction,Conductor*%
G36*
X130595487Y-83041585D02*
G01*
X130616128Y-83058218D01*
X134824641Y-87266732D01*
X134824642Y-87266733D01*
X134911767Y-87353858D01*
X134911768Y-87353859D01*
X135014207Y-87422307D01*
X135014213Y-87422310D01*
X135014214Y-87422311D01*
X135128048Y-87469463D01*
X135132853Y-87470418D01*
X135151915Y-87474211D01*
X135151938Y-87474214D01*
X135151944Y-87474216D01*
X135202920Y-87484355D01*
X135241517Y-87492033D01*
X135303428Y-87524418D01*
X135320548Y-87545741D01*
X135320649Y-87545669D01*
X135322156Y-87547744D01*
X135323055Y-87548863D01*
X135323515Y-87549614D01*
X135443828Y-87715213D01*
X135588586Y-87859971D01*
X135739139Y-87969352D01*
X135754190Y-87980287D01*
X135845640Y-88026883D01*
X135846880Y-88027515D01*
X135897676Y-88075490D01*
X135914471Y-88143311D01*
X135891934Y-88209446D01*
X135846880Y-88248485D01*
X135754186Y-88295715D01*
X135588586Y-88416028D01*
X135443828Y-88560786D01*
X135323515Y-88726386D01*
X135230581Y-88908776D01*
X135167322Y-89103465D01*
X135135300Y-89305648D01*
X135135300Y-89510352D01*
X135139734Y-89538349D01*
X135167323Y-89712535D01*
X135167323Y-89712538D01*
X135225044Y-89890182D01*
X135227039Y-89960023D01*
X135190959Y-90019856D01*
X135128258Y-90050684D01*
X135107113Y-90052500D01*
X131310578Y-90052500D01*
X131243539Y-90032815D01*
X131222897Y-90016181D01*
X129271038Y-88064322D01*
X129237553Y-88002999D01*
X129242537Y-87933307D01*
X129271038Y-87888960D01*
X129316076Y-87843923D01*
X129414625Y-87696435D01*
X129482506Y-87532554D01*
X129484125Y-87524418D01*
X129505576Y-87416570D01*
X129517112Y-87358579D01*
X129517112Y-87181197D01*
X129517112Y-87181194D01*
X129517111Y-87181192D01*
X129482508Y-87007229D01*
X129482505Y-87007220D01*
X129414628Y-86843347D01*
X129414621Y-86843334D01*
X129316076Y-86695853D01*
X129316073Y-86695849D01*
X129278431Y-86658207D01*
X129244946Y-86596884D01*
X129242112Y-86570526D01*
X129242112Y-86284851D01*
X129242112Y-86278723D01*
X129242113Y-86278719D01*
X129242113Y-86205839D01*
X129261798Y-86138800D01*
X129261803Y-86138795D01*
X129278437Y-86118155D01*
X129281042Y-86115548D01*
X129281046Y-86115546D01*
X129345786Y-86029063D01*
X129401718Y-85987193D01*
X129469244Y-85981758D01*
X129496567Y-85987193D01*
X129525196Y-85992888D01*
X129525197Y-85992888D01*
X129702581Y-85992888D01*
X129702582Y-85992887D01*
X129761936Y-85981081D01*
X129876546Y-85958284D01*
X129876549Y-85958282D01*
X129876554Y-85958282D01*
X130040435Y-85890401D01*
X130187923Y-85791852D01*
X130313352Y-85666423D01*
X130411901Y-85518935D01*
X130479782Y-85355054D01*
X130486761Y-85319971D01*
X130514387Y-85181083D01*
X130514388Y-85181081D01*
X130514388Y-85003694D01*
X130514387Y-85003692D01*
X130479784Y-84829729D01*
X130479781Y-84829720D01*
X130411904Y-84665847D01*
X130411897Y-84665834D01*
X130313352Y-84518353D01*
X130313349Y-84518349D01*
X130187926Y-84392926D01*
X130187922Y-84392923D01*
X130040441Y-84294378D01*
X130040428Y-84294371D01*
X129876555Y-84226494D01*
X129876546Y-84226491D01*
X129702582Y-84191888D01*
X129702579Y-84191888D01*
X129525197Y-84191888D01*
X129519117Y-84191888D01*
X129452078Y-84172203D01*
X129406323Y-84119399D01*
X129402935Y-84111221D01*
X129367297Y-84015671D01*
X129367293Y-84015664D01*
X129281047Y-83900455D01*
X129281044Y-83900452D01*
X129165835Y-83814206D01*
X129165828Y-83814202D01*
X129030986Y-83763910D01*
X129030985Y-83763909D01*
X129030983Y-83763909D01*
X128971373Y-83757500D01*
X128971363Y-83757500D01*
X128575630Y-83757500D01*
X128575619Y-83757501D01*
X128536753Y-83761679D01*
X128510248Y-83761679D01*
X128471374Y-83757500D01*
X128075630Y-83757500D01*
X128075619Y-83757501D01*
X128036753Y-83761679D01*
X128013860Y-83762014D01*
X128012042Y-83761872D01*
X127971373Y-83757500D01*
X127955987Y-83757500D01*
X127951179Y-83757125D01*
X127922852Y-83746351D01*
X127893782Y-83737815D01*
X127890523Y-83734054D01*
X127885873Y-83732286D01*
X127867869Y-83707910D01*
X127848027Y-83685011D01*
X127846260Y-83680953D01*
X127831943Y-83646390D01*
X127827811Y-83636414D01*
X127827809Y-83636411D01*
X127827807Y-83636407D01*
X127759358Y-83533967D01*
X127759355Y-83533963D01*
X127672236Y-83446844D01*
X127672232Y-83446841D01*
X127569792Y-83378392D01*
X127569783Y-83378387D01*
X127455952Y-83331237D01*
X127455947Y-83331236D01*
X127452822Y-83330614D01*
X127451337Y-83329837D01*
X127450120Y-83329468D01*
X127450190Y-83329237D01*
X127445790Y-83326935D01*
X127437861Y-83326652D01*
X127415275Y-83310969D01*
X127390913Y-83298224D01*
X127385525Y-83290313D01*
X127380469Y-83286803D01*
X127362461Y-83256451D01*
X127337113Y-83195253D01*
X127337112Y-83195252D01*
X127336325Y-83193351D01*
X127328858Y-83123882D01*
X127360133Y-83061403D01*
X127420223Y-83025751D01*
X127450887Y-83021900D01*
X130528448Y-83021900D01*
X130595487Y-83041585D01*
G37*
%TD.AperFunction*%
%TA.AperFunction,Conductor*%
G36*
X139021687Y-81307785D02*
G01*
X139042328Y-81324418D01*
X142444641Y-84726732D01*
X142444642Y-84726733D01*
X142531767Y-84813858D01*
X142586679Y-84850549D01*
X142593109Y-84854845D01*
X142593112Y-84854848D01*
X142627291Y-84877685D01*
X142634214Y-84882311D01*
X142748048Y-84929463D01*
X142861518Y-84952033D01*
X142923428Y-84984417D01*
X142940548Y-85005741D01*
X142940649Y-85005669D01*
X142942156Y-85007743D01*
X142943055Y-85008863D01*
X142943515Y-85009614D01*
X143063828Y-85175213D01*
X143208586Y-85319971D01*
X143363549Y-85432556D01*
X143374190Y-85440287D01*
X143446224Y-85476990D01*
X143467429Y-85487795D01*
X143518225Y-85535770D01*
X143535020Y-85603591D01*
X143512482Y-85669726D01*
X143467429Y-85708765D01*
X143374450Y-85756140D01*
X143208905Y-85876417D01*
X143208904Y-85876417D01*
X143064217Y-86021104D01*
X143064217Y-86021105D01*
X142943940Y-86186650D01*
X142851044Y-86368970D01*
X142787809Y-86563586D01*
X142779191Y-86618000D01*
X143740114Y-86618000D01*
X143735720Y-86622394D01*
X143683059Y-86713606D01*
X143655800Y-86815339D01*
X143655800Y-86920661D01*
X143683059Y-87022394D01*
X143735720Y-87113606D01*
X143740114Y-87118000D01*
X142779191Y-87118000D01*
X142787809Y-87172413D01*
X142851044Y-87367029D01*
X142943940Y-87549349D01*
X143064217Y-87714894D01*
X143064217Y-87714895D01*
X143208904Y-87859582D01*
X143374450Y-87979859D01*
X143467979Y-88027515D01*
X143518775Y-88075490D01*
X143535570Y-88143311D01*
X143513032Y-88209446D01*
X143467979Y-88248485D01*
X143374450Y-88296140D01*
X143208905Y-88416417D01*
X143208904Y-88416417D01*
X143064217Y-88561104D01*
X143064217Y-88561105D01*
X142943940Y-88726650D01*
X142851044Y-88908970D01*
X142787809Y-89103586D01*
X142779191Y-89158000D01*
X143740114Y-89158000D01*
X143735720Y-89162394D01*
X143683059Y-89253606D01*
X143655800Y-89355339D01*
X143655800Y-89460661D01*
X143683059Y-89562394D01*
X143735720Y-89653606D01*
X143740114Y-89658000D01*
X142779191Y-89658000D01*
X142787809Y-89712413D01*
X142828739Y-89838382D01*
X142830734Y-89908223D01*
X142794654Y-89968056D01*
X142731953Y-89998884D01*
X142710808Y-90000700D01*
X139089752Y-90000700D01*
X139022713Y-89981015D01*
X139002071Y-89964381D01*
X138054250Y-89016560D01*
X138046960Y-89009270D01*
X138046958Y-89009267D01*
X137959833Y-88922142D01*
X137908609Y-88887915D01*
X137857386Y-88853688D01*
X137857383Y-88853686D01*
X137857380Y-88853685D01*
X137784330Y-88823428D01*
X137776892Y-88820347D01*
X137743552Y-88806537D01*
X137663685Y-88790651D01*
X137659632Y-88789844D01*
X137659618Y-88789841D01*
X137630081Y-88783966D01*
X137568170Y-88751580D01*
X137551051Y-88730258D01*
X137550951Y-88730331D01*
X137549437Y-88728248D01*
X137548540Y-88727130D01*
X137548091Y-88726398D01*
X137548087Y-88726390D01*
X137548080Y-88726380D01*
X137427771Y-88560786D01*
X137283013Y-88416028D01*
X137117414Y-88295715D01*
X137081665Y-88277500D01*
X137024717Y-88248483D01*
X136973923Y-88200511D01*
X136957128Y-88132690D01*
X136979665Y-88066555D01*
X137024717Y-88027516D01*
X137117410Y-87980287D01*
X137182073Y-87933307D01*
X137283013Y-87859971D01*
X137283015Y-87859968D01*
X137283019Y-87859966D01*
X137427766Y-87715219D01*
X137427768Y-87715215D01*
X137427771Y-87715213D01*
X137480532Y-87642590D01*
X137548087Y-87549610D01*
X137641020Y-87367219D01*
X137704277Y-87172534D01*
X137736300Y-86970352D01*
X137736300Y-86765648D01*
X137716032Y-86637685D01*
X137704277Y-86563465D01*
X137641018Y-86368776D01*
X137606108Y-86300263D01*
X137548087Y-86186390D01*
X137513511Y-86138800D01*
X137427771Y-86020786D01*
X137283013Y-85876028D01*
X137117414Y-85755715D01*
X137110806Y-85752348D01*
X137024717Y-85708483D01*
X136973923Y-85660511D01*
X136957128Y-85592690D01*
X136979665Y-85526555D01*
X137024717Y-85487516D01*
X137117410Y-85440287D01*
X137138570Y-85424913D01*
X137283013Y-85319971D01*
X137283015Y-85319968D01*
X137283019Y-85319966D01*
X137427766Y-85175219D01*
X137427768Y-85175215D01*
X137427771Y-85175213D01*
X137530368Y-85033998D01*
X137548087Y-85009610D01*
X137641020Y-84827219D01*
X137704277Y-84632534D01*
X137736300Y-84430352D01*
X137736300Y-84225648D01*
X137704277Y-84023466D01*
X137701744Y-84015671D01*
X137664307Y-83900452D01*
X137641020Y-83828781D01*
X137641018Y-83828778D01*
X137641018Y-83828776D01*
X137567765Y-83685011D01*
X137548087Y-83646390D01*
X137540356Y-83635749D01*
X137427771Y-83480786D01*
X137283019Y-83336034D01*
X137249242Y-83311494D01*
X137246729Y-83309668D01*
X137204064Y-83254339D01*
X137198085Y-83184726D01*
X137230690Y-83122931D01*
X137291528Y-83088573D01*
X137306362Y-83086060D01*
X137343283Y-83082091D01*
X137478128Y-83031797D01*
X137478127Y-83031797D01*
X137478131Y-83031796D01*
X137593346Y-82945546D01*
X137679596Y-82830331D01*
X137729891Y-82695483D01*
X137736300Y-82635873D01*
X137736299Y-81412099D01*
X137755984Y-81345061D01*
X137808787Y-81299306D01*
X137860299Y-81288100D01*
X138954648Y-81288100D01*
X139021687Y-81307785D01*
G37*
%TD.AperFunction*%
%TA.AperFunction,Conductor*%
G36*
X144305800Y-89092314D02*
G01*
X144301406Y-89087920D01*
X144210194Y-89035259D01*
X144108461Y-89008000D01*
X144003139Y-89008000D01*
X143901406Y-89035259D01*
X143810194Y-89087920D01*
X143805800Y-89092314D01*
X143805800Y-87183686D01*
X143810194Y-87188080D01*
X143901406Y-87240741D01*
X144003139Y-87268000D01*
X144108461Y-87268000D01*
X144210194Y-87240741D01*
X144301406Y-87188080D01*
X144305800Y-87183686D01*
X144305800Y-89092314D01*
G37*
%TD.AperFunction*%
%TD*%
M02*
