%TF.GenerationSoftware,KiCad,Pcbnew,(7.0.0)*%
%TF.CreationDate,2023-08-05T12:50:32+01:00*%
%TF.ProjectId,DataIOTest,44617461-494f-4546-9573-742e6b696361,rev?*%
%TF.SameCoordinates,Original*%
%TF.FileFunction,Legend,Top*%
%TF.FilePolarity,Positive*%
%FSLAX46Y46*%
G04 Gerber Fmt 4.6, Leading zero omitted, Abs format (unit mm)*
G04 Created by KiCad (PCBNEW (7.0.0)) date 2023-08-05 12:50:32*
%MOMM*%
%LPD*%
G01*
G04 APERTURE LIST*
%ADD10C,0.200000*%
%ADD11C,0.500000*%
%ADD12C,0.300000*%
%ADD13C,0.150000*%
%ADD14C,0.476250*%
%ADD15C,0.120000*%
%ADD16C,0.127000*%
G04 APERTURE END LIST*
D10*
X101155476Y-151896666D02*
X101631666Y-151896666D01*
X101060238Y-152182380D02*
X101393571Y-151182380D01*
X101393571Y-151182380D02*
X101726904Y-152182380D01*
X102631666Y-152087142D02*
X102584047Y-152134761D01*
X102584047Y-152134761D02*
X102441190Y-152182380D01*
X102441190Y-152182380D02*
X102345952Y-152182380D01*
X102345952Y-152182380D02*
X102203095Y-152134761D01*
X102203095Y-152134761D02*
X102107857Y-152039523D01*
X102107857Y-152039523D02*
X102060238Y-151944285D01*
X102060238Y-151944285D02*
X102012619Y-151753809D01*
X102012619Y-151753809D02*
X102012619Y-151610952D01*
X102012619Y-151610952D02*
X102060238Y-151420476D01*
X102060238Y-151420476D02*
X102107857Y-151325238D01*
X102107857Y-151325238D02*
X102203095Y-151230000D01*
X102203095Y-151230000D02*
X102345952Y-151182380D01*
X102345952Y-151182380D02*
X102441190Y-151182380D01*
X102441190Y-151182380D02*
X102584047Y-151230000D01*
X102584047Y-151230000D02*
X102631666Y-151277619D01*
X102917381Y-151182380D02*
X103488809Y-151182380D01*
X103203095Y-152182380D02*
X103203095Y-151182380D01*
X103822143Y-152182380D02*
X103822143Y-151182380D01*
X104488809Y-151182380D02*
X104679285Y-151182380D01*
X104679285Y-151182380D02*
X104774523Y-151230000D01*
X104774523Y-151230000D02*
X104869761Y-151325238D01*
X104869761Y-151325238D02*
X104917380Y-151515714D01*
X104917380Y-151515714D02*
X104917380Y-151849047D01*
X104917380Y-151849047D02*
X104869761Y-152039523D01*
X104869761Y-152039523D02*
X104774523Y-152134761D01*
X104774523Y-152134761D02*
X104679285Y-152182380D01*
X104679285Y-152182380D02*
X104488809Y-152182380D01*
X104488809Y-152182380D02*
X104393571Y-152134761D01*
X104393571Y-152134761D02*
X104298333Y-152039523D01*
X104298333Y-152039523D02*
X104250714Y-151849047D01*
X104250714Y-151849047D02*
X104250714Y-151515714D01*
X104250714Y-151515714D02*
X104298333Y-151325238D01*
X104298333Y-151325238D02*
X104393571Y-151230000D01*
X104393571Y-151230000D02*
X104488809Y-151182380D01*
X105345952Y-152182380D02*
X105345952Y-151182380D01*
X105345952Y-151182380D02*
X105917380Y-152182380D01*
X105917380Y-152182380D02*
X105917380Y-151182380D01*
X140636523Y-145705380D02*
X140303190Y-145229190D01*
X140065095Y-145705380D02*
X140065095Y-144705380D01*
X140065095Y-144705380D02*
X140446047Y-144705380D01*
X140446047Y-144705380D02*
X140541285Y-144753000D01*
X140541285Y-144753000D02*
X140588904Y-144800619D01*
X140588904Y-144800619D02*
X140636523Y-144895857D01*
X140636523Y-144895857D02*
X140636523Y-145038714D01*
X140636523Y-145038714D02*
X140588904Y-145133952D01*
X140588904Y-145133952D02*
X140541285Y-145181571D01*
X140541285Y-145181571D02*
X140446047Y-145229190D01*
X140446047Y-145229190D02*
X140065095Y-145229190D01*
X141017476Y-145419666D02*
X141493666Y-145419666D01*
X140922238Y-145705380D02*
X141255571Y-144705380D01*
X141255571Y-144705380D02*
X141588904Y-145705380D01*
X141827000Y-144705380D02*
X142065095Y-145705380D01*
X142065095Y-145705380D02*
X142255571Y-144991095D01*
X142255571Y-144991095D02*
X142446047Y-145705380D01*
X142446047Y-145705380D02*
X142684143Y-144705380D01*
X140065095Y-146102380D02*
X140065095Y-146911904D01*
X140065095Y-146911904D02*
X140112714Y-147007142D01*
X140112714Y-147007142D02*
X140160333Y-147054761D01*
X140160333Y-147054761D02*
X140255571Y-147102380D01*
X140255571Y-147102380D02*
X140446047Y-147102380D01*
X140446047Y-147102380D02*
X140541285Y-147054761D01*
X140541285Y-147054761D02*
X140588904Y-147007142D01*
X140588904Y-147007142D02*
X140636523Y-146911904D01*
X140636523Y-146911904D02*
X140636523Y-146102380D01*
X141065095Y-147054761D02*
X141207952Y-147102380D01*
X141207952Y-147102380D02*
X141446047Y-147102380D01*
X141446047Y-147102380D02*
X141541285Y-147054761D01*
X141541285Y-147054761D02*
X141588904Y-147007142D01*
X141588904Y-147007142D02*
X141636523Y-146911904D01*
X141636523Y-146911904D02*
X141636523Y-146816666D01*
X141636523Y-146816666D02*
X141588904Y-146721428D01*
X141588904Y-146721428D02*
X141541285Y-146673809D01*
X141541285Y-146673809D02*
X141446047Y-146626190D01*
X141446047Y-146626190D02*
X141255571Y-146578571D01*
X141255571Y-146578571D02*
X141160333Y-146530952D01*
X141160333Y-146530952D02*
X141112714Y-146483333D01*
X141112714Y-146483333D02*
X141065095Y-146388095D01*
X141065095Y-146388095D02*
X141065095Y-146292857D01*
X141065095Y-146292857D02*
X141112714Y-146197619D01*
X141112714Y-146197619D02*
X141160333Y-146150000D01*
X141160333Y-146150000D02*
X141255571Y-146102380D01*
X141255571Y-146102380D02*
X141493666Y-146102380D01*
X141493666Y-146102380D02*
X141636523Y-146150000D01*
X142398428Y-146578571D02*
X142541285Y-146626190D01*
X142541285Y-146626190D02*
X142588904Y-146673809D01*
X142588904Y-146673809D02*
X142636523Y-146769047D01*
X142636523Y-146769047D02*
X142636523Y-146911904D01*
X142636523Y-146911904D02*
X142588904Y-147007142D01*
X142588904Y-147007142D02*
X142541285Y-147054761D01*
X142541285Y-147054761D02*
X142446047Y-147102380D01*
X142446047Y-147102380D02*
X142065095Y-147102380D01*
X142065095Y-147102380D02*
X142065095Y-146102380D01*
X142065095Y-146102380D02*
X142398428Y-146102380D01*
X142398428Y-146102380D02*
X142493666Y-146150000D01*
X142493666Y-146150000D02*
X142541285Y-146197619D01*
X142541285Y-146197619D02*
X142588904Y-146292857D01*
X142588904Y-146292857D02*
X142588904Y-146388095D01*
X142588904Y-146388095D02*
X142541285Y-146483333D01*
X142541285Y-146483333D02*
X142493666Y-146530952D01*
X142493666Y-146530952D02*
X142398428Y-146578571D01*
X142398428Y-146578571D02*
X142065095Y-146578571D01*
X150769571Y-150891904D02*
X150769571Y-150558571D01*
X151293380Y-150415714D02*
X151293380Y-150891904D01*
X151293380Y-150891904D02*
X150293380Y-150891904D01*
X150293380Y-150891904D02*
X150293380Y-150415714D01*
X150293380Y-150082380D02*
X151293380Y-149415714D01*
X150293380Y-149415714D02*
X151293380Y-150082380D01*
X150293380Y-149177618D02*
X150293380Y-148606190D01*
X151293380Y-148891904D02*
X150293380Y-148891904D01*
X150293380Y-145684904D02*
X151102904Y-145684904D01*
X151102904Y-145684904D02*
X151198142Y-145637285D01*
X151198142Y-145637285D02*
X151245761Y-145589666D01*
X151245761Y-145589666D02*
X151293380Y-145494428D01*
X151293380Y-145494428D02*
X151293380Y-145303952D01*
X151293380Y-145303952D02*
X151245761Y-145208714D01*
X151245761Y-145208714D02*
X151198142Y-145161095D01*
X151198142Y-145161095D02*
X151102904Y-145113476D01*
X151102904Y-145113476D02*
X150293380Y-145113476D01*
X151245761Y-144684904D02*
X151293380Y-144542047D01*
X151293380Y-144542047D02*
X151293380Y-144303952D01*
X151293380Y-144303952D02*
X151245761Y-144208714D01*
X151245761Y-144208714D02*
X151198142Y-144161095D01*
X151198142Y-144161095D02*
X151102904Y-144113476D01*
X151102904Y-144113476D02*
X151007666Y-144113476D01*
X151007666Y-144113476D02*
X150912428Y-144161095D01*
X150912428Y-144161095D02*
X150864809Y-144208714D01*
X150864809Y-144208714D02*
X150817190Y-144303952D01*
X150817190Y-144303952D02*
X150769571Y-144494428D01*
X150769571Y-144494428D02*
X150721952Y-144589666D01*
X150721952Y-144589666D02*
X150674333Y-144637285D01*
X150674333Y-144637285D02*
X150579095Y-144684904D01*
X150579095Y-144684904D02*
X150483857Y-144684904D01*
X150483857Y-144684904D02*
X150388619Y-144637285D01*
X150388619Y-144637285D02*
X150341000Y-144589666D01*
X150341000Y-144589666D02*
X150293380Y-144494428D01*
X150293380Y-144494428D02*
X150293380Y-144256333D01*
X150293380Y-144256333D02*
X150341000Y-144113476D01*
X150769571Y-143351571D02*
X150817190Y-143208714D01*
X150817190Y-143208714D02*
X150864809Y-143161095D01*
X150864809Y-143161095D02*
X150960047Y-143113476D01*
X150960047Y-143113476D02*
X151102904Y-143113476D01*
X151102904Y-143113476D02*
X151198142Y-143161095D01*
X151198142Y-143161095D02*
X151245761Y-143208714D01*
X151245761Y-143208714D02*
X151293380Y-143303952D01*
X151293380Y-143303952D02*
X151293380Y-143684904D01*
X151293380Y-143684904D02*
X150293380Y-143684904D01*
X150293380Y-143684904D02*
X150293380Y-143351571D01*
X150293380Y-143351571D02*
X150341000Y-143256333D01*
X150341000Y-143256333D02*
X150388619Y-143208714D01*
X150388619Y-143208714D02*
X150483857Y-143161095D01*
X150483857Y-143161095D02*
X150579095Y-143161095D01*
X150579095Y-143161095D02*
X150674333Y-143208714D01*
X150674333Y-143208714D02*
X150721952Y-143256333D01*
X150721952Y-143256333D02*
X150769571Y-143351571D01*
X150769571Y-143351571D02*
X150769571Y-143684904D01*
X148955095Y-111796380D02*
X148955095Y-110796380D01*
X148955095Y-110796380D02*
X149336047Y-110796380D01*
X149336047Y-110796380D02*
X149431285Y-110844000D01*
X149431285Y-110844000D02*
X149478904Y-110891619D01*
X149478904Y-110891619D02*
X149526523Y-110986857D01*
X149526523Y-110986857D02*
X149526523Y-111129714D01*
X149526523Y-111129714D02*
X149478904Y-111224952D01*
X149478904Y-111224952D02*
X149431285Y-111272571D01*
X149431285Y-111272571D02*
X149336047Y-111320190D01*
X149336047Y-111320190D02*
X148955095Y-111320190D01*
X150288428Y-111272571D02*
X150431285Y-111320190D01*
X150431285Y-111320190D02*
X150478904Y-111367809D01*
X150478904Y-111367809D02*
X150526523Y-111463047D01*
X150526523Y-111463047D02*
X150526523Y-111605904D01*
X150526523Y-111605904D02*
X150478904Y-111701142D01*
X150478904Y-111701142D02*
X150431285Y-111748761D01*
X150431285Y-111748761D02*
X150336047Y-111796380D01*
X150336047Y-111796380D02*
X149955095Y-111796380D01*
X149955095Y-111796380D02*
X149955095Y-110796380D01*
X149955095Y-110796380D02*
X150288428Y-110796380D01*
X150288428Y-110796380D02*
X150383666Y-110844000D01*
X150383666Y-110844000D02*
X150431285Y-110891619D01*
X150431285Y-110891619D02*
X150478904Y-110986857D01*
X150478904Y-110986857D02*
X150478904Y-111082095D01*
X150478904Y-111082095D02*
X150431285Y-111177333D01*
X150431285Y-111177333D02*
X150383666Y-111224952D01*
X150383666Y-111224952D02*
X150288428Y-111272571D01*
X150288428Y-111272571D02*
X149955095Y-111272571D01*
X150907476Y-110891619D02*
X150955095Y-110844000D01*
X150955095Y-110844000D02*
X151050333Y-110796380D01*
X151050333Y-110796380D02*
X151288428Y-110796380D01*
X151288428Y-110796380D02*
X151383666Y-110844000D01*
X151383666Y-110844000D02*
X151431285Y-110891619D01*
X151431285Y-110891619D02*
X151478904Y-110986857D01*
X151478904Y-110986857D02*
X151478904Y-111082095D01*
X151478904Y-111082095D02*
X151431285Y-111224952D01*
X151431285Y-111224952D02*
X150859857Y-111796380D01*
X150859857Y-111796380D02*
X151478904Y-111796380D01*
X152097952Y-110796380D02*
X152193190Y-110796380D01*
X152193190Y-110796380D02*
X152288428Y-110844000D01*
X152288428Y-110844000D02*
X152336047Y-110891619D01*
X152336047Y-110891619D02*
X152383666Y-110986857D01*
X152383666Y-110986857D02*
X152431285Y-111177333D01*
X152431285Y-111177333D02*
X152431285Y-111415428D01*
X152431285Y-111415428D02*
X152383666Y-111605904D01*
X152383666Y-111605904D02*
X152336047Y-111701142D01*
X152336047Y-111701142D02*
X152288428Y-111748761D01*
X152288428Y-111748761D02*
X152193190Y-111796380D01*
X152193190Y-111796380D02*
X152097952Y-111796380D01*
X152097952Y-111796380D02*
X152002714Y-111748761D01*
X152002714Y-111748761D02*
X151955095Y-111701142D01*
X151955095Y-111701142D02*
X151907476Y-111605904D01*
X151907476Y-111605904D02*
X151859857Y-111415428D01*
X151859857Y-111415428D02*
X151859857Y-111177333D01*
X151859857Y-111177333D02*
X151907476Y-110986857D01*
X151907476Y-110986857D02*
X151955095Y-110891619D01*
X151955095Y-110891619D02*
X152002714Y-110844000D01*
X152002714Y-110844000D02*
X152097952Y-110796380D01*
X148955095Y-106843380D02*
X148955095Y-105843380D01*
X148955095Y-105843380D02*
X149336047Y-105843380D01*
X149336047Y-105843380D02*
X149431285Y-105891000D01*
X149431285Y-105891000D02*
X149478904Y-105938619D01*
X149478904Y-105938619D02*
X149526523Y-106033857D01*
X149526523Y-106033857D02*
X149526523Y-106176714D01*
X149526523Y-106176714D02*
X149478904Y-106271952D01*
X149478904Y-106271952D02*
X149431285Y-106319571D01*
X149431285Y-106319571D02*
X149336047Y-106367190D01*
X149336047Y-106367190D02*
X148955095Y-106367190D01*
X150288428Y-106319571D02*
X150431285Y-106367190D01*
X150431285Y-106367190D02*
X150478904Y-106414809D01*
X150478904Y-106414809D02*
X150526523Y-106510047D01*
X150526523Y-106510047D02*
X150526523Y-106652904D01*
X150526523Y-106652904D02*
X150478904Y-106748142D01*
X150478904Y-106748142D02*
X150431285Y-106795761D01*
X150431285Y-106795761D02*
X150336047Y-106843380D01*
X150336047Y-106843380D02*
X149955095Y-106843380D01*
X149955095Y-106843380D02*
X149955095Y-105843380D01*
X149955095Y-105843380D02*
X150288428Y-105843380D01*
X150288428Y-105843380D02*
X150383666Y-105891000D01*
X150383666Y-105891000D02*
X150431285Y-105938619D01*
X150431285Y-105938619D02*
X150478904Y-106033857D01*
X150478904Y-106033857D02*
X150478904Y-106129095D01*
X150478904Y-106129095D02*
X150431285Y-106224333D01*
X150431285Y-106224333D02*
X150383666Y-106271952D01*
X150383666Y-106271952D02*
X150288428Y-106319571D01*
X150288428Y-106319571D02*
X149955095Y-106319571D01*
X150907476Y-105938619D02*
X150955095Y-105891000D01*
X150955095Y-105891000D02*
X151050333Y-105843380D01*
X151050333Y-105843380D02*
X151288428Y-105843380D01*
X151288428Y-105843380D02*
X151383666Y-105891000D01*
X151383666Y-105891000D02*
X151431285Y-105938619D01*
X151431285Y-105938619D02*
X151478904Y-106033857D01*
X151478904Y-106033857D02*
X151478904Y-106129095D01*
X151478904Y-106129095D02*
X151431285Y-106271952D01*
X151431285Y-106271952D02*
X150859857Y-106843380D01*
X150859857Y-106843380D02*
X151478904Y-106843380D01*
X151859857Y-105938619D02*
X151907476Y-105891000D01*
X151907476Y-105891000D02*
X152002714Y-105843380D01*
X152002714Y-105843380D02*
X152240809Y-105843380D01*
X152240809Y-105843380D02*
X152336047Y-105891000D01*
X152336047Y-105891000D02*
X152383666Y-105938619D01*
X152383666Y-105938619D02*
X152431285Y-106033857D01*
X152431285Y-106033857D02*
X152431285Y-106129095D01*
X152431285Y-106129095D02*
X152383666Y-106271952D01*
X152383666Y-106271952D02*
X151812238Y-106843380D01*
X151812238Y-106843380D02*
X152431285Y-106843380D01*
X148955095Y-99096380D02*
X148955095Y-98096380D01*
X148955095Y-98096380D02*
X149336047Y-98096380D01*
X149336047Y-98096380D02*
X149431285Y-98144000D01*
X149431285Y-98144000D02*
X149478904Y-98191619D01*
X149478904Y-98191619D02*
X149526523Y-98286857D01*
X149526523Y-98286857D02*
X149526523Y-98429714D01*
X149526523Y-98429714D02*
X149478904Y-98524952D01*
X149478904Y-98524952D02*
X149431285Y-98572571D01*
X149431285Y-98572571D02*
X149336047Y-98620190D01*
X149336047Y-98620190D02*
X148955095Y-98620190D01*
X150288428Y-98572571D02*
X150431285Y-98620190D01*
X150431285Y-98620190D02*
X150478904Y-98667809D01*
X150478904Y-98667809D02*
X150526523Y-98763047D01*
X150526523Y-98763047D02*
X150526523Y-98905904D01*
X150526523Y-98905904D02*
X150478904Y-99001142D01*
X150478904Y-99001142D02*
X150431285Y-99048761D01*
X150431285Y-99048761D02*
X150336047Y-99096380D01*
X150336047Y-99096380D02*
X149955095Y-99096380D01*
X149955095Y-99096380D02*
X149955095Y-98096380D01*
X149955095Y-98096380D02*
X150288428Y-98096380D01*
X150288428Y-98096380D02*
X150383666Y-98144000D01*
X150383666Y-98144000D02*
X150431285Y-98191619D01*
X150431285Y-98191619D02*
X150478904Y-98286857D01*
X150478904Y-98286857D02*
X150478904Y-98382095D01*
X150478904Y-98382095D02*
X150431285Y-98477333D01*
X150431285Y-98477333D02*
X150383666Y-98524952D01*
X150383666Y-98524952D02*
X150288428Y-98572571D01*
X150288428Y-98572571D02*
X149955095Y-98572571D01*
X150907476Y-98191619D02*
X150955095Y-98144000D01*
X150955095Y-98144000D02*
X151050333Y-98096380D01*
X151050333Y-98096380D02*
X151288428Y-98096380D01*
X151288428Y-98096380D02*
X151383666Y-98144000D01*
X151383666Y-98144000D02*
X151431285Y-98191619D01*
X151431285Y-98191619D02*
X151478904Y-98286857D01*
X151478904Y-98286857D02*
X151478904Y-98382095D01*
X151478904Y-98382095D02*
X151431285Y-98524952D01*
X151431285Y-98524952D02*
X150859857Y-99096380D01*
X150859857Y-99096380D02*
X151478904Y-99096380D01*
X152383666Y-98096380D02*
X151907476Y-98096380D01*
X151907476Y-98096380D02*
X151859857Y-98572571D01*
X151859857Y-98572571D02*
X151907476Y-98524952D01*
X151907476Y-98524952D02*
X152002714Y-98477333D01*
X152002714Y-98477333D02*
X152240809Y-98477333D01*
X152240809Y-98477333D02*
X152336047Y-98524952D01*
X152336047Y-98524952D02*
X152383666Y-98572571D01*
X152383666Y-98572571D02*
X152431285Y-98667809D01*
X152431285Y-98667809D02*
X152431285Y-98905904D01*
X152431285Y-98905904D02*
X152383666Y-99001142D01*
X152383666Y-99001142D02*
X152336047Y-99048761D01*
X152336047Y-99048761D02*
X152240809Y-99096380D01*
X152240809Y-99096380D02*
X152002714Y-99096380D01*
X152002714Y-99096380D02*
X151907476Y-99048761D01*
X151907476Y-99048761D02*
X151859857Y-99001142D01*
X148955095Y-96556380D02*
X148955095Y-95556380D01*
X148955095Y-95556380D02*
X149336047Y-95556380D01*
X149336047Y-95556380D02*
X149431285Y-95604000D01*
X149431285Y-95604000D02*
X149478904Y-95651619D01*
X149478904Y-95651619D02*
X149526523Y-95746857D01*
X149526523Y-95746857D02*
X149526523Y-95889714D01*
X149526523Y-95889714D02*
X149478904Y-95984952D01*
X149478904Y-95984952D02*
X149431285Y-96032571D01*
X149431285Y-96032571D02*
X149336047Y-96080190D01*
X149336047Y-96080190D02*
X148955095Y-96080190D01*
X150288428Y-96032571D02*
X150431285Y-96080190D01*
X150431285Y-96080190D02*
X150478904Y-96127809D01*
X150478904Y-96127809D02*
X150526523Y-96223047D01*
X150526523Y-96223047D02*
X150526523Y-96365904D01*
X150526523Y-96365904D02*
X150478904Y-96461142D01*
X150478904Y-96461142D02*
X150431285Y-96508761D01*
X150431285Y-96508761D02*
X150336047Y-96556380D01*
X150336047Y-96556380D02*
X149955095Y-96556380D01*
X149955095Y-96556380D02*
X149955095Y-95556380D01*
X149955095Y-95556380D02*
X150288428Y-95556380D01*
X150288428Y-95556380D02*
X150383666Y-95604000D01*
X150383666Y-95604000D02*
X150431285Y-95651619D01*
X150431285Y-95651619D02*
X150478904Y-95746857D01*
X150478904Y-95746857D02*
X150478904Y-95842095D01*
X150478904Y-95842095D02*
X150431285Y-95937333D01*
X150431285Y-95937333D02*
X150383666Y-95984952D01*
X150383666Y-95984952D02*
X150288428Y-96032571D01*
X150288428Y-96032571D02*
X149955095Y-96032571D01*
X150859857Y-95556380D02*
X151478904Y-95556380D01*
X151478904Y-95556380D02*
X151145571Y-95937333D01*
X151145571Y-95937333D02*
X151288428Y-95937333D01*
X151288428Y-95937333D02*
X151383666Y-95984952D01*
X151383666Y-95984952D02*
X151431285Y-96032571D01*
X151431285Y-96032571D02*
X151478904Y-96127809D01*
X151478904Y-96127809D02*
X151478904Y-96365904D01*
X151478904Y-96365904D02*
X151431285Y-96461142D01*
X151431285Y-96461142D02*
X151383666Y-96508761D01*
X151383666Y-96508761D02*
X151288428Y-96556380D01*
X151288428Y-96556380D02*
X151002714Y-96556380D01*
X151002714Y-96556380D02*
X150907476Y-96508761D01*
X150907476Y-96508761D02*
X150859857Y-96461142D01*
X152097952Y-95556380D02*
X152193190Y-95556380D01*
X152193190Y-95556380D02*
X152288428Y-95604000D01*
X152288428Y-95604000D02*
X152336047Y-95651619D01*
X152336047Y-95651619D02*
X152383666Y-95746857D01*
X152383666Y-95746857D02*
X152431285Y-95937333D01*
X152431285Y-95937333D02*
X152431285Y-96175428D01*
X152431285Y-96175428D02*
X152383666Y-96365904D01*
X152383666Y-96365904D02*
X152336047Y-96461142D01*
X152336047Y-96461142D02*
X152288428Y-96508761D01*
X152288428Y-96508761D02*
X152193190Y-96556380D01*
X152193190Y-96556380D02*
X152097952Y-96556380D01*
X152097952Y-96556380D02*
X152002714Y-96508761D01*
X152002714Y-96508761D02*
X151955095Y-96461142D01*
X151955095Y-96461142D02*
X151907476Y-96365904D01*
X151907476Y-96365904D02*
X151859857Y-96175428D01*
X151859857Y-96175428D02*
X151859857Y-95937333D01*
X151859857Y-95937333D02*
X151907476Y-95746857D01*
X151907476Y-95746857D02*
X151955095Y-95651619D01*
X151955095Y-95651619D02*
X152002714Y-95604000D01*
X152002714Y-95604000D02*
X152097952Y-95556380D01*
X148955095Y-104176380D02*
X148955095Y-103176380D01*
X148955095Y-103176380D02*
X149336047Y-103176380D01*
X149336047Y-103176380D02*
X149431285Y-103224000D01*
X149431285Y-103224000D02*
X149478904Y-103271619D01*
X149478904Y-103271619D02*
X149526523Y-103366857D01*
X149526523Y-103366857D02*
X149526523Y-103509714D01*
X149526523Y-103509714D02*
X149478904Y-103604952D01*
X149478904Y-103604952D02*
X149431285Y-103652571D01*
X149431285Y-103652571D02*
X149336047Y-103700190D01*
X149336047Y-103700190D02*
X148955095Y-103700190D01*
X150288428Y-103652571D02*
X150431285Y-103700190D01*
X150431285Y-103700190D02*
X150478904Y-103747809D01*
X150478904Y-103747809D02*
X150526523Y-103843047D01*
X150526523Y-103843047D02*
X150526523Y-103985904D01*
X150526523Y-103985904D02*
X150478904Y-104081142D01*
X150478904Y-104081142D02*
X150431285Y-104128761D01*
X150431285Y-104128761D02*
X150336047Y-104176380D01*
X150336047Y-104176380D02*
X149955095Y-104176380D01*
X149955095Y-104176380D02*
X149955095Y-103176380D01*
X149955095Y-103176380D02*
X150288428Y-103176380D01*
X150288428Y-103176380D02*
X150383666Y-103224000D01*
X150383666Y-103224000D02*
X150431285Y-103271619D01*
X150431285Y-103271619D02*
X150478904Y-103366857D01*
X150478904Y-103366857D02*
X150478904Y-103462095D01*
X150478904Y-103462095D02*
X150431285Y-103557333D01*
X150431285Y-103557333D02*
X150383666Y-103604952D01*
X150383666Y-103604952D02*
X150288428Y-103652571D01*
X150288428Y-103652571D02*
X149955095Y-103652571D01*
X150907476Y-103271619D02*
X150955095Y-103224000D01*
X150955095Y-103224000D02*
X151050333Y-103176380D01*
X151050333Y-103176380D02*
X151288428Y-103176380D01*
X151288428Y-103176380D02*
X151383666Y-103224000D01*
X151383666Y-103224000D02*
X151431285Y-103271619D01*
X151431285Y-103271619D02*
X151478904Y-103366857D01*
X151478904Y-103366857D02*
X151478904Y-103462095D01*
X151478904Y-103462095D02*
X151431285Y-103604952D01*
X151431285Y-103604952D02*
X150859857Y-104176380D01*
X150859857Y-104176380D02*
X151478904Y-104176380D01*
X151812238Y-103176380D02*
X152431285Y-103176380D01*
X152431285Y-103176380D02*
X152097952Y-103557333D01*
X152097952Y-103557333D02*
X152240809Y-103557333D01*
X152240809Y-103557333D02*
X152336047Y-103604952D01*
X152336047Y-103604952D02*
X152383666Y-103652571D01*
X152383666Y-103652571D02*
X152431285Y-103747809D01*
X152431285Y-103747809D02*
X152431285Y-103985904D01*
X152431285Y-103985904D02*
X152383666Y-104081142D01*
X152383666Y-104081142D02*
X152336047Y-104128761D01*
X152336047Y-104128761D02*
X152240809Y-104176380D01*
X152240809Y-104176380D02*
X151955095Y-104176380D01*
X151955095Y-104176380D02*
X151859857Y-104128761D01*
X151859857Y-104128761D02*
X151812238Y-104081142D01*
X148955095Y-94016380D02*
X148955095Y-93016380D01*
X148955095Y-93016380D02*
X149336047Y-93016380D01*
X149336047Y-93016380D02*
X149431285Y-93064000D01*
X149431285Y-93064000D02*
X149478904Y-93111619D01*
X149478904Y-93111619D02*
X149526523Y-93206857D01*
X149526523Y-93206857D02*
X149526523Y-93349714D01*
X149526523Y-93349714D02*
X149478904Y-93444952D01*
X149478904Y-93444952D02*
X149431285Y-93492571D01*
X149431285Y-93492571D02*
X149336047Y-93540190D01*
X149336047Y-93540190D02*
X148955095Y-93540190D01*
X150288428Y-93492571D02*
X150431285Y-93540190D01*
X150431285Y-93540190D02*
X150478904Y-93587809D01*
X150478904Y-93587809D02*
X150526523Y-93683047D01*
X150526523Y-93683047D02*
X150526523Y-93825904D01*
X150526523Y-93825904D02*
X150478904Y-93921142D01*
X150478904Y-93921142D02*
X150431285Y-93968761D01*
X150431285Y-93968761D02*
X150336047Y-94016380D01*
X150336047Y-94016380D02*
X149955095Y-94016380D01*
X149955095Y-94016380D02*
X149955095Y-93016380D01*
X149955095Y-93016380D02*
X150288428Y-93016380D01*
X150288428Y-93016380D02*
X150383666Y-93064000D01*
X150383666Y-93064000D02*
X150431285Y-93111619D01*
X150431285Y-93111619D02*
X150478904Y-93206857D01*
X150478904Y-93206857D02*
X150478904Y-93302095D01*
X150478904Y-93302095D02*
X150431285Y-93397333D01*
X150431285Y-93397333D02*
X150383666Y-93444952D01*
X150383666Y-93444952D02*
X150288428Y-93492571D01*
X150288428Y-93492571D02*
X149955095Y-93492571D01*
X150859857Y-93016380D02*
X151478904Y-93016380D01*
X151478904Y-93016380D02*
X151145571Y-93397333D01*
X151145571Y-93397333D02*
X151288428Y-93397333D01*
X151288428Y-93397333D02*
X151383666Y-93444952D01*
X151383666Y-93444952D02*
X151431285Y-93492571D01*
X151431285Y-93492571D02*
X151478904Y-93587809D01*
X151478904Y-93587809D02*
X151478904Y-93825904D01*
X151478904Y-93825904D02*
X151431285Y-93921142D01*
X151431285Y-93921142D02*
X151383666Y-93968761D01*
X151383666Y-93968761D02*
X151288428Y-94016380D01*
X151288428Y-94016380D02*
X151002714Y-94016380D01*
X151002714Y-94016380D02*
X150907476Y-93968761D01*
X150907476Y-93968761D02*
X150859857Y-93921142D01*
X152431285Y-94016380D02*
X151859857Y-94016380D01*
X152145571Y-94016380D02*
X152145571Y-93016380D01*
X152145571Y-93016380D02*
X152050333Y-93159238D01*
X152050333Y-93159238D02*
X151955095Y-93254476D01*
X151955095Y-93254476D02*
X151859857Y-93302095D01*
X148955095Y-101636380D02*
X148955095Y-100636380D01*
X148955095Y-100636380D02*
X149336047Y-100636380D01*
X149336047Y-100636380D02*
X149431285Y-100684000D01*
X149431285Y-100684000D02*
X149478904Y-100731619D01*
X149478904Y-100731619D02*
X149526523Y-100826857D01*
X149526523Y-100826857D02*
X149526523Y-100969714D01*
X149526523Y-100969714D02*
X149478904Y-101064952D01*
X149478904Y-101064952D02*
X149431285Y-101112571D01*
X149431285Y-101112571D02*
X149336047Y-101160190D01*
X149336047Y-101160190D02*
X148955095Y-101160190D01*
X150288428Y-101112571D02*
X150431285Y-101160190D01*
X150431285Y-101160190D02*
X150478904Y-101207809D01*
X150478904Y-101207809D02*
X150526523Y-101303047D01*
X150526523Y-101303047D02*
X150526523Y-101445904D01*
X150526523Y-101445904D02*
X150478904Y-101541142D01*
X150478904Y-101541142D02*
X150431285Y-101588761D01*
X150431285Y-101588761D02*
X150336047Y-101636380D01*
X150336047Y-101636380D02*
X149955095Y-101636380D01*
X149955095Y-101636380D02*
X149955095Y-100636380D01*
X149955095Y-100636380D02*
X150288428Y-100636380D01*
X150288428Y-100636380D02*
X150383666Y-100684000D01*
X150383666Y-100684000D02*
X150431285Y-100731619D01*
X150431285Y-100731619D02*
X150478904Y-100826857D01*
X150478904Y-100826857D02*
X150478904Y-100922095D01*
X150478904Y-100922095D02*
X150431285Y-101017333D01*
X150431285Y-101017333D02*
X150383666Y-101064952D01*
X150383666Y-101064952D02*
X150288428Y-101112571D01*
X150288428Y-101112571D02*
X149955095Y-101112571D01*
X150907476Y-100731619D02*
X150955095Y-100684000D01*
X150955095Y-100684000D02*
X151050333Y-100636380D01*
X151050333Y-100636380D02*
X151288428Y-100636380D01*
X151288428Y-100636380D02*
X151383666Y-100684000D01*
X151383666Y-100684000D02*
X151431285Y-100731619D01*
X151431285Y-100731619D02*
X151478904Y-100826857D01*
X151478904Y-100826857D02*
X151478904Y-100922095D01*
X151478904Y-100922095D02*
X151431285Y-101064952D01*
X151431285Y-101064952D02*
X150859857Y-101636380D01*
X150859857Y-101636380D02*
X151478904Y-101636380D01*
X152336047Y-100969714D02*
X152336047Y-101636380D01*
X152097952Y-100588761D02*
X151859857Y-101303047D01*
X151859857Y-101303047D02*
X152478904Y-101303047D01*
X148955095Y-109256380D02*
X148955095Y-108256380D01*
X148955095Y-108256380D02*
X149336047Y-108256380D01*
X149336047Y-108256380D02*
X149431285Y-108304000D01*
X149431285Y-108304000D02*
X149478904Y-108351619D01*
X149478904Y-108351619D02*
X149526523Y-108446857D01*
X149526523Y-108446857D02*
X149526523Y-108589714D01*
X149526523Y-108589714D02*
X149478904Y-108684952D01*
X149478904Y-108684952D02*
X149431285Y-108732571D01*
X149431285Y-108732571D02*
X149336047Y-108780190D01*
X149336047Y-108780190D02*
X148955095Y-108780190D01*
X150288428Y-108732571D02*
X150431285Y-108780190D01*
X150431285Y-108780190D02*
X150478904Y-108827809D01*
X150478904Y-108827809D02*
X150526523Y-108923047D01*
X150526523Y-108923047D02*
X150526523Y-109065904D01*
X150526523Y-109065904D02*
X150478904Y-109161142D01*
X150478904Y-109161142D02*
X150431285Y-109208761D01*
X150431285Y-109208761D02*
X150336047Y-109256380D01*
X150336047Y-109256380D02*
X149955095Y-109256380D01*
X149955095Y-109256380D02*
X149955095Y-108256380D01*
X149955095Y-108256380D02*
X150288428Y-108256380D01*
X150288428Y-108256380D02*
X150383666Y-108304000D01*
X150383666Y-108304000D02*
X150431285Y-108351619D01*
X150431285Y-108351619D02*
X150478904Y-108446857D01*
X150478904Y-108446857D02*
X150478904Y-108542095D01*
X150478904Y-108542095D02*
X150431285Y-108637333D01*
X150431285Y-108637333D02*
X150383666Y-108684952D01*
X150383666Y-108684952D02*
X150288428Y-108732571D01*
X150288428Y-108732571D02*
X149955095Y-108732571D01*
X150907476Y-108351619D02*
X150955095Y-108304000D01*
X150955095Y-108304000D02*
X151050333Y-108256380D01*
X151050333Y-108256380D02*
X151288428Y-108256380D01*
X151288428Y-108256380D02*
X151383666Y-108304000D01*
X151383666Y-108304000D02*
X151431285Y-108351619D01*
X151431285Y-108351619D02*
X151478904Y-108446857D01*
X151478904Y-108446857D02*
X151478904Y-108542095D01*
X151478904Y-108542095D02*
X151431285Y-108684952D01*
X151431285Y-108684952D02*
X150859857Y-109256380D01*
X150859857Y-109256380D02*
X151478904Y-109256380D01*
X152431285Y-109256380D02*
X151859857Y-109256380D01*
X152145571Y-109256380D02*
X152145571Y-108256380D01*
X152145571Y-108256380D02*
X152050333Y-108399238D01*
X152050333Y-108399238D02*
X151955095Y-108494476D01*
X151955095Y-108494476D02*
X151859857Y-108542095D01*
X89519095Y-105954380D02*
X89519095Y-104954380D01*
X89519095Y-104954380D02*
X89900047Y-104954380D01*
X89900047Y-104954380D02*
X89995285Y-105002000D01*
X89995285Y-105002000D02*
X90042904Y-105049619D01*
X90042904Y-105049619D02*
X90090523Y-105144857D01*
X90090523Y-105144857D02*
X90090523Y-105287714D01*
X90090523Y-105287714D02*
X90042904Y-105382952D01*
X90042904Y-105382952D02*
X89995285Y-105430571D01*
X89995285Y-105430571D02*
X89900047Y-105478190D01*
X89900047Y-105478190D02*
X89519095Y-105478190D01*
X90852428Y-105430571D02*
X90995285Y-105478190D01*
X90995285Y-105478190D02*
X91042904Y-105525809D01*
X91042904Y-105525809D02*
X91090523Y-105621047D01*
X91090523Y-105621047D02*
X91090523Y-105763904D01*
X91090523Y-105763904D02*
X91042904Y-105859142D01*
X91042904Y-105859142D02*
X90995285Y-105906761D01*
X90995285Y-105906761D02*
X90900047Y-105954380D01*
X90900047Y-105954380D02*
X90519095Y-105954380D01*
X90519095Y-105954380D02*
X90519095Y-104954380D01*
X90519095Y-104954380D02*
X90852428Y-104954380D01*
X90852428Y-104954380D02*
X90947666Y-105002000D01*
X90947666Y-105002000D02*
X90995285Y-105049619D01*
X90995285Y-105049619D02*
X91042904Y-105144857D01*
X91042904Y-105144857D02*
X91042904Y-105240095D01*
X91042904Y-105240095D02*
X90995285Y-105335333D01*
X90995285Y-105335333D02*
X90947666Y-105382952D01*
X90947666Y-105382952D02*
X90852428Y-105430571D01*
X90852428Y-105430571D02*
X90519095Y-105430571D01*
X92042904Y-105954380D02*
X91471476Y-105954380D01*
X91757190Y-105954380D02*
X91757190Y-104954380D01*
X91757190Y-104954380D02*
X91661952Y-105097238D01*
X91661952Y-105097238D02*
X91566714Y-105192476D01*
X91566714Y-105192476D02*
X91471476Y-105240095D01*
X92947666Y-104954380D02*
X92471476Y-104954380D01*
X92471476Y-104954380D02*
X92423857Y-105430571D01*
X92423857Y-105430571D02*
X92471476Y-105382952D01*
X92471476Y-105382952D02*
X92566714Y-105335333D01*
X92566714Y-105335333D02*
X92804809Y-105335333D01*
X92804809Y-105335333D02*
X92900047Y-105382952D01*
X92900047Y-105382952D02*
X92947666Y-105430571D01*
X92947666Y-105430571D02*
X92995285Y-105525809D01*
X92995285Y-105525809D02*
X92995285Y-105763904D01*
X92995285Y-105763904D02*
X92947666Y-105859142D01*
X92947666Y-105859142D02*
X92900047Y-105906761D01*
X92900047Y-105906761D02*
X92804809Y-105954380D01*
X92804809Y-105954380D02*
X92566714Y-105954380D01*
X92566714Y-105954380D02*
X92471476Y-105906761D01*
X92471476Y-105906761D02*
X92423857Y-105859142D01*
X89519095Y-103414380D02*
X89519095Y-102414380D01*
X89519095Y-102414380D02*
X89900047Y-102414380D01*
X89900047Y-102414380D02*
X89995285Y-102462000D01*
X89995285Y-102462000D02*
X90042904Y-102509619D01*
X90042904Y-102509619D02*
X90090523Y-102604857D01*
X90090523Y-102604857D02*
X90090523Y-102747714D01*
X90090523Y-102747714D02*
X90042904Y-102842952D01*
X90042904Y-102842952D02*
X89995285Y-102890571D01*
X89995285Y-102890571D02*
X89900047Y-102938190D01*
X89900047Y-102938190D02*
X89519095Y-102938190D01*
X90852428Y-102890571D02*
X90995285Y-102938190D01*
X90995285Y-102938190D02*
X91042904Y-102985809D01*
X91042904Y-102985809D02*
X91090523Y-103081047D01*
X91090523Y-103081047D02*
X91090523Y-103223904D01*
X91090523Y-103223904D02*
X91042904Y-103319142D01*
X91042904Y-103319142D02*
X90995285Y-103366761D01*
X90995285Y-103366761D02*
X90900047Y-103414380D01*
X90900047Y-103414380D02*
X90519095Y-103414380D01*
X90519095Y-103414380D02*
X90519095Y-102414380D01*
X90519095Y-102414380D02*
X90852428Y-102414380D01*
X90852428Y-102414380D02*
X90947666Y-102462000D01*
X90947666Y-102462000D02*
X90995285Y-102509619D01*
X90995285Y-102509619D02*
X91042904Y-102604857D01*
X91042904Y-102604857D02*
X91042904Y-102700095D01*
X91042904Y-102700095D02*
X90995285Y-102795333D01*
X90995285Y-102795333D02*
X90947666Y-102842952D01*
X90947666Y-102842952D02*
X90852428Y-102890571D01*
X90852428Y-102890571D02*
X90519095Y-102890571D01*
X92042904Y-103414380D02*
X91471476Y-103414380D01*
X91757190Y-103414380D02*
X91757190Y-102414380D01*
X91757190Y-102414380D02*
X91661952Y-102557238D01*
X91661952Y-102557238D02*
X91566714Y-102652476D01*
X91566714Y-102652476D02*
X91471476Y-102700095D01*
X92900047Y-102747714D02*
X92900047Y-103414380D01*
X92661952Y-102366761D02*
X92423857Y-103081047D01*
X92423857Y-103081047D02*
X93042904Y-103081047D01*
X89519095Y-101001380D02*
X89519095Y-100001380D01*
X89519095Y-100001380D02*
X89900047Y-100001380D01*
X89900047Y-100001380D02*
X89995285Y-100049000D01*
X89995285Y-100049000D02*
X90042904Y-100096619D01*
X90042904Y-100096619D02*
X90090523Y-100191857D01*
X90090523Y-100191857D02*
X90090523Y-100334714D01*
X90090523Y-100334714D02*
X90042904Y-100429952D01*
X90042904Y-100429952D02*
X89995285Y-100477571D01*
X89995285Y-100477571D02*
X89900047Y-100525190D01*
X89900047Y-100525190D02*
X89519095Y-100525190D01*
X90852428Y-100477571D02*
X90995285Y-100525190D01*
X90995285Y-100525190D02*
X91042904Y-100572809D01*
X91042904Y-100572809D02*
X91090523Y-100668047D01*
X91090523Y-100668047D02*
X91090523Y-100810904D01*
X91090523Y-100810904D02*
X91042904Y-100906142D01*
X91042904Y-100906142D02*
X90995285Y-100953761D01*
X90995285Y-100953761D02*
X90900047Y-101001380D01*
X90900047Y-101001380D02*
X90519095Y-101001380D01*
X90519095Y-101001380D02*
X90519095Y-100001380D01*
X90519095Y-100001380D02*
X90852428Y-100001380D01*
X90852428Y-100001380D02*
X90947666Y-100049000D01*
X90947666Y-100049000D02*
X90995285Y-100096619D01*
X90995285Y-100096619D02*
X91042904Y-100191857D01*
X91042904Y-100191857D02*
X91042904Y-100287095D01*
X91042904Y-100287095D02*
X90995285Y-100382333D01*
X90995285Y-100382333D02*
X90947666Y-100429952D01*
X90947666Y-100429952D02*
X90852428Y-100477571D01*
X90852428Y-100477571D02*
X90519095Y-100477571D01*
X92042904Y-101001380D02*
X91471476Y-101001380D01*
X91757190Y-101001380D02*
X91757190Y-100001380D01*
X91757190Y-100001380D02*
X91661952Y-100144238D01*
X91661952Y-100144238D02*
X91566714Y-100239476D01*
X91566714Y-100239476D02*
X91471476Y-100287095D01*
X92376238Y-100001380D02*
X92995285Y-100001380D01*
X92995285Y-100001380D02*
X92661952Y-100382333D01*
X92661952Y-100382333D02*
X92804809Y-100382333D01*
X92804809Y-100382333D02*
X92900047Y-100429952D01*
X92900047Y-100429952D02*
X92947666Y-100477571D01*
X92947666Y-100477571D02*
X92995285Y-100572809D01*
X92995285Y-100572809D02*
X92995285Y-100810904D01*
X92995285Y-100810904D02*
X92947666Y-100906142D01*
X92947666Y-100906142D02*
X92900047Y-100953761D01*
X92900047Y-100953761D02*
X92804809Y-101001380D01*
X92804809Y-101001380D02*
X92519095Y-101001380D01*
X92519095Y-101001380D02*
X92423857Y-100953761D01*
X92423857Y-100953761D02*
X92376238Y-100906142D01*
X89519095Y-98334380D02*
X89519095Y-97334380D01*
X89519095Y-97334380D02*
X89900047Y-97334380D01*
X89900047Y-97334380D02*
X89995285Y-97382000D01*
X89995285Y-97382000D02*
X90042904Y-97429619D01*
X90042904Y-97429619D02*
X90090523Y-97524857D01*
X90090523Y-97524857D02*
X90090523Y-97667714D01*
X90090523Y-97667714D02*
X90042904Y-97762952D01*
X90042904Y-97762952D02*
X89995285Y-97810571D01*
X89995285Y-97810571D02*
X89900047Y-97858190D01*
X89900047Y-97858190D02*
X89519095Y-97858190D01*
X90852428Y-97810571D02*
X90995285Y-97858190D01*
X90995285Y-97858190D02*
X91042904Y-97905809D01*
X91042904Y-97905809D02*
X91090523Y-98001047D01*
X91090523Y-98001047D02*
X91090523Y-98143904D01*
X91090523Y-98143904D02*
X91042904Y-98239142D01*
X91042904Y-98239142D02*
X90995285Y-98286761D01*
X90995285Y-98286761D02*
X90900047Y-98334380D01*
X90900047Y-98334380D02*
X90519095Y-98334380D01*
X90519095Y-98334380D02*
X90519095Y-97334380D01*
X90519095Y-97334380D02*
X90852428Y-97334380D01*
X90852428Y-97334380D02*
X90947666Y-97382000D01*
X90947666Y-97382000D02*
X90995285Y-97429619D01*
X90995285Y-97429619D02*
X91042904Y-97524857D01*
X91042904Y-97524857D02*
X91042904Y-97620095D01*
X91042904Y-97620095D02*
X90995285Y-97715333D01*
X90995285Y-97715333D02*
X90947666Y-97762952D01*
X90947666Y-97762952D02*
X90852428Y-97810571D01*
X90852428Y-97810571D02*
X90519095Y-97810571D01*
X92042904Y-98334380D02*
X91471476Y-98334380D01*
X91757190Y-98334380D02*
X91757190Y-97334380D01*
X91757190Y-97334380D02*
X91661952Y-97477238D01*
X91661952Y-97477238D02*
X91566714Y-97572476D01*
X91566714Y-97572476D02*
X91471476Y-97620095D01*
X92423857Y-97429619D02*
X92471476Y-97382000D01*
X92471476Y-97382000D02*
X92566714Y-97334380D01*
X92566714Y-97334380D02*
X92804809Y-97334380D01*
X92804809Y-97334380D02*
X92900047Y-97382000D01*
X92900047Y-97382000D02*
X92947666Y-97429619D01*
X92947666Y-97429619D02*
X92995285Y-97524857D01*
X92995285Y-97524857D02*
X92995285Y-97620095D01*
X92995285Y-97620095D02*
X92947666Y-97762952D01*
X92947666Y-97762952D02*
X92376238Y-98334380D01*
X92376238Y-98334380D02*
X92995285Y-98334380D01*
X89519095Y-95794380D02*
X89519095Y-94794380D01*
X89519095Y-94794380D02*
X89900047Y-94794380D01*
X89900047Y-94794380D02*
X89995285Y-94842000D01*
X89995285Y-94842000D02*
X90042904Y-94889619D01*
X90042904Y-94889619D02*
X90090523Y-94984857D01*
X90090523Y-94984857D02*
X90090523Y-95127714D01*
X90090523Y-95127714D02*
X90042904Y-95222952D01*
X90042904Y-95222952D02*
X89995285Y-95270571D01*
X89995285Y-95270571D02*
X89900047Y-95318190D01*
X89900047Y-95318190D02*
X89519095Y-95318190D01*
X90852428Y-95270571D02*
X90995285Y-95318190D01*
X90995285Y-95318190D02*
X91042904Y-95365809D01*
X91042904Y-95365809D02*
X91090523Y-95461047D01*
X91090523Y-95461047D02*
X91090523Y-95603904D01*
X91090523Y-95603904D02*
X91042904Y-95699142D01*
X91042904Y-95699142D02*
X90995285Y-95746761D01*
X90995285Y-95746761D02*
X90900047Y-95794380D01*
X90900047Y-95794380D02*
X90519095Y-95794380D01*
X90519095Y-95794380D02*
X90519095Y-94794380D01*
X90519095Y-94794380D02*
X90852428Y-94794380D01*
X90852428Y-94794380D02*
X90947666Y-94842000D01*
X90947666Y-94842000D02*
X90995285Y-94889619D01*
X90995285Y-94889619D02*
X91042904Y-94984857D01*
X91042904Y-94984857D02*
X91042904Y-95080095D01*
X91042904Y-95080095D02*
X90995285Y-95175333D01*
X90995285Y-95175333D02*
X90947666Y-95222952D01*
X90947666Y-95222952D02*
X90852428Y-95270571D01*
X90852428Y-95270571D02*
X90519095Y-95270571D01*
X92042904Y-95794380D02*
X91471476Y-95794380D01*
X91757190Y-95794380D02*
X91757190Y-94794380D01*
X91757190Y-94794380D02*
X91661952Y-94937238D01*
X91661952Y-94937238D02*
X91566714Y-95032476D01*
X91566714Y-95032476D02*
X91471476Y-95080095D01*
X92995285Y-95794380D02*
X92423857Y-95794380D01*
X92709571Y-95794380D02*
X92709571Y-94794380D01*
X92709571Y-94794380D02*
X92614333Y-94937238D01*
X92614333Y-94937238D02*
X92519095Y-95032476D01*
X92519095Y-95032476D02*
X92423857Y-95080095D01*
X89519095Y-93254380D02*
X89519095Y-92254380D01*
X89519095Y-92254380D02*
X89900047Y-92254380D01*
X89900047Y-92254380D02*
X89995285Y-92302000D01*
X89995285Y-92302000D02*
X90042904Y-92349619D01*
X90042904Y-92349619D02*
X90090523Y-92444857D01*
X90090523Y-92444857D02*
X90090523Y-92587714D01*
X90090523Y-92587714D02*
X90042904Y-92682952D01*
X90042904Y-92682952D02*
X89995285Y-92730571D01*
X89995285Y-92730571D02*
X89900047Y-92778190D01*
X89900047Y-92778190D02*
X89519095Y-92778190D01*
X90852428Y-92730571D02*
X90995285Y-92778190D01*
X90995285Y-92778190D02*
X91042904Y-92825809D01*
X91042904Y-92825809D02*
X91090523Y-92921047D01*
X91090523Y-92921047D02*
X91090523Y-93063904D01*
X91090523Y-93063904D02*
X91042904Y-93159142D01*
X91042904Y-93159142D02*
X90995285Y-93206761D01*
X90995285Y-93206761D02*
X90900047Y-93254380D01*
X90900047Y-93254380D02*
X90519095Y-93254380D01*
X90519095Y-93254380D02*
X90519095Y-92254380D01*
X90519095Y-92254380D02*
X90852428Y-92254380D01*
X90852428Y-92254380D02*
X90947666Y-92302000D01*
X90947666Y-92302000D02*
X90995285Y-92349619D01*
X90995285Y-92349619D02*
X91042904Y-92444857D01*
X91042904Y-92444857D02*
X91042904Y-92540095D01*
X91042904Y-92540095D02*
X90995285Y-92635333D01*
X90995285Y-92635333D02*
X90947666Y-92682952D01*
X90947666Y-92682952D02*
X90852428Y-92730571D01*
X90852428Y-92730571D02*
X90519095Y-92730571D01*
X92042904Y-93254380D02*
X91471476Y-93254380D01*
X91757190Y-93254380D02*
X91757190Y-92254380D01*
X91757190Y-92254380D02*
X91661952Y-92397238D01*
X91661952Y-92397238D02*
X91566714Y-92492476D01*
X91566714Y-92492476D02*
X91471476Y-92540095D01*
X92661952Y-92254380D02*
X92757190Y-92254380D01*
X92757190Y-92254380D02*
X92852428Y-92302000D01*
X92852428Y-92302000D02*
X92900047Y-92349619D01*
X92900047Y-92349619D02*
X92947666Y-92444857D01*
X92947666Y-92444857D02*
X92995285Y-92635333D01*
X92995285Y-92635333D02*
X92995285Y-92873428D01*
X92995285Y-92873428D02*
X92947666Y-93063904D01*
X92947666Y-93063904D02*
X92900047Y-93159142D01*
X92900047Y-93159142D02*
X92852428Y-93206761D01*
X92852428Y-93206761D02*
X92757190Y-93254380D01*
X92757190Y-93254380D02*
X92661952Y-93254380D01*
X92661952Y-93254380D02*
X92566714Y-93206761D01*
X92566714Y-93206761D02*
X92519095Y-93159142D01*
X92519095Y-93159142D02*
X92471476Y-93063904D01*
X92471476Y-93063904D02*
X92423857Y-92873428D01*
X92423857Y-92873428D02*
X92423857Y-92635333D01*
X92423857Y-92635333D02*
X92471476Y-92444857D01*
X92471476Y-92444857D02*
X92519095Y-92349619D01*
X92519095Y-92349619D02*
X92566714Y-92302000D01*
X92566714Y-92302000D02*
X92661952Y-92254380D01*
X89519095Y-90714380D02*
X89519095Y-89714380D01*
X89519095Y-89714380D02*
X89900047Y-89714380D01*
X89900047Y-89714380D02*
X89995285Y-89762000D01*
X89995285Y-89762000D02*
X90042904Y-89809619D01*
X90042904Y-89809619D02*
X90090523Y-89904857D01*
X90090523Y-89904857D02*
X90090523Y-90047714D01*
X90090523Y-90047714D02*
X90042904Y-90142952D01*
X90042904Y-90142952D02*
X89995285Y-90190571D01*
X89995285Y-90190571D02*
X89900047Y-90238190D01*
X89900047Y-90238190D02*
X89519095Y-90238190D01*
X90852428Y-90190571D02*
X90995285Y-90238190D01*
X90995285Y-90238190D02*
X91042904Y-90285809D01*
X91042904Y-90285809D02*
X91090523Y-90381047D01*
X91090523Y-90381047D02*
X91090523Y-90523904D01*
X91090523Y-90523904D02*
X91042904Y-90619142D01*
X91042904Y-90619142D02*
X90995285Y-90666761D01*
X90995285Y-90666761D02*
X90900047Y-90714380D01*
X90900047Y-90714380D02*
X90519095Y-90714380D01*
X90519095Y-90714380D02*
X90519095Y-89714380D01*
X90519095Y-89714380D02*
X90852428Y-89714380D01*
X90852428Y-89714380D02*
X90947666Y-89762000D01*
X90947666Y-89762000D02*
X90995285Y-89809619D01*
X90995285Y-89809619D02*
X91042904Y-89904857D01*
X91042904Y-89904857D02*
X91042904Y-90000095D01*
X91042904Y-90000095D02*
X90995285Y-90095333D01*
X90995285Y-90095333D02*
X90947666Y-90142952D01*
X90947666Y-90142952D02*
X90852428Y-90190571D01*
X90852428Y-90190571D02*
X90519095Y-90190571D01*
X91709571Y-89714380D02*
X91804809Y-89714380D01*
X91804809Y-89714380D02*
X91900047Y-89762000D01*
X91900047Y-89762000D02*
X91947666Y-89809619D01*
X91947666Y-89809619D02*
X91995285Y-89904857D01*
X91995285Y-89904857D02*
X92042904Y-90095333D01*
X92042904Y-90095333D02*
X92042904Y-90333428D01*
X92042904Y-90333428D02*
X91995285Y-90523904D01*
X91995285Y-90523904D02*
X91947666Y-90619142D01*
X91947666Y-90619142D02*
X91900047Y-90666761D01*
X91900047Y-90666761D02*
X91804809Y-90714380D01*
X91804809Y-90714380D02*
X91709571Y-90714380D01*
X91709571Y-90714380D02*
X91614333Y-90666761D01*
X91614333Y-90666761D02*
X91566714Y-90619142D01*
X91566714Y-90619142D02*
X91519095Y-90523904D01*
X91519095Y-90523904D02*
X91471476Y-90333428D01*
X91471476Y-90333428D02*
X91471476Y-90095333D01*
X91471476Y-90095333D02*
X91519095Y-89904857D01*
X91519095Y-89904857D02*
X91566714Y-89809619D01*
X91566714Y-89809619D02*
X91614333Y-89762000D01*
X91614333Y-89762000D02*
X91709571Y-89714380D01*
X92519095Y-90714380D02*
X92709571Y-90714380D01*
X92709571Y-90714380D02*
X92804809Y-90666761D01*
X92804809Y-90666761D02*
X92852428Y-90619142D01*
X92852428Y-90619142D02*
X92947666Y-90476285D01*
X92947666Y-90476285D02*
X92995285Y-90285809D01*
X92995285Y-90285809D02*
X92995285Y-89904857D01*
X92995285Y-89904857D02*
X92947666Y-89809619D01*
X92947666Y-89809619D02*
X92900047Y-89762000D01*
X92900047Y-89762000D02*
X92804809Y-89714380D01*
X92804809Y-89714380D02*
X92614333Y-89714380D01*
X92614333Y-89714380D02*
X92519095Y-89762000D01*
X92519095Y-89762000D02*
X92471476Y-89809619D01*
X92471476Y-89809619D02*
X92423857Y-89904857D01*
X92423857Y-89904857D02*
X92423857Y-90142952D01*
X92423857Y-90142952D02*
X92471476Y-90238190D01*
X92471476Y-90238190D02*
X92519095Y-90285809D01*
X92519095Y-90285809D02*
X92614333Y-90333428D01*
X92614333Y-90333428D02*
X92804809Y-90333428D01*
X92804809Y-90333428D02*
X92900047Y-90285809D01*
X92900047Y-90285809D02*
X92947666Y-90238190D01*
X92947666Y-90238190D02*
X92995285Y-90142952D01*
X89519095Y-88174380D02*
X89519095Y-87174380D01*
X89519095Y-87174380D02*
X89900047Y-87174380D01*
X89900047Y-87174380D02*
X89995285Y-87222000D01*
X89995285Y-87222000D02*
X90042904Y-87269619D01*
X90042904Y-87269619D02*
X90090523Y-87364857D01*
X90090523Y-87364857D02*
X90090523Y-87507714D01*
X90090523Y-87507714D02*
X90042904Y-87602952D01*
X90042904Y-87602952D02*
X89995285Y-87650571D01*
X89995285Y-87650571D02*
X89900047Y-87698190D01*
X89900047Y-87698190D02*
X89519095Y-87698190D01*
X90852428Y-87650571D02*
X90995285Y-87698190D01*
X90995285Y-87698190D02*
X91042904Y-87745809D01*
X91042904Y-87745809D02*
X91090523Y-87841047D01*
X91090523Y-87841047D02*
X91090523Y-87983904D01*
X91090523Y-87983904D02*
X91042904Y-88079142D01*
X91042904Y-88079142D02*
X90995285Y-88126761D01*
X90995285Y-88126761D02*
X90900047Y-88174380D01*
X90900047Y-88174380D02*
X90519095Y-88174380D01*
X90519095Y-88174380D02*
X90519095Y-87174380D01*
X90519095Y-87174380D02*
X90852428Y-87174380D01*
X90852428Y-87174380D02*
X90947666Y-87222000D01*
X90947666Y-87222000D02*
X90995285Y-87269619D01*
X90995285Y-87269619D02*
X91042904Y-87364857D01*
X91042904Y-87364857D02*
X91042904Y-87460095D01*
X91042904Y-87460095D02*
X90995285Y-87555333D01*
X90995285Y-87555333D02*
X90947666Y-87602952D01*
X90947666Y-87602952D02*
X90852428Y-87650571D01*
X90852428Y-87650571D02*
X90519095Y-87650571D01*
X91709571Y-87174380D02*
X91804809Y-87174380D01*
X91804809Y-87174380D02*
X91900047Y-87222000D01*
X91900047Y-87222000D02*
X91947666Y-87269619D01*
X91947666Y-87269619D02*
X91995285Y-87364857D01*
X91995285Y-87364857D02*
X92042904Y-87555333D01*
X92042904Y-87555333D02*
X92042904Y-87793428D01*
X92042904Y-87793428D02*
X91995285Y-87983904D01*
X91995285Y-87983904D02*
X91947666Y-88079142D01*
X91947666Y-88079142D02*
X91900047Y-88126761D01*
X91900047Y-88126761D02*
X91804809Y-88174380D01*
X91804809Y-88174380D02*
X91709571Y-88174380D01*
X91709571Y-88174380D02*
X91614333Y-88126761D01*
X91614333Y-88126761D02*
X91566714Y-88079142D01*
X91566714Y-88079142D02*
X91519095Y-87983904D01*
X91519095Y-87983904D02*
X91471476Y-87793428D01*
X91471476Y-87793428D02*
X91471476Y-87555333D01*
X91471476Y-87555333D02*
X91519095Y-87364857D01*
X91519095Y-87364857D02*
X91566714Y-87269619D01*
X91566714Y-87269619D02*
X91614333Y-87222000D01*
X91614333Y-87222000D02*
X91709571Y-87174380D01*
X92614333Y-87602952D02*
X92519095Y-87555333D01*
X92519095Y-87555333D02*
X92471476Y-87507714D01*
X92471476Y-87507714D02*
X92423857Y-87412476D01*
X92423857Y-87412476D02*
X92423857Y-87364857D01*
X92423857Y-87364857D02*
X92471476Y-87269619D01*
X92471476Y-87269619D02*
X92519095Y-87222000D01*
X92519095Y-87222000D02*
X92614333Y-87174380D01*
X92614333Y-87174380D02*
X92804809Y-87174380D01*
X92804809Y-87174380D02*
X92900047Y-87222000D01*
X92900047Y-87222000D02*
X92947666Y-87269619D01*
X92947666Y-87269619D02*
X92995285Y-87364857D01*
X92995285Y-87364857D02*
X92995285Y-87412476D01*
X92995285Y-87412476D02*
X92947666Y-87507714D01*
X92947666Y-87507714D02*
X92900047Y-87555333D01*
X92900047Y-87555333D02*
X92804809Y-87602952D01*
X92804809Y-87602952D02*
X92614333Y-87602952D01*
X92614333Y-87602952D02*
X92519095Y-87650571D01*
X92519095Y-87650571D02*
X92471476Y-87698190D01*
X92471476Y-87698190D02*
X92423857Y-87793428D01*
X92423857Y-87793428D02*
X92423857Y-87983904D01*
X92423857Y-87983904D02*
X92471476Y-88079142D01*
X92471476Y-88079142D02*
X92519095Y-88126761D01*
X92519095Y-88126761D02*
X92614333Y-88174380D01*
X92614333Y-88174380D02*
X92804809Y-88174380D01*
X92804809Y-88174380D02*
X92900047Y-88126761D01*
X92900047Y-88126761D02*
X92947666Y-88079142D01*
X92947666Y-88079142D02*
X92995285Y-87983904D01*
X92995285Y-87983904D02*
X92995285Y-87793428D01*
X92995285Y-87793428D02*
X92947666Y-87698190D01*
X92947666Y-87698190D02*
X92900047Y-87650571D01*
X92900047Y-87650571D02*
X92804809Y-87602952D01*
X133846761Y-128460523D02*
X133894380Y-128317666D01*
X133894380Y-128317666D02*
X133894380Y-128079571D01*
X133894380Y-128079571D02*
X133846761Y-127984333D01*
X133846761Y-127984333D02*
X133799142Y-127936714D01*
X133799142Y-127936714D02*
X133703904Y-127889095D01*
X133703904Y-127889095D02*
X133608666Y-127889095D01*
X133608666Y-127889095D02*
X133513428Y-127936714D01*
X133513428Y-127936714D02*
X133465809Y-127984333D01*
X133465809Y-127984333D02*
X133418190Y-128079571D01*
X133418190Y-128079571D02*
X133370571Y-128270047D01*
X133370571Y-128270047D02*
X133322952Y-128365285D01*
X133322952Y-128365285D02*
X133275333Y-128412904D01*
X133275333Y-128412904D02*
X133180095Y-128460523D01*
X133180095Y-128460523D02*
X133084857Y-128460523D01*
X133084857Y-128460523D02*
X132989619Y-128412904D01*
X132989619Y-128412904D02*
X132942000Y-128365285D01*
X132942000Y-128365285D02*
X132894380Y-128270047D01*
X132894380Y-128270047D02*
X132894380Y-128031952D01*
X132894380Y-128031952D02*
X132942000Y-127889095D01*
X132894380Y-127555761D02*
X133894380Y-127317666D01*
X133894380Y-127317666D02*
X133180095Y-127127190D01*
X133180095Y-127127190D02*
X133894380Y-126936714D01*
X133894380Y-126936714D02*
X132894380Y-126698619D01*
X133894380Y-126317666D02*
X132894380Y-126317666D01*
X132894380Y-126317666D02*
X132894380Y-126079571D01*
X132894380Y-126079571D02*
X132942000Y-125936714D01*
X132942000Y-125936714D02*
X133037238Y-125841476D01*
X133037238Y-125841476D02*
X133132476Y-125793857D01*
X133132476Y-125793857D02*
X133322952Y-125746238D01*
X133322952Y-125746238D02*
X133465809Y-125746238D01*
X133465809Y-125746238D02*
X133656285Y-125793857D01*
X133656285Y-125793857D02*
X133751523Y-125841476D01*
X133751523Y-125841476D02*
X133846761Y-125936714D01*
X133846761Y-125936714D02*
X133894380Y-126079571D01*
X133894380Y-126079571D02*
X133894380Y-126317666D01*
X133894380Y-125317666D02*
X132894380Y-125317666D01*
X132894380Y-124651000D02*
X132894380Y-124460524D01*
X132894380Y-124460524D02*
X132942000Y-124365286D01*
X132942000Y-124365286D02*
X133037238Y-124270048D01*
X133037238Y-124270048D02*
X133227714Y-124222429D01*
X133227714Y-124222429D02*
X133561047Y-124222429D01*
X133561047Y-124222429D02*
X133751523Y-124270048D01*
X133751523Y-124270048D02*
X133846761Y-124365286D01*
X133846761Y-124365286D02*
X133894380Y-124460524D01*
X133894380Y-124460524D02*
X133894380Y-124651000D01*
X133894380Y-124651000D02*
X133846761Y-124746238D01*
X133846761Y-124746238D02*
X133751523Y-124841476D01*
X133751523Y-124841476D02*
X133561047Y-124889095D01*
X133561047Y-124889095D02*
X133227714Y-124889095D01*
X133227714Y-124889095D02*
X133037238Y-124841476D01*
X133037238Y-124841476D02*
X132942000Y-124746238D01*
X132942000Y-124746238D02*
X132894380Y-124651000D01*
X126226761Y-128460523D02*
X126274380Y-128317666D01*
X126274380Y-128317666D02*
X126274380Y-128079571D01*
X126274380Y-128079571D02*
X126226761Y-127984333D01*
X126226761Y-127984333D02*
X126179142Y-127936714D01*
X126179142Y-127936714D02*
X126083904Y-127889095D01*
X126083904Y-127889095D02*
X125988666Y-127889095D01*
X125988666Y-127889095D02*
X125893428Y-127936714D01*
X125893428Y-127936714D02*
X125845809Y-127984333D01*
X125845809Y-127984333D02*
X125798190Y-128079571D01*
X125798190Y-128079571D02*
X125750571Y-128270047D01*
X125750571Y-128270047D02*
X125702952Y-128365285D01*
X125702952Y-128365285D02*
X125655333Y-128412904D01*
X125655333Y-128412904D02*
X125560095Y-128460523D01*
X125560095Y-128460523D02*
X125464857Y-128460523D01*
X125464857Y-128460523D02*
X125369619Y-128412904D01*
X125369619Y-128412904D02*
X125322000Y-128365285D01*
X125322000Y-128365285D02*
X125274380Y-128270047D01*
X125274380Y-128270047D02*
X125274380Y-128031952D01*
X125274380Y-128031952D02*
X125322000Y-127889095D01*
X125274380Y-127555761D02*
X126274380Y-127317666D01*
X126274380Y-127317666D02*
X125560095Y-127127190D01*
X125560095Y-127127190D02*
X126274380Y-126936714D01*
X126274380Y-126936714D02*
X125274380Y-126698619D01*
X126179142Y-125746238D02*
X126226761Y-125793857D01*
X126226761Y-125793857D02*
X126274380Y-125936714D01*
X126274380Y-125936714D02*
X126274380Y-126031952D01*
X126274380Y-126031952D02*
X126226761Y-126174809D01*
X126226761Y-126174809D02*
X126131523Y-126270047D01*
X126131523Y-126270047D02*
X126036285Y-126317666D01*
X126036285Y-126317666D02*
X125845809Y-126365285D01*
X125845809Y-126365285D02*
X125702952Y-126365285D01*
X125702952Y-126365285D02*
X125512476Y-126317666D01*
X125512476Y-126317666D02*
X125417238Y-126270047D01*
X125417238Y-126270047D02*
X125322000Y-126174809D01*
X125322000Y-126174809D02*
X125274380Y-126031952D01*
X125274380Y-126031952D02*
X125274380Y-125936714D01*
X125274380Y-125936714D02*
X125322000Y-125793857D01*
X125322000Y-125793857D02*
X125369619Y-125746238D01*
X126274380Y-124841476D02*
X126274380Y-125317666D01*
X126274380Y-125317666D02*
X125274380Y-125317666D01*
X126274380Y-124508142D02*
X125274380Y-124508142D01*
X126274380Y-123936714D02*
X125702952Y-124365285D01*
X125274380Y-123936714D02*
X125845809Y-124508142D01*
X120115000Y-126238095D02*
X120067380Y-126333333D01*
X120067380Y-126333333D02*
X120067380Y-126476190D01*
X120067380Y-126476190D02*
X120115000Y-126619047D01*
X120115000Y-126619047D02*
X120210238Y-126714285D01*
X120210238Y-126714285D02*
X120305476Y-126761904D01*
X120305476Y-126761904D02*
X120495952Y-126809523D01*
X120495952Y-126809523D02*
X120638809Y-126809523D01*
X120638809Y-126809523D02*
X120829285Y-126761904D01*
X120829285Y-126761904D02*
X120924523Y-126714285D01*
X120924523Y-126714285D02*
X121019761Y-126619047D01*
X121019761Y-126619047D02*
X121067380Y-126476190D01*
X121067380Y-126476190D02*
X121067380Y-126380952D01*
X121067380Y-126380952D02*
X121019761Y-126238095D01*
X121019761Y-126238095D02*
X120972142Y-126190476D01*
X120972142Y-126190476D02*
X120638809Y-126190476D01*
X120638809Y-126190476D02*
X120638809Y-126380952D01*
X121067380Y-125761904D02*
X120067380Y-125761904D01*
X120067380Y-125761904D02*
X121067380Y-125190476D01*
X121067380Y-125190476D02*
X120067380Y-125190476D01*
X121067380Y-124714285D02*
X120067380Y-124714285D01*
X120067380Y-124714285D02*
X120067380Y-124476190D01*
X120067380Y-124476190D02*
X120115000Y-124333333D01*
X120115000Y-124333333D02*
X120210238Y-124238095D01*
X120210238Y-124238095D02*
X120305476Y-124190476D01*
X120305476Y-124190476D02*
X120495952Y-124142857D01*
X120495952Y-124142857D02*
X120638809Y-124142857D01*
X120638809Y-124142857D02*
X120829285Y-124190476D01*
X120829285Y-124190476D02*
X120924523Y-124238095D01*
X120924523Y-124238095D02*
X121019761Y-124333333D01*
X121019761Y-124333333D02*
X121067380Y-124476190D01*
X121067380Y-124476190D02*
X121067380Y-124714285D01*
X116241380Y-127714476D02*
X115765190Y-128047809D01*
X116241380Y-128285904D02*
X115241380Y-128285904D01*
X115241380Y-128285904D02*
X115241380Y-127904952D01*
X115241380Y-127904952D02*
X115289000Y-127809714D01*
X115289000Y-127809714D02*
X115336619Y-127762095D01*
X115336619Y-127762095D02*
X115431857Y-127714476D01*
X115431857Y-127714476D02*
X115574714Y-127714476D01*
X115574714Y-127714476D02*
X115669952Y-127762095D01*
X115669952Y-127762095D02*
X115717571Y-127809714D01*
X115717571Y-127809714D02*
X115765190Y-127904952D01*
X115765190Y-127904952D02*
X115765190Y-128285904D01*
X115717571Y-127285904D02*
X115717571Y-126952571D01*
X116241380Y-126809714D02*
X116241380Y-127285904D01*
X116241380Y-127285904D02*
X115241380Y-127285904D01*
X115241380Y-127285904D02*
X115241380Y-126809714D01*
X116193761Y-126428761D02*
X116241380Y-126285904D01*
X116241380Y-126285904D02*
X116241380Y-126047809D01*
X116241380Y-126047809D02*
X116193761Y-125952571D01*
X116193761Y-125952571D02*
X116146142Y-125904952D01*
X116146142Y-125904952D02*
X116050904Y-125857333D01*
X116050904Y-125857333D02*
X115955666Y-125857333D01*
X115955666Y-125857333D02*
X115860428Y-125904952D01*
X115860428Y-125904952D02*
X115812809Y-125952571D01*
X115812809Y-125952571D02*
X115765190Y-126047809D01*
X115765190Y-126047809D02*
X115717571Y-126238285D01*
X115717571Y-126238285D02*
X115669952Y-126333523D01*
X115669952Y-126333523D02*
X115622333Y-126381142D01*
X115622333Y-126381142D02*
X115527095Y-126428761D01*
X115527095Y-126428761D02*
X115431857Y-126428761D01*
X115431857Y-126428761D02*
X115336619Y-126381142D01*
X115336619Y-126381142D02*
X115289000Y-126333523D01*
X115289000Y-126333523D02*
X115241380Y-126238285D01*
X115241380Y-126238285D02*
X115241380Y-126000190D01*
X115241380Y-126000190D02*
X115289000Y-125857333D01*
X115717571Y-125428761D02*
X115717571Y-125095428D01*
X116241380Y-124952571D02*
X116241380Y-125428761D01*
X116241380Y-125428761D02*
X115241380Y-125428761D01*
X115241380Y-125428761D02*
X115241380Y-124952571D01*
X115241380Y-124666856D02*
X115241380Y-124095428D01*
X116241380Y-124381142D02*
X115241380Y-124381142D01*
X118273428Y-126761904D02*
X118273428Y-126000000D01*
X118654380Y-126380952D02*
X117892476Y-126380952D01*
X117654380Y-125047619D02*
X117654380Y-125523809D01*
X117654380Y-125523809D02*
X118130571Y-125571428D01*
X118130571Y-125571428D02*
X118082952Y-125523809D01*
X118082952Y-125523809D02*
X118035333Y-125428571D01*
X118035333Y-125428571D02*
X118035333Y-125190476D01*
X118035333Y-125190476D02*
X118082952Y-125095238D01*
X118082952Y-125095238D02*
X118130571Y-125047619D01*
X118130571Y-125047619D02*
X118225809Y-125000000D01*
X118225809Y-125000000D02*
X118463904Y-125000000D01*
X118463904Y-125000000D02*
X118559142Y-125047619D01*
X118559142Y-125047619D02*
X118606761Y-125095238D01*
X118606761Y-125095238D02*
X118654380Y-125190476D01*
X118654380Y-125190476D02*
X118654380Y-125428571D01*
X118654380Y-125428571D02*
X118606761Y-125523809D01*
X118606761Y-125523809D02*
X118559142Y-125571428D01*
X117654380Y-124714285D02*
X118654380Y-124380952D01*
X118654380Y-124380952D02*
X117654380Y-124047619D01*
X82295904Y-73125000D02*
X82200666Y-73077380D01*
X82200666Y-73077380D02*
X82057809Y-73077380D01*
X82057809Y-73077380D02*
X81914952Y-73125000D01*
X81914952Y-73125000D02*
X81819714Y-73220238D01*
X81819714Y-73220238D02*
X81772095Y-73315476D01*
X81772095Y-73315476D02*
X81724476Y-73505952D01*
X81724476Y-73505952D02*
X81724476Y-73648809D01*
X81724476Y-73648809D02*
X81772095Y-73839285D01*
X81772095Y-73839285D02*
X81819714Y-73934523D01*
X81819714Y-73934523D02*
X81914952Y-74029761D01*
X81914952Y-74029761D02*
X82057809Y-74077380D01*
X82057809Y-74077380D02*
X82153047Y-74077380D01*
X82153047Y-74077380D02*
X82295904Y-74029761D01*
X82295904Y-74029761D02*
X82343523Y-73982142D01*
X82343523Y-73982142D02*
X82343523Y-73648809D01*
X82343523Y-73648809D02*
X82153047Y-73648809D01*
X82772095Y-74077380D02*
X82772095Y-73077380D01*
X82772095Y-73077380D02*
X83343523Y-74077380D01*
X83343523Y-74077380D02*
X83343523Y-73077380D01*
X83819714Y-74077380D02*
X83819714Y-73077380D01*
X83819714Y-73077380D02*
X84057809Y-73077380D01*
X84057809Y-73077380D02*
X84200666Y-73125000D01*
X84200666Y-73125000D02*
X84295904Y-73220238D01*
X84295904Y-73220238D02*
X84343523Y-73315476D01*
X84343523Y-73315476D02*
X84391142Y-73505952D01*
X84391142Y-73505952D02*
X84391142Y-73648809D01*
X84391142Y-73648809D02*
X84343523Y-73839285D01*
X84343523Y-73839285D02*
X84295904Y-73934523D01*
X84295904Y-73934523D02*
X84200666Y-74029761D01*
X84200666Y-74029761D02*
X84057809Y-74077380D01*
X84057809Y-74077380D02*
X83819714Y-74077380D01*
X81724476Y-76064166D02*
X82200666Y-76064166D01*
X81629238Y-76349880D02*
X81962571Y-75349880D01*
X81962571Y-75349880D02*
X82295904Y-76349880D01*
X82629238Y-76349880D02*
X82629238Y-75349880D01*
X82629238Y-75349880D02*
X82867333Y-75349880D01*
X82867333Y-75349880D02*
X83010190Y-75397500D01*
X83010190Y-75397500D02*
X83105428Y-75492738D01*
X83105428Y-75492738D02*
X83153047Y-75587976D01*
X83153047Y-75587976D02*
X83200666Y-75778452D01*
X83200666Y-75778452D02*
X83200666Y-75921309D01*
X83200666Y-75921309D02*
X83153047Y-76111785D01*
X83153047Y-76111785D02*
X83105428Y-76207023D01*
X83105428Y-76207023D02*
X83010190Y-76302261D01*
X83010190Y-76302261D02*
X82867333Y-76349880D01*
X82867333Y-76349880D02*
X82629238Y-76349880D01*
X83629238Y-76349880D02*
X83629238Y-75349880D01*
X83629238Y-75349880D02*
X83867333Y-75349880D01*
X83867333Y-75349880D02*
X84010190Y-75397500D01*
X84010190Y-75397500D02*
X84105428Y-75492738D01*
X84105428Y-75492738D02*
X84153047Y-75587976D01*
X84153047Y-75587976D02*
X84200666Y-75778452D01*
X84200666Y-75778452D02*
X84200666Y-75921309D01*
X84200666Y-75921309D02*
X84153047Y-76111785D01*
X84153047Y-76111785D02*
X84105428Y-76207023D01*
X84105428Y-76207023D02*
X84010190Y-76302261D01*
X84010190Y-76302261D02*
X83867333Y-76349880D01*
X83867333Y-76349880D02*
X83629238Y-76349880D01*
X85200666Y-76349880D02*
X84867333Y-75873690D01*
X84629238Y-76349880D02*
X84629238Y-75349880D01*
X84629238Y-75349880D02*
X85010190Y-75349880D01*
X85010190Y-75349880D02*
X85105428Y-75397500D01*
X85105428Y-75397500D02*
X85153047Y-75445119D01*
X85153047Y-75445119D02*
X85200666Y-75540357D01*
X85200666Y-75540357D02*
X85200666Y-75683214D01*
X85200666Y-75683214D02*
X85153047Y-75778452D01*
X85153047Y-75778452D02*
X85105428Y-75826071D01*
X85105428Y-75826071D02*
X85010190Y-75873690D01*
X85010190Y-75873690D02*
X84629238Y-75873690D01*
X85391143Y-76445119D02*
X86153047Y-76445119D01*
X86343524Y-76302261D02*
X86486381Y-76349880D01*
X86486381Y-76349880D02*
X86724476Y-76349880D01*
X86724476Y-76349880D02*
X86819714Y-76302261D01*
X86819714Y-76302261D02*
X86867333Y-76254642D01*
X86867333Y-76254642D02*
X86914952Y-76159404D01*
X86914952Y-76159404D02*
X86914952Y-76064166D01*
X86914952Y-76064166D02*
X86867333Y-75968928D01*
X86867333Y-75968928D02*
X86819714Y-75921309D01*
X86819714Y-75921309D02*
X86724476Y-75873690D01*
X86724476Y-75873690D02*
X86534000Y-75826071D01*
X86534000Y-75826071D02*
X86438762Y-75778452D01*
X86438762Y-75778452D02*
X86391143Y-75730833D01*
X86391143Y-75730833D02*
X86343524Y-75635595D01*
X86343524Y-75635595D02*
X86343524Y-75540357D01*
X86343524Y-75540357D02*
X86391143Y-75445119D01*
X86391143Y-75445119D02*
X86438762Y-75397500D01*
X86438762Y-75397500D02*
X86534000Y-75349880D01*
X86534000Y-75349880D02*
X86772095Y-75349880D01*
X86772095Y-75349880D02*
X86914952Y-75397500D01*
X87343524Y-75349880D02*
X87343524Y-76159404D01*
X87343524Y-76159404D02*
X87391143Y-76254642D01*
X87391143Y-76254642D02*
X87438762Y-76302261D01*
X87438762Y-76302261D02*
X87534000Y-76349880D01*
X87534000Y-76349880D02*
X87724476Y-76349880D01*
X87724476Y-76349880D02*
X87819714Y-76302261D01*
X87819714Y-76302261D02*
X87867333Y-76254642D01*
X87867333Y-76254642D02*
X87914952Y-76159404D01*
X87914952Y-76159404D02*
X87914952Y-75349880D01*
X88391143Y-76349880D02*
X88391143Y-75349880D01*
X88391143Y-75349880D02*
X88772095Y-75349880D01*
X88772095Y-75349880D02*
X88867333Y-75397500D01*
X88867333Y-75397500D02*
X88914952Y-75445119D01*
X88914952Y-75445119D02*
X88962571Y-75540357D01*
X88962571Y-75540357D02*
X88962571Y-75683214D01*
X88962571Y-75683214D02*
X88914952Y-75778452D01*
X88914952Y-75778452D02*
X88867333Y-75826071D01*
X88867333Y-75826071D02*
X88772095Y-75873690D01*
X88772095Y-75873690D02*
X88391143Y-75873690D01*
X82105428Y-78633571D02*
X82248285Y-78681190D01*
X82248285Y-78681190D02*
X82295904Y-78728809D01*
X82295904Y-78728809D02*
X82343523Y-78824047D01*
X82343523Y-78824047D02*
X82343523Y-78966904D01*
X82343523Y-78966904D02*
X82295904Y-79062142D01*
X82295904Y-79062142D02*
X82248285Y-79109761D01*
X82248285Y-79109761D02*
X82153047Y-79157380D01*
X82153047Y-79157380D02*
X81772095Y-79157380D01*
X81772095Y-79157380D02*
X81772095Y-78157380D01*
X81772095Y-78157380D02*
X82105428Y-78157380D01*
X82105428Y-78157380D02*
X82200666Y-78205000D01*
X82200666Y-78205000D02*
X82248285Y-78252619D01*
X82248285Y-78252619D02*
X82295904Y-78347857D01*
X82295904Y-78347857D02*
X82295904Y-78443095D01*
X82295904Y-78443095D02*
X82248285Y-78538333D01*
X82248285Y-78538333D02*
X82200666Y-78585952D01*
X82200666Y-78585952D02*
X82105428Y-78633571D01*
X82105428Y-78633571D02*
X81772095Y-78633571D01*
X82772095Y-79157380D02*
X82772095Y-78157380D01*
X83105428Y-78157380D02*
X83676856Y-78157380D01*
X83391142Y-79157380D02*
X83391142Y-78157380D01*
X83962571Y-79109761D02*
X84105428Y-79157380D01*
X84105428Y-79157380D02*
X84343523Y-79157380D01*
X84343523Y-79157380D02*
X84438761Y-79109761D01*
X84438761Y-79109761D02*
X84486380Y-79062142D01*
X84486380Y-79062142D02*
X84533999Y-78966904D01*
X84533999Y-78966904D02*
X84533999Y-78871666D01*
X84533999Y-78871666D02*
X84486380Y-78776428D01*
X84486380Y-78776428D02*
X84438761Y-78728809D01*
X84438761Y-78728809D02*
X84343523Y-78681190D01*
X84343523Y-78681190D02*
X84153047Y-78633571D01*
X84153047Y-78633571D02*
X84057809Y-78585952D01*
X84057809Y-78585952D02*
X84010190Y-78538333D01*
X84010190Y-78538333D02*
X83962571Y-78443095D01*
X83962571Y-78443095D02*
X83962571Y-78347857D01*
X83962571Y-78347857D02*
X84010190Y-78252619D01*
X84010190Y-78252619D02*
X84057809Y-78205000D01*
X84057809Y-78205000D02*
X84153047Y-78157380D01*
X84153047Y-78157380D02*
X84391142Y-78157380D01*
X84391142Y-78157380D02*
X84533999Y-78205000D01*
X84867333Y-78157380D02*
X85105428Y-79157380D01*
X85105428Y-79157380D02*
X85295904Y-78443095D01*
X85295904Y-78443095D02*
X85486380Y-79157380D01*
X85486380Y-79157380D02*
X85724476Y-78157380D01*
X82168904Y-80872000D02*
X82073666Y-80824380D01*
X82073666Y-80824380D02*
X81930809Y-80824380D01*
X81930809Y-80824380D02*
X81787952Y-80872000D01*
X81787952Y-80872000D02*
X81692714Y-80967238D01*
X81692714Y-80967238D02*
X81645095Y-81062476D01*
X81645095Y-81062476D02*
X81597476Y-81252952D01*
X81597476Y-81252952D02*
X81597476Y-81395809D01*
X81597476Y-81395809D02*
X81645095Y-81586285D01*
X81645095Y-81586285D02*
X81692714Y-81681523D01*
X81692714Y-81681523D02*
X81787952Y-81776761D01*
X81787952Y-81776761D02*
X81930809Y-81824380D01*
X81930809Y-81824380D02*
X82026047Y-81824380D01*
X82026047Y-81824380D02*
X82168904Y-81776761D01*
X82168904Y-81776761D02*
X82216523Y-81729142D01*
X82216523Y-81729142D02*
X82216523Y-81395809D01*
X82216523Y-81395809D02*
X82026047Y-81395809D01*
X82645095Y-81824380D02*
X82645095Y-80824380D01*
X82645095Y-80824380D02*
X83216523Y-81824380D01*
X83216523Y-81824380D02*
X83216523Y-80824380D01*
X83692714Y-81824380D02*
X83692714Y-80824380D01*
X83692714Y-80824380D02*
X83930809Y-80824380D01*
X83930809Y-80824380D02*
X84073666Y-80872000D01*
X84073666Y-80872000D02*
X84168904Y-80967238D01*
X84168904Y-80967238D02*
X84216523Y-81062476D01*
X84216523Y-81062476D02*
X84264142Y-81252952D01*
X84264142Y-81252952D02*
X84264142Y-81395809D01*
X84264142Y-81395809D02*
X84216523Y-81586285D01*
X84216523Y-81586285D02*
X84168904Y-81681523D01*
X84168904Y-81681523D02*
X84073666Y-81776761D01*
X84073666Y-81776761D02*
X83930809Y-81824380D01*
X83930809Y-81824380D02*
X83692714Y-81824380D01*
X81518095Y-83729428D02*
X82280000Y-83729428D01*
X81899047Y-84110380D02*
X81899047Y-83348476D01*
X83184761Y-83443714D02*
X83184761Y-84110380D01*
X82946666Y-83062761D02*
X82708571Y-83777047D01*
X82708571Y-83777047D02*
X83327618Y-83777047D01*
X83851428Y-83538952D02*
X83756190Y-83491333D01*
X83756190Y-83491333D02*
X83708571Y-83443714D01*
X83708571Y-83443714D02*
X83660952Y-83348476D01*
X83660952Y-83348476D02*
X83660952Y-83300857D01*
X83660952Y-83300857D02*
X83708571Y-83205619D01*
X83708571Y-83205619D02*
X83756190Y-83158000D01*
X83756190Y-83158000D02*
X83851428Y-83110380D01*
X83851428Y-83110380D02*
X84041904Y-83110380D01*
X84041904Y-83110380D02*
X84137142Y-83158000D01*
X84137142Y-83158000D02*
X84184761Y-83205619D01*
X84184761Y-83205619D02*
X84232380Y-83300857D01*
X84232380Y-83300857D02*
X84232380Y-83348476D01*
X84232380Y-83348476D02*
X84184761Y-83443714D01*
X84184761Y-83443714D02*
X84137142Y-83491333D01*
X84137142Y-83491333D02*
X84041904Y-83538952D01*
X84041904Y-83538952D02*
X83851428Y-83538952D01*
X83851428Y-83538952D02*
X83756190Y-83586571D01*
X83756190Y-83586571D02*
X83708571Y-83634190D01*
X83708571Y-83634190D02*
X83660952Y-83729428D01*
X83660952Y-83729428D02*
X83660952Y-83919904D01*
X83660952Y-83919904D02*
X83708571Y-84015142D01*
X83708571Y-84015142D02*
X83756190Y-84062761D01*
X83756190Y-84062761D02*
X83851428Y-84110380D01*
X83851428Y-84110380D02*
X84041904Y-84110380D01*
X84041904Y-84110380D02*
X84137142Y-84062761D01*
X84137142Y-84062761D02*
X84184761Y-84015142D01*
X84184761Y-84015142D02*
X84232380Y-83919904D01*
X84232380Y-83919904D02*
X84232380Y-83729428D01*
X84232380Y-83729428D02*
X84184761Y-83634190D01*
X84184761Y-83634190D02*
X84137142Y-83586571D01*
X84137142Y-83586571D02*
X84041904Y-83538952D01*
X84518095Y-83110380D02*
X84851428Y-84110380D01*
X84851428Y-84110380D02*
X85184761Y-83110380D01*
X81645095Y-86269428D02*
X82407000Y-86269428D01*
X82930809Y-86650380D02*
X83121285Y-86650380D01*
X83121285Y-86650380D02*
X83216523Y-86602761D01*
X83216523Y-86602761D02*
X83264142Y-86555142D01*
X83264142Y-86555142D02*
X83359380Y-86412285D01*
X83359380Y-86412285D02*
X83406999Y-86221809D01*
X83406999Y-86221809D02*
X83406999Y-85840857D01*
X83406999Y-85840857D02*
X83359380Y-85745619D01*
X83359380Y-85745619D02*
X83311761Y-85698000D01*
X83311761Y-85698000D02*
X83216523Y-85650380D01*
X83216523Y-85650380D02*
X83026047Y-85650380D01*
X83026047Y-85650380D02*
X82930809Y-85698000D01*
X82930809Y-85698000D02*
X82883190Y-85745619D01*
X82883190Y-85745619D02*
X82835571Y-85840857D01*
X82835571Y-85840857D02*
X82835571Y-86078952D01*
X82835571Y-86078952D02*
X82883190Y-86174190D01*
X82883190Y-86174190D02*
X82930809Y-86221809D01*
X82930809Y-86221809D02*
X83026047Y-86269428D01*
X83026047Y-86269428D02*
X83216523Y-86269428D01*
X83216523Y-86269428D02*
X83311761Y-86221809D01*
X83311761Y-86221809D02*
X83359380Y-86174190D01*
X83359380Y-86174190D02*
X83406999Y-86078952D01*
X83692714Y-85650380D02*
X84026047Y-86650380D01*
X84026047Y-86650380D02*
X84359380Y-85650380D01*
X81518095Y-88936428D02*
X82280000Y-88936428D01*
X81899047Y-89317380D02*
X81899047Y-88555476D01*
X82708571Y-88412619D02*
X82756190Y-88365000D01*
X82756190Y-88365000D02*
X82851428Y-88317380D01*
X82851428Y-88317380D02*
X83089523Y-88317380D01*
X83089523Y-88317380D02*
X83184761Y-88365000D01*
X83184761Y-88365000D02*
X83232380Y-88412619D01*
X83232380Y-88412619D02*
X83279999Y-88507857D01*
X83279999Y-88507857D02*
X83279999Y-88603095D01*
X83279999Y-88603095D02*
X83232380Y-88745952D01*
X83232380Y-88745952D02*
X82660952Y-89317380D01*
X82660952Y-89317380D02*
X83279999Y-89317380D01*
X84137142Y-88650714D02*
X84137142Y-89317380D01*
X83899047Y-88269761D02*
X83660952Y-88984047D01*
X83660952Y-88984047D02*
X84279999Y-88984047D01*
X84518095Y-88317380D02*
X84851428Y-89317380D01*
X84851428Y-89317380D02*
X85184761Y-88317380D01*
X81772095Y-91476428D02*
X82534000Y-91476428D01*
X82153047Y-91857380D02*
X82153047Y-91095476D01*
X83486380Y-90857380D02*
X83010190Y-90857380D01*
X83010190Y-90857380D02*
X82962571Y-91333571D01*
X82962571Y-91333571D02*
X83010190Y-91285952D01*
X83010190Y-91285952D02*
X83105428Y-91238333D01*
X83105428Y-91238333D02*
X83343523Y-91238333D01*
X83343523Y-91238333D02*
X83438761Y-91285952D01*
X83438761Y-91285952D02*
X83486380Y-91333571D01*
X83486380Y-91333571D02*
X83533999Y-91428809D01*
X83533999Y-91428809D02*
X83533999Y-91666904D01*
X83533999Y-91666904D02*
X83486380Y-91762142D01*
X83486380Y-91762142D02*
X83438761Y-91809761D01*
X83438761Y-91809761D02*
X83343523Y-91857380D01*
X83343523Y-91857380D02*
X83105428Y-91857380D01*
X83105428Y-91857380D02*
X83010190Y-91809761D01*
X83010190Y-91809761D02*
X82962571Y-91762142D01*
X83819714Y-90857380D02*
X84153047Y-91857380D01*
X84153047Y-91857380D02*
X84486380Y-90857380D01*
D11*
X141457571Y-119212142D02*
X141457571Y-116212142D01*
X141457571Y-116212142D02*
X142171857Y-116212142D01*
X142171857Y-116212142D02*
X142600428Y-116355000D01*
X142600428Y-116355000D02*
X142886143Y-116640714D01*
X142886143Y-116640714D02*
X143029000Y-116926428D01*
X143029000Y-116926428D02*
X143171857Y-117497857D01*
X143171857Y-117497857D02*
X143171857Y-117926428D01*
X143171857Y-117926428D02*
X143029000Y-118497857D01*
X143029000Y-118497857D02*
X142886143Y-118783571D01*
X142886143Y-118783571D02*
X142600428Y-119069285D01*
X142600428Y-119069285D02*
X142171857Y-119212142D01*
X142171857Y-119212142D02*
X141457571Y-119212142D01*
X145743286Y-119212142D02*
X145743286Y-117640714D01*
X145743286Y-117640714D02*
X145600428Y-117355000D01*
X145600428Y-117355000D02*
X145314714Y-117212142D01*
X145314714Y-117212142D02*
X144743286Y-117212142D01*
X144743286Y-117212142D02*
X144457571Y-117355000D01*
X145743286Y-119069285D02*
X145457571Y-119212142D01*
X145457571Y-119212142D02*
X144743286Y-119212142D01*
X144743286Y-119212142D02*
X144457571Y-119069285D01*
X144457571Y-119069285D02*
X144314714Y-118783571D01*
X144314714Y-118783571D02*
X144314714Y-118497857D01*
X144314714Y-118497857D02*
X144457571Y-118212142D01*
X144457571Y-118212142D02*
X144743286Y-118069285D01*
X144743286Y-118069285D02*
X145457571Y-118069285D01*
X145457571Y-118069285D02*
X145743286Y-117926428D01*
X146743286Y-117212142D02*
X147886143Y-117212142D01*
X147171857Y-116212142D02*
X147171857Y-118783571D01*
X147171857Y-118783571D02*
X147314714Y-119069285D01*
X147314714Y-119069285D02*
X147600429Y-119212142D01*
X147600429Y-119212142D02*
X147886143Y-119212142D01*
X150171858Y-119212142D02*
X150171858Y-117640714D01*
X150171858Y-117640714D02*
X150029000Y-117355000D01*
X150029000Y-117355000D02*
X149743286Y-117212142D01*
X149743286Y-117212142D02*
X149171858Y-117212142D01*
X149171858Y-117212142D02*
X148886143Y-117355000D01*
X150171858Y-119069285D02*
X149886143Y-119212142D01*
X149886143Y-119212142D02*
X149171858Y-119212142D01*
X149171858Y-119212142D02*
X148886143Y-119069285D01*
X148886143Y-119069285D02*
X148743286Y-118783571D01*
X148743286Y-118783571D02*
X148743286Y-118497857D01*
X148743286Y-118497857D02*
X148886143Y-118212142D01*
X148886143Y-118212142D02*
X149171858Y-118069285D01*
X149171858Y-118069285D02*
X149886143Y-118069285D01*
X149886143Y-118069285D02*
X150171858Y-117926428D01*
X153400429Y-119212142D02*
X153400429Y-116212142D01*
X156971857Y-116069285D02*
X154400429Y-119926428D01*
X158543286Y-116212142D02*
X159114714Y-116212142D01*
X159114714Y-116212142D02*
X159400429Y-116355000D01*
X159400429Y-116355000D02*
X159686143Y-116640714D01*
X159686143Y-116640714D02*
X159829000Y-117212142D01*
X159829000Y-117212142D02*
X159829000Y-118212142D01*
X159829000Y-118212142D02*
X159686143Y-118783571D01*
X159686143Y-118783571D02*
X159400429Y-119069285D01*
X159400429Y-119069285D02*
X159114714Y-119212142D01*
X159114714Y-119212142D02*
X158543286Y-119212142D01*
X158543286Y-119212142D02*
X158257572Y-119069285D01*
X158257572Y-119069285D02*
X157971857Y-118783571D01*
X157971857Y-118783571D02*
X157829000Y-118212142D01*
X157829000Y-118212142D02*
X157829000Y-117212142D01*
X157829000Y-117212142D02*
X157971857Y-116640714D01*
X157971857Y-116640714D02*
X158257572Y-116355000D01*
X158257572Y-116355000D02*
X158543286Y-116212142D01*
X162771857Y-116497857D02*
X162914714Y-116355000D01*
X162914714Y-116355000D02*
X163200429Y-116212142D01*
X163200429Y-116212142D02*
X163914714Y-116212142D01*
X163914714Y-116212142D02*
X164200429Y-116355000D01*
X164200429Y-116355000D02*
X164343286Y-116497857D01*
X164343286Y-116497857D02*
X164486143Y-116783571D01*
X164486143Y-116783571D02*
X164486143Y-117069285D01*
X164486143Y-117069285D02*
X164343286Y-117497857D01*
X164343286Y-117497857D02*
X162629000Y-119212142D01*
X162629000Y-119212142D02*
X164486143Y-119212142D01*
X165914714Y-119212142D02*
X166486143Y-119212142D01*
X166486143Y-119212142D02*
X166771857Y-119069285D01*
X166771857Y-119069285D02*
X166914714Y-118926428D01*
X166914714Y-118926428D02*
X167200429Y-118497857D01*
X167200429Y-118497857D02*
X167343286Y-117926428D01*
X167343286Y-117926428D02*
X167343286Y-116783571D01*
X167343286Y-116783571D02*
X167200429Y-116497857D01*
X167200429Y-116497857D02*
X167057572Y-116355000D01*
X167057572Y-116355000D02*
X166771857Y-116212142D01*
X166771857Y-116212142D02*
X166200429Y-116212142D01*
X166200429Y-116212142D02*
X165914714Y-116355000D01*
X165914714Y-116355000D02*
X165771857Y-116497857D01*
X165771857Y-116497857D02*
X165629000Y-116783571D01*
X165629000Y-116783571D02*
X165629000Y-117497857D01*
X165629000Y-117497857D02*
X165771857Y-117783571D01*
X165771857Y-117783571D02*
X165914714Y-117926428D01*
X165914714Y-117926428D02*
X166200429Y-118069285D01*
X166200429Y-118069285D02*
X166771857Y-118069285D01*
X166771857Y-118069285D02*
X167057572Y-117926428D01*
X167057572Y-117926428D02*
X167200429Y-117783571D01*
X167200429Y-117783571D02*
X167343286Y-117497857D01*
X169629000Y-117640714D02*
X170057572Y-117783571D01*
X170057572Y-117783571D02*
X170200429Y-117926428D01*
X170200429Y-117926428D02*
X170343286Y-118212142D01*
X170343286Y-118212142D02*
X170343286Y-118640714D01*
X170343286Y-118640714D02*
X170200429Y-118926428D01*
X170200429Y-118926428D02*
X170057572Y-119069285D01*
X170057572Y-119069285D02*
X169771857Y-119212142D01*
X169771857Y-119212142D02*
X168629000Y-119212142D01*
X168629000Y-119212142D02*
X168629000Y-116212142D01*
X168629000Y-116212142D02*
X169629000Y-116212142D01*
X169629000Y-116212142D02*
X169914715Y-116355000D01*
X169914715Y-116355000D02*
X170057572Y-116497857D01*
X170057572Y-116497857D02*
X170200429Y-116783571D01*
X170200429Y-116783571D02*
X170200429Y-117069285D01*
X170200429Y-117069285D02*
X170057572Y-117355000D01*
X170057572Y-117355000D02*
X169914715Y-117497857D01*
X169914715Y-117497857D02*
X169629000Y-117640714D01*
X169629000Y-117640714D02*
X168629000Y-117640714D01*
D10*
X125620809Y-136765333D02*
X125573190Y-136717714D01*
X125573190Y-136717714D02*
X125477952Y-136574857D01*
X125477952Y-136574857D02*
X125430333Y-136479619D01*
X125430333Y-136479619D02*
X125382714Y-136336761D01*
X125382714Y-136336761D02*
X125335095Y-136098666D01*
X125335095Y-136098666D02*
X125335095Y-135908190D01*
X125335095Y-135908190D02*
X125382714Y-135670095D01*
X125382714Y-135670095D02*
X125430333Y-135527238D01*
X125430333Y-135527238D02*
X125477952Y-135432000D01*
X125477952Y-135432000D02*
X125573190Y-135289142D01*
X125573190Y-135289142D02*
X125620809Y-135241523D01*
X126430333Y-136336761D02*
X126335095Y-136384380D01*
X126335095Y-136384380D02*
X126144619Y-136384380D01*
X126144619Y-136384380D02*
X126049381Y-136336761D01*
X126049381Y-136336761D02*
X126001762Y-136289142D01*
X126001762Y-136289142D02*
X125954143Y-136193904D01*
X125954143Y-136193904D02*
X125954143Y-135908190D01*
X125954143Y-135908190D02*
X126001762Y-135812952D01*
X126001762Y-135812952D02*
X126049381Y-135765333D01*
X126049381Y-135765333D02*
X126144619Y-135717714D01*
X126144619Y-135717714D02*
X126335095Y-135717714D01*
X126335095Y-135717714D02*
X126430333Y-135765333D01*
X126763667Y-136765333D02*
X126811286Y-136717714D01*
X126811286Y-136717714D02*
X126906524Y-136574857D01*
X126906524Y-136574857D02*
X126954143Y-136479619D01*
X126954143Y-136479619D02*
X127001762Y-136336761D01*
X127001762Y-136336761D02*
X127049381Y-136098666D01*
X127049381Y-136098666D02*
X127049381Y-135908190D01*
X127049381Y-135908190D02*
X127001762Y-135670095D01*
X127001762Y-135670095D02*
X126954143Y-135527238D01*
X126954143Y-135527238D02*
X126906524Y-135432000D01*
X126906524Y-135432000D02*
X126811286Y-135289142D01*
X126811286Y-135289142D02*
X126763667Y-135241523D01*
X128077953Y-135479619D02*
X128125572Y-135432000D01*
X128125572Y-135432000D02*
X128220810Y-135384380D01*
X128220810Y-135384380D02*
X128458905Y-135384380D01*
X128458905Y-135384380D02*
X128554143Y-135432000D01*
X128554143Y-135432000D02*
X128601762Y-135479619D01*
X128601762Y-135479619D02*
X128649381Y-135574857D01*
X128649381Y-135574857D02*
X128649381Y-135670095D01*
X128649381Y-135670095D02*
X128601762Y-135812952D01*
X128601762Y-135812952D02*
X128030334Y-136384380D01*
X128030334Y-136384380D02*
X128649381Y-136384380D01*
X129268429Y-135384380D02*
X129363667Y-135384380D01*
X129363667Y-135384380D02*
X129458905Y-135432000D01*
X129458905Y-135432000D02*
X129506524Y-135479619D01*
X129506524Y-135479619D02*
X129554143Y-135574857D01*
X129554143Y-135574857D02*
X129601762Y-135765333D01*
X129601762Y-135765333D02*
X129601762Y-136003428D01*
X129601762Y-136003428D02*
X129554143Y-136193904D01*
X129554143Y-136193904D02*
X129506524Y-136289142D01*
X129506524Y-136289142D02*
X129458905Y-136336761D01*
X129458905Y-136336761D02*
X129363667Y-136384380D01*
X129363667Y-136384380D02*
X129268429Y-136384380D01*
X129268429Y-136384380D02*
X129173191Y-136336761D01*
X129173191Y-136336761D02*
X129125572Y-136289142D01*
X129125572Y-136289142D02*
X129077953Y-136193904D01*
X129077953Y-136193904D02*
X129030334Y-136003428D01*
X129030334Y-136003428D02*
X129030334Y-135765333D01*
X129030334Y-135765333D02*
X129077953Y-135574857D01*
X129077953Y-135574857D02*
X129125572Y-135479619D01*
X129125572Y-135479619D02*
X129173191Y-135432000D01*
X129173191Y-135432000D02*
X129268429Y-135384380D01*
X129982715Y-135479619D02*
X130030334Y-135432000D01*
X130030334Y-135432000D02*
X130125572Y-135384380D01*
X130125572Y-135384380D02*
X130363667Y-135384380D01*
X130363667Y-135384380D02*
X130458905Y-135432000D01*
X130458905Y-135432000D02*
X130506524Y-135479619D01*
X130506524Y-135479619D02*
X130554143Y-135574857D01*
X130554143Y-135574857D02*
X130554143Y-135670095D01*
X130554143Y-135670095D02*
X130506524Y-135812952D01*
X130506524Y-135812952D02*
X129935096Y-136384380D01*
X129935096Y-136384380D02*
X130554143Y-136384380D01*
X130887477Y-135384380D02*
X131506524Y-135384380D01*
X131506524Y-135384380D02*
X131173191Y-135765333D01*
X131173191Y-135765333D02*
X131316048Y-135765333D01*
X131316048Y-135765333D02*
X131411286Y-135812952D01*
X131411286Y-135812952D02*
X131458905Y-135860571D01*
X131458905Y-135860571D02*
X131506524Y-135955809D01*
X131506524Y-135955809D02*
X131506524Y-136193904D01*
X131506524Y-136193904D02*
X131458905Y-136289142D01*
X131458905Y-136289142D02*
X131411286Y-136336761D01*
X131411286Y-136336761D02*
X131316048Y-136384380D01*
X131316048Y-136384380D02*
X131030334Y-136384380D01*
X131030334Y-136384380D02*
X130935096Y-136336761D01*
X130935096Y-136336761D02*
X130887477Y-136289142D01*
X119362237Y-134066666D02*
X119838427Y-134066666D01*
X119266999Y-134352380D02*
X119600332Y-133352380D01*
X119600332Y-133352380D02*
X119933665Y-134352380D01*
X120866999Y-134352380D02*
X120866999Y-133352380D01*
X120866999Y-133352380D02*
X121438427Y-134352380D01*
X121438427Y-134352380D02*
X121438427Y-133352380D01*
X121914618Y-134352380D02*
X121914618Y-133685714D01*
X121914618Y-133352380D02*
X121866999Y-133400000D01*
X121866999Y-133400000D02*
X121914618Y-133447619D01*
X121914618Y-133447619D02*
X121962237Y-133400000D01*
X121962237Y-133400000D02*
X121914618Y-133352380D01*
X121914618Y-133352380D02*
X121914618Y-133447619D01*
X122295570Y-133685714D02*
X122533665Y-134352380D01*
X122533665Y-134352380D02*
X122771760Y-133685714D01*
X123581284Y-134352380D02*
X123581284Y-133828571D01*
X123581284Y-133828571D02*
X123533665Y-133733333D01*
X123533665Y-133733333D02*
X123438427Y-133685714D01*
X123438427Y-133685714D02*
X123247951Y-133685714D01*
X123247951Y-133685714D02*
X123152713Y-133733333D01*
X123581284Y-134304761D02*
X123486046Y-134352380D01*
X123486046Y-134352380D02*
X123247951Y-134352380D01*
X123247951Y-134352380D02*
X123152713Y-134304761D01*
X123152713Y-134304761D02*
X123105094Y-134209523D01*
X123105094Y-134209523D02*
X123105094Y-134114285D01*
X123105094Y-134114285D02*
X123152713Y-134019047D01*
X123152713Y-134019047D02*
X123247951Y-133971428D01*
X123247951Y-133971428D02*
X123486046Y-133971428D01*
X123486046Y-133971428D02*
X123581284Y-133923809D01*
X124486046Y-133685714D02*
X124486046Y-134495238D01*
X124486046Y-134495238D02*
X124438427Y-134590476D01*
X124438427Y-134590476D02*
X124390808Y-134638095D01*
X124390808Y-134638095D02*
X124295570Y-134685714D01*
X124295570Y-134685714D02*
X124152713Y-134685714D01*
X124152713Y-134685714D02*
X124057475Y-134638095D01*
X124486046Y-134304761D02*
X124390808Y-134352380D01*
X124390808Y-134352380D02*
X124200332Y-134352380D01*
X124200332Y-134352380D02*
X124105094Y-134304761D01*
X124105094Y-134304761D02*
X124057475Y-134257142D01*
X124057475Y-134257142D02*
X124009856Y-134161904D01*
X124009856Y-134161904D02*
X124009856Y-133876190D01*
X124009856Y-133876190D02*
X124057475Y-133780952D01*
X124057475Y-133780952D02*
X124105094Y-133733333D01*
X124105094Y-133733333D02*
X124200332Y-133685714D01*
X124200332Y-133685714D02*
X124390808Y-133685714D01*
X124390808Y-133685714D02*
X124486046Y-133733333D01*
X125514618Y-134304761D02*
X125657475Y-134352380D01*
X125657475Y-134352380D02*
X125895570Y-134352380D01*
X125895570Y-134352380D02*
X125990808Y-134304761D01*
X125990808Y-134304761D02*
X126038427Y-134257142D01*
X126038427Y-134257142D02*
X126086046Y-134161904D01*
X126086046Y-134161904D02*
X126086046Y-134066666D01*
X126086046Y-134066666D02*
X126038427Y-133971428D01*
X126038427Y-133971428D02*
X125990808Y-133923809D01*
X125990808Y-133923809D02*
X125895570Y-133876190D01*
X125895570Y-133876190D02*
X125705094Y-133828571D01*
X125705094Y-133828571D02*
X125609856Y-133780952D01*
X125609856Y-133780952D02*
X125562237Y-133733333D01*
X125562237Y-133733333D02*
X125514618Y-133638095D01*
X125514618Y-133638095D02*
X125514618Y-133542857D01*
X125514618Y-133542857D02*
X125562237Y-133447619D01*
X125562237Y-133447619D02*
X125609856Y-133400000D01*
X125609856Y-133400000D02*
X125705094Y-133352380D01*
X125705094Y-133352380D02*
X125943189Y-133352380D01*
X125943189Y-133352380D02*
X126086046Y-133400000D01*
X126419380Y-133685714D02*
X126609856Y-134352380D01*
X126609856Y-134352380D02*
X126800332Y-133876190D01*
X126800332Y-133876190D02*
X126990808Y-134352380D01*
X126990808Y-134352380D02*
X127181284Y-133685714D01*
X127943189Y-134304761D02*
X127847951Y-134352380D01*
X127847951Y-134352380D02*
X127657475Y-134352380D01*
X127657475Y-134352380D02*
X127562237Y-134304761D01*
X127562237Y-134304761D02*
X127514618Y-134209523D01*
X127514618Y-134209523D02*
X127514618Y-133828571D01*
X127514618Y-133828571D02*
X127562237Y-133733333D01*
X127562237Y-133733333D02*
X127657475Y-133685714D01*
X127657475Y-133685714D02*
X127847951Y-133685714D01*
X127847951Y-133685714D02*
X127943189Y-133733333D01*
X127943189Y-133733333D02*
X127990808Y-133828571D01*
X127990808Y-133828571D02*
X127990808Y-133923809D01*
X127990808Y-133923809D02*
X127514618Y-134019047D01*
X128419380Y-134352380D02*
X128419380Y-133685714D01*
X128419380Y-133876190D02*
X128466999Y-133780952D01*
X128466999Y-133780952D02*
X128514618Y-133733333D01*
X128514618Y-133733333D02*
X128609856Y-133685714D01*
X128609856Y-133685714D02*
X128705094Y-133685714D01*
X129466999Y-134352380D02*
X129466999Y-133352380D01*
X129466999Y-134304761D02*
X129371761Y-134352380D01*
X129371761Y-134352380D02*
X129181285Y-134352380D01*
X129181285Y-134352380D02*
X129086047Y-134304761D01*
X129086047Y-134304761D02*
X129038428Y-134257142D01*
X129038428Y-134257142D02*
X128990809Y-134161904D01*
X128990809Y-134161904D02*
X128990809Y-133876190D01*
X128990809Y-133876190D02*
X129038428Y-133780952D01*
X129038428Y-133780952D02*
X129086047Y-133733333D01*
X129086047Y-133733333D02*
X129181285Y-133685714D01*
X129181285Y-133685714D02*
X129371761Y-133685714D01*
X129371761Y-133685714D02*
X129466999Y-133733333D01*
X129943190Y-133685714D02*
X129943190Y-134352380D01*
X129943190Y-133780952D02*
X129990809Y-133733333D01*
X129990809Y-133733333D02*
X130086047Y-133685714D01*
X130086047Y-133685714D02*
X130228904Y-133685714D01*
X130228904Y-133685714D02*
X130324142Y-133733333D01*
X130324142Y-133733333D02*
X130371761Y-133828571D01*
X130371761Y-133828571D02*
X130371761Y-134352380D01*
X131276523Y-134352380D02*
X131276523Y-133828571D01*
X131276523Y-133828571D02*
X131228904Y-133733333D01*
X131228904Y-133733333D02*
X131133666Y-133685714D01*
X131133666Y-133685714D02*
X130943190Y-133685714D01*
X130943190Y-133685714D02*
X130847952Y-133733333D01*
X131276523Y-134304761D02*
X131181285Y-134352380D01*
X131181285Y-134352380D02*
X130943190Y-134352380D01*
X130943190Y-134352380D02*
X130847952Y-134304761D01*
X130847952Y-134304761D02*
X130800333Y-134209523D01*
X130800333Y-134209523D02*
X130800333Y-134114285D01*
X130800333Y-134114285D02*
X130847952Y-134019047D01*
X130847952Y-134019047D02*
X130943190Y-133971428D01*
X130943190Y-133971428D02*
X131181285Y-133971428D01*
X131181285Y-133971428D02*
X131276523Y-133923809D01*
X132352714Y-134352380D02*
X132352714Y-133352380D01*
X132352714Y-133352380D02*
X132733666Y-133352380D01*
X132733666Y-133352380D02*
X132828904Y-133400000D01*
X132828904Y-133400000D02*
X132876523Y-133447619D01*
X132876523Y-133447619D02*
X132924142Y-133542857D01*
X132924142Y-133542857D02*
X132924142Y-133685714D01*
X132924142Y-133685714D02*
X132876523Y-133780952D01*
X132876523Y-133780952D02*
X132828904Y-133828571D01*
X132828904Y-133828571D02*
X132733666Y-133876190D01*
X132733666Y-133876190D02*
X132352714Y-133876190D01*
X133352714Y-134352380D02*
X133352714Y-133685714D01*
X133352714Y-133876190D02*
X133400333Y-133780952D01*
X133400333Y-133780952D02*
X133447952Y-133733333D01*
X133447952Y-133733333D02*
X133543190Y-133685714D01*
X133543190Y-133685714D02*
X133638428Y-133685714D01*
X134114619Y-134352380D02*
X134019381Y-134304761D01*
X134019381Y-134304761D02*
X133971762Y-134257142D01*
X133971762Y-134257142D02*
X133924143Y-134161904D01*
X133924143Y-134161904D02*
X133924143Y-133876190D01*
X133924143Y-133876190D02*
X133971762Y-133780952D01*
X133971762Y-133780952D02*
X134019381Y-133733333D01*
X134019381Y-133733333D02*
X134114619Y-133685714D01*
X134114619Y-133685714D02*
X134257476Y-133685714D01*
X134257476Y-133685714D02*
X134352714Y-133733333D01*
X134352714Y-133733333D02*
X134400333Y-133780952D01*
X134400333Y-133780952D02*
X134447952Y-133876190D01*
X134447952Y-133876190D02*
X134447952Y-134161904D01*
X134447952Y-134161904D02*
X134400333Y-134257142D01*
X134400333Y-134257142D02*
X134352714Y-134304761D01*
X134352714Y-134304761D02*
X134257476Y-134352380D01*
X134257476Y-134352380D02*
X134114619Y-134352380D01*
X135305095Y-134352380D02*
X135305095Y-133352380D01*
X135305095Y-134304761D02*
X135209857Y-134352380D01*
X135209857Y-134352380D02*
X135019381Y-134352380D01*
X135019381Y-134352380D02*
X134924143Y-134304761D01*
X134924143Y-134304761D02*
X134876524Y-134257142D01*
X134876524Y-134257142D02*
X134828905Y-134161904D01*
X134828905Y-134161904D02*
X134828905Y-133876190D01*
X134828905Y-133876190D02*
X134876524Y-133780952D01*
X134876524Y-133780952D02*
X134924143Y-133733333D01*
X134924143Y-133733333D02*
X135019381Y-133685714D01*
X135019381Y-133685714D02*
X135209857Y-133685714D01*
X135209857Y-133685714D02*
X135305095Y-133733333D01*
X136209857Y-133685714D02*
X136209857Y-134352380D01*
X135781286Y-133685714D02*
X135781286Y-134209523D01*
X135781286Y-134209523D02*
X135828905Y-134304761D01*
X135828905Y-134304761D02*
X135924143Y-134352380D01*
X135924143Y-134352380D02*
X136067000Y-134352380D01*
X136067000Y-134352380D02*
X136162238Y-134304761D01*
X136162238Y-134304761D02*
X136209857Y-134257142D01*
X137114619Y-134304761D02*
X137019381Y-134352380D01*
X137019381Y-134352380D02*
X136828905Y-134352380D01*
X136828905Y-134352380D02*
X136733667Y-134304761D01*
X136733667Y-134304761D02*
X136686048Y-134257142D01*
X136686048Y-134257142D02*
X136638429Y-134161904D01*
X136638429Y-134161904D02*
X136638429Y-133876190D01*
X136638429Y-133876190D02*
X136686048Y-133780952D01*
X136686048Y-133780952D02*
X136733667Y-133733333D01*
X136733667Y-133733333D02*
X136828905Y-133685714D01*
X136828905Y-133685714D02*
X137019381Y-133685714D01*
X137019381Y-133685714D02*
X137114619Y-133733333D01*
X137400334Y-133685714D02*
X137781286Y-133685714D01*
X137543191Y-133352380D02*
X137543191Y-134209523D01*
X137543191Y-134209523D02*
X137590810Y-134304761D01*
X137590810Y-134304761D02*
X137686048Y-134352380D01*
X137686048Y-134352380D02*
X137781286Y-134352380D01*
X138114620Y-134352380D02*
X138114620Y-133685714D01*
X138114620Y-133352380D02*
X138067001Y-133400000D01*
X138067001Y-133400000D02*
X138114620Y-133447619D01*
X138114620Y-133447619D02*
X138162239Y-133400000D01*
X138162239Y-133400000D02*
X138114620Y-133352380D01*
X138114620Y-133352380D02*
X138114620Y-133447619D01*
X138733667Y-134352380D02*
X138638429Y-134304761D01*
X138638429Y-134304761D02*
X138590810Y-134257142D01*
X138590810Y-134257142D02*
X138543191Y-134161904D01*
X138543191Y-134161904D02*
X138543191Y-133876190D01*
X138543191Y-133876190D02*
X138590810Y-133780952D01*
X138590810Y-133780952D02*
X138638429Y-133733333D01*
X138638429Y-133733333D02*
X138733667Y-133685714D01*
X138733667Y-133685714D02*
X138876524Y-133685714D01*
X138876524Y-133685714D02*
X138971762Y-133733333D01*
X138971762Y-133733333D02*
X139019381Y-133780952D01*
X139019381Y-133780952D02*
X139067000Y-133876190D01*
X139067000Y-133876190D02*
X139067000Y-134161904D01*
X139067000Y-134161904D02*
X139019381Y-134257142D01*
X139019381Y-134257142D02*
X138971762Y-134304761D01*
X138971762Y-134304761D02*
X138876524Y-134352380D01*
X138876524Y-134352380D02*
X138733667Y-134352380D01*
X139495572Y-133685714D02*
X139495572Y-134352380D01*
X139495572Y-133780952D02*
X139543191Y-133733333D01*
X139543191Y-133733333D02*
X139638429Y-133685714D01*
X139638429Y-133685714D02*
X139781286Y-133685714D01*
X139781286Y-133685714D02*
X139876524Y-133733333D01*
X139876524Y-133733333D02*
X139924143Y-133828571D01*
X139924143Y-133828571D02*
X139924143Y-134352380D01*
D12*
X142724380Y-123289761D02*
X142724380Y-121289761D01*
X142724380Y-121289761D02*
X143391047Y-122718333D01*
X143391047Y-122718333D02*
X144057713Y-121289761D01*
X144057713Y-121289761D02*
X144057713Y-123289761D01*
X145771999Y-123194523D02*
X145581523Y-123289761D01*
X145581523Y-123289761D02*
X145200570Y-123289761D01*
X145200570Y-123289761D02*
X145010094Y-123194523D01*
X145010094Y-123194523D02*
X144914856Y-123004047D01*
X144914856Y-123004047D02*
X144914856Y-122242142D01*
X144914856Y-122242142D02*
X145010094Y-122051666D01*
X145010094Y-122051666D02*
X145200570Y-121956428D01*
X145200570Y-121956428D02*
X145581523Y-121956428D01*
X145581523Y-121956428D02*
X145771999Y-122051666D01*
X145771999Y-122051666D02*
X145867237Y-122242142D01*
X145867237Y-122242142D02*
X145867237Y-122432619D01*
X145867237Y-122432619D02*
X144914856Y-122623095D01*
X146724380Y-123289761D02*
X146724380Y-121956428D01*
X146724380Y-122146904D02*
X146819618Y-122051666D01*
X146819618Y-122051666D02*
X147010094Y-121956428D01*
X147010094Y-121956428D02*
X147295809Y-121956428D01*
X147295809Y-121956428D02*
X147486285Y-122051666D01*
X147486285Y-122051666D02*
X147581523Y-122242142D01*
X147581523Y-122242142D02*
X147581523Y-123289761D01*
X147581523Y-122242142D02*
X147676761Y-122051666D01*
X147676761Y-122051666D02*
X147867237Y-121956428D01*
X147867237Y-121956428D02*
X148152951Y-121956428D01*
X148152951Y-121956428D02*
X148343428Y-122051666D01*
X148343428Y-122051666D02*
X148438666Y-122242142D01*
X148438666Y-122242142D02*
X148438666Y-123289761D01*
X149676761Y-123289761D02*
X149486285Y-123194523D01*
X149486285Y-123194523D02*
X149391047Y-123099285D01*
X149391047Y-123099285D02*
X149295809Y-122908809D01*
X149295809Y-122908809D02*
X149295809Y-122337380D01*
X149295809Y-122337380D02*
X149391047Y-122146904D01*
X149391047Y-122146904D02*
X149486285Y-122051666D01*
X149486285Y-122051666D02*
X149676761Y-121956428D01*
X149676761Y-121956428D02*
X149962476Y-121956428D01*
X149962476Y-121956428D02*
X150152952Y-122051666D01*
X150152952Y-122051666D02*
X150248190Y-122146904D01*
X150248190Y-122146904D02*
X150343428Y-122337380D01*
X150343428Y-122337380D02*
X150343428Y-122908809D01*
X150343428Y-122908809D02*
X150248190Y-123099285D01*
X150248190Y-123099285D02*
X150152952Y-123194523D01*
X150152952Y-123194523D02*
X149962476Y-123289761D01*
X149962476Y-123289761D02*
X149676761Y-123289761D01*
X151200571Y-123289761D02*
X151200571Y-121956428D01*
X151200571Y-122337380D02*
X151295809Y-122146904D01*
X151295809Y-122146904D02*
X151391047Y-122051666D01*
X151391047Y-122051666D02*
X151581523Y-121956428D01*
X151581523Y-121956428D02*
X151772000Y-121956428D01*
X152248190Y-121956428D02*
X152724380Y-123289761D01*
X153200571Y-121956428D02*
X152724380Y-123289761D01*
X152724380Y-123289761D02*
X152533904Y-123765952D01*
X152533904Y-123765952D02*
X152438666Y-123861190D01*
X152438666Y-123861190D02*
X152248190Y-123956428D01*
X156305333Y-123099285D02*
X156210095Y-123194523D01*
X156210095Y-123194523D02*
X155924381Y-123289761D01*
X155924381Y-123289761D02*
X155733905Y-123289761D01*
X155733905Y-123289761D02*
X155448190Y-123194523D01*
X155448190Y-123194523D02*
X155257714Y-123004047D01*
X155257714Y-123004047D02*
X155162476Y-122813571D01*
X155162476Y-122813571D02*
X155067238Y-122432619D01*
X155067238Y-122432619D02*
X155067238Y-122146904D01*
X155067238Y-122146904D02*
X155162476Y-121765952D01*
X155162476Y-121765952D02*
X155257714Y-121575476D01*
X155257714Y-121575476D02*
X155448190Y-121385000D01*
X155448190Y-121385000D02*
X155733905Y-121289761D01*
X155733905Y-121289761D02*
X155924381Y-121289761D01*
X155924381Y-121289761D02*
X156210095Y-121385000D01*
X156210095Y-121385000D02*
X156305333Y-121480238D01*
X158019619Y-123289761D02*
X158019619Y-122242142D01*
X158019619Y-122242142D02*
X157924381Y-122051666D01*
X157924381Y-122051666D02*
X157733905Y-121956428D01*
X157733905Y-121956428D02*
X157352952Y-121956428D01*
X157352952Y-121956428D02*
X157162476Y-122051666D01*
X158019619Y-123194523D02*
X157829143Y-123289761D01*
X157829143Y-123289761D02*
X157352952Y-123289761D01*
X157352952Y-123289761D02*
X157162476Y-123194523D01*
X157162476Y-123194523D02*
X157067238Y-123004047D01*
X157067238Y-123004047D02*
X157067238Y-122813571D01*
X157067238Y-122813571D02*
X157162476Y-122623095D01*
X157162476Y-122623095D02*
X157352952Y-122527857D01*
X157352952Y-122527857D02*
X157829143Y-122527857D01*
X157829143Y-122527857D02*
X158019619Y-122432619D01*
X158972000Y-123289761D02*
X158972000Y-121956428D01*
X158972000Y-122337380D02*
X159067238Y-122146904D01*
X159067238Y-122146904D02*
X159162476Y-122051666D01*
X159162476Y-122051666D02*
X159352952Y-121956428D01*
X159352952Y-121956428D02*
X159543429Y-121956428D01*
X161067238Y-123289761D02*
X161067238Y-121289761D01*
X161067238Y-123194523D02*
X160876762Y-123289761D01*
X160876762Y-123289761D02*
X160495809Y-123289761D01*
X160495809Y-123289761D02*
X160305333Y-123194523D01*
X160305333Y-123194523D02*
X160210095Y-123099285D01*
X160210095Y-123099285D02*
X160114857Y-122908809D01*
X160114857Y-122908809D02*
X160114857Y-122337380D01*
X160114857Y-122337380D02*
X160210095Y-122146904D01*
X160210095Y-122146904D02*
X160305333Y-122051666D01*
X160305333Y-122051666D02*
X160495809Y-121956428D01*
X160495809Y-121956428D02*
X160876762Y-121956428D01*
X160876762Y-121956428D02*
X161067238Y-122051666D01*
X162933905Y-121289761D02*
X164076762Y-121289761D01*
X163505333Y-123289761D02*
X163505333Y-121289761D01*
X165505334Y-123194523D02*
X165314858Y-123289761D01*
X165314858Y-123289761D02*
X164933905Y-123289761D01*
X164933905Y-123289761D02*
X164743429Y-123194523D01*
X164743429Y-123194523D02*
X164648191Y-123004047D01*
X164648191Y-123004047D02*
X164648191Y-122242142D01*
X164648191Y-122242142D02*
X164743429Y-122051666D01*
X164743429Y-122051666D02*
X164933905Y-121956428D01*
X164933905Y-121956428D02*
X165314858Y-121956428D01*
X165314858Y-121956428D02*
X165505334Y-122051666D01*
X165505334Y-122051666D02*
X165600572Y-122242142D01*
X165600572Y-122242142D02*
X165600572Y-122432619D01*
X165600572Y-122432619D02*
X164648191Y-122623095D01*
X166362477Y-123194523D02*
X166552953Y-123289761D01*
X166552953Y-123289761D02*
X166933905Y-123289761D01*
X166933905Y-123289761D02*
X167124382Y-123194523D01*
X167124382Y-123194523D02*
X167219620Y-123004047D01*
X167219620Y-123004047D02*
X167219620Y-122908809D01*
X167219620Y-122908809D02*
X167124382Y-122718333D01*
X167124382Y-122718333D02*
X166933905Y-122623095D01*
X166933905Y-122623095D02*
X166648191Y-122623095D01*
X166648191Y-122623095D02*
X166457715Y-122527857D01*
X166457715Y-122527857D02*
X166362477Y-122337380D01*
X166362477Y-122337380D02*
X166362477Y-122242142D01*
X166362477Y-122242142D02*
X166457715Y-122051666D01*
X166457715Y-122051666D02*
X166648191Y-121956428D01*
X166648191Y-121956428D02*
X166933905Y-121956428D01*
X166933905Y-121956428D02*
X167124382Y-122051666D01*
X167791049Y-121956428D02*
X168552953Y-121956428D01*
X168076763Y-121289761D02*
X168076763Y-123004047D01*
X168076763Y-123004047D02*
X168172001Y-123194523D01*
X168172001Y-123194523D02*
X168362477Y-123289761D01*
X168362477Y-123289761D02*
X168552953Y-123289761D01*
X169981525Y-123194523D02*
X169791049Y-123289761D01*
X169791049Y-123289761D02*
X169410096Y-123289761D01*
X169410096Y-123289761D02*
X169219620Y-123194523D01*
X169219620Y-123194523D02*
X169124382Y-123004047D01*
X169124382Y-123004047D02*
X169124382Y-122242142D01*
X169124382Y-122242142D02*
X169219620Y-122051666D01*
X169219620Y-122051666D02*
X169410096Y-121956428D01*
X169410096Y-121956428D02*
X169791049Y-121956428D01*
X169791049Y-121956428D02*
X169981525Y-122051666D01*
X169981525Y-122051666D02*
X170076763Y-122242142D01*
X170076763Y-122242142D02*
X170076763Y-122432619D01*
X170076763Y-122432619D02*
X169124382Y-122623095D01*
X170933906Y-123289761D02*
X170933906Y-121956428D01*
X170933906Y-122337380D02*
X171029144Y-122146904D01*
X171029144Y-122146904D02*
X171124382Y-122051666D01*
X171124382Y-122051666D02*
X171314858Y-121956428D01*
X171314858Y-121956428D02*
X171505335Y-121956428D01*
D10*
X172087380Y-120395808D02*
X173087380Y-120062475D01*
X173087380Y-120062475D02*
X172087380Y-119729142D01*
X172182619Y-119443427D02*
X172135000Y-119395808D01*
X172135000Y-119395808D02*
X172087380Y-119300570D01*
X172087380Y-119300570D02*
X172087380Y-119062475D01*
X172087380Y-119062475D02*
X172135000Y-118967237D01*
X172135000Y-118967237D02*
X172182619Y-118919618D01*
X172182619Y-118919618D02*
X172277857Y-118871999D01*
X172277857Y-118871999D02*
X172373095Y-118871999D01*
X172373095Y-118871999D02*
X172515952Y-118919618D01*
X172515952Y-118919618D02*
X173087380Y-119491046D01*
X173087380Y-119491046D02*
X173087380Y-118871999D01*
X172992142Y-118443427D02*
X173039761Y-118395808D01*
X173039761Y-118395808D02*
X173087380Y-118443427D01*
X173087380Y-118443427D02*
X173039761Y-118491046D01*
X173039761Y-118491046D02*
X172992142Y-118443427D01*
X172992142Y-118443427D02*
X173087380Y-118443427D01*
X173087380Y-117443428D02*
X173087380Y-118014856D01*
X173087380Y-117729142D02*
X172087380Y-117729142D01*
X172087380Y-117729142D02*
X172230238Y-117824380D01*
X172230238Y-117824380D02*
X172325476Y-117919618D01*
X172325476Y-117919618D02*
X172373095Y-118014856D01*
D13*
X121237951Y-102237380D02*
X121237951Y-102951666D01*
X121237951Y-102951666D02*
X121190332Y-103094523D01*
X121190332Y-103094523D02*
X121095094Y-103189761D01*
X121095094Y-103189761D02*
X120952237Y-103237380D01*
X120952237Y-103237380D02*
X120856999Y-103237380D01*
X122190332Y-103237380D02*
X121714142Y-103237380D01*
X121714142Y-103237380D02*
X121714142Y-102237380D01*
X123095094Y-103142142D02*
X123047475Y-103189761D01*
X123047475Y-103189761D02*
X122904618Y-103237380D01*
X122904618Y-103237380D02*
X122809380Y-103237380D01*
X122809380Y-103237380D02*
X122666523Y-103189761D01*
X122666523Y-103189761D02*
X122571285Y-103094523D01*
X122571285Y-103094523D02*
X122523666Y-102999285D01*
X122523666Y-102999285D02*
X122476047Y-102808809D01*
X122476047Y-102808809D02*
X122476047Y-102665952D01*
X122476047Y-102665952D02*
X122523666Y-102475476D01*
X122523666Y-102475476D02*
X122571285Y-102380238D01*
X122571285Y-102380238D02*
X122666523Y-102285000D01*
X122666523Y-102285000D02*
X122809380Y-102237380D01*
X122809380Y-102237380D02*
X122904618Y-102237380D01*
X122904618Y-102237380D02*
X123047475Y-102285000D01*
X123047475Y-102285000D02*
X123095094Y-102332619D01*
X123809380Y-102237380D02*
X123809380Y-102951666D01*
X123809380Y-102951666D02*
X123761761Y-103094523D01*
X123761761Y-103094523D02*
X123666523Y-103189761D01*
X123666523Y-103189761D02*
X123523666Y-103237380D01*
X123523666Y-103237380D02*
X123428428Y-103237380D01*
X124761761Y-103237380D02*
X124285571Y-103237380D01*
X124285571Y-103237380D02*
X124285571Y-102237380D01*
X125666523Y-103142142D02*
X125618904Y-103189761D01*
X125618904Y-103189761D02*
X125476047Y-103237380D01*
X125476047Y-103237380D02*
X125380809Y-103237380D01*
X125380809Y-103237380D02*
X125237952Y-103189761D01*
X125237952Y-103189761D02*
X125142714Y-103094523D01*
X125142714Y-103094523D02*
X125095095Y-102999285D01*
X125095095Y-102999285D02*
X125047476Y-102808809D01*
X125047476Y-102808809D02*
X125047476Y-102665952D01*
X125047476Y-102665952D02*
X125095095Y-102475476D01*
X125095095Y-102475476D02*
X125142714Y-102380238D01*
X125142714Y-102380238D02*
X125237952Y-102285000D01*
X125237952Y-102285000D02*
X125380809Y-102237380D01*
X125380809Y-102237380D02*
X125476047Y-102237380D01*
X125476047Y-102237380D02*
X125618904Y-102285000D01*
X125618904Y-102285000D02*
X125666523Y-102332619D01*
X126380809Y-102237380D02*
X126380809Y-102951666D01*
X126380809Y-102951666D02*
X126333190Y-103094523D01*
X126333190Y-103094523D02*
X126237952Y-103189761D01*
X126237952Y-103189761D02*
X126095095Y-103237380D01*
X126095095Y-103237380D02*
X125999857Y-103237380D01*
X127333190Y-103237380D02*
X126857000Y-103237380D01*
X126857000Y-103237380D02*
X126857000Y-102237380D01*
X128237952Y-103142142D02*
X128190333Y-103189761D01*
X128190333Y-103189761D02*
X128047476Y-103237380D01*
X128047476Y-103237380D02*
X127952238Y-103237380D01*
X127952238Y-103237380D02*
X127809381Y-103189761D01*
X127809381Y-103189761D02*
X127714143Y-103094523D01*
X127714143Y-103094523D02*
X127666524Y-102999285D01*
X127666524Y-102999285D02*
X127618905Y-102808809D01*
X127618905Y-102808809D02*
X127618905Y-102665952D01*
X127618905Y-102665952D02*
X127666524Y-102475476D01*
X127666524Y-102475476D02*
X127714143Y-102380238D01*
X127714143Y-102380238D02*
X127809381Y-102285000D01*
X127809381Y-102285000D02*
X127952238Y-102237380D01*
X127952238Y-102237380D02*
X128047476Y-102237380D01*
X128047476Y-102237380D02*
X128190333Y-102285000D01*
X128190333Y-102285000D02*
X128237952Y-102332619D01*
X128952238Y-102237380D02*
X128952238Y-102951666D01*
X128952238Y-102951666D02*
X128904619Y-103094523D01*
X128904619Y-103094523D02*
X128809381Y-103189761D01*
X128809381Y-103189761D02*
X128666524Y-103237380D01*
X128666524Y-103237380D02*
X128571286Y-103237380D01*
X129904619Y-103237380D02*
X129428429Y-103237380D01*
X129428429Y-103237380D02*
X129428429Y-102237380D01*
X130809381Y-103142142D02*
X130761762Y-103189761D01*
X130761762Y-103189761D02*
X130618905Y-103237380D01*
X130618905Y-103237380D02*
X130523667Y-103237380D01*
X130523667Y-103237380D02*
X130380810Y-103189761D01*
X130380810Y-103189761D02*
X130285572Y-103094523D01*
X130285572Y-103094523D02*
X130237953Y-102999285D01*
X130237953Y-102999285D02*
X130190334Y-102808809D01*
X130190334Y-102808809D02*
X130190334Y-102665952D01*
X130190334Y-102665952D02*
X130237953Y-102475476D01*
X130237953Y-102475476D02*
X130285572Y-102380238D01*
X130285572Y-102380238D02*
X130380810Y-102285000D01*
X130380810Y-102285000D02*
X130523667Y-102237380D01*
X130523667Y-102237380D02*
X130618905Y-102237380D01*
X130618905Y-102237380D02*
X130761762Y-102285000D01*
X130761762Y-102285000D02*
X130809381Y-102332619D01*
%TO.C,J9*%
X79041666Y-93137380D02*
X79041666Y-93851666D01*
X79041666Y-93851666D02*
X78994047Y-93994523D01*
X78994047Y-93994523D02*
X78898809Y-94089761D01*
X78898809Y-94089761D02*
X78755952Y-94137380D01*
X78755952Y-94137380D02*
X78660714Y-94137380D01*
X79565476Y-94137380D02*
X79755952Y-94137380D01*
X79755952Y-94137380D02*
X79851190Y-94089761D01*
X79851190Y-94089761D02*
X79898809Y-94042142D01*
X79898809Y-94042142D02*
X79994047Y-93899285D01*
X79994047Y-93899285D02*
X80041666Y-93708809D01*
X80041666Y-93708809D02*
X80041666Y-93327857D01*
X80041666Y-93327857D02*
X79994047Y-93232619D01*
X79994047Y-93232619D02*
X79946428Y-93185000D01*
X79946428Y-93185000D02*
X79851190Y-93137380D01*
X79851190Y-93137380D02*
X79660714Y-93137380D01*
X79660714Y-93137380D02*
X79565476Y-93185000D01*
X79565476Y-93185000D02*
X79517857Y-93232619D01*
X79517857Y-93232619D02*
X79470238Y-93327857D01*
X79470238Y-93327857D02*
X79470238Y-93565952D01*
X79470238Y-93565952D02*
X79517857Y-93661190D01*
X79517857Y-93661190D02*
X79565476Y-93708809D01*
X79565476Y-93708809D02*
X79660714Y-93756428D01*
X79660714Y-93756428D02*
X79851190Y-93756428D01*
X79851190Y-93756428D02*
X79946428Y-93708809D01*
X79946428Y-93708809D02*
X79994047Y-93661190D01*
X79994047Y-93661190D02*
X80041666Y-93565952D01*
%TO.C,LED11*%
X135699667Y-153910380D02*
X135699667Y-152910380D01*
X135699667Y-152910380D02*
X136080619Y-152910380D01*
X136080619Y-152910380D02*
X136175857Y-152958000D01*
X136175857Y-152958000D02*
X136223476Y-153005619D01*
X136223476Y-153005619D02*
X136271095Y-153100857D01*
X136271095Y-153100857D02*
X136271095Y-153243714D01*
X136271095Y-153243714D02*
X136223476Y-153338952D01*
X136223476Y-153338952D02*
X136175857Y-153386571D01*
X136175857Y-153386571D02*
X136080619Y-153434190D01*
X136080619Y-153434190D02*
X135699667Y-153434190D01*
X136604429Y-152910380D02*
X136842524Y-153910380D01*
X136842524Y-153910380D02*
X137033000Y-153196095D01*
X137033000Y-153196095D02*
X137223476Y-153910380D01*
X137223476Y-153910380D02*
X137461572Y-152910380D01*
X138413952Y-153910380D02*
X138080619Y-153434190D01*
X137842524Y-153910380D02*
X137842524Y-152910380D01*
X137842524Y-152910380D02*
X138223476Y-152910380D01*
X138223476Y-152910380D02*
X138318714Y-152958000D01*
X138318714Y-152958000D02*
X138366333Y-153005619D01*
X138366333Y-153005619D02*
X138413952Y-153100857D01*
X138413952Y-153100857D02*
X138413952Y-153243714D01*
X138413952Y-153243714D02*
X138366333Y-153338952D01*
X138366333Y-153338952D02*
X138318714Y-153386571D01*
X138318714Y-153386571D02*
X138223476Y-153434190D01*
X138223476Y-153434190D02*
X137842524Y-153434190D01*
%TO.C,R2*%
X142988380Y-101004666D02*
X142512190Y-101337999D01*
X142988380Y-101576094D02*
X141988380Y-101576094D01*
X141988380Y-101576094D02*
X141988380Y-101195142D01*
X141988380Y-101195142D02*
X142036000Y-101099904D01*
X142036000Y-101099904D02*
X142083619Y-101052285D01*
X142083619Y-101052285D02*
X142178857Y-101004666D01*
X142178857Y-101004666D02*
X142321714Y-101004666D01*
X142321714Y-101004666D02*
X142416952Y-101052285D01*
X142416952Y-101052285D02*
X142464571Y-101099904D01*
X142464571Y-101099904D02*
X142512190Y-101195142D01*
X142512190Y-101195142D02*
X142512190Y-101576094D01*
X142083619Y-100623713D02*
X142036000Y-100576094D01*
X142036000Y-100576094D02*
X141988380Y-100480856D01*
X141988380Y-100480856D02*
X141988380Y-100242761D01*
X141988380Y-100242761D02*
X142036000Y-100147523D01*
X142036000Y-100147523D02*
X142083619Y-100099904D01*
X142083619Y-100099904D02*
X142178857Y-100052285D01*
X142178857Y-100052285D02*
X142274095Y-100052285D01*
X142274095Y-100052285D02*
X142416952Y-100099904D01*
X142416952Y-100099904D02*
X142988380Y-100671332D01*
X142988380Y-100671332D02*
X142988380Y-100052285D01*
%TO.C,U1*%
X130177380Y-96900904D02*
X130986904Y-96900904D01*
X130986904Y-96900904D02*
X131082142Y-96853285D01*
X131082142Y-96853285D02*
X131129761Y-96805666D01*
X131129761Y-96805666D02*
X131177380Y-96710428D01*
X131177380Y-96710428D02*
X131177380Y-96519952D01*
X131177380Y-96519952D02*
X131129761Y-96424714D01*
X131129761Y-96424714D02*
X131082142Y-96377095D01*
X131082142Y-96377095D02*
X130986904Y-96329476D01*
X130986904Y-96329476D02*
X130177380Y-96329476D01*
X131177380Y-95329476D02*
X131177380Y-95900904D01*
X131177380Y-95615190D02*
X130177380Y-95615190D01*
X130177380Y-95615190D02*
X130320238Y-95710428D01*
X130320238Y-95710428D02*
X130415476Y-95805666D01*
X130415476Y-95805666D02*
X130463095Y-95900904D01*
%TO.C,J1*%
X112607380Y-122507333D02*
X113321666Y-122507333D01*
X113321666Y-122507333D02*
X113464523Y-122554952D01*
X113464523Y-122554952D02*
X113559761Y-122650190D01*
X113559761Y-122650190D02*
X113607380Y-122793047D01*
X113607380Y-122793047D02*
X113607380Y-122888285D01*
X113607380Y-121507333D02*
X113607380Y-122078761D01*
X113607380Y-121793047D02*
X112607380Y-121793047D01*
X112607380Y-121793047D02*
X112750238Y-121888285D01*
X112750238Y-121888285D02*
X112845476Y-121983523D01*
X112845476Y-121983523D02*
X112893095Y-122078761D01*
%TO.C,J4*%
X173611380Y-140795333D02*
X174325666Y-140795333D01*
X174325666Y-140795333D02*
X174468523Y-140842952D01*
X174468523Y-140842952D02*
X174563761Y-140938190D01*
X174563761Y-140938190D02*
X174611380Y-141081047D01*
X174611380Y-141081047D02*
X174611380Y-141176285D01*
X173944714Y-139890571D02*
X174611380Y-139890571D01*
X173563761Y-140128666D02*
X174278047Y-140366761D01*
X174278047Y-140366761D02*
X174278047Y-139747714D01*
%TO.C,R1*%
X139914333Y-97268380D02*
X139581000Y-96792190D01*
X139342905Y-97268380D02*
X139342905Y-96268380D01*
X139342905Y-96268380D02*
X139723857Y-96268380D01*
X139723857Y-96268380D02*
X139819095Y-96316000D01*
X139819095Y-96316000D02*
X139866714Y-96363619D01*
X139866714Y-96363619D02*
X139914333Y-96458857D01*
X139914333Y-96458857D02*
X139914333Y-96601714D01*
X139914333Y-96601714D02*
X139866714Y-96696952D01*
X139866714Y-96696952D02*
X139819095Y-96744571D01*
X139819095Y-96744571D02*
X139723857Y-96792190D01*
X139723857Y-96792190D02*
X139342905Y-96792190D01*
X140866714Y-97268380D02*
X140295286Y-97268380D01*
X140581000Y-97268380D02*
X140581000Y-96268380D01*
X140581000Y-96268380D02*
X140485762Y-96411238D01*
X140485762Y-96411238D02*
X140390524Y-96506476D01*
X140390524Y-96506476D02*
X140295286Y-96554095D01*
%TO.C,LED10*%
X161403380Y-134469666D02*
X160927190Y-134802999D01*
X161403380Y-135041094D02*
X160403380Y-135041094D01*
X160403380Y-135041094D02*
X160403380Y-134660142D01*
X160403380Y-134660142D02*
X160451000Y-134564904D01*
X160451000Y-134564904D02*
X160498619Y-134517285D01*
X160498619Y-134517285D02*
X160593857Y-134469666D01*
X160593857Y-134469666D02*
X160736714Y-134469666D01*
X160736714Y-134469666D02*
X160831952Y-134517285D01*
X160831952Y-134517285D02*
X160879571Y-134564904D01*
X160879571Y-134564904D02*
X160927190Y-134660142D01*
X160927190Y-134660142D02*
X160927190Y-135041094D01*
X160403380Y-134136332D02*
X161403380Y-133469666D01*
X160403380Y-133469666D02*
X161403380Y-134136332D01*
%TO.C,C10*%
X162324142Y-154058857D02*
X162371761Y-154106476D01*
X162371761Y-154106476D02*
X162419380Y-154249333D01*
X162419380Y-154249333D02*
X162419380Y-154344571D01*
X162419380Y-154344571D02*
X162371761Y-154487428D01*
X162371761Y-154487428D02*
X162276523Y-154582666D01*
X162276523Y-154582666D02*
X162181285Y-154630285D01*
X162181285Y-154630285D02*
X161990809Y-154677904D01*
X161990809Y-154677904D02*
X161847952Y-154677904D01*
X161847952Y-154677904D02*
X161657476Y-154630285D01*
X161657476Y-154630285D02*
X161562238Y-154582666D01*
X161562238Y-154582666D02*
X161467000Y-154487428D01*
X161467000Y-154487428D02*
X161419380Y-154344571D01*
X161419380Y-154344571D02*
X161419380Y-154249333D01*
X161419380Y-154249333D02*
X161467000Y-154106476D01*
X161467000Y-154106476D02*
X161514619Y-154058857D01*
X162419380Y-153106476D02*
X162419380Y-153677904D01*
X162419380Y-153392190D02*
X161419380Y-153392190D01*
X161419380Y-153392190D02*
X161562238Y-153487428D01*
X161562238Y-153487428D02*
X161657476Y-153582666D01*
X161657476Y-153582666D02*
X161705095Y-153677904D01*
X161419380Y-152487428D02*
X161419380Y-152392190D01*
X161419380Y-152392190D02*
X161467000Y-152296952D01*
X161467000Y-152296952D02*
X161514619Y-152249333D01*
X161514619Y-152249333D02*
X161609857Y-152201714D01*
X161609857Y-152201714D02*
X161800333Y-152154095D01*
X161800333Y-152154095D02*
X162038428Y-152154095D01*
X162038428Y-152154095D02*
X162228904Y-152201714D01*
X162228904Y-152201714D02*
X162324142Y-152249333D01*
X162324142Y-152249333D02*
X162371761Y-152296952D01*
X162371761Y-152296952D02*
X162419380Y-152392190D01*
X162419380Y-152392190D02*
X162419380Y-152487428D01*
X162419380Y-152487428D02*
X162371761Y-152582666D01*
X162371761Y-152582666D02*
X162324142Y-152630285D01*
X162324142Y-152630285D02*
X162228904Y-152677904D01*
X162228904Y-152677904D02*
X162038428Y-152725523D01*
X162038428Y-152725523D02*
X161800333Y-152725523D01*
X161800333Y-152725523D02*
X161609857Y-152677904D01*
X161609857Y-152677904D02*
X161514619Y-152630285D01*
X161514619Y-152630285D02*
X161467000Y-152582666D01*
X161467000Y-152582666D02*
X161419380Y-152487428D01*
%TO.C,C17*%
X137152142Y-143147142D02*
X137104523Y-143194761D01*
X137104523Y-143194761D02*
X136961666Y-143242380D01*
X136961666Y-143242380D02*
X136866428Y-143242380D01*
X136866428Y-143242380D02*
X136723571Y-143194761D01*
X136723571Y-143194761D02*
X136628333Y-143099523D01*
X136628333Y-143099523D02*
X136580714Y-143004285D01*
X136580714Y-143004285D02*
X136533095Y-142813809D01*
X136533095Y-142813809D02*
X136533095Y-142670952D01*
X136533095Y-142670952D02*
X136580714Y-142480476D01*
X136580714Y-142480476D02*
X136628333Y-142385238D01*
X136628333Y-142385238D02*
X136723571Y-142290000D01*
X136723571Y-142290000D02*
X136866428Y-142242380D01*
X136866428Y-142242380D02*
X136961666Y-142242380D01*
X136961666Y-142242380D02*
X137104523Y-142290000D01*
X137104523Y-142290000D02*
X137152142Y-142337619D01*
X138104523Y-143242380D02*
X137533095Y-143242380D01*
X137818809Y-143242380D02*
X137818809Y-142242380D01*
X137818809Y-142242380D02*
X137723571Y-142385238D01*
X137723571Y-142385238D02*
X137628333Y-142480476D01*
X137628333Y-142480476D02*
X137533095Y-142528095D01*
X138437857Y-142242380D02*
X139104523Y-142242380D01*
X139104523Y-142242380D02*
X138675952Y-143242380D01*
%TO.C,L1*%
X117687380Y-147740666D02*
X117687380Y-148216856D01*
X117687380Y-148216856D02*
X116687380Y-148216856D01*
X117687380Y-146883523D02*
X117687380Y-147454951D01*
X117687380Y-147169237D02*
X116687380Y-147169237D01*
X116687380Y-147169237D02*
X116830238Y-147264475D01*
X116830238Y-147264475D02*
X116925476Y-147359713D01*
X116925476Y-147359713D02*
X116973095Y-147454951D01*
%TO.C,R14*%
X150227380Y-135008857D02*
X149751190Y-135342190D01*
X150227380Y-135580285D02*
X149227380Y-135580285D01*
X149227380Y-135580285D02*
X149227380Y-135199333D01*
X149227380Y-135199333D02*
X149275000Y-135104095D01*
X149275000Y-135104095D02*
X149322619Y-135056476D01*
X149322619Y-135056476D02*
X149417857Y-135008857D01*
X149417857Y-135008857D02*
X149560714Y-135008857D01*
X149560714Y-135008857D02*
X149655952Y-135056476D01*
X149655952Y-135056476D02*
X149703571Y-135104095D01*
X149703571Y-135104095D02*
X149751190Y-135199333D01*
X149751190Y-135199333D02*
X149751190Y-135580285D01*
X150227380Y-134056476D02*
X150227380Y-134627904D01*
X150227380Y-134342190D02*
X149227380Y-134342190D01*
X149227380Y-134342190D02*
X149370238Y-134437428D01*
X149370238Y-134437428D02*
X149465476Y-134532666D01*
X149465476Y-134532666D02*
X149513095Y-134627904D01*
X149560714Y-133199333D02*
X150227380Y-133199333D01*
X149179761Y-133437428D02*
X149894047Y-133675523D01*
X149894047Y-133675523D02*
X149894047Y-133056476D01*
%TO.C,C14*%
X157592142Y-152140857D02*
X157639761Y-152188476D01*
X157639761Y-152188476D02*
X157687380Y-152331333D01*
X157687380Y-152331333D02*
X157687380Y-152426571D01*
X157687380Y-152426571D02*
X157639761Y-152569428D01*
X157639761Y-152569428D02*
X157544523Y-152664666D01*
X157544523Y-152664666D02*
X157449285Y-152712285D01*
X157449285Y-152712285D02*
X157258809Y-152759904D01*
X157258809Y-152759904D02*
X157115952Y-152759904D01*
X157115952Y-152759904D02*
X156925476Y-152712285D01*
X156925476Y-152712285D02*
X156830238Y-152664666D01*
X156830238Y-152664666D02*
X156735000Y-152569428D01*
X156735000Y-152569428D02*
X156687380Y-152426571D01*
X156687380Y-152426571D02*
X156687380Y-152331333D01*
X156687380Y-152331333D02*
X156735000Y-152188476D01*
X156735000Y-152188476D02*
X156782619Y-152140857D01*
X157687380Y-151188476D02*
X157687380Y-151759904D01*
X157687380Y-151474190D02*
X156687380Y-151474190D01*
X156687380Y-151474190D02*
X156830238Y-151569428D01*
X156830238Y-151569428D02*
X156925476Y-151664666D01*
X156925476Y-151664666D02*
X156973095Y-151759904D01*
X157020714Y-150331333D02*
X157687380Y-150331333D01*
X156639761Y-150569428D02*
X157354047Y-150807523D01*
X157354047Y-150807523D02*
X157354047Y-150188476D01*
%TO.C,J3*%
X154581166Y-113076380D02*
X154581166Y-113790666D01*
X154581166Y-113790666D02*
X154533547Y-113933523D01*
X154533547Y-113933523D02*
X154438309Y-114028761D01*
X154438309Y-114028761D02*
X154295452Y-114076380D01*
X154295452Y-114076380D02*
X154200214Y-114076380D01*
X154962119Y-113076380D02*
X155581166Y-113076380D01*
X155581166Y-113076380D02*
X155247833Y-113457333D01*
X155247833Y-113457333D02*
X155390690Y-113457333D01*
X155390690Y-113457333D02*
X155485928Y-113504952D01*
X155485928Y-113504952D02*
X155533547Y-113552571D01*
X155533547Y-113552571D02*
X155581166Y-113647809D01*
X155581166Y-113647809D02*
X155581166Y-113885904D01*
X155581166Y-113885904D02*
X155533547Y-113981142D01*
X155533547Y-113981142D02*
X155485928Y-114028761D01*
X155485928Y-114028761D02*
X155390690Y-114076380D01*
X155390690Y-114076380D02*
X155104976Y-114076380D01*
X155104976Y-114076380D02*
X155009738Y-114028761D01*
X155009738Y-114028761D02*
X154962119Y-113981142D01*
%TO.C,C6*%
X112794142Y-100242666D02*
X112841761Y-100290285D01*
X112841761Y-100290285D02*
X112889380Y-100433142D01*
X112889380Y-100433142D02*
X112889380Y-100528380D01*
X112889380Y-100528380D02*
X112841761Y-100671237D01*
X112841761Y-100671237D02*
X112746523Y-100766475D01*
X112746523Y-100766475D02*
X112651285Y-100814094D01*
X112651285Y-100814094D02*
X112460809Y-100861713D01*
X112460809Y-100861713D02*
X112317952Y-100861713D01*
X112317952Y-100861713D02*
X112127476Y-100814094D01*
X112127476Y-100814094D02*
X112032238Y-100766475D01*
X112032238Y-100766475D02*
X111937000Y-100671237D01*
X111937000Y-100671237D02*
X111889380Y-100528380D01*
X111889380Y-100528380D02*
X111889380Y-100433142D01*
X111889380Y-100433142D02*
X111937000Y-100290285D01*
X111937000Y-100290285D02*
X111984619Y-100242666D01*
X111889380Y-99385523D02*
X111889380Y-99575999D01*
X111889380Y-99575999D02*
X111937000Y-99671237D01*
X111937000Y-99671237D02*
X111984619Y-99718856D01*
X111984619Y-99718856D02*
X112127476Y-99814094D01*
X112127476Y-99814094D02*
X112317952Y-99861713D01*
X112317952Y-99861713D02*
X112698904Y-99861713D01*
X112698904Y-99861713D02*
X112794142Y-99814094D01*
X112794142Y-99814094D02*
X112841761Y-99766475D01*
X112841761Y-99766475D02*
X112889380Y-99671237D01*
X112889380Y-99671237D02*
X112889380Y-99480761D01*
X112889380Y-99480761D02*
X112841761Y-99385523D01*
X112841761Y-99385523D02*
X112794142Y-99337904D01*
X112794142Y-99337904D02*
X112698904Y-99290285D01*
X112698904Y-99290285D02*
X112460809Y-99290285D01*
X112460809Y-99290285D02*
X112365571Y-99337904D01*
X112365571Y-99337904D02*
X112317952Y-99385523D01*
X112317952Y-99385523D02*
X112270333Y-99480761D01*
X112270333Y-99480761D02*
X112270333Y-99671237D01*
X112270333Y-99671237D02*
X112317952Y-99766475D01*
X112317952Y-99766475D02*
X112365571Y-99814094D01*
X112365571Y-99814094D02*
X112460809Y-99861713D01*
%TO.C,C1*%
X109442333Y-104253142D02*
X109394714Y-104300761D01*
X109394714Y-104300761D02*
X109251857Y-104348380D01*
X109251857Y-104348380D02*
X109156619Y-104348380D01*
X109156619Y-104348380D02*
X109013762Y-104300761D01*
X109013762Y-104300761D02*
X108918524Y-104205523D01*
X108918524Y-104205523D02*
X108870905Y-104110285D01*
X108870905Y-104110285D02*
X108823286Y-103919809D01*
X108823286Y-103919809D02*
X108823286Y-103776952D01*
X108823286Y-103776952D02*
X108870905Y-103586476D01*
X108870905Y-103586476D02*
X108918524Y-103491238D01*
X108918524Y-103491238D02*
X109013762Y-103396000D01*
X109013762Y-103396000D02*
X109156619Y-103348380D01*
X109156619Y-103348380D02*
X109251857Y-103348380D01*
X109251857Y-103348380D02*
X109394714Y-103396000D01*
X109394714Y-103396000D02*
X109442333Y-103443619D01*
X110394714Y-104348380D02*
X109823286Y-104348380D01*
X110109000Y-104348380D02*
X110109000Y-103348380D01*
X110109000Y-103348380D02*
X110013762Y-103491238D01*
X110013762Y-103491238D02*
X109918524Y-103586476D01*
X109918524Y-103586476D02*
X109823286Y-103634095D01*
%TO.C,U2*%
X156353095Y-146844880D02*
X156353095Y-147654404D01*
X156353095Y-147654404D02*
X156400714Y-147749642D01*
X156400714Y-147749642D02*
X156448333Y-147797261D01*
X156448333Y-147797261D02*
X156543571Y-147844880D01*
X156543571Y-147844880D02*
X156734047Y-147844880D01*
X156734047Y-147844880D02*
X156829285Y-147797261D01*
X156829285Y-147797261D02*
X156876904Y-147749642D01*
X156876904Y-147749642D02*
X156924523Y-147654404D01*
X156924523Y-147654404D02*
X156924523Y-146844880D01*
X157353095Y-146940119D02*
X157400714Y-146892500D01*
X157400714Y-146892500D02*
X157495952Y-146844880D01*
X157495952Y-146844880D02*
X157734047Y-146844880D01*
X157734047Y-146844880D02*
X157829285Y-146892500D01*
X157829285Y-146892500D02*
X157876904Y-146940119D01*
X157876904Y-146940119D02*
X157924523Y-147035357D01*
X157924523Y-147035357D02*
X157924523Y-147130595D01*
X157924523Y-147130595D02*
X157876904Y-147273452D01*
X157876904Y-147273452D02*
X157305476Y-147844880D01*
X157305476Y-147844880D02*
X157924523Y-147844880D01*
%TO.C,J2*%
X94916666Y-84667380D02*
X94916666Y-85381666D01*
X94916666Y-85381666D02*
X94869047Y-85524523D01*
X94869047Y-85524523D02*
X94773809Y-85619761D01*
X94773809Y-85619761D02*
X94630952Y-85667380D01*
X94630952Y-85667380D02*
X94535714Y-85667380D01*
X95345238Y-84762619D02*
X95392857Y-84715000D01*
X95392857Y-84715000D02*
X95488095Y-84667380D01*
X95488095Y-84667380D02*
X95726190Y-84667380D01*
X95726190Y-84667380D02*
X95821428Y-84715000D01*
X95821428Y-84715000D02*
X95869047Y-84762619D01*
X95869047Y-84762619D02*
X95916666Y-84857857D01*
X95916666Y-84857857D02*
X95916666Y-84953095D01*
X95916666Y-84953095D02*
X95869047Y-85095952D01*
X95869047Y-85095952D02*
X95297619Y-85667380D01*
X95297619Y-85667380D02*
X95916666Y-85667380D01*
%TO.C,Y1*%
X105399190Y-109316190D02*
X105875380Y-109316190D01*
X104875380Y-109649523D02*
X105399190Y-109316190D01*
X105399190Y-109316190D02*
X104875380Y-108982857D01*
X105875380Y-108125714D02*
X105875380Y-108697142D01*
X105875380Y-108411428D02*
X104875380Y-108411428D01*
X104875380Y-108411428D02*
X105018238Y-108506666D01*
X105018238Y-108506666D02*
X105113476Y-108601904D01*
X105113476Y-108601904D02*
X105161095Y-108697142D01*
%TO.C,LED4*%
X158831714Y-103550379D02*
X159498380Y-103550379D01*
X158450761Y-103788474D02*
X159165047Y-104026569D01*
X159165047Y-104026569D02*
X159165047Y-103407522D01*
%TO.C,C13*%
X162552142Y-150767142D02*
X162504523Y-150814761D01*
X162504523Y-150814761D02*
X162361666Y-150862380D01*
X162361666Y-150862380D02*
X162266428Y-150862380D01*
X162266428Y-150862380D02*
X162123571Y-150814761D01*
X162123571Y-150814761D02*
X162028333Y-150719523D01*
X162028333Y-150719523D02*
X161980714Y-150624285D01*
X161980714Y-150624285D02*
X161933095Y-150433809D01*
X161933095Y-150433809D02*
X161933095Y-150290952D01*
X161933095Y-150290952D02*
X161980714Y-150100476D01*
X161980714Y-150100476D02*
X162028333Y-150005238D01*
X162028333Y-150005238D02*
X162123571Y-149910000D01*
X162123571Y-149910000D02*
X162266428Y-149862380D01*
X162266428Y-149862380D02*
X162361666Y-149862380D01*
X162361666Y-149862380D02*
X162504523Y-149910000D01*
X162504523Y-149910000D02*
X162552142Y-149957619D01*
X163504523Y-150862380D02*
X162933095Y-150862380D01*
X163218809Y-150862380D02*
X163218809Y-149862380D01*
X163218809Y-149862380D02*
X163123571Y-150005238D01*
X163123571Y-150005238D02*
X163028333Y-150100476D01*
X163028333Y-150100476D02*
X162933095Y-150148095D01*
X163837857Y-149862380D02*
X164456904Y-149862380D01*
X164456904Y-149862380D02*
X164123571Y-150243333D01*
X164123571Y-150243333D02*
X164266428Y-150243333D01*
X164266428Y-150243333D02*
X164361666Y-150290952D01*
X164361666Y-150290952D02*
X164409285Y-150338571D01*
X164409285Y-150338571D02*
X164456904Y-150433809D01*
X164456904Y-150433809D02*
X164456904Y-150671904D01*
X164456904Y-150671904D02*
X164409285Y-150767142D01*
X164409285Y-150767142D02*
X164361666Y-150814761D01*
X164361666Y-150814761D02*
X164266428Y-150862380D01*
X164266428Y-150862380D02*
X163980714Y-150862380D01*
X163980714Y-150862380D02*
X163885476Y-150814761D01*
X163885476Y-150814761D02*
X163837857Y-150767142D01*
%TO.C,J6*%
X92903380Y-147018333D02*
X93617666Y-147018333D01*
X93617666Y-147018333D02*
X93760523Y-147065952D01*
X93760523Y-147065952D02*
X93855761Y-147161190D01*
X93855761Y-147161190D02*
X93903380Y-147304047D01*
X93903380Y-147304047D02*
X93903380Y-147399285D01*
X92903380Y-146113571D02*
X92903380Y-146304047D01*
X92903380Y-146304047D02*
X92951000Y-146399285D01*
X92951000Y-146399285D02*
X92998619Y-146446904D01*
X92998619Y-146446904D02*
X93141476Y-146542142D01*
X93141476Y-146542142D02*
X93331952Y-146589761D01*
X93331952Y-146589761D02*
X93712904Y-146589761D01*
X93712904Y-146589761D02*
X93808142Y-146542142D01*
X93808142Y-146542142D02*
X93855761Y-146494523D01*
X93855761Y-146494523D02*
X93903380Y-146399285D01*
X93903380Y-146399285D02*
X93903380Y-146208809D01*
X93903380Y-146208809D02*
X93855761Y-146113571D01*
X93855761Y-146113571D02*
X93808142Y-146065952D01*
X93808142Y-146065952D02*
X93712904Y-146018333D01*
X93712904Y-146018333D02*
X93474809Y-146018333D01*
X93474809Y-146018333D02*
X93379571Y-146065952D01*
X93379571Y-146065952D02*
X93331952Y-146113571D01*
X93331952Y-146113571D02*
X93284333Y-146208809D01*
X93284333Y-146208809D02*
X93284333Y-146399285D01*
X93284333Y-146399285D02*
X93331952Y-146494523D01*
X93331952Y-146494523D02*
X93379571Y-146542142D01*
X93379571Y-146542142D02*
X93474809Y-146589761D01*
%TO.C,R12*%
X162425142Y-145782380D02*
X162091809Y-145306190D01*
X161853714Y-145782380D02*
X161853714Y-144782380D01*
X161853714Y-144782380D02*
X162234666Y-144782380D01*
X162234666Y-144782380D02*
X162329904Y-144830000D01*
X162329904Y-144830000D02*
X162377523Y-144877619D01*
X162377523Y-144877619D02*
X162425142Y-144972857D01*
X162425142Y-144972857D02*
X162425142Y-145115714D01*
X162425142Y-145115714D02*
X162377523Y-145210952D01*
X162377523Y-145210952D02*
X162329904Y-145258571D01*
X162329904Y-145258571D02*
X162234666Y-145306190D01*
X162234666Y-145306190D02*
X161853714Y-145306190D01*
X163377523Y-145782380D02*
X162806095Y-145782380D01*
X163091809Y-145782380D02*
X163091809Y-144782380D01*
X163091809Y-144782380D02*
X162996571Y-144925238D01*
X162996571Y-144925238D02*
X162901333Y-145020476D01*
X162901333Y-145020476D02*
X162806095Y-145068095D01*
X163758476Y-144877619D02*
X163806095Y-144830000D01*
X163806095Y-144830000D02*
X163901333Y-144782380D01*
X163901333Y-144782380D02*
X164139428Y-144782380D01*
X164139428Y-144782380D02*
X164234666Y-144830000D01*
X164234666Y-144830000D02*
X164282285Y-144877619D01*
X164282285Y-144877619D02*
X164329904Y-144972857D01*
X164329904Y-144972857D02*
X164329904Y-145068095D01*
X164329904Y-145068095D02*
X164282285Y-145210952D01*
X164282285Y-145210952D02*
X163710857Y-145782380D01*
X163710857Y-145782380D02*
X164329904Y-145782380D01*
%TO.C,D1*%
X89263905Y-138724380D02*
X89263905Y-137724380D01*
X89263905Y-137724380D02*
X89502000Y-137724380D01*
X89502000Y-137724380D02*
X89644857Y-137772000D01*
X89644857Y-137772000D02*
X89740095Y-137867238D01*
X89740095Y-137867238D02*
X89787714Y-137962476D01*
X89787714Y-137962476D02*
X89835333Y-138152952D01*
X89835333Y-138152952D02*
X89835333Y-138295809D01*
X89835333Y-138295809D02*
X89787714Y-138486285D01*
X89787714Y-138486285D02*
X89740095Y-138581523D01*
X89740095Y-138581523D02*
X89644857Y-138676761D01*
X89644857Y-138676761D02*
X89502000Y-138724380D01*
X89502000Y-138724380D02*
X89263905Y-138724380D01*
X90787714Y-138724380D02*
X90216286Y-138724380D01*
X90502000Y-138724380D02*
X90502000Y-137724380D01*
X90502000Y-137724380D02*
X90406762Y-137867238D01*
X90406762Y-137867238D02*
X90311524Y-137962476D01*
X90311524Y-137962476D02*
X90216286Y-138010095D01*
%TO.C,C15*%
X137152142Y-140861142D02*
X137104523Y-140908761D01*
X137104523Y-140908761D02*
X136961666Y-140956380D01*
X136961666Y-140956380D02*
X136866428Y-140956380D01*
X136866428Y-140956380D02*
X136723571Y-140908761D01*
X136723571Y-140908761D02*
X136628333Y-140813523D01*
X136628333Y-140813523D02*
X136580714Y-140718285D01*
X136580714Y-140718285D02*
X136533095Y-140527809D01*
X136533095Y-140527809D02*
X136533095Y-140384952D01*
X136533095Y-140384952D02*
X136580714Y-140194476D01*
X136580714Y-140194476D02*
X136628333Y-140099238D01*
X136628333Y-140099238D02*
X136723571Y-140004000D01*
X136723571Y-140004000D02*
X136866428Y-139956380D01*
X136866428Y-139956380D02*
X136961666Y-139956380D01*
X136961666Y-139956380D02*
X137104523Y-140004000D01*
X137104523Y-140004000D02*
X137152142Y-140051619D01*
X138104523Y-140956380D02*
X137533095Y-140956380D01*
X137818809Y-140956380D02*
X137818809Y-139956380D01*
X137818809Y-139956380D02*
X137723571Y-140099238D01*
X137723571Y-140099238D02*
X137628333Y-140194476D01*
X137628333Y-140194476D02*
X137533095Y-140242095D01*
X139009285Y-139956380D02*
X138533095Y-139956380D01*
X138533095Y-139956380D02*
X138485476Y-140432571D01*
X138485476Y-140432571D02*
X138533095Y-140384952D01*
X138533095Y-140384952D02*
X138628333Y-140337333D01*
X138628333Y-140337333D02*
X138866428Y-140337333D01*
X138866428Y-140337333D02*
X138961666Y-140384952D01*
X138961666Y-140384952D02*
X139009285Y-140432571D01*
X139009285Y-140432571D02*
X139056904Y-140527809D01*
X139056904Y-140527809D02*
X139056904Y-140765904D01*
X139056904Y-140765904D02*
X139009285Y-140861142D01*
X139009285Y-140861142D02*
X138961666Y-140908761D01*
X138961666Y-140908761D02*
X138866428Y-140956380D01*
X138866428Y-140956380D02*
X138628333Y-140956380D01*
X138628333Y-140956380D02*
X138533095Y-140908761D01*
X138533095Y-140908761D02*
X138485476Y-140861142D01*
%TO.C,LED7*%
X158498380Y-96563046D02*
X158498380Y-95896380D01*
X158498380Y-95896380D02*
X159498380Y-96324951D01*
%TO.C,J8*%
X147621666Y-141436380D02*
X147621666Y-142150666D01*
X147621666Y-142150666D02*
X147574047Y-142293523D01*
X147574047Y-142293523D02*
X147478809Y-142388761D01*
X147478809Y-142388761D02*
X147335952Y-142436380D01*
X147335952Y-142436380D02*
X147240714Y-142436380D01*
X148240714Y-141864952D02*
X148145476Y-141817333D01*
X148145476Y-141817333D02*
X148097857Y-141769714D01*
X148097857Y-141769714D02*
X148050238Y-141674476D01*
X148050238Y-141674476D02*
X148050238Y-141626857D01*
X148050238Y-141626857D02*
X148097857Y-141531619D01*
X148097857Y-141531619D02*
X148145476Y-141484000D01*
X148145476Y-141484000D02*
X148240714Y-141436380D01*
X148240714Y-141436380D02*
X148431190Y-141436380D01*
X148431190Y-141436380D02*
X148526428Y-141484000D01*
X148526428Y-141484000D02*
X148574047Y-141531619D01*
X148574047Y-141531619D02*
X148621666Y-141626857D01*
X148621666Y-141626857D02*
X148621666Y-141674476D01*
X148621666Y-141674476D02*
X148574047Y-141769714D01*
X148574047Y-141769714D02*
X148526428Y-141817333D01*
X148526428Y-141817333D02*
X148431190Y-141864952D01*
X148431190Y-141864952D02*
X148240714Y-141864952D01*
X148240714Y-141864952D02*
X148145476Y-141912571D01*
X148145476Y-141912571D02*
X148097857Y-141960190D01*
X148097857Y-141960190D02*
X148050238Y-142055428D01*
X148050238Y-142055428D02*
X148050238Y-142245904D01*
X148050238Y-142245904D02*
X148097857Y-142341142D01*
X148097857Y-142341142D02*
X148145476Y-142388761D01*
X148145476Y-142388761D02*
X148240714Y-142436380D01*
X148240714Y-142436380D02*
X148431190Y-142436380D01*
X148431190Y-142436380D02*
X148526428Y-142388761D01*
X148526428Y-142388761D02*
X148574047Y-142341142D01*
X148574047Y-142341142D02*
X148621666Y-142245904D01*
X148621666Y-142245904D02*
X148621666Y-142055428D01*
X148621666Y-142055428D02*
X148574047Y-141960190D01*
X148574047Y-141960190D02*
X148526428Y-141912571D01*
X148526428Y-141912571D02*
X148431190Y-141864952D01*
%TO.C,C3*%
X138067142Y-100877666D02*
X138114761Y-100925285D01*
X138114761Y-100925285D02*
X138162380Y-101068142D01*
X138162380Y-101068142D02*
X138162380Y-101163380D01*
X138162380Y-101163380D02*
X138114761Y-101306237D01*
X138114761Y-101306237D02*
X138019523Y-101401475D01*
X138019523Y-101401475D02*
X137924285Y-101449094D01*
X137924285Y-101449094D02*
X137733809Y-101496713D01*
X137733809Y-101496713D02*
X137590952Y-101496713D01*
X137590952Y-101496713D02*
X137400476Y-101449094D01*
X137400476Y-101449094D02*
X137305238Y-101401475D01*
X137305238Y-101401475D02*
X137210000Y-101306237D01*
X137210000Y-101306237D02*
X137162380Y-101163380D01*
X137162380Y-101163380D02*
X137162380Y-101068142D01*
X137162380Y-101068142D02*
X137210000Y-100925285D01*
X137210000Y-100925285D02*
X137257619Y-100877666D01*
X137162380Y-100544332D02*
X137162380Y-99925285D01*
X137162380Y-99925285D02*
X137543333Y-100258618D01*
X137543333Y-100258618D02*
X137543333Y-100115761D01*
X137543333Y-100115761D02*
X137590952Y-100020523D01*
X137590952Y-100020523D02*
X137638571Y-99972904D01*
X137638571Y-99972904D02*
X137733809Y-99925285D01*
X137733809Y-99925285D02*
X137971904Y-99925285D01*
X137971904Y-99925285D02*
X138067142Y-99972904D01*
X138067142Y-99972904D02*
X138114761Y-100020523D01*
X138114761Y-100020523D02*
X138162380Y-100115761D01*
X138162380Y-100115761D02*
X138162380Y-100401475D01*
X138162380Y-100401475D02*
X138114761Y-100496713D01*
X138114761Y-100496713D02*
X138067142Y-100544332D01*
%TO.C,C5*%
X125690333Y-114191142D02*
X125642714Y-114238761D01*
X125642714Y-114238761D02*
X125499857Y-114286380D01*
X125499857Y-114286380D02*
X125404619Y-114286380D01*
X125404619Y-114286380D02*
X125261762Y-114238761D01*
X125261762Y-114238761D02*
X125166524Y-114143523D01*
X125166524Y-114143523D02*
X125118905Y-114048285D01*
X125118905Y-114048285D02*
X125071286Y-113857809D01*
X125071286Y-113857809D02*
X125071286Y-113714952D01*
X125071286Y-113714952D02*
X125118905Y-113524476D01*
X125118905Y-113524476D02*
X125166524Y-113429238D01*
X125166524Y-113429238D02*
X125261762Y-113334000D01*
X125261762Y-113334000D02*
X125404619Y-113286380D01*
X125404619Y-113286380D02*
X125499857Y-113286380D01*
X125499857Y-113286380D02*
X125642714Y-113334000D01*
X125642714Y-113334000D02*
X125690333Y-113381619D01*
X126595095Y-113286380D02*
X126118905Y-113286380D01*
X126118905Y-113286380D02*
X126071286Y-113762571D01*
X126071286Y-113762571D02*
X126118905Y-113714952D01*
X126118905Y-113714952D02*
X126214143Y-113667333D01*
X126214143Y-113667333D02*
X126452238Y-113667333D01*
X126452238Y-113667333D02*
X126547476Y-113714952D01*
X126547476Y-113714952D02*
X126595095Y-113762571D01*
X126595095Y-113762571D02*
X126642714Y-113857809D01*
X126642714Y-113857809D02*
X126642714Y-114095904D01*
X126642714Y-114095904D02*
X126595095Y-114191142D01*
X126595095Y-114191142D02*
X126547476Y-114238761D01*
X126547476Y-114238761D02*
X126452238Y-114286380D01*
X126452238Y-114286380D02*
X126214143Y-114286380D01*
X126214143Y-114286380D02*
X126118905Y-114238761D01*
X126118905Y-114238761D02*
X126071286Y-114191142D01*
%TO.C,J5*%
X143025166Y-71267380D02*
X143025166Y-71981666D01*
X143025166Y-71981666D02*
X142977547Y-72124523D01*
X142977547Y-72124523D02*
X142882309Y-72219761D01*
X142882309Y-72219761D02*
X142739452Y-72267380D01*
X142739452Y-72267380D02*
X142644214Y-72267380D01*
X143977547Y-71267380D02*
X143501357Y-71267380D01*
X143501357Y-71267380D02*
X143453738Y-71743571D01*
X143453738Y-71743571D02*
X143501357Y-71695952D01*
X143501357Y-71695952D02*
X143596595Y-71648333D01*
X143596595Y-71648333D02*
X143834690Y-71648333D01*
X143834690Y-71648333D02*
X143929928Y-71695952D01*
X143929928Y-71695952D02*
X143977547Y-71743571D01*
X143977547Y-71743571D02*
X144025166Y-71838809D01*
X144025166Y-71838809D02*
X144025166Y-72076904D01*
X144025166Y-72076904D02*
X143977547Y-72172142D01*
X143977547Y-72172142D02*
X143929928Y-72219761D01*
X143929928Y-72219761D02*
X143834690Y-72267380D01*
X143834690Y-72267380D02*
X143596595Y-72267380D01*
X143596595Y-72267380D02*
X143501357Y-72219761D01*
X143501357Y-72219761D02*
X143453738Y-72172142D01*
D10*
X95948523Y-66820142D02*
X95900904Y-66867761D01*
X95900904Y-66867761D02*
X95758047Y-66915380D01*
X95758047Y-66915380D02*
X95662809Y-66915380D01*
X95662809Y-66915380D02*
X95519952Y-66867761D01*
X95519952Y-66867761D02*
X95424714Y-66772523D01*
X95424714Y-66772523D02*
X95377095Y-66677285D01*
X95377095Y-66677285D02*
X95329476Y-66486809D01*
X95329476Y-66486809D02*
X95329476Y-66343952D01*
X95329476Y-66343952D02*
X95377095Y-66153476D01*
X95377095Y-66153476D02*
X95424714Y-66058238D01*
X95424714Y-66058238D02*
X95519952Y-65963000D01*
X95519952Y-65963000D02*
X95662809Y-65915380D01*
X95662809Y-65915380D02*
X95758047Y-65915380D01*
X95758047Y-65915380D02*
X95900904Y-65963000D01*
X95900904Y-65963000D02*
X95948523Y-66010619D01*
X96948523Y-66820142D02*
X96900904Y-66867761D01*
X96900904Y-66867761D02*
X96758047Y-66915380D01*
X96758047Y-66915380D02*
X96662809Y-66915380D01*
X96662809Y-66915380D02*
X96519952Y-66867761D01*
X96519952Y-66867761D02*
X96424714Y-66772523D01*
X96424714Y-66772523D02*
X96377095Y-66677285D01*
X96377095Y-66677285D02*
X96329476Y-66486809D01*
X96329476Y-66486809D02*
X96329476Y-66343952D01*
X96329476Y-66343952D02*
X96377095Y-66153476D01*
X96377095Y-66153476D02*
X96424714Y-66058238D01*
X96424714Y-66058238D02*
X96519952Y-65963000D01*
X96519952Y-65963000D02*
X96662809Y-65915380D01*
X96662809Y-65915380D02*
X96758047Y-65915380D01*
X96758047Y-65915380D02*
X96900904Y-65963000D01*
X96900904Y-65963000D02*
X96948523Y-66010619D01*
X156860905Y-66502666D02*
X157337095Y-66502666D01*
X156765667Y-66788380D02*
X157099000Y-65788380D01*
X157099000Y-65788380D02*
X157432333Y-66788380D01*
D14*
X108231214Y-69279860D02*
X108231214Y-67374860D01*
X108231214Y-67374860D02*
X108684785Y-67374860D01*
X108684785Y-67374860D02*
X108956928Y-67465575D01*
X108956928Y-67465575D02*
X109138357Y-67647003D01*
X109138357Y-67647003D02*
X109229071Y-67828432D01*
X109229071Y-67828432D02*
X109319785Y-68191289D01*
X109319785Y-68191289D02*
X109319785Y-68463432D01*
X109319785Y-68463432D02*
X109229071Y-68826289D01*
X109229071Y-68826289D02*
X109138357Y-69007717D01*
X109138357Y-69007717D02*
X108956928Y-69189146D01*
X108956928Y-69189146D02*
X108684785Y-69279860D01*
X108684785Y-69279860D02*
X108231214Y-69279860D01*
X110045500Y-68735575D02*
X110952643Y-68735575D01*
X109864071Y-69279860D02*
X110499071Y-67374860D01*
X110499071Y-67374860D02*
X111134071Y-69279860D01*
X111496928Y-67374860D02*
X112585500Y-67374860D01*
X112041214Y-69279860D02*
X112041214Y-67374860D01*
X113129786Y-68735575D02*
X114036929Y-68735575D01*
X112948357Y-69279860D02*
X113583357Y-67374860D01*
X113583357Y-67374860D02*
X114218357Y-69279860D01*
X115996357Y-69279860D02*
X115996357Y-67374860D01*
X118264214Y-67284146D02*
X116631357Y-69733432D01*
X119262071Y-67374860D02*
X119624928Y-67374860D01*
X119624928Y-67374860D02*
X119806357Y-67465575D01*
X119806357Y-67465575D02*
X119987785Y-67647003D01*
X119987785Y-67647003D02*
X120078500Y-68009860D01*
X120078500Y-68009860D02*
X120078500Y-68644860D01*
X120078500Y-68644860D02*
X119987785Y-69007717D01*
X119987785Y-69007717D02*
X119806357Y-69189146D01*
X119806357Y-69189146D02*
X119624928Y-69279860D01*
X119624928Y-69279860D02*
X119262071Y-69279860D01*
X119262071Y-69279860D02*
X119080643Y-69189146D01*
X119080643Y-69189146D02*
X118899214Y-69007717D01*
X118899214Y-69007717D02*
X118808500Y-68644860D01*
X118808500Y-68644860D02*
X118808500Y-68009860D01*
X118808500Y-68009860D02*
X118899214Y-67647003D01*
X118899214Y-67647003D02*
X119080643Y-67465575D01*
X119080643Y-67465575D02*
X119262071Y-67374860D01*
X121947214Y-67556289D02*
X122037928Y-67465575D01*
X122037928Y-67465575D02*
X122219357Y-67374860D01*
X122219357Y-67374860D02*
X122672928Y-67374860D01*
X122672928Y-67374860D02*
X122854357Y-67465575D01*
X122854357Y-67465575D02*
X122945071Y-67556289D01*
X122945071Y-67556289D02*
X123035785Y-67737717D01*
X123035785Y-67737717D02*
X123035785Y-67919146D01*
X123035785Y-67919146D02*
X122945071Y-68191289D01*
X122945071Y-68191289D02*
X121856499Y-69279860D01*
X121856499Y-69279860D02*
X123035785Y-69279860D01*
X123942928Y-69279860D02*
X124305785Y-69279860D01*
X124305785Y-69279860D02*
X124487214Y-69189146D01*
X124487214Y-69189146D02*
X124577928Y-69098432D01*
X124577928Y-69098432D02*
X124759357Y-68826289D01*
X124759357Y-68826289D02*
X124850071Y-68463432D01*
X124850071Y-68463432D02*
X124850071Y-67737717D01*
X124850071Y-67737717D02*
X124759357Y-67556289D01*
X124759357Y-67556289D02*
X124668643Y-67465575D01*
X124668643Y-67465575D02*
X124487214Y-67374860D01*
X124487214Y-67374860D02*
X124124357Y-67374860D01*
X124124357Y-67374860D02*
X123942928Y-67465575D01*
X123942928Y-67465575D02*
X123852214Y-67556289D01*
X123852214Y-67556289D02*
X123761500Y-67737717D01*
X123761500Y-67737717D02*
X123761500Y-68191289D01*
X123761500Y-68191289D02*
X123852214Y-68372717D01*
X123852214Y-68372717D02*
X123942928Y-68463432D01*
X123942928Y-68463432D02*
X124124357Y-68554146D01*
X124124357Y-68554146D02*
X124487214Y-68554146D01*
X124487214Y-68554146D02*
X124668643Y-68463432D01*
X124668643Y-68463432D02*
X124759357Y-68372717D01*
X124759357Y-68372717D02*
X124850071Y-68191289D01*
X126301500Y-68282003D02*
X126573643Y-68372717D01*
X126573643Y-68372717D02*
X126664357Y-68463432D01*
X126664357Y-68463432D02*
X126755071Y-68644860D01*
X126755071Y-68644860D02*
X126755071Y-68917003D01*
X126755071Y-68917003D02*
X126664357Y-69098432D01*
X126664357Y-69098432D02*
X126573643Y-69189146D01*
X126573643Y-69189146D02*
X126392214Y-69279860D01*
X126392214Y-69279860D02*
X125666500Y-69279860D01*
X125666500Y-69279860D02*
X125666500Y-67374860D01*
X125666500Y-67374860D02*
X126301500Y-67374860D01*
X126301500Y-67374860D02*
X126482929Y-67465575D01*
X126482929Y-67465575D02*
X126573643Y-67556289D01*
X126573643Y-67556289D02*
X126664357Y-67737717D01*
X126664357Y-67737717D02*
X126664357Y-67919146D01*
X126664357Y-67919146D02*
X126573643Y-68100575D01*
X126573643Y-68100575D02*
X126482929Y-68191289D01*
X126482929Y-68191289D02*
X126301500Y-68282003D01*
X126301500Y-68282003D02*
X125666500Y-68282003D01*
X128714500Y-69279860D02*
X128714500Y-67374860D01*
X128714500Y-67374860D02*
X129349500Y-68735575D01*
X129349500Y-68735575D02*
X129984500Y-67374860D01*
X129984500Y-67374860D02*
X129984500Y-69279860D01*
X130891643Y-68282003D02*
X131526643Y-68282003D01*
X131798786Y-69279860D02*
X130891643Y-69279860D01*
X130891643Y-69279860D02*
X130891643Y-67374860D01*
X130891643Y-67374860D02*
X131798786Y-67374860D01*
X132615214Y-69279860D02*
X132615214Y-67374860D01*
X132615214Y-67374860D02*
X133250214Y-68735575D01*
X133250214Y-68735575D02*
X133885214Y-67374860D01*
X133885214Y-67374860D02*
X133885214Y-69279860D01*
X135155214Y-67374860D02*
X135518071Y-67374860D01*
X135518071Y-67374860D02*
X135699500Y-67465575D01*
X135699500Y-67465575D02*
X135880928Y-67647003D01*
X135880928Y-67647003D02*
X135971643Y-68009860D01*
X135971643Y-68009860D02*
X135971643Y-68644860D01*
X135971643Y-68644860D02*
X135880928Y-69007717D01*
X135880928Y-69007717D02*
X135699500Y-69189146D01*
X135699500Y-69189146D02*
X135518071Y-69279860D01*
X135518071Y-69279860D02*
X135155214Y-69279860D01*
X135155214Y-69279860D02*
X134973786Y-69189146D01*
X134973786Y-69189146D02*
X134792357Y-69007717D01*
X134792357Y-69007717D02*
X134701643Y-68644860D01*
X134701643Y-68644860D02*
X134701643Y-68009860D01*
X134701643Y-68009860D02*
X134792357Y-67647003D01*
X134792357Y-67647003D02*
X134973786Y-67465575D01*
X134973786Y-67465575D02*
X135155214Y-67374860D01*
X137876642Y-69279860D02*
X137241642Y-68372717D01*
X136788071Y-69279860D02*
X136788071Y-67374860D01*
X136788071Y-67374860D02*
X137513785Y-67374860D01*
X137513785Y-67374860D02*
X137695214Y-67465575D01*
X137695214Y-67465575D02*
X137785928Y-67556289D01*
X137785928Y-67556289D02*
X137876642Y-67737717D01*
X137876642Y-67737717D02*
X137876642Y-68009860D01*
X137876642Y-68009860D02*
X137785928Y-68191289D01*
X137785928Y-68191289D02*
X137695214Y-68282003D01*
X137695214Y-68282003D02*
X137513785Y-68372717D01*
X137513785Y-68372717D02*
X136788071Y-68372717D01*
X139055928Y-68372717D02*
X139055928Y-69279860D01*
X138420928Y-67374860D02*
X139055928Y-68372717D01*
X139055928Y-68372717D02*
X139690928Y-67374860D01*
X141468928Y-69279860D02*
X141468928Y-67374860D01*
X141468928Y-67374860D02*
X142194642Y-67374860D01*
X142194642Y-67374860D02*
X142376071Y-67465575D01*
X142376071Y-67465575D02*
X142466785Y-67556289D01*
X142466785Y-67556289D02*
X142557499Y-67737717D01*
X142557499Y-67737717D02*
X142557499Y-68009860D01*
X142557499Y-68009860D02*
X142466785Y-68191289D01*
X142466785Y-68191289D02*
X142376071Y-68282003D01*
X142376071Y-68282003D02*
X142194642Y-68372717D01*
X142194642Y-68372717D02*
X141468928Y-68372717D01*
X144462499Y-69098432D02*
X144371785Y-69189146D01*
X144371785Y-69189146D02*
X144099642Y-69279860D01*
X144099642Y-69279860D02*
X143918214Y-69279860D01*
X143918214Y-69279860D02*
X143646071Y-69189146D01*
X143646071Y-69189146D02*
X143464642Y-69007717D01*
X143464642Y-69007717D02*
X143373928Y-68826289D01*
X143373928Y-68826289D02*
X143283214Y-68463432D01*
X143283214Y-68463432D02*
X143283214Y-68191289D01*
X143283214Y-68191289D02*
X143373928Y-67828432D01*
X143373928Y-67828432D02*
X143464642Y-67647003D01*
X143464642Y-67647003D02*
X143646071Y-67465575D01*
X143646071Y-67465575D02*
X143918214Y-67374860D01*
X143918214Y-67374860D02*
X144099642Y-67374860D01*
X144099642Y-67374860D02*
X144371785Y-67465575D01*
X144371785Y-67465575D02*
X144462499Y-67556289D01*
X145913928Y-68282003D02*
X146186071Y-68372717D01*
X146186071Y-68372717D02*
X146276785Y-68463432D01*
X146276785Y-68463432D02*
X146367499Y-68644860D01*
X146367499Y-68644860D02*
X146367499Y-68917003D01*
X146367499Y-68917003D02*
X146276785Y-69098432D01*
X146276785Y-69098432D02*
X146186071Y-69189146D01*
X146186071Y-69189146D02*
X146004642Y-69279860D01*
X146004642Y-69279860D02*
X145278928Y-69279860D01*
X145278928Y-69279860D02*
X145278928Y-67374860D01*
X145278928Y-67374860D02*
X145913928Y-67374860D01*
X145913928Y-67374860D02*
X146095357Y-67465575D01*
X146095357Y-67465575D02*
X146186071Y-67556289D01*
X146186071Y-67556289D02*
X146276785Y-67737717D01*
X146276785Y-67737717D02*
X146276785Y-67919146D01*
X146276785Y-67919146D02*
X146186071Y-68100575D01*
X146186071Y-68100575D02*
X146095357Y-68191289D01*
X146095357Y-68191289D02*
X145913928Y-68282003D01*
X145913928Y-68282003D02*
X145278928Y-68282003D01*
D13*
%TO.C,C2*%
X109434333Y-114699142D02*
X109386714Y-114746761D01*
X109386714Y-114746761D02*
X109243857Y-114794380D01*
X109243857Y-114794380D02*
X109148619Y-114794380D01*
X109148619Y-114794380D02*
X109005762Y-114746761D01*
X109005762Y-114746761D02*
X108910524Y-114651523D01*
X108910524Y-114651523D02*
X108862905Y-114556285D01*
X108862905Y-114556285D02*
X108815286Y-114365809D01*
X108815286Y-114365809D02*
X108815286Y-114222952D01*
X108815286Y-114222952D02*
X108862905Y-114032476D01*
X108862905Y-114032476D02*
X108910524Y-113937238D01*
X108910524Y-113937238D02*
X109005762Y-113842000D01*
X109005762Y-113842000D02*
X109148619Y-113794380D01*
X109148619Y-113794380D02*
X109243857Y-113794380D01*
X109243857Y-113794380D02*
X109386714Y-113842000D01*
X109386714Y-113842000D02*
X109434333Y-113889619D01*
X109815286Y-113889619D02*
X109862905Y-113842000D01*
X109862905Y-113842000D02*
X109958143Y-113794380D01*
X109958143Y-113794380D02*
X110196238Y-113794380D01*
X110196238Y-113794380D02*
X110291476Y-113842000D01*
X110291476Y-113842000D02*
X110339095Y-113889619D01*
X110339095Y-113889619D02*
X110386714Y-113984857D01*
X110386714Y-113984857D02*
X110386714Y-114080095D01*
X110386714Y-114080095D02*
X110339095Y-114222952D01*
X110339095Y-114222952D02*
X109767667Y-114794380D01*
X109767667Y-114794380D02*
X110386714Y-114794380D01*
%TO.C,C11*%
X165600142Y-141844142D02*
X165552523Y-141891761D01*
X165552523Y-141891761D02*
X165409666Y-141939380D01*
X165409666Y-141939380D02*
X165314428Y-141939380D01*
X165314428Y-141939380D02*
X165171571Y-141891761D01*
X165171571Y-141891761D02*
X165076333Y-141796523D01*
X165076333Y-141796523D02*
X165028714Y-141701285D01*
X165028714Y-141701285D02*
X164981095Y-141510809D01*
X164981095Y-141510809D02*
X164981095Y-141367952D01*
X164981095Y-141367952D02*
X165028714Y-141177476D01*
X165028714Y-141177476D02*
X165076333Y-141082238D01*
X165076333Y-141082238D02*
X165171571Y-140987000D01*
X165171571Y-140987000D02*
X165314428Y-140939380D01*
X165314428Y-140939380D02*
X165409666Y-140939380D01*
X165409666Y-140939380D02*
X165552523Y-140987000D01*
X165552523Y-140987000D02*
X165600142Y-141034619D01*
X166552523Y-141939380D02*
X165981095Y-141939380D01*
X166266809Y-141939380D02*
X166266809Y-140939380D01*
X166266809Y-140939380D02*
X166171571Y-141082238D01*
X166171571Y-141082238D02*
X166076333Y-141177476D01*
X166076333Y-141177476D02*
X165981095Y-141225095D01*
X167504904Y-141939380D02*
X166933476Y-141939380D01*
X167219190Y-141939380D02*
X167219190Y-140939380D01*
X167219190Y-140939380D02*
X167123952Y-141082238D01*
X167123952Y-141082238D02*
X167028714Y-141177476D01*
X167028714Y-141177476D02*
X166933476Y-141225095D01*
%TO.C,C7*%
X123658333Y-87869142D02*
X123610714Y-87916761D01*
X123610714Y-87916761D02*
X123467857Y-87964380D01*
X123467857Y-87964380D02*
X123372619Y-87964380D01*
X123372619Y-87964380D02*
X123229762Y-87916761D01*
X123229762Y-87916761D02*
X123134524Y-87821523D01*
X123134524Y-87821523D02*
X123086905Y-87726285D01*
X123086905Y-87726285D02*
X123039286Y-87535809D01*
X123039286Y-87535809D02*
X123039286Y-87392952D01*
X123039286Y-87392952D02*
X123086905Y-87202476D01*
X123086905Y-87202476D02*
X123134524Y-87107238D01*
X123134524Y-87107238D02*
X123229762Y-87012000D01*
X123229762Y-87012000D02*
X123372619Y-86964380D01*
X123372619Y-86964380D02*
X123467857Y-86964380D01*
X123467857Y-86964380D02*
X123610714Y-87012000D01*
X123610714Y-87012000D02*
X123658333Y-87059619D01*
X123991667Y-86964380D02*
X124658333Y-86964380D01*
X124658333Y-86964380D02*
X124229762Y-87964380D01*
%TO.C,C4*%
X140480142Y-106973666D02*
X140527761Y-107021285D01*
X140527761Y-107021285D02*
X140575380Y-107164142D01*
X140575380Y-107164142D02*
X140575380Y-107259380D01*
X140575380Y-107259380D02*
X140527761Y-107402237D01*
X140527761Y-107402237D02*
X140432523Y-107497475D01*
X140432523Y-107497475D02*
X140337285Y-107545094D01*
X140337285Y-107545094D02*
X140146809Y-107592713D01*
X140146809Y-107592713D02*
X140003952Y-107592713D01*
X140003952Y-107592713D02*
X139813476Y-107545094D01*
X139813476Y-107545094D02*
X139718238Y-107497475D01*
X139718238Y-107497475D02*
X139623000Y-107402237D01*
X139623000Y-107402237D02*
X139575380Y-107259380D01*
X139575380Y-107259380D02*
X139575380Y-107164142D01*
X139575380Y-107164142D02*
X139623000Y-107021285D01*
X139623000Y-107021285D02*
X139670619Y-106973666D01*
X139908714Y-106116523D02*
X140575380Y-106116523D01*
X139527761Y-106354618D02*
X140242047Y-106592713D01*
X140242047Y-106592713D02*
X140242047Y-105973666D01*
%TO.C,C9*%
X165949333Y-150767142D02*
X165901714Y-150814761D01*
X165901714Y-150814761D02*
X165758857Y-150862380D01*
X165758857Y-150862380D02*
X165663619Y-150862380D01*
X165663619Y-150862380D02*
X165520762Y-150814761D01*
X165520762Y-150814761D02*
X165425524Y-150719523D01*
X165425524Y-150719523D02*
X165377905Y-150624285D01*
X165377905Y-150624285D02*
X165330286Y-150433809D01*
X165330286Y-150433809D02*
X165330286Y-150290952D01*
X165330286Y-150290952D02*
X165377905Y-150100476D01*
X165377905Y-150100476D02*
X165425524Y-150005238D01*
X165425524Y-150005238D02*
X165520762Y-149910000D01*
X165520762Y-149910000D02*
X165663619Y-149862380D01*
X165663619Y-149862380D02*
X165758857Y-149862380D01*
X165758857Y-149862380D02*
X165901714Y-149910000D01*
X165901714Y-149910000D02*
X165949333Y-149957619D01*
X166425524Y-150862380D02*
X166616000Y-150862380D01*
X166616000Y-150862380D02*
X166711238Y-150814761D01*
X166711238Y-150814761D02*
X166758857Y-150767142D01*
X166758857Y-150767142D02*
X166854095Y-150624285D01*
X166854095Y-150624285D02*
X166901714Y-150433809D01*
X166901714Y-150433809D02*
X166901714Y-150052857D01*
X166901714Y-150052857D02*
X166854095Y-149957619D01*
X166854095Y-149957619D02*
X166806476Y-149910000D01*
X166806476Y-149910000D02*
X166711238Y-149862380D01*
X166711238Y-149862380D02*
X166520762Y-149862380D01*
X166520762Y-149862380D02*
X166425524Y-149910000D01*
X166425524Y-149910000D02*
X166377905Y-149957619D01*
X166377905Y-149957619D02*
X166330286Y-150052857D01*
X166330286Y-150052857D02*
X166330286Y-150290952D01*
X166330286Y-150290952D02*
X166377905Y-150386190D01*
X166377905Y-150386190D02*
X166425524Y-150433809D01*
X166425524Y-150433809D02*
X166520762Y-150481428D01*
X166520762Y-150481428D02*
X166711238Y-150481428D01*
X166711238Y-150481428D02*
X166806476Y-150433809D01*
X166806476Y-150433809D02*
X166854095Y-150386190D01*
X166854095Y-150386190D02*
X166901714Y-150290952D01*
%TO.C,C18*%
X83359142Y-124467857D02*
X83406761Y-124515476D01*
X83406761Y-124515476D02*
X83454380Y-124658333D01*
X83454380Y-124658333D02*
X83454380Y-124753571D01*
X83454380Y-124753571D02*
X83406761Y-124896428D01*
X83406761Y-124896428D02*
X83311523Y-124991666D01*
X83311523Y-124991666D02*
X83216285Y-125039285D01*
X83216285Y-125039285D02*
X83025809Y-125086904D01*
X83025809Y-125086904D02*
X82882952Y-125086904D01*
X82882952Y-125086904D02*
X82692476Y-125039285D01*
X82692476Y-125039285D02*
X82597238Y-124991666D01*
X82597238Y-124991666D02*
X82502000Y-124896428D01*
X82502000Y-124896428D02*
X82454380Y-124753571D01*
X82454380Y-124753571D02*
X82454380Y-124658333D01*
X82454380Y-124658333D02*
X82502000Y-124515476D01*
X82502000Y-124515476D02*
X82549619Y-124467857D01*
X83454380Y-123515476D02*
X83454380Y-124086904D01*
X83454380Y-123801190D02*
X82454380Y-123801190D01*
X82454380Y-123801190D02*
X82597238Y-123896428D01*
X82597238Y-123896428D02*
X82692476Y-123991666D01*
X82692476Y-123991666D02*
X82740095Y-124086904D01*
X82882952Y-122944047D02*
X82835333Y-123039285D01*
X82835333Y-123039285D02*
X82787714Y-123086904D01*
X82787714Y-123086904D02*
X82692476Y-123134523D01*
X82692476Y-123134523D02*
X82644857Y-123134523D01*
X82644857Y-123134523D02*
X82549619Y-123086904D01*
X82549619Y-123086904D02*
X82502000Y-123039285D01*
X82502000Y-123039285D02*
X82454380Y-122944047D01*
X82454380Y-122944047D02*
X82454380Y-122753571D01*
X82454380Y-122753571D02*
X82502000Y-122658333D01*
X82502000Y-122658333D02*
X82549619Y-122610714D01*
X82549619Y-122610714D02*
X82644857Y-122563095D01*
X82644857Y-122563095D02*
X82692476Y-122563095D01*
X82692476Y-122563095D02*
X82787714Y-122610714D01*
X82787714Y-122610714D02*
X82835333Y-122658333D01*
X82835333Y-122658333D02*
X82882952Y-122753571D01*
X82882952Y-122753571D02*
X82882952Y-122944047D01*
X82882952Y-122944047D02*
X82930571Y-123039285D01*
X82930571Y-123039285D02*
X82978190Y-123086904D01*
X82978190Y-123086904D02*
X83073428Y-123134523D01*
X83073428Y-123134523D02*
X83263904Y-123134523D01*
X83263904Y-123134523D02*
X83359142Y-123086904D01*
X83359142Y-123086904D02*
X83406761Y-123039285D01*
X83406761Y-123039285D02*
X83454380Y-122944047D01*
X83454380Y-122944047D02*
X83454380Y-122753571D01*
X83454380Y-122753571D02*
X83406761Y-122658333D01*
X83406761Y-122658333D02*
X83359142Y-122610714D01*
X83359142Y-122610714D02*
X83263904Y-122563095D01*
X83263904Y-122563095D02*
X83073428Y-122563095D01*
X83073428Y-122563095D02*
X82978190Y-122610714D01*
X82978190Y-122610714D02*
X82930571Y-122658333D01*
X82930571Y-122658333D02*
X82882952Y-122753571D01*
%TO.C,LED8*%
X158926952Y-93821237D02*
X158879333Y-93916475D01*
X158879333Y-93916475D02*
X158831714Y-93964094D01*
X158831714Y-93964094D02*
X158736476Y-94011713D01*
X158736476Y-94011713D02*
X158688857Y-94011713D01*
X158688857Y-94011713D02*
X158593619Y-93964094D01*
X158593619Y-93964094D02*
X158546000Y-93916475D01*
X158546000Y-93916475D02*
X158498380Y-93821237D01*
X158498380Y-93821237D02*
X158498380Y-93630761D01*
X158498380Y-93630761D02*
X158546000Y-93535523D01*
X158546000Y-93535523D02*
X158593619Y-93487904D01*
X158593619Y-93487904D02*
X158688857Y-93440285D01*
X158688857Y-93440285D02*
X158736476Y-93440285D01*
X158736476Y-93440285D02*
X158831714Y-93487904D01*
X158831714Y-93487904D02*
X158879333Y-93535523D01*
X158879333Y-93535523D02*
X158926952Y-93630761D01*
X158926952Y-93630761D02*
X158926952Y-93821237D01*
X158926952Y-93821237D02*
X158974571Y-93916475D01*
X158974571Y-93916475D02*
X159022190Y-93964094D01*
X159022190Y-93964094D02*
X159117428Y-94011713D01*
X159117428Y-94011713D02*
X159307904Y-94011713D01*
X159307904Y-94011713D02*
X159403142Y-93964094D01*
X159403142Y-93964094D02*
X159450761Y-93916475D01*
X159450761Y-93916475D02*
X159498380Y-93821237D01*
X159498380Y-93821237D02*
X159498380Y-93630761D01*
X159498380Y-93630761D02*
X159450761Y-93535523D01*
X159450761Y-93535523D02*
X159403142Y-93487904D01*
X159403142Y-93487904D02*
X159307904Y-93440285D01*
X159307904Y-93440285D02*
X159117428Y-93440285D01*
X159117428Y-93440285D02*
X159022190Y-93487904D01*
X159022190Y-93487904D02*
X158974571Y-93535523D01*
X158974571Y-93535523D02*
X158926952Y-93630761D01*
%TO.C,R11*%
X162552142Y-147433380D02*
X162218809Y-146957190D01*
X161980714Y-147433380D02*
X161980714Y-146433380D01*
X161980714Y-146433380D02*
X162361666Y-146433380D01*
X162361666Y-146433380D02*
X162456904Y-146481000D01*
X162456904Y-146481000D02*
X162504523Y-146528619D01*
X162504523Y-146528619D02*
X162552142Y-146623857D01*
X162552142Y-146623857D02*
X162552142Y-146766714D01*
X162552142Y-146766714D02*
X162504523Y-146861952D01*
X162504523Y-146861952D02*
X162456904Y-146909571D01*
X162456904Y-146909571D02*
X162361666Y-146957190D01*
X162361666Y-146957190D02*
X161980714Y-146957190D01*
X163504523Y-147433380D02*
X162933095Y-147433380D01*
X163218809Y-147433380D02*
X163218809Y-146433380D01*
X163218809Y-146433380D02*
X163123571Y-146576238D01*
X163123571Y-146576238D02*
X163028333Y-146671476D01*
X163028333Y-146671476D02*
X162933095Y-146719095D01*
X164456904Y-147433380D02*
X163885476Y-147433380D01*
X164171190Y-147433380D02*
X164171190Y-146433380D01*
X164171190Y-146433380D02*
X164075952Y-146576238D01*
X164075952Y-146576238D02*
X163980714Y-146671476D01*
X163980714Y-146671476D02*
X163885476Y-146719095D01*
%TO.C,LED5*%
X158498380Y-100999046D02*
X158498380Y-101475236D01*
X158498380Y-101475236D02*
X158974571Y-101522855D01*
X158974571Y-101522855D02*
X158926952Y-101475236D01*
X158926952Y-101475236D02*
X158879333Y-101379998D01*
X158879333Y-101379998D02*
X158879333Y-101141903D01*
X158879333Y-101141903D02*
X158926952Y-101046665D01*
X158926952Y-101046665D02*
X158974571Y-100999046D01*
X158974571Y-100999046D02*
X159069809Y-100951427D01*
X159069809Y-100951427D02*
X159307904Y-100951427D01*
X159307904Y-100951427D02*
X159403142Y-100999046D01*
X159403142Y-100999046D02*
X159450761Y-101046665D01*
X159450761Y-101046665D02*
X159498380Y-101141903D01*
X159498380Y-101141903D02*
X159498380Y-101379998D01*
X159498380Y-101379998D02*
X159450761Y-101475236D01*
X159450761Y-101475236D02*
X159403142Y-101522855D01*
%TO.C,LED1*%
X159498380Y-110966285D02*
X159498380Y-111537713D01*
X159498380Y-111251999D02*
X158498380Y-111251999D01*
X158498380Y-111251999D02*
X158641238Y-111347237D01*
X158641238Y-111347237D02*
X158736476Y-111442475D01*
X158736476Y-111442475D02*
X158784095Y-111537713D01*
%TO.C,LED2*%
X158593619Y-109033997D02*
X158546000Y-108986378D01*
X158546000Y-108986378D02*
X158498380Y-108891140D01*
X158498380Y-108891140D02*
X158498380Y-108653045D01*
X158498380Y-108653045D02*
X158546000Y-108557807D01*
X158546000Y-108557807D02*
X158593619Y-108510188D01*
X158593619Y-108510188D02*
X158688857Y-108462569D01*
X158688857Y-108462569D02*
X158784095Y-108462569D01*
X158784095Y-108462569D02*
X158926952Y-108510188D01*
X158926952Y-108510188D02*
X159498380Y-109081616D01*
X159498380Y-109081616D02*
X159498380Y-108462569D01*
%TO.C,U4*%
X79324380Y-78381904D02*
X80133904Y-78381904D01*
X80133904Y-78381904D02*
X80229142Y-78334285D01*
X80229142Y-78334285D02*
X80276761Y-78286666D01*
X80276761Y-78286666D02*
X80324380Y-78191428D01*
X80324380Y-78191428D02*
X80324380Y-78000952D01*
X80324380Y-78000952D02*
X80276761Y-77905714D01*
X80276761Y-77905714D02*
X80229142Y-77858095D01*
X80229142Y-77858095D02*
X80133904Y-77810476D01*
X80133904Y-77810476D02*
X79324380Y-77810476D01*
X79657714Y-76905714D02*
X80324380Y-76905714D01*
X79276761Y-77143809D02*
X79991047Y-77381904D01*
X79991047Y-77381904D02*
X79991047Y-76762857D01*
%TO.C,LED9*%
X155196380Y-135000904D02*
X155196380Y-134429476D01*
X156196380Y-134715190D02*
X155196380Y-134715190D01*
X155196380Y-134191380D02*
X156196380Y-133524714D01*
X155196380Y-133524714D02*
X156196380Y-134191380D01*
%TO.C,LED3*%
X158498380Y-106577902D02*
X158498380Y-105958855D01*
X158498380Y-105958855D02*
X158879333Y-106292188D01*
X158879333Y-106292188D02*
X158879333Y-106149331D01*
X158879333Y-106149331D02*
X158926952Y-106054093D01*
X158926952Y-106054093D02*
X158974571Y-106006474D01*
X158974571Y-106006474D02*
X159069809Y-105958855D01*
X159069809Y-105958855D02*
X159307904Y-105958855D01*
X159307904Y-105958855D02*
X159403142Y-106006474D01*
X159403142Y-106006474D02*
X159450761Y-106054093D01*
X159450761Y-106054093D02*
X159498380Y-106149331D01*
X159498380Y-106149331D02*
X159498380Y-106435045D01*
X159498380Y-106435045D02*
X159450761Y-106530283D01*
X159450761Y-106530283D02*
X159403142Y-106577902D01*
%TO.C,C20*%
X134482142Y-148282857D02*
X134529761Y-148330476D01*
X134529761Y-148330476D02*
X134577380Y-148473333D01*
X134577380Y-148473333D02*
X134577380Y-148568571D01*
X134577380Y-148568571D02*
X134529761Y-148711428D01*
X134529761Y-148711428D02*
X134434523Y-148806666D01*
X134434523Y-148806666D02*
X134339285Y-148854285D01*
X134339285Y-148854285D02*
X134148809Y-148901904D01*
X134148809Y-148901904D02*
X134005952Y-148901904D01*
X134005952Y-148901904D02*
X133815476Y-148854285D01*
X133815476Y-148854285D02*
X133720238Y-148806666D01*
X133720238Y-148806666D02*
X133625000Y-148711428D01*
X133625000Y-148711428D02*
X133577380Y-148568571D01*
X133577380Y-148568571D02*
X133577380Y-148473333D01*
X133577380Y-148473333D02*
X133625000Y-148330476D01*
X133625000Y-148330476D02*
X133672619Y-148282857D01*
X133672619Y-147901904D02*
X133625000Y-147854285D01*
X133625000Y-147854285D02*
X133577380Y-147759047D01*
X133577380Y-147759047D02*
X133577380Y-147520952D01*
X133577380Y-147520952D02*
X133625000Y-147425714D01*
X133625000Y-147425714D02*
X133672619Y-147378095D01*
X133672619Y-147378095D02*
X133767857Y-147330476D01*
X133767857Y-147330476D02*
X133863095Y-147330476D01*
X133863095Y-147330476D02*
X134005952Y-147378095D01*
X134005952Y-147378095D02*
X134577380Y-147949523D01*
X134577380Y-147949523D02*
X134577380Y-147330476D01*
X133577380Y-146711428D02*
X133577380Y-146616190D01*
X133577380Y-146616190D02*
X133625000Y-146520952D01*
X133625000Y-146520952D02*
X133672619Y-146473333D01*
X133672619Y-146473333D02*
X133767857Y-146425714D01*
X133767857Y-146425714D02*
X133958333Y-146378095D01*
X133958333Y-146378095D02*
X134196428Y-146378095D01*
X134196428Y-146378095D02*
X134386904Y-146425714D01*
X134386904Y-146425714D02*
X134482142Y-146473333D01*
X134482142Y-146473333D02*
X134529761Y-146520952D01*
X134529761Y-146520952D02*
X134577380Y-146616190D01*
X134577380Y-146616190D02*
X134577380Y-146711428D01*
X134577380Y-146711428D02*
X134529761Y-146806666D01*
X134529761Y-146806666D02*
X134482142Y-146854285D01*
X134482142Y-146854285D02*
X134386904Y-146901904D01*
X134386904Y-146901904D02*
X134196428Y-146949523D01*
X134196428Y-146949523D02*
X133958333Y-146949523D01*
X133958333Y-146949523D02*
X133767857Y-146901904D01*
X133767857Y-146901904D02*
X133672619Y-146854285D01*
X133672619Y-146854285D02*
X133625000Y-146806666D01*
X133625000Y-146806666D02*
X133577380Y-146711428D01*
%TO.C,C16*%
X93210142Y-132352142D02*
X93162523Y-132399761D01*
X93162523Y-132399761D02*
X93019666Y-132447380D01*
X93019666Y-132447380D02*
X92924428Y-132447380D01*
X92924428Y-132447380D02*
X92781571Y-132399761D01*
X92781571Y-132399761D02*
X92686333Y-132304523D01*
X92686333Y-132304523D02*
X92638714Y-132209285D01*
X92638714Y-132209285D02*
X92591095Y-132018809D01*
X92591095Y-132018809D02*
X92591095Y-131875952D01*
X92591095Y-131875952D02*
X92638714Y-131685476D01*
X92638714Y-131685476D02*
X92686333Y-131590238D01*
X92686333Y-131590238D02*
X92781571Y-131495000D01*
X92781571Y-131495000D02*
X92924428Y-131447380D01*
X92924428Y-131447380D02*
X93019666Y-131447380D01*
X93019666Y-131447380D02*
X93162523Y-131495000D01*
X93162523Y-131495000D02*
X93210142Y-131542619D01*
X94162523Y-132447380D02*
X93591095Y-132447380D01*
X93876809Y-132447380D02*
X93876809Y-131447380D01*
X93876809Y-131447380D02*
X93781571Y-131590238D01*
X93781571Y-131590238D02*
X93686333Y-131685476D01*
X93686333Y-131685476D02*
X93591095Y-131733095D01*
X95019666Y-131447380D02*
X94829190Y-131447380D01*
X94829190Y-131447380D02*
X94733952Y-131495000D01*
X94733952Y-131495000D02*
X94686333Y-131542619D01*
X94686333Y-131542619D02*
X94591095Y-131685476D01*
X94591095Y-131685476D02*
X94543476Y-131875952D01*
X94543476Y-131875952D02*
X94543476Y-132256904D01*
X94543476Y-132256904D02*
X94591095Y-132352142D01*
X94591095Y-132352142D02*
X94638714Y-132399761D01*
X94638714Y-132399761D02*
X94733952Y-132447380D01*
X94733952Y-132447380D02*
X94924428Y-132447380D01*
X94924428Y-132447380D02*
X95019666Y-132399761D01*
X95019666Y-132399761D02*
X95067285Y-132352142D01*
X95067285Y-132352142D02*
X95114904Y-132256904D01*
X95114904Y-132256904D02*
X95114904Y-132018809D01*
X95114904Y-132018809D02*
X95067285Y-131923571D01*
X95067285Y-131923571D02*
X95019666Y-131875952D01*
X95019666Y-131875952D02*
X94924428Y-131828333D01*
X94924428Y-131828333D02*
X94733952Y-131828333D01*
X94733952Y-131828333D02*
X94638714Y-131875952D01*
X94638714Y-131875952D02*
X94591095Y-131923571D01*
X94591095Y-131923571D02*
X94543476Y-132018809D01*
%TO.C,R13*%
X148322380Y-135135857D02*
X147846190Y-135469190D01*
X148322380Y-135707285D02*
X147322380Y-135707285D01*
X147322380Y-135707285D02*
X147322380Y-135326333D01*
X147322380Y-135326333D02*
X147370000Y-135231095D01*
X147370000Y-135231095D02*
X147417619Y-135183476D01*
X147417619Y-135183476D02*
X147512857Y-135135857D01*
X147512857Y-135135857D02*
X147655714Y-135135857D01*
X147655714Y-135135857D02*
X147750952Y-135183476D01*
X147750952Y-135183476D02*
X147798571Y-135231095D01*
X147798571Y-135231095D02*
X147846190Y-135326333D01*
X147846190Y-135326333D02*
X147846190Y-135707285D01*
X148322380Y-134183476D02*
X148322380Y-134754904D01*
X148322380Y-134469190D02*
X147322380Y-134469190D01*
X147322380Y-134469190D02*
X147465238Y-134564428D01*
X147465238Y-134564428D02*
X147560476Y-134659666D01*
X147560476Y-134659666D02*
X147608095Y-134754904D01*
X147322380Y-133850142D02*
X147322380Y-133231095D01*
X147322380Y-133231095D02*
X147703333Y-133564428D01*
X147703333Y-133564428D02*
X147703333Y-133421571D01*
X147703333Y-133421571D02*
X147750952Y-133326333D01*
X147750952Y-133326333D02*
X147798571Y-133278714D01*
X147798571Y-133278714D02*
X147893809Y-133231095D01*
X147893809Y-133231095D02*
X148131904Y-133231095D01*
X148131904Y-133231095D02*
X148227142Y-133278714D01*
X148227142Y-133278714D02*
X148274761Y-133326333D01*
X148274761Y-133326333D02*
X148322380Y-133421571D01*
X148322380Y-133421571D02*
X148322380Y-133707285D01*
X148322380Y-133707285D02*
X148274761Y-133802523D01*
X148274761Y-133802523D02*
X148227142Y-133850142D01*
%TO.C,C8*%
X169817142Y-153455666D02*
X169864761Y-153503285D01*
X169864761Y-153503285D02*
X169912380Y-153646142D01*
X169912380Y-153646142D02*
X169912380Y-153741380D01*
X169912380Y-153741380D02*
X169864761Y-153884237D01*
X169864761Y-153884237D02*
X169769523Y-153979475D01*
X169769523Y-153979475D02*
X169674285Y-154027094D01*
X169674285Y-154027094D02*
X169483809Y-154074713D01*
X169483809Y-154074713D02*
X169340952Y-154074713D01*
X169340952Y-154074713D02*
X169150476Y-154027094D01*
X169150476Y-154027094D02*
X169055238Y-153979475D01*
X169055238Y-153979475D02*
X168960000Y-153884237D01*
X168960000Y-153884237D02*
X168912380Y-153741380D01*
X168912380Y-153741380D02*
X168912380Y-153646142D01*
X168912380Y-153646142D02*
X168960000Y-153503285D01*
X168960000Y-153503285D02*
X169007619Y-153455666D01*
X169340952Y-152884237D02*
X169293333Y-152979475D01*
X169293333Y-152979475D02*
X169245714Y-153027094D01*
X169245714Y-153027094D02*
X169150476Y-153074713D01*
X169150476Y-153074713D02*
X169102857Y-153074713D01*
X169102857Y-153074713D02*
X169007619Y-153027094D01*
X169007619Y-153027094D02*
X168960000Y-152979475D01*
X168960000Y-152979475D02*
X168912380Y-152884237D01*
X168912380Y-152884237D02*
X168912380Y-152693761D01*
X168912380Y-152693761D02*
X168960000Y-152598523D01*
X168960000Y-152598523D02*
X169007619Y-152550904D01*
X169007619Y-152550904D02*
X169102857Y-152503285D01*
X169102857Y-152503285D02*
X169150476Y-152503285D01*
X169150476Y-152503285D02*
X169245714Y-152550904D01*
X169245714Y-152550904D02*
X169293333Y-152598523D01*
X169293333Y-152598523D02*
X169340952Y-152693761D01*
X169340952Y-152693761D02*
X169340952Y-152884237D01*
X169340952Y-152884237D02*
X169388571Y-152979475D01*
X169388571Y-152979475D02*
X169436190Y-153027094D01*
X169436190Y-153027094D02*
X169531428Y-153074713D01*
X169531428Y-153074713D02*
X169721904Y-153074713D01*
X169721904Y-153074713D02*
X169817142Y-153027094D01*
X169817142Y-153027094D02*
X169864761Y-152979475D01*
X169864761Y-152979475D02*
X169912380Y-152884237D01*
X169912380Y-152884237D02*
X169912380Y-152693761D01*
X169912380Y-152693761D02*
X169864761Y-152598523D01*
X169864761Y-152598523D02*
X169817142Y-152550904D01*
X169817142Y-152550904D02*
X169721904Y-152503285D01*
X169721904Y-152503285D02*
X169531428Y-152503285D01*
X169531428Y-152503285D02*
X169436190Y-152550904D01*
X169436190Y-152550904D02*
X169388571Y-152598523D01*
X169388571Y-152598523D02*
X169340952Y-152693761D01*
%TO.C,U3*%
X129825595Y-144214380D02*
X129825595Y-145023904D01*
X129825595Y-145023904D02*
X129873214Y-145119142D01*
X129873214Y-145119142D02*
X129920833Y-145166761D01*
X129920833Y-145166761D02*
X130016071Y-145214380D01*
X130016071Y-145214380D02*
X130206547Y-145214380D01*
X130206547Y-145214380D02*
X130301785Y-145166761D01*
X130301785Y-145166761D02*
X130349404Y-145119142D01*
X130349404Y-145119142D02*
X130397023Y-145023904D01*
X130397023Y-145023904D02*
X130397023Y-144214380D01*
X130777976Y-144214380D02*
X131397023Y-144214380D01*
X131397023Y-144214380D02*
X131063690Y-144595333D01*
X131063690Y-144595333D02*
X131206547Y-144595333D01*
X131206547Y-144595333D02*
X131301785Y-144642952D01*
X131301785Y-144642952D02*
X131349404Y-144690571D01*
X131349404Y-144690571D02*
X131397023Y-144785809D01*
X131397023Y-144785809D02*
X131397023Y-145023904D01*
X131397023Y-145023904D02*
X131349404Y-145119142D01*
X131349404Y-145119142D02*
X131301785Y-145166761D01*
X131301785Y-145166761D02*
X131206547Y-145214380D01*
X131206547Y-145214380D02*
X130920833Y-145214380D01*
X130920833Y-145214380D02*
X130825595Y-145166761D01*
X130825595Y-145166761D02*
X130777976Y-145119142D01*
%TO.C,C12*%
X165092142Y-156355142D02*
X165044523Y-156402761D01*
X165044523Y-156402761D02*
X164901666Y-156450380D01*
X164901666Y-156450380D02*
X164806428Y-156450380D01*
X164806428Y-156450380D02*
X164663571Y-156402761D01*
X164663571Y-156402761D02*
X164568333Y-156307523D01*
X164568333Y-156307523D02*
X164520714Y-156212285D01*
X164520714Y-156212285D02*
X164473095Y-156021809D01*
X164473095Y-156021809D02*
X164473095Y-155878952D01*
X164473095Y-155878952D02*
X164520714Y-155688476D01*
X164520714Y-155688476D02*
X164568333Y-155593238D01*
X164568333Y-155593238D02*
X164663571Y-155498000D01*
X164663571Y-155498000D02*
X164806428Y-155450380D01*
X164806428Y-155450380D02*
X164901666Y-155450380D01*
X164901666Y-155450380D02*
X165044523Y-155498000D01*
X165044523Y-155498000D02*
X165092142Y-155545619D01*
X166044523Y-156450380D02*
X165473095Y-156450380D01*
X165758809Y-156450380D02*
X165758809Y-155450380D01*
X165758809Y-155450380D02*
X165663571Y-155593238D01*
X165663571Y-155593238D02*
X165568333Y-155688476D01*
X165568333Y-155688476D02*
X165473095Y-155736095D01*
X166425476Y-155545619D02*
X166473095Y-155498000D01*
X166473095Y-155498000D02*
X166568333Y-155450380D01*
X166568333Y-155450380D02*
X166806428Y-155450380D01*
X166806428Y-155450380D02*
X166901666Y-155498000D01*
X166901666Y-155498000D02*
X166949285Y-155545619D01*
X166949285Y-155545619D02*
X166996904Y-155640857D01*
X166996904Y-155640857D02*
X166996904Y-155736095D01*
X166996904Y-155736095D02*
X166949285Y-155878952D01*
X166949285Y-155878952D02*
X166377857Y-156450380D01*
X166377857Y-156450380D02*
X166996904Y-156450380D01*
%TO.C,LED6*%
X158498380Y-98542951D02*
X158498380Y-98733427D01*
X158498380Y-98733427D02*
X158546000Y-98828665D01*
X158546000Y-98828665D02*
X158593619Y-98876284D01*
X158593619Y-98876284D02*
X158736476Y-98971522D01*
X158736476Y-98971522D02*
X158926952Y-99019141D01*
X158926952Y-99019141D02*
X159307904Y-99019141D01*
X159307904Y-99019141D02*
X159403142Y-98971522D01*
X159403142Y-98971522D02*
X159450761Y-98923903D01*
X159450761Y-98923903D02*
X159498380Y-98828665D01*
X159498380Y-98828665D02*
X159498380Y-98638189D01*
X159498380Y-98638189D02*
X159450761Y-98542951D01*
X159450761Y-98542951D02*
X159403142Y-98495332D01*
X159403142Y-98495332D02*
X159307904Y-98447713D01*
X159307904Y-98447713D02*
X159069809Y-98447713D01*
X159069809Y-98447713D02*
X158974571Y-98495332D01*
X158974571Y-98495332D02*
X158926952Y-98542951D01*
X158926952Y-98542951D02*
X158879333Y-98638189D01*
X158879333Y-98638189D02*
X158879333Y-98828665D01*
X158879333Y-98828665D02*
X158926952Y-98923903D01*
X158926952Y-98923903D02*
X158974571Y-98971522D01*
X158974571Y-98971522D02*
X159069809Y-99019141D01*
D15*
%TO.C,J7*%
X142646300Y-147749260D02*
X140004700Y-147749260D01*
X142646300Y-148920200D02*
X140004700Y-148920200D01*
X140004700Y-148920200D02*
X140004700Y-147751800D01*
X142646300Y-148920200D02*
X142646300Y-147749260D01*
%TO.C,J9*%
X80705000Y-92770000D02*
X79375000Y-92770000D01*
X80705000Y-91440000D02*
X80705000Y-92770000D01*
X80705000Y-90170000D02*
X80705000Y-72330000D01*
X80705000Y-90170000D02*
X78045000Y-90170000D01*
X80705000Y-72330000D02*
X78045000Y-72330000D01*
X78045000Y-90170000D02*
X78045000Y-72330000D01*
%TO.C,LED11*%
X140562000Y-152058000D02*
X139092000Y-152058000D01*
X139092000Y-152058000D02*
X139092000Y-154343000D01*
X140562000Y-154343000D02*
X140562000Y-152058000D01*
%TO.C,R2*%
X141365500Y-100727742D02*
X141365500Y-101202258D01*
X140320500Y-100727742D02*
X140320500Y-101202258D01*
D16*
%TO.C,U1*%
X133119000Y-94015000D02*
X132579000Y-94015000D01*
X133119000Y-94015000D02*
X133119000Y-94555000D01*
X119119000Y-94015000D02*
X119659000Y-94015000D01*
X119119000Y-94015000D02*
X119119000Y-94555000D01*
X133119000Y-108015000D02*
X133119000Y-107475000D01*
X133119000Y-108015000D02*
X132579000Y-108015000D01*
X119119000Y-108015000D02*
X119119000Y-107475000D01*
X119119000Y-108015000D02*
X119659000Y-108015000D01*
D10*
X132219000Y-91675000D02*
G75*
G03*
X132219000Y-91675000I-100000J0D01*
G01*
D15*
%TO.C,J1*%
X114240000Y-123504000D02*
X114240000Y-122174000D01*
X115570000Y-123504000D02*
X114240000Y-123504000D01*
X116840000Y-123504000D02*
X134680000Y-123504000D01*
X116840000Y-123504000D02*
X116840000Y-120844000D01*
X134680000Y-123504000D02*
X134680000Y-120844000D01*
X116840000Y-120844000D02*
X134680000Y-120844000D01*
%TO.C,J4*%
X175467000Y-141793000D02*
X175217000Y-141793000D01*
X172604500Y-141793000D02*
X170754500Y-141793000D01*
X170754500Y-141793000D02*
X170754500Y-142243000D01*
X170604500Y-147693000D02*
X170604500Y-147243000D01*
X170604500Y-147693000D02*
X171054500Y-147693000D01*
X175467000Y-150193000D02*
X175217000Y-150193000D01*
X172604500Y-150193000D02*
X170754500Y-150193000D01*
X170754500Y-150193000D02*
X170754500Y-149743000D01*
%TO.C,R1*%
X140318258Y-98947500D02*
X139843742Y-98947500D01*
X140318258Y-97902500D02*
X139843742Y-97902500D01*
%TO.C,LED10*%
X158650000Y-135963000D02*
X160120000Y-135963000D01*
X160120000Y-135963000D02*
X160120000Y-133503000D01*
X158650000Y-133503000D02*
X158650000Y-135963000D01*
%TO.C,SW1*%
X99750880Y-143540480D02*
X105961180Y-143543020D01*
X99750880Y-144089120D02*
X99750880Y-143537940D01*
X99750880Y-145298160D02*
X99750880Y-148071840D01*
X99755960Y-149367240D02*
X99755960Y-149730460D01*
X99755960Y-149733000D02*
X105854500Y-149733000D01*
X105867200Y-149733000D02*
X105867200Y-149285960D01*
X105956100Y-145333720D02*
X105956100Y-148056600D01*
X105958640Y-143540480D02*
X105958640Y-144089120D01*
%TO.C,C10*%
X163959000Y-153556580D02*
X163959000Y-153275420D01*
X162939000Y-153556580D02*
X162939000Y-153275420D01*
%TO.C,C17*%
X133977748Y-142267000D02*
X134500252Y-142267000D01*
X133977748Y-143737000D02*
X134500252Y-143737000D01*
%TO.C,L1*%
X118820000Y-150674000D02*
X119270000Y-150674000D01*
X118820000Y-150674000D02*
X118820000Y-144474000D01*
X125020000Y-150674000D02*
X124570000Y-150674000D01*
X118820000Y-144474000D02*
X119270000Y-144474000D01*
X125020000Y-144474000D02*
X125020000Y-150674000D01*
X125020000Y-144474000D02*
X124570000Y-144474000D01*
%TO.C,R14*%
X148350500Y-137430742D02*
X148350500Y-137905258D01*
X147305500Y-137430742D02*
X147305500Y-137905258D01*
%TO.C,C14*%
X158240000Y-151638580D02*
X158240000Y-151357420D01*
X159260000Y-151638580D02*
X159260000Y-151357420D01*
%TO.C,R10*%
X165218242Y-93076500D02*
X165692758Y-93076500D01*
X165218242Y-94121500D02*
X165692758Y-94121500D01*
%TO.C,J3*%
X156244500Y-112709000D02*
X154914500Y-112709000D01*
X156244500Y-111379000D02*
X156244500Y-112709000D01*
X156244500Y-110109000D02*
X156244500Y-92269000D01*
X156244500Y-110109000D02*
X153584500Y-110109000D01*
X156244500Y-92269000D02*
X153584500Y-92269000D01*
X153584500Y-110109000D02*
X153584500Y-92269000D01*
%TO.C,C6*%
X114556000Y-100189420D02*
X114556000Y-100470580D01*
X113536000Y-100189420D02*
X113536000Y-100470580D01*
%TO.C,C1*%
X109468420Y-104901000D02*
X109749580Y-104901000D01*
X109468420Y-105921000D02*
X109749580Y-105921000D01*
%TO.C,R8*%
X165218242Y-95616500D02*
X165692758Y-95616500D01*
X165218242Y-96661500D02*
X165692758Y-96661500D01*
%TO.C,U2*%
X159225000Y-142067500D02*
X159225000Y-142792500D01*
X158500000Y-146287500D02*
X159225000Y-146287500D01*
X158500000Y-142067500D02*
X159225000Y-142067500D01*
X155730000Y-146287500D02*
X155005000Y-146287500D01*
X155730000Y-142067500D02*
X155005000Y-142067500D01*
X155005000Y-146287500D02*
X155005000Y-145562500D01*
X155005000Y-142067500D02*
X155005000Y-142792500D01*
%TO.C,J2*%
X93920000Y-86300000D02*
X95250000Y-86300000D01*
X93920000Y-87630000D02*
X93920000Y-86300000D01*
X93920000Y-88900000D02*
X93920000Y-106740000D01*
X93920000Y-88900000D02*
X96580000Y-88900000D01*
X93920000Y-106740000D02*
X96580000Y-106740000D01*
X96580000Y-88900000D02*
X96580000Y-106740000D01*
%TO.C,Y1*%
X106308000Y-110840000D02*
X109608000Y-110840000D01*
X109608000Y-110840000D02*
X109608000Y-106840000D01*
%TO.C,LED4*%
X162699500Y-103024000D02*
X160414500Y-103024000D01*
X160414500Y-104494000D02*
X162699500Y-104494000D01*
X160414500Y-103024000D02*
X160414500Y-104494000D01*
%TO.C,C13*%
X163208580Y-149354000D02*
X162927420Y-149354000D01*
X163208580Y-148334000D02*
X162927420Y-148334000D01*
%TO.C,J6*%
X92336000Y-141785000D02*
X90736000Y-141785000D01*
X92036000Y-142085000D02*
X92036000Y-144185000D01*
X77336000Y-142085000D02*
X92036000Y-142085000D01*
X92336000Y-143485000D02*
X92336000Y-141785000D01*
X92036000Y-149185000D02*
X92036000Y-151285000D01*
X92036000Y-151285000D02*
X90236000Y-151285000D01*
X85836000Y-151285000D02*
X77336000Y-151285000D01*
X77336000Y-151285000D02*
X77336000Y-142085000D01*
%TO.C,R12*%
X166005742Y-144638500D02*
X166480258Y-144638500D01*
X166005742Y-145683500D02*
X166480258Y-145683500D01*
%TO.C,D1*%
X93512000Y-137507000D02*
X93512000Y-134207000D01*
X93512000Y-137507000D02*
X88002000Y-137507000D01*
X93512000Y-134207000D02*
X88002000Y-134207000D01*
%TO.C,C15*%
X133977748Y-139727000D02*
X134500252Y-139727000D01*
X133977748Y-141197000D02*
X134500252Y-141197000D01*
%TO.C,R9*%
X165218242Y-103236500D02*
X165692758Y-103236500D01*
X165218242Y-104281500D02*
X165692758Y-104281500D01*
%TO.C,LED7*%
X160414500Y-95404000D02*
X160414500Y-96874000D01*
X160414500Y-96874000D02*
X162699500Y-96874000D01*
X162699500Y-95404000D02*
X160414500Y-95404000D01*
%TO.C,J8*%
X149285000Y-145669000D02*
X149285000Y-150809000D01*
X146625000Y-150809000D02*
X149285000Y-150809000D01*
X146625000Y-145669000D02*
X149285000Y-145669000D01*
X146625000Y-145669000D02*
X146625000Y-150809000D01*
X146625000Y-144399000D02*
X146625000Y-143069000D01*
X146625000Y-143069000D02*
X147955000Y-143069000D01*
%TO.C,C3*%
X139702000Y-100824420D02*
X139702000Y-101105580D01*
X138682000Y-100824420D02*
X138682000Y-101105580D01*
%TO.C,R4*%
X165218242Y-100696500D02*
X165692758Y-100696500D01*
X165218242Y-101741500D02*
X165692758Y-101741500D01*
%TO.C,C5*%
X125984580Y-112651000D02*
X125703420Y-112651000D01*
X125984580Y-111631000D02*
X125703420Y-111631000D01*
%TO.C,R7*%
X165218242Y-105776500D02*
X165692758Y-105776500D01*
X165218242Y-106821500D02*
X165692758Y-106821500D01*
%TO.C,C2*%
X109455420Y-111886000D02*
X109736580Y-111886000D01*
X109455420Y-112906000D02*
X109736580Y-112906000D01*
%TO.C,C11*%
X166102420Y-142492000D02*
X166383580Y-142492000D01*
X166102420Y-143512000D02*
X166383580Y-143512000D01*
%TO.C,C7*%
X123684420Y-88517000D02*
X123965580Y-88517000D01*
X123684420Y-89537000D02*
X123965580Y-89537000D01*
%TO.C,C4*%
X139194000Y-106793420D02*
X139194000Y-107074580D01*
X138174000Y-106793420D02*
X138174000Y-107074580D01*
%TO.C,C9*%
X166102420Y-148334000D02*
X166383580Y-148334000D01*
X166102420Y-149354000D02*
X166383580Y-149354000D01*
%TO.C,C18*%
X82142000Y-123563748D02*
X82142000Y-124086252D01*
X80672000Y-123563748D02*
X80672000Y-124086252D01*
%TO.C,LED8*%
X160414500Y-92864000D02*
X160414500Y-94334000D01*
X160414500Y-94334000D02*
X162699500Y-94334000D01*
X162699500Y-92864000D02*
X160414500Y-92864000D01*
%TO.C,R17*%
X141209500Y-153754758D02*
X141209500Y-153280242D01*
X142254500Y-153754758D02*
X142254500Y-153280242D01*
%TO.C,R11*%
X165941742Y-146289500D02*
X166416258Y-146289500D01*
X165941742Y-147334500D02*
X166416258Y-147334500D01*
%TO.C,LED5*%
X160414500Y-100484000D02*
X160414500Y-101954000D01*
X160414500Y-101954000D02*
X162699500Y-101954000D01*
X162699500Y-100484000D02*
X160414500Y-100484000D01*
%TO.C,LED1*%
X162699500Y-110644000D02*
X160414500Y-110644000D01*
X160414500Y-112114000D02*
X162699500Y-112114000D01*
X160414500Y-110644000D02*
X160414500Y-112114000D01*
%TO.C,LED2*%
X160414500Y-108104000D02*
X160414500Y-109574000D01*
X160414500Y-109574000D02*
X162699500Y-109574000D01*
X162699500Y-108104000D02*
X160414500Y-108104000D01*
%TO.C,U4*%
X83980000Y-128585000D02*
X83980000Y-122575000D01*
X90800000Y-126335000D02*
X90800000Y-122575000D01*
X83980000Y-122575000D02*
X85240000Y-122575000D01*
X90800000Y-122575000D02*
X89540000Y-122575000D01*
%TO.C,R5*%
X165218242Y-108316500D02*
X165692758Y-108316500D01*
X165218242Y-109361500D02*
X165692758Y-109361500D01*
%TO.C,R6*%
X165218242Y-98156500D02*
X165692758Y-98156500D01*
X165218242Y-99201500D02*
X165692758Y-99201500D01*
%TO.C,LED9*%
X156745000Y-135963000D02*
X158215000Y-135963000D01*
X158215000Y-135963000D02*
X158215000Y-133503000D01*
X156745000Y-133503000D02*
X156745000Y-135963000D01*
%TO.C,LED3*%
X160414500Y-105564000D02*
X160414500Y-107034000D01*
X160414500Y-107034000D02*
X162699500Y-107034000D01*
X162699500Y-105564000D02*
X160414500Y-105564000D01*
%TO.C,C20*%
X135155000Y-147901252D02*
X135155000Y-147378748D01*
X136625000Y-147901252D02*
X136625000Y-147378748D01*
%TO.C,R16*%
X158862500Y-130984258D02*
X158862500Y-130509742D01*
X159907500Y-130984258D02*
X159907500Y-130509742D01*
%TO.C,C16*%
X90685252Y-132815000D02*
X90162748Y-132815000D01*
X90685252Y-131345000D02*
X90162748Y-131345000D01*
%TO.C,R3*%
X165218242Y-110856500D02*
X165692758Y-110856500D01*
X165218242Y-111901500D02*
X165692758Y-111901500D01*
%TO.C,R13*%
X149210500Y-137905258D02*
X149210500Y-137430742D01*
X150255500Y-137905258D02*
X150255500Y-137430742D01*
%TO.C,C8*%
X168404000Y-153429580D02*
X168404000Y-153148420D01*
X167384000Y-153429580D02*
X167384000Y-153148420D01*
%TO.C,U3*%
X128987500Y-146147000D02*
X128987500Y-146247000D01*
X128987500Y-146247000D02*
X128587500Y-146247000D01*
X128987500Y-149247000D02*
X128987500Y-149347000D01*
X128987500Y-149347000D02*
X129787500Y-149347000D01*
X129787500Y-146147000D02*
X128987500Y-146147000D01*
X131387500Y-146147000D02*
X132187500Y-146147000D01*
X131387500Y-149347000D02*
X132187500Y-149347000D01*
X132187500Y-146147000D02*
X132187500Y-146247000D01*
X132187500Y-149347000D02*
X132187500Y-149247000D01*
%TO.C,R15*%
X156957500Y-130984258D02*
X156957500Y-130509742D01*
X158002500Y-130984258D02*
X158002500Y-130509742D01*
%TO.C,C12*%
X166597000Y-153677252D02*
X166597000Y-153154748D01*
X165127000Y-153677252D02*
X165127000Y-153154748D01*
%TO.C,LED6*%
X160414500Y-97921000D02*
X160414500Y-99391000D01*
X160414500Y-99391000D02*
X162699500Y-99391000D01*
X162699500Y-97921000D02*
X160414500Y-97921000D01*
%TD*%
M02*
