%TF.GenerationSoftware,KiCad,Pcbnew,(7.0.0)*%
%TF.CreationDate,2023-08-05T12:50:32+01:00*%
%TF.ProjectId,DataIOTest,44617461-494f-4546-9573-742e6b696361,rev?*%
%TF.SameCoordinates,Original*%
%TF.FileFunction,Paste,Top*%
%TF.FilePolarity,Positive*%
%FSLAX46Y46*%
G04 Gerber Fmt 4.6, Leading zero omitted, Abs format (unit mm)*
G04 Created by KiCad (PCBNEW (7.0.0)) date 2023-08-05 12:50:32*
%MOMM*%
%LPD*%
G01*
G04 APERTURE LIST*
G04 Aperture macros list*
%AMRoundRect*
0 Rectangle with rounded corners*
0 $1 Rounding radius*
0 $2 $3 $4 $5 $6 $7 $8 $9 X,Y pos of 4 corners*
0 Add a 4 corners polygon primitive as box body*
4,1,4,$2,$3,$4,$5,$6,$7,$8,$9,$2,$3,0*
0 Add four circle primitives for the rounded corners*
1,1,$1+$1,$2,$3*
1,1,$1+$1,$4,$5*
1,1,$1+$1,$6,$7*
1,1,$1+$1,$8,$9*
0 Add four rect primitives between the rounded corners*
20,1,$1+$1,$2,$3,$4,$5,0*
20,1,$1+$1,$4,$5,$6,$7,0*
20,1,$1+$1,$6,$7,$8,$9,0*
20,1,$1+$1,$8,$9,$2,$3,0*%
%AMFreePoly0*
4,1,30,0.439536,0.475100,0.439556,0.475102,0.439580,0.475082,0.439610,0.475070,0.439617,0.475051,0.439632,0.475040,0.696172,0.000061,0.696173,0.000046,0.696182,0.000036,0.696178,0.000000,0.696182,-0.000036,0.696173,-0.000046,0.696172,-0.000061,0.439632,-0.475040,0.439617,-0.475051,0.439610,-0.475070,0.439580,-0.475082,0.439556,-0.475102,0.439536,-0.475100,0.439520,-0.475107,
-0.436780,-0.475107,-0.436870,-0.475070,-0.436899,-0.475000,-0.437500,-0.475000,-0.437500,0.475000,-0.436899,0.475000,-0.436870,0.475070,-0.436780,0.475107,0.439520,0.475107,0.439536,0.475100,0.439536,0.475100,$1*%
%AMFreePoly1*
4,1,32,0.436870,0.475070,0.436899,0.475000,0.437500,0.475000,0.437500,-0.475000,0.436899,-0.475000,0.436870,-0.475070,0.436780,-0.475107,-0.830680,-0.475107,-0.830708,-0.475095,-0.830740,-0.475092,-0.830751,-0.475077,-0.830770,-0.475070,-0.830782,-0.475040,-0.830802,-0.475016,-0.830800,-0.474996,-0.830807,-0.474980,-0.830795,-0.474951,-0.830792,-0.474920,-0.574284,0.000000,-0.830792,0.474920,
-0.830795,0.474951,-0.830807,0.474980,-0.830800,0.474996,-0.830802,0.475016,-0.830782,0.475040,-0.830770,0.475070,-0.830751,0.475077,-0.830740,0.475092,-0.830708,0.475095,-0.830680,0.475107,0.436780,0.475107,0.436870,0.475070,0.436870,0.475070,$1*%
G04 Aperture macros list end*
%ADD10FreePoly0,180.000000*%
%ADD11FreePoly1,180.000000*%
%ADD12RoundRect,0.218750X-0.256250X0.218750X-0.256250X-0.218750X0.256250X-0.218750X0.256250X0.218750X0*%
%ADD13RoundRect,0.200000X-0.275000X0.200000X-0.275000X-0.200000X0.275000X-0.200000X0.275000X0.200000X0*%
%ADD14RoundRect,0.011200X-0.128800X0.723800X-0.128800X-0.723800X0.128800X-0.723800X0.128800X0.723800X0*%
%ADD15RoundRect,0.011200X-0.723800X-0.128800X0.723800X-0.128800X0.723800X0.128800X-0.723800X0.128800X0*%
%ADD16R,1.400000X1.600000*%
%ADD17R,1.900000X1.900000*%
%ADD18R,1.350000X0.400000*%
%ADD19RoundRect,0.200000X0.200000X0.275000X-0.200000X0.275000X-0.200000X-0.275000X0.200000X-0.275000X0*%
%ADD20RoundRect,0.237500X0.237500X-0.287500X0.237500X0.287500X-0.237500X0.287500X-0.237500X-0.287500X0*%
%ADD21R,3.100000X1.000000*%
%ADD22RoundRect,0.225000X0.250000X-0.225000X0.250000X0.225000X-0.250000X0.225000X-0.250000X-0.225000X0*%
%ADD23RoundRect,0.250000X-0.250000X-0.475000X0.250000X-0.475000X0.250000X0.475000X-0.250000X0.475000X0*%
%ADD24R,5.100000X2.350000*%
%ADD25RoundRect,0.200000X-0.200000X-0.275000X0.200000X-0.275000X0.200000X0.275000X-0.200000X0.275000X0*%
%ADD26RoundRect,0.225000X-0.250000X0.225000X-0.250000X-0.225000X0.250000X-0.225000X0.250000X0.225000X0*%
%ADD27RoundRect,0.225000X-0.225000X-0.250000X0.225000X-0.250000X0.225000X0.250000X-0.225000X0.250000X0*%
%ADD28RoundRect,0.250000X0.255000X0.255000X-0.255000X0.255000X-0.255000X-0.255000X0.255000X-0.255000X0*%
%ADD29RoundRect,0.062500X0.350000X0.062500X-0.350000X0.062500X-0.350000X-0.062500X0.350000X-0.062500X0*%
%ADD30RoundRect,0.062500X0.062500X0.350000X-0.062500X0.350000X-0.062500X-0.350000X0.062500X-0.350000X0*%
%ADD31R,1.200000X1.400000*%
%ADD32RoundRect,0.218750X-0.218750X-0.256250X0.218750X-0.256250X0.218750X0.256250X-0.218750X0.256250X0*%
%ADD33RoundRect,0.225000X0.225000X0.250000X-0.225000X0.250000X-0.225000X-0.250000X0.225000X-0.250000X0*%
%ADD34RoundRect,0.250000X1.000000X0.650000X-1.000000X0.650000X-1.000000X-0.650000X1.000000X-0.650000X0*%
%ADD35R,2.000000X8.000000*%
%ADD36RoundRect,0.250000X-0.475000X0.250000X-0.475000X-0.250000X0.475000X-0.250000X0.475000X0.250000X0*%
%ADD37RoundRect,0.200000X0.275000X-0.200000X0.275000X0.200000X-0.275000X0.200000X-0.275000X-0.200000X0*%
%ADD38R,1.500000X2.000000*%
%ADD39R,3.800000X2.000000*%
%ADD40RoundRect,0.250000X0.475000X-0.250000X0.475000X0.250000X-0.475000X0.250000X-0.475000X-0.250000X0*%
%ADD41RoundRect,0.250000X0.250000X0.475000X-0.250000X0.475000X-0.250000X-0.475000X0.250000X-0.475000X0*%
%ADD42R,0.640000X0.640000*%
%ADD43R,0.850000X0.280000*%
%ADD44R,0.280000X0.700000*%
G04 APERTURE END LIST*
D10*
%TO.C,J7*%
X142113000Y-148336000D03*
D11*
X140538000Y-148336000D03*
%TD*%
D12*
%TO.C,LED11*%
X139827000Y-152755500D03*
X139827000Y-154330500D03*
%TD*%
D13*
%TO.C,R2*%
X140843000Y-100140000D03*
X140843000Y-101790000D03*
%TD*%
D14*
%TO.C,U1*%
X132119000Y-93345000D03*
X131619000Y-93345000D03*
X131119000Y-93345000D03*
X130619000Y-93345000D03*
X130119000Y-93345000D03*
X129619000Y-93345000D03*
X129119000Y-93345000D03*
X128619000Y-93345000D03*
X128119000Y-93345000D03*
X127619000Y-93345000D03*
X127119000Y-93345000D03*
X126619000Y-93345000D03*
X126119000Y-93345000D03*
X125619000Y-93345000D03*
X125119000Y-93345000D03*
X124619000Y-93345000D03*
X124119000Y-93345000D03*
X123619000Y-93345000D03*
X123119000Y-93345000D03*
X122619000Y-93345000D03*
X122119000Y-93345000D03*
X121619000Y-93345000D03*
X121119000Y-93345000D03*
X120619000Y-93345000D03*
X120119000Y-93345000D03*
D15*
X118449000Y-95015000D03*
X118449000Y-95515000D03*
X118449000Y-96015000D03*
X118449000Y-96515000D03*
X118449000Y-97015000D03*
X118449000Y-97515000D03*
X118449000Y-98015000D03*
X118449000Y-98515000D03*
X118449000Y-99015000D03*
X118449000Y-99515000D03*
X118449000Y-100015000D03*
X118449000Y-100515000D03*
X118449000Y-101015000D03*
X118449000Y-101515000D03*
X118449000Y-102015000D03*
X118449000Y-102515000D03*
X118449000Y-103015000D03*
X118449000Y-103515000D03*
X118449000Y-104015000D03*
X118449000Y-104515000D03*
X118449000Y-105015000D03*
X118449000Y-105515000D03*
X118449000Y-106015000D03*
X118449000Y-106515000D03*
X118449000Y-107015000D03*
D14*
X120119000Y-108685000D03*
X120619000Y-108685000D03*
X121119000Y-108685000D03*
X121619000Y-108685000D03*
X122119000Y-108685000D03*
X122619000Y-108685000D03*
X123119000Y-108685000D03*
X123619000Y-108685000D03*
X124119000Y-108685000D03*
X124619000Y-108685000D03*
X125119000Y-108685000D03*
X125619000Y-108685000D03*
X126119000Y-108685000D03*
X126619000Y-108685000D03*
X127119000Y-108685000D03*
X127619000Y-108685000D03*
X128119000Y-108685000D03*
X128619000Y-108685000D03*
X129119000Y-108685000D03*
X129619000Y-108685000D03*
X130119000Y-108685000D03*
X130619000Y-108685000D03*
X131119000Y-108685000D03*
X131619000Y-108685000D03*
X132119000Y-108685000D03*
D15*
X133789000Y-107015000D03*
X133789000Y-106515000D03*
X133789000Y-106015000D03*
X133789000Y-105515000D03*
X133789000Y-105015000D03*
X133789000Y-104515000D03*
X133789000Y-104015000D03*
X133789000Y-103515000D03*
X133789000Y-103015000D03*
X133789000Y-102515000D03*
X133789000Y-102015000D03*
X133789000Y-101515000D03*
X133789000Y-101015000D03*
X133789000Y-100515000D03*
X133789000Y-100015000D03*
X133789000Y-99515000D03*
X133789000Y-99015000D03*
X133789000Y-98515000D03*
X133789000Y-98015000D03*
X133789000Y-97515000D03*
X133789000Y-97015000D03*
X133789000Y-96515000D03*
X133789000Y-96015000D03*
X133789000Y-95515000D03*
X133789000Y-95015000D03*
%TD*%
D16*
%TO.C,J4*%
X171666999Y-142792999D03*
D17*
X174116999Y-144792999D03*
X174116999Y-147192999D03*
D16*
X171666999Y-149192999D03*
D18*
X171441999Y-144692999D03*
X171441999Y-145342999D03*
X171441999Y-145992999D03*
X171441999Y-146642999D03*
X171441999Y-147292999D03*
%TD*%
D19*
%TO.C,R1*%
X140906000Y-98425000D03*
X139256000Y-98425000D03*
%TD*%
D20*
%TO.C,LED10*%
X159385000Y-135178000D03*
X159385000Y-133428000D03*
%TD*%
D21*
%TO.C,SW1*%
X98379279Y-144691099D03*
X107279279Y-144691099D03*
X98379279Y-148691099D03*
X107279279Y-148691099D03*
%TD*%
D22*
%TO.C,C10*%
X163449000Y-152641000D03*
X163449000Y-154191000D03*
%TD*%
D23*
%TO.C,C17*%
X133289000Y-143002000D03*
X135189000Y-143002000D03*
%TD*%
D24*
%TO.C,L1*%
X121919999Y-149648999D03*
X121919999Y-145498999D03*
%TD*%
D13*
%TO.C,R14*%
X147828000Y-136843000D03*
X147828000Y-138493000D03*
%TD*%
D22*
%TO.C,C14*%
X158750000Y-152273000D03*
X158750000Y-150723000D03*
%TD*%
D25*
%TO.C,R10*%
X164630500Y-93599000D03*
X166280500Y-93599000D03*
%TD*%
D26*
%TO.C,C6*%
X114046000Y-99555000D03*
X114046000Y-101105000D03*
%TD*%
D27*
%TO.C,C1*%
X108834000Y-105411000D03*
X110384000Y-105411000D03*
%TD*%
D25*
%TO.C,R8*%
X164630500Y-96139000D03*
X166280500Y-96139000D03*
%TD*%
D28*
%TO.C,U2*%
X157740000Y-144802500D03*
X157740000Y-143552500D03*
X156490000Y-144802500D03*
X156490000Y-143552500D03*
D29*
X159052500Y-145177500D03*
X159052500Y-144677500D03*
X159052500Y-144177500D03*
X159052500Y-143677500D03*
X159052500Y-143177500D03*
D30*
X158115000Y-142240000D03*
X157615000Y-142240000D03*
X157115000Y-142240000D03*
X156615000Y-142240000D03*
X156115000Y-142240000D03*
D29*
X155177500Y-143177500D03*
X155177500Y-143677500D03*
X155177500Y-144177500D03*
X155177500Y-144677500D03*
X155177500Y-145177500D03*
D30*
X156115000Y-146115000D03*
X156615000Y-146115000D03*
X157115000Y-146115000D03*
X157615000Y-146115000D03*
X158115000Y-146115000D03*
%TD*%
D31*
%TO.C,Y1*%
X108807999Y-109939999D03*
X108807999Y-107739999D03*
X107107999Y-107739999D03*
X107107999Y-109939999D03*
%TD*%
D32*
%TO.C,LED4*%
X162687000Y-103759000D03*
X161112000Y-103759000D03*
%TD*%
D33*
%TO.C,C13*%
X163843000Y-148844000D03*
X162293000Y-148844000D03*
%TD*%
D25*
%TO.C,R12*%
X165418000Y-145161000D03*
X167068000Y-145161000D03*
%TD*%
D34*
%TO.C,D1*%
X92002000Y-135857000D03*
X88002000Y-135857000D03*
%TD*%
D23*
%TO.C,C15*%
X133289000Y-140462000D03*
X135189000Y-140462000D03*
%TD*%
D25*
%TO.C,R9*%
X164630500Y-103759000D03*
X166280500Y-103759000D03*
%TD*%
D32*
%TO.C,LED7*%
X161112000Y-96139000D03*
X162687000Y-96139000D03*
%TD*%
D26*
%TO.C,C3*%
X139192000Y-100190000D03*
X139192000Y-101740000D03*
%TD*%
D25*
%TO.C,R4*%
X164630500Y-101219000D03*
X166280500Y-101219000D03*
%TD*%
D33*
%TO.C,C5*%
X126619000Y-112141000D03*
X125069000Y-112141000D03*
%TD*%
D35*
%TO.C,J5*%
X156958499Y-60999999D03*
X101078499Y-60999999D03*
X154418499Y-60999999D03*
X98538499Y-60999999D03*
X151878499Y-60999999D03*
X95998499Y-60999999D03*
X149338499Y-60999999D03*
X146798499Y-60999999D03*
X144258499Y-60999999D03*
X141718499Y-60999999D03*
X139178499Y-60999999D03*
X136638499Y-60999999D03*
X134098499Y-60999999D03*
X131558499Y-60999999D03*
X129018499Y-60999999D03*
X126478499Y-60999999D03*
X123938499Y-60999999D03*
X121398499Y-60999999D03*
X118858499Y-60999999D03*
X116318499Y-60999999D03*
X113778499Y-60999999D03*
X111238499Y-60999999D03*
X108698499Y-60999999D03*
X106158499Y-60999999D03*
X103618499Y-60999999D03*
%TD*%
D25*
%TO.C,R7*%
X164630500Y-106299000D03*
X166280500Y-106299000D03*
%TD*%
D27*
%TO.C,C2*%
X108821000Y-112396000D03*
X110371000Y-112396000D03*
%TD*%
%TO.C,C11*%
X165468000Y-143002000D03*
X167018000Y-143002000D03*
%TD*%
%TO.C,C7*%
X123050000Y-89027000D03*
X124600000Y-89027000D03*
%TD*%
D26*
%TO.C,C4*%
X138684000Y-106159000D03*
X138684000Y-107709000D03*
%TD*%
D27*
%TO.C,C9*%
X165468000Y-148844000D03*
X167018000Y-148844000D03*
%TD*%
D36*
%TO.C,C18*%
X81407000Y-122875000D03*
X81407000Y-124775000D03*
%TD*%
D32*
%TO.C,LED8*%
X161112000Y-93599000D03*
X162687000Y-93599000D03*
%TD*%
D37*
%TO.C,R17*%
X141732000Y-154342500D03*
X141732000Y-152692500D03*
%TD*%
D25*
%TO.C,R11*%
X165354000Y-146812000D03*
X167004000Y-146812000D03*
%TD*%
D32*
%TO.C,LED5*%
X161112000Y-101219000D03*
X162687000Y-101219000D03*
%TD*%
%TO.C,LED1*%
X162687000Y-111379000D03*
X161112000Y-111379000D03*
%TD*%
%TO.C,LED2*%
X161112000Y-108839000D03*
X162687000Y-108839000D03*
%TD*%
D38*
%TO.C,U4*%
X85089999Y-127634999D03*
X87389999Y-127634999D03*
D39*
X87389999Y-121334999D03*
D38*
X89689999Y-127634999D03*
%TD*%
D25*
%TO.C,R5*%
X164630500Y-108839000D03*
X166280500Y-108839000D03*
%TD*%
%TO.C,R6*%
X164630500Y-98679000D03*
X166280500Y-98679000D03*
%TD*%
D20*
%TO.C,LED9*%
X157480000Y-135178000D03*
X157480000Y-133428000D03*
%TD*%
D32*
%TO.C,LED3*%
X161112000Y-106299000D03*
X162687000Y-106299000D03*
%TD*%
D40*
%TO.C,C20*%
X135890000Y-148590000D03*
X135890000Y-146690000D03*
%TD*%
D37*
%TO.C,R16*%
X159385000Y-131572000D03*
X159385000Y-129922000D03*
%TD*%
D41*
%TO.C,C16*%
X91374000Y-132080000D03*
X89474000Y-132080000D03*
%TD*%
D25*
%TO.C,R3*%
X164630500Y-111379000D03*
X166280500Y-111379000D03*
%TD*%
D37*
%TO.C,R13*%
X149733000Y-138493000D03*
X149733000Y-136843000D03*
%TD*%
D22*
%TO.C,C8*%
X167894000Y-152514000D03*
X167894000Y-154064000D03*
%TD*%
D42*
%TO.C,U3*%
X130174999Y-146946999D03*
X130174999Y-147746999D03*
X130174999Y-148546999D03*
X130999999Y-146946999D03*
X130999999Y-147746999D03*
X130999999Y-148546999D03*
D43*
X129112499Y-146746999D03*
X129112499Y-147246999D03*
X129112499Y-147746999D03*
X129112499Y-148246999D03*
X129112499Y-148746999D03*
X132062499Y-148746999D03*
X132062499Y-148246999D03*
X132062499Y-147746999D03*
X132062499Y-147246999D03*
X132062499Y-146746999D03*
D44*
X130337499Y-146196999D03*
X130337499Y-149296999D03*
X130837499Y-146196999D03*
X130837499Y-149296999D03*
%TD*%
D37*
%TO.C,R15*%
X157480000Y-131572000D03*
X157480000Y-129922000D03*
%TD*%
D40*
%TO.C,C12*%
X165862000Y-152466000D03*
X165862000Y-154366000D03*
%TD*%
D32*
%TO.C,LED6*%
X161112000Y-98656000D03*
X162687000Y-98656000D03*
%TD*%
M02*
