%TF.GenerationSoftware,KiCad,Pcbnew,(7.0.0)*%
%TF.CreationDate,2023-08-05T12:50:32+01:00*%
%TF.ProjectId,DataIOTest,44617461-494f-4546-9573-742e6b696361,rev?*%
%TF.SameCoordinates,Original*%
%TF.FileFunction,Copper,L2,Bot*%
%TF.FilePolarity,Positive*%
%FSLAX46Y46*%
G04 Gerber Fmt 4.6, Leading zero omitted, Abs format (unit mm)*
G04 Created by KiCad (PCBNEW (7.0.0)) date 2023-08-05 12:50:32*
%MOMM*%
%LPD*%
G01*
G04 APERTURE LIST*
%TA.AperFunction,ComponentPad*%
%ADD10R,1.700000X1.700000*%
%TD*%
%TA.AperFunction,ComponentPad*%
%ADD11O,1.700000X1.700000*%
%TD*%
%TA.AperFunction,ComponentPad*%
%ADD12O,1.600000X0.900000*%
%TD*%
%TA.AperFunction,ComponentPad*%
%ADD13R,1.800000X4.400000*%
%TD*%
%TA.AperFunction,ComponentPad*%
%ADD14O,1.800000X4.000000*%
%TD*%
%TA.AperFunction,ComponentPad*%
%ADD15O,4.000000X1.800000*%
%TD*%
%TA.AperFunction,SMDPad,CuDef*%
%ADD16R,2.000000X8.000000*%
%TD*%
%TA.AperFunction,ViaPad*%
%ADD17C,0.800000*%
%TD*%
%TA.AperFunction,Conductor*%
%ADD18C,0.250000*%
%TD*%
G04 APERTURE END LIST*
D10*
%TO.P,J9,1,Pin_1*%
%TO.N,+5V*%
X79374999Y-91439999D03*
D11*
%TO.P,J9,2,Pin_2*%
%TO.N,+24V*%
X79374999Y-88899999D03*
%TO.P,J9,3,Pin_3*%
%TO.N,-9V*%
X79374999Y-86359999D03*
%TO.P,J9,4,Pin_4*%
%TO.N,+48V*%
X79374999Y-83819999D03*
%TO.P,J9,5,Pin_5*%
%TO.N,GND*%
X79374999Y-81279999D03*
%TO.P,J9,6,Pin_6*%
%TO.N,BITSW*%
X79374999Y-78739999D03*
%TO.P,J9,7,Pin_7*%
%TO.N,ADDR_SUP*%
X79374999Y-76199999D03*
%TO.P,J9,8,Pin_8*%
%TO.N,GND*%
X79374999Y-73659999D03*
%TD*%
D10*
%TO.P,J1,1,Pin_1*%
%TO.N,MCU_RESET*%
X115569999Y-122173999D03*
D11*
%TO.P,J1,2,Pin_2*%
%TO.N,+5V*%
X118109999Y-122173999D03*
%TO.P,J1,3,Pin_3*%
%TO.N,GND*%
X120649999Y-122173999D03*
%TO.P,J1,4,Pin_4*%
%TO.N,unconnected-(J1-Pin_4-Pad4)*%
X123189999Y-122173999D03*
%TO.P,J1,5,Pin_5*%
%TO.N,SWCLK*%
X125729999Y-122173999D03*
%TO.P,J1,6,Pin_6*%
%TO.N,unconnected-(J1-Pin_6-Pad6)*%
X128269999Y-122173999D03*
%TO.P,J1,7,Pin_7*%
%TO.N,unconnected-(J1-Pin_7-Pad7)*%
X130809999Y-122173999D03*
%TO.P,J1,8,Pin_8*%
%TO.N,SWDIO*%
X133349999Y-122173999D03*
%TD*%
D12*
%TO.P,J4,6,Shield*%
%TO.N,GND*%
X174116999Y-142692999D03*
X174116999Y-149292999D03*
%TD*%
D10*
%TO.P,J3,1,Pin_1*%
%TO.N,LED1*%
X154914499Y-111378999D03*
D11*
%TO.P,J3,2,Pin_2*%
%TO.N,LED2*%
X154914499Y-108838999D03*
%TO.P,J3,3,Pin_3*%
%TO.N,LED3*%
X154914499Y-106298999D03*
%TO.P,J3,4,Pin_4*%
%TO.N,LED4*%
X154914499Y-103758999D03*
%TO.P,J3,5,Pin_5*%
%TO.N,LED5*%
X154914499Y-101218999D03*
%TO.P,J3,6,Pin_6*%
%TO.N,LED6*%
X154914499Y-98678999D03*
%TO.P,J3,7,Pin_7*%
%TO.N,LED7*%
X154914499Y-96138999D03*
%TO.P,J3,8,Pin_8*%
%TO.N,LED8*%
X154914499Y-93598999D03*
%TD*%
D10*
%TO.P,J2,1,Pin_1*%
%TO.N,Net-(J2-Pin_1)*%
X95249999Y-87629999D03*
D11*
%TO.P,J2,2,Pin_2*%
%TO.N,Net-(J2-Pin_2)*%
X95249999Y-90169999D03*
%TO.P,J2,3,Pin_3*%
%TO.N,Net-(J2-Pin_3)*%
X95249999Y-92709999D03*
%TO.P,J2,4,Pin_4*%
%TO.N,Net-(J2-Pin_4)*%
X95249999Y-95249999D03*
%TO.P,J2,5,Pin_5*%
%TO.N,Net-(J2-Pin_5)*%
X95249999Y-97789999D03*
%TO.P,J2,6,Pin_6*%
%TO.N,Net-(J2-Pin_6)*%
X95249999Y-100329999D03*
%TO.P,J2,7,Pin_7*%
%TO.N,Net-(J2-Pin_7)*%
X95249999Y-102869999D03*
%TO.P,J2,8,Pin_8*%
%TO.N,Net-(J2-Pin_8)*%
X95249999Y-105409999D03*
%TD*%
D13*
%TO.P,J6,1*%
%TO.N,Net-(D1-A)*%
X91035999Y-146684999D03*
D14*
%TO.P,J6,2*%
%TO.N,GND*%
X84835999Y-146684999D03*
D15*
%TO.P,J6,3*%
X87935999Y-151684999D03*
%TD*%
D11*
%TO.P,J8,3,Pin_3*%
%TO.N,EXT_5V*%
X147954999Y-149478999D03*
%TO.P,J8,2,Pin_2*%
%TO.N,+5V*%
X147954999Y-146938999D03*
D10*
%TO.P,J8,1,Pin_1*%
%TO.N,USB_5V*%
X147954999Y-144398999D03*
%TD*%
D16*
%TO.P,J5,1,A0*%
%TO.N,A0*%
X156958499Y-60999999D03*
%TO.P,J5,2,A1*%
%TO.N,A1*%
X154418499Y-60999999D03*
%TO.P,J5,3,A2*%
%TO.N,A2*%
X151878499Y-60999999D03*
%TO.P,J5,4,A3*%
%TO.N,A3*%
X149338499Y-60999999D03*
%TO.P,J5,5,A4*%
%TO.N,A4*%
X146798499Y-60999999D03*
%TO.P,J5,6,A10*%
%TO.N,A10*%
X144258499Y-60999999D03*
%TO.P,J5,7,A12*%
%TO.N,A12*%
X141718499Y-60999999D03*
%TO.P,J5,8,A14*%
%TO.N,A14*%
X139178499Y-60999999D03*
%TO.P,J5,9,nPULSE*%
%TO.N,nPULSE*%
X136638499Y-60999999D03*
%TO.P,J5,10,DO1*%
%TO.N,DO1*%
X134098499Y-60999999D03*
%TO.P,J5,11,DO3*%
%TO.N,DO3*%
X131558499Y-60999999D03*
%TO.P,J5,12,DO5*%
%TO.N,DO5*%
X129018499Y-60999999D03*
%TO.P,J5,13,DO7*%
%TO.N,DO7*%
X126478499Y-60999999D03*
%TO.P,J5,14,nVPULSE*%
%TO.N,nVPULSE*%
X123938499Y-60999999D03*
%TO.P,J5,15,+5V*%
%TO.N,+5V*%
X121398499Y-60999999D03*
%TO.P,J5,16,-9V*%
%TO.N,-9V*%
X118858499Y-60999999D03*
%TO.P,J5,17,GND*%
%TO.N,GND*%
X116318499Y-60999999D03*
%TO.P,J5,18,GND*%
X113778499Y-60999999D03*
%TO.P,J5,19,+48V*%
%TO.N,+48V*%
X111238499Y-60999999D03*
%TO.P,J5,20,ADDR_SUP*%
%TO.N,ADDR_SUP*%
X108698499Y-60999999D03*
%TO.P,J5,21,C1*%
%TO.N,C1*%
X106158499Y-60999999D03*
%TO.P,J5,22,C2*%
%TO.N,C2*%
X103618499Y-60999999D03*
%TO.P,J5,23,nC3*%
%TO.N,nC3*%
X101078499Y-60999999D03*
%TO.P,J5,24,nC7*%
%TO.N,nC7*%
X98538499Y-60999999D03*
%TO.P,J5,25,nV02*%
%TO.N,nV02*%
X95998499Y-60999999D03*
%TD*%
D17*
%TO.N,USB_PWR*%
X140970000Y-146177000D03*
X136906000Y-150114000D03*
%TO.N,TX*%
X121562300Y-97911200D03*
X130211100Y-112112700D03*
%TO.N,RX*%
X120638900Y-96828900D03*
X131505600Y-112163200D03*
%TO.N,Net-(U2-RXD)*%
X160094600Y-145389800D03*
X147828000Y-140125600D03*
%TO.N,Net-(U2-USBDM)*%
X156580000Y-141119200D03*
X161923500Y-143530900D03*
%TO.N,Net-(LED9-K)*%
X153560400Y-143587300D03*
X155262100Y-140457100D03*
%TO.N,nC4*%
X107546900Y-90143100D03*
X122119000Y-104779400D03*
%TO.N,nC11*%
X111069200Y-92817100D03*
X128395300Y-106206200D03*
%TO.N,GATE_ENABLE*%
X110823100Y-88834800D03*
X129401500Y-106043800D03*
%TO.N,+24V*%
X118561300Y-67310000D03*
%TO.N,BITSW*%
X112031100Y-66785900D03*
%TO.N,DO8*%
X116667400Y-95456000D03*
X120619100Y-100467500D03*
%TO.N,OVER_C*%
X136553300Y-66236400D03*
X125597500Y-96532500D03*
%TO.N,A15*%
X137622300Y-66065400D03*
X126483700Y-91557600D03*
%TO.N,RnW*%
X97551300Y-88326500D03*
X116787247Y-102266001D03*
%TO.N,A7*%
X138378700Y-95806300D03*
X124855600Y-95806300D03*
%TO.N,P1nP0*%
X101854000Y-89662000D03*
X116910575Y-103265133D03*
%TO.N,A6*%
X147697800Y-94545100D03*
X123310700Y-94899600D03*
%TO.N,A5*%
X147312300Y-95545500D03*
X124346000Y-94871500D03*
%TO.N,nV02*%
X113301700Y-102268400D03*
%TO.N,nC7*%
X99822000Y-69088000D03*
X106139400Y-90891300D03*
X128554500Y-107349100D03*
%TO.N,nC3*%
X101028000Y-68609200D03*
X105349600Y-93946900D03*
X121671800Y-110030100D03*
%TO.N,C2*%
X103046500Y-67691000D03*
X105629200Y-89342900D03*
X121119000Y-105387400D03*
%TO.N,C1*%
X104521000Y-67691000D03*
X107036200Y-94607600D03*
X120270900Y-107346600D03*
%TO.N,nVPULSE*%
X124891000Y-98114400D03*
%TO.N,DO7*%
X125782200Y-68787700D03*
%TO.N,DO5*%
X129707500Y-66014300D03*
%TO.N,DO3*%
X132030700Y-66748900D03*
%TO.N,DO1*%
X133940200Y-66763400D03*
%TO.N,nPULSE*%
X125744100Y-97552700D03*
%TO.N,A14*%
X127706600Y-96972500D03*
%TO.N,A12*%
X130713100Y-81100000D03*
%TO.N,A10*%
X145242300Y-70231000D03*
%TO.N,A4*%
X131413800Y-77854000D03*
%TO.N,A3*%
X131413800Y-80375800D03*
%TO.N,A2*%
X131413700Y-85330400D03*
%TO.N,A1*%
X140722499Y-81549801D03*
%TO.N,A0*%
X134640200Y-89380400D03*
%TO.N,Net-(J2-Pin_2)*%
X126804300Y-86454700D03*
%TO.N,Net-(J2-Pin_1)*%
X123656300Y-101406000D03*
%TO.N,SWDIO*%
X135433500Y-98231500D03*
%TO.N,SWCLK*%
X132435100Y-98873400D03*
%TO.N,EXT_5V*%
X90409500Y-133201100D03*
%TO.N,USB_5V*%
X140589000Y-149860000D03*
%TO.N,MCU_RESET*%
X137582502Y-107433100D03*
X157637000Y-151240900D03*
%TO.N,Net-(U2-3V3OUT)*%
X160913800Y-146443100D03*
X155374800Y-142080800D03*
%TO.N,+5V*%
X127130800Y-84833500D03*
X121545200Y-65608400D03*
X123050000Y-84833500D03*
%TO.N,GND*%
X135174900Y-100382600D03*
X129650900Y-100099700D03*
X123013000Y-97486300D03*
X129554500Y-97899800D03*
X113805300Y-66053300D03*
X123075500Y-90551500D03*
%TD*%
D18*
%TO.N,RnW*%
X113836746Y-99315500D02*
X116787247Y-102266001D01*
X113406800Y-99315500D02*
X113836746Y-99315500D01*
%TO.N,C1*%
X107303600Y-94607600D02*
X107036200Y-94607600D01*
X116186075Y-103490075D02*
X107303600Y-94607600D01*
X120270900Y-107346600D02*
X119967444Y-107346600D01*
X119967444Y-107346600D02*
X116186075Y-103565231D01*
%TO.N,P1nP0*%
X101854000Y-89662000D02*
X103116400Y-89662000D01*
X103116400Y-89662000D02*
X116719533Y-103265133D01*
X116719533Y-103265133D02*
X116910575Y-103265133D01*
%TO.N,C1*%
X116186075Y-103565231D02*
X116186075Y-103490075D01*
%TO.N,RnW*%
X97551300Y-88326500D02*
X102417800Y-88326500D01*
X102417800Y-88326500D02*
X113406800Y-99315500D01*
%TO.N,-9V*%
X87970500Y-78939800D02*
X80550300Y-86360000D01*
X118618000Y-66167000D02*
X117729000Y-66167000D01*
X104956200Y-78939800D02*
X87970500Y-78939800D01*
X80550300Y-86360000D02*
X79375000Y-86360000D01*
X118858500Y-65926500D02*
X118618000Y-66167000D01*
X118858500Y-61000000D02*
X118858500Y-65926500D01*
X117729000Y-66167000D02*
X104956200Y-78939800D01*
%TO.N,+24V*%
X88884800Y-79390200D02*
X106481100Y-79390200D01*
X79375000Y-88900000D02*
X88884800Y-79390200D01*
X106481100Y-79390200D02*
X118561300Y-67310000D01*
%TO.N,A1*%
X141463579Y-81549801D02*
X140722499Y-81549801D01*
X154418500Y-68594880D02*
X141463579Y-81549801D01*
X154418500Y-61000000D02*
X154418500Y-68594880D01*
%TO.N,A4*%
X138643898Y-77854000D02*
X131413800Y-77854000D01*
%TO.N,A10*%
X144258500Y-69247200D02*
X145242300Y-70231000D01*
X144258500Y-61000000D02*
X144258500Y-69247200D01*
%TO.N,A4*%
X146798500Y-69699398D02*
X138643898Y-77854000D01*
X146798500Y-61000000D02*
X146798500Y-69699398D01*
%TO.N,A3*%
X141366200Y-80375800D02*
X131413800Y-80375800D01*
X149338500Y-72403500D02*
X141366200Y-80375800D01*
X149338500Y-61000000D02*
X149338500Y-72403500D01*
%TO.N,A2*%
X135918799Y-80825301D02*
X131413700Y-85330400D01*
X141552389Y-80825301D02*
X135918799Y-80825301D01*
X151878500Y-61000000D02*
X151878500Y-70499190D01*
X151878500Y-70499190D02*
X141552389Y-80825301D01*
%TO.N,A0*%
X156958500Y-67062100D02*
X134640200Y-89380400D01*
X156958500Y-61000000D02*
X156958500Y-67062100D01*
%TO.N,GND*%
X114533300Y-66053300D02*
X113805300Y-66053300D01*
X114533300Y-65325300D02*
X114533300Y-66053300D01*
X102269800Y-77588800D02*
X113805300Y-66053300D01*
X83066200Y-77588800D02*
X102269800Y-77588800D01*
X79375000Y-81280000D02*
X83066200Y-77588800D01*
X116318500Y-66040000D02*
X116318500Y-61000000D01*
X114533300Y-66040000D02*
X116318500Y-66040000D01*
X114533300Y-65325300D02*
X114533300Y-66040000D01*
%TO.N,C2*%
X103618500Y-67119000D02*
X103046500Y-67691000D01*
X103618500Y-61000000D02*
X103618500Y-67119000D01*
%TO.N,C1*%
X106158500Y-66053500D02*
X104521000Y-67691000D01*
X106158500Y-61000000D02*
X106158500Y-66053500D01*
%TO.N,nC3*%
X101078500Y-68558700D02*
X101028000Y-68609200D01*
X101078500Y-61000000D02*
X101078500Y-68558700D01*
%TO.N,nC7*%
X98538500Y-61000000D02*
X98538500Y-67804500D01*
X98538500Y-67804500D02*
X99822000Y-69088000D01*
%TO.N,SWDIO*%
X138744300Y-101542300D02*
X135433500Y-98231500D01*
X133350000Y-122174000D02*
X138756503Y-116767497D01*
X138744300Y-106934610D02*
X138744300Y-101542300D01*
%TO.N,SWCLK*%
X138307002Y-109596998D02*
X138307002Y-107133002D01*
X138290300Y-107116300D02*
X138290300Y-102463300D01*
X125730000Y-122174000D02*
X138307002Y-109596998D01*
%TO.N,MCU_RESET*%
X123980700Y-120999500D02*
X137547100Y-107433100D01*
X137547100Y-107433100D02*
X137582502Y-107433100D01*
%TO.N,SWCLK*%
X138290300Y-102463300D02*
X134700400Y-98873400D01*
%TO.N,SWDIO*%
X138756503Y-116767497D02*
X138756503Y-106946813D01*
%TO.N,SWCLK*%
X138307002Y-107133002D02*
X138290300Y-107116300D01*
%TO.N,SWDIO*%
X138756503Y-106946813D02*
X138744300Y-106934610D01*
%TO.N,SWCLK*%
X134700400Y-98873400D02*
X132435100Y-98873400D01*
%TO.N,USB_PWR*%
X140970000Y-146177000D02*
X137033000Y-150114000D01*
X137033000Y-150114000D02*
X136906000Y-150114000D01*
%TO.N,USB_5V*%
X141708300Y-150979300D02*
X140589000Y-149860000D01*
X148126900Y-150979300D02*
X141708300Y-150979300D01*
X149136400Y-149969800D02*
X148126900Y-150979300D01*
X149136400Y-145580400D02*
X149136400Y-149969800D01*
X147955000Y-144399000D02*
X149136400Y-145580400D01*
%TO.N,TX*%
X123376200Y-99725100D02*
X121562300Y-97911200D01*
X123847400Y-99725100D02*
X123376200Y-99725100D01*
X124297700Y-100175400D02*
X123847400Y-99725100D01*
X124599400Y-100175400D02*
X124297700Y-100175400D01*
X130211100Y-105787100D02*
X124599400Y-100175400D01*
X130211100Y-112112700D02*
X130211100Y-105787100D01*
%TO.N,RX*%
X121505800Y-96828900D02*
X120638900Y-96828900D01*
X122287600Y-97610700D02*
X121505800Y-96828900D01*
X122287600Y-97836200D02*
X122287600Y-97610700D01*
X122663200Y-98211800D02*
X122287600Y-97836200D01*
X122971000Y-98211800D02*
X122663200Y-98211800D01*
X124484300Y-99725100D02*
X122971000Y-98211800D01*
X124798300Y-99725100D02*
X124484300Y-99725100D01*
X131505600Y-106432400D02*
X124798300Y-99725100D01*
X131505600Y-112163200D02*
X131505600Y-106432400D01*
%TO.N,Net-(U2-RXD)*%
X153092200Y-145389800D02*
X147828000Y-140125600D01*
X160094600Y-145389800D02*
X153092200Y-145389800D01*
%TO.N,Net-(U2-USBDM)*%
X159511800Y-141119200D02*
X161923500Y-143530900D01*
X156580000Y-141119200D02*
X159511800Y-141119200D01*
%TO.N,Net-(LED9-K)*%
X153560400Y-142158800D02*
X155262100Y-140457100D01*
X153560400Y-143587300D02*
X153560400Y-142158800D01*
%TO.N,nC4*%
X107546900Y-90320500D02*
X107546900Y-90143100D01*
X117498300Y-100271900D02*
X107546900Y-90320500D01*
X117611500Y-100271900D02*
X117498300Y-100271900D01*
X122119000Y-104779400D02*
X117611500Y-100271900D01*
%TO.N,nC11*%
X125998800Y-103809700D02*
X128395300Y-106206200D01*
X122061800Y-103809700D02*
X125998800Y-103809700D01*
X111069200Y-92817100D02*
X122061800Y-103809700D01*
%TO.N,GATE_ENABLE*%
X111708900Y-88834800D02*
X110823100Y-88834800D01*
X117843000Y-94968900D02*
X111708900Y-88834800D01*
X117843000Y-95217800D02*
X117843000Y-94968900D01*
X123064300Y-100439100D02*
X117843000Y-95217800D01*
X123796800Y-100439100D02*
X123064300Y-100439100D01*
X129401500Y-106043800D02*
X123796800Y-100439100D01*
%TO.N,BITSW*%
X79375000Y-78740000D02*
X80550300Y-78740000D01*
X101903600Y-76913400D02*
X112031100Y-66785900D01*
X82376900Y-76913400D02*
X101903600Y-76913400D01*
X80550300Y-78740000D02*
X82376900Y-76913400D01*
%TO.N,DO8*%
X120619100Y-99407700D02*
X120619100Y-100467500D01*
X116667400Y-95456000D02*
X120619100Y-99407700D01*
%TO.N,OVER_C*%
X124534700Y-96532500D02*
X125597500Y-96532500D01*
X123700700Y-95698500D02*
X124534700Y-96532500D01*
X123082000Y-95698500D02*
X123700700Y-95698500D01*
X122559900Y-95176400D02*
X123082000Y-95698500D01*
X122559900Y-94236900D02*
X122559900Y-95176400D01*
X128972800Y-87824000D02*
X122559900Y-94236900D01*
X128972800Y-73816900D02*
X128972800Y-87824000D01*
X136553300Y-66236400D02*
X128972800Y-73816900D01*
%TO.N,A15*%
X137622300Y-66193200D02*
X137622300Y-66065400D01*
X129476300Y-74339200D02*
X137622300Y-66193200D01*
X129476300Y-88565000D02*
X129476300Y-74339200D01*
X126483700Y-91557600D02*
X129476300Y-88565000D01*
%TO.N,A7*%
X124855600Y-95806300D02*
X138378700Y-95806300D01*
%TO.N,A6*%
X147298900Y-94146200D02*
X147697800Y-94545100D01*
X124045600Y-94146200D02*
X147298900Y-94146200D01*
X123310700Y-94881100D02*
X124045600Y-94146200D01*
X123310700Y-94899600D02*
X123310700Y-94881100D01*
%TO.N,A5*%
X146638300Y-94871500D02*
X147312300Y-95545500D01*
X124346000Y-94871500D02*
X146638300Y-94871500D01*
%TO.N,nV02*%
X108914600Y-102268400D02*
X113301700Y-102268400D01*
X103166200Y-96520000D02*
X108914600Y-102268400D01*
X82279100Y-96520000D02*
X103166200Y-96520000D01*
X77743000Y-91983900D02*
X82279100Y-96520000D01*
X77743000Y-76121800D02*
X77743000Y-91983900D01*
X78934800Y-74930000D02*
X77743000Y-76121800D01*
X91199000Y-74930000D02*
X78934800Y-74930000D01*
X95998500Y-70130500D02*
X91199000Y-74930000D01*
X95998500Y-61000000D02*
X95998500Y-70130500D01*
%TO.N,nC7*%
X113869500Y-98621400D02*
X106139400Y-90891300D01*
X114531500Y-98621400D02*
X113869500Y-98621400D01*
X117082600Y-101172500D02*
X114531500Y-98621400D01*
X117238300Y-101172500D02*
X117082600Y-101172500D01*
X117663100Y-101597300D02*
X117238300Y-101172500D01*
X117663100Y-102982400D02*
X117663100Y-101597300D01*
X122029800Y-107349100D02*
X117663100Y-102982400D01*
X128554500Y-107349100D02*
X122029800Y-107349100D01*
%TO.N,nC3*%
X112298500Y-100895800D02*
X105349600Y-93946900D01*
X112954900Y-100895800D02*
X112298500Y-100895800D01*
X114027000Y-101967900D02*
X112954900Y-100895800D01*
X114027000Y-102385300D02*
X114027000Y-101967900D01*
X121671800Y-110030100D02*
X114027000Y-102385300D01*
%TO.N,C2*%
X114457400Y-98171100D02*
X105629200Y-89342900D01*
X114718100Y-98171100D02*
X114457400Y-98171100D01*
X117269200Y-100722200D02*
X114718100Y-98171100D01*
X117424900Y-100722200D02*
X117269200Y-100722200D01*
X121119000Y-104416300D02*
X117424900Y-100722200D01*
X121119000Y-105387400D02*
X121119000Y-104416300D01*
%TO.N,ADDR_SUP*%
X108698500Y-61000000D02*
X108698500Y-65325300D01*
X79375000Y-76200000D02*
X80550300Y-76200000D01*
X80962700Y-75787600D02*
X80550300Y-76200000D01*
X98236200Y-75787600D02*
X80962700Y-75787600D01*
X108698500Y-65325300D02*
X98236200Y-75787600D01*
%TO.N,+48V*%
X79007600Y-82644700D02*
X79375000Y-82644700D01*
X78199700Y-81836800D02*
X79007600Y-82644700D01*
X78199700Y-78194400D02*
X78199700Y-81836800D01*
X78924100Y-77470000D02*
X78199700Y-78194400D01*
X80775600Y-77470000D02*
X78924100Y-77470000D01*
X82007700Y-76237900D02*
X80775600Y-77470000D01*
X100325900Y-76237900D02*
X82007700Y-76237900D01*
X111238500Y-65325300D02*
X100325900Y-76237900D01*
X111238500Y-61000000D02*
X111238500Y-65325300D01*
X79375000Y-83820000D02*
X79375000Y-82644700D01*
%TO.N,nVPULSE*%
X123938500Y-61000000D02*
X123938500Y-65325300D01*
X123938500Y-71258200D02*
X123938500Y-65325300D01*
X127856100Y-75175800D02*
X123938500Y-71258200D01*
X127856100Y-87666900D02*
X127856100Y-75175800D01*
X121659300Y-93863700D02*
X127856100Y-87666900D01*
X121659300Y-95549600D02*
X121659300Y-93863700D01*
X122870700Y-96761000D02*
X121659300Y-95549600D01*
X123313500Y-96761000D02*
X122870700Y-96761000D01*
X124210500Y-97658000D02*
X123313500Y-96761000D01*
X124210500Y-97658100D02*
X124210500Y-97658000D01*
X124434700Y-97658100D02*
X124210500Y-97658100D01*
X124891000Y-98114400D02*
X124434700Y-97658100D01*
%TO.N,DO7*%
X125782200Y-66021600D02*
X125782200Y-68787700D01*
X126478500Y-65325300D02*
X125782200Y-66021600D01*
X126478500Y-61000000D02*
X126478500Y-65325300D01*
%TO.N,DO5*%
X129018500Y-61000000D02*
X129018500Y-65325300D01*
X129018500Y-65325300D02*
X129707500Y-66014300D01*
%TO.N,DO3*%
X131558500Y-61000000D02*
X131558500Y-65325300D01*
X132030600Y-66748900D02*
X132030700Y-66748900D01*
X132030600Y-65797400D02*
X132030600Y-66748900D01*
X131558500Y-65325300D02*
X132030600Y-65797400D01*
%TO.N,DO1*%
X134098500Y-61000000D02*
X134098500Y-65325300D01*
X133940300Y-66763400D02*
X133940200Y-66763400D01*
X133940300Y-65483500D02*
X133940300Y-66763400D01*
X134098500Y-65325300D02*
X133940300Y-65483500D01*
%TO.N,nPULSE*%
X136638500Y-61000000D02*
X136638500Y-65325300D01*
X125554900Y-97552700D02*
X125744100Y-97552700D01*
X125178300Y-97176100D02*
X125554900Y-97552700D01*
X124541400Y-97176100D02*
X125178300Y-97176100D01*
X123514100Y-96148800D02*
X124541400Y-97176100D01*
X122895400Y-96148800D02*
X123514100Y-96148800D01*
X122109600Y-95363000D02*
X122895400Y-96148800D01*
X122109600Y-94050300D02*
X122109600Y-95363000D01*
X128522500Y-87637400D02*
X122109600Y-94050300D01*
X128522500Y-73241500D02*
X128522500Y-87637400D01*
X136438700Y-65325300D02*
X128522500Y-73241500D01*
X136638500Y-65325300D02*
X136438700Y-65325300D01*
%TO.N,A14*%
X139178500Y-61000000D02*
X139178500Y-65325300D01*
X146965700Y-96972500D02*
X127706600Y-96972500D01*
X148423200Y-95515000D02*
X146965700Y-96972500D01*
X148423200Y-94244700D02*
X148423200Y-95515000D01*
X146980500Y-92802000D02*
X148423200Y-94244700D01*
X136977000Y-92802000D02*
X146980500Y-92802000D01*
X129977700Y-85802700D02*
X136977000Y-92802000D01*
X129977700Y-74735800D02*
X129977700Y-85802700D01*
X139178500Y-65535000D02*
X129977700Y-74735800D01*
X139178500Y-65325300D02*
X139178500Y-65535000D01*
%TO.N,A12*%
X141718500Y-61000000D02*
X141718500Y-65325300D01*
X130688400Y-81075300D02*
X130713100Y-81100000D01*
X130688400Y-76355400D02*
X130688400Y-81075300D01*
X141718500Y-65325300D02*
X130688400Y-76355400D01*
%TO.N,Net-(J2-Pin_2)*%
X95250000Y-90170000D02*
X95250000Y-88994700D01*
X94207300Y-86454700D02*
X126804300Y-86454700D01*
X94074700Y-86587300D02*
X94207300Y-86454700D01*
X94074700Y-88627500D02*
X94074700Y-86587300D01*
X94441900Y-88994700D02*
X94074700Y-88627500D01*
X95250000Y-88994700D02*
X94441900Y-88994700D01*
%TO.N,Net-(J2-Pin_1)*%
X95250000Y-87630000D02*
X96425300Y-87630000D01*
X123394300Y-101406000D02*
X123656300Y-101406000D01*
X117392700Y-95404400D02*
X123394300Y-101406000D01*
X117392700Y-95155500D02*
X117392700Y-95404400D01*
X116530300Y-94293100D02*
X117392700Y-95155500D01*
X113755300Y-94293100D02*
X116530300Y-94293100D01*
X107012200Y-87550000D02*
X113755300Y-94293100D01*
X96505300Y-87550000D02*
X107012200Y-87550000D01*
X96425300Y-87630000D02*
X96505300Y-87550000D01*
%TO.N,EXT_5V*%
X130501800Y-133201100D02*
X90409500Y-133201100D01*
X146779700Y-149479000D02*
X130501800Y-133201100D01*
X147955000Y-149479000D02*
X146779700Y-149479000D01*
%TO.N,MCU_RESET*%
X115570000Y-122174000D02*
X116745300Y-122174000D01*
X124460000Y-121478800D02*
X123980700Y-120999500D01*
X124460000Y-122568100D02*
X124460000Y-121478800D01*
X125721200Y-123829300D02*
X124460000Y-122568100D01*
X130225400Y-123829300D02*
X125721200Y-123829300D01*
X157637000Y-151240900D02*
X130225400Y-123829300D01*
X116745300Y-121806600D02*
X116745300Y-122174000D01*
X117553200Y-120998700D02*
X116745300Y-121806600D01*
X123979900Y-120998700D02*
X117553200Y-120998700D01*
X123980700Y-120999500D02*
X123979900Y-120998700D01*
%TO.N,Net-(U2-3V3OUT)*%
X157811900Y-142080800D02*
X155374800Y-142080800D01*
X160913800Y-145182700D02*
X157811900Y-142080800D01*
X160913800Y-146443100D02*
X160913800Y-145182700D01*
%TO.N,+5V*%
X119285300Y-122541400D02*
X119285300Y-122174000D01*
X120093200Y-123349300D02*
X119285300Y-122541400D01*
X123190000Y-123349300D02*
X120093200Y-123349300D01*
X146779700Y-146939000D02*
X123190000Y-123349300D01*
X147955000Y-146939000D02*
X146779700Y-146939000D01*
X118110000Y-122174000D02*
X119285300Y-122174000D01*
X79375000Y-91440000D02*
X80550300Y-91440000D01*
X121398500Y-61000000D02*
X121398500Y-65325300D01*
X87956900Y-84033400D02*
X121545200Y-84033400D01*
X80550300Y-91440000D02*
X87956900Y-84033400D01*
X121545200Y-65472000D02*
X121545200Y-65608400D01*
X121398500Y-65325300D02*
X121545200Y-65472000D01*
X121545200Y-65608400D02*
X121545200Y-84033400D01*
X122345300Y-84833500D02*
X121545200Y-84033400D01*
X123050000Y-84833500D02*
X122345300Y-84833500D01*
X123050000Y-84833500D02*
X127130800Y-84833500D01*
%TO.N,GND*%
X113778500Y-61000000D02*
X113778500Y-63162600D01*
X114533300Y-63917400D02*
X114533300Y-65325300D01*
X113778500Y-63162600D02*
X114533300Y-63917400D01*
X86486600Y-149010300D02*
X84836000Y-149010300D01*
X87936000Y-150459700D02*
X86486600Y-149010300D01*
X87936000Y-151685000D02*
X87936000Y-150459700D01*
X84836000Y-146685000D02*
X84836000Y-149010300D01*
X129933800Y-100382600D02*
X129650900Y-100099700D01*
X135174900Y-100382600D02*
X129933800Y-100382600D01*
X128598700Y-98855600D02*
X129554500Y-97899800D01*
X129650900Y-99907800D02*
X129650900Y-100099700D01*
X128598700Y-98855600D02*
X129650900Y-99907800D01*
X124382300Y-98855600D02*
X123013000Y-97486300D01*
X128598700Y-98855600D02*
X124382300Y-98855600D01*
X121176200Y-92450800D02*
X123075500Y-90551500D01*
X121176200Y-95748100D02*
X121176200Y-92450800D01*
X122914400Y-97486300D02*
X121176200Y-95748100D01*
X123013000Y-97486300D02*
X122914400Y-97486300D01*
%TD*%
%TA.AperFunction,Conductor*%
%TO.N,GND*%
G36*
X158307831Y-65453187D02*
G01*
X158352271Y-65498464D01*
X158368500Y-65559795D01*
X158368500Y-70865901D01*
X158368459Y-70866000D01*
X158368500Y-70866099D01*
X158368617Y-70866383D01*
X158369000Y-70866541D01*
X158369099Y-70866500D01*
X175770500Y-70866500D01*
X175832500Y-70883113D01*
X175877887Y-70928500D01*
X175894500Y-70990500D01*
X175894500Y-156593500D01*
X175877887Y-156655500D01*
X175832500Y-156700887D01*
X175770500Y-156717500D01*
X77086500Y-156717500D01*
X77024500Y-156700887D01*
X76979113Y-156655500D01*
X76962500Y-156593500D01*
X76962500Y-151948564D01*
X85460657Y-151948564D01*
X85491416Y-152091285D01*
X85494490Y-152101322D01*
X85579421Y-152312678D01*
X85584142Y-152322043D01*
X85703575Y-152516016D01*
X85709810Y-152524446D01*
X85860303Y-152695439D01*
X85867879Y-152702700D01*
X86045100Y-152845795D01*
X86053804Y-152851678D01*
X86252655Y-152962764D01*
X86262216Y-152967086D01*
X86476985Y-153042969D01*
X86487152Y-153045616D01*
X86711648Y-153084109D01*
X86722109Y-153085000D01*
X87669674Y-153085000D01*
X87682549Y-153081549D01*
X87686000Y-153068674D01*
X88186000Y-153068674D01*
X88189450Y-153081549D01*
X88202326Y-153085000D01*
X89092842Y-153085000D01*
X89098097Y-153084776D01*
X89268203Y-153070298D01*
X89278557Y-153068522D01*
X89498986Y-153011127D01*
X89508881Y-153007631D01*
X89716439Y-152913810D01*
X89725608Y-152908687D01*
X89914320Y-152781139D01*
X89922492Y-152774541D01*
X90086937Y-152616934D01*
X90093873Y-152609053D01*
X90229317Y-152425921D01*
X90234823Y-152416977D01*
X90337370Y-152213588D01*
X90341283Y-152203851D01*
X90407983Y-151986053D01*
X90410194Y-151975793D01*
X90413174Y-151952523D01*
X90411030Y-151938862D01*
X90397752Y-151935000D01*
X88202326Y-151935000D01*
X88189450Y-151938450D01*
X88186000Y-151951326D01*
X88186000Y-153068674D01*
X87686000Y-153068674D01*
X87686000Y-151951326D01*
X87682549Y-151938450D01*
X87669674Y-151935000D01*
X85471611Y-151935000D01*
X85460775Y-151937455D01*
X85460657Y-151948564D01*
X76962500Y-151948564D01*
X76962500Y-151417476D01*
X85458825Y-151417476D01*
X85460969Y-151431137D01*
X85474248Y-151435000D01*
X87669674Y-151435000D01*
X87682549Y-151431549D01*
X87686000Y-151418674D01*
X88186000Y-151418674D01*
X88189450Y-151431549D01*
X88202326Y-151435000D01*
X90400389Y-151435000D01*
X90411224Y-151432544D01*
X90411342Y-151421435D01*
X90380583Y-151278714D01*
X90377509Y-151268677D01*
X90292578Y-151057321D01*
X90287857Y-151047956D01*
X90168424Y-150853983D01*
X90162189Y-150845553D01*
X90011696Y-150674560D01*
X90004120Y-150667299D01*
X89826899Y-150524204D01*
X89818195Y-150518321D01*
X89619344Y-150407235D01*
X89609783Y-150402913D01*
X89395014Y-150327030D01*
X89384847Y-150324383D01*
X89160351Y-150285890D01*
X89149891Y-150285000D01*
X88202326Y-150285000D01*
X88189450Y-150288450D01*
X88186000Y-150301326D01*
X88186000Y-151418674D01*
X87686000Y-151418674D01*
X87686000Y-150301326D01*
X87682549Y-150288450D01*
X87669674Y-150285000D01*
X86779158Y-150285000D01*
X86773902Y-150285223D01*
X86603796Y-150299701D01*
X86593442Y-150301477D01*
X86373013Y-150358872D01*
X86363118Y-150362368D01*
X86155560Y-150456189D01*
X86146391Y-150461312D01*
X85957679Y-150588860D01*
X85949507Y-150595458D01*
X85785062Y-150753065D01*
X85778126Y-150760946D01*
X85642682Y-150944078D01*
X85637176Y-150953022D01*
X85534629Y-151156411D01*
X85530716Y-151166148D01*
X85464016Y-151383946D01*
X85461805Y-151394206D01*
X85458825Y-151417476D01*
X76962500Y-151417476D01*
X76962500Y-150114000D01*
X136000540Y-150114000D01*
X136001219Y-150120460D01*
X136019646Y-150295795D01*
X136019647Y-150295803D01*
X136020326Y-150302256D01*
X136022331Y-150308428D01*
X136022333Y-150308435D01*
X136073885Y-150467093D01*
X136078821Y-150482284D01*
X136082068Y-150487908D01*
X136082069Y-150487910D01*
X136170068Y-150640330D01*
X136173467Y-150646216D01*
X136177811Y-150651041D01*
X136177813Y-150651043D01*
X136284868Y-150769939D01*
X136300129Y-150786888D01*
X136453270Y-150898151D01*
X136626197Y-150975144D01*
X136811354Y-151014500D01*
X136994143Y-151014500D01*
X137000646Y-151014500D01*
X137185803Y-150975144D01*
X137358730Y-150898151D01*
X137511871Y-150786888D01*
X137638533Y-150646216D01*
X137733179Y-150482284D01*
X137791674Y-150302256D01*
X137794405Y-150276265D01*
X137805805Y-150235842D01*
X137830042Y-150201546D01*
X140917770Y-147113819D01*
X140957999Y-147086939D01*
X141005452Y-147077500D01*
X141058143Y-147077500D01*
X141064646Y-147077500D01*
X141249803Y-147038144D01*
X141422730Y-146961151D01*
X141575871Y-146849888D01*
X141702533Y-146709216D01*
X141797179Y-146545284D01*
X141855674Y-146365256D01*
X141875460Y-146177000D01*
X141855674Y-145988744D01*
X141797179Y-145808716D01*
X141702533Y-145644784D01*
X141631322Y-145565696D01*
X141602468Y-145509674D01*
X141560458Y-145492914D01*
X141427988Y-145396669D01*
X141427987Y-145396668D01*
X141422730Y-145392849D01*
X141400625Y-145383007D01*
X141255745Y-145318501D01*
X141255740Y-145318499D01*
X141249803Y-145315856D01*
X141243444Y-145314504D01*
X141243440Y-145314503D01*
X141071008Y-145277852D01*
X141071005Y-145277851D01*
X141064646Y-145276500D01*
X140875354Y-145276500D01*
X140868995Y-145277851D01*
X140868991Y-145277852D01*
X140696559Y-145314503D01*
X140696552Y-145314505D01*
X140690197Y-145315856D01*
X140684262Y-145318498D01*
X140684254Y-145318501D01*
X140523207Y-145390205D01*
X140523202Y-145390207D01*
X140517270Y-145392849D01*
X140512016Y-145396665D01*
X140512011Y-145396669D01*
X140369388Y-145500290D01*
X140369381Y-145500295D01*
X140364129Y-145504112D01*
X140359784Y-145508937D01*
X140359779Y-145508942D01*
X140241813Y-145639956D01*
X140241808Y-145639962D01*
X140237467Y-145644784D01*
X140234222Y-145650404D01*
X140234218Y-145650410D01*
X140146069Y-145803089D01*
X140146066Y-145803094D01*
X140142821Y-145808716D01*
X140140815Y-145814888D01*
X140140813Y-145814894D01*
X140086333Y-145982564D01*
X140086331Y-145982573D01*
X140084326Y-145988744D01*
X140083647Y-145995203D01*
X140083647Y-145995204D01*
X140066678Y-146156651D01*
X140055278Y-146197072D01*
X140031038Y-146231370D01*
X137085227Y-149177181D01*
X137044999Y-149204061D01*
X136997546Y-149213500D01*
X136811354Y-149213500D01*
X136804995Y-149214851D01*
X136804991Y-149214852D01*
X136632559Y-149251503D01*
X136632552Y-149251505D01*
X136626197Y-149252856D01*
X136620262Y-149255498D01*
X136620254Y-149255501D01*
X136459207Y-149327205D01*
X136459202Y-149327207D01*
X136453270Y-149329849D01*
X136448016Y-149333665D01*
X136448011Y-149333669D01*
X136305388Y-149437290D01*
X136305381Y-149437295D01*
X136300129Y-149441112D01*
X136295784Y-149445937D01*
X136295779Y-149445942D01*
X136177813Y-149576956D01*
X136177808Y-149576962D01*
X136173467Y-149581784D01*
X136170222Y-149587404D01*
X136170218Y-149587410D01*
X136082069Y-149740089D01*
X136082066Y-149740094D01*
X136078821Y-149745716D01*
X136076815Y-149751888D01*
X136076813Y-149751894D01*
X136022333Y-149919564D01*
X136022331Y-149919573D01*
X136020326Y-149925744D01*
X136019648Y-149932194D01*
X136019646Y-149932204D01*
X136006064Y-150061440D01*
X136000540Y-150114000D01*
X76962500Y-150114000D01*
X76962500Y-147841842D01*
X83436000Y-147841842D01*
X83436223Y-147847097D01*
X83450701Y-148017203D01*
X83452477Y-148027557D01*
X83509872Y-148247986D01*
X83513368Y-148257881D01*
X83607189Y-148465439D01*
X83612312Y-148474608D01*
X83739860Y-148663320D01*
X83746458Y-148671492D01*
X83904065Y-148835937D01*
X83911946Y-148842873D01*
X84095078Y-148978317D01*
X84104022Y-148983823D01*
X84307411Y-149086370D01*
X84317148Y-149090283D01*
X84534946Y-149156983D01*
X84545206Y-149159194D01*
X84568476Y-149162174D01*
X84582137Y-149160030D01*
X84585233Y-149149389D01*
X85086000Y-149149389D01*
X85088455Y-149160224D01*
X85099564Y-149160342D01*
X85242285Y-149129583D01*
X85252322Y-149126509D01*
X85463678Y-149041578D01*
X85473043Y-149036857D01*
X85647276Y-148929578D01*
X89635500Y-148929578D01*
X89635501Y-148932872D01*
X89635853Y-148936150D01*
X89635854Y-148936161D01*
X89641079Y-148984768D01*
X89641080Y-148984773D01*
X89641909Y-148992483D01*
X89644619Y-148999749D01*
X89644620Y-148999753D01*
X89672016Y-149073205D01*
X89692204Y-149127331D01*
X89697518Y-149134430D01*
X89697519Y-149134431D01*
X89714401Y-149156983D01*
X89778454Y-149242546D01*
X89893669Y-149328796D01*
X90028517Y-149379091D01*
X90088127Y-149385500D01*
X91983872Y-149385499D01*
X92043483Y-149379091D01*
X92178331Y-149328796D01*
X92293546Y-149242546D01*
X92379796Y-149127331D01*
X92430091Y-148992483D01*
X92436500Y-148932873D01*
X92436499Y-144437128D01*
X92430091Y-144377517D01*
X92379796Y-144242669D01*
X92293546Y-144127454D01*
X92247990Y-144093351D01*
X92185431Y-144046519D01*
X92185430Y-144046518D01*
X92178331Y-144041204D01*
X92107965Y-144014959D01*
X92050752Y-143993620D01*
X92050750Y-143993619D01*
X92043483Y-143990909D01*
X92035770Y-143990079D01*
X92035767Y-143990079D01*
X91987180Y-143984855D01*
X91987169Y-143984854D01*
X91983873Y-143984500D01*
X91980550Y-143984500D01*
X90091439Y-143984500D01*
X90091420Y-143984500D01*
X90088128Y-143984501D01*
X90084850Y-143984853D01*
X90084838Y-143984854D01*
X90036231Y-143990079D01*
X90036225Y-143990080D01*
X90028517Y-143990909D01*
X90021252Y-143993618D01*
X90021246Y-143993620D01*
X89901980Y-144038104D01*
X89901978Y-144038104D01*
X89893669Y-144041204D01*
X89886572Y-144046516D01*
X89886568Y-144046519D01*
X89785550Y-144122141D01*
X89785546Y-144122144D01*
X89778454Y-144127454D01*
X89773144Y-144134546D01*
X89773141Y-144134550D01*
X89697519Y-144235568D01*
X89697516Y-144235572D01*
X89692204Y-144242669D01*
X89689104Y-144250978D01*
X89689104Y-144250980D01*
X89644620Y-144370247D01*
X89644619Y-144370250D01*
X89641909Y-144377517D01*
X89641079Y-144385227D01*
X89641079Y-144385232D01*
X89635855Y-144433819D01*
X89635854Y-144433831D01*
X89635500Y-144437127D01*
X89635500Y-144440448D01*
X89635500Y-144440449D01*
X89635500Y-148929560D01*
X89635500Y-148929578D01*
X85647276Y-148929578D01*
X85667016Y-148917424D01*
X85675446Y-148911189D01*
X85846439Y-148760696D01*
X85853700Y-148753120D01*
X85996795Y-148575899D01*
X86002678Y-148567195D01*
X86113764Y-148368344D01*
X86118086Y-148358783D01*
X86193969Y-148144014D01*
X86196616Y-148133847D01*
X86235109Y-147909351D01*
X86236000Y-147898891D01*
X86236000Y-146951326D01*
X86232549Y-146938450D01*
X86219674Y-146935000D01*
X85102326Y-146935000D01*
X85089450Y-146938450D01*
X85086000Y-146951326D01*
X85086000Y-149149389D01*
X84585233Y-149149389D01*
X84586000Y-149146752D01*
X84586000Y-146951326D01*
X84582549Y-146938450D01*
X84569674Y-146935000D01*
X83452326Y-146935000D01*
X83439450Y-146938450D01*
X83436000Y-146951326D01*
X83436000Y-147841842D01*
X76962500Y-147841842D01*
X76962500Y-146418674D01*
X83436000Y-146418674D01*
X83439450Y-146431549D01*
X83452326Y-146435000D01*
X84569674Y-146435000D01*
X84582549Y-146431549D01*
X84586000Y-146418674D01*
X85086000Y-146418674D01*
X85089450Y-146431549D01*
X85102326Y-146435000D01*
X86219674Y-146435000D01*
X86232549Y-146431549D01*
X86236000Y-146418674D01*
X86236000Y-145528158D01*
X86235776Y-145522902D01*
X86221298Y-145352796D01*
X86219522Y-145342442D01*
X86162127Y-145122013D01*
X86158631Y-145112118D01*
X86064810Y-144904560D01*
X86059687Y-144895391D01*
X85932139Y-144706679D01*
X85925541Y-144698507D01*
X85767934Y-144534062D01*
X85760053Y-144527126D01*
X85576921Y-144391682D01*
X85567977Y-144386176D01*
X85364588Y-144283629D01*
X85354851Y-144279716D01*
X85137053Y-144213016D01*
X85126793Y-144210805D01*
X85103523Y-144207825D01*
X85089862Y-144209969D01*
X85086000Y-144223248D01*
X85086000Y-146418674D01*
X84586000Y-146418674D01*
X84586000Y-144220611D01*
X84583544Y-144209775D01*
X84572435Y-144209657D01*
X84429714Y-144240416D01*
X84419677Y-144243490D01*
X84208321Y-144328421D01*
X84198956Y-144333142D01*
X84004983Y-144452575D01*
X83996553Y-144458810D01*
X83825560Y-144609303D01*
X83818299Y-144616879D01*
X83675204Y-144794100D01*
X83669321Y-144802804D01*
X83558235Y-145001655D01*
X83553913Y-145011216D01*
X83478030Y-145225985D01*
X83475383Y-145236152D01*
X83436890Y-145460648D01*
X83436000Y-145471109D01*
X83436000Y-146418674D01*
X76962500Y-146418674D01*
X76962500Y-92353794D01*
X76979373Y-92291345D01*
X77025402Y-92245891D01*
X77088058Y-92229804D01*
X77150291Y-92247461D01*
X77189609Y-92288290D01*
X77190515Y-92287633D01*
X77197522Y-92297278D01*
X77216181Y-92322960D01*
X77222593Y-92332722D01*
X77240856Y-92363602D01*
X77240859Y-92363607D01*
X77244830Y-92370320D01*
X77250344Y-92375834D01*
X77250345Y-92375835D01*
X77258990Y-92384480D01*
X77271626Y-92399274D01*
X77278819Y-92409175D01*
X77278823Y-92409179D01*
X77283406Y-92415487D01*
X77289415Y-92420458D01*
X77289416Y-92420459D01*
X77317058Y-92443326D01*
X77325699Y-92451189D01*
X81781807Y-96907298D01*
X81789259Y-96915487D01*
X81793314Y-96921877D01*
X81815120Y-96942354D01*
X81842323Y-96967900D01*
X81845120Y-96970611D01*
X81864629Y-96990120D01*
X81867809Y-96992587D01*
X81876671Y-97000155D01*
X81882858Y-97005966D01*
X81902832Y-97024723D01*
X81902834Y-97024724D01*
X81908518Y-97030062D01*
X81915351Y-97033818D01*
X81915352Y-97033819D01*
X81926073Y-97039713D01*
X81942334Y-97050394D01*
X81958164Y-97062673D01*
X81998255Y-97080021D01*
X82008735Y-97085155D01*
X82047008Y-97106197D01*
X82066416Y-97111180D01*
X82084819Y-97117481D01*
X82096044Y-97122339D01*
X82096046Y-97122339D01*
X82103204Y-97125437D01*
X82146358Y-97132271D01*
X82157744Y-97134629D01*
X82200081Y-97145500D01*
X82220117Y-97145500D01*
X82239515Y-97147027D01*
X82251586Y-97148939D01*
X82251587Y-97148939D01*
X82259296Y-97150160D01*
X82297376Y-97146560D01*
X82302776Y-97146050D01*
X82314445Y-97145500D01*
X93865782Y-97145500D01*
X93925426Y-97160787D01*
X93970365Y-97202878D01*
X93989517Y-97261396D01*
X93979271Y-97315991D01*
X93980237Y-97316343D01*
X93978384Y-97321430D01*
X93976097Y-97326337D01*
X93974698Y-97331557D01*
X93974694Y-97331569D01*
X93916337Y-97549365D01*
X93916335Y-97549371D01*
X93914937Y-97554592D01*
X93914465Y-97559977D01*
X93914465Y-97559982D01*
X93898091Y-97747135D01*
X93894341Y-97790000D01*
X93894813Y-97795395D01*
X93914017Y-98014901D01*
X93914937Y-98025408D01*
X93916336Y-98030630D01*
X93916337Y-98030634D01*
X93974694Y-98248430D01*
X93974697Y-98248438D01*
X93976097Y-98253663D01*
X93978385Y-98258570D01*
X93978386Y-98258572D01*
X94073678Y-98462927D01*
X94073681Y-98462933D01*
X94075965Y-98467830D01*
X94079064Y-98472257D01*
X94079066Y-98472259D01*
X94208399Y-98656966D01*
X94208402Y-98656970D01*
X94211505Y-98661401D01*
X94378599Y-98828495D01*
X94383032Y-98831599D01*
X94383038Y-98831604D01*
X94564158Y-98958425D01*
X94603024Y-99002743D01*
X94617035Y-99060000D01*
X94603024Y-99117257D01*
X94564159Y-99161575D01*
X94383041Y-99288395D01*
X94378599Y-99291505D01*
X94374775Y-99295328D01*
X94374769Y-99295334D01*
X94215334Y-99454769D01*
X94215328Y-99454775D01*
X94211505Y-99458599D01*
X94208402Y-99463029D01*
X94208399Y-99463034D01*
X94079073Y-99647731D01*
X94079068Y-99647738D01*
X94075965Y-99652171D01*
X94073677Y-99657077D01*
X94073675Y-99657081D01*
X93978386Y-99861427D01*
X93978383Y-99861432D01*
X93976097Y-99866337D01*
X93974698Y-99871557D01*
X93974694Y-99871569D01*
X93916337Y-100089365D01*
X93916335Y-100089371D01*
X93914937Y-100094592D01*
X93914465Y-100099977D01*
X93914465Y-100099982D01*
X93896266Y-100307994D01*
X93894341Y-100330000D01*
X93914937Y-100565408D01*
X93916336Y-100570630D01*
X93916337Y-100570634D01*
X93974694Y-100788430D01*
X93974697Y-100788438D01*
X93976097Y-100793663D01*
X93978385Y-100798570D01*
X93978386Y-100798572D01*
X94073678Y-101002927D01*
X94073681Y-101002933D01*
X94075965Y-101007830D01*
X94079064Y-101012257D01*
X94079066Y-101012259D01*
X94208399Y-101196966D01*
X94208402Y-101196970D01*
X94211505Y-101201401D01*
X94378599Y-101368495D01*
X94383032Y-101371599D01*
X94383038Y-101371604D01*
X94564158Y-101498425D01*
X94603024Y-101542743D01*
X94617035Y-101600000D01*
X94603024Y-101657257D01*
X94564159Y-101701575D01*
X94383041Y-101828395D01*
X94378599Y-101831505D01*
X94374775Y-101835328D01*
X94374769Y-101835334D01*
X94215334Y-101994769D01*
X94215328Y-101994775D01*
X94211505Y-101998599D01*
X94208402Y-102003029D01*
X94208399Y-102003034D01*
X94079073Y-102187731D01*
X94079068Y-102187738D01*
X94075965Y-102192171D01*
X94073677Y-102197077D01*
X94073675Y-102197081D01*
X93978386Y-102401427D01*
X93978383Y-102401432D01*
X93976097Y-102406337D01*
X93974698Y-102411557D01*
X93974694Y-102411569D01*
X93916337Y-102629365D01*
X93916335Y-102629371D01*
X93914937Y-102634592D01*
X93914465Y-102639977D01*
X93914465Y-102639982D01*
X93897979Y-102828413D01*
X93894341Y-102870000D01*
X93894813Y-102875395D01*
X93911856Y-103070199D01*
X93914937Y-103105408D01*
X93916336Y-103110630D01*
X93916337Y-103110634D01*
X93974694Y-103328430D01*
X93974697Y-103328438D01*
X93976097Y-103333663D01*
X93978385Y-103338570D01*
X93978386Y-103338572D01*
X94073678Y-103542927D01*
X94073681Y-103542933D01*
X94075965Y-103547830D01*
X94079064Y-103552257D01*
X94079066Y-103552259D01*
X94208399Y-103736966D01*
X94208402Y-103736970D01*
X94211505Y-103741401D01*
X94378599Y-103908495D01*
X94383032Y-103911599D01*
X94383038Y-103911604D01*
X94564158Y-104038425D01*
X94603024Y-104082743D01*
X94617035Y-104140000D01*
X94603024Y-104197257D01*
X94564159Y-104241575D01*
X94383041Y-104368395D01*
X94378599Y-104371505D01*
X94374775Y-104375328D01*
X94374769Y-104375334D01*
X94215334Y-104534769D01*
X94215328Y-104534775D01*
X94211505Y-104538599D01*
X94208402Y-104543029D01*
X94208399Y-104543034D01*
X94079073Y-104727731D01*
X94079068Y-104727738D01*
X94075965Y-104732171D01*
X94073677Y-104737077D01*
X94073675Y-104737081D01*
X93978386Y-104941427D01*
X93978383Y-104941432D01*
X93976097Y-104946337D01*
X93974698Y-104951557D01*
X93974694Y-104951569D01*
X93916337Y-105169365D01*
X93916335Y-105169371D01*
X93914937Y-105174592D01*
X93914465Y-105179977D01*
X93914465Y-105179982D01*
X93902526Y-105316443D01*
X93894341Y-105410000D01*
X93894813Y-105415395D01*
X93908006Y-105566194D01*
X93914937Y-105645408D01*
X93916336Y-105650630D01*
X93916337Y-105650634D01*
X93974694Y-105868430D01*
X93974697Y-105868438D01*
X93976097Y-105873663D01*
X93978385Y-105878570D01*
X93978386Y-105878572D01*
X94073678Y-106082927D01*
X94073681Y-106082933D01*
X94075965Y-106087830D01*
X94079064Y-106092257D01*
X94079066Y-106092259D01*
X94208399Y-106276966D01*
X94208402Y-106276970D01*
X94211505Y-106281401D01*
X94378599Y-106448495D01*
X94383031Y-106451598D01*
X94383033Y-106451600D01*
X94440349Y-106491733D01*
X94572170Y-106584035D01*
X94786337Y-106683903D01*
X95014592Y-106745063D01*
X95250000Y-106765659D01*
X95485408Y-106745063D01*
X95713663Y-106683903D01*
X95927830Y-106584035D01*
X96121401Y-106448495D01*
X96288495Y-106281401D01*
X96424035Y-106087830D01*
X96523903Y-105873663D01*
X96585063Y-105645408D01*
X96605659Y-105410000D01*
X96585063Y-105174592D01*
X96523903Y-104946337D01*
X96424035Y-104732171D01*
X96288495Y-104538599D01*
X96121401Y-104371505D01*
X96116968Y-104368401D01*
X96116961Y-104368395D01*
X95935842Y-104241575D01*
X95896976Y-104197257D01*
X95882965Y-104140000D01*
X95896976Y-104082743D01*
X95935842Y-104038425D01*
X96116961Y-103911604D01*
X96116961Y-103911603D01*
X96121401Y-103908495D01*
X96288495Y-103741401D01*
X96424035Y-103547830D01*
X96523903Y-103333663D01*
X96585063Y-103105408D01*
X96605659Y-102870000D01*
X96585063Y-102634592D01*
X96523903Y-102406337D01*
X96424035Y-102192171D01*
X96288495Y-101998599D01*
X96121401Y-101831505D01*
X96116968Y-101828401D01*
X96116961Y-101828395D01*
X95935842Y-101701575D01*
X95896976Y-101657257D01*
X95882965Y-101600000D01*
X95896976Y-101542743D01*
X95935842Y-101498425D01*
X96116961Y-101371604D01*
X96116961Y-101371603D01*
X96121401Y-101368495D01*
X96288495Y-101201401D01*
X96424035Y-101007830D01*
X96523903Y-100793663D01*
X96585063Y-100565408D01*
X96605659Y-100330000D01*
X96585063Y-100094592D01*
X96523903Y-99866337D01*
X96424035Y-99652171D01*
X96288495Y-99458599D01*
X96121401Y-99291505D01*
X96116968Y-99288401D01*
X96116961Y-99288395D01*
X95935842Y-99161575D01*
X95896976Y-99117257D01*
X95882965Y-99060000D01*
X95896976Y-99002743D01*
X95935842Y-98958425D01*
X96116961Y-98831604D01*
X96116961Y-98831603D01*
X96121401Y-98828495D01*
X96288495Y-98661401D01*
X96424035Y-98467830D01*
X96523903Y-98253663D01*
X96585063Y-98025408D01*
X96605659Y-97790000D01*
X96585063Y-97554592D01*
X96530710Y-97351742D01*
X96525305Y-97331569D01*
X96525304Y-97331567D01*
X96523903Y-97326337D01*
X96521613Y-97321427D01*
X96519763Y-97316343D01*
X96520728Y-97315991D01*
X96510483Y-97261396D01*
X96529635Y-97202878D01*
X96574574Y-97160787D01*
X96634218Y-97145500D01*
X102855748Y-97145500D01*
X102903201Y-97154939D01*
X102943429Y-97181819D01*
X108417307Y-102655698D01*
X108424759Y-102663887D01*
X108428814Y-102670277D01*
X108445634Y-102686072D01*
X108477823Y-102716300D01*
X108480619Y-102719010D01*
X108500129Y-102738520D01*
X108503309Y-102740987D01*
X108512171Y-102748555D01*
X108525620Y-102761185D01*
X108538332Y-102773123D01*
X108538334Y-102773124D01*
X108544018Y-102778462D01*
X108550851Y-102782218D01*
X108550852Y-102782219D01*
X108561573Y-102788113D01*
X108577834Y-102798794D01*
X108593664Y-102811073D01*
X108633755Y-102828421D01*
X108644235Y-102833555D01*
X108682508Y-102854597D01*
X108701916Y-102859580D01*
X108720319Y-102865881D01*
X108731544Y-102870739D01*
X108731546Y-102870739D01*
X108738704Y-102873837D01*
X108781858Y-102880671D01*
X108793244Y-102883029D01*
X108835581Y-102893900D01*
X108855617Y-102893900D01*
X108875015Y-102895427D01*
X108887086Y-102897339D01*
X108887087Y-102897339D01*
X108894796Y-102898560D01*
X108932876Y-102894960D01*
X108938276Y-102894450D01*
X108949945Y-102893900D01*
X112597952Y-102893900D01*
X112648385Y-102904619D01*
X112686481Y-102932295D01*
X112686650Y-102932109D01*
X112688428Y-102933710D01*
X112690098Y-102934923D01*
X112695829Y-102941288D01*
X112848970Y-103052551D01*
X113021897Y-103129544D01*
X113207054Y-103168900D01*
X113389843Y-103168900D01*
X113396346Y-103168900D01*
X113581503Y-103129544D01*
X113714795Y-103070197D01*
X113763061Y-103059497D01*
X113811677Y-103068507D01*
X113852906Y-103095796D01*
X117296743Y-106539634D01*
X120732838Y-109975729D01*
X120757078Y-110010027D01*
X120768478Y-110050448D01*
X120781942Y-110178550D01*
X120786126Y-110218356D01*
X120788131Y-110224528D01*
X120788133Y-110224535D01*
X120842613Y-110392205D01*
X120844621Y-110398384D01*
X120847868Y-110404008D01*
X120847869Y-110404010D01*
X120894310Y-110484449D01*
X120939267Y-110562316D01*
X120943611Y-110567141D01*
X120943613Y-110567143D01*
X121061579Y-110698157D01*
X121065929Y-110702988D01*
X121219070Y-110814251D01*
X121391997Y-110891244D01*
X121577154Y-110930600D01*
X121759943Y-110930600D01*
X121766446Y-110930600D01*
X121951603Y-110891244D01*
X122124530Y-110814251D01*
X122277671Y-110702988D01*
X122404333Y-110562316D01*
X122498979Y-110398384D01*
X122557474Y-110218356D01*
X122577260Y-110030100D01*
X122557474Y-109841844D01*
X122498979Y-109661816D01*
X122404333Y-109497884D01*
X122277671Y-109357212D01*
X122272413Y-109353392D01*
X122272411Y-109353390D01*
X122129788Y-109249769D01*
X122129787Y-109249768D01*
X122124530Y-109245949D01*
X122118592Y-109243305D01*
X121957545Y-109171601D01*
X121957540Y-109171599D01*
X121951603Y-109168956D01*
X121945244Y-109167604D01*
X121945240Y-109167603D01*
X121772808Y-109130952D01*
X121772805Y-109130951D01*
X121766446Y-109129600D01*
X121759943Y-109129600D01*
X121707252Y-109129600D01*
X121659799Y-109120161D01*
X121619571Y-109093281D01*
X120787723Y-108261433D01*
X120759068Y-108216670D01*
X120751786Y-108164022D01*
X120767215Y-108113162D01*
X120802516Y-108073436D01*
X120876771Y-108019488D01*
X121003433Y-107878816D01*
X121098079Y-107714884D01*
X121136812Y-107595676D01*
X121170570Y-107542939D01*
X121225794Y-107513421D01*
X121288400Y-107514651D01*
X121342423Y-107546314D01*
X121532507Y-107736398D01*
X121539959Y-107744587D01*
X121544014Y-107750977D01*
X121593023Y-107797000D01*
X121595819Y-107799710D01*
X121615329Y-107819220D01*
X121618509Y-107821687D01*
X121627371Y-107829255D01*
X121640820Y-107841885D01*
X121653532Y-107853823D01*
X121653534Y-107853824D01*
X121659218Y-107859162D01*
X121666051Y-107862918D01*
X121666052Y-107862919D01*
X121676773Y-107868813D01*
X121693034Y-107879494D01*
X121708864Y-107891773D01*
X121748955Y-107909121D01*
X121759435Y-107914255D01*
X121797708Y-107935297D01*
X121817116Y-107940280D01*
X121835519Y-107946581D01*
X121846744Y-107951439D01*
X121846746Y-107951439D01*
X121853904Y-107954537D01*
X121897058Y-107961371D01*
X121908444Y-107963729D01*
X121950781Y-107974600D01*
X121970817Y-107974600D01*
X121990215Y-107976127D01*
X122002286Y-107978039D01*
X122002287Y-107978039D01*
X122009996Y-107979260D01*
X122048076Y-107975660D01*
X122053476Y-107975150D01*
X122065145Y-107974600D01*
X127850752Y-107974600D01*
X127901185Y-107985319D01*
X127939281Y-108012995D01*
X127939450Y-108012809D01*
X127941228Y-108014410D01*
X127942898Y-108015623D01*
X127948629Y-108021988D01*
X128101770Y-108133251D01*
X128274697Y-108210244D01*
X128459854Y-108249600D01*
X128642643Y-108249600D01*
X128649146Y-108249600D01*
X128834303Y-108210244D01*
X129007230Y-108133251D01*
X129160371Y-108021988D01*
X129287033Y-107881316D01*
X129354212Y-107764957D01*
X129399600Y-107719570D01*
X129461600Y-107702957D01*
X129523600Y-107719570D01*
X129568987Y-107764957D01*
X129585600Y-107826957D01*
X129585600Y-111414013D01*
X129577364Y-111458451D01*
X129553750Y-111496985D01*
X129482913Y-111575656D01*
X129482908Y-111575662D01*
X129478567Y-111580484D01*
X129475322Y-111586104D01*
X129475318Y-111586110D01*
X129387169Y-111738789D01*
X129387166Y-111738794D01*
X129383921Y-111744416D01*
X129381915Y-111750588D01*
X129381913Y-111750594D01*
X129327433Y-111918264D01*
X129327431Y-111918273D01*
X129325426Y-111924444D01*
X129324748Y-111930894D01*
X129324746Y-111930904D01*
X129307062Y-112099164D01*
X129305640Y-112112700D01*
X129306319Y-112119160D01*
X129324746Y-112294495D01*
X129324747Y-112294503D01*
X129325426Y-112300956D01*
X129327431Y-112307128D01*
X129327433Y-112307135D01*
X129381913Y-112474805D01*
X129383921Y-112480984D01*
X129387168Y-112486608D01*
X129387169Y-112486610D01*
X129440769Y-112579449D01*
X129478567Y-112644916D01*
X129482911Y-112649741D01*
X129482913Y-112649743D01*
X129546514Y-112720379D01*
X129605229Y-112785588D01*
X129758370Y-112896851D01*
X129931297Y-112973844D01*
X130116454Y-113013200D01*
X130299243Y-113013200D01*
X130305746Y-113013200D01*
X130490903Y-112973844D01*
X130663830Y-112896851D01*
X130751059Y-112833475D01*
X130802410Y-112811678D01*
X130858121Y-112814597D01*
X130898914Y-112837208D01*
X130899729Y-112836088D01*
X130990660Y-112902153D01*
X131025964Y-112941882D01*
X131041393Y-112992742D01*
X131034111Y-113045389D01*
X131005456Y-113090152D01*
X123758728Y-120336881D01*
X123718500Y-120363761D01*
X123671047Y-120373200D01*
X117630972Y-120373200D01*
X117619919Y-120372679D01*
X117612533Y-120371028D01*
X117604735Y-120371273D01*
X117545345Y-120373139D01*
X117541451Y-120373200D01*
X117513850Y-120373200D01*
X117509999Y-120373686D01*
X117509968Y-120373688D01*
X117509840Y-120373705D01*
X117498229Y-120374618D01*
X117462372Y-120375745D01*
X117462365Y-120375746D01*
X117454573Y-120375991D01*
X117447088Y-120378165D01*
X117447072Y-120378168D01*
X117435326Y-120381581D01*
X117416283Y-120385525D01*
X117404149Y-120387058D01*
X117404148Y-120387058D01*
X117396408Y-120388036D01*
X117389158Y-120390905D01*
X117389151Y-120390908D01*
X117355798Y-120404113D01*
X117344754Y-120407894D01*
X117310305Y-120417903D01*
X117310295Y-120417907D01*
X117302810Y-120420082D01*
X117296100Y-120424049D01*
X117296098Y-120424051D01*
X117292705Y-120426057D01*
X117285560Y-120430283D01*
X117268100Y-120438836D01*
X117249468Y-120446214D01*
X117243165Y-120450792D01*
X117243158Y-120450797D01*
X117214139Y-120471881D01*
X117204379Y-120478292D01*
X117173494Y-120496557D01*
X117173484Y-120496564D01*
X117166779Y-120500530D01*
X117161263Y-120506045D01*
X117161260Y-120506048D01*
X117152607Y-120514700D01*
X117137824Y-120527326D01*
X117127927Y-120534517D01*
X117127920Y-120534523D01*
X117121613Y-120539106D01*
X117116646Y-120545108D01*
X117116635Y-120545120D01*
X117093770Y-120572759D01*
X117085910Y-120581397D01*
X116807743Y-120859564D01*
X116763397Y-120888064D01*
X116711220Y-120895567D01*
X116664551Y-120881866D01*
X116662331Y-120880204D01*
X116654024Y-120877106D01*
X116654023Y-120877105D01*
X116534752Y-120832620D01*
X116534750Y-120832619D01*
X116527483Y-120829909D01*
X116519770Y-120829079D01*
X116519767Y-120829079D01*
X116471180Y-120823855D01*
X116471169Y-120823854D01*
X116467873Y-120823500D01*
X116464550Y-120823500D01*
X114675439Y-120823500D01*
X114675420Y-120823500D01*
X114672128Y-120823501D01*
X114668850Y-120823853D01*
X114668838Y-120823854D01*
X114620231Y-120829079D01*
X114620225Y-120829080D01*
X114612517Y-120829909D01*
X114605252Y-120832618D01*
X114605246Y-120832620D01*
X114485980Y-120877104D01*
X114485978Y-120877104D01*
X114477669Y-120880204D01*
X114470572Y-120885516D01*
X114470568Y-120885519D01*
X114369550Y-120961141D01*
X114369546Y-120961144D01*
X114362454Y-120966454D01*
X114357144Y-120973546D01*
X114357141Y-120973550D01*
X114281519Y-121074568D01*
X114281516Y-121074572D01*
X114276204Y-121081669D01*
X114273104Y-121089978D01*
X114273104Y-121089980D01*
X114228620Y-121209247D01*
X114228619Y-121209250D01*
X114225909Y-121216517D01*
X114225079Y-121224227D01*
X114225079Y-121224232D01*
X114219855Y-121272819D01*
X114219854Y-121272831D01*
X114219500Y-121276127D01*
X114219500Y-121279448D01*
X114219500Y-121279449D01*
X114219500Y-123068560D01*
X114219500Y-123068578D01*
X114219501Y-123071872D01*
X114219853Y-123075150D01*
X114219854Y-123075161D01*
X114225079Y-123123768D01*
X114225080Y-123123773D01*
X114225909Y-123131483D01*
X114228619Y-123138749D01*
X114228620Y-123138753D01*
X114239265Y-123167293D01*
X114276204Y-123266331D01*
X114281518Y-123273430D01*
X114281519Y-123273431D01*
X114337367Y-123348035D01*
X114362454Y-123381546D01*
X114477669Y-123467796D01*
X114612517Y-123518091D01*
X114672127Y-123524500D01*
X116467872Y-123524499D01*
X116527483Y-123518091D01*
X116662331Y-123467796D01*
X116777546Y-123381546D01*
X116863796Y-123266331D01*
X116912810Y-123134916D01*
X116947789Y-123084537D01*
X117002634Y-123057084D01*
X117063927Y-123059273D01*
X117116672Y-123090568D01*
X117238599Y-123212495D01*
X117243031Y-123215598D01*
X117243033Y-123215600D01*
X117387260Y-123316589D01*
X117432170Y-123348035D01*
X117646337Y-123447903D01*
X117874592Y-123509063D01*
X118110000Y-123529659D01*
X118345408Y-123509063D01*
X118573663Y-123447903D01*
X118787830Y-123348035D01*
X118949343Y-123234942D01*
X119002493Y-123213827D01*
X119059468Y-123218812D01*
X119108146Y-123248837D01*
X119595907Y-123736598D01*
X119603359Y-123744787D01*
X119607414Y-123751177D01*
X119656423Y-123797200D01*
X119659219Y-123799910D01*
X119678729Y-123819420D01*
X119681909Y-123821887D01*
X119690771Y-123829455D01*
X119704220Y-123842085D01*
X119716932Y-123854023D01*
X119716934Y-123854024D01*
X119722618Y-123859362D01*
X119729451Y-123863118D01*
X119729452Y-123863119D01*
X119740173Y-123869013D01*
X119756434Y-123879694D01*
X119772264Y-123891973D01*
X119812355Y-123909321D01*
X119822835Y-123914455D01*
X119861108Y-123935497D01*
X119880516Y-123940480D01*
X119898919Y-123946781D01*
X119910144Y-123951639D01*
X119910146Y-123951639D01*
X119917304Y-123954737D01*
X119960458Y-123961571D01*
X119971844Y-123963929D01*
X120014181Y-123974800D01*
X120034217Y-123974800D01*
X120053615Y-123976327D01*
X120065686Y-123978239D01*
X120065687Y-123978239D01*
X120073396Y-123979460D01*
X120111476Y-123975860D01*
X120116876Y-123975350D01*
X120128545Y-123974800D01*
X122879548Y-123974800D01*
X122927001Y-123984239D01*
X122967229Y-124011119D01*
X146282407Y-147326297D01*
X146289856Y-147334483D01*
X146293914Y-147340877D01*
X146299599Y-147346215D01*
X146299601Y-147346218D01*
X146342939Y-147386915D01*
X146345736Y-147389626D01*
X146365230Y-147409120D01*
X146368315Y-147411513D01*
X146368401Y-147411580D01*
X146377273Y-147419158D01*
X146409118Y-147449062D01*
X146415948Y-147452817D01*
X146415951Y-147452819D01*
X146426671Y-147458712D01*
X146442922Y-147469386D01*
X146458764Y-147481674D01*
X146465921Y-147484771D01*
X146465923Y-147484772D01*
X146498855Y-147499022D01*
X146509350Y-147504164D01*
X146547608Y-147525197D01*
X146567012Y-147530179D01*
X146585414Y-147536480D01*
X146596641Y-147541338D01*
X146603805Y-147544438D01*
X146641397Y-147550391D01*
X146646939Y-147551269D01*
X146658382Y-147553639D01*
X146690410Y-147561862D01*
X146694110Y-147562812D01*
X146694111Y-147562813D01*
X146700680Y-147564500D01*
X146700502Y-147565190D01*
X146746678Y-147582361D01*
X146779804Y-147617642D01*
X146780965Y-147616830D01*
X146913399Y-147805966D01*
X146913402Y-147805970D01*
X146916505Y-147810401D01*
X147083599Y-147977495D01*
X147088032Y-147980599D01*
X147088038Y-147980604D01*
X147269158Y-148107425D01*
X147308024Y-148151743D01*
X147322035Y-148209000D01*
X147308024Y-148266257D01*
X147269159Y-148310575D01*
X147169113Y-148380628D01*
X147083599Y-148440505D01*
X147079775Y-148444328D01*
X147079775Y-148444329D01*
X146942378Y-148581726D01*
X146886790Y-148613819D01*
X146822603Y-148613819D01*
X146767016Y-148581725D01*
X130999086Y-132813795D01*
X130991642Y-132805614D01*
X130987586Y-132799223D01*
X130938575Y-132753198D01*
X130935778Y-132750487D01*
X130919027Y-132733736D01*
X130919026Y-132733735D01*
X130916271Y-132730980D01*
X130913090Y-132728512D01*
X130904214Y-132720930D01*
X130878069Y-132696378D01*
X130878067Y-132696376D01*
X130872382Y-132691038D01*
X130865549Y-132687282D01*
X130865543Y-132687277D01*
X130854825Y-132681385D01*
X130838566Y-132670706D01*
X130828895Y-132663204D01*
X130828892Y-132663202D01*
X130822736Y-132658427D01*
X130815579Y-132655329D01*
X130815576Y-132655328D01*
X130782649Y-132641078D01*
X130772163Y-132635941D01*
X130740732Y-132618662D01*
X130740723Y-132618658D01*
X130733892Y-132614903D01*
X130726335Y-132612962D01*
X130726331Y-132612961D01*
X130714488Y-132609920D01*
X130696084Y-132603619D01*
X130684857Y-132598760D01*
X130684850Y-132598758D01*
X130677696Y-132595662D01*
X130669992Y-132594441D01*
X130669990Y-132594441D01*
X130634559Y-132588829D01*
X130623124Y-132586461D01*
X130588371Y-132577538D01*
X130588363Y-132577537D01*
X130580819Y-132575600D01*
X130573023Y-132575600D01*
X130560783Y-132575600D01*
X130541397Y-132574074D01*
X130521604Y-132570940D01*
X130513838Y-132571674D01*
X130513835Y-132571674D01*
X130478124Y-132575050D01*
X130466455Y-132575600D01*
X91113248Y-132575600D01*
X91062815Y-132564881D01*
X91024718Y-132537204D01*
X91024550Y-132537391D01*
X91022771Y-132535789D01*
X91021101Y-132534576D01*
X91015371Y-132528212D01*
X91010113Y-132524392D01*
X91010111Y-132524390D01*
X90867488Y-132420769D01*
X90867487Y-132420768D01*
X90862230Y-132416949D01*
X90856292Y-132414305D01*
X90695245Y-132342601D01*
X90695240Y-132342599D01*
X90689303Y-132339956D01*
X90682944Y-132338604D01*
X90682940Y-132338603D01*
X90510508Y-132301952D01*
X90510505Y-132301951D01*
X90504146Y-132300600D01*
X90314854Y-132300600D01*
X90308495Y-132301951D01*
X90308491Y-132301952D01*
X90136059Y-132338603D01*
X90136052Y-132338605D01*
X90129697Y-132339956D01*
X90123762Y-132342598D01*
X90123754Y-132342601D01*
X89962707Y-132414305D01*
X89962702Y-132414307D01*
X89956770Y-132416949D01*
X89951516Y-132420765D01*
X89951511Y-132420769D01*
X89808888Y-132524390D01*
X89808881Y-132524395D01*
X89803629Y-132528212D01*
X89799284Y-132533037D01*
X89799279Y-132533042D01*
X89681313Y-132664056D01*
X89681308Y-132664062D01*
X89676967Y-132668884D01*
X89673722Y-132674504D01*
X89673718Y-132674510D01*
X89585569Y-132827189D01*
X89585566Y-132827194D01*
X89582321Y-132832816D01*
X89580315Y-132838988D01*
X89580313Y-132838994D01*
X89525833Y-133006664D01*
X89525831Y-133006673D01*
X89523826Y-133012844D01*
X89523148Y-133019294D01*
X89523146Y-133019304D01*
X89505462Y-133187564D01*
X89504040Y-133201100D01*
X89504719Y-133207560D01*
X89523146Y-133382895D01*
X89523147Y-133382903D01*
X89523826Y-133389356D01*
X89525831Y-133395528D01*
X89525833Y-133395535D01*
X89580313Y-133563205D01*
X89582321Y-133569384D01*
X89676967Y-133733316D01*
X89681311Y-133738141D01*
X89681313Y-133738143D01*
X89769459Y-133836039D01*
X89803629Y-133873988D01*
X89956770Y-133985251D01*
X90129697Y-134062244D01*
X90314854Y-134101600D01*
X90497643Y-134101600D01*
X90504146Y-134101600D01*
X90689303Y-134062244D01*
X90862230Y-133985251D01*
X91015371Y-133873988D01*
X91021101Y-133867623D01*
X91022771Y-133866410D01*
X91024550Y-133864809D01*
X91024718Y-133864995D01*
X91062815Y-133837319D01*
X91113248Y-133826600D01*
X130191348Y-133826600D01*
X130238801Y-133836039D01*
X130279029Y-133862919D01*
X141721024Y-145304915D01*
X141752237Y-145357378D01*
X141752465Y-145363182D01*
X141756611Y-145363237D01*
X141811155Y-145395046D01*
X146282407Y-149866298D01*
X146289859Y-149874487D01*
X146293914Y-149880877D01*
X146329580Y-149914370D01*
X146342923Y-149926900D01*
X146345719Y-149929610D01*
X146365229Y-149949120D01*
X146368409Y-149951587D01*
X146377271Y-149959155D01*
X146390720Y-149971785D01*
X146403432Y-149983723D01*
X146403434Y-149983724D01*
X146409118Y-149989062D01*
X146415951Y-149992818D01*
X146415952Y-149992819D01*
X146426673Y-149998713D01*
X146442934Y-150009394D01*
X146458764Y-150021673D01*
X146498854Y-150039021D01*
X146509331Y-150044154D01*
X146547608Y-150065197D01*
X146564657Y-150069574D01*
X146567005Y-150070177D01*
X146585419Y-150076481D01*
X146603804Y-150084438D01*
X146646965Y-150091273D01*
X146658364Y-150093634D01*
X146700681Y-150104500D01*
X146700682Y-150104500D01*
X146700505Y-150105188D01*
X146746663Y-150122351D01*
X146779797Y-150157624D01*
X146780954Y-150156815D01*
X146782247Y-150158661D01*
X146783130Y-150161173D01*
X146785429Y-150163620D01*
X146786765Y-150165933D01*
X146785136Y-150166873D01*
X146804417Y-150221676D01*
X146790677Y-150287048D01*
X146745015Y-150335807D01*
X146680683Y-150353800D01*
X142018753Y-150353800D01*
X141971300Y-150344361D01*
X141931072Y-150317481D01*
X141527961Y-149914370D01*
X141503721Y-149880072D01*
X141492321Y-149839650D01*
X141475353Y-149678204D01*
X141475352Y-149678203D01*
X141474674Y-149671744D01*
X141416179Y-149491716D01*
X141321533Y-149327784D01*
X141194871Y-149187112D01*
X141189613Y-149183292D01*
X141189611Y-149183290D01*
X141046988Y-149079669D01*
X141046987Y-149079668D01*
X141041730Y-149075849D01*
X141035792Y-149073205D01*
X140874745Y-149001501D01*
X140874740Y-149001499D01*
X140868803Y-148998856D01*
X140862444Y-148997504D01*
X140862440Y-148997503D01*
X140690008Y-148960852D01*
X140690005Y-148960851D01*
X140683646Y-148959500D01*
X140494354Y-148959500D01*
X140487995Y-148960851D01*
X140487991Y-148960852D01*
X140315559Y-148997503D01*
X140315552Y-148997505D01*
X140309197Y-148998856D01*
X140303262Y-149001498D01*
X140303254Y-149001501D01*
X140142207Y-149073205D01*
X140142202Y-149073207D01*
X140136270Y-149075849D01*
X140131016Y-149079665D01*
X140131011Y-149079669D01*
X139988388Y-149183290D01*
X139988381Y-149183295D01*
X139983129Y-149187112D01*
X139978784Y-149191937D01*
X139978779Y-149191942D01*
X139860813Y-149322956D01*
X139860808Y-149322962D01*
X139856467Y-149327784D01*
X139853222Y-149333404D01*
X139853218Y-149333410D01*
X139765069Y-149486089D01*
X139765066Y-149486094D01*
X139761821Y-149491716D01*
X139759815Y-149497888D01*
X139759813Y-149497894D01*
X139705333Y-149665564D01*
X139705331Y-149665573D01*
X139703326Y-149671744D01*
X139702648Y-149678194D01*
X139702646Y-149678204D01*
X139695551Y-149745716D01*
X139683540Y-149860000D01*
X139684219Y-149866460D01*
X139702646Y-150041795D01*
X139702647Y-150041803D01*
X139703326Y-150048256D01*
X139705331Y-150054428D01*
X139705333Y-150054435D01*
X139759674Y-150221676D01*
X139761821Y-150228284D01*
X139765068Y-150233908D01*
X139765069Y-150233910D01*
X139834287Y-150353800D01*
X139856467Y-150392216D01*
X139860811Y-150397041D01*
X139860813Y-150397043D01*
X139970013Y-150518321D01*
X139983129Y-150532888D01*
X140136270Y-150644151D01*
X140309197Y-150721144D01*
X140494354Y-150760500D01*
X140553548Y-150760500D01*
X140601001Y-150769939D01*
X140641229Y-150796819D01*
X141211007Y-151366598D01*
X141218459Y-151374787D01*
X141222514Y-151381177D01*
X141261168Y-151417476D01*
X141271523Y-151427200D01*
X141274319Y-151429910D01*
X141293829Y-151449420D01*
X141297009Y-151451887D01*
X141305871Y-151459455D01*
X141319180Y-151471954D01*
X141332032Y-151484023D01*
X141332034Y-151484024D01*
X141337718Y-151489362D01*
X141344551Y-151493118D01*
X141344552Y-151493119D01*
X141355273Y-151499013D01*
X141371534Y-151509694D01*
X141387364Y-151521973D01*
X141427455Y-151539321D01*
X141437935Y-151544455D01*
X141476208Y-151565497D01*
X141495616Y-151570480D01*
X141514019Y-151576781D01*
X141525244Y-151581639D01*
X141525246Y-151581639D01*
X141532404Y-151584737D01*
X141575558Y-151591571D01*
X141586944Y-151593929D01*
X141629281Y-151604800D01*
X141649317Y-151604800D01*
X141668715Y-151606327D01*
X141680786Y-151608239D01*
X141680787Y-151608239D01*
X141688496Y-151609460D01*
X141726576Y-151605860D01*
X141731976Y-151605350D01*
X141743645Y-151604800D01*
X148049125Y-151604800D01*
X148060180Y-151605321D01*
X148067567Y-151606973D01*
X148134772Y-151604861D01*
X148138668Y-151604800D01*
X148162348Y-151604800D01*
X148166250Y-151604800D01*
X148170213Y-151604299D01*
X148181863Y-151603380D01*
X148225527Y-151602009D01*
X148244761Y-151596419D01*
X148263817Y-151592474D01*
X148283692Y-151589964D01*
X148324295Y-151573887D01*
X148335350Y-151570102D01*
X148377290Y-151557918D01*
X148394529Y-151547722D01*
X148412003Y-151539162D01*
X148423374Y-151534660D01*
X148423376Y-151534658D01*
X148430632Y-151531786D01*
X148465969Y-151506111D01*
X148475724Y-151499703D01*
X148513320Y-151477470D01*
X148527484Y-151463305D01*
X148542279Y-151450668D01*
X148558487Y-151438894D01*
X148586328Y-151405238D01*
X148594179Y-151396609D01*
X149523706Y-150467082D01*
X149531882Y-150459643D01*
X149538277Y-150455586D01*
X149584333Y-150406540D01*
X149586950Y-150403838D01*
X149606520Y-150384270D01*
X149608965Y-150381116D01*
X149616555Y-150372228D01*
X149646462Y-150340382D01*
X149656109Y-150322832D01*
X149666793Y-150306566D01*
X149679074Y-150290736D01*
X149696418Y-150250651D01*
X149701560Y-150240156D01*
X149704994Y-150233910D01*
X149722597Y-150201892D01*
X149727579Y-150182489D01*
X149733880Y-150164083D01*
X149741838Y-150145695D01*
X149748669Y-150102556D01*
X149751039Y-150091115D01*
X149757197Y-150067136D01*
X149761900Y-150048819D01*
X149761900Y-150028783D01*
X149763425Y-150009397D01*
X149766560Y-149989604D01*
X149763026Y-149952224D01*
X149762450Y-149946124D01*
X149761900Y-149934455D01*
X149761900Y-145658175D01*
X149762421Y-145647119D01*
X149764073Y-145639733D01*
X149761961Y-145572527D01*
X149761900Y-145568632D01*
X149761900Y-145544941D01*
X149761900Y-145541050D01*
X149761398Y-145537077D01*
X149760480Y-145525418D01*
X149759985Y-145509674D01*
X149759109Y-145481773D01*
X149753520Y-145462540D01*
X149749574Y-145443483D01*
X149748041Y-145431344D01*
X149747064Y-145423608D01*
X149730982Y-145382991D01*
X149727203Y-145371951D01*
X149717195Y-145337502D01*
X149717193Y-145337499D01*
X149715018Y-145330010D01*
X149704817Y-145312760D01*
X149696263Y-145295301D01*
X149688886Y-145276668D01*
X149663208Y-145241325D01*
X149656801Y-145231571D01*
X149638542Y-145200696D01*
X149638541Y-145200694D01*
X149634570Y-145193980D01*
X149620405Y-145179815D01*
X149607770Y-145165022D01*
X149595994Y-145148813D01*
X149589983Y-145143840D01*
X149589981Y-145143838D01*
X149562341Y-145120973D01*
X149553700Y-145113110D01*
X149341818Y-144901228D01*
X149314938Y-144861000D01*
X149305499Y-144813547D01*
X149305499Y-144093351D01*
X149319014Y-144037056D01*
X149356614Y-143993033D01*
X149410101Y-143970878D01*
X149467817Y-143975420D01*
X149517179Y-144005669D01*
X153128339Y-147616830D01*
X156698038Y-151186529D01*
X156722278Y-151220827D01*
X156733678Y-151261248D01*
X156745659Y-151375237D01*
X156751326Y-151429156D01*
X156753331Y-151435328D01*
X156753333Y-151435335D01*
X156807569Y-151602253D01*
X156809821Y-151609184D01*
X156904467Y-151773116D01*
X157031129Y-151913788D01*
X157036387Y-151917608D01*
X157036388Y-151917609D01*
X157078994Y-151948564D01*
X157184270Y-152025051D01*
X157357197Y-152102044D01*
X157542354Y-152141400D01*
X157725143Y-152141400D01*
X157731646Y-152141400D01*
X157916803Y-152102044D01*
X158089730Y-152025051D01*
X158242871Y-151913788D01*
X158369533Y-151773116D01*
X158464179Y-151609184D01*
X158522674Y-151429156D01*
X158542460Y-151240900D01*
X158522674Y-151052644D01*
X158464179Y-150872616D01*
X158369533Y-150708684D01*
X158313286Y-150646216D01*
X158247220Y-150572842D01*
X158247219Y-150572841D01*
X158242871Y-150568012D01*
X158237613Y-150564192D01*
X158237611Y-150564190D01*
X158094988Y-150460569D01*
X158094987Y-150460568D01*
X158089730Y-150456749D01*
X158083792Y-150454105D01*
X157922745Y-150382401D01*
X157922740Y-150382399D01*
X157916803Y-150379756D01*
X157910444Y-150378404D01*
X157910440Y-150378403D01*
X157738008Y-150341752D01*
X157738005Y-150341751D01*
X157731646Y-150340400D01*
X157725143Y-150340400D01*
X157672453Y-150340400D01*
X157625000Y-150330961D01*
X157584772Y-150304081D01*
X156826411Y-149545720D01*
X172850438Y-149545720D01*
X172851737Y-149557062D01*
X172907501Y-149707631D01*
X172913013Y-149718869D01*
X173008562Y-149872162D01*
X173016223Y-149882058D01*
X173140673Y-150012980D01*
X173150164Y-150021128D01*
X173298427Y-150124322D01*
X173309361Y-150130391D01*
X173475363Y-150201628D01*
X173487292Y-150205371D01*
X173664236Y-150241734D01*
X173676682Y-150243000D01*
X173850674Y-150243000D01*
X173863549Y-150239549D01*
X173867000Y-150226674D01*
X174367000Y-150226674D01*
X174370450Y-150239549D01*
X174383326Y-150243000D01*
X174512033Y-150243000D01*
X174518298Y-150242682D01*
X174652967Y-150228987D01*
X174665218Y-150226469D01*
X174837565Y-150172395D01*
X174849069Y-150167459D01*
X175007009Y-150079795D01*
X175017271Y-150072652D01*
X175154327Y-149954994D01*
X175162958Y-149945914D01*
X175273516Y-149803084D01*
X175280141Y-149792457D01*
X175359688Y-149630288D01*
X175364035Y-149618550D01*
X175380038Y-149556743D01*
X175380322Y-149545535D01*
X175369397Y-149543000D01*
X174383326Y-149543000D01*
X174370450Y-149546450D01*
X174367000Y-149559326D01*
X174367000Y-150226674D01*
X173867000Y-150226674D01*
X173867000Y-149559326D01*
X173863549Y-149546450D01*
X173850674Y-149543000D01*
X172861524Y-149543000D01*
X172850438Y-149545720D01*
X156826411Y-149545720D01*
X156321155Y-149040464D01*
X172853677Y-149040464D01*
X172864603Y-149043000D01*
X173850674Y-149043000D01*
X173863549Y-149039549D01*
X173867000Y-149026674D01*
X174367000Y-149026674D01*
X174370450Y-149039549D01*
X174383326Y-149043000D01*
X175372476Y-149043000D01*
X175383561Y-149040279D01*
X175382262Y-149028937D01*
X175326498Y-148878368D01*
X175320986Y-148867130D01*
X175225437Y-148713837D01*
X175217776Y-148703941D01*
X175093326Y-148573019D01*
X175083835Y-148564871D01*
X174935572Y-148461677D01*
X174924638Y-148455608D01*
X174758636Y-148384371D01*
X174746707Y-148380628D01*
X174569763Y-148344265D01*
X174557318Y-148343000D01*
X174383326Y-148343000D01*
X174370450Y-148346450D01*
X174367000Y-148359326D01*
X174367000Y-149026674D01*
X173867000Y-149026674D01*
X173867000Y-148359326D01*
X173863549Y-148346450D01*
X173850674Y-148343000D01*
X173721967Y-148343000D01*
X173715701Y-148343317D01*
X173581032Y-148357012D01*
X173568781Y-148359530D01*
X173396434Y-148413604D01*
X173384930Y-148418540D01*
X173226990Y-148506204D01*
X173216728Y-148513347D01*
X173079672Y-148631005D01*
X173071041Y-148640085D01*
X172960483Y-148782915D01*
X172953858Y-148793542D01*
X172874311Y-148955711D01*
X172869964Y-148967449D01*
X172853961Y-149029256D01*
X172853677Y-149040464D01*
X156321155Y-149040464D01*
X153507672Y-146226981D01*
X153477422Y-146177618D01*
X153472880Y-146119902D01*
X153495035Y-146066415D01*
X153539058Y-146028815D01*
X153595353Y-146015300D01*
X159390852Y-146015300D01*
X159441285Y-146026019D01*
X159479381Y-146053695D01*
X159479550Y-146053509D01*
X159481328Y-146055110D01*
X159482998Y-146056323D01*
X159488729Y-146062688D01*
X159493987Y-146066508D01*
X159493988Y-146066509D01*
X159505422Y-146074816D01*
X159641870Y-146173951D01*
X159814797Y-146250944D01*
X159914654Y-146272169D01*
X159968579Y-146298469D01*
X160003845Y-146347007D01*
X160012195Y-146406420D01*
X160008340Y-146443100D01*
X160009019Y-146449560D01*
X160027446Y-146624895D01*
X160027447Y-146624903D01*
X160028126Y-146631356D01*
X160030131Y-146637528D01*
X160030133Y-146637535D01*
X160084613Y-146805205D01*
X160086621Y-146811384D01*
X160089868Y-146817008D01*
X160089869Y-146817010D01*
X160157990Y-146935000D01*
X160181267Y-146975316D01*
X160307929Y-147115988D01*
X160461070Y-147227251D01*
X160633997Y-147304244D01*
X160819154Y-147343600D01*
X161001943Y-147343600D01*
X161008446Y-147343600D01*
X161193603Y-147304244D01*
X161366530Y-147227251D01*
X161519671Y-147115988D01*
X161646333Y-146975316D01*
X161740979Y-146811384D01*
X161799474Y-146631356D01*
X161819260Y-146443100D01*
X161804059Y-146298469D01*
X161800153Y-146261304D01*
X161800152Y-146261303D01*
X161799474Y-146254844D01*
X161740979Y-146074816D01*
X161646333Y-145910884D01*
X161630164Y-145892927D01*
X161571150Y-145827385D01*
X161547536Y-145788851D01*
X161539300Y-145744413D01*
X161539300Y-145260472D01*
X161539820Y-145249419D01*
X161541472Y-145242033D01*
X161539361Y-145174845D01*
X161539300Y-145170951D01*
X161539300Y-145147245D01*
X161539300Y-145143350D01*
X161538798Y-145139381D01*
X161537880Y-145127724D01*
X161536754Y-145091873D01*
X161536509Y-145084073D01*
X161530920Y-145064840D01*
X161526974Y-145045783D01*
X161525441Y-145033644D01*
X161524464Y-145025908D01*
X161508382Y-144985291D01*
X161504603Y-144974251D01*
X161494595Y-144939802D01*
X161494593Y-144939799D01*
X161492418Y-144932310D01*
X161482217Y-144915060D01*
X161473663Y-144897601D01*
X161466286Y-144878968D01*
X161440608Y-144843625D01*
X161434201Y-144833871D01*
X161415942Y-144802996D01*
X161415941Y-144802994D01*
X161411970Y-144796280D01*
X161397805Y-144782115D01*
X161385170Y-144767322D01*
X161373394Y-144751113D01*
X161367383Y-144746140D01*
X161367381Y-144746138D01*
X161339741Y-144723273D01*
X161331100Y-144715410D01*
X158572072Y-141956381D01*
X158541822Y-141907018D01*
X158537280Y-141849302D01*
X158559435Y-141795815D01*
X158603458Y-141758215D01*
X158659753Y-141744700D01*
X159201348Y-141744700D01*
X159248801Y-141754139D01*
X159289029Y-141781019D01*
X160984538Y-143476529D01*
X161008778Y-143510827D01*
X161020178Y-143551248D01*
X161025867Y-143605371D01*
X161037826Y-143719156D01*
X161039831Y-143725328D01*
X161039833Y-143725335D01*
X161094313Y-143893005D01*
X161096321Y-143899184D01*
X161099568Y-143904808D01*
X161099569Y-143904810D01*
X161181384Y-144046519D01*
X161190967Y-144063116D01*
X161195311Y-144067941D01*
X161195313Y-144067943D01*
X161313279Y-144198957D01*
X161317629Y-144203788D01*
X161322887Y-144207608D01*
X161322888Y-144207609D01*
X161361371Y-144235568D01*
X161470770Y-144315051D01*
X161643697Y-144392044D01*
X161828854Y-144431400D01*
X162011643Y-144431400D01*
X162018146Y-144431400D01*
X162203303Y-144392044D01*
X162376230Y-144315051D01*
X162529371Y-144203788D01*
X162656033Y-144063116D01*
X162750679Y-143899184D01*
X162809174Y-143719156D01*
X162828960Y-143530900D01*
X162809174Y-143342644D01*
X162750679Y-143162616D01*
X162656033Y-142998684D01*
X162608343Y-142945720D01*
X172850438Y-142945720D01*
X172851737Y-142957062D01*
X172907501Y-143107631D01*
X172913013Y-143118869D01*
X173008562Y-143272162D01*
X173016223Y-143282058D01*
X173140673Y-143412980D01*
X173150164Y-143421128D01*
X173298427Y-143524322D01*
X173309361Y-143530391D01*
X173475363Y-143601628D01*
X173487292Y-143605371D01*
X173664236Y-143641734D01*
X173676682Y-143643000D01*
X173850674Y-143643000D01*
X173863549Y-143639549D01*
X173867000Y-143626674D01*
X174367000Y-143626674D01*
X174370450Y-143639549D01*
X174383326Y-143643000D01*
X174512033Y-143643000D01*
X174518298Y-143642682D01*
X174652967Y-143628987D01*
X174665218Y-143626469D01*
X174837565Y-143572395D01*
X174849069Y-143567459D01*
X175007009Y-143479795D01*
X175017271Y-143472652D01*
X175154327Y-143354994D01*
X175162958Y-143345914D01*
X175273516Y-143203084D01*
X175280141Y-143192457D01*
X175359688Y-143030288D01*
X175364035Y-143018550D01*
X175380038Y-142956743D01*
X175380322Y-142945535D01*
X175369397Y-142943000D01*
X174383326Y-142943000D01*
X174370450Y-142946450D01*
X174367000Y-142959326D01*
X174367000Y-143626674D01*
X173867000Y-143626674D01*
X173867000Y-142959326D01*
X173863549Y-142946450D01*
X173850674Y-142943000D01*
X172861524Y-142943000D01*
X172850438Y-142945720D01*
X162608343Y-142945720D01*
X162602561Y-142939298D01*
X162533720Y-142862842D01*
X162533719Y-142862841D01*
X162529371Y-142858012D01*
X162524113Y-142854192D01*
X162524111Y-142854190D01*
X162381488Y-142750569D01*
X162381487Y-142750568D01*
X162376230Y-142746749D01*
X162366954Y-142742619D01*
X162209245Y-142672401D01*
X162209240Y-142672399D01*
X162203303Y-142669756D01*
X162196944Y-142668404D01*
X162196940Y-142668403D01*
X162024508Y-142631752D01*
X162024505Y-142631751D01*
X162018146Y-142630400D01*
X162011643Y-142630400D01*
X161958952Y-142630400D01*
X161911499Y-142620961D01*
X161871271Y-142594081D01*
X161717654Y-142440464D01*
X172853677Y-142440464D01*
X172864603Y-142443000D01*
X173850674Y-142443000D01*
X173863549Y-142439549D01*
X173867000Y-142426674D01*
X174367000Y-142426674D01*
X174370450Y-142439549D01*
X174383326Y-142443000D01*
X175372476Y-142443000D01*
X175383561Y-142440279D01*
X175382262Y-142428937D01*
X175326498Y-142278368D01*
X175320986Y-142267130D01*
X175225437Y-142113837D01*
X175217776Y-142103941D01*
X175093326Y-141973019D01*
X175083835Y-141964871D01*
X174935572Y-141861677D01*
X174924638Y-141855608D01*
X174758636Y-141784371D01*
X174746707Y-141780628D01*
X174569763Y-141744265D01*
X174557318Y-141743000D01*
X174383326Y-141743000D01*
X174370450Y-141746450D01*
X174367000Y-141759326D01*
X174367000Y-142426674D01*
X173867000Y-142426674D01*
X173867000Y-141759326D01*
X173863549Y-141746450D01*
X173850674Y-141743000D01*
X173721967Y-141743000D01*
X173715701Y-141743317D01*
X173581032Y-141757012D01*
X173568781Y-141759530D01*
X173396434Y-141813604D01*
X173384930Y-141818540D01*
X173226990Y-141906204D01*
X173216728Y-141913347D01*
X173079672Y-142031005D01*
X173071041Y-142040085D01*
X172960483Y-142182915D01*
X172953858Y-142193542D01*
X172874311Y-142355711D01*
X172869964Y-142367449D01*
X172853961Y-142429256D01*
X172853677Y-142440464D01*
X161717654Y-142440464D01*
X160950204Y-141673014D01*
X160009086Y-140731895D01*
X160001642Y-140723714D01*
X159997586Y-140717323D01*
X159948575Y-140671298D01*
X159945778Y-140668587D01*
X159929027Y-140651836D01*
X159926271Y-140649080D01*
X159923090Y-140646612D01*
X159914214Y-140639030D01*
X159888069Y-140614478D01*
X159888067Y-140614476D01*
X159882382Y-140609138D01*
X159875549Y-140605382D01*
X159875543Y-140605377D01*
X159864825Y-140599485D01*
X159848566Y-140588806D01*
X159838895Y-140581304D01*
X159838892Y-140581302D01*
X159832736Y-140576527D01*
X159825579Y-140573429D01*
X159825576Y-140573428D01*
X159792649Y-140559178D01*
X159782163Y-140554041D01*
X159750732Y-140536762D01*
X159750723Y-140536758D01*
X159743892Y-140533003D01*
X159736335Y-140531062D01*
X159736331Y-140531061D01*
X159724488Y-140528020D01*
X159706084Y-140521719D01*
X159694857Y-140516860D01*
X159694850Y-140516858D01*
X159687696Y-140513762D01*
X159679992Y-140512541D01*
X159679990Y-140512541D01*
X159644559Y-140506929D01*
X159633124Y-140504561D01*
X159598371Y-140495638D01*
X159598363Y-140495637D01*
X159590819Y-140493700D01*
X159583023Y-140493700D01*
X159570783Y-140493700D01*
X159551397Y-140492174D01*
X159531604Y-140489040D01*
X159523838Y-140489774D01*
X159523835Y-140489774D01*
X159488124Y-140493150D01*
X159476455Y-140493700D01*
X157283748Y-140493700D01*
X157233315Y-140482981D01*
X157195218Y-140455304D01*
X157195050Y-140455491D01*
X157193271Y-140453889D01*
X157191601Y-140452676D01*
X157185871Y-140446312D01*
X157180613Y-140442492D01*
X157180611Y-140442490D01*
X157037988Y-140338869D01*
X157037987Y-140338868D01*
X157032730Y-140335049D01*
X157026792Y-140332405D01*
X156865745Y-140260701D01*
X156865740Y-140260699D01*
X156859803Y-140258056D01*
X156853444Y-140256704D01*
X156853440Y-140256703D01*
X156681008Y-140220052D01*
X156681005Y-140220051D01*
X156674646Y-140218700D01*
X156485354Y-140218700D01*
X156478995Y-140220051D01*
X156478991Y-140220052D01*
X156306557Y-140256703D01*
X156306546Y-140256706D01*
X156300197Y-140258056D01*
X156294262Y-140260698D01*
X156294254Y-140260701D01*
X156289783Y-140262692D01*
X156222090Y-140272205D01*
X156159643Y-140244401D01*
X156121418Y-140187730D01*
X156118897Y-140179970D01*
X156089279Y-140088816D01*
X155994633Y-139924884D01*
X155867971Y-139784212D01*
X155862713Y-139780392D01*
X155862711Y-139780390D01*
X155720088Y-139676769D01*
X155720087Y-139676768D01*
X155714830Y-139672949D01*
X155661472Y-139649192D01*
X155547845Y-139598601D01*
X155547840Y-139598599D01*
X155541903Y-139595956D01*
X155535544Y-139594604D01*
X155535540Y-139594603D01*
X155363108Y-139557952D01*
X155363105Y-139557951D01*
X155356746Y-139556600D01*
X155167454Y-139556600D01*
X155161095Y-139557951D01*
X155161091Y-139557952D01*
X154988659Y-139594603D01*
X154988652Y-139594605D01*
X154982297Y-139595956D01*
X154976362Y-139598598D01*
X154976354Y-139598601D01*
X154815307Y-139670305D01*
X154815302Y-139670307D01*
X154809370Y-139672949D01*
X154804116Y-139676765D01*
X154804111Y-139676769D01*
X154661488Y-139780390D01*
X154661481Y-139780395D01*
X154656229Y-139784212D01*
X154651884Y-139789037D01*
X154651879Y-139789042D01*
X154533913Y-139920056D01*
X154533908Y-139920062D01*
X154529567Y-139924884D01*
X154526322Y-139930504D01*
X154526318Y-139930510D01*
X154438169Y-140083189D01*
X154438166Y-140083194D01*
X154434921Y-140088816D01*
X154432915Y-140094988D01*
X154432913Y-140094994D01*
X154378433Y-140262664D01*
X154378431Y-140262673D01*
X154376426Y-140268844D01*
X154375747Y-140275303D01*
X154375747Y-140275304D01*
X154358778Y-140436750D01*
X154347378Y-140477172D01*
X154323138Y-140511469D01*
X153173096Y-141661511D01*
X153164911Y-141668959D01*
X153158523Y-141673014D01*
X153153188Y-141678694D01*
X153153183Y-141678699D01*
X153112496Y-141722025D01*
X153109792Y-141724816D01*
X153093028Y-141741580D01*
X153093021Y-141741587D01*
X153090280Y-141744329D01*
X153087900Y-141747396D01*
X153087889Y-141747409D01*
X153087800Y-141747525D01*
X153080242Y-141756370D01*
X153055680Y-141782527D01*
X153055673Y-141782536D01*
X153050338Y-141788218D01*
X153046582Y-141795049D01*
X153046579Y-141795054D01*
X153040685Y-141805775D01*
X153030009Y-141822027D01*
X153022509Y-141831696D01*
X153022501Y-141831707D01*
X153017727Y-141837864D01*
X153014634Y-141845008D01*
X153014629Y-141845019D01*
X153000374Y-141877960D01*
X152995238Y-141888443D01*
X152985027Y-141907018D01*
X152974203Y-141926708D01*
X152972264Y-141934256D01*
X152972263Y-141934261D01*
X152969222Y-141946107D01*
X152962921Y-141964511D01*
X152958058Y-141975748D01*
X152958056Y-141975752D01*
X152954962Y-141982904D01*
X152953742Y-141990603D01*
X152953742Y-141990605D01*
X152948129Y-142026041D01*
X152945761Y-142037476D01*
X152936838Y-142072228D01*
X152936836Y-142072236D01*
X152934900Y-142079781D01*
X152934900Y-142087577D01*
X152934900Y-142099817D01*
X152933374Y-142119202D01*
X152930240Y-142138996D01*
X152930974Y-142146761D01*
X152930974Y-142146764D01*
X152934350Y-142182476D01*
X152934900Y-142194145D01*
X152934900Y-142888613D01*
X152926664Y-142933051D01*
X152903050Y-142971585D01*
X152832213Y-143050256D01*
X152832208Y-143050262D01*
X152827867Y-143055084D01*
X152824622Y-143060704D01*
X152824618Y-143060710D01*
X152736469Y-143213389D01*
X152736466Y-143213394D01*
X152733221Y-143219016D01*
X152731215Y-143225188D01*
X152731213Y-143225194D01*
X152676733Y-143392864D01*
X152676731Y-143392873D01*
X152674726Y-143399044D01*
X152674048Y-143405494D01*
X152674046Y-143405504D01*
X152660189Y-143537360D01*
X152654940Y-143587300D01*
X152655619Y-143593760D01*
X152674726Y-143775556D01*
X152672270Y-143775814D01*
X152669852Y-143826350D01*
X152636392Y-143879628D01*
X152581091Y-143909627D01*
X152518185Y-143908624D01*
X152463868Y-143876878D01*
X151036074Y-142449084D01*
X148766961Y-140179970D01*
X148742721Y-140145672D01*
X148731321Y-140105250D01*
X148729002Y-140083189D01*
X148713674Y-139937344D01*
X148655179Y-139757316D01*
X148560533Y-139593384D01*
X148527412Y-139556600D01*
X148438220Y-139457542D01*
X148438219Y-139457541D01*
X148433871Y-139452712D01*
X148428613Y-139448892D01*
X148428611Y-139448890D01*
X148285988Y-139345269D01*
X148285987Y-139345268D01*
X148280730Y-139341449D01*
X148274792Y-139338805D01*
X148113745Y-139267101D01*
X148113740Y-139267099D01*
X148107803Y-139264456D01*
X148101444Y-139263104D01*
X148101440Y-139263103D01*
X147929008Y-139226452D01*
X147929005Y-139226451D01*
X147922646Y-139225100D01*
X147733354Y-139225100D01*
X147726995Y-139226451D01*
X147726991Y-139226452D01*
X147554559Y-139263103D01*
X147554552Y-139263105D01*
X147548197Y-139264456D01*
X147542262Y-139267098D01*
X147542254Y-139267101D01*
X147381207Y-139338805D01*
X147381202Y-139338807D01*
X147375270Y-139341449D01*
X147370016Y-139345265D01*
X147370011Y-139345269D01*
X147227388Y-139448890D01*
X147227381Y-139448895D01*
X147222129Y-139452712D01*
X147217784Y-139457537D01*
X147217779Y-139457542D01*
X147099813Y-139588556D01*
X147099808Y-139588562D01*
X147095467Y-139593384D01*
X147092220Y-139599007D01*
X147088398Y-139604269D01*
X147086650Y-139602999D01*
X147056590Y-139634990D01*
X147003914Y-139654745D01*
X146947930Y-139649192D01*
X146900163Y-139619472D01*
X130995648Y-123714957D01*
X130963554Y-123659369D01*
X130963554Y-123595182D01*
X130995648Y-123539594D01*
X131051234Y-123507501D01*
X131273663Y-123447903D01*
X131487830Y-123348035D01*
X131681401Y-123212495D01*
X131848495Y-123045401D01*
X131874210Y-123008677D01*
X131978425Y-122859842D01*
X132022743Y-122820976D01*
X132080000Y-122806965D01*
X132137257Y-122820976D01*
X132181575Y-122859842D01*
X132308395Y-123040961D01*
X132308401Y-123040968D01*
X132311505Y-123045401D01*
X132478599Y-123212495D01*
X132483031Y-123215598D01*
X132483033Y-123215600D01*
X132627260Y-123316589D01*
X132672170Y-123348035D01*
X132886337Y-123447903D01*
X133114592Y-123509063D01*
X133350000Y-123529659D01*
X133585408Y-123509063D01*
X133813663Y-123447903D01*
X134027830Y-123348035D01*
X134221401Y-123212495D01*
X134388495Y-123045401D01*
X134524035Y-122851830D01*
X134623903Y-122637663D01*
X134685063Y-122409408D01*
X134705659Y-122174000D01*
X134685063Y-121938592D01*
X134658143Y-121838126D01*
X134658143Y-121773939D01*
X134690235Y-121718353D01*
X139143814Y-117264775D01*
X139151984Y-117257341D01*
X139158380Y-117253283D01*
X139204421Y-117204253D01*
X139207038Y-117201551D01*
X139226623Y-117181968D01*
X139229088Y-117178789D01*
X139236670Y-117169913D01*
X139266565Y-117138079D01*
X139276216Y-117120520D01*
X139286893Y-117104267D01*
X139299176Y-117088433D01*
X139316529Y-117048329D01*
X139321661Y-117037858D01*
X139338938Y-117006432D01*
X139338938Y-117006431D01*
X139342700Y-116999589D01*
X139347680Y-116980188D01*
X139353984Y-116961778D01*
X139361941Y-116943393D01*
X139368775Y-116900238D01*
X139371141Y-116888818D01*
X139380063Y-116854071D01*
X139382003Y-116846516D01*
X139382003Y-116826480D01*
X139383528Y-116807094D01*
X139386663Y-116787301D01*
X139382553Y-116743821D01*
X139382003Y-116732152D01*
X139382003Y-108839000D01*
X153558841Y-108839000D01*
X153579437Y-109074408D01*
X153580836Y-109079630D01*
X153580837Y-109079634D01*
X153639194Y-109297430D01*
X153639197Y-109297438D01*
X153640597Y-109302663D01*
X153642885Y-109307570D01*
X153642886Y-109307572D01*
X153738178Y-109511927D01*
X153738181Y-109511933D01*
X153740465Y-109516830D01*
X153743564Y-109521257D01*
X153743566Y-109521259D01*
X153872899Y-109705966D01*
X153872902Y-109705970D01*
X153876005Y-109710401D01*
X153879835Y-109714231D01*
X153879836Y-109714232D01*
X153997930Y-109832326D01*
X154029226Y-109885072D01*
X154031415Y-109946365D01*
X154003962Y-110001210D01*
X153953583Y-110036189D01*
X153838202Y-110079223D01*
X153822169Y-110085204D01*
X153815072Y-110090516D01*
X153815068Y-110090519D01*
X153714050Y-110166141D01*
X153714046Y-110166144D01*
X153706954Y-110171454D01*
X153701644Y-110178546D01*
X153701641Y-110178550D01*
X153626019Y-110279568D01*
X153626016Y-110279572D01*
X153620704Y-110286669D01*
X153617604Y-110294978D01*
X153617604Y-110294980D01*
X153573120Y-110414247D01*
X153573119Y-110414250D01*
X153570409Y-110421517D01*
X153569579Y-110429227D01*
X153569579Y-110429232D01*
X153564355Y-110477819D01*
X153564354Y-110477831D01*
X153564000Y-110481127D01*
X153564000Y-110484448D01*
X153564000Y-110484449D01*
X153564000Y-112273560D01*
X153564000Y-112273578D01*
X153564001Y-112276872D01*
X153564353Y-112280150D01*
X153564354Y-112280161D01*
X153569579Y-112328768D01*
X153569580Y-112328773D01*
X153570409Y-112336483D01*
X153573119Y-112343749D01*
X153573120Y-112343753D01*
X153606717Y-112433831D01*
X153620704Y-112471331D01*
X153706954Y-112586546D01*
X153822169Y-112672796D01*
X153957017Y-112723091D01*
X154016627Y-112729500D01*
X155812372Y-112729499D01*
X155871983Y-112723091D01*
X156006831Y-112672796D01*
X156122046Y-112586546D01*
X156208296Y-112471331D01*
X156258591Y-112336483D01*
X156265000Y-112276873D01*
X156264999Y-110481128D01*
X156258591Y-110421517D01*
X156208296Y-110286669D01*
X156122046Y-110171454D01*
X156006831Y-110085204D01*
X155936859Y-110059106D01*
X155875416Y-110036189D01*
X155825037Y-110001210D01*
X155797584Y-109946365D01*
X155799773Y-109885072D01*
X155831066Y-109832329D01*
X155952995Y-109710401D01*
X156088535Y-109516830D01*
X156188403Y-109302663D01*
X156249563Y-109074408D01*
X156270159Y-108839000D01*
X156249563Y-108603592D01*
X156188403Y-108375337D01*
X156088535Y-108161171D01*
X155952995Y-107967599D01*
X155785901Y-107800505D01*
X155781468Y-107797401D01*
X155781461Y-107797395D01*
X155600342Y-107670575D01*
X155561476Y-107626257D01*
X155547465Y-107569000D01*
X155561476Y-107511743D01*
X155600342Y-107467425D01*
X155781461Y-107340604D01*
X155781461Y-107340603D01*
X155785901Y-107337495D01*
X155952995Y-107170401D01*
X156088535Y-106976830D01*
X156188403Y-106762663D01*
X156249563Y-106534408D01*
X156270159Y-106299000D01*
X156249563Y-106063592D01*
X156188403Y-105835337D01*
X156088535Y-105621171D01*
X155952995Y-105427599D01*
X155785901Y-105260505D01*
X155781468Y-105257401D01*
X155781461Y-105257395D01*
X155600342Y-105130575D01*
X155561476Y-105086257D01*
X155547465Y-105029000D01*
X155561476Y-104971743D01*
X155600342Y-104927425D01*
X155781461Y-104800604D01*
X155781461Y-104800603D01*
X155785901Y-104797495D01*
X155952995Y-104630401D01*
X156088535Y-104436830D01*
X156188403Y-104222663D01*
X156249563Y-103994408D01*
X156270159Y-103759000D01*
X156249563Y-103523592D01*
X156188403Y-103295337D01*
X156088535Y-103081171D01*
X155952995Y-102887599D01*
X155785901Y-102720505D01*
X155781468Y-102717401D01*
X155781461Y-102717395D01*
X155600342Y-102590575D01*
X155561476Y-102546257D01*
X155547465Y-102489000D01*
X155561476Y-102431743D01*
X155600342Y-102387425D01*
X155781461Y-102260604D01*
X155781461Y-102260603D01*
X155785901Y-102257495D01*
X155952995Y-102090401D01*
X156088535Y-101896830D01*
X156188403Y-101682663D01*
X156249563Y-101454408D01*
X156270159Y-101219000D01*
X156249563Y-100983592D01*
X156188403Y-100755337D01*
X156088535Y-100541171D01*
X155952995Y-100347599D01*
X155785901Y-100180505D01*
X155781468Y-100177401D01*
X155781461Y-100177395D01*
X155600342Y-100050575D01*
X155561476Y-100006257D01*
X155547465Y-99949000D01*
X155561476Y-99891743D01*
X155600342Y-99847425D01*
X155781461Y-99720604D01*
X155781461Y-99720603D01*
X155785901Y-99717495D01*
X155952995Y-99550401D01*
X156088535Y-99356830D01*
X156188403Y-99142663D01*
X156249563Y-98914408D01*
X156270159Y-98679000D01*
X156249563Y-98443592D01*
X156188403Y-98215337D01*
X156088535Y-98001171D01*
X155952995Y-97807599D01*
X155785901Y-97640505D01*
X155781470Y-97637402D01*
X155781466Y-97637399D01*
X155600341Y-97510574D01*
X155561476Y-97466256D01*
X155547465Y-97408999D01*
X155561476Y-97351742D01*
X155600339Y-97307426D01*
X155785901Y-97177495D01*
X155952995Y-97010401D01*
X156088535Y-96816830D01*
X156188403Y-96602663D01*
X156249563Y-96374408D01*
X156270159Y-96139000D01*
X156249563Y-95903592D01*
X156194650Y-95698651D01*
X156189805Y-95680569D01*
X156189804Y-95680567D01*
X156188403Y-95675337D01*
X156088535Y-95461171D01*
X155952995Y-95267599D01*
X155785901Y-95100505D01*
X155781468Y-95097401D01*
X155781461Y-95097395D01*
X155600342Y-94970575D01*
X155561476Y-94926257D01*
X155547465Y-94869000D01*
X155561476Y-94811743D01*
X155600342Y-94767425D01*
X155781461Y-94640604D01*
X155781461Y-94640603D01*
X155785901Y-94637495D01*
X155952995Y-94470401D01*
X156088535Y-94276830D01*
X156188403Y-94062663D01*
X156249563Y-93834408D01*
X156270159Y-93599000D01*
X156249563Y-93363592D01*
X156197270Y-93168430D01*
X156189805Y-93140569D01*
X156189804Y-93140567D01*
X156188403Y-93135337D01*
X156088535Y-92921171D01*
X155952995Y-92727599D01*
X155785901Y-92560505D01*
X155781470Y-92557402D01*
X155781466Y-92557399D01*
X155596759Y-92428066D01*
X155596757Y-92428064D01*
X155592330Y-92424965D01*
X155587433Y-92422681D01*
X155587427Y-92422678D01*
X155383072Y-92327386D01*
X155383070Y-92327385D01*
X155378163Y-92325097D01*
X155372938Y-92323697D01*
X155372930Y-92323694D01*
X155155134Y-92265337D01*
X155155130Y-92265336D01*
X155149908Y-92263937D01*
X155144520Y-92263465D01*
X155144517Y-92263465D01*
X154919895Y-92243813D01*
X154914500Y-92243341D01*
X154909105Y-92243813D01*
X154684482Y-92263465D01*
X154684477Y-92263465D01*
X154679092Y-92263937D01*
X154673871Y-92265335D01*
X154673865Y-92265337D01*
X154456069Y-92323694D01*
X154456057Y-92323698D01*
X154450837Y-92325097D01*
X154445932Y-92327383D01*
X154445927Y-92327386D01*
X154241581Y-92422675D01*
X154241577Y-92422677D01*
X154236671Y-92424965D01*
X154232238Y-92428068D01*
X154232231Y-92428073D01*
X154047534Y-92557399D01*
X154047529Y-92557402D01*
X154043099Y-92560505D01*
X154039275Y-92564328D01*
X154039269Y-92564334D01*
X153879834Y-92723769D01*
X153879828Y-92723775D01*
X153876005Y-92727599D01*
X153872902Y-92732029D01*
X153872899Y-92732034D01*
X153743573Y-92916731D01*
X153743568Y-92916738D01*
X153740465Y-92921171D01*
X153738177Y-92926077D01*
X153738175Y-92926081D01*
X153642886Y-93130427D01*
X153642883Y-93130432D01*
X153640597Y-93135337D01*
X153639198Y-93140557D01*
X153639194Y-93140569D01*
X153580837Y-93358365D01*
X153580835Y-93358371D01*
X153579437Y-93363592D01*
X153578965Y-93368977D01*
X153578965Y-93368982D01*
X153565147Y-93526927D01*
X153558841Y-93599000D01*
X153559313Y-93604395D01*
X153577138Y-93808138D01*
X153579437Y-93834408D01*
X153580836Y-93839630D01*
X153580837Y-93839634D01*
X153639194Y-94057430D01*
X153639197Y-94057438D01*
X153640597Y-94062663D01*
X153642885Y-94067570D01*
X153642886Y-94067572D01*
X153738178Y-94271927D01*
X153738181Y-94271933D01*
X153740465Y-94276830D01*
X153743564Y-94281257D01*
X153743566Y-94281259D01*
X153872899Y-94465966D01*
X153872902Y-94465970D01*
X153876005Y-94470401D01*
X154043099Y-94637495D01*
X154047532Y-94640599D01*
X154047538Y-94640604D01*
X154228658Y-94767425D01*
X154267524Y-94811743D01*
X154281535Y-94869000D01*
X154267524Y-94926257D01*
X154228659Y-94970575D01*
X154047541Y-95097395D01*
X154043099Y-95100505D01*
X154039275Y-95104328D01*
X154039269Y-95104334D01*
X153879834Y-95263769D01*
X153879828Y-95263775D01*
X153876005Y-95267599D01*
X153872902Y-95272029D01*
X153872899Y-95272034D01*
X153743573Y-95456731D01*
X153743568Y-95456738D01*
X153740465Y-95461171D01*
X153738177Y-95466077D01*
X153738175Y-95466081D01*
X153642886Y-95670427D01*
X153642883Y-95670432D01*
X153640597Y-95675337D01*
X153639198Y-95680557D01*
X153639194Y-95680569D01*
X153580837Y-95898365D01*
X153580835Y-95898371D01*
X153579437Y-95903592D01*
X153578965Y-95908977D01*
X153578965Y-95908982D01*
X153567517Y-96039830D01*
X153558841Y-96139000D01*
X153559313Y-96144395D01*
X153578177Y-96360013D01*
X153579437Y-96374408D01*
X153580836Y-96379630D01*
X153580837Y-96379634D01*
X153639194Y-96597430D01*
X153639197Y-96597438D01*
X153640597Y-96602663D01*
X153642885Y-96607570D01*
X153642886Y-96607572D01*
X153738178Y-96811927D01*
X153738181Y-96811933D01*
X153740465Y-96816830D01*
X153743564Y-96821257D01*
X153743566Y-96821259D01*
X153872899Y-97005966D01*
X153872902Y-97005970D01*
X153876005Y-97010401D01*
X154043099Y-97177495D01*
X154047532Y-97180599D01*
X154047538Y-97180604D01*
X154228658Y-97307425D01*
X154267524Y-97351743D01*
X154281535Y-97409000D01*
X154267524Y-97466257D01*
X154228659Y-97510575D01*
X154103716Y-97598061D01*
X154043099Y-97640505D01*
X154039275Y-97644328D01*
X154039269Y-97644334D01*
X153879834Y-97803769D01*
X153879828Y-97803775D01*
X153876005Y-97807599D01*
X153872902Y-97812029D01*
X153872899Y-97812034D01*
X153743573Y-97996731D01*
X153743568Y-97996738D01*
X153740465Y-98001171D01*
X153738177Y-98006077D01*
X153738175Y-98006081D01*
X153642886Y-98210427D01*
X153642883Y-98210432D01*
X153640597Y-98215337D01*
X153639198Y-98220557D01*
X153639194Y-98220569D01*
X153580837Y-98438365D01*
X153580835Y-98438371D01*
X153579437Y-98443592D01*
X153578965Y-98448977D01*
X153578965Y-98448982D01*
X153573172Y-98515200D01*
X153558841Y-98679000D01*
X153559313Y-98684395D01*
X153578049Y-98898551D01*
X153579437Y-98914408D01*
X153580836Y-98919630D01*
X153580837Y-98919634D01*
X153639194Y-99137430D01*
X153639197Y-99137438D01*
X153640597Y-99142663D01*
X153642885Y-99147570D01*
X153642886Y-99147572D01*
X153738178Y-99351927D01*
X153738181Y-99351933D01*
X153740465Y-99356830D01*
X153743564Y-99361257D01*
X153743566Y-99361259D01*
X153872899Y-99545966D01*
X153872902Y-99545970D01*
X153876005Y-99550401D01*
X154043099Y-99717495D01*
X154047532Y-99720599D01*
X154047538Y-99720604D01*
X154228658Y-99847425D01*
X154267524Y-99891743D01*
X154281535Y-99949000D01*
X154267524Y-100006257D01*
X154228659Y-100050575D01*
X154047541Y-100177395D01*
X154043099Y-100180505D01*
X154039275Y-100184328D01*
X154039269Y-100184334D01*
X153879834Y-100343769D01*
X153879828Y-100343775D01*
X153876005Y-100347599D01*
X153872902Y-100352029D01*
X153872899Y-100352034D01*
X153743573Y-100536731D01*
X153743568Y-100536738D01*
X153740465Y-100541171D01*
X153738177Y-100546077D01*
X153738175Y-100546081D01*
X153642886Y-100750427D01*
X153642883Y-100750432D01*
X153640597Y-100755337D01*
X153639198Y-100760557D01*
X153639194Y-100760569D01*
X153580837Y-100978365D01*
X153580835Y-100978371D01*
X153579437Y-100983592D01*
X153578965Y-100988977D01*
X153578965Y-100988982D01*
X153564846Y-101150361D01*
X153558841Y-101219000D01*
X153559313Y-101224395D01*
X153578497Y-101443673D01*
X153579437Y-101454408D01*
X153580836Y-101459630D01*
X153580837Y-101459634D01*
X153639194Y-101677430D01*
X153639197Y-101677438D01*
X153640597Y-101682663D01*
X153642885Y-101687570D01*
X153642886Y-101687572D01*
X153738178Y-101891927D01*
X153738181Y-101891933D01*
X153740465Y-101896830D01*
X153743564Y-101901257D01*
X153743566Y-101901259D01*
X153872899Y-102085966D01*
X153872902Y-102085970D01*
X153876005Y-102090401D01*
X154043099Y-102257495D01*
X154047532Y-102260599D01*
X154047538Y-102260604D01*
X154228658Y-102387425D01*
X154267524Y-102431743D01*
X154281535Y-102489000D01*
X154267524Y-102546257D01*
X154228659Y-102590575D01*
X154047541Y-102717395D01*
X154043099Y-102720505D01*
X154039275Y-102724328D01*
X154039269Y-102724334D01*
X153879834Y-102883769D01*
X153879828Y-102883775D01*
X153876005Y-102887599D01*
X153872902Y-102892029D01*
X153872899Y-102892034D01*
X153743573Y-103076731D01*
X153743568Y-103076738D01*
X153740465Y-103081171D01*
X153738177Y-103086077D01*
X153738175Y-103086081D01*
X153642886Y-103290427D01*
X153642883Y-103290432D01*
X153640597Y-103295337D01*
X153639198Y-103300557D01*
X153639194Y-103300569D01*
X153580837Y-103518365D01*
X153580835Y-103518371D01*
X153579437Y-103523592D01*
X153558841Y-103759000D01*
X153559313Y-103764395D01*
X153574503Y-103938021D01*
X153579437Y-103994408D01*
X153580836Y-103999630D01*
X153580837Y-103999634D01*
X153639194Y-104217430D01*
X153639197Y-104217438D01*
X153640597Y-104222663D01*
X153642885Y-104227570D01*
X153642886Y-104227572D01*
X153738178Y-104431927D01*
X153738181Y-104431933D01*
X153740465Y-104436830D01*
X153743564Y-104441257D01*
X153743566Y-104441259D01*
X153872899Y-104625966D01*
X153872902Y-104625970D01*
X153876005Y-104630401D01*
X154043099Y-104797495D01*
X154047532Y-104800599D01*
X154047538Y-104800604D01*
X154228658Y-104927425D01*
X154267524Y-104971743D01*
X154281535Y-105029000D01*
X154267524Y-105086257D01*
X154228659Y-105130575D01*
X154047541Y-105257395D01*
X154043099Y-105260505D01*
X154039275Y-105264328D01*
X154039269Y-105264334D01*
X153879834Y-105423769D01*
X153879828Y-105423775D01*
X153876005Y-105427599D01*
X153872902Y-105432029D01*
X153872899Y-105432034D01*
X153743573Y-105616731D01*
X153743568Y-105616738D01*
X153740465Y-105621171D01*
X153738177Y-105626077D01*
X153738175Y-105626081D01*
X153642886Y-105830427D01*
X153642883Y-105830432D01*
X153640597Y-105835337D01*
X153639198Y-105840557D01*
X153639194Y-105840569D01*
X153580837Y-106058365D01*
X153580835Y-106058371D01*
X153579437Y-106063592D01*
X153578965Y-106068977D01*
X153578965Y-106068982D01*
X153568716Y-106186126D01*
X153558841Y-106299000D01*
X153559313Y-106304395D01*
X153576295Y-106498502D01*
X153579437Y-106534408D01*
X153580836Y-106539630D01*
X153580837Y-106539634D01*
X153639194Y-106757430D01*
X153639197Y-106757438D01*
X153640597Y-106762663D01*
X153642885Y-106767570D01*
X153642886Y-106767572D01*
X153738178Y-106971927D01*
X153738181Y-106971933D01*
X153740465Y-106976830D01*
X153743564Y-106981257D01*
X153743566Y-106981259D01*
X153872899Y-107165966D01*
X153872902Y-107165970D01*
X153876005Y-107170401D01*
X154043099Y-107337495D01*
X154047532Y-107340599D01*
X154047538Y-107340604D01*
X154228658Y-107467425D01*
X154267524Y-107511743D01*
X154281535Y-107569000D01*
X154267524Y-107626257D01*
X154228659Y-107670575D01*
X154047541Y-107797395D01*
X154043099Y-107800505D01*
X154039275Y-107804328D01*
X154039269Y-107804334D01*
X153879834Y-107963769D01*
X153879828Y-107963775D01*
X153876005Y-107967599D01*
X153872902Y-107972029D01*
X153872899Y-107972034D01*
X153743573Y-108156731D01*
X153743568Y-108156738D01*
X153740465Y-108161171D01*
X153738177Y-108166077D01*
X153738175Y-108166081D01*
X153642886Y-108370427D01*
X153642883Y-108370432D01*
X153640597Y-108375337D01*
X153639198Y-108380557D01*
X153639194Y-108380569D01*
X153580837Y-108598365D01*
X153580835Y-108598371D01*
X153579437Y-108603592D01*
X153558841Y-108839000D01*
X139382003Y-108839000D01*
X139382003Y-107024588D01*
X139382524Y-107013532D01*
X139384176Y-107006146D01*
X139382064Y-106938926D01*
X139382003Y-106935032D01*
X139382003Y-106911355D01*
X139382003Y-106907463D01*
X139381501Y-106903496D01*
X139380584Y-106891839D01*
X139379213Y-106848186D01*
X139374723Y-106832735D01*
X139369800Y-106798139D01*
X139369800Y-101620071D01*
X139370320Y-101609018D01*
X139371972Y-101601632D01*
X139369861Y-101534444D01*
X139369800Y-101530550D01*
X139369800Y-101506845D01*
X139369800Y-101502950D01*
X139369298Y-101498981D01*
X139368380Y-101487324D01*
X139367463Y-101458143D01*
X139367009Y-101443673D01*
X139361420Y-101424440D01*
X139357474Y-101405383D01*
X139355941Y-101393244D01*
X139354964Y-101385508D01*
X139338882Y-101344891D01*
X139335103Y-101333851D01*
X139325095Y-101299402D01*
X139325093Y-101299399D01*
X139322918Y-101291910D01*
X139318947Y-101285196D01*
X139318945Y-101285191D01*
X139312721Y-101274668D01*
X139304158Y-101257190D01*
X139296786Y-101238568D01*
X139292202Y-101232259D01*
X139292199Y-101232253D01*
X139271117Y-101203237D01*
X139264701Y-101193470D01*
X139246443Y-101162596D01*
X139246440Y-101162592D01*
X139242470Y-101155879D01*
X139228305Y-101141714D01*
X139215668Y-101126918D01*
X139208484Y-101117029D01*
X139208478Y-101117023D01*
X139203894Y-101110713D01*
X139170246Y-101082877D01*
X139161605Y-101075014D01*
X136372461Y-98285870D01*
X136348221Y-98251572D01*
X136336821Y-98211150D01*
X136336210Y-98205341D01*
X136319174Y-98043244D01*
X136260679Y-97863216D01*
X136214944Y-97784000D01*
X136198331Y-97722000D01*
X136214944Y-97660000D01*
X136260331Y-97614613D01*
X136322331Y-97598000D01*
X146887925Y-97598000D01*
X146898980Y-97598521D01*
X146906367Y-97600173D01*
X146973572Y-97598061D01*
X146977468Y-97598000D01*
X147001148Y-97598000D01*
X147005050Y-97598000D01*
X147009013Y-97597499D01*
X147020663Y-97596580D01*
X147064327Y-97595209D01*
X147083561Y-97589619D01*
X147102617Y-97585674D01*
X147122492Y-97583164D01*
X147163095Y-97567087D01*
X147174150Y-97563302D01*
X147216090Y-97551118D01*
X147233329Y-97540922D01*
X147250803Y-97532362D01*
X147262174Y-97527860D01*
X147262176Y-97527858D01*
X147269432Y-97524986D01*
X147304769Y-97499311D01*
X147314524Y-97492903D01*
X147352120Y-97470670D01*
X147366284Y-97456505D01*
X147381079Y-97443868D01*
X147397287Y-97432094D01*
X147425128Y-97398438D01*
X147432979Y-97389809D01*
X148810511Y-96012278D01*
X148818681Y-96004844D01*
X148825077Y-96000786D01*
X148871118Y-95951756D01*
X148873735Y-95949054D01*
X148893320Y-95929471D01*
X148895785Y-95926292D01*
X148903367Y-95917416D01*
X148911287Y-95908982D01*
X148933262Y-95885582D01*
X148942913Y-95868023D01*
X148953590Y-95851770D01*
X148965873Y-95835936D01*
X148983218Y-95795852D01*
X148988351Y-95785371D01*
X149009397Y-95747092D01*
X149014379Y-95727684D01*
X149020682Y-95709276D01*
X149028637Y-95690896D01*
X149035471Y-95647744D01*
X149037833Y-95636338D01*
X149048700Y-95594019D01*
X149048700Y-95573983D01*
X149050227Y-95554585D01*
X149052139Y-95542513D01*
X149052138Y-95542513D01*
X149053360Y-95534804D01*
X149049250Y-95491324D01*
X149048700Y-95479655D01*
X149048700Y-94322475D01*
X149049221Y-94311419D01*
X149050873Y-94304033D01*
X149048761Y-94236827D01*
X149048700Y-94232932D01*
X149048700Y-94209241D01*
X149048700Y-94205350D01*
X149048198Y-94201377D01*
X149047280Y-94189718D01*
X149046154Y-94153873D01*
X149045909Y-94146073D01*
X149040320Y-94126840D01*
X149036374Y-94107783D01*
X149034841Y-94095644D01*
X149033864Y-94087908D01*
X149017782Y-94047291D01*
X149014003Y-94036251D01*
X149003995Y-94001802D01*
X149003993Y-94001799D01*
X149001818Y-93994310D01*
X148991617Y-93977060D01*
X148983063Y-93959601D01*
X148975686Y-93940968D01*
X148950008Y-93905625D01*
X148943601Y-93895871D01*
X148925342Y-93864996D01*
X148925341Y-93864994D01*
X148921370Y-93858280D01*
X148907205Y-93844115D01*
X148894570Y-93829322D01*
X148882794Y-93813113D01*
X148876783Y-93808140D01*
X148876781Y-93808138D01*
X148849141Y-93785273D01*
X148840500Y-93777410D01*
X147477786Y-92414695D01*
X147470342Y-92406514D01*
X147466286Y-92400123D01*
X147417275Y-92354098D01*
X147414478Y-92351387D01*
X147397727Y-92334636D01*
X147394971Y-92331880D01*
X147391790Y-92329412D01*
X147382914Y-92321830D01*
X147356769Y-92297278D01*
X147356767Y-92297276D01*
X147351082Y-92291938D01*
X147344249Y-92288182D01*
X147344243Y-92288177D01*
X147333525Y-92282285D01*
X147317266Y-92271606D01*
X147307595Y-92264104D01*
X147307592Y-92264102D01*
X147301436Y-92259327D01*
X147294279Y-92256229D01*
X147294276Y-92256228D01*
X147261349Y-92241978D01*
X147250863Y-92236841D01*
X147219432Y-92219562D01*
X147219423Y-92219558D01*
X147212592Y-92215803D01*
X147205035Y-92213862D01*
X147205031Y-92213861D01*
X147193188Y-92210820D01*
X147174784Y-92204519D01*
X147163557Y-92199660D01*
X147163550Y-92199658D01*
X147156396Y-92196562D01*
X147148692Y-92195341D01*
X147148690Y-92195341D01*
X147113259Y-92189729D01*
X147101824Y-92187361D01*
X147067071Y-92178438D01*
X147067063Y-92178437D01*
X147059519Y-92176500D01*
X147051723Y-92176500D01*
X147039483Y-92176500D01*
X147020097Y-92174974D01*
X147000304Y-92171840D01*
X146992538Y-92172574D01*
X146992535Y-92172574D01*
X146956824Y-92175950D01*
X146945155Y-92176500D01*
X137287452Y-92176500D01*
X137239999Y-92167061D01*
X137199771Y-92140181D01*
X135266171Y-90206581D01*
X135234656Y-90153079D01*
X135233030Y-90091006D01*
X135261702Y-90035928D01*
X135266784Y-90030284D01*
X135372733Y-89912616D01*
X135467379Y-89748684D01*
X135525874Y-89568656D01*
X135543521Y-89400744D01*
X135554921Y-89360325D01*
X135579158Y-89326030D01*
X157345806Y-67559382D01*
X157353982Y-67551943D01*
X157360377Y-67547886D01*
X157406433Y-67498840D01*
X157409050Y-67496138D01*
X157428620Y-67476570D01*
X157431065Y-67473416D01*
X157438655Y-67464528D01*
X157468562Y-67432682D01*
X157472451Y-67425609D01*
X157478210Y-67415132D01*
X157488893Y-67398866D01*
X157501174Y-67383036D01*
X157518518Y-67342951D01*
X157523660Y-67332456D01*
X157531544Y-67318116D01*
X157544697Y-67294192D01*
X157546815Y-67285943D01*
X157549679Y-67274789D01*
X157555980Y-67256383D01*
X157563938Y-67237995D01*
X157570769Y-67194856D01*
X157573139Y-67183415D01*
X157579201Y-67159810D01*
X157584000Y-67141119D01*
X157584000Y-67121083D01*
X157585525Y-67101697D01*
X157588660Y-67081904D01*
X157584550Y-67038424D01*
X157584000Y-67026755D01*
X157584000Y-65624499D01*
X157600613Y-65562499D01*
X157646000Y-65517112D01*
X157708000Y-65500499D01*
X158003061Y-65500499D01*
X158006372Y-65500499D01*
X158065983Y-65494091D01*
X158200831Y-65443796D01*
X158201950Y-65446797D01*
X158246814Y-65435817D01*
X158307831Y-65453187D01*
G37*
%TD.AperFunction*%
%TA.AperFunction,Conductor*%
G36*
X126825154Y-96446827D02*
G01*
X126869981Y-96488265D01*
X126889604Y-96546072D01*
X126879693Y-96603744D01*
X126879421Y-96604216D01*
X126877415Y-96610388D01*
X126877413Y-96610394D01*
X126822933Y-96778064D01*
X126822931Y-96778073D01*
X126820926Y-96784244D01*
X126820248Y-96790694D01*
X126820246Y-96790704D01*
X126804707Y-96938560D01*
X126801140Y-96972500D01*
X126807190Y-97030062D01*
X126820649Y-97158121D01*
X126812299Y-97217533D01*
X126796085Y-97239849D01*
X126839506Y-97264917D01*
X126871301Y-97315795D01*
X126877413Y-97334606D01*
X126877415Y-97334611D01*
X126879421Y-97340784D01*
X126882668Y-97346408D01*
X126882669Y-97346410D01*
X126954410Y-97470670D01*
X126974067Y-97504716D01*
X126978411Y-97509541D01*
X126978413Y-97509543D01*
X127060017Y-97600173D01*
X127100729Y-97645388D01*
X127253870Y-97756651D01*
X127426797Y-97833644D01*
X127611954Y-97873000D01*
X127794743Y-97873000D01*
X127801246Y-97873000D01*
X127986403Y-97833644D01*
X128159330Y-97756651D01*
X128312471Y-97645388D01*
X128318201Y-97639023D01*
X128319871Y-97637810D01*
X128321650Y-97636209D01*
X128321818Y-97636395D01*
X128359915Y-97608719D01*
X128410348Y-97598000D01*
X134544669Y-97598000D01*
X134606669Y-97614613D01*
X134652056Y-97660000D01*
X134668669Y-97722000D01*
X134652056Y-97784000D01*
X134609569Y-97857589D01*
X134609566Y-97857594D01*
X134606321Y-97863216D01*
X134604315Y-97869388D01*
X134604313Y-97869394D01*
X134549833Y-98037064D01*
X134549831Y-98037073D01*
X134547826Y-98043244D01*
X134538906Y-98128120D01*
X134537987Y-98136861D01*
X134517467Y-98193240D01*
X134472881Y-98233385D01*
X134414666Y-98247900D01*
X133138848Y-98247900D01*
X133088415Y-98237181D01*
X133050318Y-98209504D01*
X133050150Y-98209691D01*
X133048371Y-98208089D01*
X133046701Y-98206876D01*
X133040971Y-98200512D01*
X133035713Y-98196692D01*
X133035711Y-98196690D01*
X132893088Y-98093069D01*
X132893087Y-98093068D01*
X132887830Y-98089249D01*
X132881892Y-98086605D01*
X132720845Y-98014901D01*
X132720840Y-98014899D01*
X132714903Y-98012256D01*
X132708544Y-98010904D01*
X132708540Y-98010903D01*
X132536108Y-97974252D01*
X132536105Y-97974251D01*
X132529746Y-97972900D01*
X132340454Y-97972900D01*
X132334095Y-97974251D01*
X132334091Y-97974252D01*
X132161659Y-98010903D01*
X132161652Y-98010905D01*
X132155297Y-98012256D01*
X132149362Y-98014898D01*
X132149354Y-98014901D01*
X131988307Y-98086605D01*
X131988302Y-98086607D01*
X131982370Y-98089249D01*
X131977116Y-98093065D01*
X131977111Y-98093069D01*
X131834488Y-98196690D01*
X131834481Y-98196695D01*
X131829229Y-98200512D01*
X131824884Y-98205337D01*
X131824879Y-98205342D01*
X131706913Y-98336356D01*
X131706908Y-98336362D01*
X131702567Y-98341184D01*
X131699322Y-98346804D01*
X131699318Y-98346810D01*
X131611169Y-98499489D01*
X131611166Y-98499494D01*
X131607921Y-98505116D01*
X131605915Y-98511288D01*
X131605913Y-98511294D01*
X131551433Y-98678964D01*
X131551431Y-98678973D01*
X131549426Y-98685144D01*
X131548748Y-98691594D01*
X131548746Y-98691604D01*
X131534033Y-98831604D01*
X131529640Y-98873400D01*
X131530319Y-98879860D01*
X131548746Y-99055195D01*
X131548747Y-99055203D01*
X131549426Y-99061656D01*
X131551431Y-99067828D01*
X131551433Y-99067835D01*
X131598041Y-99211277D01*
X131607921Y-99241684D01*
X131611168Y-99247308D01*
X131611169Y-99247310D01*
X131676957Y-99361259D01*
X131702567Y-99405616D01*
X131706911Y-99410441D01*
X131706913Y-99410443D01*
X131795059Y-99508339D01*
X131829229Y-99546288D01*
X131982370Y-99657551D01*
X132155297Y-99734544D01*
X132340454Y-99773900D01*
X132523243Y-99773900D01*
X132529746Y-99773900D01*
X132714903Y-99734544D01*
X132887830Y-99657551D01*
X133040971Y-99546288D01*
X133046701Y-99539923D01*
X133048371Y-99538710D01*
X133050150Y-99537109D01*
X133050318Y-99537295D01*
X133088415Y-99509619D01*
X133138848Y-99498900D01*
X134389948Y-99498900D01*
X134437401Y-99508339D01*
X134477629Y-99535219D01*
X137628481Y-102686072D01*
X137655361Y-102726300D01*
X137664800Y-102773753D01*
X137664800Y-106408600D01*
X137648187Y-106470600D01*
X137602800Y-106515987D01*
X137540800Y-106532600D01*
X137487856Y-106532600D01*
X137481497Y-106533951D01*
X137481493Y-106533952D01*
X137309061Y-106570603D01*
X137309054Y-106570605D01*
X137302699Y-106571956D01*
X137296764Y-106574598D01*
X137296756Y-106574601D01*
X137135709Y-106646305D01*
X137135704Y-106646307D01*
X137129772Y-106648949D01*
X137124518Y-106652765D01*
X137124513Y-106652769D01*
X136981890Y-106756390D01*
X136981883Y-106756395D01*
X136976631Y-106760212D01*
X136972286Y-106765037D01*
X136972281Y-106765042D01*
X136854315Y-106896056D01*
X136854310Y-106896062D01*
X136849969Y-106900884D01*
X136846724Y-106906504D01*
X136846720Y-106906510D01*
X136758571Y-107059189D01*
X136758568Y-107059194D01*
X136755323Y-107064816D01*
X136753317Y-107070988D01*
X136753315Y-107070994D01*
X136724121Y-107160844D01*
X136696828Y-107244844D01*
X136696150Y-107251294D01*
X136696148Y-107251304D01*
X136683337Y-107373193D01*
X136671936Y-107413614D01*
X136647697Y-107447911D01*
X132435302Y-111660305D01*
X132387476Y-111690044D01*
X132331429Y-111695562D01*
X132278721Y-111675720D01*
X132246285Y-111641081D01*
X132245202Y-111641869D01*
X132241381Y-111636609D01*
X132238133Y-111630984D01*
X132162949Y-111547484D01*
X132139336Y-111508951D01*
X132131100Y-111464513D01*
X132131100Y-106510175D01*
X132131621Y-106499119D01*
X132133273Y-106491733D01*
X132131161Y-106424513D01*
X132131100Y-106420619D01*
X132131100Y-106396942D01*
X132131100Y-106393050D01*
X132130598Y-106389083D01*
X132129681Y-106377426D01*
X132128310Y-106333773D01*
X132122718Y-106314528D01*
X132118774Y-106295483D01*
X132116264Y-106275608D01*
X132100179Y-106234983D01*
X132096406Y-106223962D01*
X132084218Y-106182010D01*
X132074017Y-106164760D01*
X132065463Y-106147301D01*
X132058086Y-106128668D01*
X132032408Y-106093325D01*
X132026001Y-106083571D01*
X132007742Y-106052696D01*
X132007741Y-106052694D01*
X132003770Y-106045980D01*
X131989605Y-106031815D01*
X131976970Y-106017022D01*
X131965194Y-106000813D01*
X131959183Y-105995840D01*
X131959181Y-105995838D01*
X131931541Y-105972973D01*
X131922900Y-105965110D01*
X125295586Y-99337795D01*
X125288142Y-99329614D01*
X125284086Y-99323223D01*
X125235075Y-99277198D01*
X125232278Y-99274487D01*
X125215527Y-99257736D01*
X125212771Y-99254980D01*
X125209590Y-99252512D01*
X125200714Y-99244930D01*
X125174569Y-99220378D01*
X125174567Y-99220376D01*
X125168882Y-99215038D01*
X125162049Y-99211282D01*
X125162043Y-99211277D01*
X125151325Y-99205385D01*
X125135065Y-99194704D01*
X125130888Y-99191464D01*
X125091240Y-99138224D01*
X125084735Y-99072162D01*
X125113237Y-99012211D01*
X125167543Y-98976236D01*
X125170803Y-98975544D01*
X125343730Y-98898551D01*
X125496871Y-98787288D01*
X125623533Y-98646616D01*
X125699405Y-98515200D01*
X125744793Y-98469813D01*
X125806793Y-98453200D01*
X125832243Y-98453200D01*
X125838746Y-98453200D01*
X126023903Y-98413844D01*
X126196830Y-98336851D01*
X126349971Y-98225588D01*
X126476633Y-98084916D01*
X126571279Y-97920984D01*
X126629774Y-97740956D01*
X126649560Y-97552700D01*
X126630050Y-97367075D01*
X126638400Y-97307667D01*
X126654612Y-97285350D01*
X126611191Y-97260281D01*
X126579397Y-97209401D01*
X126571279Y-97184416D01*
X126476633Y-97020484D01*
X126457779Y-96999545D01*
X126428639Y-96942354D01*
X126431997Y-96878259D01*
X126483174Y-96720756D01*
X126501873Y-96542837D01*
X126522393Y-96486460D01*
X126566979Y-96446315D01*
X126625194Y-96431800D01*
X126765986Y-96431800D01*
X126825154Y-96446827D01*
G37*
%TD.AperFunction*%
%TA.AperFunction,Conductor*%
G36*
X126150985Y-87090919D02*
G01*
X126189081Y-87118595D01*
X126189250Y-87118409D01*
X126191028Y-87120010D01*
X126192698Y-87121223D01*
X126198429Y-87127588D01*
X126351570Y-87238851D01*
X126524497Y-87315844D01*
X126709654Y-87355200D01*
X126892443Y-87355200D01*
X126898946Y-87355200D01*
X126977470Y-87338509D01*
X127040327Y-87341473D01*
X127093638Y-87374914D01*
X127123667Y-87430220D01*
X127122679Y-87493145D01*
X127090928Y-87547480D01*
X121271996Y-93366411D01*
X121263811Y-93373859D01*
X121257423Y-93377914D01*
X121252088Y-93383594D01*
X121252083Y-93383599D01*
X121211396Y-93426925D01*
X121208692Y-93429716D01*
X121191928Y-93446480D01*
X121191921Y-93446487D01*
X121189180Y-93449229D01*
X121186800Y-93452296D01*
X121186789Y-93452309D01*
X121186700Y-93452425D01*
X121179142Y-93461270D01*
X121154580Y-93487427D01*
X121154573Y-93487436D01*
X121149238Y-93493118D01*
X121145482Y-93499949D01*
X121145479Y-93499954D01*
X121139585Y-93510675D01*
X121128909Y-93526927D01*
X121121409Y-93536596D01*
X121121401Y-93536607D01*
X121116627Y-93542764D01*
X121113534Y-93549908D01*
X121113529Y-93549919D01*
X121099274Y-93582860D01*
X121094138Y-93593343D01*
X121079146Y-93620615D01*
X121073103Y-93631608D01*
X121071164Y-93639156D01*
X121071163Y-93639161D01*
X121068122Y-93651007D01*
X121061821Y-93669411D01*
X121056958Y-93680648D01*
X121056956Y-93680652D01*
X121053862Y-93687804D01*
X121052642Y-93695503D01*
X121052642Y-93695505D01*
X121047029Y-93730941D01*
X121044661Y-93742376D01*
X121035738Y-93777128D01*
X121035736Y-93777136D01*
X121033800Y-93784681D01*
X121033800Y-93792477D01*
X121033800Y-93804717D01*
X121032274Y-93824102D01*
X121029140Y-93843896D01*
X121029874Y-93851661D01*
X121029874Y-93851664D01*
X121033250Y-93887376D01*
X121033800Y-93899045D01*
X121033800Y-95471825D01*
X121033278Y-95482880D01*
X121031627Y-95490267D01*
X121031871Y-95498053D01*
X121031871Y-95498061D01*
X121033739Y-95557473D01*
X121033800Y-95561368D01*
X121033800Y-95588950D01*
X121034288Y-95592819D01*
X121034289Y-95592825D01*
X121034304Y-95592943D01*
X121035218Y-95604566D01*
X121036345Y-95640430D01*
X121036346Y-95640437D01*
X121036591Y-95648227D01*
X121038767Y-95655719D01*
X121038768Y-95655721D01*
X121042179Y-95667462D01*
X121046125Y-95686515D01*
X121048636Y-95706392D01*
X121051506Y-95713642D01*
X121051508Y-95713648D01*
X121064714Y-95747004D01*
X121068497Y-95758051D01*
X121080682Y-95799990D01*
X121084327Y-95806154D01*
X121094156Y-95863881D01*
X121076140Y-95919953D01*
X121034285Y-95961388D01*
X120978034Y-95978838D01*
X120931464Y-95970425D01*
X120930820Y-95972408D01*
X120924643Y-95970401D01*
X120918703Y-95967756D01*
X120912344Y-95966404D01*
X120912340Y-95966403D01*
X120739908Y-95929752D01*
X120739905Y-95929751D01*
X120733546Y-95928400D01*
X120544254Y-95928400D01*
X120537895Y-95929751D01*
X120537891Y-95929752D01*
X120365459Y-95966403D01*
X120365452Y-95966405D01*
X120359097Y-95967756D01*
X120353162Y-95970398D01*
X120353154Y-95970401D01*
X120192107Y-96042105D01*
X120192102Y-96042107D01*
X120186170Y-96044749D01*
X120180916Y-96048565D01*
X120180911Y-96048569D01*
X120038288Y-96152190D01*
X120038281Y-96152195D01*
X120033029Y-96156012D01*
X120028684Y-96160837D01*
X120028678Y-96160843D01*
X119946471Y-96252142D01*
X119890575Y-96287751D01*
X119824323Y-96289486D01*
X119766641Y-96256850D01*
X118503203Y-94993412D01*
X118477082Y-94954976D01*
X118466945Y-94909624D01*
X118465954Y-94878072D01*
X118465709Y-94870272D01*
X118460120Y-94851039D01*
X118456174Y-94831982D01*
X118454641Y-94819846D01*
X118453664Y-94812108D01*
X118437581Y-94771487D01*
X118433799Y-94760440D01*
X118426028Y-94733694D01*
X118421617Y-94718510D01*
X118417644Y-94711792D01*
X118411422Y-94701270D01*
X118402860Y-94683792D01*
X118398360Y-94672427D01*
X118398359Y-94672426D01*
X118395486Y-94665168D01*
X118369812Y-94629831D01*
X118363409Y-94620084D01*
X118341170Y-94582479D01*
X118327005Y-94568314D01*
X118314368Y-94553518D01*
X118307184Y-94543629D01*
X118307178Y-94543623D01*
X118302594Y-94537313D01*
X118268946Y-94509477D01*
X118260305Y-94501614D01*
X112206186Y-88447495D01*
X112198742Y-88439314D01*
X112194686Y-88432923D01*
X112145675Y-88386898D01*
X112142878Y-88384187D01*
X112126127Y-88367436D01*
X112123371Y-88364680D01*
X112120190Y-88362212D01*
X112111314Y-88354630D01*
X112085169Y-88330078D01*
X112085167Y-88330076D01*
X112079482Y-88324738D01*
X112072649Y-88320982D01*
X112072643Y-88320977D01*
X112061925Y-88315085D01*
X112045666Y-88304406D01*
X112035995Y-88296904D01*
X112035992Y-88296902D01*
X112029836Y-88292127D01*
X112022679Y-88289029D01*
X112022676Y-88289028D01*
X111989749Y-88274778D01*
X111979263Y-88269641D01*
X111947832Y-88252362D01*
X111947823Y-88252358D01*
X111940992Y-88248603D01*
X111933435Y-88246662D01*
X111933431Y-88246661D01*
X111921588Y-88243620D01*
X111903184Y-88237319D01*
X111891957Y-88232460D01*
X111891950Y-88232458D01*
X111884796Y-88229362D01*
X111877092Y-88228141D01*
X111877090Y-88228141D01*
X111841659Y-88222529D01*
X111830224Y-88220161D01*
X111795471Y-88211238D01*
X111795463Y-88211237D01*
X111787919Y-88209300D01*
X111780123Y-88209300D01*
X111767883Y-88209300D01*
X111748497Y-88207774D01*
X111728704Y-88204640D01*
X111720938Y-88205374D01*
X111720935Y-88205374D01*
X111685224Y-88208750D01*
X111673555Y-88209300D01*
X111526848Y-88209300D01*
X111476415Y-88198581D01*
X111438318Y-88170904D01*
X111438150Y-88171091D01*
X111436371Y-88169489D01*
X111434701Y-88168276D01*
X111428971Y-88161912D01*
X111423713Y-88158092D01*
X111423711Y-88158090D01*
X111281088Y-88054469D01*
X111281087Y-88054468D01*
X111275830Y-88050649D01*
X111269892Y-88048005D01*
X111108845Y-87976301D01*
X111108840Y-87976299D01*
X111102903Y-87973656D01*
X111096544Y-87972304D01*
X111096540Y-87972303D01*
X110924108Y-87935652D01*
X110924105Y-87935651D01*
X110917746Y-87934300D01*
X110728454Y-87934300D01*
X110722095Y-87935651D01*
X110722091Y-87935652D01*
X110549659Y-87972303D01*
X110549652Y-87972305D01*
X110543297Y-87973656D01*
X110537362Y-87976298D01*
X110537354Y-87976301D01*
X110376307Y-88048005D01*
X110376302Y-88048007D01*
X110370370Y-88050649D01*
X110365116Y-88054465D01*
X110365111Y-88054469D01*
X110222488Y-88158090D01*
X110222481Y-88158095D01*
X110217229Y-88161912D01*
X110212884Y-88166737D01*
X110212879Y-88166742D01*
X110094913Y-88297756D01*
X110094908Y-88297762D01*
X110090567Y-88302584D01*
X110087322Y-88308204D01*
X110087318Y-88308210D01*
X109999169Y-88460889D01*
X109999166Y-88460894D01*
X109995921Y-88466516D01*
X109993915Y-88472688D01*
X109993913Y-88472694D01*
X109939433Y-88640364D01*
X109939431Y-88640373D01*
X109937426Y-88646544D01*
X109936748Y-88652994D01*
X109936746Y-88653004D01*
X109922186Y-88791548D01*
X109917640Y-88834800D01*
X109918319Y-88841260D01*
X109936746Y-89016595D01*
X109936747Y-89016603D01*
X109937426Y-89023056D01*
X109939431Y-89029228D01*
X109939433Y-89029235D01*
X109992152Y-89191485D01*
X109995921Y-89203084D01*
X109999168Y-89208708D01*
X109999169Y-89208710D01*
X110085909Y-89358949D01*
X110090567Y-89367016D01*
X110094911Y-89371841D01*
X110094913Y-89371843D01*
X110203257Y-89492171D01*
X110217229Y-89507688D01*
X110222487Y-89511508D01*
X110222488Y-89511509D01*
X110280785Y-89553864D01*
X110370370Y-89618951D01*
X110543297Y-89695944D01*
X110728454Y-89735300D01*
X110911243Y-89735300D01*
X110917746Y-89735300D01*
X111102903Y-89695944D01*
X111275830Y-89618951D01*
X111382808Y-89541226D01*
X111436295Y-89519072D01*
X111494011Y-89523614D01*
X111543374Y-89553864D01*
X115445428Y-93455919D01*
X115475678Y-93505282D01*
X115480220Y-93562998D01*
X115458065Y-93616485D01*
X115414042Y-93654085D01*
X115357747Y-93667600D01*
X114065753Y-93667600D01*
X114018300Y-93658161D01*
X113978072Y-93631281D01*
X107638672Y-87291881D01*
X107608422Y-87242518D01*
X107603880Y-87184802D01*
X107626035Y-87131315D01*
X107670058Y-87093715D01*
X107726353Y-87080200D01*
X126100552Y-87080200D01*
X126150985Y-87090919D01*
G37*
%TD.AperFunction*%
%TA.AperFunction,Conductor*%
G36*
X116506500Y-60766613D02*
G01*
X116551887Y-60812000D01*
X116568500Y-60874000D01*
X116568500Y-65483674D01*
X116571950Y-65496549D01*
X116584826Y-65500000D01*
X117206518Y-65500000D01*
X117263505Y-65513871D01*
X117307743Y-65552380D01*
X117329335Y-65606912D01*
X117323450Y-65665267D01*
X117296468Y-65706627D01*
X117297411Y-65707407D01*
X117282130Y-65725880D01*
X117269572Y-65741059D01*
X117261711Y-65749697D01*
X104733428Y-78277981D01*
X104693200Y-78304861D01*
X104645747Y-78314300D01*
X88048271Y-78314300D01*
X88037218Y-78313779D01*
X88029832Y-78312128D01*
X88022034Y-78312373D01*
X87962644Y-78314239D01*
X87958750Y-78314300D01*
X87931150Y-78314300D01*
X87927299Y-78314786D01*
X87927268Y-78314788D01*
X87927140Y-78314805D01*
X87915529Y-78315718D01*
X87879671Y-78316845D01*
X87879664Y-78316846D01*
X87871872Y-78317091D01*
X87864388Y-78319265D01*
X87864377Y-78319267D01*
X87852628Y-78322681D01*
X87833583Y-78326625D01*
X87821447Y-78328158D01*
X87821444Y-78328158D01*
X87813708Y-78329136D01*
X87806460Y-78332005D01*
X87806450Y-78332008D01*
X87773092Y-78345215D01*
X87762050Y-78348996D01*
X87727597Y-78359007D01*
X87727592Y-78359008D01*
X87720110Y-78361183D01*
X87713402Y-78365149D01*
X87713397Y-78365152D01*
X87702864Y-78371381D01*
X87685400Y-78379936D01*
X87674024Y-78384440D01*
X87674017Y-78384443D01*
X87666768Y-78387314D01*
X87660462Y-78391894D01*
X87660457Y-78391898D01*
X87631427Y-78412989D01*
X87621669Y-78419398D01*
X87590798Y-78437656D01*
X87584079Y-78441630D01*
X87578563Y-78447144D01*
X87578556Y-78447151D01*
X87569907Y-78455800D01*
X87555124Y-78468426D01*
X87545227Y-78475617D01*
X87545220Y-78475623D01*
X87538913Y-78480206D01*
X87533946Y-78486208D01*
X87533935Y-78486220D01*
X87511070Y-78513859D01*
X87503210Y-78522497D01*
X80562983Y-85462725D01*
X80507396Y-85494819D01*
X80443208Y-85494819D01*
X80387621Y-85462725D01*
X80250232Y-85325336D01*
X80246401Y-85321505D01*
X80241968Y-85318401D01*
X80241961Y-85318395D01*
X80060842Y-85191575D01*
X80021976Y-85147257D01*
X80007965Y-85090000D01*
X80021976Y-85032743D01*
X80060842Y-84988425D01*
X80241961Y-84861604D01*
X80241961Y-84861603D01*
X80246401Y-84858495D01*
X80413495Y-84691401D01*
X80549035Y-84497830D01*
X80648903Y-84283663D01*
X80710063Y-84055408D01*
X80730659Y-83820000D01*
X80710063Y-83584592D01*
X80648903Y-83356337D01*
X80549035Y-83142171D01*
X80413495Y-82948599D01*
X80246401Y-82781505D01*
X80241970Y-82778402D01*
X80241966Y-82778399D01*
X80060405Y-82651269D01*
X80021540Y-82606951D01*
X80007529Y-82549694D01*
X80021540Y-82492437D01*
X80060406Y-82448119D01*
X80241638Y-82321219D01*
X80249909Y-82314278D01*
X80409278Y-82154909D01*
X80416215Y-82146643D01*
X80545498Y-81962008D01*
X80550886Y-81952676D01*
X80646143Y-81748397D01*
X80649831Y-81738263D01*
X80701943Y-81543780D01*
X80702311Y-81532551D01*
X80691369Y-81530000D01*
X79249000Y-81530000D01*
X79187000Y-81513387D01*
X79141613Y-81468000D01*
X79125000Y-81406000D01*
X79125000Y-81154000D01*
X79141613Y-81092000D01*
X79187000Y-81046613D01*
X79249000Y-81030000D01*
X80691369Y-81030000D01*
X80702311Y-81027448D01*
X80701943Y-81016219D01*
X80649831Y-80821736D01*
X80646143Y-80811602D01*
X80550889Y-80607332D01*
X80545491Y-80597982D01*
X80416215Y-80413357D01*
X80409280Y-80405092D01*
X80249909Y-80245721D01*
X80241643Y-80238784D01*
X80060405Y-80111880D01*
X80021540Y-80067562D01*
X80007529Y-80010305D01*
X80021540Y-79953048D01*
X80060406Y-79908730D01*
X80109702Y-79874213D01*
X80246401Y-79778495D01*
X80413495Y-79611401D01*
X80549035Y-79417830D01*
X80550364Y-79418760D01*
X80588252Y-79380272D01*
X80633851Y-79366900D01*
X80633420Y-79364175D01*
X80641127Y-79362954D01*
X80648927Y-79362709D01*
X80668161Y-79357119D01*
X80687217Y-79353174D01*
X80707092Y-79350664D01*
X80747695Y-79334587D01*
X80758750Y-79330802D01*
X80800690Y-79318618D01*
X80817929Y-79308422D01*
X80835403Y-79299862D01*
X80846774Y-79295360D01*
X80846776Y-79295358D01*
X80854032Y-79292486D01*
X80889369Y-79266811D01*
X80899124Y-79260403D01*
X80936720Y-79238170D01*
X80950884Y-79224005D01*
X80965679Y-79211368D01*
X80981887Y-79199594D01*
X81009728Y-79165938D01*
X81017579Y-79157309D01*
X82599671Y-77575219D01*
X82639900Y-77548339D01*
X82687353Y-77538900D01*
X101825825Y-77538900D01*
X101836880Y-77539421D01*
X101844267Y-77541073D01*
X101911472Y-77538961D01*
X101915368Y-77538900D01*
X101939048Y-77538900D01*
X101942950Y-77538900D01*
X101946913Y-77538399D01*
X101958563Y-77537480D01*
X102002227Y-77536109D01*
X102021461Y-77530519D01*
X102040517Y-77526574D01*
X102060392Y-77524064D01*
X102100995Y-77507987D01*
X102112050Y-77504202D01*
X102153990Y-77492018D01*
X102171229Y-77481822D01*
X102188703Y-77473262D01*
X102200074Y-77468760D01*
X102200076Y-77468758D01*
X102207332Y-77465886D01*
X102242669Y-77440211D01*
X102252424Y-77433803D01*
X102290020Y-77411570D01*
X102304184Y-77397405D01*
X102318979Y-77384768D01*
X102335187Y-77372994D01*
X102363028Y-77339338D01*
X102370879Y-77330709D01*
X111978871Y-67722719D01*
X112019100Y-67695839D01*
X112066553Y-67686400D01*
X112119243Y-67686400D01*
X112125746Y-67686400D01*
X112310903Y-67647044D01*
X112483830Y-67570051D01*
X112636971Y-67458788D01*
X112763633Y-67318116D01*
X112858279Y-67154184D01*
X112916774Y-66974156D01*
X112936560Y-66785900D01*
X112916774Y-66597644D01*
X112858279Y-66417616D01*
X112763633Y-66253684D01*
X112711779Y-66196095D01*
X112641320Y-66117842D01*
X112641319Y-66117841D01*
X112636971Y-66113012D01*
X112631713Y-66109192D01*
X112631711Y-66109190D01*
X112489088Y-66005569D01*
X112489087Y-66005568D01*
X112483830Y-66001749D01*
X112477892Y-65999105D01*
X112316845Y-65927401D01*
X112316840Y-65927399D01*
X112310903Y-65924756D01*
X112304544Y-65923404D01*
X112304540Y-65923403D01*
X112132108Y-65886752D01*
X112132105Y-65886751D01*
X112125746Y-65885400D01*
X111936454Y-65885400D01*
X111930098Y-65886750D01*
X111930097Y-65886751D01*
X111896344Y-65893925D01*
X111865945Y-65900386D01*
X111806818Y-65898528D01*
X111755281Y-65869487D01*
X111723063Y-65819873D01*
X111717497Y-65760979D01*
X111739849Y-65706208D01*
X111743212Y-65701578D01*
X111748562Y-65695882D01*
X111758213Y-65678323D01*
X111768890Y-65662070D01*
X111781173Y-65646236D01*
X111798526Y-65606132D01*
X111803653Y-65595669D01*
X111811958Y-65580562D01*
X111820648Y-65564758D01*
X111866189Y-65517766D01*
X111929308Y-65500499D01*
X112283061Y-65500499D01*
X112286372Y-65500499D01*
X112345983Y-65494091D01*
X112465887Y-65449369D01*
X112509214Y-65441553D01*
X112552548Y-65449371D01*
X112663861Y-65490888D01*
X112678832Y-65494426D01*
X112727385Y-65499646D01*
X112733982Y-65500000D01*
X113512174Y-65500000D01*
X113525049Y-65496549D01*
X113528500Y-65483674D01*
X114028500Y-65483674D01*
X114031950Y-65496549D01*
X114044826Y-65500000D01*
X114823018Y-65500000D01*
X114829614Y-65499646D01*
X114878167Y-65494426D01*
X114893141Y-65490888D01*
X115005167Y-65449105D01*
X115048500Y-65441287D01*
X115091833Y-65449105D01*
X115203858Y-65490888D01*
X115218832Y-65494426D01*
X115267385Y-65499646D01*
X115273982Y-65500000D01*
X116052174Y-65500000D01*
X116065049Y-65496549D01*
X116068500Y-65483674D01*
X116068500Y-61266326D01*
X116065049Y-61253450D01*
X116052174Y-61250000D01*
X114044826Y-61250000D01*
X114031950Y-61253450D01*
X114028500Y-61266326D01*
X114028500Y-65483674D01*
X113528500Y-65483674D01*
X113528500Y-60874000D01*
X113545113Y-60812000D01*
X113590500Y-60766613D01*
X113652500Y-60750000D01*
X116444500Y-60750000D01*
X116506500Y-60766613D01*
G37*
%TD.AperFunction*%
%TA.AperFunction,Conductor*%
G36*
X94000343Y-71014515D02*
G01*
X94044366Y-71052115D01*
X94066521Y-71105602D01*
X94061979Y-71163318D01*
X94031729Y-71212681D01*
X90976228Y-74268181D01*
X90936000Y-74295061D01*
X90888547Y-74304500D01*
X80758666Y-74304500D01*
X80699023Y-74289214D01*
X80654085Y-74247124D01*
X80634931Y-74188608D01*
X80645210Y-74133817D01*
X80644292Y-74133483D01*
X80649831Y-74118263D01*
X80701943Y-73923780D01*
X80702311Y-73912551D01*
X80691369Y-73910000D01*
X78058631Y-73910000D01*
X78047688Y-73912551D01*
X78048056Y-73923780D01*
X78100168Y-74118263D01*
X78103856Y-74128397D01*
X78199113Y-74332676D01*
X78204504Y-74342014D01*
X78323434Y-74511863D01*
X78344550Y-74565015D01*
X78339565Y-74621990D01*
X78309540Y-74670667D01*
X77355696Y-75624511D01*
X77347511Y-75631959D01*
X77341123Y-75636014D01*
X77335788Y-75641694D01*
X77335783Y-75641699D01*
X77295096Y-75685025D01*
X77292392Y-75687816D01*
X77275628Y-75704580D01*
X77275621Y-75704587D01*
X77272880Y-75707329D01*
X77270500Y-75710396D01*
X77270489Y-75710409D01*
X77270400Y-75710525D01*
X77262842Y-75719370D01*
X77238280Y-75745527D01*
X77238273Y-75745536D01*
X77232938Y-75751218D01*
X77229182Y-75758049D01*
X77229179Y-75758054D01*
X77223285Y-75768775D01*
X77212609Y-75785027D01*
X77205109Y-75794696D01*
X77205101Y-75794707D01*
X77200327Y-75800864D01*
X77197231Y-75808016D01*
X77193258Y-75814736D01*
X77190450Y-75813075D01*
X77158078Y-75852930D01*
X77095026Y-75875382D01*
X77029490Y-75861793D01*
X76980563Y-75816122D01*
X76962500Y-75751675D01*
X76962500Y-73407448D01*
X78047688Y-73407448D01*
X78058631Y-73410000D01*
X79108674Y-73410000D01*
X79121549Y-73406549D01*
X79125000Y-73393674D01*
X79625000Y-73393674D01*
X79628450Y-73406549D01*
X79641326Y-73410000D01*
X80691369Y-73410000D01*
X80702311Y-73407448D01*
X80701943Y-73396219D01*
X80649831Y-73201736D01*
X80646143Y-73191602D01*
X80550889Y-72987332D01*
X80545491Y-72977982D01*
X80416215Y-72793357D01*
X80409280Y-72785092D01*
X80249909Y-72625721D01*
X80241643Y-72618784D01*
X80057008Y-72489501D01*
X80047676Y-72484113D01*
X79843397Y-72388856D01*
X79833263Y-72385168D01*
X79638780Y-72333056D01*
X79627551Y-72332688D01*
X79625000Y-72343631D01*
X79625000Y-73393674D01*
X79125000Y-73393674D01*
X79125000Y-72343631D01*
X79122448Y-72332688D01*
X79111219Y-72333056D01*
X78916736Y-72385168D01*
X78906602Y-72388856D01*
X78702332Y-72484110D01*
X78692982Y-72489508D01*
X78508357Y-72618784D01*
X78500092Y-72625719D01*
X78340719Y-72785092D01*
X78333784Y-72793357D01*
X78204508Y-72977982D01*
X78199110Y-72987332D01*
X78103856Y-73191602D01*
X78100168Y-73201736D01*
X78048056Y-73396219D01*
X78047688Y-73407448D01*
X76962500Y-73407448D01*
X76962500Y-71125000D01*
X76979113Y-71063000D01*
X77024500Y-71017613D01*
X77086500Y-71001000D01*
X93944048Y-71001000D01*
X94000343Y-71014515D01*
G37*
%TD.AperFunction*%
%TD*%
M02*
