%TF.GenerationSoftware,KiCad,Pcbnew,(7.0.0)*%
%TF.CreationDate,2023-08-05T12:50:28+01:00*%
%TF.ProjectId,DataIOTest,44617461-494f-4546-9573-742e6b696361,rev?*%
%TF.SameCoordinates,Original*%
%TF.FileFunction,Drillmap*%
%TF.FilePolarity,Positive*%
%FSLAX45Y45*%
G04 Gerber Fmt 4.5, Leading zero omitted, Abs format (unit mm)*
G04 Created by KiCad (PCBNEW (7.0.0)) date 2023-08-05 12:50:28*
%MOMM*%
%LPD*%
G01*
G04 APERTURE LIST*
%ADD10C,0.100000*%
%ADD11C,0.200000*%
G04 APERTURE END LIST*
D10*
X7696200Y-15671800D02*
X17589500Y-15671800D01*
X7696200Y-7100050D02*
X7696200Y-15671800D01*
X17589500Y-7086600D02*
X17589500Y-15671800D01*
X9461500Y-5676900D02*
X15836900Y-5676900D01*
X17589500Y-7086600D02*
X15836900Y-7086600D01*
X9461500Y-7100050D02*
X7696200Y-7100050D01*
X9461500Y-7100050D02*
X9461500Y-5676900D01*
X15836900Y-5676900D02*
X15836900Y-7086600D01*
D11*
X7938819Y-15970276D02*
X7938819Y-15770276D01*
X7938819Y-15770276D02*
X7986438Y-15770276D01*
X7986438Y-15770276D02*
X8015009Y-15779800D01*
X8015009Y-15779800D02*
X8034057Y-15798848D01*
X8034057Y-15798848D02*
X8043581Y-15817895D01*
X8043581Y-15817895D02*
X8053105Y-15855990D01*
X8053105Y-15855990D02*
X8053105Y-15884562D01*
X8053105Y-15884562D02*
X8043581Y-15922657D01*
X8043581Y-15922657D02*
X8034057Y-15941705D01*
X8034057Y-15941705D02*
X8015009Y-15960752D01*
X8015009Y-15960752D02*
X7986438Y-15970276D01*
X7986438Y-15970276D02*
X7938819Y-15970276D01*
X8138819Y-15970276D02*
X8138819Y-15836943D01*
X8138819Y-15875038D02*
X8148343Y-15855990D01*
X8148343Y-15855990D02*
X8157867Y-15846467D01*
X8157867Y-15846467D02*
X8176914Y-15836943D01*
X8176914Y-15836943D02*
X8195962Y-15836943D01*
X8262628Y-15970276D02*
X8262628Y-15836943D01*
X8262628Y-15770276D02*
X8253105Y-15779800D01*
X8253105Y-15779800D02*
X8262628Y-15789324D01*
X8262628Y-15789324D02*
X8272152Y-15779800D01*
X8272152Y-15779800D02*
X8262628Y-15770276D01*
X8262628Y-15770276D02*
X8262628Y-15789324D01*
X8386438Y-15970276D02*
X8367390Y-15960752D01*
X8367390Y-15960752D02*
X8357867Y-15941705D01*
X8357867Y-15941705D02*
X8357867Y-15770276D01*
X8491200Y-15970276D02*
X8472152Y-15960752D01*
X8472152Y-15960752D02*
X8462629Y-15941705D01*
X8462629Y-15941705D02*
X8462629Y-15770276D01*
X8687390Y-15970276D02*
X8687390Y-15770276D01*
X8687390Y-15770276D02*
X8754057Y-15913133D01*
X8754057Y-15913133D02*
X8820724Y-15770276D01*
X8820724Y-15770276D02*
X8820724Y-15970276D01*
X9001676Y-15970276D02*
X9001676Y-15865514D01*
X9001676Y-15865514D02*
X8992152Y-15846467D01*
X8992152Y-15846467D02*
X8973105Y-15836943D01*
X8973105Y-15836943D02*
X8935009Y-15836943D01*
X8935009Y-15836943D02*
X8915962Y-15846467D01*
X9001676Y-15960752D02*
X8982629Y-15970276D01*
X8982629Y-15970276D02*
X8935009Y-15970276D01*
X8935009Y-15970276D02*
X8915962Y-15960752D01*
X8915962Y-15960752D02*
X8906438Y-15941705D01*
X8906438Y-15941705D02*
X8906438Y-15922657D01*
X8906438Y-15922657D02*
X8915962Y-15903609D01*
X8915962Y-15903609D02*
X8935009Y-15894086D01*
X8935009Y-15894086D02*
X8982629Y-15894086D01*
X8982629Y-15894086D02*
X9001676Y-15884562D01*
X9096914Y-15836943D02*
X9096914Y-16036943D01*
X9096914Y-15846467D02*
X9115962Y-15836943D01*
X9115962Y-15836943D02*
X9154057Y-15836943D01*
X9154057Y-15836943D02*
X9173105Y-15846467D01*
X9173105Y-15846467D02*
X9182629Y-15855990D01*
X9182629Y-15855990D02*
X9192152Y-15875038D01*
X9192152Y-15875038D02*
X9192152Y-15932181D01*
X9192152Y-15932181D02*
X9182629Y-15951228D01*
X9182629Y-15951228D02*
X9173105Y-15960752D01*
X9173105Y-15960752D02*
X9154057Y-15970276D01*
X9154057Y-15970276D02*
X9115962Y-15970276D01*
X9115962Y-15970276D02*
X9096914Y-15960752D01*
X9277867Y-15951228D02*
X9287390Y-15960752D01*
X9287390Y-15960752D02*
X9277867Y-15970276D01*
X9277867Y-15970276D02*
X9268343Y-15960752D01*
X9268343Y-15960752D02*
X9277867Y-15951228D01*
X9277867Y-15951228D02*
X9277867Y-15970276D01*
X9277867Y-15846467D02*
X9287390Y-15855990D01*
X9287390Y-15855990D02*
X9277867Y-15865514D01*
X9277867Y-15865514D02*
X9268343Y-15855990D01*
X9268343Y-15855990D02*
X9277867Y-15846467D01*
X9277867Y-15846467D02*
X9277867Y-15865514D01*
M02*
