%TF.GenerationSoftware,KiCad,Pcbnew,(7.0.0)*%
%TF.CreationDate,2023-08-05T12:50:27+01:00*%
%TF.ProjectId,DataIOTest,44617461-494f-4546-9573-742e6b696361,rev?*%
%TF.SameCoordinates,Original*%
%TF.FileFunction,Drillmap*%
%TF.FilePolarity,Positive*%
%FSLAX45Y45*%
G04 Gerber Fmt 4.5, Leading zero omitted, Abs format (unit mm)*
G04 Created by KiCad (PCBNEW (7.0.0)) date 2023-08-05 12:50:27*
%MOMM*%
%LPD*%
G01*
G04 APERTURE LIST*
%ADD10C,0.100000*%
%ADD11C,0.200000*%
%ADD12C,0.040000*%
%ADD13C,0.050000*%
%ADD14C,0.080000*%
G04 APERTURE END LIST*
D10*
X7696200Y-15671800D02*
X17589500Y-15671800D01*
X7696200Y-7100050D02*
X7696200Y-15671800D01*
X17589500Y-7086600D02*
X17589500Y-15671800D01*
X9461500Y-5676900D02*
X15836900Y-5676900D01*
X17589500Y-7086600D02*
X15836900Y-7086600D01*
X9461500Y-7100050D02*
X7696200Y-7100050D01*
X9461500Y-7100050D02*
X9461500Y-5676900D01*
X15836900Y-5676900D02*
X15836900Y-7086600D01*
D11*
D12*
X9020950Y-13300110D02*
X9060950Y-13340110D01*
X9060950Y-13300110D02*
X9020950Y-13340110D01*
X9735130Y-8812650D02*
X9775130Y-8852650D01*
X9775130Y-8812650D02*
X9735130Y-8852650D01*
X9962200Y-6888800D02*
X10002200Y-6928800D01*
X10002200Y-6888800D02*
X9962200Y-6928800D01*
X10082800Y-6840920D02*
X10122800Y-6880920D01*
X10122800Y-6840920D02*
X10082800Y-6880920D01*
X10165400Y-8946200D02*
X10205400Y-8986200D01*
X10205400Y-8946200D02*
X10165400Y-8986200D01*
X10284650Y-6749100D02*
X10324650Y-6789100D01*
X10324650Y-6749100D02*
X10284650Y-6789100D01*
X10432100Y-6749100D02*
X10472100Y-6789100D01*
X10472100Y-6749100D02*
X10432100Y-6789100D01*
X10514960Y-9374690D02*
X10554960Y-9414690D01*
X10554960Y-9374690D02*
X10514960Y-9414690D01*
X10542920Y-8914290D02*
X10582920Y-8954290D01*
X10582920Y-8914290D02*
X10542920Y-8954290D01*
X10593940Y-9069130D02*
X10633940Y-9109130D01*
X10633940Y-9069130D02*
X10593940Y-9109130D01*
X10683620Y-9440760D02*
X10723620Y-9480760D01*
X10723620Y-9440760D02*
X10683620Y-9480760D01*
X10734690Y-8994310D02*
X10774690Y-9034310D01*
X10774690Y-8994310D02*
X10734690Y-9034310D01*
X11062310Y-8863480D02*
X11102310Y-8903480D01*
X11102310Y-8863480D02*
X11062310Y-8903480D01*
X11086920Y-9261710D02*
X11126920Y-9301710D01*
X11126920Y-9261710D02*
X11086920Y-9301710D01*
X11183110Y-6658590D02*
X11223110Y-6698590D01*
X11223110Y-6658590D02*
X11183110Y-6698590D01*
X11310170Y-10206840D02*
X11350170Y-10246840D01*
X11350170Y-10206840D02*
X11310170Y-10246840D01*
X11360530Y-6585330D02*
X11400530Y-6625330D01*
X11400530Y-6585330D02*
X11360530Y-6625330D01*
X11646740Y-9525600D02*
X11686740Y-9565600D01*
X11686740Y-9525600D02*
X11646740Y-9565600D01*
X11658725Y-10206600D02*
X11698725Y-10246600D01*
X11698725Y-10206600D02*
X11658725Y-10246600D01*
X11671057Y-10306513D02*
X11711057Y-10346513D01*
X11711057Y-10306513D02*
X11671057Y-10346513D01*
X11836130Y-6711000D02*
X11876130Y-6751000D01*
X11876130Y-6711000D02*
X11836130Y-6751000D01*
X12007090Y-10714660D02*
X12047090Y-10754660D01*
X12047090Y-10714660D02*
X12007090Y-10754660D01*
X12041910Y-10026750D02*
X12081910Y-10066750D01*
X12081910Y-10026750D02*
X12041910Y-10066750D01*
X12043890Y-9662890D02*
X12083890Y-9702890D01*
X12083890Y-9662890D02*
X12043890Y-9702890D01*
X12091900Y-10518740D02*
X12131900Y-10558740D01*
X12131900Y-10518740D02*
X12091900Y-10558740D01*
X12134520Y-6540840D02*
X12174520Y-6580840D01*
X12174520Y-6540840D02*
X12134520Y-6580840D01*
X12136230Y-9771120D02*
X12176230Y-9811120D01*
X12176230Y-9771120D02*
X12136230Y-9811120D01*
X12147180Y-10983010D02*
X12187180Y-11023010D01*
X12187180Y-10983010D02*
X12147180Y-11023010D01*
X12191900Y-10457940D02*
X12231900Y-10497940D01*
X12231900Y-10457940D02*
X12191900Y-10497940D01*
X12281300Y-9728630D02*
X12321300Y-9768630D01*
X12321300Y-9728630D02*
X12281300Y-9768630D01*
X12285000Y-8463350D02*
X12325000Y-8503350D01*
X12325000Y-8463350D02*
X12285000Y-8503350D01*
X12287550Y-9035150D02*
X12327550Y-9075150D01*
X12327550Y-9035150D02*
X12287550Y-9075150D01*
X12311070Y-9469960D02*
X12351070Y-9509960D01*
X12351070Y-9469960D02*
X12311070Y-9509960D01*
X12345630Y-10120600D02*
X12385630Y-10160600D01*
X12385630Y-10120600D02*
X12345630Y-10160600D01*
X12414600Y-9467150D02*
X12454600Y-9507150D01*
X12454600Y-9467150D02*
X12414600Y-9507150D01*
X12465560Y-9560630D02*
X12505560Y-9600630D01*
X12505560Y-9560630D02*
X12465560Y-9600630D01*
X12469100Y-9791440D02*
X12509100Y-9831440D01*
X12509100Y-9791440D02*
X12469100Y-9831440D01*
X12539750Y-9633250D02*
X12579750Y-9673250D01*
X12579750Y-9633250D02*
X12539750Y-9673250D01*
X12554410Y-9735270D02*
X12594410Y-9775270D01*
X12594410Y-9735270D02*
X12554410Y-9775270D01*
X12558220Y-6858770D02*
X12598220Y-6898770D01*
X12598220Y-6858770D02*
X12558220Y-6898770D01*
X12628370Y-9135760D02*
X12668370Y-9175760D01*
X12668370Y-9135760D02*
X12628370Y-9175760D01*
X12660430Y-8625470D02*
X12700430Y-8665470D01*
X12700430Y-8625470D02*
X12660430Y-8665470D01*
X12693080Y-8463350D02*
X12733080Y-8503350D01*
X12733080Y-8463350D02*
X12693080Y-8503350D01*
X12750660Y-9677250D02*
X12790660Y-9717250D01*
X12790660Y-9677250D02*
X12750660Y-9717250D01*
X12819530Y-10600620D02*
X12859530Y-10640620D01*
X12859530Y-10600620D02*
X12819530Y-10640620D01*
X12835450Y-10714910D02*
X12875450Y-10754910D01*
X12875450Y-10714910D02*
X12835450Y-10754910D01*
X12920150Y-10584380D02*
X12960150Y-10624380D01*
X12960150Y-10584380D02*
X12920150Y-10624380D01*
X12935450Y-9769980D02*
X12975450Y-9809980D01*
X12975450Y-9769980D02*
X12935450Y-9809980D01*
X12945090Y-9989970D02*
X12985090Y-10029970D01*
X12985090Y-9989970D02*
X12945090Y-10029970D01*
X12950750Y-6581430D02*
X12990750Y-6621430D01*
X12990750Y-6581430D02*
X12950750Y-6621430D01*
X13001110Y-11191270D02*
X13041110Y-11231270D01*
X13041110Y-11191270D02*
X13001110Y-11231270D01*
X13051310Y-8090000D02*
X13091310Y-8130000D01*
X13091310Y-8090000D02*
X13051310Y-8130000D01*
X13121370Y-8513040D02*
X13161370Y-8553040D01*
X13161370Y-8513040D02*
X13121370Y-8553040D01*
X13121380Y-7765400D02*
X13161380Y-7805400D01*
X13161380Y-7765400D02*
X13121380Y-7805400D01*
X13121380Y-8017580D02*
X13161380Y-8057580D01*
X13161380Y-8017580D02*
X13121380Y-8057580D01*
X13130560Y-11196320D02*
X13170560Y-11236320D01*
X13170560Y-11196320D02*
X13130560Y-11236320D01*
X13183070Y-6654890D02*
X13223070Y-6694890D01*
X13223070Y-6654890D02*
X13183070Y-6694890D01*
X13223510Y-9867340D02*
X13263510Y-9907340D01*
X13263510Y-9867340D02*
X13223510Y-9907340D01*
X13374020Y-6656340D02*
X13414020Y-6696340D01*
X13414020Y-6656340D02*
X13374020Y-6696340D01*
X13444020Y-8918040D02*
X13484020Y-8958040D01*
X13484020Y-8918040D02*
X13444020Y-8958040D01*
X13497490Y-10018260D02*
X13537490Y-10058260D01*
X13537490Y-10018260D02*
X13497490Y-10058260D01*
X13523350Y-9803150D02*
X13563350Y-9843150D01*
X13563350Y-9803150D02*
X13523350Y-9843150D01*
X13635330Y-6603640D02*
X13675330Y-6643640D01*
X13675330Y-6603640D02*
X13635330Y-6643640D01*
X13670600Y-14991400D02*
X13710600Y-15031400D01*
X13710600Y-14991400D02*
X13670600Y-15031400D01*
X13738250Y-10723310D02*
X13778250Y-10763310D01*
X13778250Y-10723310D02*
X13738250Y-10763310D01*
X13742230Y-6586540D02*
X13782230Y-6626540D01*
X13782230Y-6586540D02*
X13742230Y-6626540D01*
X13817870Y-9560630D02*
X13857870Y-9600630D01*
X13857870Y-9560630D02*
X13817870Y-9600630D01*
X14038900Y-14966000D02*
X14078900Y-15006000D01*
X14078900Y-14966000D02*
X14038900Y-15006000D01*
X14052250Y-8134980D02*
X14092250Y-8174980D01*
X14092250Y-8134980D02*
X14052250Y-8174980D01*
X14077000Y-14597700D02*
X14117000Y-14637700D01*
X14117000Y-14597700D02*
X14077000Y-14637700D01*
X14504230Y-7003100D02*
X14544230Y-7043100D01*
X14544230Y-7003100D02*
X14504230Y-7043100D01*
X14711230Y-9534550D02*
X14751230Y-9574550D01*
X14751230Y-9534550D02*
X14711230Y-9574550D01*
X14749780Y-9434510D02*
X14789780Y-9474510D01*
X14789780Y-9434510D02*
X14749780Y-9474510D01*
X14762800Y-13992560D02*
X14802800Y-14032560D01*
X14802800Y-13992560D02*
X14762800Y-14032560D01*
X15336040Y-14338730D02*
X15376040Y-14378730D01*
X15376040Y-14338730D02*
X15336040Y-14378730D01*
X15506210Y-14025710D02*
X15546210Y-14065710D01*
X15546210Y-14025710D02*
X15506210Y-14065710D01*
X15517480Y-14188080D02*
X15557480Y-14228080D01*
X15557480Y-14188080D02*
X15517480Y-14228080D01*
X15638000Y-14091920D02*
X15678000Y-14131920D01*
X15678000Y-14091920D02*
X15638000Y-14131920D01*
X15743700Y-15104090D02*
X15783700Y-15144090D01*
X15783700Y-15104090D02*
X15743700Y-15144090D01*
X15989460Y-14518980D02*
X16029460Y-14558980D01*
X16029460Y-14518980D02*
X15989460Y-14558980D01*
X16071380Y-14624310D02*
X16111380Y-14664310D01*
X16111380Y-14624310D02*
X16071380Y-14664310D01*
X16172350Y-14333090D02*
X16212350Y-14373090D01*
X16212350Y-14333090D02*
X16172350Y-14373090D01*
D13*
X17436700Y-14269300D02*
G75*
G03*
X17436700Y-14269300I-25000J0D01*
G01*
D11*
X17376700Y-14294300D02*
X17446700Y-14294300D01*
X17446700Y-14294300D02*
G75*
G03*
X17446700Y-14244300I0J25000D01*
G01*
X17446700Y-14244300D02*
X17376700Y-14244300D01*
X17376700Y-14244300D02*
G75*
G03*
X17376700Y-14294300I0J-25000D01*
G01*
D13*
X17436700Y-14929300D02*
G75*
G03*
X17436700Y-14929300I-25000J0D01*
G01*
D11*
X17446700Y-14904300D02*
X17376700Y-14904300D01*
X17376700Y-14904300D02*
G75*
G03*
X17376700Y-14954300I0J-25000D01*
G01*
X17376700Y-14954300D02*
X17446700Y-14954300D01*
X17446700Y-14954300D02*
G75*
G03*
X17446700Y-14904300I0J25000D01*
G01*
D14*
X8483600Y-14628500D02*
X8483600Y-14708500D01*
X8443600Y-14668500D02*
X8523600Y-14668500D01*
D11*
X8443600Y-14558500D02*
X8443600Y-14778500D01*
X8443600Y-14778500D02*
G75*
G03*
X8523600Y-14778500I40000J0D01*
G01*
X8523600Y-14778500D02*
X8523600Y-14558500D01*
X8523600Y-14558500D02*
G75*
G03*
X8443600Y-14558500I-40000J0D01*
G01*
D14*
X8793600Y-15128500D02*
X8793600Y-15208500D01*
X8753600Y-15168500D02*
X8833600Y-15168500D01*
D11*
X8683600Y-15208500D02*
X8903600Y-15208500D01*
X8903600Y-15208500D02*
G75*
G03*
X8903600Y-15128500I0J40000D01*
G01*
X8903600Y-15128500D02*
X8683600Y-15128500D01*
X8683600Y-15128500D02*
G75*
G03*
X8683600Y-15208500I0J-40000D01*
G01*
D14*
X9103600Y-14628500D02*
X9103600Y-14708500D01*
X9063600Y-14668500D02*
X9143600Y-14668500D01*
D11*
X9063600Y-14538500D02*
X9063600Y-14798500D01*
X9063600Y-14798500D02*
G75*
G03*
X9143600Y-14798500I40000J0D01*
G01*
X9143600Y-14798500D02*
X9143600Y-14538500D01*
X9143600Y-14538500D02*
G75*
G03*
X9063600Y-14538500I-40000J0D01*
G01*
D10*
X7972856Y-7401356D02*
X7972856Y-7330644D01*
X7902144Y-7330644D01*
X7902144Y-7401356D01*
X7972856Y-7401356D01*
X7972856Y-7655356D02*
X7972856Y-7584644D01*
X7902144Y-7584644D01*
X7902144Y-7655356D01*
X7972856Y-7655356D01*
X7972856Y-7909356D02*
X7972856Y-7838644D01*
X7902144Y-7838644D01*
X7902144Y-7909356D01*
X7972856Y-7909356D01*
X7972856Y-8163356D02*
X7972856Y-8092644D01*
X7902144Y-8092644D01*
X7902144Y-8163356D01*
X7972856Y-8163356D01*
X7972856Y-8417356D02*
X7972856Y-8346644D01*
X7902144Y-8346644D01*
X7902144Y-8417356D01*
X7972856Y-8417356D01*
X7972856Y-8671356D02*
X7972856Y-8600644D01*
X7902144Y-8600644D01*
X7902144Y-8671356D01*
X7972856Y-8671356D01*
X7972856Y-8925356D02*
X7972856Y-8854644D01*
X7902144Y-8854644D01*
X7902144Y-8925356D01*
X7972856Y-8925356D01*
X7972856Y-9179356D02*
X7972856Y-9108644D01*
X7902144Y-9108644D01*
X7902144Y-9179356D01*
X7972856Y-9179356D01*
X9560356Y-8798356D02*
X9560356Y-8727644D01*
X9489644Y-8727644D01*
X9489644Y-8798356D01*
X9560356Y-8798356D01*
X9560356Y-9052356D02*
X9560356Y-8981644D01*
X9489644Y-8981644D01*
X9489644Y-9052356D01*
X9560356Y-9052356D01*
X9560356Y-9306356D02*
X9560356Y-9235644D01*
X9489644Y-9235644D01*
X9489644Y-9306356D01*
X9560356Y-9306356D01*
X9560356Y-9560356D02*
X9560356Y-9489644D01*
X9489644Y-9489644D01*
X9489644Y-9560356D01*
X9560356Y-9560356D01*
X9560356Y-9814356D02*
X9560356Y-9743644D01*
X9489644Y-9743644D01*
X9489644Y-9814356D01*
X9560356Y-9814356D01*
X9560356Y-10068356D02*
X9560356Y-9997644D01*
X9489644Y-9997644D01*
X9489644Y-10068356D01*
X9560356Y-10068356D01*
X9560356Y-10322356D02*
X9560356Y-10251644D01*
X9489644Y-10251644D01*
X9489644Y-10322356D01*
X9560356Y-10322356D01*
X9560356Y-10576356D02*
X9560356Y-10505644D01*
X9489644Y-10505644D01*
X9489644Y-10576356D01*
X9560356Y-10576356D01*
X11592356Y-12252756D02*
X11592356Y-12182044D01*
X11521644Y-12182044D01*
X11521644Y-12252756D01*
X11592356Y-12252756D01*
X11846356Y-12252756D02*
X11846356Y-12182044D01*
X11775644Y-12182044D01*
X11775644Y-12252756D01*
X11846356Y-12252756D01*
X12100356Y-12252756D02*
X12100356Y-12182044D01*
X12029644Y-12182044D01*
X12029644Y-12252756D01*
X12100356Y-12252756D01*
X12354356Y-12252756D02*
X12354356Y-12182044D01*
X12283644Y-12182044D01*
X12283644Y-12252756D01*
X12354356Y-12252756D01*
X12608356Y-12252756D02*
X12608356Y-12182044D01*
X12537644Y-12182044D01*
X12537644Y-12252756D01*
X12608356Y-12252756D01*
X12862356Y-12252756D02*
X12862356Y-12182044D01*
X12791644Y-12182044D01*
X12791644Y-12252756D01*
X12862356Y-12252756D01*
X13116356Y-12252756D02*
X13116356Y-12182044D01*
X13045644Y-12182044D01*
X13045644Y-12252756D01*
X13116356Y-12252756D01*
X13370356Y-12252756D02*
X13370356Y-12182044D01*
X13299644Y-12182044D01*
X13299644Y-12252756D01*
X13370356Y-12252756D01*
X14830856Y-14475256D02*
X14830856Y-14404544D01*
X14760144Y-14404544D01*
X14760144Y-14475256D01*
X14830856Y-14475256D01*
X14830856Y-14729256D02*
X14830856Y-14658544D01*
X14760144Y-14658544D01*
X14760144Y-14729256D01*
X14830856Y-14729256D01*
X14830856Y-14983256D02*
X14830856Y-14912544D01*
X14760144Y-14912544D01*
X14760144Y-14983256D01*
X14830856Y-14983256D01*
X15526806Y-9395256D02*
X15526806Y-9324544D01*
X15456094Y-9324544D01*
X15456094Y-9395256D01*
X15526806Y-9395256D01*
X15526806Y-9649256D02*
X15526806Y-9578544D01*
X15456094Y-9578544D01*
X15456094Y-9649256D01*
X15526806Y-9649256D01*
X15526806Y-9903256D02*
X15526806Y-9832544D01*
X15456094Y-9832544D01*
X15456094Y-9903256D01*
X15526806Y-9903256D01*
X15526806Y-10157256D02*
X15526806Y-10086544D01*
X15456094Y-10086544D01*
X15456094Y-10157256D01*
X15526806Y-10157256D01*
X15526806Y-10411256D02*
X15526806Y-10340544D01*
X15456094Y-10340544D01*
X15456094Y-10411256D01*
X15526806Y-10411256D01*
X15526806Y-10665256D02*
X15526806Y-10594544D01*
X15456094Y-10594544D01*
X15456094Y-10665256D01*
X15526806Y-10665256D01*
X15526806Y-10919256D02*
X15526806Y-10848544D01*
X15456094Y-10848544D01*
X15456094Y-10919256D01*
X15526806Y-10919256D01*
X15526806Y-11173256D02*
X15526806Y-11102544D01*
X15456094Y-11102544D01*
X15456094Y-11173256D01*
X15526806Y-11173256D01*
D11*
X7938819Y-15970276D02*
X7938819Y-15770276D01*
X7938819Y-15770276D02*
X7986438Y-15770276D01*
X7986438Y-15770276D02*
X8015009Y-15779800D01*
X8015009Y-15779800D02*
X8034057Y-15798848D01*
X8034057Y-15798848D02*
X8043581Y-15817895D01*
X8043581Y-15817895D02*
X8053105Y-15855990D01*
X8053105Y-15855990D02*
X8053105Y-15884562D01*
X8053105Y-15884562D02*
X8043581Y-15922657D01*
X8043581Y-15922657D02*
X8034057Y-15941705D01*
X8034057Y-15941705D02*
X8015009Y-15960752D01*
X8015009Y-15960752D02*
X7986438Y-15970276D01*
X7986438Y-15970276D02*
X7938819Y-15970276D01*
X8138819Y-15970276D02*
X8138819Y-15836943D01*
X8138819Y-15875038D02*
X8148343Y-15855990D01*
X8148343Y-15855990D02*
X8157867Y-15846467D01*
X8157867Y-15846467D02*
X8176914Y-15836943D01*
X8176914Y-15836943D02*
X8195962Y-15836943D01*
X8262628Y-15970276D02*
X8262628Y-15836943D01*
X8262628Y-15770276D02*
X8253105Y-15779800D01*
X8253105Y-15779800D02*
X8262628Y-15789324D01*
X8262628Y-15789324D02*
X8272152Y-15779800D01*
X8272152Y-15779800D02*
X8262628Y-15770276D01*
X8262628Y-15770276D02*
X8262628Y-15789324D01*
X8386438Y-15970276D02*
X8367390Y-15960752D01*
X8367390Y-15960752D02*
X8357867Y-15941705D01*
X8357867Y-15941705D02*
X8357867Y-15770276D01*
X8491200Y-15970276D02*
X8472152Y-15960752D01*
X8472152Y-15960752D02*
X8462629Y-15941705D01*
X8462629Y-15941705D02*
X8462629Y-15770276D01*
X8687390Y-15970276D02*
X8687390Y-15770276D01*
X8687390Y-15770276D02*
X8754057Y-15913133D01*
X8754057Y-15913133D02*
X8820724Y-15770276D01*
X8820724Y-15770276D02*
X8820724Y-15970276D01*
X9001676Y-15970276D02*
X9001676Y-15865514D01*
X9001676Y-15865514D02*
X8992152Y-15846467D01*
X8992152Y-15846467D02*
X8973105Y-15836943D01*
X8973105Y-15836943D02*
X8935009Y-15836943D01*
X8935009Y-15836943D02*
X8915962Y-15846467D01*
X9001676Y-15960752D02*
X8982629Y-15970276D01*
X8982629Y-15970276D02*
X8935009Y-15970276D01*
X8935009Y-15970276D02*
X8915962Y-15960752D01*
X8915962Y-15960752D02*
X8906438Y-15941705D01*
X8906438Y-15941705D02*
X8906438Y-15922657D01*
X8906438Y-15922657D02*
X8915962Y-15903609D01*
X8915962Y-15903609D02*
X8935009Y-15894086D01*
X8935009Y-15894086D02*
X8982629Y-15894086D01*
X8982629Y-15894086D02*
X9001676Y-15884562D01*
X9096914Y-15836943D02*
X9096914Y-16036943D01*
X9096914Y-15846467D02*
X9115962Y-15836943D01*
X9115962Y-15836943D02*
X9154057Y-15836943D01*
X9154057Y-15836943D02*
X9173105Y-15846467D01*
X9173105Y-15846467D02*
X9182629Y-15855990D01*
X9182629Y-15855990D02*
X9192152Y-15875038D01*
X9192152Y-15875038D02*
X9192152Y-15932181D01*
X9192152Y-15932181D02*
X9182629Y-15951228D01*
X9182629Y-15951228D02*
X9173105Y-15960752D01*
X9173105Y-15960752D02*
X9154057Y-15970276D01*
X9154057Y-15970276D02*
X9115962Y-15970276D01*
X9115962Y-15970276D02*
X9096914Y-15960752D01*
X9277867Y-15951228D02*
X9287390Y-15960752D01*
X9287390Y-15960752D02*
X9277867Y-15970276D01*
X9277867Y-15970276D02*
X9268343Y-15960752D01*
X9268343Y-15960752D02*
X9277867Y-15951228D01*
X9277867Y-15951228D02*
X9277867Y-15970276D01*
X9277867Y-15846467D02*
X9287390Y-15855990D01*
X9287390Y-15855990D02*
X9277867Y-15865514D01*
X9277867Y-15865514D02*
X9268343Y-15855990D01*
X9268343Y-15855990D02*
X9277867Y-15846467D01*
X9277867Y-15846467D02*
X9277867Y-15865514D01*
D12*
X7651200Y-16296800D02*
X7691200Y-16336800D01*
X7691200Y-16296800D02*
X7651200Y-16336800D01*
D11*
X7976914Y-16190276D02*
X7995962Y-16190276D01*
X7995962Y-16190276D02*
X8015009Y-16199800D01*
X8015009Y-16199800D02*
X8024533Y-16209324D01*
X8024533Y-16209324D02*
X8034057Y-16228371D01*
X8034057Y-16228371D02*
X8043581Y-16266467D01*
X8043581Y-16266467D02*
X8043581Y-16314086D01*
X8043581Y-16314086D02*
X8034057Y-16352181D01*
X8034057Y-16352181D02*
X8024533Y-16371228D01*
X8024533Y-16371228D02*
X8015009Y-16380752D01*
X8015009Y-16380752D02*
X7995962Y-16390276D01*
X7995962Y-16390276D02*
X7976914Y-16390276D01*
X7976914Y-16390276D02*
X7957867Y-16380752D01*
X7957867Y-16380752D02*
X7948343Y-16371228D01*
X7948343Y-16371228D02*
X7938819Y-16352181D01*
X7938819Y-16352181D02*
X7929295Y-16314086D01*
X7929295Y-16314086D02*
X7929295Y-16266467D01*
X7929295Y-16266467D02*
X7938819Y-16228371D01*
X7938819Y-16228371D02*
X7948343Y-16209324D01*
X7948343Y-16209324D02*
X7957867Y-16199800D01*
X7957867Y-16199800D02*
X7976914Y-16190276D01*
X8129295Y-16371228D02*
X8138819Y-16380752D01*
X8138819Y-16380752D02*
X8129295Y-16390276D01*
X8129295Y-16390276D02*
X8119771Y-16380752D01*
X8119771Y-16380752D02*
X8129295Y-16371228D01*
X8129295Y-16371228D02*
X8129295Y-16390276D01*
X8310248Y-16256943D02*
X8310248Y-16390276D01*
X8262628Y-16180752D02*
X8215009Y-16323609D01*
X8215009Y-16323609D02*
X8338819Y-16323609D01*
X8453105Y-16190276D02*
X8472152Y-16190276D01*
X8472152Y-16190276D02*
X8491200Y-16199800D01*
X8491200Y-16199800D02*
X8500724Y-16209324D01*
X8500724Y-16209324D02*
X8510248Y-16228371D01*
X8510248Y-16228371D02*
X8519771Y-16266467D01*
X8519771Y-16266467D02*
X8519771Y-16314086D01*
X8519771Y-16314086D02*
X8510248Y-16352181D01*
X8510248Y-16352181D02*
X8500724Y-16371228D01*
X8500724Y-16371228D02*
X8491200Y-16380752D01*
X8491200Y-16380752D02*
X8472152Y-16390276D01*
X8472152Y-16390276D02*
X8453105Y-16390276D01*
X8453105Y-16390276D02*
X8434057Y-16380752D01*
X8434057Y-16380752D02*
X8424533Y-16371228D01*
X8424533Y-16371228D02*
X8415010Y-16352181D01*
X8415010Y-16352181D02*
X8405486Y-16314086D01*
X8405486Y-16314086D02*
X8405486Y-16266467D01*
X8405486Y-16266467D02*
X8415010Y-16228371D01*
X8415010Y-16228371D02*
X8424533Y-16209324D01*
X8424533Y-16209324D02*
X8434057Y-16199800D01*
X8434057Y-16199800D02*
X8453105Y-16190276D01*
X8643581Y-16190276D02*
X8662629Y-16190276D01*
X8662629Y-16190276D02*
X8681676Y-16199800D01*
X8681676Y-16199800D02*
X8691200Y-16209324D01*
X8691200Y-16209324D02*
X8700724Y-16228371D01*
X8700724Y-16228371D02*
X8710248Y-16266467D01*
X8710248Y-16266467D02*
X8710248Y-16314086D01*
X8710248Y-16314086D02*
X8700724Y-16352181D01*
X8700724Y-16352181D02*
X8691200Y-16371228D01*
X8691200Y-16371228D02*
X8681676Y-16380752D01*
X8681676Y-16380752D02*
X8662629Y-16390276D01*
X8662629Y-16390276D02*
X8643581Y-16390276D01*
X8643581Y-16390276D02*
X8624533Y-16380752D01*
X8624533Y-16380752D02*
X8615010Y-16371228D01*
X8615010Y-16371228D02*
X8605486Y-16352181D01*
X8605486Y-16352181D02*
X8595962Y-16314086D01*
X8595962Y-16314086D02*
X8595962Y-16266467D01*
X8595962Y-16266467D02*
X8605486Y-16228371D01*
X8605486Y-16228371D02*
X8615010Y-16209324D01*
X8615010Y-16209324D02*
X8624533Y-16199800D01*
X8624533Y-16199800D02*
X8643581Y-16190276D01*
X8795962Y-16390276D02*
X8795962Y-16256943D01*
X8795962Y-16275990D02*
X8805486Y-16266467D01*
X8805486Y-16266467D02*
X8824533Y-16256943D01*
X8824533Y-16256943D02*
X8853105Y-16256943D01*
X8853105Y-16256943D02*
X8872152Y-16266467D01*
X8872152Y-16266467D02*
X8881676Y-16285514D01*
X8881676Y-16285514D02*
X8881676Y-16390276D01*
X8881676Y-16285514D02*
X8891200Y-16266467D01*
X8891200Y-16266467D02*
X8910248Y-16256943D01*
X8910248Y-16256943D02*
X8938819Y-16256943D01*
X8938819Y-16256943D02*
X8957867Y-16266467D01*
X8957867Y-16266467D02*
X8967391Y-16285514D01*
X8967391Y-16285514D02*
X8967391Y-16390276D01*
X9062629Y-16390276D02*
X9062629Y-16256943D01*
X9062629Y-16275990D02*
X9072152Y-16266467D01*
X9072152Y-16266467D02*
X9091200Y-16256943D01*
X9091200Y-16256943D02*
X9119772Y-16256943D01*
X9119772Y-16256943D02*
X9138819Y-16266467D01*
X9138819Y-16266467D02*
X9148343Y-16285514D01*
X9148343Y-16285514D02*
X9148343Y-16390276D01*
X9148343Y-16285514D02*
X9157867Y-16266467D01*
X9157867Y-16266467D02*
X9176914Y-16256943D01*
X9176914Y-16256943D02*
X9205486Y-16256943D01*
X9205486Y-16256943D02*
X9224533Y-16266467D01*
X9224533Y-16266467D02*
X9234057Y-16285514D01*
X9234057Y-16285514D02*
X9234057Y-16390276D01*
X9592152Y-16180752D02*
X9420724Y-16437895D01*
X9816914Y-16190276D02*
X9835962Y-16190276D01*
X9835962Y-16190276D02*
X9855010Y-16199800D01*
X9855010Y-16199800D02*
X9864533Y-16209324D01*
X9864533Y-16209324D02*
X9874057Y-16228371D01*
X9874057Y-16228371D02*
X9883581Y-16266467D01*
X9883581Y-16266467D02*
X9883581Y-16314086D01*
X9883581Y-16314086D02*
X9874057Y-16352181D01*
X9874057Y-16352181D02*
X9864533Y-16371228D01*
X9864533Y-16371228D02*
X9855010Y-16380752D01*
X9855010Y-16380752D02*
X9835962Y-16390276D01*
X9835962Y-16390276D02*
X9816914Y-16390276D01*
X9816914Y-16390276D02*
X9797867Y-16380752D01*
X9797867Y-16380752D02*
X9788343Y-16371228D01*
X9788343Y-16371228D02*
X9778819Y-16352181D01*
X9778819Y-16352181D02*
X9769295Y-16314086D01*
X9769295Y-16314086D02*
X9769295Y-16266467D01*
X9769295Y-16266467D02*
X9778819Y-16228371D01*
X9778819Y-16228371D02*
X9788343Y-16209324D01*
X9788343Y-16209324D02*
X9797867Y-16199800D01*
X9797867Y-16199800D02*
X9816914Y-16190276D01*
X9969295Y-16371228D02*
X9978819Y-16380752D01*
X9978819Y-16380752D02*
X9969295Y-16390276D01*
X9969295Y-16390276D02*
X9959772Y-16380752D01*
X9959772Y-16380752D02*
X9969295Y-16371228D01*
X9969295Y-16371228D02*
X9969295Y-16390276D01*
X10102629Y-16190276D02*
X10121676Y-16190276D01*
X10121676Y-16190276D02*
X10140724Y-16199800D01*
X10140724Y-16199800D02*
X10150248Y-16209324D01*
X10150248Y-16209324D02*
X10159772Y-16228371D01*
X10159772Y-16228371D02*
X10169295Y-16266467D01*
X10169295Y-16266467D02*
X10169295Y-16314086D01*
X10169295Y-16314086D02*
X10159772Y-16352181D01*
X10159772Y-16352181D02*
X10150248Y-16371228D01*
X10150248Y-16371228D02*
X10140724Y-16380752D01*
X10140724Y-16380752D02*
X10121676Y-16390276D01*
X10121676Y-16390276D02*
X10102629Y-16390276D01*
X10102629Y-16390276D02*
X10083581Y-16380752D01*
X10083581Y-16380752D02*
X10074057Y-16371228D01*
X10074057Y-16371228D02*
X10064533Y-16352181D01*
X10064533Y-16352181D02*
X10055010Y-16314086D01*
X10055010Y-16314086D02*
X10055010Y-16266467D01*
X10055010Y-16266467D02*
X10064533Y-16228371D01*
X10064533Y-16228371D02*
X10074057Y-16209324D01*
X10074057Y-16209324D02*
X10083581Y-16199800D01*
X10083581Y-16199800D02*
X10102629Y-16190276D01*
X10359772Y-16390276D02*
X10245486Y-16390276D01*
X10302629Y-16390276D02*
X10302629Y-16190276D01*
X10302629Y-16190276D02*
X10283581Y-16218848D01*
X10283581Y-16218848D02*
X10264533Y-16237895D01*
X10264533Y-16237895D02*
X10245486Y-16247419D01*
X10540724Y-16190276D02*
X10445486Y-16190276D01*
X10445486Y-16190276D02*
X10435962Y-16285514D01*
X10435962Y-16285514D02*
X10445486Y-16275990D01*
X10445486Y-16275990D02*
X10464533Y-16266467D01*
X10464533Y-16266467D02*
X10512153Y-16266467D01*
X10512153Y-16266467D02*
X10531200Y-16275990D01*
X10531200Y-16275990D02*
X10540724Y-16285514D01*
X10540724Y-16285514D02*
X10550248Y-16304562D01*
X10550248Y-16304562D02*
X10550248Y-16352181D01*
X10550248Y-16352181D02*
X10540724Y-16371228D01*
X10540724Y-16371228D02*
X10531200Y-16380752D01*
X10531200Y-16380752D02*
X10512153Y-16390276D01*
X10512153Y-16390276D02*
X10464533Y-16390276D01*
X10464533Y-16390276D02*
X10445486Y-16380752D01*
X10445486Y-16380752D02*
X10435962Y-16371228D01*
X10616914Y-16190276D02*
X10750248Y-16190276D01*
X10750248Y-16190276D02*
X10664533Y-16390276D01*
X10816914Y-16190276D02*
X10816914Y-16228371D01*
X10893105Y-16190276D02*
X10893105Y-16228371D01*
X11155962Y-16466467D02*
X11146438Y-16456943D01*
X11146438Y-16456943D02*
X11127391Y-16428371D01*
X11127391Y-16428371D02*
X11117867Y-16409324D01*
X11117867Y-16409324D02*
X11108343Y-16380752D01*
X11108343Y-16380752D02*
X11098819Y-16333133D01*
X11098819Y-16333133D02*
X11098819Y-16295038D01*
X11098819Y-16295038D02*
X11108343Y-16247419D01*
X11108343Y-16247419D02*
X11117867Y-16218848D01*
X11117867Y-16218848D02*
X11127391Y-16199800D01*
X11127391Y-16199800D02*
X11146438Y-16171228D01*
X11146438Y-16171228D02*
X11155962Y-16161705D01*
X11260724Y-16275990D02*
X11241676Y-16266467D01*
X11241676Y-16266467D02*
X11232152Y-16256943D01*
X11232152Y-16256943D02*
X11222629Y-16237895D01*
X11222629Y-16237895D02*
X11222629Y-16228371D01*
X11222629Y-16228371D02*
X11232152Y-16209324D01*
X11232152Y-16209324D02*
X11241676Y-16199800D01*
X11241676Y-16199800D02*
X11260724Y-16190276D01*
X11260724Y-16190276D02*
X11298819Y-16190276D01*
X11298819Y-16190276D02*
X11317867Y-16199800D01*
X11317867Y-16199800D02*
X11327391Y-16209324D01*
X11327391Y-16209324D02*
X11336914Y-16228371D01*
X11336914Y-16228371D02*
X11336914Y-16237895D01*
X11336914Y-16237895D02*
X11327391Y-16256943D01*
X11327391Y-16256943D02*
X11317867Y-16266467D01*
X11317867Y-16266467D02*
X11298819Y-16275990D01*
X11298819Y-16275990D02*
X11260724Y-16275990D01*
X11260724Y-16275990D02*
X11241676Y-16285514D01*
X11241676Y-16285514D02*
X11232152Y-16295038D01*
X11232152Y-16295038D02*
X11222629Y-16314086D01*
X11222629Y-16314086D02*
X11222629Y-16352181D01*
X11222629Y-16352181D02*
X11232152Y-16371228D01*
X11232152Y-16371228D02*
X11241676Y-16380752D01*
X11241676Y-16380752D02*
X11260724Y-16390276D01*
X11260724Y-16390276D02*
X11298819Y-16390276D01*
X11298819Y-16390276D02*
X11317867Y-16380752D01*
X11317867Y-16380752D02*
X11327391Y-16371228D01*
X11327391Y-16371228D02*
X11336914Y-16352181D01*
X11336914Y-16352181D02*
X11336914Y-16314086D01*
X11336914Y-16314086D02*
X11327391Y-16295038D01*
X11327391Y-16295038D02*
X11317867Y-16285514D01*
X11317867Y-16285514D02*
X11298819Y-16275990D01*
X11413105Y-16209324D02*
X11422629Y-16199800D01*
X11422629Y-16199800D02*
X11441676Y-16190276D01*
X11441676Y-16190276D02*
X11489295Y-16190276D01*
X11489295Y-16190276D02*
X11508343Y-16199800D01*
X11508343Y-16199800D02*
X11517867Y-16209324D01*
X11517867Y-16209324D02*
X11527391Y-16228371D01*
X11527391Y-16228371D02*
X11527391Y-16247419D01*
X11527391Y-16247419D02*
X11517867Y-16275990D01*
X11517867Y-16275990D02*
X11403581Y-16390276D01*
X11403581Y-16390276D02*
X11527391Y-16390276D01*
X11733105Y-16390276D02*
X11733105Y-16190276D01*
X11818819Y-16390276D02*
X11818819Y-16285514D01*
X11818819Y-16285514D02*
X11809295Y-16266467D01*
X11809295Y-16266467D02*
X11790248Y-16256943D01*
X11790248Y-16256943D02*
X11761676Y-16256943D01*
X11761676Y-16256943D02*
X11742629Y-16266467D01*
X11742629Y-16266467D02*
X11733105Y-16275990D01*
X11942629Y-16390276D02*
X11923581Y-16380752D01*
X11923581Y-16380752D02*
X11914057Y-16371228D01*
X11914057Y-16371228D02*
X11904533Y-16352181D01*
X11904533Y-16352181D02*
X11904533Y-16295038D01*
X11904533Y-16295038D02*
X11914057Y-16275990D01*
X11914057Y-16275990D02*
X11923581Y-16266467D01*
X11923581Y-16266467D02*
X11942629Y-16256943D01*
X11942629Y-16256943D02*
X11971200Y-16256943D01*
X11971200Y-16256943D02*
X11990248Y-16266467D01*
X11990248Y-16266467D02*
X11999772Y-16275990D01*
X11999772Y-16275990D02*
X12009295Y-16295038D01*
X12009295Y-16295038D02*
X12009295Y-16352181D01*
X12009295Y-16352181D02*
X11999772Y-16371228D01*
X11999772Y-16371228D02*
X11990248Y-16380752D01*
X11990248Y-16380752D02*
X11971200Y-16390276D01*
X11971200Y-16390276D02*
X11942629Y-16390276D01*
X12123581Y-16390276D02*
X12104533Y-16380752D01*
X12104533Y-16380752D02*
X12095010Y-16361705D01*
X12095010Y-16361705D02*
X12095010Y-16190276D01*
X12275962Y-16380752D02*
X12256914Y-16390276D01*
X12256914Y-16390276D02*
X12218819Y-16390276D01*
X12218819Y-16390276D02*
X12199772Y-16380752D01*
X12199772Y-16380752D02*
X12190248Y-16361705D01*
X12190248Y-16361705D02*
X12190248Y-16285514D01*
X12190248Y-16285514D02*
X12199772Y-16266467D01*
X12199772Y-16266467D02*
X12218819Y-16256943D01*
X12218819Y-16256943D02*
X12256914Y-16256943D01*
X12256914Y-16256943D02*
X12275962Y-16266467D01*
X12275962Y-16266467D02*
X12285486Y-16285514D01*
X12285486Y-16285514D02*
X12285486Y-16304562D01*
X12285486Y-16304562D02*
X12190248Y-16323609D01*
X12361676Y-16380752D02*
X12380724Y-16390276D01*
X12380724Y-16390276D02*
X12418819Y-16390276D01*
X12418819Y-16390276D02*
X12437867Y-16380752D01*
X12437867Y-16380752D02*
X12447391Y-16361705D01*
X12447391Y-16361705D02*
X12447391Y-16352181D01*
X12447391Y-16352181D02*
X12437867Y-16333133D01*
X12437867Y-16333133D02*
X12418819Y-16323609D01*
X12418819Y-16323609D02*
X12390248Y-16323609D01*
X12390248Y-16323609D02*
X12371200Y-16314086D01*
X12371200Y-16314086D02*
X12361676Y-16295038D01*
X12361676Y-16295038D02*
X12361676Y-16285514D01*
X12361676Y-16285514D02*
X12371200Y-16266467D01*
X12371200Y-16266467D02*
X12390248Y-16256943D01*
X12390248Y-16256943D02*
X12418819Y-16256943D01*
X12418819Y-16256943D02*
X12437867Y-16266467D01*
X12514057Y-16466467D02*
X12523581Y-16456943D01*
X12523581Y-16456943D02*
X12542629Y-16428371D01*
X12542629Y-16428371D02*
X12552153Y-16409324D01*
X12552153Y-16409324D02*
X12561676Y-16380752D01*
X12561676Y-16380752D02*
X12571200Y-16333133D01*
X12571200Y-16333133D02*
X12571200Y-16295038D01*
X12571200Y-16295038D02*
X12561676Y-16247419D01*
X12561676Y-16247419D02*
X12552153Y-16218848D01*
X12552153Y-16218848D02*
X12542629Y-16199800D01*
X12542629Y-16199800D02*
X12523581Y-16171228D01*
X12523581Y-16171228D02*
X12514057Y-16161705D01*
D13*
X7691200Y-16580800D02*
G75*
G03*
X7691200Y-16580800I-25000J0D01*
G01*
D11*
X7976914Y-16454276D02*
X7995962Y-16454276D01*
X7995962Y-16454276D02*
X8015009Y-16463800D01*
X8015009Y-16463800D02*
X8024533Y-16473324D01*
X8024533Y-16473324D02*
X8034057Y-16492371D01*
X8034057Y-16492371D02*
X8043581Y-16530467D01*
X8043581Y-16530467D02*
X8043581Y-16578086D01*
X8043581Y-16578086D02*
X8034057Y-16616181D01*
X8034057Y-16616181D02*
X8024533Y-16635228D01*
X8024533Y-16635228D02*
X8015009Y-16644752D01*
X8015009Y-16644752D02*
X7995962Y-16654276D01*
X7995962Y-16654276D02*
X7976914Y-16654276D01*
X7976914Y-16654276D02*
X7957867Y-16644752D01*
X7957867Y-16644752D02*
X7948343Y-16635228D01*
X7948343Y-16635228D02*
X7938819Y-16616181D01*
X7938819Y-16616181D02*
X7929295Y-16578086D01*
X7929295Y-16578086D02*
X7929295Y-16530467D01*
X7929295Y-16530467D02*
X7938819Y-16492371D01*
X7938819Y-16492371D02*
X7948343Y-16473324D01*
X7948343Y-16473324D02*
X7957867Y-16463800D01*
X7957867Y-16463800D02*
X7976914Y-16454276D01*
X8129295Y-16635228D02*
X8138819Y-16644752D01*
X8138819Y-16644752D02*
X8129295Y-16654276D01*
X8129295Y-16654276D02*
X8119771Y-16644752D01*
X8119771Y-16644752D02*
X8129295Y-16635228D01*
X8129295Y-16635228D02*
X8129295Y-16654276D01*
X8319771Y-16454276D02*
X8224533Y-16454276D01*
X8224533Y-16454276D02*
X8215009Y-16549514D01*
X8215009Y-16549514D02*
X8224533Y-16539990D01*
X8224533Y-16539990D02*
X8243581Y-16530467D01*
X8243581Y-16530467D02*
X8291200Y-16530467D01*
X8291200Y-16530467D02*
X8310248Y-16539990D01*
X8310248Y-16539990D02*
X8319771Y-16549514D01*
X8319771Y-16549514D02*
X8329295Y-16568562D01*
X8329295Y-16568562D02*
X8329295Y-16616181D01*
X8329295Y-16616181D02*
X8319771Y-16635228D01*
X8319771Y-16635228D02*
X8310248Y-16644752D01*
X8310248Y-16644752D02*
X8291200Y-16654276D01*
X8291200Y-16654276D02*
X8243581Y-16654276D01*
X8243581Y-16654276D02*
X8224533Y-16644752D01*
X8224533Y-16644752D02*
X8215009Y-16635228D01*
X8453105Y-16454276D02*
X8472152Y-16454276D01*
X8472152Y-16454276D02*
X8491200Y-16463800D01*
X8491200Y-16463800D02*
X8500724Y-16473324D01*
X8500724Y-16473324D02*
X8510248Y-16492371D01*
X8510248Y-16492371D02*
X8519771Y-16530467D01*
X8519771Y-16530467D02*
X8519771Y-16578086D01*
X8519771Y-16578086D02*
X8510248Y-16616181D01*
X8510248Y-16616181D02*
X8500724Y-16635228D01*
X8500724Y-16635228D02*
X8491200Y-16644752D01*
X8491200Y-16644752D02*
X8472152Y-16654276D01*
X8472152Y-16654276D02*
X8453105Y-16654276D01*
X8453105Y-16654276D02*
X8434057Y-16644752D01*
X8434057Y-16644752D02*
X8424533Y-16635228D01*
X8424533Y-16635228D02*
X8415010Y-16616181D01*
X8415010Y-16616181D02*
X8405486Y-16578086D01*
X8405486Y-16578086D02*
X8405486Y-16530467D01*
X8405486Y-16530467D02*
X8415010Y-16492371D01*
X8415010Y-16492371D02*
X8424533Y-16473324D01*
X8424533Y-16473324D02*
X8434057Y-16463800D01*
X8434057Y-16463800D02*
X8453105Y-16454276D01*
X8643581Y-16454276D02*
X8662629Y-16454276D01*
X8662629Y-16454276D02*
X8681676Y-16463800D01*
X8681676Y-16463800D02*
X8691200Y-16473324D01*
X8691200Y-16473324D02*
X8700724Y-16492371D01*
X8700724Y-16492371D02*
X8710248Y-16530467D01*
X8710248Y-16530467D02*
X8710248Y-16578086D01*
X8710248Y-16578086D02*
X8700724Y-16616181D01*
X8700724Y-16616181D02*
X8691200Y-16635228D01*
X8691200Y-16635228D02*
X8681676Y-16644752D01*
X8681676Y-16644752D02*
X8662629Y-16654276D01*
X8662629Y-16654276D02*
X8643581Y-16654276D01*
X8643581Y-16654276D02*
X8624533Y-16644752D01*
X8624533Y-16644752D02*
X8615010Y-16635228D01*
X8615010Y-16635228D02*
X8605486Y-16616181D01*
X8605486Y-16616181D02*
X8595962Y-16578086D01*
X8595962Y-16578086D02*
X8595962Y-16530467D01*
X8595962Y-16530467D02*
X8605486Y-16492371D01*
X8605486Y-16492371D02*
X8615010Y-16473324D01*
X8615010Y-16473324D02*
X8624533Y-16463800D01*
X8624533Y-16463800D02*
X8643581Y-16454276D01*
X8795962Y-16654276D02*
X8795962Y-16520943D01*
X8795962Y-16539990D02*
X8805486Y-16530467D01*
X8805486Y-16530467D02*
X8824533Y-16520943D01*
X8824533Y-16520943D02*
X8853105Y-16520943D01*
X8853105Y-16520943D02*
X8872152Y-16530467D01*
X8872152Y-16530467D02*
X8881676Y-16549514D01*
X8881676Y-16549514D02*
X8881676Y-16654276D01*
X8881676Y-16549514D02*
X8891200Y-16530467D01*
X8891200Y-16530467D02*
X8910248Y-16520943D01*
X8910248Y-16520943D02*
X8938819Y-16520943D01*
X8938819Y-16520943D02*
X8957867Y-16530467D01*
X8957867Y-16530467D02*
X8967391Y-16549514D01*
X8967391Y-16549514D02*
X8967391Y-16654276D01*
X9062629Y-16654276D02*
X9062629Y-16520943D01*
X9062629Y-16539990D02*
X9072152Y-16530467D01*
X9072152Y-16530467D02*
X9091200Y-16520943D01*
X9091200Y-16520943D02*
X9119772Y-16520943D01*
X9119772Y-16520943D02*
X9138819Y-16530467D01*
X9138819Y-16530467D02*
X9148343Y-16549514D01*
X9148343Y-16549514D02*
X9148343Y-16654276D01*
X9148343Y-16549514D02*
X9157867Y-16530467D01*
X9157867Y-16530467D02*
X9176914Y-16520943D01*
X9176914Y-16520943D02*
X9205486Y-16520943D01*
X9205486Y-16520943D02*
X9224533Y-16530467D01*
X9224533Y-16530467D02*
X9234057Y-16549514D01*
X9234057Y-16549514D02*
X9234057Y-16654276D01*
X9592152Y-16444752D02*
X9420724Y-16701895D01*
X9816914Y-16454276D02*
X9835962Y-16454276D01*
X9835962Y-16454276D02*
X9855010Y-16463800D01*
X9855010Y-16463800D02*
X9864533Y-16473324D01*
X9864533Y-16473324D02*
X9874057Y-16492371D01*
X9874057Y-16492371D02*
X9883581Y-16530467D01*
X9883581Y-16530467D02*
X9883581Y-16578086D01*
X9883581Y-16578086D02*
X9874057Y-16616181D01*
X9874057Y-16616181D02*
X9864533Y-16635228D01*
X9864533Y-16635228D02*
X9855010Y-16644752D01*
X9855010Y-16644752D02*
X9835962Y-16654276D01*
X9835962Y-16654276D02*
X9816914Y-16654276D01*
X9816914Y-16654276D02*
X9797867Y-16644752D01*
X9797867Y-16644752D02*
X9788343Y-16635228D01*
X9788343Y-16635228D02*
X9778819Y-16616181D01*
X9778819Y-16616181D02*
X9769295Y-16578086D01*
X9769295Y-16578086D02*
X9769295Y-16530467D01*
X9769295Y-16530467D02*
X9778819Y-16492371D01*
X9778819Y-16492371D02*
X9788343Y-16473324D01*
X9788343Y-16473324D02*
X9797867Y-16463800D01*
X9797867Y-16463800D02*
X9816914Y-16454276D01*
X9969295Y-16635228D02*
X9978819Y-16644752D01*
X9978819Y-16644752D02*
X9969295Y-16654276D01*
X9969295Y-16654276D02*
X9959772Y-16644752D01*
X9959772Y-16644752D02*
X9969295Y-16635228D01*
X9969295Y-16635228D02*
X9969295Y-16654276D01*
X10102629Y-16454276D02*
X10121676Y-16454276D01*
X10121676Y-16454276D02*
X10140724Y-16463800D01*
X10140724Y-16463800D02*
X10150248Y-16473324D01*
X10150248Y-16473324D02*
X10159772Y-16492371D01*
X10159772Y-16492371D02*
X10169295Y-16530467D01*
X10169295Y-16530467D02*
X10169295Y-16578086D01*
X10169295Y-16578086D02*
X10159772Y-16616181D01*
X10159772Y-16616181D02*
X10150248Y-16635228D01*
X10150248Y-16635228D02*
X10140724Y-16644752D01*
X10140724Y-16644752D02*
X10121676Y-16654276D01*
X10121676Y-16654276D02*
X10102629Y-16654276D01*
X10102629Y-16654276D02*
X10083581Y-16644752D01*
X10083581Y-16644752D02*
X10074057Y-16635228D01*
X10074057Y-16635228D02*
X10064533Y-16616181D01*
X10064533Y-16616181D02*
X10055010Y-16578086D01*
X10055010Y-16578086D02*
X10055010Y-16530467D01*
X10055010Y-16530467D02*
X10064533Y-16492371D01*
X10064533Y-16492371D02*
X10074057Y-16473324D01*
X10074057Y-16473324D02*
X10083581Y-16463800D01*
X10083581Y-16463800D02*
X10102629Y-16454276D01*
X10359772Y-16654276D02*
X10245486Y-16654276D01*
X10302629Y-16654276D02*
X10302629Y-16454276D01*
X10302629Y-16454276D02*
X10283581Y-16482848D01*
X10283581Y-16482848D02*
X10264533Y-16501895D01*
X10264533Y-16501895D02*
X10245486Y-16511419D01*
X10455010Y-16654276D02*
X10493105Y-16654276D01*
X10493105Y-16654276D02*
X10512153Y-16644752D01*
X10512153Y-16644752D02*
X10521676Y-16635228D01*
X10521676Y-16635228D02*
X10540724Y-16606657D01*
X10540724Y-16606657D02*
X10550248Y-16568562D01*
X10550248Y-16568562D02*
X10550248Y-16492371D01*
X10550248Y-16492371D02*
X10540724Y-16473324D01*
X10540724Y-16473324D02*
X10531200Y-16463800D01*
X10531200Y-16463800D02*
X10512153Y-16454276D01*
X10512153Y-16454276D02*
X10474057Y-16454276D01*
X10474057Y-16454276D02*
X10455010Y-16463800D01*
X10455010Y-16463800D02*
X10445486Y-16473324D01*
X10445486Y-16473324D02*
X10435962Y-16492371D01*
X10435962Y-16492371D02*
X10435962Y-16539990D01*
X10435962Y-16539990D02*
X10445486Y-16559038D01*
X10445486Y-16559038D02*
X10455010Y-16568562D01*
X10455010Y-16568562D02*
X10474057Y-16578086D01*
X10474057Y-16578086D02*
X10512153Y-16578086D01*
X10512153Y-16578086D02*
X10531200Y-16568562D01*
X10531200Y-16568562D02*
X10540724Y-16559038D01*
X10540724Y-16559038D02*
X10550248Y-16539990D01*
X10616914Y-16454276D02*
X10750248Y-16454276D01*
X10750248Y-16454276D02*
X10664533Y-16654276D01*
X10816914Y-16454276D02*
X10816914Y-16492371D01*
X10893105Y-16454276D02*
X10893105Y-16492371D01*
X11155962Y-16730467D02*
X11146438Y-16720943D01*
X11146438Y-16720943D02*
X11127391Y-16692371D01*
X11127391Y-16692371D02*
X11117867Y-16673324D01*
X11117867Y-16673324D02*
X11108343Y-16644752D01*
X11108343Y-16644752D02*
X11098819Y-16597133D01*
X11098819Y-16597133D02*
X11098819Y-16559038D01*
X11098819Y-16559038D02*
X11108343Y-16511419D01*
X11108343Y-16511419D02*
X11117867Y-16482848D01*
X11117867Y-16482848D02*
X11127391Y-16463800D01*
X11127391Y-16463800D02*
X11146438Y-16435228D01*
X11146438Y-16435228D02*
X11155962Y-16425705D01*
X11270248Y-16454276D02*
X11289295Y-16454276D01*
X11289295Y-16454276D02*
X11308343Y-16463800D01*
X11308343Y-16463800D02*
X11317867Y-16473324D01*
X11317867Y-16473324D02*
X11327391Y-16492371D01*
X11327391Y-16492371D02*
X11336914Y-16530467D01*
X11336914Y-16530467D02*
X11336914Y-16578086D01*
X11336914Y-16578086D02*
X11327391Y-16616181D01*
X11327391Y-16616181D02*
X11317867Y-16635228D01*
X11317867Y-16635228D02*
X11308343Y-16644752D01*
X11308343Y-16644752D02*
X11289295Y-16654276D01*
X11289295Y-16654276D02*
X11270248Y-16654276D01*
X11270248Y-16654276D02*
X11251200Y-16644752D01*
X11251200Y-16644752D02*
X11241676Y-16635228D01*
X11241676Y-16635228D02*
X11232152Y-16616181D01*
X11232152Y-16616181D02*
X11222629Y-16578086D01*
X11222629Y-16578086D02*
X11222629Y-16530467D01*
X11222629Y-16530467D02*
X11232152Y-16492371D01*
X11232152Y-16492371D02*
X11241676Y-16473324D01*
X11241676Y-16473324D02*
X11251200Y-16463800D01*
X11251200Y-16463800D02*
X11270248Y-16454276D01*
X11542629Y-16654276D02*
X11542629Y-16454276D01*
X11628343Y-16654276D02*
X11628343Y-16549514D01*
X11628343Y-16549514D02*
X11618819Y-16530467D01*
X11618819Y-16530467D02*
X11599772Y-16520943D01*
X11599772Y-16520943D02*
X11571200Y-16520943D01*
X11571200Y-16520943D02*
X11552152Y-16530467D01*
X11552152Y-16530467D02*
X11542629Y-16539990D01*
X11752152Y-16654276D02*
X11733105Y-16644752D01*
X11733105Y-16644752D02*
X11723581Y-16635228D01*
X11723581Y-16635228D02*
X11714057Y-16616181D01*
X11714057Y-16616181D02*
X11714057Y-16559038D01*
X11714057Y-16559038D02*
X11723581Y-16539990D01*
X11723581Y-16539990D02*
X11733105Y-16530467D01*
X11733105Y-16530467D02*
X11752152Y-16520943D01*
X11752152Y-16520943D02*
X11780724Y-16520943D01*
X11780724Y-16520943D02*
X11799772Y-16530467D01*
X11799772Y-16530467D02*
X11809295Y-16539990D01*
X11809295Y-16539990D02*
X11818819Y-16559038D01*
X11818819Y-16559038D02*
X11818819Y-16616181D01*
X11818819Y-16616181D02*
X11809295Y-16635228D01*
X11809295Y-16635228D02*
X11799772Y-16644752D01*
X11799772Y-16644752D02*
X11780724Y-16654276D01*
X11780724Y-16654276D02*
X11752152Y-16654276D01*
X11933105Y-16654276D02*
X11914057Y-16644752D01*
X11914057Y-16644752D02*
X11904533Y-16625705D01*
X11904533Y-16625705D02*
X11904533Y-16454276D01*
X12085486Y-16644752D02*
X12066438Y-16654276D01*
X12066438Y-16654276D02*
X12028343Y-16654276D01*
X12028343Y-16654276D02*
X12009295Y-16644752D01*
X12009295Y-16644752D02*
X11999772Y-16625705D01*
X11999772Y-16625705D02*
X11999772Y-16549514D01*
X11999772Y-16549514D02*
X12009295Y-16530467D01*
X12009295Y-16530467D02*
X12028343Y-16520943D01*
X12028343Y-16520943D02*
X12066438Y-16520943D01*
X12066438Y-16520943D02*
X12085486Y-16530467D01*
X12085486Y-16530467D02*
X12095010Y-16549514D01*
X12095010Y-16549514D02*
X12095010Y-16568562D01*
X12095010Y-16568562D02*
X11999772Y-16587609D01*
X12171200Y-16644752D02*
X12190248Y-16654276D01*
X12190248Y-16654276D02*
X12228343Y-16654276D01*
X12228343Y-16654276D02*
X12247391Y-16644752D01*
X12247391Y-16644752D02*
X12256914Y-16625705D01*
X12256914Y-16625705D02*
X12256914Y-16616181D01*
X12256914Y-16616181D02*
X12247391Y-16597133D01*
X12247391Y-16597133D02*
X12228343Y-16587609D01*
X12228343Y-16587609D02*
X12199772Y-16587609D01*
X12199772Y-16587609D02*
X12180724Y-16578086D01*
X12180724Y-16578086D02*
X12171200Y-16559038D01*
X12171200Y-16559038D02*
X12171200Y-16549514D01*
X12171200Y-16549514D02*
X12180724Y-16530467D01*
X12180724Y-16530467D02*
X12199772Y-16520943D01*
X12199772Y-16520943D02*
X12228343Y-16520943D01*
X12228343Y-16520943D02*
X12247391Y-16530467D01*
X12462629Y-16578086D02*
X12615010Y-16578086D01*
X12538819Y-16654276D02*
X12538819Y-16501895D01*
X12820724Y-16473324D02*
X12830248Y-16463800D01*
X12830248Y-16463800D02*
X12849295Y-16454276D01*
X12849295Y-16454276D02*
X12896914Y-16454276D01*
X12896914Y-16454276D02*
X12915962Y-16463800D01*
X12915962Y-16463800D02*
X12925486Y-16473324D01*
X12925486Y-16473324D02*
X12935010Y-16492371D01*
X12935010Y-16492371D02*
X12935010Y-16511419D01*
X12935010Y-16511419D02*
X12925486Y-16539990D01*
X12925486Y-16539990D02*
X12811200Y-16654276D01*
X12811200Y-16654276D02*
X12935010Y-16654276D01*
X13131200Y-16644752D02*
X13150248Y-16654276D01*
X13150248Y-16654276D02*
X13188343Y-16654276D01*
X13188343Y-16654276D02*
X13207391Y-16644752D01*
X13207391Y-16644752D02*
X13216914Y-16625705D01*
X13216914Y-16625705D02*
X13216914Y-16616181D01*
X13216914Y-16616181D02*
X13207391Y-16597133D01*
X13207391Y-16597133D02*
X13188343Y-16587609D01*
X13188343Y-16587609D02*
X13159772Y-16587609D01*
X13159772Y-16587609D02*
X13140724Y-16578086D01*
X13140724Y-16578086D02*
X13131200Y-16559038D01*
X13131200Y-16559038D02*
X13131200Y-16549514D01*
X13131200Y-16549514D02*
X13140724Y-16530467D01*
X13140724Y-16530467D02*
X13159772Y-16520943D01*
X13159772Y-16520943D02*
X13188343Y-16520943D01*
X13188343Y-16520943D02*
X13207391Y-16530467D01*
X13331200Y-16654276D02*
X13312153Y-16644752D01*
X13312153Y-16644752D02*
X13302629Y-16625705D01*
X13302629Y-16625705D02*
X13302629Y-16454276D01*
X13435962Y-16654276D02*
X13416914Y-16644752D01*
X13416914Y-16644752D02*
X13407391Y-16635228D01*
X13407391Y-16635228D02*
X13397867Y-16616181D01*
X13397867Y-16616181D02*
X13397867Y-16559038D01*
X13397867Y-16559038D02*
X13407391Y-16539990D01*
X13407391Y-16539990D02*
X13416914Y-16530467D01*
X13416914Y-16530467D02*
X13435962Y-16520943D01*
X13435962Y-16520943D02*
X13464534Y-16520943D01*
X13464534Y-16520943D02*
X13483581Y-16530467D01*
X13483581Y-16530467D02*
X13493105Y-16539990D01*
X13493105Y-16539990D02*
X13502629Y-16559038D01*
X13502629Y-16559038D02*
X13502629Y-16616181D01*
X13502629Y-16616181D02*
X13493105Y-16635228D01*
X13493105Y-16635228D02*
X13483581Y-16644752D01*
X13483581Y-16644752D02*
X13464534Y-16654276D01*
X13464534Y-16654276D02*
X13435962Y-16654276D01*
X13559772Y-16520943D02*
X13635962Y-16520943D01*
X13588343Y-16454276D02*
X13588343Y-16625705D01*
X13588343Y-16625705D02*
X13597867Y-16644752D01*
X13597867Y-16644752D02*
X13616914Y-16654276D01*
X13616914Y-16654276D02*
X13635962Y-16654276D01*
X13693105Y-16644752D02*
X13712153Y-16654276D01*
X13712153Y-16654276D02*
X13750248Y-16654276D01*
X13750248Y-16654276D02*
X13769295Y-16644752D01*
X13769295Y-16644752D02*
X13778819Y-16625705D01*
X13778819Y-16625705D02*
X13778819Y-16616181D01*
X13778819Y-16616181D02*
X13769295Y-16597133D01*
X13769295Y-16597133D02*
X13750248Y-16587609D01*
X13750248Y-16587609D02*
X13721676Y-16587609D01*
X13721676Y-16587609D02*
X13702629Y-16578086D01*
X13702629Y-16578086D02*
X13693105Y-16559038D01*
X13693105Y-16559038D02*
X13693105Y-16549514D01*
X13693105Y-16549514D02*
X13702629Y-16530467D01*
X13702629Y-16530467D02*
X13721676Y-16520943D01*
X13721676Y-16520943D02*
X13750248Y-16520943D01*
X13750248Y-16520943D02*
X13769295Y-16530467D01*
X13845486Y-16730467D02*
X13855010Y-16720943D01*
X13855010Y-16720943D02*
X13874057Y-16692371D01*
X13874057Y-16692371D02*
X13883581Y-16673324D01*
X13883581Y-16673324D02*
X13893105Y-16644752D01*
X13893105Y-16644752D02*
X13902629Y-16597133D01*
X13902629Y-16597133D02*
X13902629Y-16559038D01*
X13902629Y-16559038D02*
X13893105Y-16511419D01*
X13893105Y-16511419D02*
X13883581Y-16482848D01*
X13883581Y-16482848D02*
X13874057Y-16463800D01*
X13874057Y-16463800D02*
X13855010Y-16435228D01*
X13855010Y-16435228D02*
X13845486Y-16425705D01*
D14*
X7651200Y-16804800D02*
X7651200Y-16884800D01*
X7611200Y-16844800D02*
X7691200Y-16844800D01*
D11*
X7976914Y-16718276D02*
X7995962Y-16718276D01*
X7995962Y-16718276D02*
X8015009Y-16727800D01*
X8015009Y-16727800D02*
X8024533Y-16737324D01*
X8024533Y-16737324D02*
X8034057Y-16756371D01*
X8034057Y-16756371D02*
X8043581Y-16794467D01*
X8043581Y-16794467D02*
X8043581Y-16842086D01*
X8043581Y-16842086D02*
X8034057Y-16880181D01*
X8034057Y-16880181D02*
X8024533Y-16899229D01*
X8024533Y-16899229D02*
X8015009Y-16908752D01*
X8015009Y-16908752D02*
X7995962Y-16918276D01*
X7995962Y-16918276D02*
X7976914Y-16918276D01*
X7976914Y-16918276D02*
X7957867Y-16908752D01*
X7957867Y-16908752D02*
X7948343Y-16899229D01*
X7948343Y-16899229D02*
X7938819Y-16880181D01*
X7938819Y-16880181D02*
X7929295Y-16842086D01*
X7929295Y-16842086D02*
X7929295Y-16794467D01*
X7929295Y-16794467D02*
X7938819Y-16756371D01*
X7938819Y-16756371D02*
X7948343Y-16737324D01*
X7948343Y-16737324D02*
X7957867Y-16727800D01*
X7957867Y-16727800D02*
X7976914Y-16718276D01*
X8129295Y-16899229D02*
X8138819Y-16908752D01*
X8138819Y-16908752D02*
X8129295Y-16918276D01*
X8129295Y-16918276D02*
X8119771Y-16908752D01*
X8119771Y-16908752D02*
X8129295Y-16899229D01*
X8129295Y-16899229D02*
X8129295Y-16918276D01*
X8253105Y-16803990D02*
X8234057Y-16794467D01*
X8234057Y-16794467D02*
X8224533Y-16784943D01*
X8224533Y-16784943D02*
X8215009Y-16765895D01*
X8215009Y-16765895D02*
X8215009Y-16756371D01*
X8215009Y-16756371D02*
X8224533Y-16737324D01*
X8224533Y-16737324D02*
X8234057Y-16727800D01*
X8234057Y-16727800D02*
X8253105Y-16718276D01*
X8253105Y-16718276D02*
X8291200Y-16718276D01*
X8291200Y-16718276D02*
X8310248Y-16727800D01*
X8310248Y-16727800D02*
X8319771Y-16737324D01*
X8319771Y-16737324D02*
X8329295Y-16756371D01*
X8329295Y-16756371D02*
X8329295Y-16765895D01*
X8329295Y-16765895D02*
X8319771Y-16784943D01*
X8319771Y-16784943D02*
X8310248Y-16794467D01*
X8310248Y-16794467D02*
X8291200Y-16803990D01*
X8291200Y-16803990D02*
X8253105Y-16803990D01*
X8253105Y-16803990D02*
X8234057Y-16813514D01*
X8234057Y-16813514D02*
X8224533Y-16823038D01*
X8224533Y-16823038D02*
X8215009Y-16842086D01*
X8215009Y-16842086D02*
X8215009Y-16880181D01*
X8215009Y-16880181D02*
X8224533Y-16899229D01*
X8224533Y-16899229D02*
X8234057Y-16908752D01*
X8234057Y-16908752D02*
X8253105Y-16918276D01*
X8253105Y-16918276D02*
X8291200Y-16918276D01*
X8291200Y-16918276D02*
X8310248Y-16908752D01*
X8310248Y-16908752D02*
X8319771Y-16899229D01*
X8319771Y-16899229D02*
X8329295Y-16880181D01*
X8329295Y-16880181D02*
X8329295Y-16842086D01*
X8329295Y-16842086D02*
X8319771Y-16823038D01*
X8319771Y-16823038D02*
X8310248Y-16813514D01*
X8310248Y-16813514D02*
X8291200Y-16803990D01*
X8453105Y-16718276D02*
X8472152Y-16718276D01*
X8472152Y-16718276D02*
X8491200Y-16727800D01*
X8491200Y-16727800D02*
X8500724Y-16737324D01*
X8500724Y-16737324D02*
X8510248Y-16756371D01*
X8510248Y-16756371D02*
X8519771Y-16794467D01*
X8519771Y-16794467D02*
X8519771Y-16842086D01*
X8519771Y-16842086D02*
X8510248Y-16880181D01*
X8510248Y-16880181D02*
X8500724Y-16899229D01*
X8500724Y-16899229D02*
X8491200Y-16908752D01*
X8491200Y-16908752D02*
X8472152Y-16918276D01*
X8472152Y-16918276D02*
X8453105Y-16918276D01*
X8453105Y-16918276D02*
X8434057Y-16908752D01*
X8434057Y-16908752D02*
X8424533Y-16899229D01*
X8424533Y-16899229D02*
X8415010Y-16880181D01*
X8415010Y-16880181D02*
X8405486Y-16842086D01*
X8405486Y-16842086D02*
X8405486Y-16794467D01*
X8405486Y-16794467D02*
X8415010Y-16756371D01*
X8415010Y-16756371D02*
X8424533Y-16737324D01*
X8424533Y-16737324D02*
X8434057Y-16727800D01*
X8434057Y-16727800D02*
X8453105Y-16718276D01*
X8643581Y-16718276D02*
X8662629Y-16718276D01*
X8662629Y-16718276D02*
X8681676Y-16727800D01*
X8681676Y-16727800D02*
X8691200Y-16737324D01*
X8691200Y-16737324D02*
X8700724Y-16756371D01*
X8700724Y-16756371D02*
X8710248Y-16794467D01*
X8710248Y-16794467D02*
X8710248Y-16842086D01*
X8710248Y-16842086D02*
X8700724Y-16880181D01*
X8700724Y-16880181D02*
X8691200Y-16899229D01*
X8691200Y-16899229D02*
X8681676Y-16908752D01*
X8681676Y-16908752D02*
X8662629Y-16918276D01*
X8662629Y-16918276D02*
X8643581Y-16918276D01*
X8643581Y-16918276D02*
X8624533Y-16908752D01*
X8624533Y-16908752D02*
X8615010Y-16899229D01*
X8615010Y-16899229D02*
X8605486Y-16880181D01*
X8605486Y-16880181D02*
X8595962Y-16842086D01*
X8595962Y-16842086D02*
X8595962Y-16794467D01*
X8595962Y-16794467D02*
X8605486Y-16756371D01*
X8605486Y-16756371D02*
X8615010Y-16737324D01*
X8615010Y-16737324D02*
X8624533Y-16727800D01*
X8624533Y-16727800D02*
X8643581Y-16718276D01*
X8795962Y-16918276D02*
X8795962Y-16784943D01*
X8795962Y-16803990D02*
X8805486Y-16794467D01*
X8805486Y-16794467D02*
X8824533Y-16784943D01*
X8824533Y-16784943D02*
X8853105Y-16784943D01*
X8853105Y-16784943D02*
X8872152Y-16794467D01*
X8872152Y-16794467D02*
X8881676Y-16813514D01*
X8881676Y-16813514D02*
X8881676Y-16918276D01*
X8881676Y-16813514D02*
X8891200Y-16794467D01*
X8891200Y-16794467D02*
X8910248Y-16784943D01*
X8910248Y-16784943D02*
X8938819Y-16784943D01*
X8938819Y-16784943D02*
X8957867Y-16794467D01*
X8957867Y-16794467D02*
X8967391Y-16813514D01*
X8967391Y-16813514D02*
X8967391Y-16918276D01*
X9062629Y-16918276D02*
X9062629Y-16784943D01*
X9062629Y-16803990D02*
X9072152Y-16794467D01*
X9072152Y-16794467D02*
X9091200Y-16784943D01*
X9091200Y-16784943D02*
X9119772Y-16784943D01*
X9119772Y-16784943D02*
X9138819Y-16794467D01*
X9138819Y-16794467D02*
X9148343Y-16813514D01*
X9148343Y-16813514D02*
X9148343Y-16918276D01*
X9148343Y-16813514D02*
X9157867Y-16794467D01*
X9157867Y-16794467D02*
X9176914Y-16784943D01*
X9176914Y-16784943D02*
X9205486Y-16784943D01*
X9205486Y-16784943D02*
X9224533Y-16794467D01*
X9224533Y-16794467D02*
X9234057Y-16813514D01*
X9234057Y-16813514D02*
X9234057Y-16918276D01*
X9592152Y-16708752D02*
X9420724Y-16965895D01*
X9816914Y-16718276D02*
X9835962Y-16718276D01*
X9835962Y-16718276D02*
X9855010Y-16727800D01*
X9855010Y-16727800D02*
X9864533Y-16737324D01*
X9864533Y-16737324D02*
X9874057Y-16756371D01*
X9874057Y-16756371D02*
X9883581Y-16794467D01*
X9883581Y-16794467D02*
X9883581Y-16842086D01*
X9883581Y-16842086D02*
X9874057Y-16880181D01*
X9874057Y-16880181D02*
X9864533Y-16899229D01*
X9864533Y-16899229D02*
X9855010Y-16908752D01*
X9855010Y-16908752D02*
X9835962Y-16918276D01*
X9835962Y-16918276D02*
X9816914Y-16918276D01*
X9816914Y-16918276D02*
X9797867Y-16908752D01*
X9797867Y-16908752D02*
X9788343Y-16899229D01*
X9788343Y-16899229D02*
X9778819Y-16880181D01*
X9778819Y-16880181D02*
X9769295Y-16842086D01*
X9769295Y-16842086D02*
X9769295Y-16794467D01*
X9769295Y-16794467D02*
X9778819Y-16756371D01*
X9778819Y-16756371D02*
X9788343Y-16737324D01*
X9788343Y-16737324D02*
X9797867Y-16727800D01*
X9797867Y-16727800D02*
X9816914Y-16718276D01*
X9969295Y-16899229D02*
X9978819Y-16908752D01*
X9978819Y-16908752D02*
X9969295Y-16918276D01*
X9969295Y-16918276D02*
X9959772Y-16908752D01*
X9959772Y-16908752D02*
X9969295Y-16899229D01*
X9969295Y-16899229D02*
X9969295Y-16918276D01*
X10102629Y-16718276D02*
X10121676Y-16718276D01*
X10121676Y-16718276D02*
X10140724Y-16727800D01*
X10140724Y-16727800D02*
X10150248Y-16737324D01*
X10150248Y-16737324D02*
X10159772Y-16756371D01*
X10159772Y-16756371D02*
X10169295Y-16794467D01*
X10169295Y-16794467D02*
X10169295Y-16842086D01*
X10169295Y-16842086D02*
X10159772Y-16880181D01*
X10159772Y-16880181D02*
X10150248Y-16899229D01*
X10150248Y-16899229D02*
X10140724Y-16908752D01*
X10140724Y-16908752D02*
X10121676Y-16918276D01*
X10121676Y-16918276D02*
X10102629Y-16918276D01*
X10102629Y-16918276D02*
X10083581Y-16908752D01*
X10083581Y-16908752D02*
X10074057Y-16899229D01*
X10074057Y-16899229D02*
X10064533Y-16880181D01*
X10064533Y-16880181D02*
X10055010Y-16842086D01*
X10055010Y-16842086D02*
X10055010Y-16794467D01*
X10055010Y-16794467D02*
X10064533Y-16756371D01*
X10064533Y-16756371D02*
X10074057Y-16737324D01*
X10074057Y-16737324D02*
X10083581Y-16727800D01*
X10083581Y-16727800D02*
X10102629Y-16718276D01*
X10235962Y-16718276D02*
X10359772Y-16718276D01*
X10359772Y-16718276D02*
X10293105Y-16794467D01*
X10293105Y-16794467D02*
X10321676Y-16794467D01*
X10321676Y-16794467D02*
X10340724Y-16803990D01*
X10340724Y-16803990D02*
X10350248Y-16813514D01*
X10350248Y-16813514D02*
X10359772Y-16832562D01*
X10359772Y-16832562D02*
X10359772Y-16880181D01*
X10359772Y-16880181D02*
X10350248Y-16899229D01*
X10350248Y-16899229D02*
X10340724Y-16908752D01*
X10340724Y-16908752D02*
X10321676Y-16918276D01*
X10321676Y-16918276D02*
X10264533Y-16918276D01*
X10264533Y-16918276D02*
X10245486Y-16908752D01*
X10245486Y-16908752D02*
X10235962Y-16899229D01*
X10550248Y-16918276D02*
X10435962Y-16918276D01*
X10493105Y-16918276D02*
X10493105Y-16718276D01*
X10493105Y-16718276D02*
X10474057Y-16746848D01*
X10474057Y-16746848D02*
X10455010Y-16765895D01*
X10455010Y-16765895D02*
X10435962Y-16775419D01*
X10731200Y-16718276D02*
X10635962Y-16718276D01*
X10635962Y-16718276D02*
X10626438Y-16813514D01*
X10626438Y-16813514D02*
X10635962Y-16803990D01*
X10635962Y-16803990D02*
X10655010Y-16794467D01*
X10655010Y-16794467D02*
X10702629Y-16794467D01*
X10702629Y-16794467D02*
X10721676Y-16803990D01*
X10721676Y-16803990D02*
X10731200Y-16813514D01*
X10731200Y-16813514D02*
X10740724Y-16832562D01*
X10740724Y-16832562D02*
X10740724Y-16880181D01*
X10740724Y-16880181D02*
X10731200Y-16899229D01*
X10731200Y-16899229D02*
X10721676Y-16908752D01*
X10721676Y-16908752D02*
X10702629Y-16918276D01*
X10702629Y-16918276D02*
X10655010Y-16918276D01*
X10655010Y-16918276D02*
X10635962Y-16908752D01*
X10635962Y-16908752D02*
X10626438Y-16899229D01*
X10816914Y-16718276D02*
X10816914Y-16756371D01*
X10893105Y-16718276D02*
X10893105Y-16756371D01*
X11155962Y-16994467D02*
X11146438Y-16984943D01*
X11146438Y-16984943D02*
X11127391Y-16956371D01*
X11127391Y-16956371D02*
X11117867Y-16937324D01*
X11117867Y-16937324D02*
X11108343Y-16908752D01*
X11108343Y-16908752D02*
X11098819Y-16861133D01*
X11098819Y-16861133D02*
X11098819Y-16823038D01*
X11098819Y-16823038D02*
X11108343Y-16775419D01*
X11108343Y-16775419D02*
X11117867Y-16746848D01*
X11117867Y-16746848D02*
X11127391Y-16727800D01*
X11127391Y-16727800D02*
X11146438Y-16699228D01*
X11146438Y-16699228D02*
X11155962Y-16689705D01*
X11270248Y-16718276D02*
X11289295Y-16718276D01*
X11289295Y-16718276D02*
X11308343Y-16727800D01*
X11308343Y-16727800D02*
X11317867Y-16737324D01*
X11317867Y-16737324D02*
X11327391Y-16756371D01*
X11327391Y-16756371D02*
X11336914Y-16794467D01*
X11336914Y-16794467D02*
X11336914Y-16842086D01*
X11336914Y-16842086D02*
X11327391Y-16880181D01*
X11327391Y-16880181D02*
X11317867Y-16899229D01*
X11317867Y-16899229D02*
X11308343Y-16908752D01*
X11308343Y-16908752D02*
X11289295Y-16918276D01*
X11289295Y-16918276D02*
X11270248Y-16918276D01*
X11270248Y-16918276D02*
X11251200Y-16908752D01*
X11251200Y-16908752D02*
X11241676Y-16899229D01*
X11241676Y-16899229D02*
X11232152Y-16880181D01*
X11232152Y-16880181D02*
X11222629Y-16842086D01*
X11222629Y-16842086D02*
X11222629Y-16794467D01*
X11222629Y-16794467D02*
X11232152Y-16756371D01*
X11232152Y-16756371D02*
X11241676Y-16737324D01*
X11241676Y-16737324D02*
X11251200Y-16727800D01*
X11251200Y-16727800D02*
X11270248Y-16718276D01*
X11542629Y-16918276D02*
X11542629Y-16718276D01*
X11628343Y-16918276D02*
X11628343Y-16813514D01*
X11628343Y-16813514D02*
X11618819Y-16794467D01*
X11618819Y-16794467D02*
X11599772Y-16784943D01*
X11599772Y-16784943D02*
X11571200Y-16784943D01*
X11571200Y-16784943D02*
X11552152Y-16794467D01*
X11552152Y-16794467D02*
X11542629Y-16803990D01*
X11752152Y-16918276D02*
X11733105Y-16908752D01*
X11733105Y-16908752D02*
X11723581Y-16899229D01*
X11723581Y-16899229D02*
X11714057Y-16880181D01*
X11714057Y-16880181D02*
X11714057Y-16823038D01*
X11714057Y-16823038D02*
X11723581Y-16803990D01*
X11723581Y-16803990D02*
X11733105Y-16794467D01*
X11733105Y-16794467D02*
X11752152Y-16784943D01*
X11752152Y-16784943D02*
X11780724Y-16784943D01*
X11780724Y-16784943D02*
X11799772Y-16794467D01*
X11799772Y-16794467D02*
X11809295Y-16803990D01*
X11809295Y-16803990D02*
X11818819Y-16823038D01*
X11818819Y-16823038D02*
X11818819Y-16880181D01*
X11818819Y-16880181D02*
X11809295Y-16899229D01*
X11809295Y-16899229D02*
X11799772Y-16908752D01*
X11799772Y-16908752D02*
X11780724Y-16918276D01*
X11780724Y-16918276D02*
X11752152Y-16918276D01*
X11933105Y-16918276D02*
X11914057Y-16908752D01*
X11914057Y-16908752D02*
X11904533Y-16889705D01*
X11904533Y-16889705D02*
X11904533Y-16718276D01*
X12085486Y-16908752D02*
X12066438Y-16918276D01*
X12066438Y-16918276D02*
X12028343Y-16918276D01*
X12028343Y-16918276D02*
X12009295Y-16908752D01*
X12009295Y-16908752D02*
X11999772Y-16889705D01*
X11999772Y-16889705D02*
X11999772Y-16813514D01*
X11999772Y-16813514D02*
X12009295Y-16794467D01*
X12009295Y-16794467D02*
X12028343Y-16784943D01*
X12028343Y-16784943D02*
X12066438Y-16784943D01*
X12066438Y-16784943D02*
X12085486Y-16794467D01*
X12085486Y-16794467D02*
X12095010Y-16813514D01*
X12095010Y-16813514D02*
X12095010Y-16832562D01*
X12095010Y-16832562D02*
X11999772Y-16851610D01*
X12171200Y-16908752D02*
X12190248Y-16918276D01*
X12190248Y-16918276D02*
X12228343Y-16918276D01*
X12228343Y-16918276D02*
X12247391Y-16908752D01*
X12247391Y-16908752D02*
X12256914Y-16889705D01*
X12256914Y-16889705D02*
X12256914Y-16880181D01*
X12256914Y-16880181D02*
X12247391Y-16861133D01*
X12247391Y-16861133D02*
X12228343Y-16851610D01*
X12228343Y-16851610D02*
X12199772Y-16851610D01*
X12199772Y-16851610D02*
X12180724Y-16842086D01*
X12180724Y-16842086D02*
X12171200Y-16823038D01*
X12171200Y-16823038D02*
X12171200Y-16813514D01*
X12171200Y-16813514D02*
X12180724Y-16794467D01*
X12180724Y-16794467D02*
X12199772Y-16784943D01*
X12199772Y-16784943D02*
X12228343Y-16784943D01*
X12228343Y-16784943D02*
X12247391Y-16794467D01*
X12462629Y-16842086D02*
X12615010Y-16842086D01*
X12538819Y-16918276D02*
X12538819Y-16765895D01*
X12811200Y-16718276D02*
X12935010Y-16718276D01*
X12935010Y-16718276D02*
X12868343Y-16794467D01*
X12868343Y-16794467D02*
X12896914Y-16794467D01*
X12896914Y-16794467D02*
X12915962Y-16803990D01*
X12915962Y-16803990D02*
X12925486Y-16813514D01*
X12925486Y-16813514D02*
X12935010Y-16832562D01*
X12935010Y-16832562D02*
X12935010Y-16880181D01*
X12935010Y-16880181D02*
X12925486Y-16899229D01*
X12925486Y-16899229D02*
X12915962Y-16908752D01*
X12915962Y-16908752D02*
X12896914Y-16918276D01*
X12896914Y-16918276D02*
X12839772Y-16918276D01*
X12839772Y-16918276D02*
X12820724Y-16908752D01*
X12820724Y-16908752D02*
X12811200Y-16899229D01*
X13131200Y-16908752D02*
X13150248Y-16918276D01*
X13150248Y-16918276D02*
X13188343Y-16918276D01*
X13188343Y-16918276D02*
X13207391Y-16908752D01*
X13207391Y-16908752D02*
X13216914Y-16889705D01*
X13216914Y-16889705D02*
X13216914Y-16880181D01*
X13216914Y-16880181D02*
X13207391Y-16861133D01*
X13207391Y-16861133D02*
X13188343Y-16851610D01*
X13188343Y-16851610D02*
X13159772Y-16851610D01*
X13159772Y-16851610D02*
X13140724Y-16842086D01*
X13140724Y-16842086D02*
X13131200Y-16823038D01*
X13131200Y-16823038D02*
X13131200Y-16813514D01*
X13131200Y-16813514D02*
X13140724Y-16794467D01*
X13140724Y-16794467D02*
X13159772Y-16784943D01*
X13159772Y-16784943D02*
X13188343Y-16784943D01*
X13188343Y-16784943D02*
X13207391Y-16794467D01*
X13331200Y-16918276D02*
X13312153Y-16908752D01*
X13312153Y-16908752D02*
X13302629Y-16889705D01*
X13302629Y-16889705D02*
X13302629Y-16718276D01*
X13435962Y-16918276D02*
X13416914Y-16908752D01*
X13416914Y-16908752D02*
X13407391Y-16899229D01*
X13407391Y-16899229D02*
X13397867Y-16880181D01*
X13397867Y-16880181D02*
X13397867Y-16823038D01*
X13397867Y-16823038D02*
X13407391Y-16803990D01*
X13407391Y-16803990D02*
X13416914Y-16794467D01*
X13416914Y-16794467D02*
X13435962Y-16784943D01*
X13435962Y-16784943D02*
X13464534Y-16784943D01*
X13464534Y-16784943D02*
X13483581Y-16794467D01*
X13483581Y-16794467D02*
X13493105Y-16803990D01*
X13493105Y-16803990D02*
X13502629Y-16823038D01*
X13502629Y-16823038D02*
X13502629Y-16880181D01*
X13502629Y-16880181D02*
X13493105Y-16899229D01*
X13493105Y-16899229D02*
X13483581Y-16908752D01*
X13483581Y-16908752D02*
X13464534Y-16918276D01*
X13464534Y-16918276D02*
X13435962Y-16918276D01*
X13559772Y-16784943D02*
X13635962Y-16784943D01*
X13588343Y-16718276D02*
X13588343Y-16889705D01*
X13588343Y-16889705D02*
X13597867Y-16908752D01*
X13597867Y-16908752D02*
X13616914Y-16918276D01*
X13616914Y-16918276D02*
X13635962Y-16918276D01*
X13693105Y-16908752D02*
X13712153Y-16918276D01*
X13712153Y-16918276D02*
X13750248Y-16918276D01*
X13750248Y-16918276D02*
X13769295Y-16908752D01*
X13769295Y-16908752D02*
X13778819Y-16889705D01*
X13778819Y-16889705D02*
X13778819Y-16880181D01*
X13778819Y-16880181D02*
X13769295Y-16861133D01*
X13769295Y-16861133D02*
X13750248Y-16851610D01*
X13750248Y-16851610D02*
X13721676Y-16851610D01*
X13721676Y-16851610D02*
X13702629Y-16842086D01*
X13702629Y-16842086D02*
X13693105Y-16823038D01*
X13693105Y-16823038D02*
X13693105Y-16813514D01*
X13693105Y-16813514D02*
X13702629Y-16794467D01*
X13702629Y-16794467D02*
X13721676Y-16784943D01*
X13721676Y-16784943D02*
X13750248Y-16784943D01*
X13750248Y-16784943D02*
X13769295Y-16794467D01*
X13845486Y-16994467D02*
X13855010Y-16984943D01*
X13855010Y-16984943D02*
X13874057Y-16956371D01*
X13874057Y-16956371D02*
X13883581Y-16937324D01*
X13883581Y-16937324D02*
X13893105Y-16908752D01*
X13893105Y-16908752D02*
X13902629Y-16861133D01*
X13902629Y-16861133D02*
X13902629Y-16823038D01*
X13902629Y-16823038D02*
X13893105Y-16775419D01*
X13893105Y-16775419D02*
X13883581Y-16746848D01*
X13883581Y-16746848D02*
X13874057Y-16727800D01*
X13874057Y-16727800D02*
X13855010Y-16699228D01*
X13855010Y-16699228D02*
X13845486Y-16689705D01*
D10*
X7676556Y-17144156D02*
X7676556Y-17073444D01*
X7605844Y-17073444D01*
X7605844Y-17144156D01*
X7676556Y-17144156D01*
D11*
X8043581Y-17182276D02*
X7929295Y-17182276D01*
X7986438Y-17182276D02*
X7986438Y-16982276D01*
X7986438Y-16982276D02*
X7967390Y-17010848D01*
X7967390Y-17010848D02*
X7948343Y-17029895D01*
X7948343Y-17029895D02*
X7929295Y-17039419D01*
X8129295Y-17163229D02*
X8138819Y-17172752D01*
X8138819Y-17172752D02*
X8129295Y-17182276D01*
X8129295Y-17182276D02*
X8119771Y-17172752D01*
X8119771Y-17172752D02*
X8129295Y-17163229D01*
X8129295Y-17163229D02*
X8129295Y-17182276D01*
X8262628Y-16982276D02*
X8281676Y-16982276D01*
X8281676Y-16982276D02*
X8300724Y-16991800D01*
X8300724Y-16991800D02*
X8310248Y-17001324D01*
X8310248Y-17001324D02*
X8319771Y-17020371D01*
X8319771Y-17020371D02*
X8329295Y-17058467D01*
X8329295Y-17058467D02*
X8329295Y-17106086D01*
X8329295Y-17106086D02*
X8319771Y-17144181D01*
X8319771Y-17144181D02*
X8310248Y-17163229D01*
X8310248Y-17163229D02*
X8300724Y-17172752D01*
X8300724Y-17172752D02*
X8281676Y-17182276D01*
X8281676Y-17182276D02*
X8262628Y-17182276D01*
X8262628Y-17182276D02*
X8243581Y-17172752D01*
X8243581Y-17172752D02*
X8234057Y-17163229D01*
X8234057Y-17163229D02*
X8224533Y-17144181D01*
X8224533Y-17144181D02*
X8215009Y-17106086D01*
X8215009Y-17106086D02*
X8215009Y-17058467D01*
X8215009Y-17058467D02*
X8224533Y-17020371D01*
X8224533Y-17020371D02*
X8234057Y-17001324D01*
X8234057Y-17001324D02*
X8243581Y-16991800D01*
X8243581Y-16991800D02*
X8262628Y-16982276D01*
X8453105Y-16982276D02*
X8472152Y-16982276D01*
X8472152Y-16982276D02*
X8491200Y-16991800D01*
X8491200Y-16991800D02*
X8500724Y-17001324D01*
X8500724Y-17001324D02*
X8510248Y-17020371D01*
X8510248Y-17020371D02*
X8519771Y-17058467D01*
X8519771Y-17058467D02*
X8519771Y-17106086D01*
X8519771Y-17106086D02*
X8510248Y-17144181D01*
X8510248Y-17144181D02*
X8500724Y-17163229D01*
X8500724Y-17163229D02*
X8491200Y-17172752D01*
X8491200Y-17172752D02*
X8472152Y-17182276D01*
X8472152Y-17182276D02*
X8453105Y-17182276D01*
X8453105Y-17182276D02*
X8434057Y-17172752D01*
X8434057Y-17172752D02*
X8424533Y-17163229D01*
X8424533Y-17163229D02*
X8415010Y-17144181D01*
X8415010Y-17144181D02*
X8405486Y-17106086D01*
X8405486Y-17106086D02*
X8405486Y-17058467D01*
X8405486Y-17058467D02*
X8415010Y-17020371D01*
X8415010Y-17020371D02*
X8424533Y-17001324D01*
X8424533Y-17001324D02*
X8434057Y-16991800D01*
X8434057Y-16991800D02*
X8453105Y-16982276D01*
X8643581Y-16982276D02*
X8662629Y-16982276D01*
X8662629Y-16982276D02*
X8681676Y-16991800D01*
X8681676Y-16991800D02*
X8691200Y-17001324D01*
X8691200Y-17001324D02*
X8700724Y-17020371D01*
X8700724Y-17020371D02*
X8710248Y-17058467D01*
X8710248Y-17058467D02*
X8710248Y-17106086D01*
X8710248Y-17106086D02*
X8700724Y-17144181D01*
X8700724Y-17144181D02*
X8691200Y-17163229D01*
X8691200Y-17163229D02*
X8681676Y-17172752D01*
X8681676Y-17172752D02*
X8662629Y-17182276D01*
X8662629Y-17182276D02*
X8643581Y-17182276D01*
X8643581Y-17182276D02*
X8624533Y-17172752D01*
X8624533Y-17172752D02*
X8615010Y-17163229D01*
X8615010Y-17163229D02*
X8605486Y-17144181D01*
X8605486Y-17144181D02*
X8595962Y-17106086D01*
X8595962Y-17106086D02*
X8595962Y-17058467D01*
X8595962Y-17058467D02*
X8605486Y-17020371D01*
X8605486Y-17020371D02*
X8615010Y-17001324D01*
X8615010Y-17001324D02*
X8624533Y-16991800D01*
X8624533Y-16991800D02*
X8643581Y-16982276D01*
X8795962Y-17182276D02*
X8795962Y-17048943D01*
X8795962Y-17067990D02*
X8805486Y-17058467D01*
X8805486Y-17058467D02*
X8824533Y-17048943D01*
X8824533Y-17048943D02*
X8853105Y-17048943D01*
X8853105Y-17048943D02*
X8872152Y-17058467D01*
X8872152Y-17058467D02*
X8881676Y-17077514D01*
X8881676Y-17077514D02*
X8881676Y-17182276D01*
X8881676Y-17077514D02*
X8891200Y-17058467D01*
X8891200Y-17058467D02*
X8910248Y-17048943D01*
X8910248Y-17048943D02*
X8938819Y-17048943D01*
X8938819Y-17048943D02*
X8957867Y-17058467D01*
X8957867Y-17058467D02*
X8967391Y-17077514D01*
X8967391Y-17077514D02*
X8967391Y-17182276D01*
X9062629Y-17182276D02*
X9062629Y-17048943D01*
X9062629Y-17067990D02*
X9072152Y-17058467D01*
X9072152Y-17058467D02*
X9091200Y-17048943D01*
X9091200Y-17048943D02*
X9119772Y-17048943D01*
X9119772Y-17048943D02*
X9138819Y-17058467D01*
X9138819Y-17058467D02*
X9148343Y-17077514D01*
X9148343Y-17077514D02*
X9148343Y-17182276D01*
X9148343Y-17077514D02*
X9157867Y-17058467D01*
X9157867Y-17058467D02*
X9176914Y-17048943D01*
X9176914Y-17048943D02*
X9205486Y-17048943D01*
X9205486Y-17048943D02*
X9224533Y-17058467D01*
X9224533Y-17058467D02*
X9234057Y-17077514D01*
X9234057Y-17077514D02*
X9234057Y-17182276D01*
X9592152Y-16972752D02*
X9420724Y-17229895D01*
X9816914Y-16982276D02*
X9835962Y-16982276D01*
X9835962Y-16982276D02*
X9855010Y-16991800D01*
X9855010Y-16991800D02*
X9864533Y-17001324D01*
X9864533Y-17001324D02*
X9874057Y-17020371D01*
X9874057Y-17020371D02*
X9883581Y-17058467D01*
X9883581Y-17058467D02*
X9883581Y-17106086D01*
X9883581Y-17106086D02*
X9874057Y-17144181D01*
X9874057Y-17144181D02*
X9864533Y-17163229D01*
X9864533Y-17163229D02*
X9855010Y-17172752D01*
X9855010Y-17172752D02*
X9835962Y-17182276D01*
X9835962Y-17182276D02*
X9816914Y-17182276D01*
X9816914Y-17182276D02*
X9797867Y-17172752D01*
X9797867Y-17172752D02*
X9788343Y-17163229D01*
X9788343Y-17163229D02*
X9778819Y-17144181D01*
X9778819Y-17144181D02*
X9769295Y-17106086D01*
X9769295Y-17106086D02*
X9769295Y-17058467D01*
X9769295Y-17058467D02*
X9778819Y-17020371D01*
X9778819Y-17020371D02*
X9788343Y-17001324D01*
X9788343Y-17001324D02*
X9797867Y-16991800D01*
X9797867Y-16991800D02*
X9816914Y-16982276D01*
X9969295Y-17163229D02*
X9978819Y-17172752D01*
X9978819Y-17172752D02*
X9969295Y-17182276D01*
X9969295Y-17182276D02*
X9959772Y-17172752D01*
X9959772Y-17172752D02*
X9969295Y-17163229D01*
X9969295Y-17163229D02*
X9969295Y-17182276D01*
X10102629Y-16982276D02*
X10121676Y-16982276D01*
X10121676Y-16982276D02*
X10140724Y-16991800D01*
X10140724Y-16991800D02*
X10150248Y-17001324D01*
X10150248Y-17001324D02*
X10159772Y-17020371D01*
X10159772Y-17020371D02*
X10169295Y-17058467D01*
X10169295Y-17058467D02*
X10169295Y-17106086D01*
X10169295Y-17106086D02*
X10159772Y-17144181D01*
X10159772Y-17144181D02*
X10150248Y-17163229D01*
X10150248Y-17163229D02*
X10140724Y-17172752D01*
X10140724Y-17172752D02*
X10121676Y-17182276D01*
X10121676Y-17182276D02*
X10102629Y-17182276D01*
X10102629Y-17182276D02*
X10083581Y-17172752D01*
X10083581Y-17172752D02*
X10074057Y-17163229D01*
X10074057Y-17163229D02*
X10064533Y-17144181D01*
X10064533Y-17144181D02*
X10055010Y-17106086D01*
X10055010Y-17106086D02*
X10055010Y-17058467D01*
X10055010Y-17058467D02*
X10064533Y-17020371D01*
X10064533Y-17020371D02*
X10074057Y-17001324D01*
X10074057Y-17001324D02*
X10083581Y-16991800D01*
X10083581Y-16991800D02*
X10102629Y-16982276D01*
X10235962Y-16982276D02*
X10359772Y-16982276D01*
X10359772Y-16982276D02*
X10293105Y-17058467D01*
X10293105Y-17058467D02*
X10321676Y-17058467D01*
X10321676Y-17058467D02*
X10340724Y-17067990D01*
X10340724Y-17067990D02*
X10350248Y-17077514D01*
X10350248Y-17077514D02*
X10359772Y-17096562D01*
X10359772Y-17096562D02*
X10359772Y-17144181D01*
X10359772Y-17144181D02*
X10350248Y-17163229D01*
X10350248Y-17163229D02*
X10340724Y-17172752D01*
X10340724Y-17172752D02*
X10321676Y-17182276D01*
X10321676Y-17182276D02*
X10264533Y-17182276D01*
X10264533Y-17182276D02*
X10245486Y-17172752D01*
X10245486Y-17172752D02*
X10235962Y-17163229D01*
X10455010Y-17182276D02*
X10493105Y-17182276D01*
X10493105Y-17182276D02*
X10512153Y-17172752D01*
X10512153Y-17172752D02*
X10521676Y-17163229D01*
X10521676Y-17163229D02*
X10540724Y-17134657D01*
X10540724Y-17134657D02*
X10550248Y-17096562D01*
X10550248Y-17096562D02*
X10550248Y-17020371D01*
X10550248Y-17020371D02*
X10540724Y-17001324D01*
X10540724Y-17001324D02*
X10531200Y-16991800D01*
X10531200Y-16991800D02*
X10512153Y-16982276D01*
X10512153Y-16982276D02*
X10474057Y-16982276D01*
X10474057Y-16982276D02*
X10455010Y-16991800D01*
X10455010Y-16991800D02*
X10445486Y-17001324D01*
X10445486Y-17001324D02*
X10435962Y-17020371D01*
X10435962Y-17020371D02*
X10435962Y-17067990D01*
X10435962Y-17067990D02*
X10445486Y-17087038D01*
X10445486Y-17087038D02*
X10455010Y-17096562D01*
X10455010Y-17096562D02*
X10474057Y-17106086D01*
X10474057Y-17106086D02*
X10512153Y-17106086D01*
X10512153Y-17106086D02*
X10531200Y-17096562D01*
X10531200Y-17096562D02*
X10540724Y-17087038D01*
X10540724Y-17087038D02*
X10550248Y-17067990D01*
X10721676Y-17048943D02*
X10721676Y-17182276D01*
X10674057Y-16972752D02*
X10626438Y-17115610D01*
X10626438Y-17115610D02*
X10750248Y-17115610D01*
X10816914Y-16982276D02*
X10816914Y-17020371D01*
X10893105Y-16982276D02*
X10893105Y-17020371D01*
X11155962Y-17258467D02*
X11146438Y-17248943D01*
X11146438Y-17248943D02*
X11127391Y-17220371D01*
X11127391Y-17220371D02*
X11117867Y-17201324D01*
X11117867Y-17201324D02*
X11108343Y-17172752D01*
X11108343Y-17172752D02*
X11098819Y-17125133D01*
X11098819Y-17125133D02*
X11098819Y-17087038D01*
X11098819Y-17087038D02*
X11108343Y-17039419D01*
X11108343Y-17039419D02*
X11117867Y-17010848D01*
X11117867Y-17010848D02*
X11127391Y-16991800D01*
X11127391Y-16991800D02*
X11146438Y-16963229D01*
X11146438Y-16963229D02*
X11155962Y-16953705D01*
X11213105Y-16982276D02*
X11336914Y-16982276D01*
X11336914Y-16982276D02*
X11270248Y-17058467D01*
X11270248Y-17058467D02*
X11298819Y-17058467D01*
X11298819Y-17058467D02*
X11317867Y-17067990D01*
X11317867Y-17067990D02*
X11327391Y-17077514D01*
X11327391Y-17077514D02*
X11336914Y-17096562D01*
X11336914Y-17096562D02*
X11336914Y-17144181D01*
X11336914Y-17144181D02*
X11327391Y-17163229D01*
X11327391Y-17163229D02*
X11317867Y-17172752D01*
X11317867Y-17172752D02*
X11298819Y-17182276D01*
X11298819Y-17182276D02*
X11241676Y-17182276D01*
X11241676Y-17182276D02*
X11222629Y-17172752D01*
X11222629Y-17172752D02*
X11213105Y-17163229D01*
X11517867Y-16982276D02*
X11422629Y-16982276D01*
X11422629Y-16982276D02*
X11413105Y-17077514D01*
X11413105Y-17077514D02*
X11422629Y-17067990D01*
X11422629Y-17067990D02*
X11441676Y-17058467D01*
X11441676Y-17058467D02*
X11489295Y-17058467D01*
X11489295Y-17058467D02*
X11508343Y-17067990D01*
X11508343Y-17067990D02*
X11517867Y-17077514D01*
X11517867Y-17077514D02*
X11527391Y-17096562D01*
X11527391Y-17096562D02*
X11527391Y-17144181D01*
X11527391Y-17144181D02*
X11517867Y-17163229D01*
X11517867Y-17163229D02*
X11508343Y-17172752D01*
X11508343Y-17172752D02*
X11489295Y-17182276D01*
X11489295Y-17182276D02*
X11441676Y-17182276D01*
X11441676Y-17182276D02*
X11422629Y-17172752D01*
X11422629Y-17172752D02*
X11413105Y-17163229D01*
X11733105Y-17182276D02*
X11733105Y-16982276D01*
X11818819Y-17182276D02*
X11818819Y-17077514D01*
X11818819Y-17077514D02*
X11809295Y-17058467D01*
X11809295Y-17058467D02*
X11790248Y-17048943D01*
X11790248Y-17048943D02*
X11761676Y-17048943D01*
X11761676Y-17048943D02*
X11742629Y-17058467D01*
X11742629Y-17058467D02*
X11733105Y-17067990D01*
X11942629Y-17182276D02*
X11923581Y-17172752D01*
X11923581Y-17172752D02*
X11914057Y-17163229D01*
X11914057Y-17163229D02*
X11904533Y-17144181D01*
X11904533Y-17144181D02*
X11904533Y-17087038D01*
X11904533Y-17087038D02*
X11914057Y-17067990D01*
X11914057Y-17067990D02*
X11923581Y-17058467D01*
X11923581Y-17058467D02*
X11942629Y-17048943D01*
X11942629Y-17048943D02*
X11971200Y-17048943D01*
X11971200Y-17048943D02*
X11990248Y-17058467D01*
X11990248Y-17058467D02*
X11999772Y-17067990D01*
X11999772Y-17067990D02*
X12009295Y-17087038D01*
X12009295Y-17087038D02*
X12009295Y-17144181D01*
X12009295Y-17144181D02*
X11999772Y-17163229D01*
X11999772Y-17163229D02*
X11990248Y-17172752D01*
X11990248Y-17172752D02*
X11971200Y-17182276D01*
X11971200Y-17182276D02*
X11942629Y-17182276D01*
X12123581Y-17182276D02*
X12104533Y-17172752D01*
X12104533Y-17172752D02*
X12095010Y-17153705D01*
X12095010Y-17153705D02*
X12095010Y-16982276D01*
X12275962Y-17172752D02*
X12256914Y-17182276D01*
X12256914Y-17182276D02*
X12218819Y-17182276D01*
X12218819Y-17182276D02*
X12199772Y-17172752D01*
X12199772Y-17172752D02*
X12190248Y-17153705D01*
X12190248Y-17153705D02*
X12190248Y-17077514D01*
X12190248Y-17077514D02*
X12199772Y-17058467D01*
X12199772Y-17058467D02*
X12218819Y-17048943D01*
X12218819Y-17048943D02*
X12256914Y-17048943D01*
X12256914Y-17048943D02*
X12275962Y-17058467D01*
X12275962Y-17058467D02*
X12285486Y-17077514D01*
X12285486Y-17077514D02*
X12285486Y-17096562D01*
X12285486Y-17096562D02*
X12190248Y-17115610D01*
X12361676Y-17172752D02*
X12380724Y-17182276D01*
X12380724Y-17182276D02*
X12418819Y-17182276D01*
X12418819Y-17182276D02*
X12437867Y-17172752D01*
X12437867Y-17172752D02*
X12447391Y-17153705D01*
X12447391Y-17153705D02*
X12447391Y-17144181D01*
X12447391Y-17144181D02*
X12437867Y-17125133D01*
X12437867Y-17125133D02*
X12418819Y-17115610D01*
X12418819Y-17115610D02*
X12390248Y-17115610D01*
X12390248Y-17115610D02*
X12371200Y-17106086D01*
X12371200Y-17106086D02*
X12361676Y-17087038D01*
X12361676Y-17087038D02*
X12361676Y-17077514D01*
X12361676Y-17077514D02*
X12371200Y-17058467D01*
X12371200Y-17058467D02*
X12390248Y-17048943D01*
X12390248Y-17048943D02*
X12418819Y-17048943D01*
X12418819Y-17048943D02*
X12437867Y-17058467D01*
X12514057Y-17258467D02*
X12523581Y-17248943D01*
X12523581Y-17248943D02*
X12542629Y-17220371D01*
X12542629Y-17220371D02*
X12552153Y-17201324D01*
X12552153Y-17201324D02*
X12561676Y-17172752D01*
X12561676Y-17172752D02*
X12571200Y-17125133D01*
X12571200Y-17125133D02*
X12571200Y-17087038D01*
X12571200Y-17087038D02*
X12561676Y-17039419D01*
X12561676Y-17039419D02*
X12552153Y-17010848D01*
X12552153Y-17010848D02*
X12542629Y-16991800D01*
X12542629Y-16991800D02*
X12523581Y-16963229D01*
X12523581Y-16963229D02*
X12514057Y-16953705D01*
M02*
