M48
; DRILL file {KiCad (7.0.0)} date Sat Aug  5 12:50:26 2023
; FORMAT={-:-/ absolute / inch / decimal}
; #@! TF.CreationDate,2023-08-05T12:50:26+01:00
; #@! TF.GenerationSoftware,Kicad,Pcbnew,(7.0.0)
; #@! TF.FileFunction,Plated,1,2,PTH
FMAT,2
INCH
; #@! TA.AperFunction,Plated,PTH,ViaDrill
T1C0.0157
; #@! TA.AperFunction,Plated,PTH,ComponentDrill
T2C0.0197
; #@! TA.AperFunction,Plated,PTH,ComponentDrill
T3C0.0315
; #@! TA.AperFunction,Plated,PTH,ComponentDrill
T4C0.0394
%
G90
G05
T1
X3.5594Y-5.2441
X3.8406Y-3.4774
X3.93Y-2.72
X3.9775Y-2.7011
X4.01Y-3.53
X4.0569Y-2.665
X4.115Y-2.665
X4.1476Y-3.6987
X4.1586Y-3.5174
X4.1787Y-3.5784
X4.214Y-3.7247
X4.2341Y-3.5489
X4.3631Y-3.4974
X4.3728Y-3.6542
X4.4107Y-2.6294
X4.4607Y-4.0263
X4.4805Y-2.6005
X4.5932Y-3.7581
X4.5979Y-4.0262
X4.6028Y-4.0656
X4.6678Y-2.65
X4.7351Y-4.2262
X4.7488Y-3.9554
X4.7496Y-3.8122
X4.7685Y-4.1491
X4.7852Y-2.583
X4.7859Y-3.8548
X4.7902Y-4.3319
X4.8078Y-4.1252
X4.843Y-3.838
X4.8445Y-3.3399
X4.8455Y-3.565
X4.8548Y-3.7362
X4.8684Y-3.9924
X4.8955Y-3.7351
X4.9156Y-3.7719
X4.917Y-3.8628
X4.9448Y-3.8005
X4.9506Y-3.8407
X4.9521Y-2.7082
X4.9797Y-3.6046
X4.9923Y-3.4037
X5.0051Y-3.3399
X5.0278Y-3.8178
X5.0549Y-4.1813
X5.0612Y-4.2263
X5.0945Y-4.175
X5.1006Y-3.8543
X5.1044Y-3.9409
X5.1066Y-2.599
X5.1264Y-4.4139
X5.1462Y-3.1929
X5.1738Y-3.3595
X5.1738Y-3.0651
X5.1738Y-3.1644
X5.1774Y-4.4159
X5.1981Y-2.6279
X5.214Y-3.8927
X5.2732Y-2.6285
X5.3008Y-3.5189
X5.3218Y-3.9521
X5.332Y-3.8674
X5.3761Y-2.6077
X5.39Y-5.91
X5.4166Y-4.2296
X5.4182Y-2.601
X5.448Y-3.7719
X5.535Y-5.9
X5.5403Y-3.2106
X5.55Y-5.755
X5.7182Y-2.765
X5.7997Y-3.7616
X5.8149Y-3.7222
X5.82Y-5.5168
X6.0457Y-5.653
X6.1127Y-5.5298
X6.1171Y-5.5937
X6.1646Y-5.5559
X6.2062Y-5.9544
X6.3029Y-5.724
X6.3352Y-5.7655
X6.3749Y-5.6508
T4
X3.125Y-2.9
X3.125Y-3.0
X3.125Y-3.1
X3.125Y-3.2
X3.125Y-3.3
X3.125Y-3.4
X3.125Y-3.5
X3.125Y-3.6
X3.75Y-3.45
X3.75Y-3.55
X3.75Y-3.65
X3.75Y-3.75
X3.75Y-3.85
X3.75Y-3.95
X3.75Y-4.05
X3.75Y-4.15
X4.55Y-4.81
X4.65Y-4.81
X4.75Y-4.81
X4.85Y-4.81
X4.95Y-4.81
X5.05Y-4.81
X5.15Y-4.81
X5.25Y-4.81
X5.825Y-5.685
X5.825Y-5.785
X5.825Y-5.885
X6.099Y-3.685
X6.099Y-3.785
X6.099Y-3.885
X6.099Y-3.985
X6.099Y-4.085
X6.099Y-4.185
X6.099Y-4.285
X6.099Y-4.385
T2
G00X6.8412Y-5.6178
M15
G01X6.8688Y-5.6178
M16
G05
G00X6.8688Y-5.8777
M15
G01X6.8412Y-5.8777
M16
G05
T3
G00X3.34Y-5.7317
M15
G01X3.34Y-5.8183
M16
G05
G00X3.4187Y-5.9719
M15
G01X3.5054Y-5.9719
M16
G05
G00X3.5841Y-5.7238
M15
G01X3.5841Y-5.8262
M16
G05
T0
M30
