%TF.GenerationSoftware,KiCad,Pcbnew,(7.0.0)*%
%TF.CreationDate,2023-08-05T12:50:32+01:00*%
%TF.ProjectId,DataIOTest,44617461-494f-4546-9573-742e6b696361,rev?*%
%TF.SameCoordinates,Original*%
%TF.FileFunction,Legend,Bot*%
%TF.FilePolarity,Positive*%
%FSLAX46Y46*%
G04 Gerber Fmt 4.6, Leading zero omitted, Abs format (unit mm)*
G04 Created by KiCad (PCBNEW (7.0.0)) date 2023-08-05 12:50:32*
%MOMM*%
%LPD*%
G01*
G04 APERTURE LIST*
%ADD10C,0.100000*%
%ADD11C,0.200000*%
G04 APERTURE END LIST*
D10*
X98368373Y-109896466D02*
X99385319Y-110046500D01*
X99385319Y-110046500D02*
X98690353Y-110298505D01*
X98690353Y-110298505D02*
X99418522Y-110426002D01*
X99418522Y-110426002D02*
X98443078Y-110750347D01*
X99472475Y-111042694D02*
X98476280Y-111129850D01*
X99509828Y-111469635D02*
X98988011Y-111515288D01*
X98988011Y-111515288D02*
X98888985Y-111476150D01*
X98888985Y-111476150D02*
X98833247Y-111385425D01*
X98833247Y-111385425D02*
X98820796Y-111243111D01*
X98820796Y-111243111D02*
X98859933Y-111144086D01*
X98859933Y-111144086D02*
X98903221Y-111092497D01*
X99537095Y-112327666D02*
X99576232Y-112228640D01*
X99576232Y-112228640D02*
X99559631Y-112038889D01*
X99559631Y-112038889D02*
X99503893Y-111948163D01*
X99503893Y-111948163D02*
X99404867Y-111909026D01*
X99404867Y-111909026D02*
X99025364Y-111942228D01*
X99025364Y-111942228D02*
X98934638Y-111997967D01*
X98934638Y-111997967D02*
X98895501Y-112096993D01*
X98895501Y-112096993D02*
X98912102Y-112286744D01*
X98912102Y-112286744D02*
X98967841Y-112377470D01*
X98967841Y-112377470D02*
X99066867Y-112416607D01*
X99066867Y-112416607D02*
X99161742Y-112408306D01*
X99161742Y-112408306D02*
X99215115Y-111925627D01*
X99626035Y-112797895D02*
X98961905Y-112855998D01*
X99151657Y-112839397D02*
X99060931Y-112895136D01*
X99060931Y-112895136D02*
X99017644Y-112946724D01*
X99017644Y-112946724D02*
X98978507Y-113045750D01*
X98978507Y-113045750D02*
X98986807Y-113140625D01*
X99665753Y-113798240D02*
X99704891Y-113699214D01*
X99704891Y-113699214D02*
X99688289Y-113509463D01*
X99688289Y-113509463D02*
X99632551Y-113418737D01*
X99632551Y-113418737D02*
X99533525Y-113379600D01*
X99533525Y-113379600D02*
X99154022Y-113412802D01*
X99154022Y-113412802D02*
X99063297Y-113468540D01*
X99063297Y-113468540D02*
X99024160Y-113567566D01*
X99024160Y-113567566D02*
X99040761Y-113757318D01*
X99040761Y-113757318D02*
X99096499Y-113848043D01*
X99096499Y-113848043D02*
X99195525Y-113887180D01*
X99195525Y-113887180D02*
X99290401Y-113878880D01*
X99290401Y-113878880D02*
X99343774Y-113396201D01*
X99130407Y-114781975D02*
X99163609Y-115161478D01*
X98810793Y-114953341D02*
X99664674Y-114878636D01*
X99664674Y-114878636D02*
X99763700Y-114917773D01*
X99763700Y-114917773D02*
X99819438Y-115008499D01*
X99819438Y-115008499D02*
X99827739Y-115103374D01*
X99856791Y-115435440D02*
X98860596Y-115522595D01*
X99894143Y-115862380D02*
X99372327Y-115908033D01*
X99372327Y-115908033D02*
X99273301Y-115868896D01*
X99273301Y-115868896D02*
X99217562Y-115778170D01*
X99217562Y-115778170D02*
X99205112Y-115635857D01*
X99205112Y-115635857D02*
X99244249Y-115536831D01*
X99244249Y-115536831D02*
X99287536Y-115485243D01*
X99921410Y-116720412D02*
X99960547Y-116621386D01*
X99960547Y-116621386D02*
X99943946Y-116431634D01*
X99943946Y-116431634D02*
X99888208Y-116340909D01*
X99888208Y-116340909D02*
X99789182Y-116301772D01*
X99789182Y-116301772D02*
X99409679Y-116334974D01*
X99409679Y-116334974D02*
X99318954Y-116390712D01*
X99318954Y-116390712D02*
X99279817Y-116489738D01*
X99279817Y-116489738D02*
X99296418Y-116679490D01*
X99296418Y-116679490D02*
X99352156Y-116770215D01*
X99352156Y-116770215D02*
X99451182Y-116809352D01*
X99451182Y-116809352D02*
X99546058Y-116801052D01*
X99546058Y-116801052D02*
X99599431Y-116318373D01*
X100048408Y-118172010D02*
X100087546Y-118072984D01*
X100087546Y-118072984D02*
X100070945Y-117883232D01*
X100070945Y-117883232D02*
X100015206Y-117792507D01*
X100015206Y-117792507D02*
X99916180Y-117753370D01*
X99916180Y-117753370D02*
X99536678Y-117786572D01*
X99536678Y-117786572D02*
X99445952Y-117842310D01*
X99445952Y-117842310D02*
X99406815Y-117941336D01*
X99406815Y-117941336D02*
X99423416Y-118131088D01*
X99423416Y-118131088D02*
X99479154Y-118221813D01*
X99479154Y-118221813D02*
X99578180Y-118260950D01*
X99578180Y-118260950D02*
X99673056Y-118252650D01*
X99673056Y-118252650D02*
X99726429Y-117769971D01*
X100149800Y-118784552D02*
X100094062Y-118693826D01*
X100094062Y-118693826D02*
X99995036Y-118654689D01*
X99995036Y-118654689D02*
X99141154Y-118729394D01*
X100168766Y-119547708D02*
X100207904Y-119448682D01*
X100207904Y-119448682D02*
X100191303Y-119258931D01*
X100191303Y-119258931D02*
X100135564Y-119168205D01*
X100135564Y-119168205D02*
X100036538Y-119129068D01*
X100036538Y-119129068D02*
X99657036Y-119162270D01*
X99657036Y-119162270D02*
X99566310Y-119218008D01*
X99566310Y-119218008D02*
X99527173Y-119317034D01*
X99527173Y-119317034D02*
X99543774Y-119506786D01*
X99543774Y-119506786D02*
X99599512Y-119597511D01*
X99599512Y-119597511D02*
X99698538Y-119636648D01*
X99698538Y-119636648D02*
X99793414Y-119628348D01*
X99793414Y-119628348D02*
X99846787Y-119145669D01*
X100247622Y-120449027D02*
X100286759Y-120350001D01*
X100286759Y-120350001D02*
X100270158Y-120160250D01*
X100270158Y-120160250D02*
X100214420Y-120069524D01*
X100214420Y-120069524D02*
X100162831Y-120026237D01*
X100162831Y-120026237D02*
X100063805Y-119987099D01*
X100063805Y-119987099D02*
X99779178Y-120012001D01*
X99779178Y-120012001D02*
X99688453Y-120067739D01*
X99688453Y-120067739D02*
X99645165Y-120119328D01*
X99645165Y-120119328D02*
X99606028Y-120218353D01*
X99606028Y-120218353D02*
X99622629Y-120408105D01*
X99622629Y-120408105D02*
X99678368Y-120498830D01*
X99655831Y-120787608D02*
X99689034Y-121167110D01*
X99336217Y-120958973D02*
X100190098Y-120884268D01*
X100190098Y-120884268D02*
X100289124Y-120923406D01*
X100289124Y-120923406D02*
X100344863Y-121014131D01*
X100344863Y-121014131D02*
X100353163Y-121109007D01*
X100382215Y-121441072D02*
X99718086Y-121499176D01*
X99907837Y-121482575D02*
X99817111Y-121538313D01*
X99817111Y-121538313D02*
X99773824Y-121589901D01*
X99773824Y-121589901D02*
X99734687Y-121688927D01*
X99734687Y-121688927D02*
X99742987Y-121783803D01*
X100448620Y-122200078D02*
X100392881Y-122109352D01*
X100392881Y-122109352D02*
X100341293Y-122066065D01*
X100341293Y-122066065D02*
X100242267Y-122026928D01*
X100242267Y-122026928D02*
X99957640Y-122051829D01*
X99957640Y-122051829D02*
X99866915Y-122107568D01*
X99866915Y-122107568D02*
X99823627Y-122159156D01*
X99823627Y-122159156D02*
X99784490Y-122258182D01*
X99784490Y-122258182D02*
X99796941Y-122400495D01*
X99796941Y-122400495D02*
X99852679Y-122491221D01*
X99852679Y-122491221D02*
X99904267Y-122534508D01*
X99904267Y-122534508D02*
X100003293Y-122573645D01*
X100003293Y-122573645D02*
X100287920Y-122548744D01*
X100287920Y-122548744D02*
X100378646Y-122493005D01*
X100378646Y-122493005D02*
X100421933Y-122441417D01*
X100421933Y-122441417D02*
X100461071Y-122342391D01*
X100461071Y-122342391D02*
X100448620Y-122200078D01*
X99850894Y-123017187D02*
X100515024Y-122959083D01*
X99945770Y-123008887D02*
X99902482Y-123060475D01*
X99902482Y-123060475D02*
X99863345Y-123159501D01*
X99863345Y-123159501D02*
X99875796Y-123301814D01*
X99875796Y-123301814D02*
X99931534Y-123392540D01*
X99931534Y-123392540D02*
X100030560Y-123431677D01*
X100030560Y-123431677D02*
X100552377Y-123386024D01*
X100542291Y-123817115D02*
X100598030Y-123907840D01*
X100598030Y-123907840D02*
X100614631Y-124097592D01*
X100614631Y-124097592D02*
X100575493Y-124196618D01*
X100575493Y-124196618D02*
X100484768Y-124252356D01*
X100484768Y-124252356D02*
X100437330Y-124256506D01*
X100437330Y-124256506D02*
X100338304Y-124217369D01*
X100338304Y-124217369D02*
X100282566Y-124126644D01*
X100282566Y-124126644D02*
X100270115Y-123984330D01*
X100270115Y-123984330D02*
X100214377Y-123893605D01*
X100214377Y-123893605D02*
X100115351Y-123854467D01*
X100115351Y-123854467D02*
X100067913Y-123858618D01*
X100067913Y-123858618D02*
X99977187Y-123914356D01*
X99977187Y-123914356D02*
X99938050Y-124013382D01*
X99938050Y-124013382D02*
X99950501Y-124155696D01*
X99950501Y-124155696D02*
X100006239Y-124246421D01*
X100716727Y-125264563D02*
X100052598Y-125322667D01*
X100242349Y-125306066D02*
X100151624Y-125361804D01*
X100151624Y-125361804D02*
X100108336Y-125413392D01*
X100108336Y-125413392D02*
X100069199Y-125512418D01*
X100069199Y-125512418D02*
X100077499Y-125607294D01*
X100783132Y-126023569D02*
X100727393Y-125932843D01*
X100727393Y-125932843D02*
X100675805Y-125889556D01*
X100675805Y-125889556D02*
X100576779Y-125850418D01*
X100576779Y-125850418D02*
X100292152Y-125875320D01*
X100292152Y-125875320D02*
X100201427Y-125931058D01*
X100201427Y-125931058D02*
X100158139Y-125982647D01*
X100158139Y-125982647D02*
X100119002Y-126081673D01*
X100119002Y-126081673D02*
X100131453Y-126223986D01*
X100131453Y-126223986D02*
X100187191Y-126314712D01*
X100187191Y-126314712D02*
X100238779Y-126357999D01*
X100238779Y-126357999D02*
X100337805Y-126397136D01*
X100337805Y-126397136D02*
X100622432Y-126372235D01*
X100622432Y-126372235D02*
X100713158Y-126316496D01*
X100713158Y-126316496D02*
X100756445Y-126264908D01*
X100756445Y-126264908D02*
X100795583Y-126165882D01*
X100795583Y-126165882D02*
X100783132Y-126023569D01*
X100886889Y-127209515D02*
X100365072Y-127255168D01*
X100365072Y-127255168D02*
X100266046Y-127216031D01*
X100266046Y-127216031D02*
X100210308Y-127125305D01*
X100210308Y-127125305D02*
X100193707Y-126935554D01*
X100193707Y-126935554D02*
X100232844Y-126836528D01*
X100839451Y-127213665D02*
X100878588Y-127114639D01*
X100878588Y-127114639D02*
X100857837Y-126877450D01*
X100857837Y-126877450D02*
X100802098Y-126786725D01*
X100802098Y-126786725D02*
X100703072Y-126747587D01*
X100703072Y-126747587D02*
X100608197Y-126755888D01*
X100608197Y-126755888D02*
X100517471Y-126811626D01*
X100517471Y-126811626D02*
X100478334Y-126910652D01*
X100478334Y-126910652D02*
X100499085Y-127147841D01*
X100499085Y-127147841D02*
X100459948Y-127246867D01*
X100928391Y-127683893D02*
X100264262Y-127741997D01*
X100359137Y-127733697D02*
X100315850Y-127785285D01*
X100315850Y-127785285D02*
X100276712Y-127884311D01*
X100276712Y-127884311D02*
X100289163Y-128026624D01*
X100289163Y-128026624D02*
X100344902Y-128117350D01*
X100344902Y-128117350D02*
X100443928Y-128156487D01*
X100443928Y-128156487D02*
X100965744Y-128110834D01*
X100443928Y-128156487D02*
X100353202Y-128212225D01*
X100353202Y-128212225D02*
X100314065Y-128311251D01*
X100314065Y-128311251D02*
X100326516Y-128453565D01*
X100326516Y-128453565D02*
X100382254Y-128544290D01*
X100382254Y-128544290D02*
X100481280Y-128583428D01*
X100481280Y-128583428D02*
X101003096Y-128537775D01*
D11*
%TO.C,J5*%
X156813285Y-66661380D02*
X157384713Y-66661380D01*
X157098999Y-66661380D02*
X157098999Y-65661380D01*
X157098999Y-65661380D02*
X157194237Y-65804238D01*
X157194237Y-65804238D02*
X157289475Y-65899476D01*
X157289475Y-65899476D02*
X157384713Y-65947095D01*
X96646904Y-65883619D02*
X96599285Y-65836000D01*
X96599285Y-65836000D02*
X96504047Y-65788380D01*
X96504047Y-65788380D02*
X96265952Y-65788380D01*
X96265952Y-65788380D02*
X96170714Y-65836000D01*
X96170714Y-65836000D02*
X96123095Y-65883619D01*
X96123095Y-65883619D02*
X96075476Y-65978857D01*
X96075476Y-65978857D02*
X96075476Y-66074095D01*
X96075476Y-66074095D02*
X96123095Y-66216952D01*
X96123095Y-66216952D02*
X96694523Y-66788380D01*
X96694523Y-66788380D02*
X96075476Y-66788380D01*
X95170714Y-65788380D02*
X95646904Y-65788380D01*
X95646904Y-65788380D02*
X95694523Y-66264571D01*
X95694523Y-66264571D02*
X95646904Y-66216952D01*
X95646904Y-66216952D02*
X95551666Y-66169333D01*
X95551666Y-66169333D02*
X95313571Y-66169333D01*
X95313571Y-66169333D02*
X95218333Y-66216952D01*
X95218333Y-66216952D02*
X95170714Y-66264571D01*
X95170714Y-66264571D02*
X95123095Y-66359809D01*
X95123095Y-66359809D02*
X95123095Y-66597904D01*
X95123095Y-66597904D02*
X95170714Y-66693142D01*
X95170714Y-66693142D02*
X95218333Y-66740761D01*
X95218333Y-66740761D02*
X95313571Y-66788380D01*
X95313571Y-66788380D02*
X95551666Y-66788380D01*
X95551666Y-66788380D02*
X95646904Y-66740761D01*
X95646904Y-66740761D02*
X95694523Y-66693142D01*
%TD*%
M02*
