%TF.GenerationSoftware,KiCad,Pcbnew,(7.0.0)*%
%TF.CreationDate,2023-08-05T12:50:32+01:00*%
%TF.ProjectId,DataIOTest,44617461-494f-4546-9573-742e6b696361,rev?*%
%TF.SameCoordinates,Original*%
%TF.FileFunction,Soldermask,Bot*%
%TF.FilePolarity,Negative*%
%FSLAX46Y46*%
G04 Gerber Fmt 4.6, Leading zero omitted, Abs format (unit mm)*
G04 Created by KiCad (PCBNEW (7.0.0)) date 2023-08-05 12:50:32*
%MOMM*%
%LPD*%
G01*
G04 APERTURE LIST*
%ADD10R,1.700000X1.700000*%
%ADD11O,1.700000X1.700000*%
%ADD12O,1.600000X0.900000*%
%ADD13R,1.800000X4.400000*%
%ADD14O,1.800000X4.000000*%
%ADD15O,4.000000X1.800000*%
%ADD16R,2.000000X8.000000*%
G04 APERTURE END LIST*
D10*
%TO.C,J9*%
X79374999Y-91439999D03*
D11*
X79374999Y-88899999D03*
X79374999Y-86359999D03*
X79374999Y-83819999D03*
X79374999Y-81279999D03*
X79374999Y-78739999D03*
X79374999Y-76199999D03*
X79374999Y-73659999D03*
%TD*%
D10*
%TO.C,J1*%
X115569999Y-122173999D03*
D11*
X118109999Y-122173999D03*
X120649999Y-122173999D03*
X123189999Y-122173999D03*
X125729999Y-122173999D03*
X128269999Y-122173999D03*
X130809999Y-122173999D03*
X133349999Y-122173999D03*
%TD*%
D12*
%TO.C,J4*%
X174116999Y-142692999D03*
X174116999Y-149292999D03*
%TD*%
D10*
%TO.C,J3*%
X154914499Y-111378999D03*
D11*
X154914499Y-108838999D03*
X154914499Y-106298999D03*
X154914499Y-103758999D03*
X154914499Y-101218999D03*
X154914499Y-98678999D03*
X154914499Y-96138999D03*
X154914499Y-93598999D03*
%TD*%
D10*
%TO.C,J2*%
X95249999Y-87629999D03*
D11*
X95249999Y-90169999D03*
X95249999Y-92709999D03*
X95249999Y-95249999D03*
X95249999Y-97789999D03*
X95249999Y-100329999D03*
X95249999Y-102869999D03*
X95249999Y-105409999D03*
%TD*%
D13*
%TO.C,J6*%
X91035999Y-146684999D03*
D14*
X84835999Y-146684999D03*
D15*
X87935999Y-151684999D03*
%TD*%
D11*
%TO.C,J8*%
X147954999Y-149478999D03*
X147954999Y-146938999D03*
D10*
X147954999Y-144398999D03*
%TD*%
D16*
%TO.C,J5*%
X156958499Y-60999999D03*
X154418499Y-60999999D03*
X151878499Y-60999999D03*
X149338499Y-60999999D03*
X146798499Y-60999999D03*
X144258499Y-60999999D03*
X141718499Y-60999999D03*
X139178499Y-60999999D03*
X136638499Y-60999999D03*
X134098499Y-60999999D03*
X131558499Y-60999999D03*
X129018499Y-60999999D03*
X126478499Y-60999999D03*
X123938499Y-60999999D03*
X121398499Y-60999999D03*
X118858499Y-60999999D03*
X116318499Y-60999999D03*
X113778499Y-60999999D03*
X111238499Y-60999999D03*
X108698499Y-60999999D03*
X106158499Y-60999999D03*
X103618499Y-60999999D03*
X101078499Y-60999999D03*
X98538499Y-60999999D03*
X95998499Y-60999999D03*
%TD*%
M02*
